<svg id="Capa_1" enable-background="new 0 0 512 512" height="512" viewBox="0 0 512 512" width="512" xmlns="http://www.w3.org/2000/svg"><g><path d="m512 241h-46.971l26.98-26.98-21.213-21.213-48.192 48.193h-40.861l18.542-44.765-44.765-18.542 28.893-28.893h68.156v-30h-38.156l33.214-33.214-21.213-21.213-33.214 33.214v-38.155h-30v68.156l-28.892 28.892-18.542-44.765-44.766 18.542v-40.86l48.193-48.194-21.213-21.212-26.98 26.98v-46.971h-30v46.971l-26.98-26.98-21.213 21.213 48.193 48.193v40.86l-44.765-18.542-18.542 44.765-28.892-28.892v-68.156h-30v38.156l-33.214-33.214-21.213 21.213 33.214 33.214h-38.156v30h68.156l28.892 28.892-44.765 18.542 18.542 44.765h-40.86l-48.194-48.193-21.212 21.213 26.98 26.98h-46.971v30h46.971l-26.98 26.98 21.213 21.213 48.193-48.193h40.86l-18.542 44.765 44.765 18.542-28.892 28.892h-68.156v30h38.156l-33.214 33.214 21.213 21.213 33.214-33.214v38.156h30v-68.156l28.892-28.892 18.542 44.765 44.765-18.542v40.86l-48.193 48.194 21.213 21.213 26.98-26.98v46.97h30v-46.971l26.98 26.98 21.213-21.213-48.193-48.193v-40.86l44.765 18.542 18.542-44.765 28.892 28.892v68.156h30v-38.156l33.214 33.214 21.213-21.213-33.214-33.214h38.156v-30h-68.156l-28.893-28.893 44.765-18.542-18.542-44.764h40.861l48.193 48.193 21.213-21.213-26.98-26.98h46.971zm-150.913-28.528-11.817 28.528h-57.057l40.345-40.345zm-61.559-61.559 11.817 28.529-40.345 40.345v-57.058zm-87.056 0 28.528 11.816v57.058l-40.346-40.346zm-61.559 61.559 28.529-11.817 40.345 40.345h-57.058zm0 87.056 11.816-28.528h57.058l-40.346 40.346zm61.559 61.559-11.817-28.529 40.345-40.345v57.058zm87.056 0-28.528-11.816v-57.058l40.346 40.346zm61.559-61.559-28.529 11.817-40.345-40.345h57.057z" fill="#9dcfff"/><g><path d="m512 241h-46.971l26.98-26.98-21.213-21.213-48.192 48.193h-40.861l18.542-44.765-44.765-18.542 28.893-28.893h68.156v-30h-38.156l33.214-33.214-21.213-21.213-33.214 33.214v-38.155h-30v68.156l-28.892 28.892-18.542-44.765-44.766 18.542v-40.86l48.193-48.194-21.213-21.212-26.98 26.98v-46.971h-15v512h15v-46.971l26.98 26.98 21.213-21.213-48.193-48.193v-40.86l44.765 18.542 18.542-44.765 28.892 28.892v68.156h30v-38.156l33.214 33.214 21.213-21.213-33.214-33.214h38.156v-30h-68.156l-28.893-28.893 44.765-18.542-18.542-44.764h40.861l48.193 48.193 21.213-21.213-26.98-26.98h46.971zm-241-78.271 28.528-11.817 11.817 28.529-40.345 40.346zm28.528 198.358-28.528-11.816v-57.058l40.346 40.346zm33.03-49.742-40.345-40.345h57.057l11.817 28.528zm16.712-70.345h-57.057l40.345-40.345 28.529 11.817z" fill="#3ba9ff"/></g></g></svg>