<svg id="Capa_1" enable-background="new 0 0 512 512" height="512" viewBox="0 0 512 512" width="512" xmlns="http://www.w3.org/2000/svg"><g><g><path d="m284.486 208.24c-.603 0-1.216-.072-1.828-.221-17.564-4.302-33.848-13.157-47.091-25.609-3.082-2.897-3.231-7.746-.333-10.827 2.897-3.08 7.746-3.23 10.827-.333 11.322 10.646 25.237 18.216 40.241 21.889 4.109 1.006 6.624 5.153 5.618 9.262-.856 3.497-3.987 5.839-7.434 5.839z" fill="#5e6b75"/><path d="m300.371 301.173-8.229-22.33-30.978-32.011c-.641-.581-1.275-1.176-1.893-1.795-20.552-20.552-20.552-53.875 0-74.427 1.418-1.418 2.903-2.725 4.433-3.947l29.919-26.612 12.626-25.153c-27.056-2.827-55.109 6.114-75.843 26.848-1.2 1.2-2.361 2.425-3.482 3.673l-8.499.851-1.602 12.661c-18.965 30.843-18.36 70.314 1.811 100.609l-164.065 164.064c-7.215 7.215-7.215 18.914 0 26.129s18.914 7.215 26.129 0l21.734-21.733 16.593 16.593c7.215 7.215 18.914 7.216 26.129 0 7.215-7.215 7.215-18.914 0-26.129l-16.593-16.593 19.872-19.871 16.593 16.593c7.215 7.215 18.914 7.215 26.13 0 7.215-7.215 7.215-18.914 0-26.129l-16.593-16.593 70.2-70.2c16.736 11.145 36.272 16.308 55.608 15.502z" fill="#f6e080"/><g fill="#eccd61"><path d="m263.704 166.663c8.85-7.065 19.445-10.873 30.177-11.401l33.034-11.84 8.965-20.363c-9.442-4.387-19.467-7.099-29.631-8.161-18.879 12.543-33.811 30.549-42.545 51.765z"/><path d="m330.01 295.053-7.006-23.506-32.706-11.474c-10.532-1.24-20.76-5.649-29.134-13.242 7.4 21.825 21.22 40.685 39.207 54.341 10.075-.419 20.097-2.459 29.639-6.119z"/></g><path d="m360.623 504.757 28.399-15.702v-28.844l-19.46-15.093c-2.636-2.044-2.636-6.026 0-8.07l19.46-15.093-19.46-15.092c-2.636-2.044-2.636-6.026 0-8.07l19.46-15.092-19.46-15.093c-2.636-2.044-2.636-6.026 0-8.07l19.46-15.093v-42.662c0-2.135 1.331-4.041 3.335-4.781 35.667-13.161 61.102-47.453 61.102-87.691 0-64.984-45.947-88.364-93.23-92.995-47.801 4.7-85.129 45.824-84.269 94.673.733 41.603 28.655 76.568 66.753 87.898v185.651zm9.331-347.073c14.481 0 26.22 11.739 26.22 26.221 0 14.481-11.739 26.22-26.22 26.22-7.519 0-14.299-3.165-19.08-8.235l.411-8.944-7.21-4.801c-.224-1.38-.341-2.797-.341-4.241-.001-14.481 11.738-26.22 26.22-26.22z" fill="#ecb85e"/><g><path d="m369.394 116.863c-3.102 0-6.167.155-9.192.45 47.295 4.618 84.257 44.49 84.257 92.998 0 40.238-25.435 74.531-61.102 87.691-2.003.739-3.335 2.645-3.335 4.781v42.662l-19.46 15.093c-2.636 2.044-2.636 6.026 0 8.07l19.46 15.093-19.46 15.093c-2.636 2.044-2.636 6.026 0 8.07l19.46 15.092-19.46 15.093c-2.636 2.044-2.636 6.026 0 8.07l19.46 15.093v25.327l-19.399 19.218 5.235 5.618c1.964 2.108 5.283 2.174 7.33.146l23.705-23.484c.968-.959 1.513-2.265 1.513-3.628v-20.696c0-1.578-.73-3.068-1.977-4.035l-17.483-13.559c-2.636-2.044-2.636-6.026 0-8.07l14.257-11.057c2.636-2.044 2.636-6.026 0-8.07l-14.257-11.057c-2.636-2.044-2.636-6.026 0-8.07l14.257-11.057c2.636-2.044 2.636-6.026 0-8.07l-14.257-11.057c-2.636-2.044-2.636-6.026 0-8.07l17.483-13.559c1.247-.967 1.977-2.457 1.977-4.035v-43.782c37.406-12.206 64.437-47.369 64.437-88.85-.001-51.614-41.839-93.452-93.449-93.452z" fill="#eaa949"/></g><path d="m307.838 0c-58.185 0-105.521 47.337-105.521 105.521 0 18.919 5.014 37.259 14.522 53.418 2.907-4.728 6.27-9.253 10.097-13.512-6.101-12.343-9.299-25.938-9.299-39.907 0-49.738 40.464-90.202 90.202-90.202s90.202 40.464 90.202 90.202c0 36.091-21.386 68.356-53.961 82.622.858 5.276 3.301 10.01 6.811 13.73 37.736-16.834 62.47-54.378 62.47-96.353-.002-58.182-47.338-105.519-105.523-105.519z" fill="#5e6b75"/></g></g></svg>