<?xml version="1.0"?>
<svg xmlns="http://www.w3.org/2000/svg" xmlns:xlink="http://www.w3.org/1999/xlink" xmlns:svgjs="http://svgjs.com/svgjs" version="1.1" width="512" height="512" x="0" y="0" viewBox="0 0 512 512" style="enable-background:new 0 0 512 512" xml:space="preserve" class=""><g><g xmlns="http://www.w3.org/2000/svg"><path d="m73.184 92.89c-38.63 4.689-65.662 12.594-73.184 14.282v360.938l18.633-4.673c76.143-19.014 161.225-19.014 237.367 0z" fill="#nannannan" data-original="#704c55" style="" class=""/><path d="m482 100.324c-73.546-15.251-153.208-13.597-226 3.567-5.211-2.534-66.881-53.994-166-59.041-5.059-.258-9.739-.959-15-.959h-15v360h15c103.921 0 169.629 54.267 181 60 3.04-.385 111.652-31.822 237.367-.454l18.633 4.672v-360.922c-7.491-1.756-23.772-5.572-30-6.863z" fill="#ff5151" data-original="#ff6c6c" style="" class=""/><path d="m482 100.324c-73.546-15.251-153.208-13.597-226 3.567v40.913 286.377 32.71c3.04-.385 111.652-31.822 237.367-.454l18.633 4.672v-360.922c-7.491-1.756-23.772-5.572-30-6.863z" fill="#ff0022" data-original="#e63950" style="" class=""/><g><g><g><g><path d="m331 356.913v-176.045l133.041 88.022z" fill="#d5e8fe" data-original="#d5e8fe" style=""/></g></g></g></g></g></g></svg>
