<?xml version="1.0"?>
<svg xmlns="http://www.w3.org/2000/svg" xmlns:xlink="http://www.w3.org/1999/xlink" xmlns:svgjs="http://svgjs.com/svgjs" version="1.1" width="512" height="512" x="0" y="0" viewBox="0 0 512 512" style="enable-background:new 0 0 512 512" xml:space="preserve" class=""><circle r="256" cx="256" cy="256" fill="#091414" shape="circle"/><g transform="matrix(0.7,0,0,0.7,76.80000000000001,76.80000143051149)">
<ellipse xmlns="http://www.w3.org/2000/svg" style="" cx="137.95" cy="153.86" rx="137.95" ry="137.99" fill="#ee3835" data-original="#ee3835"/>
<path xmlns="http://www.w3.org/2000/svg" style="" d="M25.433,153.858c0-71.921,55.007-130.98,125.231-137.402  c-4.188-0.383-8.429-0.589-12.717-0.589C61.762,15.867,0,77.648,0,153.858s61.762,137.99,137.948,137.99  c4.288,0,8.528-0.206,12.717-0.589C80.44,284.837,25.433,225.778,25.433,153.858z" fill="#000000" data-original="#000000"/>
<ellipse xmlns="http://www.w3.org/2000/svg" style="" cx="137.95" cy="153.86" rx="69.61" ry="69.63" fill="#ffffff" data-original="#ffffff"/>
<path xmlns="http://www.w3.org/2000/svg" style="" d="M93.231,153.858c0-34.204,24.661-62.626,57.161-68.497  c-4.04-0.73-8.194-1.132-12.445-1.132c-38.442,0-69.606,31.174-69.606,69.629c0,38.454,31.164,69.628,69.606,69.628  c4.25,0,8.404-0.402,12.445-1.132C117.893,216.483,93.231,188.061,93.231,153.858z" fill="#000000" data-original="#000000"/>
<path xmlns="http://www.w3.org/2000/svg" style="" d="M164.743,138.683c0-12.287-9.93-22.282-22.136-22.282h-17.772c-4.142,0-7.5,3.358-7.5,7.5  s3.358,7.5,7.5,7.5h17.772c3.935,0,7.136,3.267,7.136,7.282s-3.201,7.282-7.136,7.282h-8.389c-4.142,0-7.5,3.358-7.5,7.5  s3.358,7.5,7.5,7.5h8.389c3.935,0,7.136,3.266,7.136,7.281c0,4.016-3.201,7.283-7.136,7.283h-17.772c-4.142,0-7.5,3.358-7.5,7.5  s3.358,7.5,7.5,7.5h17.772c12.206,0,22.136-9.996,22.136-22.283c0-5.668-2.117-10.845-5.592-14.781  C162.626,149.528,164.743,144.351,164.743,138.683z" fill="#005289" data-original="#005289" class=""/>
<ellipse xmlns="http://www.w3.org/2000/svg" style="" cx="374.05" cy="198.29" rx="137.95" ry="137.99" fill="#0059ad" data-original="#0059ad"/>
<path xmlns="http://www.w3.org/2000/svg" style="" d="M259.285,198.29c0-72.305,55.596-131.612,126.358-137.502  c-3.822-0.318-7.686-0.489-11.59-0.489c-76.186,0-137.947,61.78-137.947,137.991c0,76.21,61.761,137.99,137.947,137.99  c3.904,0,7.768-0.171,11.59-0.489C314.881,329.902,259.285,270.595,259.285,198.29z" fill="#000000" data-original="#000000"/>
<ellipse xmlns="http://www.w3.org/2000/svg" style="" cx="374.05" cy="198.29" rx="69.61" ry="69.63" fill="#ffffff" data-original="#ffffff"/>
<path xmlns="http://www.w3.org/2000/svg" style="" d="M327.974,198.29c0-34.441,25.005-63.023,57.842-68.618  c-3.826-0.652-7.752-1.01-11.764-1.01c-38.442,0-69.605,31.174-69.605,69.628s31.164,69.628,69.605,69.628  c4.012,0,7.938-0.358,11.764-1.01C352.979,261.314,327.974,232.731,327.974,198.29z" fill="#000000" data-original="#000000"/>
<path xmlns="http://www.w3.org/2000/svg" style="" d="M405.076,183.115c0-12.286-9.931-22.282-22.137-22.282h-17.772c-12.206,0-22.136,9.996-22.136,22.282  c0,5.859,2.262,11.194,5.948,15.175c-3.686,3.982-5.948,9.316-5.948,15.175c0,12.286,9.93,22.282,22.136,22.282h17.772  c12.206,0,22.137-9.996,22.137-22.282c0-5.859-2.262-11.194-5.949-15.175C402.814,194.309,405.076,188.974,405.076,183.115z   M365.167,175.833h17.772c3.935,0,7.137,3.267,7.137,7.282s-3.202,7.281-7.137,7.281h-17.772c-3.935,0-7.136-3.266-7.136-7.281  C358.031,179.1,361.232,175.833,365.167,175.833z M382.939,220.747h-17.772c-3.935,0-7.136-3.267-7.136-7.282  s3.201-7.281,7.136-7.281h17.772c3.935,0,7.137,3.266,7.137,7.281S386.874,220.747,382.939,220.747z" fill="#005289" data-original="#005289" class=""/>
<ellipse xmlns="http://www.w3.org/2000/svg" style="" cx="259.19" cy="358.14" rx="137.95" ry="137.99" fill="#e9eaec" data-original="#e9eaec"/>
<path xmlns="http://www.w3.org/2000/svg" style="" d="M121.245,358.143c0,35.8,13.632,68.414,35.983,92.938h203.929  c22.353-24.524,35.983-57.138,35.983-92.938s-13.631-68.416-35.983-92.94h-203.93C134.876,289.727,121.245,322.342,121.245,358.143z  " fill="#fecf05" data-original="#fecf05"/>
<path xmlns="http://www.w3.org/2000/svg" style="" d="M146.994,358.143c0-71.867,54.925-130.892,125.074-137.388  c-4.239-0.392-8.532-0.603-12.874-0.603c-76.187,0-137.949,61.781-137.949,137.991c0,76.209,61.761,137.99,137.949,137.99  c4.342,0,8.635-0.211,12.874-0.603C201.919,489.034,146.994,430.009,146.994,358.143z" fill="#000000" data-original="#000000"/>
<ellipse xmlns="http://www.w3.org/2000/svg" style="" cx="259.19" cy="358.14" rx="69.61" ry="69.63" fill="#ffffff" data-original="#ffffff"/>
<path xmlns="http://www.w3.org/2000/svg" style="" d="M212.594,358.143c0-34.532,25.137-63.178,58.103-68.665  c-3.744-0.624-7.583-0.964-11.504-0.964c-38.443,0-69.607,31.174-69.607,69.629c0,38.454,31.164,69.628,69.607,69.628  c3.92,0,7.76-0.34,11.504-0.964C237.731,421.32,212.594,392.674,212.594,358.143z" fill="#000000" data-original="#000000"/>
<g xmlns="http://www.w3.org/2000/svg">
	<path style="" d="M259.106,308.63c-12.132,0-22.573,9.047-24.287,21.043c-0.082,0.574-0.075,2.113-0.075,2.327v1.96   c0,13.531,11.006,24.54,24.534,24.54c3.296,0,6.457-0.687,9.362-1.9v5.172c0,5.823-4.942,8.476-9.534,8.476   c-5.627,0-7.146-2.031-7.645-2.698c-2.481-3.317-7.18-3.996-10.498-1.515c-3.317,2.481-3.995,7.181-1.515,10.498   c2.973,3.976,8.797,8.715,19.657,8.715c13.757,0,24.534-10.312,24.534-23.476V333.17   C283.641,319.639,272.635,308.63,259.106,308.63z M268.641,335.73c-0.832,4.455-4.782,7.77-9.362,7.77   c-5.257,0-9.534-4.28-9.534-9.54c0,0-0.014-2.277-0.024-2.435c0.781-4.518,4.763-7.895,9.386-7.895c5.257,0,9.534,4.28,9.534,9.54   V335.73z" fill="#005289" data-original="#005289" class=""/>
	<path style="" d="M274.96,389.854h-31.536c-4.142,0-7.5,3.358-7.5,7.5s3.358,7.5,7.5,7.5h31.536   c4.142,0,7.5-3.358,7.5-7.5S279.103,389.854,274.96,389.854z" fill="#005289" data-original="#005289" class=""/>
</g>
<g xmlns="http://www.w3.org/2000/svg">
</g>
<g xmlns="http://www.w3.org/2000/svg">
</g>
<g xmlns="http://www.w3.org/2000/svg">
</g>
<g xmlns="http://www.w3.org/2000/svg">
</g>
<g xmlns="http://www.w3.org/2000/svg">
</g>
<g xmlns="http://www.w3.org/2000/svg">
</g>
<g xmlns="http://www.w3.org/2000/svg">
</g>
<g xmlns="http://www.w3.org/2000/svg">
</g>
<g xmlns="http://www.w3.org/2000/svg">
</g>
<g xmlns="http://www.w3.org/2000/svg">
</g>
<g xmlns="http://www.w3.org/2000/svg">
</g>
<g xmlns="http://www.w3.org/2000/svg">
</g>
<g xmlns="http://www.w3.org/2000/svg">
</g>
<g xmlns="http://www.w3.org/2000/svg">
</g>
<g xmlns="http://www.w3.org/2000/svg">
</g>
</g></svg>
