<?xml version="1.0"?>
<svg xmlns="http://www.w3.org/2000/svg" xmlns:xlink="http://www.w3.org/1999/xlink" xmlns:svgjs="http://svgjs.com/svgjs" version="1.1" width="512" height="512" x="0" y="0" viewBox="0 0 512 512" style="enable-background:new 0 0 512 512" xml:space="preserve" class=""><circle r="256" cx="256" cy="256" fill="#ffffff" shape="circle"/><g transform="matrix(0.7,0,0,0.7,76.80000000000001,76.80000000000001)">
<path xmlns="http://www.w3.org/2000/svg" style="" d="M260.799,149.399C267.4,135.3,271,120,271,104.399C271,49.799,228.1,0,166,0S61,49.799,61,104.399  c0,15.601,3.6,30.901,10.201,45C27.4,180,0,232.7,0,286.399c0,47.701,21.7,93,57.7,124.501c7.8,6.899,17.999,10.499,29.099,10.499  H166c39.6,0,79.2,0,79.2,0c11.1,0,21.299-3.6,29.099-10.499c36-31.501,56.7-76.8,56.7-124.501C331,232.7,304.6,180,260.799,149.399z   M166,150c-24.901,0-45-20.099-45-45s20.099-45,45-45s45,20.099,45,45S190.901,150,166,150z" fill="#6e6e6e" data-original="#6e6e6e" class=""/>
<path xmlns="http://www.w3.org/2000/svg" style="" d="M260.799,149.399C267.4,135.3,271,120,271,104.399C271,49.799,228.1,0,166,0v60  c24.901,0,45,20.099,45,45s-20.099,45-45,45v271.399c39.6,0,79.2,0,79.2,0c11.1,0,21.299-3.6,29.099-10.499  c36-31.501,56.7-76.8,56.7-124.501C331,232.7,304.6,180,260.799,149.399z" fill="#5a5a5a" data-original="#5a5a5a" class=""/>
<path xmlns="http://www.w3.org/2000/svg" style="" d="M422,332h45c24.853,0,45,20.147,45,45v60c0,24.853-20.147,45-45,45h-45V332z" fill="#00ab94" data-original="#00ab94" class=""/>
<rect xmlns="http://www.w3.org/2000/svg" x="211" y="377" style="" width="211" height="60" fill="#c5d3dd" data-original="#c5d3dd"/>
<rect xmlns="http://www.w3.org/2000/svg" x="316" y="377" style="" width="106" height="60" fill="#b6c4cf" data-original="#b6c4cf"/>
<g xmlns="http://www.w3.org/2000/svg">
	<path style="" d="M241,482h-45c-24.853,0-45-20.147-45-45v-60c0-24.853,20.147-45,45-45h45V482z" fill="#00ccb2" data-original="#00ccb2" class=""/>
	<path style="" d="M422,512L422,512c-16.569,0-30-13.431-30-30V332c0-16.569,13.431-30,30-30l0,0   c16.569,0,30,13.431,30,30v150C452,498.569,438.569,512,422,512z" fill="#00ccb2" data-original="#00ccb2" class=""/>
</g>
<path xmlns="http://www.w3.org/2000/svg" style="" d="M241,512L241,512c-16.569,0-30-13.431-30-30V332c0-16.569,13.431-30,30-30l0,0  c16.569,0,30,13.431,30,30v150C271,498.569,257.569,512,241,512z" fill="#00ddc1" data-original="#00ddc1" class=""/>
<g xmlns="http://www.w3.org/2000/svg">
</g>
<g xmlns="http://www.w3.org/2000/svg">
</g>
<g xmlns="http://www.w3.org/2000/svg">
</g>
<g xmlns="http://www.w3.org/2000/svg">
</g>
<g xmlns="http://www.w3.org/2000/svg">
</g>
<g xmlns="http://www.w3.org/2000/svg">
</g>
<g xmlns="http://www.w3.org/2000/svg">
</g>
<g xmlns="http://www.w3.org/2000/svg">
</g>
<g xmlns="http://www.w3.org/2000/svg">
</g>
<g xmlns="http://www.w3.org/2000/svg">
</g>
<g xmlns="http://www.w3.org/2000/svg">
</g>
<g xmlns="http://www.w3.org/2000/svg">
</g>
<g xmlns="http://www.w3.org/2000/svg">
</g>
<g xmlns="http://www.w3.org/2000/svg">
</g>
<g xmlns="http://www.w3.org/2000/svg">
</g>
</g></svg>
