<?xml version="1.0"?>
<svg xmlns="http://www.w3.org/2000/svg" xmlns:xlink="http://www.w3.org/1999/xlink" xmlns:svgjs="http://svgjs.com/svgjs" version="1.1" width="512" height="512" x="0" y="0" viewBox="0 0 512 512" style="enable-background:new 0 0 512 512" xml:space="preserve" class=""><circle r="256" cx="256" cy="256" fill="#6eb0f7" shape="circle"/><g transform="matrix(0.7,0,0,0.7,75.60000000000002,76.80000000000001)"><g xmlns="http://www.w3.org/2000/svg" id="Flat"><path d="m480 24a568.145 568.145 0 0 1 -56.68994 134.26 568.42673 568.42673 0 0 1 -88.99 115.42017l-58.32006 58.31983-12.34009-12.33984a39.12977 39.12977 0 0 0 -46.93991-6.38037c-.24.14013-.48.28027-.72.43017a38.59352 38.59352 0 0 0 -7.65991 5.9502l-48.34009 48.33984v-80l56-56 109.79-109.79a421.94081 421.94081 0 0 1 125.76005-86.67q13.99475-6.28487 28.44995-11.54z" fill="#c4d4e0" data-original="#c4d4e0" style=""/><path d="m216 232v81.71a38.59352 38.59352 0 0 0 -7.65991 5.9502l-48.34009 48.3398v-80z" fill="#a6b2bc" data-original="#a6b2bc" style=""/><path d="m184 264v80l-84.6863 84.6863a38.62739 38.62739 0 0 0 -11.3137 27.3137 32 32 0 0 1 -32 32 32 32 0 0 1 -32-32v-18.74518a32 32 0 0 1 9.37257-22.62739z" fill="#ad7d4d" data-original="#ad7d4d" style="" class=""/><circle cx="56" cy="456" fill="#c4d4e0" r="8" data-original="#c4d4e0" style=""/><circle cx="144" cy="344" fill="#c4d4e0" r="8" data-original="#c4d4e0" style=""/><path d="m480 24a568.145 568.145 0 0 1 -56.68994 134.26 568.42673 568.42673 0 0 1 -88.99 115.42017l-58.32006 58.31983-12.34009-12.33984a38.86609 38.86609 0 0 0 -5.01977-4.24024l58.71-58.71a545.39527 545.39527 0 0 0 134.19991-221.16992q13.99475-6.28487 28.44995-11.54z" fill="#d3e1e9" data-original="#d3e1e9" style=""/><g fill="#2f4054"><path d="m243.029 219.999h33.941v16.001h-33.941z" transform="matrix(.707 -.707 .707 .707 -85.068 250.627)" fill="#2f4054" data-original="#2f4054" style=""/><path d="m283.029 179.999h33.941v16.001h-33.941z" transform="matrix(.707 -.707 .707 .707 -45.068 267.196)" fill="#2f4054" data-original="#2f4054" style=""/></g></g></g></svg>
