<?xml version="1.0"?>
<svg xmlns="http://www.w3.org/2000/svg" xmlns:xlink="http://www.w3.org/1999/xlink" xmlns:svgjs="http://svgjs.com/svgjs" version="1.1" width="512" height="512" x="0" y="0" viewBox="0 0 322.72 322.72" style="enable-background:new 0 0 512 512" xml:space="preserve" class=""><g>
<path xmlns="http://www.w3.org/2000/svg" style="" d="M161.36,8C76.662,8,8,76.662,8,161.36s68.662,153.36,153.36,153.36s153.36-68.662,153.36-153.36l0,0  C314.632,76.698,246.022,8.088,161.36,8L161.36,8z" fill="#58d716" data-original="#5e9641"/>
<g xmlns="http://www.w3.org/2000/svg">
	<path style="" d="M161.36,0C72.243,0,0,72.243,0,161.36s72.243,161.36,161.36,161.36s161.36-72.243,161.36-161.36l0,0   C322.632,72.28,250.44,0.088,161.36,0L161.36,0z M161.36,306.64C81.08,306.64,16,241.56,16,161.28S81.08,15.92,161.36,15.92   S306.72,81,306.72,161.28c0,0.027,0,0.053,0,0.08c-0.088,80.244-65.116,145.272-145.36,145.36L161.36,306.64z" fill="#022400" data-original="#022400"/>
	<path style="" d="M208.72,85.68c-3.901-2.075-8.745-0.595-10.82,3.306c-1.869,3.513-0.872,7.865,2.34,10.214   c34.291,21.495,44.665,66.719,23.17,101.01s-66.719,44.665-101.01,23.17c-34.291-21.495-44.665-66.719-23.17-101.01   c5.875-9.373,13.797-17.295,23.17-23.17c3.901-2.075,5.381-6.919,3.306-10.82s-6.919-5.381-10.82-3.306   c-0.336,0.179-0.659,0.381-0.966,0.606c-41.785,26.178-54.436,81.273-28.258,123.058s81.273,54.436,123.058,28.258   c41.785-26.178,54.436-81.273,28.258-123.058C229.815,102.505,220.154,92.843,208.72,85.68z" fill="#022400" data-original="#022400"/>
	<path style="" d="M161.36,155.44c4.418,0,8-3.582,8-8V44.72c0-4.418-3.582-8-8-8s-8,3.582-8,8v102.72   C153.36,151.858,156.942,155.44,161.36,155.44z" fill="#022400" data-original="#022400"/>
</g>
<g xmlns="http://www.w3.org/2000/svg">
</g>
<g xmlns="http://www.w3.org/2000/svg">
</g>
<g xmlns="http://www.w3.org/2000/svg">
</g>
<g xmlns="http://www.w3.org/2000/svg">
</g>
<g xmlns="http://www.w3.org/2000/svg">
</g>
<g xmlns="http://www.w3.org/2000/svg">
</g>
<g xmlns="http://www.w3.org/2000/svg">
</g>
<g xmlns="http://www.w3.org/2000/svg">
</g>
<g xmlns="http://www.w3.org/2000/svg">
</g>
<g xmlns="http://www.w3.org/2000/svg">
</g>
<g xmlns="http://www.w3.org/2000/svg">
</g>
<g xmlns="http://www.w3.org/2000/svg">
</g>
<g xmlns="http://www.w3.org/2000/svg">
</g>
<g xmlns="http://www.w3.org/2000/svg">
</g>
<g xmlns="http://www.w3.org/2000/svg">
</g>
</g></svg>
