<?xml version="1.0"?>
<svg xmlns="http://www.w3.org/2000/svg" xmlns:xlink="http://www.w3.org/1999/xlink" xmlns:svgjs="http://svgjs.com/svgjs" version="1.1" width="512" height="512" x="0" y="0" viewBox="0 0 503.151 503.151" style="enable-background:new 0 0 512 512" xml:space="preserve"><circle r="251.5755" cx="251.5755" cy="251.5755" fill="#77ffff" shape="circle"/><g transform="matrix(0.7,0,0,0.7,75.47252676486971,75.47265930175783)">
<path xmlns="http://www.w3.org/2000/svg" style="" d="M471.172,0H309.337c-8.483,0.022-16.616,3.387-22.635,9.365L9.369,286.699  c-12.492,12.496-12.492,32.752,0,45.248l161.835,161.835c12.496,12.492,32.752,12.492,45.248,0l277.333-277.333  c6.018-5.992,9.39-14.142,9.365-22.635V32C503.151,14.335,488.837,0.012,471.172,0z M385.839,170.667  c-29.455,0-53.333-23.878-53.333-53.333S356.383,64,385.839,64s53.333,23.878,53.333,53.333S415.294,170.667,385.839,170.667z" fill="#4caf50" data-original="#4caf50"/>
<g xmlns="http://www.w3.org/2000/svg">
</g>
<g xmlns="http://www.w3.org/2000/svg">
</g>
<g xmlns="http://www.w3.org/2000/svg">
</g>
<g xmlns="http://www.w3.org/2000/svg">
</g>
<g xmlns="http://www.w3.org/2000/svg">
</g>
<g xmlns="http://www.w3.org/2000/svg">
</g>
<g xmlns="http://www.w3.org/2000/svg">
</g>
<g xmlns="http://www.w3.org/2000/svg">
</g>
<g xmlns="http://www.w3.org/2000/svg">
</g>
<g xmlns="http://www.w3.org/2000/svg">
</g>
<g xmlns="http://www.w3.org/2000/svg">
</g>
<g xmlns="http://www.w3.org/2000/svg">
</g>
<g xmlns="http://www.w3.org/2000/svg">
</g>
<g xmlns="http://www.w3.org/2000/svg">
</g>
<g xmlns="http://www.w3.org/2000/svg">
</g>
</g></svg>
