<svg width="504" height="537" viewBox="0 0 504 537" fill="none" xmlns="http://www.w3.org/2000/svg">
<path d="M192.94 85.4486C206.136 85.4486 216.833 74.6924 216.833 61.424C216.833 48.1556 206.136 37.3994 192.94 37.3994C179.744 37.3994 169.047 48.1556 169.047 61.424C169.047 74.6924 179.744 85.4486 192.94 85.4486Z" fill="#26D07C"/>
<path d="M246.414 50.048C245.74 47.8264 244.435 45.8514 242.659 44.3662C240.883 42.881 238.714 41.9504 236.418 41.6891C236.365 41.6846 236.311 41.6846 236.257 41.6891C236.193 41.6688 236.127 41.6538 236.06 41.6441C228.061 40.6004 219.166 43.1377 213.179 48.6623C210.957 50.6808 209.18 53.1452 207.963 55.8965C206.853 54.3723 205.39 53.1431 203.702 52.3153C202.013 51.4875 200.149 51.0861 198.272 51.1457C195.85 51.3067 193.537 52.2147 191.647 53.746C189.757 55.2773 188.383 57.3573 187.712 59.7025C187.639 59.989 187.659 60.2918 187.77 60.5659C187.881 60.8399 188.078 61.0704 188.33 61.2231C189.05 61.8421 189.905 62.28 190.827 62.5008C192.804 62.9237 194.8 63.3106 196.795 63.6615C200.697 64.3454 204.619 64.9002 208.562 65.3261C211.166 65.605 213.776 65.827 216.392 65.9919C221.797 66.3338 227.228 66.4148 232.642 66.2439C235.327 66.1539 237.904 66.0639 240.356 64.8762C242.142 63.9927 243.669 62.6561 244.785 60.9982C245.836 59.4035 246.526 57.5966 246.807 55.7048C247.089 53.8129 246.954 51.882 246.414 50.048Z" fill="#E6E6E6"/>
<path d="M197.26 85.0491C197.215 84.0424 197.047 83.0452 196.759 82.0799C196.082 79.8584 194.775 77.8841 192.998 76.3992C191.22 74.9143 189.051 73.9835 186.755 73.721C186.704 73.7165 186.653 73.7165 186.603 73.721C186.535 73.7017 186.467 73.6867 186.397 73.676C181.969 73.1306 177.477 73.595 173.252 75.0346C166.755 77.2211 161.055 81.6299 158.308 87.9283C157.197 86.4032 155.733 85.1735 154.043 84.3456C152.353 83.5178 150.487 83.1168 148.608 83.1775C146.187 83.3385 143.873 84.2465 141.984 85.7778C140.094 87.3092 138.72 89.3892 138.049 91.7344C137.979 92.0209 138.002 92.3223 138.113 92.5954C138.223 92.8685 138.417 93.0993 138.667 93.255C139.387 93.8722 140.243 94.3099 141.163 94.5327C143.15 94.9556 145.136 95.3425 147.141 95.6934C151.042 96.3772 154.961 96.9321 158.899 97.358C166.898 98.2214 174.947 98.5281 182.988 98.2757C185.663 98.1857 188.249 98.0957 190.701 96.9081C192.485 96.0243 194.009 94.6875 195.122 93.0301C196.69 90.6797 197.442 87.8738 197.26 85.0491Z" fill="#E6E6E6"/>
<path d="M374.158 388.234H352.377V46.3474C350.91 45.2586 349.433 44.1789 347.939 43.1262C347.644 42.9192 347.348 42.7123 347.053 42.5053C329.827 30.3896 311.192 20.4363 291.564 12.8668L287.341 71.442L287.34 71.4456H260.164V3.05029C258.393 2.6094 256.621 2.1955 254.831 1.8086V71.4456H152.212V6.10352e-05C150.431 0.332977 148.65 0.674894 146.878 1.0438V71.4456H118.808L118.807 71.442L114.378 10.0145C95.2762 16.6723 77.0211 25.5693 59.9897 36.5218C59.3991 36.8997 58.8086 37.2776 58.218 37.6735C57.0278 38.4473 55.8377 39.2392 54.6655 40.04V388.234H23.9994C20.076 388.232 16.2119 389.197 12.7459 391.046C9.27982 392.894 6.31771 395.569 4.11922 398.837C1.92073 402.105 0.552972 405.865 0.135904 409.787C-0.281164 413.71 0.265175 417.676 1.72702 421.337C2.16563 422.444 2.68919 423.515 3.29298 424.54C4.07282 425.877 4.97773 427.136 5.9954 428.301C8.2434 430.877 11.0124 432.941 14.1172 434.354C17.222 435.768 20.5912 436.499 23.9995 436.498H374.158C380.523 436.498 386.627 433.955 391.128 429.43C395.629 424.904 398.157 418.766 398.157 412.366C398.157 405.966 395.629 399.828 391.128 395.302C386.627 390.776 380.523 388.234 374.158 388.234L374.158 388.234ZM281.488 152.766L264.549 388.234H141.599L124.66 152.766H281.488ZM286.956 76.8073L282.777 134.893H260.165V76.8073H286.956ZM254.831 76.8073V134.893H213.998C213.18 133.28 211.935 131.925 210.399 130.979C208.864 130.033 207.098 129.532 205.298 129.531H199.965C198.165 129.532 196.399 130.033 194.864 130.979C193.328 131.925 192.083 133.28 191.265 134.893H152.212V76.8073H254.831ZM146.878 134.893H123.371L119.192 76.8073H146.878V134.893Z" fill="#F2F2F2"/>
<path d="M2.11887 427.146C9.89253 436.408 18.3006 445.112 27.2816 453.194L366.943 454.094C375.924 446.012 384.332 437.308 392.106 428.046L2.11887 427.146Z" fill="#3F3D56"/>
<path d="M173.65 340.039V432.32H237.944V340.039C237.945 339.375 237.734 338.729 237.343 338.194C236.952 337.66 236.4 337.266 235.769 337.07C235.472 336.971 235.161 336.922 234.848 336.926H176.755C176.348 336.925 175.944 337.005 175.568 337.161C175.191 337.317 174.849 337.546 174.561 337.835C174.272 338.125 174.044 338.468 173.887 338.846C173.731 339.224 173.65 339.63 173.65 340.039ZM198.741 371.747C198.758 369.928 199.489 368.189 200.774 366.909C202.059 365.629 203.795 364.91 205.605 364.91C207.414 364.91 209.15 365.629 210.435 366.909C211.72 368.189 212.451 369.928 212.468 371.747V382.454C212.459 384.279 211.731 386.025 210.445 387.312C209.159 388.598 207.419 389.32 205.605 389.32C203.79 389.32 202.05 388.598 200.764 387.312C199.478 386.025 198.75 384.279 198.741 382.454V371.747Z" fill="#2F2E41"/>
<path d="M173.453 429.369V438.267C173.455 438.728 173.637 439.17 173.96 439.497C174.283 439.824 174.722 440.009 175.18 440.013H236.414C236.873 440.011 237.312 439.826 237.636 439.499C237.959 439.171 238.141 438.729 238.141 438.267V429.369H173.453Z" fill="#3F3D56"/>
<path d="M72.5066 201.006V369.498C72.5083 371.645 73.3574 373.704 74.8673 375.222C76.3773 376.74 78.4247 377.594 80.5601 377.596H328.877C331.012 377.594 333.06 376.74 334.57 375.222C336.08 373.704 336.929 371.645 336.931 369.498V201.006C336.925 198.861 336.075 196.805 334.566 195.289C333.056 193.773 331.011 192.92 328.877 192.917H80.5601C78.4266 192.92 76.3811 193.773 74.8716 195.289C73.3621 196.805 72.5117 198.861 72.5066 201.006Z" fill="#3F3D56"/>
<path d="M78.332 203.103V367.419C78.334 368.566 78.7881 369.666 79.5949 370.477C80.4016 371.288 81.4952 371.745 82.6362 371.747H326.81C327.951 371.745 329.045 371.288 329.851 370.477C330.658 369.666 331.112 368.566 331.114 367.419V203.103C331.114 201.954 330.661 200.852 329.854 200.039C329.047 199.226 327.952 198.768 326.81 198.766H82.6362C81.4939 198.768 80.3992 199.226 79.5923 200.039C78.7854 200.852 78.3321 201.954 78.332 203.103Z" fill="#E9E8F8"/>
<path d="M128.121 442.109C128.369 442.423 128.685 442.675 129.045 442.848C129.404 443.021 129.798 443.11 130.197 443.108H275.464C275.862 443.108 276.254 443.018 276.612 442.846C276.971 442.674 277.287 442.424 277.537 442.113C277.787 441.803 277.966 441.441 278.059 441.052C278.152 440.664 278.159 440.26 278.077 439.869L275.822 429.099C275.729 428.659 275.528 428.251 275.237 427.91C274.946 427.569 274.575 427.306 274.158 427.146C273.856 427.027 273.534 426.966 273.209 426.966H132.443C132.118 426.966 131.796 427.027 131.494 427.146C131.077 427.306 130.706 427.569 130.415 427.91C130.125 428.251 129.923 428.659 129.83 429.099L127.575 439.869C127.495 440.26 127.502 440.663 127.596 441.051C127.691 441.439 127.87 441.8 128.121 442.109Z" fill="#2F2E41"/>
<path d="M132.443 429.216C132.399 429.215 132.355 429.223 132.313 429.239C132.242 429.263 132.178 429.305 132.127 429.36C132.076 429.416 132.039 429.483 132.02 429.556L129.764 440.332C129.752 440.395 129.754 440.459 129.77 440.52C129.785 440.582 129.814 440.639 129.855 440.688L129.865 440.7C129.904 440.751 129.954 440.792 130.012 440.82C130.07 440.847 130.133 440.861 130.197 440.858H275.464C275.528 440.859 275.591 440.846 275.648 440.818C275.705 440.791 275.756 440.751 275.795 440.701C275.838 440.653 275.869 440.596 275.885 440.534C275.901 440.472 275.903 440.406 275.89 440.344L273.633 429.561C273.617 429.491 273.583 429.425 273.536 429.371C273.488 429.316 273.429 429.274 273.361 429.248C273.313 429.227 273.262 429.216 273.209 429.216H132.443Z" fill="white"/>
<path d="M90.4868 221.401H318.959C319.197 221.396 319.423 221.297 319.589 221.126C319.755 220.956 319.848 220.726 319.848 220.488C319.848 220.249 319.755 220.019 319.589 219.849C319.423 219.678 319.197 219.579 318.959 219.574H90.4868C90.2494 219.579 90.0234 219.678 89.8573 219.849C89.6912 220.019 89.5982 220.249 89.5982 220.488C89.5982 220.726 89.6912 220.956 89.8573 221.126C90.0234 221.297 90.2494 221.396 90.4868 221.401Z" fill="#3F3D56"/>
<path d="M303.407 214.909C306.348 214.909 308.732 212.459 308.732 209.436C308.732 206.413 306.348 203.963 303.407 203.963C300.466 203.963 298.082 206.413 298.082 209.436C298.082 212.459 300.466 214.909 303.407 214.909Z" fill="#3F3D56"/>
<path d="M285.013 214.909C287.953 214.909 290.337 212.459 290.337 209.436C290.337 206.413 287.953 203.963 285.013 203.963C282.072 203.963 279.688 206.413 279.688 209.436C279.688 212.459 282.072 214.909 285.013 214.909Z" fill="#3F3D56"/>
<path d="M266.618 214.909C269.559 214.909 271.943 212.459 271.943 209.436C271.943 206.413 269.559 203.963 266.618 203.963C263.678 203.963 261.294 206.413 261.294 209.436C261.294 212.459 263.678 214.909 266.618 214.909Z" fill="#3F3D56"/>
<path d="M100.588 206.315C100.587 206.444 100.612 206.572 100.661 206.692C100.709 206.812 100.781 206.921 100.872 207.013C100.962 207.105 101.07 207.178 101.189 207.228C101.307 207.278 101.435 207.304 101.563 207.305H114.628C114.886 207.299 115.132 207.191 115.312 207.005C115.493 206.82 115.594 206.57 115.594 206.31C115.594 206.051 115.493 205.801 115.312 205.615C115.132 205.43 114.886 205.322 114.628 205.316H101.563C101.302 205.319 101.053 205.426 100.871 205.613C100.688 205.8 100.586 206.053 100.588 206.315Z" fill="#3F3D56"/>
<path d="M100.588 210.049C100.587 210.178 100.612 210.307 100.661 210.426C100.709 210.546 100.781 210.655 100.872 210.747C100.962 210.839 101.07 210.912 101.189 210.962C101.307 211.012 101.435 211.038 101.563 211.039H114.628C114.886 211.033 115.132 210.926 115.313 210.74C115.494 210.554 115.595 210.304 115.595 210.044C115.595 209.784 115.494 209.535 115.313 209.349C115.132 209.163 114.886 209.056 114.628 209.05H101.563C101.302 209.053 101.053 209.16 100.871 209.347C100.688 209.534 100.586 209.787 100.588 210.049Z" fill="#3F3D56"/>
<path d="M100.588 213.774C100.586 214.036 100.688 214.289 100.871 214.476C101.053 214.663 101.302 214.77 101.563 214.773H114.628C114.886 214.767 115.132 214.659 115.312 214.473C115.493 214.288 115.594 214.038 115.594 213.779C115.594 213.519 115.493 213.269 115.312 213.084C115.132 212.898 114.886 212.79 114.628 212.784H101.563C101.435 212.785 101.307 212.811 101.189 212.861C101.07 212.911 100.962 212.984 100.872 213.076C100.781 213.168 100.709 213.277 100.661 213.397C100.612 213.516 100.587 213.645 100.588 213.774Z" fill="#3F3D56"/>
<path d="M284.917 249.289H124.529C122.422 249.291 120.402 250.134 118.912 251.632C117.422 253.13 116.584 255.161 116.582 257.28V335.773C116.584 337.892 117.422 339.923 118.912 341.421C120.402 342.92 122.422 343.762 124.529 343.765H284.917C287.024 343.762 289.044 342.92 290.534 341.421C292.024 339.923 292.862 337.892 292.864 335.773V257.28C292.862 255.161 292.024 253.13 290.534 251.632C289.044 250.134 287.024 249.291 284.917 249.289ZM291.075 257.28V280.181H234.7V251.088H284.917C286.549 251.09 288.115 251.743 289.269 252.904C290.423 254.064 291.073 255.638 291.075 257.28H291.075ZM176.536 311.073V281.98H232.91V311.073H176.536ZM232.91 312.873V341.965H176.536V312.873H232.91ZM174.746 311.073H118.371V281.98H174.746V311.073ZM176.536 280.181V251.088H232.91V280.181H176.536ZM234.7 281.98H291.075V311.073H234.7V281.98ZM124.529 251.088H174.746V280.181H118.371V257.28C118.373 255.638 119.022 254.064 120.177 252.904C121.331 251.743 122.896 251.09 124.529 251.088V251.088ZM118.371 335.773V312.873H174.746V341.965H124.529C122.896 341.963 121.331 341.31 120.177 340.15C119.022 338.989 118.373 337.415 118.371 335.773ZM284.917 341.965H234.7V312.873H291.075V335.773C291.073 337.415 290.424 338.989 289.269 340.15C288.115 341.31 286.549 341.963 284.917 341.965H284.917Z" fill="#3F3D56"/>
<path d="M196.571 269.217C195.148 266.85 193.461 264.323 190.82 263.55C187.761 262.655 184.619 264.433 181.954 266.187C173.983 271.435 166.307 277.122 158.961 283.222L158.969 283.313L176.127 282.124C180.259 281.837 184.533 281.511 188.185 279.546C189.57 278.8 190.921 277.804 192.491 277.734C194.442 277.648 196.143 279.018 197.48 280.449C205.387 288.916 207.675 301.863 216.546 309.302C210.952 295.43 204.273 282.027 196.571 269.217Z" fill="#26D07C"/>
<path d="M245.176 341.029C244.301 339.919 243.944 339.659 243.082 338.538C236.059 329.405 229.458 319.963 223.278 310.213C219.081 303.59 215.092 296.841 211.311 289.965C209.511 286.696 207.761 283.401 206.06 280.08C204.739 277.506 203.449 274.916 202.187 272.311C201.827 271.566 201.476 270.819 201.127 270.069C200.306 268.307 199.499 266.537 198.633 264.799C197.738 262.712 196.368 260.866 194.634 259.41C193.809 258.78 192.823 258.398 191.791 258.31C190.337 258.319 188.913 258.729 187.675 259.496C178.305 264.449 169.559 270.513 161.625 277.559C153.678 284.576 146.575 292.505 140.461 301.182C140.274 301.45 139.831 301.194 140.02 300.924C140.763 299.866 141.522 298.821 142.295 297.786C151.906 284.933 163.691 273.88 177.11 265.132C179.368 263.661 181.668 262.259 184.011 260.926C185.191 260.254 186.377 259.59 187.583 258.967C188.739 258.286 190.036 257.882 191.372 257.787C195.969 257.715 198.349 262.95 199.984 266.472C200.498 267.58 201.018 268.686 201.544 269.787C203.533 273.97 205.598 278.114 207.74 282.221C209.062 284.756 210.413 287.276 211.793 289.782C216.087 297.584 220.651 305.229 225.485 312.715C231.889 322.632 238.241 331.393 245.537 340.666C245.737 340.923 245.378 341.289 245.176 341.029Z" fill="#26D07C"/>
<path d="M161.171 274.974C160.903 274.675 160.638 274.375 160.369 274.076C158.249 271.719 155.975 269.389 153.064 268.037C151.676 267.372 150.161 267.019 148.623 267.002C147.037 267.046 145.473 267.389 144.013 268.013C143.319 268.292 142.64 268.609 141.971 268.946C141.208 269.332 140.457 269.744 139.71 270.16C138.308 270.94 136.925 271.755 135.559 272.603C132.842 274.292 130.21 276.109 127.663 278.055C126.343 279.064 125.05 280.107 123.784 281.182C122.607 282.181 121.454 283.207 120.324 284.26C120.082 284.484 119.722 284.121 119.963 283.897C120.261 283.618 120.562 283.341 120.863 283.067C121.714 282.294 122.578 281.536 123.456 280.792C125.057 279.434 126.699 278.128 128.383 276.875C131.001 274.924 133.71 273.107 136.509 271.421C137.907 270.579 139.325 269.773 140.762 269.002C141.196 268.769 141.635 268.542 142.079 268.326C143.086 267.815 144.133 267.387 145.209 267.045C146.733 266.549 148.346 266.39 149.937 266.578C151.473 266.803 152.953 267.318 154.299 268.095C157.157 269.702 159.374 272.186 161.531 274.61C161.749 274.856 161.39 275.22 161.171 274.974Z" fill="#26D07C"/>
<path d="M219.733 299.402L226.582 296.883L229.983 295.633C231.081 295.188 232.202 294.8 233.34 294.47C234.335 294.184 235.391 294.198 236.379 294.509C237.259 294.837 238.065 295.339 238.749 295.986C239.447 296.633 240.097 297.331 240.693 298.074C241.433 298.969 242.162 299.873 242.895 300.774C245.919 304.492 248.923 308.227 251.908 311.978C254.892 315.729 257.856 319.495 260.801 323.278C263.752 327.07 266.684 330.878 269.595 334.701C269.951 335.17 270.308 335.638 270.664 336.107C270.86 336.366 271.304 336.111 271.104 335.848C268.172 331.986 265.219 328.14 262.246 324.309C259.265 320.47 256.264 316.646 253.242 312.839C250.22 309.032 247.178 305.242 244.115 301.468C243.352 300.528 242.588 299.589 241.822 298.65C241.176 297.859 240.538 297.059 239.83 296.323C239.227 295.592 238.486 294.988 237.651 294.546C236.815 294.103 235.901 293.83 234.961 293.743C233.822 293.784 232.7 294.032 231.65 294.475C230.505 294.892 229.362 295.316 228.219 295.737L221.322 298.273L219.598 298.907C219.292 299.02 219.424 299.516 219.733 299.402V299.402Z" fill="#26D07C"/>
<path d="M152.163 271.003C150.403 270.132 148.444 269.746 146.487 269.887C144.53 270.028 142.645 270.689 141.027 271.804C147.127 272.863 153.161 274.279 159.097 276.045C156.632 274.592 154.704 272.317 152.163 271.003Z" fill="#26D07C"/>
<path d="M140.992 271.798L140.322 272.346C140.549 272.154 140.785 271.974 141.027 271.804L140.992 271.798Z" fill="white"/>
<path d="M238.491 299.427C237.891 298.539 237.056 297.837 236.079 297.403L235.138 297.44C242.305 310.174 251.984 321.301 263.582 330.138L238.491 299.427Z" fill="#26D07C"/>
<path d="M234.086 285.485C237.081 285.485 239.508 283.044 239.508 280.034C239.508 277.023 237.081 274.582 234.086 274.582C231.092 274.582 228.665 277.023 228.665 280.034C228.665 283.044 231.092 285.485 234.086 285.485Z" fill="#26D07C"/>
<path d="M312.765 340.616C313.832 340.614 314.855 340.187 315.61 339.428C316.365 338.669 316.79 337.64 316.791 336.567V252.888C316.791 251.814 316.367 250.784 315.612 250.025C314.857 249.265 313.833 248.839 312.765 248.839C311.697 248.839 310.673 249.265 309.917 250.025C309.162 250.784 308.738 251.814 308.738 252.888V336.567C308.74 337.64 309.164 338.669 309.919 339.428C310.674 340.187 311.697 340.614 312.765 340.616Z" fill="#3F3D56"/>
<path d="M312.765 340.616C313.832 340.614 314.855 340.187 315.61 339.428C316.365 338.669 316.79 337.64 316.791 336.567V318.823C316.328 318.187 315.721 317.67 315.022 317.314C314.322 316.957 313.549 316.772 312.765 316.772C311.98 316.772 311.207 316.957 310.508 317.314C309.808 317.67 309.202 318.187 308.738 318.823V336.567C308.74 337.64 309.164 338.669 309.919 339.428C310.674 340.187 311.697 340.614 312.765 340.616Z" fill="#2F2E41"/>
<path d="M312.765 323.52C313.913 323.518 315.013 323.059 315.825 322.243C316.637 321.426 317.094 320.32 317.095 319.165V300.083C316.597 299.399 315.945 298.843 315.192 298.459C314.44 298.076 313.608 297.876 312.765 297.876C311.921 297.876 311.09 298.076 310.337 298.459C309.585 298.843 308.933 299.399 308.434 300.083V319.165C308.436 320.32 308.893 321.426 309.704 322.243C310.516 323.059 311.617 323.518 312.765 323.52Z" fill="#26D07C"/>
<path d="M312.765 320.05C313.602 320.049 314.405 319.714 314.997 319.118C315.589 318.523 315.922 317.716 315.923 316.874V302.955C315.56 302.457 315.084 302.051 314.535 301.771C313.986 301.492 313.38 301.346 312.765 301.346C312.15 301.346 311.543 301.492 310.994 301.771C310.445 302.051 309.97 302.457 309.606 302.955V316.874C309.607 317.716 309.94 318.523 310.533 319.118C311.125 319.714 311.927 320.049 312.765 320.05Z" fill="#E9E8F8"/>
<path d="M188.541 434.622C187.834 433.986 187.407 433.093 187.354 432.14C187.3 431.188 187.625 430.253 188.257 429.54L223.438 389.958C223.751 389.606 224.131 389.319 224.554 389.114C224.978 388.908 225.437 388.789 225.906 388.763C226.376 388.736 226.846 388.803 227.289 388.959C227.733 389.115 228.142 389.358 228.492 389.673C228.843 389.988 229.128 390.369 229.332 390.795C229.536 391.221 229.654 391.683 229.681 392.155C229.707 392.627 229.641 393.099 229.485 393.545C229.33 393.991 229.089 394.402 228.776 394.755L193.595 434.337C192.962 435.048 192.074 435.477 191.126 435.531C190.179 435.584 189.249 435.257 188.541 434.622Z" fill="#26D07C"/>
<path d="M480.392 499.793C480.392 506.353 478.853 511.374 479.041 515.386C468.487 520.019 457.635 523.933 446.559 527.102C445.306 527.461 444.053 527.803 442.791 528.145C435.964 507.127 429.127 487.88 426.434 485.838C420.268 481.186 417.181 500.432 417.181 495.781C417.181 491.129 420.268 491.129 412.564 484.929C404.85 478.73 409.477 450.828 409.477 450.828L398.685 422.926L410.756 378.423L426.434 320.613H441.852C441.852 320.613 442.308 320.946 443.069 321.567C446.925 324.734 458.558 335.315 457.27 346.967C456.885 350.44 457.744 360.536 459.238 373.978C463.784 414.567 474.227 458.692 474.227 470.335C474.227 485.838 480.392 490.49 480.392 499.793Z" fill="#E6E6E6"/>
<path d="M467.464 373.826C467.446 373.781 467.437 373.745 467.419 373.709C467.074 372.773 466.67 371.86 466.211 370.974C463.607 366.052 466.363 358.494 463.428 350.144C458.686 336.612 452.905 328.631 444.431 321.477C444.18 321.262 443.93 321.055 443.67 320.839L443.661 320.83C438.006 316.16 431.187 311.796 422.722 306.361C420.959 305.228 419.116 304.049 417.201 302.807C414.731 301.215 414.865 295.906 415.009 290.291C415.17 284.056 415.34 277.596 412.297 273.565L412.1 273.304L411.787 273.223C401.356 271.148 390.716 270.323 380.092 270.766H380.083C375.572 270.935 371.092 271.595 366.723 272.737C366.401 272.827 366.079 272.917 365.766 273.025C365.524 273.088 365.283 273.169 365.041 273.25L364.844 273.322L364.692 273.466C361.748 276.426 361.068 281.734 360.746 287.268V287.277C360.683 288.285 360.629 289.293 360.585 290.3C360.334 295.681 360.101 300.765 358.133 302.969C353.742 307.971 348.434 312.077 342.5 315.062C333.256 319.651 325.946 319.507 325.838 319.507L324.988 319.48L324.908 320.326C318.769 332.086 319.002 362.426 318.814 394.917C318.805 396.725 318.793 398.543 318.778 400.37C318.671 415.504 318.384 430.899 317.257 444.926C316.765 450.955 316.129 456.722 315.279 462.112C311.145 488.358 292.416 466.566 283.459 484.03C283.753 485.748 284.249 487.424 284.935 489.024C285.964 489.636 287.02 490.23 288.067 490.824C292.711 493.424 297.442 495.85 302.259 498.103C302.528 498.229 302.796 498.355 303.064 498.472C311.9 502.583 321.007 506.076 330.321 508.927C332.138 509.485 333.954 510.016 335.789 510.52C352.015 515.024 368.724 517.54 385.551 518.015C385.619 518.007 385.688 518.004 385.756 518.006C405.657 517.452 425.427 514.587 444.672 509.467C444.941 509.395 445.209 509.323 445.478 509.251C446.739 508.909 447.992 508.567 449.245 508.207C460.321 505.038 471.173 501.124 481.728 496.492C481.738 496.887 481.777 497.281 481.844 497.671C481.853 497.798 481.871 497.924 481.898 498.049C481.915 497.905 481.933 497.761 481.942 497.617C481.996 497.194 482.041 496.762 482.085 496.33C487.562 442.632 476.189 397.04 467.464 373.826Z" fill="#3F3D56"/>
<path d="M344.483 242.219C349.945 252.261 358.644 260.133 369.15 264.54C379.656 268.946 391.34 269.623 402.28 266.46C413.219 263.297 422.761 256.482 429.334 247.137C435.907 237.793 439.12 226.476 438.442 215.051C437.764 203.626 433.237 192.773 425.606 184.28C417.975 175.788 407.695 170.162 396.459 168.328C385.223 166.495 373.701 168.564 363.791 174.195C353.881 179.826 346.173 188.682 341.937 199.306C341.708 199.882 341.502 200.459 341.295 201.058C338.901 207.755 337.947 214.887 338.496 221.983C339.046 229.078 341.086 235.975 344.483 242.219Z" fill="#FFB6B6"/>
<path d="M337.282 201.058C339.438 194.994 338.498 198.153 340.676 192.111C339.254 197.461 341.502 200.459 341.295 201.058H400.943V166.193C383.468 159.229 366.384 153.303 356.064 166.193C346.868 166.193 338.049 169.867 331.546 176.405C325.044 182.944 321.39 191.812 321.39 201.058H337.282Z" fill="#2F2E41"/>
<path d="M358.426 297.976C358.472 297.33 358.541 296.662 358.633 296.016C359.275 291.266 360.88 286.7 362.508 282.18C364.228 277.315 365.971 272.426 367.714 267.561C365.469 276.393 366.154 285.72 369.663 294.125C379.731 286.239 373.378 268.207 386.542 268.207C418.189 268.207 450.753 242.403 450.753 210.559C450.753 178.737 437.177 154.94 405.53 154.94C373.86 154.94 348.175 169.513 347.556 201.335C386.542 210.559 351.065 294.748 358.426 297.976Z" fill="#2F2E41"/>
<path d="M446.798 205.681C467.063 205.681 483.491 189.163 483.491 168.787C483.491 148.41 467.063 131.892 446.798 131.892C426.534 131.892 410.106 148.41 410.106 168.787C410.106 189.163 426.534 205.681 446.798 205.681Z" fill="#2F2E41"/>
<path d="M504 380.377C503.875 382.275 503.764 384.297 503.669 386.441C501.772 426.832 503.41 481.205 490.622 510.709C487.759 512.283 484.866 513.789 481.942 515.225C481.826 515.279 481.719 515.333 481.62 515.387C480.833 515.774 480.045 516.152 479.258 516.512C479.229 516.537 479.196 516.555 479.159 516.566C470.512 520.675 461.6 524.195 452.484 527.103C451.366 527.462 450.238 527.804 449.111 528.146C448.869 528.218 448.628 528.29 448.386 528.362C431.211 533.469 413.456 536.339 395.555 536.901C394.624 536.928 393.712 536.946 392.826 536.964C392.512 536.973 392.208 536.982 391.904 536.982C390.902 536.991 389.909 537 388.906 537C386.884 537 384.871 536.97 382.866 536.91C366.039 536.436 349.331 533.919 333.104 529.415C331.27 528.911 329.453 528.38 327.637 527.822C318.323 524.971 309.216 521.478 300.38 517.367C300.112 517.25 299.843 517.124 299.575 516.998C294.761 514.749 290.03 512.322 285.383 509.719C284.336 509.125 283.28 508.531 282.251 507.919C281.564 506.319 281.069 504.643 280.774 502.926C278.743 493.109 277.114 499.731 275.951 479.307C274.886 460.582 274.206 441.804 273.956 431.07C273.875 428.208 273.848 425.914 273.839 424.349C274.788 417.528 290.036 409.79 312.273 402.439C314.376 401.746 316.55 401.053 318.778 400.369C324.791 398.507 331.216 396.68 337.928 394.917C355.019 390.418 373.998 386.288 392.835 382.878C402.132 381.204 411.394 379.702 420.387 378.424C436.163 376.175 451.089 374.618 463.858 373.979C465.084 373.916 466.283 373.862 467.464 373.826C468.735 373.772 469.978 373.736 471.195 373.709C489.593 373.304 502.157 375.23 504 380.377Z" fill="#2F2E41"/>
<path opacity="0.2" d="M504 380.377C503.875 382.275 503.764 384.297 503.669 386.441C489.727 371.343 339.538 438.79 275.951 479.307C274.886 460.582 274.206 441.804 273.956 431.07C273.875 428.208 273.848 425.914 273.839 424.348C274.788 417.528 290.036 409.79 312.273 402.439C314.376 401.746 316.55 401.053 318.778 400.369C324.791 398.507 331.216 396.68 337.927 394.917C355.019 390.418 373.998 386.288 392.835 382.878C402.132 381.204 411.394 379.702 420.387 378.424C436.163 376.175 451.088 374.618 463.858 373.979C465.084 373.916 466.283 373.862 467.464 373.826C468.735 373.772 469.978 373.736 471.195 373.709C489.593 373.304 502.157 375.23 504 380.377Z" fill="black"/>
<path d="M198.565 427.176C199.973 428.962 201.754 430.415 203.781 431.433C205.808 432.452 208.033 433.011 210.299 433.072C212.564 433.132 214.815 432.693 216.893 431.784C218.972 430.875 220.827 429.519 222.327 427.811L273.287 448.856L267.788 420.606L220.239 404.953C217.219 402.608 213.448 401.459 209.641 401.722C205.835 401.986 202.256 403.645 199.585 406.384C196.913 409.124 195.334 412.753 195.146 416.585C194.958 420.417 196.174 424.186 198.565 427.176Z" fill="#FFB6B6"/>
<path d="M368.077 309.539L367.798 309.51L338.081 311.679C334.309 311.954 330.637 313.033 327.311 314.845C323.985 316.656 321.079 319.158 318.788 322.184C317.723 323.586 316.801 325.093 316.036 326.681L316.029 326.685C313.467 331.956 312.695 337.926 313.831 343.68L327.821 414.495L294.159 411.42L281.871 413.531L267.371 407.649L237.616 408.158L236.926 410.451L230.684 431.257L230.194 432.891L275.63 461.681L288.803 457.652L295.008 462.445L295.306 462.453L307.612 462.697L360.092 463.732L374.438 438.177L376.679 434.171C393.339 396.642 397.45 370.443 396.146 352.395C395.463 342.858 393.27 335.609 390.616 330.146C382.408 313.264 368.655 309.682 368.077 309.539Z" fill="#3F3D56"/>
<path d="M451.439 201.542C444.481 199.969 438.03 196.656 432.684 191.908C427.339 187.161 423.272 181.134 420.86 174.385C418.707 168.106 417.894 161.212 414.281 155.624C419.786 148.023 424.2 139.681 427.394 130.843C428.631 127.422 431.526 121.211 426.618 119.329C422.707 117.83 418.264 121.449 415.946 124.304C414.185 126.468 412.922 128.997 412.247 131.71C411.448 128.16 410.648 124.611 409.849 121.061C409.747 120.72 409.519 120.432 409.211 120.257C408.904 120.081 408.541 120.032 408.198 120.118C401.646 121.242 396.894 127.342 396.069 133.767C395.619 137.075 396.367 140.435 398.177 143.234C400.282 146.453 403.364 148.762 406.297 151.161C409.416 153.712 412.06 156.43 413.737 160.161C415.479 164.039 416.264 168.283 417.42 172.355C419.615 180.176 423.867 187.257 429.728 192.852C435.59 198.447 442.844 202.348 450.726 204.145C452.409 204.515 453.129 201.914 451.439 201.542ZM414.441 137.015C414.23 133.624 415.121 130.256 416.979 127.419C417.91 125.98 419.075 124.711 420.427 123.663C421.709 122.679 423.6 121.375 425.295 121.737C427.495 122.206 426.61 124.674 426.143 126.163C425.527 128.127 424.849 130.07 424.11 131.992C422.671 135.725 421 139.363 419.108 142.886C418.126 144.719 417.076 146.514 415.979 148.28C415.224 144.924 414.468 141.568 413.712 138.213C413.95 138.125 414.152 137.959 414.284 137.741C414.416 137.524 414.471 137.268 414.441 137.015ZM398.763 137.552C398.324 134.486 398.961 131.361 400.564 128.716C402.167 126.071 404.636 124.069 407.548 123.056C409.679 132.516 411.809 141.976 413.94 151.435C413.5 152.088 413.047 152.73 412.592 153.372C412.473 153.234 412.364 153.091 412.24 152.956C407.771 148.065 399.978 144.732 398.763 137.552Z" fill="#26D07C"/>
</svg>
