<?xml version="1.0" encoding="iso-8859-1"?>
<!-- Generator: Adobe Illustrator 19.0.0, SVG Export Plug-In . SVG Version: 6.00 Build 0)  -->
<svg version="1.1" id="Capa_1" xmlns="http://www.w3.org/2000/svg" xmlns:xlink="http://www.w3.org/1999/xlink" x="0px" y="0px"
	 viewBox="0 0 504.119 504.119" style="enable-background:new 0 0 504.119 504.119;" xml:space="preserve">
<path style="fill:#323738;" d="M410.124,36.32L359.633,7.396c-2.209-1.611-4.577-2.97-7.093-4.068l-0.744-0.421l-0.032,0.063
	c-13.584-5.522-31.13-3.525-50.271,7.522l-155.518,89.773c-42.76,24.69-77.745,85.291-77.745,134.668v179.562
	c0,24.076,8.361,41.153,21.847,49.534l-0.13,0.236l56.115,31.791l31.555-54.938l123.876-71.515
	c42.752-24.686,77.745-85.287,77.745-134.668V90.088L410.124,36.32z"/>
<path style="fill:#252B2D;" d="M410.124,36.32l-54.047-12.678c-2.209-1.607-13.245-1.568-15.762-2.666l-4.005-1.603l-7.215-1.339
	c-13.584-5.522-8.46-18.593-27.601-7.546l-155.518,89.777c-42.76,24.69-77.745,85.291-77.745,134.668v179.562
	c0,24.076,8.361,41.153,21.847,49.534l-0.13,0.236l56.115,31.791l31.555-54.938l123.876-71.515
	c42.752-24.686,77.745-85.287,77.745-134.668V90.088L410.124,36.32z"/>
<path style="fill:#090C0C;" d="M71.192,209.065c-1.887,8.791-2.962,17.499-2.962,25.868v179.562
	c0,24.076,8.361,41.153,21.847,49.534l-0.13,0.236l56.115,31.791l31.555-54.938l123.876-71.515
	c7.263-4.191,14.285-9.492,20.961-15.537L71.192,209.065z"/>
<path style="fill:#3B4142;" d="M199.424,131.257c-42.76,24.69-77.753,85.291-77.753,134.668v179.562
	c0,49.377,34.993,69.577,77.753,44.887l155.506-89.777c42.76-24.69,77.753-85.287,77.753-134.672V86.37
	c0-49.38-34.993-69.573-77.753-44.887L199.424,131.257z"/>
<path style="opacity:0.2;fill:#383E3F;enable-background:new    ;" d="M432.683,86.37c0-49.38-34.993-69.573-77.753-44.887
	l-155.506,89.773c-42.76,24.69-77.753,85.291-77.753,134.668v179.562c0,49.377,34.993,69.577,77.753,44.887"/>
<path style="fill:#3B4142;" d="M122.742,252.436l308.882-178.33c0.492-3.738,0.8-7.436,0.933-11.083L121.805,242.436
	C121.939,245.925,122.254,249.261,122.742,252.436z"/>
<path style="fill:#4F5759;" d="M164.884,504.119h-0.008c-28.192,0-46.407-23.016-46.407-58.632V265.925
	c0-50.523,35.592-112.183,79.344-137.44l155.514-89.781c12.607-7.278,24.769-10.961,36.147-10.961
	c28.191,0,46.415,23.016,46.415,58.628v179.558c0,50.53-35.6,112.187-79.352,137.444l-155.514,89.781
	C188.416,500.425,176.262,504.119,164.884,504.119z M389.478,34.154c-10.24,0-21.323,3.399-32.937,10.098l-155.518,89.781
	c-41.984,24.245-76.146,83.409-76.146,131.891v179.562c0,32.209,15.325,52.216,39.999,52.216h0.008
	c10.24,0,21.315-3.399,32.929-10.098l155.514-89.781c41.984-24.241,76.146-83.413,76.146-131.895V86.37
	C429.477,54.162,414.153,34.154,389.478,34.154z"/>
<path style="fill:#FF4D8D;" d="M183.556,181.626c0.004-4.139,2.926-9.216,6.51-11.28c3.584-2.068,6.514-0.382,6.51,3.757
	c0.004,4.139-2.93,9.216-6.51,11.284C186.486,187.451,183.56,185.761,183.556,181.626z"/>
<path style="fill:#EA2864;" d="M190.07,185.387c-3.584,2.06-6.506,0.374-6.51-3.761c0.004-4.139,2.926-9.216,6.51-11.28"/>
<path style="fill:#F7D011;" d="M211.306,165.762c0-4.143,2.926-9.212,6.506-11.28c3.584-2.068,6.514-0.378,6.514,3.761
	c0,4.131-2.93,9.208-6.514,11.276C214.237,171.587,211.306,169.897,211.306,165.762z"/>
<path style="fill:#F4B414;" d="M217.817,169.519c-3.58,2.068-6.506,0.378-6.506-3.757c0-4.143,2.926-9.212,6.506-11.28"/>
<path style="fill:#15EAA8;" d="M239.053,149.898c0-4.139,2.93-9.216,6.51-11.284c3.584-2.068,6.51-0.378,6.51,3.761
	c0,4.139-2.93,9.208-6.51,11.276S239.053,154.025,239.053,149.898z"/>
<path style="fill:#08C1B3;" d="M245.567,153.651c-3.58,2.068-6.51,0.378-6.51-3.753c0-4.139,2.93-9.216,6.51-11.284"/>
<g>
	<path style="fill:#FFFFFF;" d="M264.129,318.326c-1.977,0-3.986-0.5-5.821-1.56l-60.613-34.993
		c-5.577-3.222-7.483-10.362-4.269-15.939c3.222-5.581,10.346-7.491,15.939-4.269l60.609,34.993
		c5.585,3.222,7.491,10.362,4.269,15.939C272.085,316.239,268.166,318.326,264.129,318.326z"/>
	<path style="fill:#FFFFFF;" d="M203.524,423.314c-1.977,0-3.982-0.504-5.825-1.56c-5.577-3.222-7.483-10.358-4.269-15.935
		l60.609-104.988c3.222-5.581,10.335-7.495,15.939-4.273c5.585,3.222,7.491,10.354,4.269,15.939l-60.609,104.984
		C211.476,421.226,207.553,423.314,203.524,423.314z"/>
	<path style="fill:#FFFFFF;" d="M284.365,376.655c-4.033,0-7.952-2.087-10.118-5.833c-3.214-5.577-1.308-12.713,4.277-15.935
		l80.821-46.659c5.585-3.237,12.717-1.308,15.939,4.269c3.214,5.585,1.308,12.717-4.277,15.939l-80.821,46.659
		C288.347,376.155,286.338,376.655,284.365,376.655z"/>
</g>
<g>
</g>
<g>
</g>
<g>
</g>
<g>
</g>
<g>
</g>
<g>
</g>
<g>
</g>
<g>
</g>
<g>
</g>
<g>
</g>
<g>
</g>
<g>
</g>
<g>
</g>
<g>
</g>
<g>
</g>
</svg>
