<?xml version="1.0" encoding="iso-8859-1"?>
<!-- Generator: Adobe Illustrator 19.0.0, SVG Export Plug-In . SVG Version: 6.00 Build 0)  -->
<svg version="1.1" id="Capa_1" xmlns="http://www.w3.org/2000/svg" xmlns:xlink="http://www.w3.org/1999/xlink" x="0px" y="0px"
	 viewBox="0 0 512 512" style="enable-background:new 0 0 512 512;" xml:space="preserve">
<path style="fill:#9F9EAD;" d="M41.726,149.391L297.335,1.736c4.322-2.497,9.187-2.149,12.947,0.076l0.004-0.003l21.983,12.797
	l-0.001,0.001c4.647,1.812,8.207,6.257,8.207,11.95v191.534c0,7.712-2.87,15.011-7.848,20.606
	c10.877-1.197,22.042,1.01,31.832,6.661l114.075,65.862c4.796,2.769,7.201,7.602,7.229,12.446l0.006,0.003v26.694l-0.097,0.023
	c0.58,5.385-1.802,11.047-7.167,14.129L233.869,505.026c-16.214,9.312-36.157,9.298-52.358-0.039l-114.62-66.056
	c-4.292-2.473-6.627-6.627-7.045-10.941l-0.086-0.052v-29.55l0.002,0.001c-0.001-1.52,0.262-3.032,0.737-4.488
	c-1.067-0.213-2.095-0.558-3.069-1.025l-0.072,0.115l-24.635-14.23v-0.003c-3.781-2.149-6.492-6.177-6.492-11.147V176.238
	C26.231,165.164,32.137,154.93,41.726,149.391z"/>
<path style="fill:#5F5F6D;" d="M340.474,218.092V26.558c0-9.875-10.692-16.046-19.243-11.106L65.622,163.106
	c-9.589,5.54-15.495,15.773-15.495,26.847v191.372c0,9.873,10.688,16.045,19.239,11.109l255.603-147.488
	C334.564,239.407,340.474,229.17,340.474,218.092z"/>
<polygon style="fill:#00BAFF;" points="326.718,33.567 67.589,183.199 67.589,353.391 326.718,202.163 "/>
<path style="fill:#E3E3E3;" d="M66.891,410.716l114.621,66.057c16.2,9.336,36.144,9.351,52.358,0.038l244.636-140.509
	c9.672-5.555,9.688-19.504,0.028-25.081L364.458,245.36c-16.111-9.302-35.954-9.331-52.092-0.078L66.918,386.019
	C57.385,391.485,57.37,405.229,66.891,410.716z"/>
<polygon style="fill:#D1D1D1;" points="446.635,309.33 355.286,257.131 95.459,406.822 186.626,459.457 "/>
<g>
	<polygon style="fill:#E3E3E3;" points="345.831,331.555 334.978,325.289 316.199,336.13 327.052,342.396 	"/>
	<polygon style="fill:#E3E3E3;" points="317.704,347.794 306.85,341.528 283.431,355.049 294.199,361.364 	"/>
	<polygon style="fill:#E3E3E3;" points="376.601,313.79 365.747,307.523 344.326,319.891 355.18,326.157 	"/>
	<polygon style="fill:#E3E3E3;" points="407.137,296.16 395.961,289.797 396.083,290.009 375.096,302.126 385.949,308.393 	"/>
	<polygon style="fill:#E3E3E3;" points="321.993,306.997 334.978,314.494 356.398,302.126 343.414,294.63 	"/>
	<polygon style="fill:#E3E3E3;" points="284.887,366.741 274.119,360.426 251.192,373.662 262.045,379.929 	"/>
	<polygon style="fill:#E3E3E3;" points="352.763,289.232 365.747,296.729 386.792,284.578 373.716,277.135 	"/>
	<polygon style="fill:#E3E3E3;" points="325.629,319.891 312.645,312.395 293.866,323.236 306.85,330.733 	"/>
	<polygon style="fill:#E3E3E3;" points="232.495,373.662 219.51,366.166 195.799,379.855 208.783,387.352 	"/>
	<polygon style="fill:#E3E3E3;" points="312.645,301.6 334.065,289.232 324.744,283.851 303.327,296.22 	"/>
	<polygon style="fill:#E3E3E3;" points="252.697,385.326 241.843,379.06 218.132,392.75 228.985,399.016 	"/>
	<polygon style="fill:#E3E3E3;" points="261.274,342.054 274.156,349.609 297.501,336.13 284.517,328.634 	"/>
	<polygon style="fill:#E3E3E3;" points="228.859,360.769 241.843,368.265 264.843,354.985 251.961,347.43 	"/>
	<polygon style="fill:#E3E3E3;" points="284.517,317.839 303.296,306.997 293.98,301.618 275.204,312.462 	"/>
	<polygon style="fill:#E3E3E3;" points="160.01,400.518 172.995,408.015 199.435,392.75 186.45,385.253 	"/>
	<polygon style="fill:#E3E3E3;" points="385.949,319.188 364.529,331.555 378.224,339.461 399.616,327.078 	"/>
	<polygon style="fill:#E3E3E3;" points="416.552,301.519 395.298,313.79 408.952,321.673 430.274,309.33 	"/>
	<polygon style="fill:#E3E3E3;" points="355.18,336.952 238.334,404.413 252.198,412.417 368.887,344.866 	"/>
	<polygon style="fill:#E3E3E3;" points="343.414,283.835 364.301,271.775 354.91,266.429 334.091,278.452 	"/>
	<polygon style="fill:#E3E3E3;" points="242.862,417.822 228.985,409.811 202.546,425.076 216.458,433.107 	"/>
	<polygon style="fill:#E3E3E3;" points="193.197,430.473 173.04,442.111 187.003,450.159 207.121,438.512 	"/>
	<polygon style="fill:#E3E3E3;" points="141.313,400.518 132.023,395.154 111.82,406.822 121.115,412.18 	"/>
	<polygon style="fill:#E3E3E3;" points="186.45,374.458 210.162,360.769 200.86,355.398 177.153,369.09 	"/>
	<polygon style="fill:#E3E3E3;" points="251.999,336.614 275.169,323.236 265.857,317.86 242.764,331.197 	"/>
	<polygon style="fill:#E3E3E3;" points="150.662,395.121 177.102,379.855 167.805,374.489 141.37,389.756 	"/>
	<polygon style="fill:#E3E3E3;" points="219.51,355.371 242.686,341.99 233.453,336.575 210.207,350 	"/>
	<polygon style="fill:#E3E3E3;" points="183.848,425.076 172.995,418.81 152.822,430.457 163.684,436.718 	"/>
	<polygon style="fill:#E3E3E3;" points="219.637,404.413 208.783,398.147 182.344,413.412 193.197,419.678 	"/>
	<polygon style="fill:#E3E3E3;" points="143.465,425.063 163.646,413.412 150.662,405.916 130.471,417.573 	"/>
</g>
<g>
	<polygon style="opacity:0.1;fill:#FFFFFF;enable-background:new    ;" points="278.591,61.358 326.718,97.741 326.718,202.163 
		263.653,238.967 136.924,143.162 	"/>
	<polygon style="opacity:0.1;fill:#FFFFFF;enable-background:new    ;" points="67.589,292.019 67.589,183.199 84.049,173.694 
		211.022,269.684 113.403,326.654 	"/>
</g>
<g>
</g>
<g>
</g>
<g>
</g>
<g>
</g>
<g>
</g>
<g>
</g>
<g>
</g>
<g>
</g>
<g>
</g>
<g>
</g>
<g>
</g>
<g>
</g>
<g>
</g>
<g>
</g>
<g>
</g>
</svg>
