<svg id="Icons" height="512" viewBox="0 0 60 60" width="512" xmlns="http://www.w3.org/2000/svg"><path d="m41 19a17.1 17.1 0 0 0 -4 .46l-2 .54v34l2 .54a17.1 17.1 0 0 0 4 .46 18 18 0 0 0 0-36zm0 22a4 4 0 1 1 4-4 4 4 0 0 1 -4 4z" fill="#d4e6e7"/><path d="m41 19a17.1 17.1 0 0 0 -4 .46l-2 .54v34l2 .54a17.1 17.1 0 0 0 4 .46 18 18 0 0 0 0-36zm0 22a4 4 0 1 1 4-4 4 4 0 0 1 -4 4z" fill="#c0dadc"/><rect fill="#3b437f" height="58" rx="2" width="36" x="1" y="1"/><path d="m59 37a17.809 17.809 0 0 1 -.66 4.82l-9.63-2.68v-4.28l9.63-2.68a17.809 17.809 0 0 1 .66 4.82z" fill="#d4e6e7"/><path d="m49 37a8 8 0 0 1 -8 8 7.851 7.851 0 0 1 -4-1.08v-6.92a4 4 0 1 0 4-4 4 4 0 0 0 -4 4v-6.92a7.851 7.851 0 0 1 4-1.08 8 8 0 0 1 8 8z" fill="#aac7c8"/><path d="m13 13a5.006 5.006 0 0 0 -5 5v8a5 5 0 0 0 10 0v-8a5.006 5.006 0 0 0 -5-5zm3 13a3 3 0 0 1 -6 0v-8a3 3 0 0 1 6 0z" fill="#fff"/><path d="m25 21a3 3 0 1 1 3-3 1 1 0 0 0 2 0 5 5 0 1 0 -5 5 3 3 0 1 1 -3 3 1 1 0 0 0 -2 0 5 5 0 1 0 5-5z" fill="#fff"/><g fill="#292d60"><path d="m31 37h-24a1 1 0 0 1 0-2h24a1 1 0 0 1 0 2z"/><path d="m25 41h-12a1 1 0 0 1 0-2h12a1 1 0 0 1 0 2z"/></g></svg>