<svg height="512" viewBox="0 0 128 128" width="512" xmlns="http://www.w3.org/2000/svg"><g><ellipse cx="39.584" cy="80.266" fill="#ffca28" rx="11.092" ry="16.266"/><g><path d="m28.491 80.267c0 8.983-4.966 16.265-11.091 16.266h22.183c-6.126-.001-11.091-7.283-11.092-16.266z" fill="#825a3a"/><path d="m28.491 80.266c.001-8.984 4.967-16.266 11.092-16.266h-22.183c6.125 0 11.091 7.282 11.091 16.266z" fill="#825a3a"/><path d="m39.584 96.533h.02z" fill="#9b6e42"/></g><ellipse cx="17.399" cy="80.266" fill="#ffca28" rx="11.092" ry="16.266"/><ellipse cx="28.491" cy="47.734" fill="#ffca28" rx="11.092" ry="16.266"/><path d="m110.63 64h-11.092c6.113-.024 11.063-7.295 11.063-16.264s-4.95-16.241-11.063-16.265h-71.047c6.126 0 11.093 7.283 11.093 16.267s-4.966 16.262-11.092 16.262h11.091c6.127 0 11.093 7.283 11.093 16.266s-4.966 16.266-11.092 16.267h71.046c6.113-.024 11.064-7.3 11.064-16.265s-4.951-16.242-11.064-16.268z" fill="#9b6e42"/><path d="m39.585 91.777c-3.944 0-6.918-4.948-6.918-11.51s2.974-11.511 6.918-11.511 6.915 4.949 6.915 11.511a1.75 1.75 0 0 1 -3.5 0c0-4.891-2.025-8.011-3.419-8.011s-3.418 3.12-3.418 8.011 2.024 8.01 3.418 8.01a1.75 1.75 0 0 1 0 3.5z" fill="#e5af29"/><path d="m17.4 91.777c-3.944 0-6.919-4.948-6.919-11.51s2.974-11.511 6.919-11.511a1.75 1.75 0 0 1 0 3.5c-1.394 0-3.419 3.12-3.419 8.011s2.025 8.01 3.419 8.01a1.668 1.668 0 0 0 1.1-.541 1.75 1.75 0 1 1 2.4 2.551 5.1 5.1 0 0 1 -3.5 1.49z" fill="#e5af29"/><path d="m22.305 85.1a1.775 1.775 0 0 1 -.305-.023 1.75 1.75 0 0 1 -1.419-2.028 16.1 16.1 0 0 0 .237-2.782 1.75 1.75 0 0 1 3.5 0 19.461 19.461 0 0 1 -.291 3.391 1.75 1.75 0 0 1 -1.722 1.442z" fill="#e5af29"/><path d="m28.491 58.745c-3.91 0-6.86-4.734-6.86-11.012s2.95-11.01 6.86-11.01a1.75 1.75 0 0 1 0 3.5c-1.37 0-3.36 2.925-3.36 7.51s1.99 7.512 3.36 7.512 3.36-2.927 3.36-7.512a1.75 1.75 0 0 1 3.5 0c0 6.278-2.951 11.012-6.86 11.012z" fill="#e5af29"/><g fill="#825a3a"><path d="m92.58 71.24a1.752 1.752 0 0 1 -1.75 1.75h-41.32a17.566 17.566 0 0 0 -1.62-3.5h42.94a1.746 1.746 0 0 1 1.75 1.75z"/><path d="m121.69 80.27c0 .62-.02 1.22-.07 1.82h-42.58a1.75 1.75 0 1 1 0-3.5h42.59q.06.825.06 1.68z"/><path d="m104.016 72.986h-5a1.75 1.75 0 0 1 0-3.5h5a1.75 1.75 0 0 1 0 3.5z"/><path d="m66.22 80.34a1.752 1.752 0 0 1 -1.75 1.75h-13.86c.05-.6.07-1.2.07-1.82q0-.855-.06-1.68h13.85a1.746 1.746 0 0 1 1.75 1.75z"/><path d="m82.3 90.417h-21.754a1.75 1.75 0 1 1 0-3.5h21.754a1.75 1.75 0 0 1 0 3.5z"/><path d="m109.879 90.417h-13.317a1.75 1.75 0 1 1 0-3.5h13.317a1.75 1.75 0 0 1 0 3.5z"/><path d="m109.44 40.49h-43.35a1.75 1.75 0 0 1 0-3.5h41.75a18.38 18.38 0 0 1 1.6 3.5z"/><path d="m54.7 40.492h-5.889a1.75 1.75 0 0 1 0-3.5h5.889a1.75 1.75 0 0 1 0 3.5z"/><path d="m93.27 49.483h-6.824a1.75 1.75 0 0 1 0-3.5h6.824a1.75 1.75 0 0 1 0 3.5z"/><path d="m109.57 54.57a18.088 18.088 0 0 1 -1.5 3.5h-54.59a1.75 1.75 0 0 1 0-3.5z"/><path d="m76.7 45.983h-37.183c.042.576.066 1.159.066 1.751s-.024 1.174-.066 1.749h37.183a1.75 1.75 0 0 0 0-3.5z"/></g></g></svg>