<svg width="305" height="305" viewBox="0 0 305 305" fill="none" xmlns="http://www.w3.org/2000/svg">
<path d="M143.054 27.1739C146.167 18.2183 158.833 18.2183 161.946 27.1739L186.07 96.5771C187.443 100.528 191.13 103.207 195.312 103.292L268.773 104.789C278.253 104.982 282.166 117.027 274.611 122.755L216.06 167.146C212.727 169.673 211.318 174.007 212.529 178.011L233.807 248.339C236.552 257.414 226.306 264.858 218.523 259.443L158.212 217.475C154.779 215.086 150.221 215.086 146.788 217.475L86.4768 259.443C78.6944 264.858 68.4479 257.414 71.1935 248.339L92.4705 178.011C93.6817 174.007 92.2734 169.673 88.9404 167.146L30.3889 122.755C22.8336 117.027 26.7474 104.982 36.2266 104.789L109.688 103.292C113.87 103.207 117.557 100.528 118.93 96.5771L143.054 27.1739Z" fill="#FFE603"/>
<rect x="145" y="125" width="10" height="50" rx="5" fill="#73F470"/>
<rect x="125" y="155" width="10" height="50" rx="5" transform="rotate(-90 125 155)" fill="#73F470"/>
</svg>
