<svg width="333" height="502" viewBox="0 0 333 502" fill="none" xmlns="http://www.w3.org/2000/svg">
<rect x="2.5" y="2.5" width="328" height="497" rx="17.5" fill="white" stroke="#989898" stroke-width="5"/>
<path d="M166.5 487L75.1343 451.75L257.866 451.75L166.5 487Z" fill="black"/>
<rect x="43" y="18" width="248" height="22" rx="11" fill="#08FF03"/>
<path d="M163.531 423.867V430H135.094V423.867H163.531ZM136.578 373.125V430H129.039V373.125H136.578ZM205.992 397.031V405.703C205.992 410.365 205.576 414.297 204.742 417.5C203.909 420.703 202.711 423.281 201.148 425.234C199.586 427.188 197.698 428.607 195.484 429.492C193.297 430.352 190.823 430.781 188.062 430.781C185.875 430.781 183.857 430.508 182.008 429.961C180.159 429.414 178.492 428.542 177.008 427.344C175.549 426.12 174.299 424.531 173.258 422.578C172.216 420.625 171.422 418.255 170.875 415.469C170.328 412.682 170.055 409.427 170.055 405.703V397.031C170.055 392.37 170.471 388.464 171.305 385.312C172.164 382.161 173.375 379.635 174.938 377.734C176.5 375.807 178.375 374.427 180.562 373.594C182.776 372.76 185.25 372.344 187.984 372.344C190.198 372.344 192.229 372.617 194.078 373.164C195.953 373.685 197.62 374.531 199.078 375.703C200.536 376.849 201.773 378.385 202.789 380.312C203.831 382.214 204.625 384.544 205.172 387.305C205.719 390.065 205.992 393.307 205.992 397.031ZM198.727 406.875V395.82C198.727 393.268 198.57 391.029 198.258 389.102C197.971 387.148 197.542 385.482 196.969 384.102C196.396 382.721 195.667 381.602 194.781 380.742C193.922 379.883 192.919 379.258 191.773 378.867C190.654 378.451 189.391 378.242 187.984 378.242C186.266 378.242 184.742 378.568 183.414 379.219C182.086 379.844 180.966 380.846 180.055 382.227C179.169 383.607 178.492 385.417 178.023 387.656C177.555 389.896 177.32 392.617 177.32 395.82V406.875C177.32 409.427 177.464 411.68 177.75 413.633C178.062 415.586 178.518 417.279 179.117 418.711C179.716 420.117 180.445 421.276 181.305 422.188C182.164 423.099 183.154 423.776 184.273 424.219C185.419 424.635 186.682 424.844 188.062 424.844C189.833 424.844 191.383 424.505 192.711 423.828C194.039 423.151 195.146 422.096 196.031 420.664C196.943 419.206 197.62 417.344 198.062 415.078C198.505 412.786 198.727 410.052 198.727 406.875Z" fill="black"/>
<path d="M159.77 231.566C163.709 227.444 170.291 227.444 174.23 231.565L233.98 294.091C240.06 300.453 235.55 311 226.75 311H107.25C98.4495 311 93.9401 300.453 100.02 294.091L159.77 231.566Z" fill="black"/>
<circle cx="166.5" cy="223.5" r="38" fill="black" stroke="white" stroke-width="5"/>
</svg>
