<svg width="20" height="20" viewBox="0 0 20 20" fill="none" xmlns="http://www.w3.org/2000/svg">
<g clip-path="url(#clip0_527_2635)">
<path d="M10.0001 12.5C9.77907 12.5 9.56711 12.4122 9.41083 12.2559C9.25455 12.0996 9.16675 11.8877 9.16675 11.6667C9.19769 11.1221 9.36336 10.5938 9.64887 10.1291C9.93439 9.6644 10.3308 9.27785 10.8026 9.00417C11.1109 8.83521 11.3576 8.57285 11.5073 8.2548C11.6571 7.93676 11.7021 7.57941 11.6359 7.23417C11.5717 6.90441 11.4105 6.60133 11.173 6.36377C10.9354 6.12622 10.6323 5.96502 10.3026 5.90083C10.0619 5.8564 9.8143 5.86555 9.57751 5.92761C9.34072 5.98968 9.1205 6.10314 8.93252 6.25994C8.74454 6.41674 8.5934 6.61302 8.48986 6.83483C8.38631 7.05664 8.3329 7.29854 8.33342 7.54333C8.33342 7.76435 8.24562 7.97631 8.08934 8.13259C7.93306 8.28887 7.7211 8.37667 7.50008 8.37667C7.27907 8.37667 7.06711 8.28887 6.91083 8.13259C6.75455 7.97631 6.66675 7.76435 6.66675 7.54333C6.66667 7.05646 6.77324 6.57548 6.97897 6.13421C7.1847 5.69295 7.4846 5.3021 7.85758 4.98917C8.21404 4.69117 8.62887 4.47098 9.07543 4.34274C9.52199 4.21449 9.99043 4.18101 10.4507 4.24445C10.911 4.3079 11.3529 4.46686 11.7481 4.71113C12.1433 4.95541 12.4831 5.27961 12.7456 5.66293C13.0082 6.04625 13.1877 6.48023 13.2727 6.93701C13.3576 7.39379 13.3462 7.86328 13.239 8.31537C13.1318 8.76746 12.9314 9.19215 12.6504 9.5622C12.3695 9.93225 12.0143 10.2395 11.6076 10.4642C11.3969 10.594 11.218 10.7694 11.084 10.9775C10.95 11.1856 10.8644 11.4211 10.8334 11.6667C10.8334 11.8877 10.7456 12.0996 10.5893 12.2559C10.4331 12.4122 10.2211 12.5 10.0001 12.5ZM10.6609 19.8C12.4609 19.0767 18.3334 16.2325 18.3334 10.0358V5.72667C18.3343 4.85084 18.0589 3.99706 17.5462 3.28693C17.0336 2.5768 16.31 2.04653 15.4784 1.77167L10.2626 0.0425005C10.0923 -0.014973 9.90787 -0.014973 9.73758 0.0425005L4.52175 1.77167C3.69018 2.04653 2.96654 2.5768 2.45392 3.28693C1.94129 3.99706 1.66583 4.85084 1.66675 5.72667V10.0358C1.66675 15.5042 7.50425 18.8492 9.29425 19.7442C9.51065 19.8745 9.75041 19.9614 10.0001 20C10.2309 19.975 10.455 19.9071 10.6609 19.8ZM14.9534 3.35333C15.4522 3.51868 15.8862 3.83698 16.1937 4.26303C16.5013 4.68907 16.6668 5.2012 16.6667 5.72667V10.0358C16.6667 15.1883 11.5943 17.6283 10.0393 18.2533C8.46592 17.4667 3.33342 14.5492 3.33342 10.0358V5.72667C3.33335 5.2012 3.49885 4.68907 3.80642 4.26303C4.11399 3.83698 4.54798 3.51868 5.04675 3.35333L10.0001 1.71167L14.9534 3.35333ZM10.0001 14.1667C9.83527 14.1667 9.67415 14.2155 9.53711 14.3071C9.40007 14.3987 9.29326 14.5288 9.23018 14.6811C9.16711 14.8334 9.15061 15.0009 9.18276 15.1626C9.21492 15.3242 9.29428 15.4727 9.41083 15.5893C9.52737 15.7058 9.67586 15.7852 9.83751 15.8173C9.99916 15.8495 10.1667 15.833 10.319 15.7699C10.4713 15.7068 10.6014 15.6 10.693 15.463C10.7845 15.3259 10.8334 15.1648 10.8334 15C10.8334 14.779 10.7456 14.567 10.5893 14.4107C10.4331 14.2545 10.2211 14.1667 10.0001 14.1667Z" fill="#B2B2B2"/>
</g>
<defs>
<clipPath id="clip0_527_2635">
<rect width="20" height="20" fill="white"/>
</clipPath>
</defs>
</svg>
