<svg width="20" height="20" viewBox="0 0 20 20" fill="none" xmlns="http://www.w3.org/2000/svg">
<path d="M13.7676 8.59375C13.7676 8.16227 13.4178 7.8125 12.9863 7.8125H4.93945C4.50797 7.8125 4.1582 8.16227 4.1582 8.59375C4.1582 9.02523 4.50797 9.375 4.93945 9.375H12.9863C13.4178 9.375 13.7676 9.02523 13.7676 8.59375Z" fill="#6E798C"/>
<path d="M4.93945 10.9375C4.50797 10.9375 4.1582 11.2873 4.1582 11.7188C4.1582 12.1502 4.50797 12.5 4.93945 12.5H9.82659C10.2581 12.5 10.6078 12.1502 10.6078 11.7188C10.6078 11.2873 10.2581 10.9375 9.82659 10.9375H4.93945Z" fill="#6E798C"/>
<path d="M6.77594 18.4375H4.16309C3.30152 18.4375 2.60059 17.7366 2.60059 16.875V3.125C2.60059 2.26344 3.30152 1.5625 4.16309 1.5625H13.7681C14.6297 1.5625 15.3306 2.26344 15.3306 3.125V7.92969C15.3306 8.36117 15.6804 8.71094 16.1119 8.71094C16.5434 8.71094 16.8931 8.36117 16.8931 7.92969V3.125C16.8931 1.40188 15.4913 0 13.7681 0H4.16309C2.43996 0 1.03809 1.40188 1.03809 3.125V16.875C1.03809 18.5981 2.43996 20 4.16309 20H6.77594C7.20742 20 7.55719 19.6502 7.55719 19.2188C7.55719 18.7873 7.20742 18.4375 6.77594 18.4375Z" fill="#6E798C"/>
<path d="M18.2764 11.3114C17.3626 10.3976 15.8757 10.3976 14.9625 11.3108L10.6733 15.5905C10.5822 15.6814 10.515 15.7933 10.4776 15.9165L9.54351 18.9917C9.4607 19.2643 9.53285 19.5604 9.73183 19.7643C9.8809 19.9171 10.0834 20 10.2911 20C10.3606 20 10.4307 19.9907 10.4996 19.9716L13.6529 19.0981C13.7827 19.0622 13.901 18.9933 13.9963 18.8982L18.2765 14.626C19.1903 13.7122 19.1903 12.2253 18.2764 11.3114ZM13.0379 17.6472L11.4514 18.0867L11.9157 16.5582L14.8098 13.6705L15.9149 14.7756L13.0379 17.6472ZM17.1722 13.5207L17.0208 13.6718L15.9159 12.5669L16.0668 12.4164C16.3714 12.1118 16.867 12.1118 17.1716 12.4164C17.4762 12.721 17.4762 13.2166 17.1722 13.5207Z" fill="#6E798C"/>
<path d="M12.9863 4.6875H4.93945C4.50797 4.6875 4.1582 5.03727 4.1582 5.46875C4.1582 5.90023 4.50797 6.25 4.93945 6.25H12.9863C13.4178 6.25 13.7676 5.90023 13.7676 5.46875C13.7676 5.03727 13.4178 4.6875 12.9863 4.6875Z" fill="#6E798C"/>
</svg>
