<svg width="20" height="20" viewBox="0 0 20 20" fill="none" xmlns="http://www.w3.org/2000/svg">
<path d="M9.96729 11.1657C12.923 11.1657 15.3203 8.76836 15.3203 5.81271C15.3203 2.85706 12.9229 0.476074 9.96729 0.476074C7.01165 0.476074 4.61426 2.87346 4.61426 5.81271C4.61426 8.75196 7.01161 11.1657 9.96729 11.1657ZM9.96729 1.87181C12.1348 1.87181 13.9082 3.6452 13.9082 5.81271C13.9082 7.98022 12.1348 9.75357 9.96729 9.75357C7.79982 9.75357 6.02639 7.98018 6.02639 5.81267C6.02639 3.64516 7.79978 1.87181 9.96729 1.87181Z" fill="#6E798C"/>
<path d="M0.706068 19.5236H19.2939C19.688 19.5236 20 19.2116 20 18.8175C20 15.1229 16.9951 12.1016 13.2841 12.1016H6.71594C3.02135 12.1016 0 15.1065 0 18.8175C0 19.2116 0.311982 19.5236 0.706068 19.5236ZM6.71594 13.5137H13.2841C15.977 13.5137 18.1937 15.517 18.5386 18.1114H1.46141C1.80622 15.5334 4.023 13.5137 6.71594 13.5137Z" fill="#6E798C"/>
</svg>
