<svg width="10" height="12" viewBox="0 0 10 12" fill="none" xmlns="http://www.w3.org/2000/svg">
<path d="M1.025 11.25H8.975C9.26328 11.25 9.5 11.018 9.5 10.732V5.76562C9.5 5.47969 9.26562 5.25 8.975 5.25H8.46875V4.52578C8.46875 3.55313 8.08906 2.47266 7.47031 1.82109C6.85391 1.16953 5.97031 0.75 5.00234 0.75C5 0.75 5 0.75 5 0.75H4.99766C4.02969 0.75 3.14609 1.16953 2.52969 1.81875C1.91094 2.47031 1.53125 3.55078 1.53125 4.52344V5.25H1.08594H1.025C0.734375 5.25 0.5 5.48203 0.5 5.76562V10.732C0.5 11.018 0.734375 11.25 1.025 11.25ZM2.77344 4.52578C2.77344 3.88594 3.00547 3.09375 3.43203 2.64375V2.63672C3.84453 2.20078 4.41406 1.94531 4.99766 1.94531H5H5.00234C5.58594 1.94531 6.15547 2.20078 6.56797 2.63672V2.64141L6.56562 2.64375C6.99453 3.09375 7.22422 3.88594 7.22422 4.52578V5.25H6.81406H3.18125H2.77344V4.52578Z" fill="#4F5665"/>
</svg>
