<svg width="45" height="45" viewBox="0 0 45 45" fill="none" xmlns="http://www.w3.org/2000/svg">
<path d="M22.5003 39.6427C31.968 39.6427 39.6431 31.9675 39.6431 22.4998C39.6431 13.0321 31.968 5.35693 22.5003 5.35693C13.0325 5.35693 5.35742 13.0321 5.35742 22.4998C5.35742 31.9675 13.0325 39.6427 22.5003 39.6427Z" fill="url(#paint0_radial_969_3637)"/>
<path opacity="0.5" d="M22.5003 39.6427C31.968 39.6427 39.6431 31.9675 39.6431 22.4998C39.6431 13.0321 31.968 5.35693 22.5003 5.35693C13.0325 5.35693 5.35742 13.0321 5.35742 22.4998C5.35742 31.9675 13.0325 39.6427 22.5003 39.6427Z" fill="url(#paint1_radial_969_3637)"/>
<path d="M18.7293 13.6177C18.7293 12.932 17.99 12.5034 16.7043 12.5034C15.6221 12.5034 13.2329 13.1034 11.5936 15.2141C11.2936 15.5999 11.7543 15.8141 12.0543 15.5677C13.0614 14.7106 15.7722 13.607 17.8828 13.8427C18.7293 13.9284 18.7293 13.6177 18.7293 13.6177Z" fill="url(#paint2_linear_969_3637)"/>
<path d="M26.2715 13.6177C26.2715 12.932 27.0108 12.5034 28.2965 12.5034C29.3786 12.5034 31.768 13.1034 33.4072 15.2141C33.7072 15.5999 33.2465 15.8141 32.9465 15.5677C31.9393 14.7106 29.2287 13.607 27.1179 13.8427C26.2715 13.9284 26.2715 13.6177 26.2715 13.6177Z" fill="url(#paint3_linear_969_3637)"/>
<path opacity="0.5" d="M8.603 25.8967C8.603 25.8967 7.11373 24.2145 6.63161 19.5216C6.59943 19.1681 6.128 18.8574 5.78516 18.6859C5.98873 17.7967 6.25659 16.9395 6.58874 16.1038C6.95302 16.0395 7.46731 15.9538 8.16374 15.8788C10.7137 15.5895 14.9137 15.5788 16.8637 16.1681C19.5745 16.9824 20.5494 18.1181 22.1994 18.1181V19.0074C20.2709 19.0074 21.878 22.3395 19.2209 25.2967C17.0995 27.6645 9.94231 27.7074 8.603 25.8967Z" fill="url(#paint4_radial_969_3637)"/>
<path opacity="0.5" d="M36.3973 25.8967C36.3973 25.8967 37.8865 24.2145 38.3687 19.5216C38.4008 19.1681 38.8723 18.8574 39.2151 18.6859C39.0115 17.7967 38.7437 16.9395 38.4115 16.1038C38.0472 16.0395 37.5329 15.9538 36.8365 15.8788C34.2865 15.5895 30.0865 15.5788 28.1365 16.1681C25.4258 16.9824 24.4508 18.1181 22.8008 18.1181V19.0074C24.7294 19.0074 23.1222 22.3395 25.7794 25.2967C27.9008 27.6645 35.0579 27.7074 36.3973 25.8967Z" fill="url(#paint5_radial_969_3637)"/>
<path d="M29.8279 18.4606C29.8279 18.4606 32.8172 18.7606 33.6529 21.0213C33.7065 21.1606 33.7386 21.3106 33.7279 21.4606C33.7279 21.7606 33.4494 22.082 32.9136 21.7927C29.635 19.982 27.7386 20.8391 26.3243 21.4285C25.7779 21.6642 25.2851 21.107 25.4565 20.6141C25.4993 20.4749 25.5422 20.3249 25.6172 20.1963C26.8386 18.1391 29.8279 18.4606 29.8279 18.4606Z" fill="url(#paint6_radial_969_3637)"/>
<path d="M29.7653 19.1677C29.7653 19.1677 32.1975 19.4142 33.7189 21.2785C33.7082 21.1927 33.6868 21.107 33.6546 21.0213C32.8189 18.7606 29.8296 18.4606 29.8296 18.4606C29.8296 18.4606 26.8403 18.1391 25.6189 20.1963C25.576 20.2713 25.5331 20.357 25.5117 20.4427C27.3225 18.9106 29.7653 19.1677 29.7653 19.1677Z" fill="url(#paint7_linear_969_3637)"/>
<path d="M15.1716 18.4606C15.1716 18.4606 12.1823 18.7606 11.3466 21.0213C11.293 21.1606 11.2609 21.3106 11.2716 21.4606C11.2716 21.7606 11.5502 22.082 12.0859 21.7927C15.3644 19.982 17.2609 20.8391 18.6751 21.4285C19.2216 21.6642 19.7144 21.107 19.543 20.6141C19.5002 20.4749 19.4573 20.3249 19.3823 20.1963C18.1609 18.1391 15.1716 18.4606 15.1716 18.4606Z" fill="url(#paint8_radial_969_3637)"/>
<path d="M15.2348 19.1677C15.2348 19.1677 12.8027 19.4142 11.2812 21.2785C11.292 21.1927 11.3134 21.107 11.3455 21.0213C12.1812 18.7606 15.1705 18.4606 15.1705 18.4606C15.1705 18.4606 18.1598 18.1391 19.3812 20.1963C19.4241 20.2713 19.467 20.357 19.4884 20.4427C17.6777 18.9106 15.2348 19.1677 15.2348 19.1677Z" fill="url(#paint9_linear_969_3637)"/>
<path d="M30.0755 28.3716C29.9362 28.3502 29.7862 28.3931 29.6898 28.4895C27.8469 30.2145 25.0077 31.1466 22.8648 31.1466H22.5005H22.1362C19.9934 31.1466 17.1541 30.2145 15.3112 28.4895C15.2041 28.3931 15.0648 28.3502 14.9255 28.3716C14.7755 28.4037 14.7005 28.5644 14.7755 28.693C16.3505 31.4145 19.2541 33.0966 22.4148 33.0966H22.5112H22.6076C25.7684 33.0966 28.672 31.4145 30.247 28.693C30.3005 28.5644 30.2255 28.4037 30.0755 28.3716Z" fill="#643800"/>
<path d="M30.0755 28.3716C29.9362 28.3502 29.7862 28.3931 29.6898 28.4895C27.8469 30.2145 25.0077 31.1466 22.8648 31.1466H22.5005H22.1362C19.9934 31.1466 17.1541 30.2145 15.3112 28.4895C15.2041 28.3931 15.0648 28.3502 14.9255 28.3716C14.7755 28.4037 14.7005 28.5644 14.7755 28.693C14.7863 28.7252 14.8076 28.7466 14.8291 28.768C14.9791 28.6823 15.1398 28.5966 15.3005 28.7788C17.0469 30.7395 19.6398 31.918 22.4148 31.918H22.5112H22.6076C25.4041 31.918 28.0076 30.7287 29.7541 28.7359C29.9148 28.5538 30.0648 28.6395 30.2041 28.7359C30.2148 28.7145 30.2255 28.7038 30.2362 28.6823C30.3005 28.5644 30.2255 28.4037 30.0755 28.3716Z" fill="url(#paint10_linear_969_3637)"/>
<path d="M14.2178 15.8679C12.0321 15.7072 9.47135 15.5036 8.9678 17.2072C8.46425 18.9108 8.79636 21.4822 9.96422 23.4C11.1321 25.3179 15.7607 25.2108 17.4321 24.1929C19.6606 22.8429 19.8535 20.5607 19.9178 19.1786C19.9928 17.3464 17.5821 16.1036 14.2178 15.8679Z" fill="url(#paint11_linear_969_3637)"/>
<path d="M30.7388 15.8679C32.9245 15.7072 35.4852 15.5036 35.9888 17.2072C36.4924 18.9108 36.1602 21.4822 34.9924 23.4C33.8245 25.3179 29.1959 25.2108 27.5245 24.1929C25.2959 22.8429 25.1031 20.5607 25.0388 19.1786C24.9638 17.3464 27.3745 16.1036 30.7388 15.8679Z" fill="url(#paint12_linear_969_3637)"/>
<path d="M38.9367 15.2571C38.9367 15.2571 38.3903 15.0428 36.5153 14.8285C33.9653 14.5392 29.7653 14.5285 27.8153 15.1178C25.1046 15.9321 24.1296 17.0678 22.4796 17.0678C20.8295 17.0678 19.8546 15.9321 17.1331 15.1071C15.1939 14.5178 10.9938 14.5285 8.43317 14.8178C6.56887 15.0321 6.01172 15.2463 6.01172 15.2463C6.01172 15.4285 6.01172 15.6428 6.02241 15.8785C6.02241 15.8785 7.17958 16.0714 7.19027 16.1785C7.19027 16.2321 6.05458 16.3392 6.05458 16.3392C6.07601 16.5321 6.10813 16.7356 6.15099 16.9499L6.60099 17.1642C6.95458 17.325 7.19027 17.6678 7.22244 18.0535C7.70456 22.7464 9.19384 24.6428 9.19384 24.6428C10.5331 26.4428 16.8332 27.0535 18.9546 24.6857C21.6117 21.7178 20.5403 19.0392 22.4688 19.0392C24.3974 19.0392 23.326 21.7285 25.9832 24.6857C28.1046 27.0535 34.4046 26.4428 35.7438 24.6428C35.7438 24.6428 37.2332 22.7464 37.7153 18.0535C37.7582 17.6678 37.9938 17.325 38.3367 17.1642L38.7867 16.9499C38.8295 16.7356 38.8617 16.5321 38.8832 16.3392C38.8832 16.3392 37.8224 16.2321 37.8331 16.1785C37.8439 16.0714 38.926 15.8785 38.926 15.8785C38.9474 15.6428 38.9474 15.4285 38.9367 15.2571ZM17.4332 24.1821C15.7617 25.2 11.1439 25.3071 9.96531 23.3892C8.79744 21.4821 8.46529 18.9 8.96884 17.1964C9.47244 15.4928 12.0332 15.7071 14.2189 15.8571C17.5831 16.1035 19.9938 17.3464 19.9189 19.1678C19.8546 20.5499 19.6617 22.8321 17.4332 24.1821ZM34.9832 23.3892C33.8153 25.2964 29.1867 25.2 27.5153 24.1821C25.2867 22.8321 25.0939 20.5499 25.0296 19.1678C24.9546 17.3464 27.3653 16.1035 30.7295 15.8571C32.9153 15.6963 35.476 15.4928 35.9796 17.1964C36.4831 18.9106 36.1617 21.4821 34.9832 23.3892Z" fill="url(#paint13_linear_969_3637)"/>
<path d="M14.2178 15.8679C12.0321 15.7072 9.47135 15.5036 8.9678 17.2072C8.46425 18.9108 8.79636 21.4822 9.96422 23.4C11.1321 25.3179 15.7607 25.2108 17.4321 24.1929C19.6606 22.8429 19.8535 20.5607 19.9178 19.1786C19.9928 17.3464 17.5821 16.1036 14.2178 15.8679Z" fill="url(#paint14_linear_969_3637)"/>
<path d="M17.4314 24.1824C15.7599 25.2002 11.1421 25.3074 9.96355 23.3895C8.97782 21.7824 8.59211 19.7037 8.79568 18.0752C8.79568 18.0859 8.78494 18.0859 8.78494 18.0966C8.6028 19.8538 8.92427 21.9216 9.88851 23.6252C11.0778 25.7252 15.7814 25.6074 17.485 24.493C19.2314 23.3466 19.6814 21.7181 19.8207 20.2823C19.6492 21.5895 19.1243 23.1538 17.4314 24.1824Z" fill="url(#paint15_linear_969_3637)"/>
<path opacity="0.75" d="M23.5384 19.0391C23.5706 18.482 23.6991 17.9248 23.9241 17.4213L24.2777 16.6177C23.6884 16.8855 23.1313 17.0677 22.4777 17.0677C21.8242 17.0677 21.267 16.8855 20.6777 16.6177L21.0313 17.4213C21.2563 17.9355 21.3849 18.482 21.417 19.0391L21.4491 19.5534C21.6634 19.2213 21.9634 19.0284 22.4777 19.0284C22.992 19.0284 23.292 19.2213 23.5063 19.5534L23.5384 19.0391Z" fill="url(#paint16_radial_969_3637)"/>
<path opacity="0.75" d="M8.96819 17.4321C9.47179 15.7286 12.0325 15.9429 14.2182 16.0929C17.4646 16.3286 19.8218 17.4857 19.9182 19.2107C19.9182 19.2 19.9182 19.1786 19.9182 19.1678C19.9932 17.3464 17.5825 16.1036 14.2182 15.8571C12.0325 15.6964 9.47179 15.4929 8.96819 17.1965C8.80748 17.7536 8.7325 18.3964 8.74319 19.0822C8.75393 18.4822 8.82891 17.925 8.96819 17.4321Z" fill="black"/>
<path d="M6.02148 15.8789C6.03223 16.0182 6.04292 16.1789 6.06435 16.3396H7.76793C8.02505 16.3396 8.22862 16.1361 8.22862 15.8789H6.02148Z" fill="url(#paint17_linear_969_3637)"/>
<path d="M30.7388 15.8679C32.9245 15.7072 35.4852 15.5036 35.9888 17.2072C36.4924 18.9108 36.1602 21.4822 34.9924 23.4C33.8245 25.3179 29.1959 25.2108 27.5245 24.1929C25.2959 22.8429 25.1031 20.5607 25.0388 19.1786C24.9638 17.3464 27.3745 16.1036 30.7388 15.8679Z" fill="url(#paint18_linear_969_3637)"/>
<path d="M27.5143 24.1824C29.1857 25.2002 33.8036 25.3074 34.9822 23.3895C35.9679 21.7824 36.3536 19.7037 36.15 18.0752C36.15 18.0859 36.1607 18.0859 36.1607 18.0966C36.3429 19.8538 36.0215 21.9216 35.0572 23.6252C33.8679 25.7252 29.1643 25.6074 27.4607 24.493C25.7143 23.3466 25.2643 21.7181 25.125 20.2823C25.3072 21.5895 25.8214 23.1538 27.5143 24.1824Z" fill="url(#paint19_linear_969_3637)"/>
<path opacity="0.75" d="M35.9791 17.4321C35.4755 15.7286 32.9148 15.9429 30.729 16.0929C27.4826 16.3286 25.1255 17.4857 25.029 19.2107C25.029 19.2 25.029 19.1786 25.029 19.1678C24.9541 17.3464 27.3648 16.1036 30.729 15.8571C32.9148 15.6964 35.4755 15.4929 35.9791 17.1965C36.1398 17.7536 36.2148 18.3964 36.2041 19.0822C36.2041 18.4822 36.129 17.925 35.9791 17.4321Z" fill="black"/>
<path d="M38.9356 15.8789C38.925 16.0182 38.9142 16.1789 38.8928 16.3396H37.1893C36.9321 16.3396 36.7285 16.1361 36.7285 15.8789H38.9356Z" fill="url(#paint20_linear_969_3637)"/>
<path opacity="0.5" d="M30.7388 15.8679C32.9245 15.7072 35.4852 15.5036 35.9888 17.2072C36.4924 18.9108 36.1602 21.4822 34.9924 23.4C33.8245 25.3179 29.196 25.2108 27.5245 24.1929C25.2959 22.8429 25.1031 20.5607 25.0388 19.1786C24.9638 17.3464 27.3745 16.1036 30.7388 15.8679Z" fill="url(#paint21_radial_969_3637)"/>
<path opacity="0.5" d="M14.2293 16.2537C12.1292 16.1037 9.67566 15.9001 9.19354 17.5394C8.71136 19.1787 9.03283 21.643 10.1578 23.4859C11.2828 25.3287 15.7185 25.2216 17.3257 24.2466C19.4578 22.9502 19.6507 20.7537 19.7042 19.4359C19.7685 17.6787 17.4436 16.4895 14.2293 16.2537Z" fill="url(#paint22_radial_969_3637)"/>
<path d="M21.0741 17.4214L20.7206 16.6178C19.8206 16.2106 18.8134 15.5999 17.1741 15.1071C15.2349 14.5178 11.0349 14.5285 8.47413 14.8178C6.60983 15.0321 6.05273 15.2463 6.05273 15.2463C6.05273 15.4285 6.05273 15.6428 6.06342 15.8785C10.0491 15.5356 14.8706 14.7428 20.5491 17.3571C20.6992 17.4321 20.892 17.4535 21.0849 17.4428C21.0849 17.4321 21.0741 17.4214 21.0741 17.4214Z" fill="url(#paint23_radial_969_3637)"/>
<path d="M23.9688 17.4214L24.3223 16.6178C25.2223 16.2106 26.2295 15.5999 27.8688 15.1071C29.8081 14.5178 34.008 14.5285 36.5687 14.8178C38.433 15.0321 38.9902 15.2463 38.9902 15.2463C39.0009 15.4285 39.0116 15.6321 39.0009 15.8678C35.0152 15.525 30.1938 14.7321 24.5152 17.3464C24.3652 17.4214 24.1723 17.4428 23.9795 17.4321C23.9688 17.4321 23.9688 17.4214 23.9688 17.4214Z" fill="url(#paint24_radial_969_3637)"/>
<defs>
<radialGradient id="paint0_radial_969_3637" cx="0" cy="0" r="1" gradientUnits="userSpaceOnUse" gradientTransform="translate(19.1274 15.5524) scale(20.6807)">
<stop stop-color="#FFE030"/>
<stop offset="1" stop-color="#FFB92E"/>
</radialGradient>
<radialGradient id="paint1_radial_969_3637" cx="0" cy="0" r="1" gradientUnits="userSpaceOnUse" gradientTransform="translate(19.1274 15.5524) scale(16.2704)">
<stop stop-color="#FFEA5F"/>
<stop offset="1" stop-color="#FFBC47" stop-opacity="0"/>
</radialGradient>
<linearGradient id="paint2_linear_969_3637" x1="15.1144" y1="14.7667" x2="15.1144" y2="12.9603" gradientUnits="userSpaceOnUse">
<stop offset="0.00132565" stop-color="#3C2200"/>
<stop offset="1" stop-color="#7A4400"/>
</linearGradient>
<linearGradient id="paint3_linear_969_3637" x1="29.8864" y1="14.7667" x2="29.8864" y2="12.9603" gradientUnits="userSpaceOnUse">
<stop offset="0.00132565" stop-color="#3C2200"/>
<stop offset="1" stop-color="#7A4400"/>
</linearGradient>
<radialGradient id="paint4_radial_969_3637" cx="0" cy="0" r="1" gradientUnits="userSpaceOnUse" gradientTransform="translate(7.50731 19.0117) rotate(180) scale(17.3039)">
<stop stop-color="#7A4400" stop-opacity="0.5"/>
<stop offset="0.5833" stop-color="#894D00" stop-opacity="0.2069"/>
<stop offset="0.995" stop-color="#975500" stop-opacity="0"/>
</radialGradient>
<radialGradient id="paint5_radial_969_3637" cx="0" cy="0" r="1" gradientUnits="userSpaceOnUse" gradientTransform="translate(37.4929 19.0117) scale(17.3039)">
<stop stop-color="#7A4400" stop-opacity="0.5"/>
<stop offset="0.5833" stop-color="#894D00" stop-opacity="0.2069"/>
<stop offset="0.995" stop-color="#975500" stop-opacity="0"/>
</radialGradient>
<radialGradient id="paint6_radial_969_3637" cx="0" cy="0" r="1" gradientUnits="userSpaceOnUse" gradientTransform="translate(29.6659 20.1484) rotate(5.86798) scale(3.23109 1.55889)">
<stop offset="0.00132565" stop-color="#7A4400"/>
<stop offset="1" stop-color="#643800"/>
</radialGradient>
<linearGradient id="paint7_linear_969_3637" x1="29.9339" y1="17.5168" x2="29.7323" y2="19.5946" gradientUnits="userSpaceOnUse">
<stop offset="0.00132565" stop-color="#3C2200"/>
<stop offset="1" stop-color="#512D00"/>
</linearGradient>
<radialGradient id="paint8_radial_969_3637" cx="0" cy="0" r="1" gradientUnits="userSpaceOnUse" gradientTransform="translate(15.3575 20.1481) rotate(174.132) scale(3.23108 1.55889)">
<stop offset="0.00132565" stop-color="#7A4400"/>
<stop offset="1" stop-color="#643800"/>
</radialGradient>
<linearGradient id="paint9_linear_969_3637" x1="15.079" y1="17.518" x2="15.2805" y2="19.5958" gradientUnits="userSpaceOnUse">
<stop offset="0.00132565" stop-color="#3C2200"/>
<stop offset="1" stop-color="#512D00"/>
</linearGradient>
<linearGradient id="paint10_linear_969_3637" x1="22.5005" y1="29.5834" x2="22.5005" y2="32.1426" gradientUnits="userSpaceOnUse">
<stop offset="0.00132565" stop-color="#3C2200"/>
<stop offset="1" stop-color="#512D00"/>
</linearGradient>
<linearGradient id="paint11_linear_969_3637" x1="14.3307" y1="34.7533" x2="14.3307" y2="18.8953" gradientUnits="userSpaceOnUse">
<stop stop-color="#8800C7"/>
<stop offset="1" stop-color="#7000A3" stop-opacity="0"/>
</linearGradient>
<linearGradient id="paint12_linear_969_3637" x1="30.6226" y1="34.7533" x2="30.6226" y2="18.8953" gradientUnits="userSpaceOnUse">
<stop stop-color="#8800C7"/>
<stop offset="1" stop-color="#7000A3" stop-opacity="0"/>
</linearGradient>
<linearGradient id="paint13_linear_969_3637" x1="22.4779" y1="20.8159" x2="22.4779" y2="8.92615" gradientUnits="userSpaceOnUse">
<stop stop-color="#242424"/>
<stop offset="1" stop-color="#8EA5A8"/>
</linearGradient>
<linearGradient id="paint14_linear_969_3637" x1="8.34922" y1="10.177" x2="20.3611" y2="29.8329" gradientUnits="userSpaceOnUse">
<stop/>
<stop offset="1" stop-opacity="0.5"/>
</linearGradient>
<linearGradient id="paint15_linear_969_3637" x1="14.2801" y1="20.5288" x2="14.2801" y2="29.6162" gradientUnits="userSpaceOnUse">
<stop/>
<stop offset="1" stop-color="#8EA5A8"/>
</linearGradient>
<radialGradient id="paint16_radial_969_3637" cx="0" cy="0" r="1" gradientUnits="userSpaceOnUse" gradientTransform="translate(22.4559 17.7427) scale(2.0247 1.23731)">
<stop offset="0.0158651" stop-color="#8EA5A8" stop-opacity="0.25"/>
<stop offset="1" stop-color="#8EA5A8" stop-opacity="0"/>
</radialGradient>
<linearGradient id="paint17_linear_969_3637" x1="8.32278" y1="16.1035" x2="6.2201" y2="16.1035" gradientUnits="userSpaceOnUse">
<stop stop-color="white"/>
<stop offset="1" stop-color="#FFBF00"/>
</linearGradient>
<linearGradient id="paint18_linear_969_3637" x1="24.283" y1="9.64526" x2="37.8467" y2="30.3931" gradientUnits="userSpaceOnUse">
<stop/>
<stop offset="1" stop-opacity="0.5"/>
</linearGradient>
<linearGradient id="paint19_linear_969_3637" x1="30.673" y1="20.5288" x2="30.673" y2="29.6162" gradientUnits="userSpaceOnUse">
<stop/>
<stop offset="1" stop-color="#8EA5A8"/>
</linearGradient>
<linearGradient id="paint20_linear_969_3637" x1="36.631" y1="16.1035" x2="38.7338" y2="16.1035" gradientUnits="userSpaceOnUse">
<stop stop-color="white"/>
<stop offset="1" stop-color="#FFBF00"/>
</linearGradient>
<radialGradient id="paint21_radial_969_3637" cx="0" cy="0" r="1" gradientUnits="userSpaceOnUse" gradientTransform="translate(30.811 18.5312) rotate(180) scale(5.91767 2.06027)">
<stop stop-color="white" stop-opacity="0.24"/>
<stop offset="1" stop-color="white" stop-opacity="0"/>
</radialGradient>
<radialGradient id="paint22_radial_969_3637" cx="0" cy="0" r="1" gradientUnits="userSpaceOnUse" gradientTransform="translate(14.4965 18.8182) scale(5.67484 1.97556)">
<stop stop-color="white" stop-opacity="0.24"/>
<stop offset="1" stop-color="white" stop-opacity="0"/>
</radialGradient>
<radialGradient id="paint23_radial_969_3637" cx="0" cy="0" r="1" gradientUnits="userSpaceOnUse" gradientTransform="translate(12.3495 34.4507) scale(33.8245 20.1121)">
<stop offset="0.9647" stop-color="#8EA5A8" stop-opacity="0"/>
<stop offset="1" stop-color="#8EA5A8"/>
</radialGradient>
<radialGradient id="paint24_radial_969_3637" cx="0" cy="0" r="1" gradientUnits="userSpaceOnUse" gradientTransform="translate(32.6957 34.4508) rotate(180) scale(33.8245 20.112)">
<stop offset="0.9647" stop-color="#8EA5A8" stop-opacity="0"/>
<stop offset="1" stop-color="#8EA5A8"/>
</radialGradient>
</defs>
</svg>
