<svg width="45" height="45" viewBox="0 0 45 45" fill="none" xmlns="http://www.w3.org/2000/svg">
<path d="M22.5003 39.6429C31.968 39.6429 39.6431 31.9678 39.6431 22.5C39.6431 13.0323 31.968 5.35718 22.5003 5.35718C13.0326 5.35718 5.35742 13.0323 5.35742 22.5C5.35742 31.9678 13.0326 39.6429 22.5003 39.6429Z" fill="url(#paint0_radial_969_4152)"/>
<path opacity="0.5" d="M22.5003 39.6429C31.968 39.6429 39.6431 31.9678 39.6431 22.5C39.6431 13.0323 31.968 5.35718 22.5003 5.35718C13.0326 5.35718 5.35742 13.0323 5.35742 22.5C5.35742 31.9678 13.0326 39.6429 22.5003 39.6429Z" fill="url(#paint1_radial_969_4152)"/>
<path d="M26.4313 20.9892C26.3455 22.3607 27.0098 23.5285 27.9205 23.5821C28.8312 23.6357 29.6455 22.575 29.7312 21.2036C29.817 19.8321 29.1527 18.6643 28.242 18.6107C27.3313 18.5464 26.5169 19.6178 26.4313 20.9892Z" fill="url(#paint2_radial_969_4152)"/>
<path d="M28.1898 19.4464C27.4827 19.4036 26.8291 19.9821 26.4434 20.8714C26.5505 19.5214 27.3541 18.4928 28.2434 18.5464C29.1434 18.6 29.797 19.7357 29.7327 21.0857C29.4755 20.1536 28.897 19.4892 28.1898 19.4464Z" fill="url(#paint3_linear_969_4152)"/>
<path d="M15.2672 20.2713C15.1815 21.6428 15.8458 22.8106 16.7565 22.8642C17.6672 22.9178 18.4815 21.8571 18.5672 20.4857C18.6529 19.1142 17.9886 17.9464 17.0779 17.8928C16.1672 17.8392 15.3529 18.8999 15.2672 20.2713Z" fill="url(#paint4_radial_969_4152)"/>
<path d="M17.015 18.793C17.7222 18.8358 18.3008 19.4894 18.5686 20.4215C18.6329 19.0715 17.9793 17.9465 17.0793 17.8822C16.1793 17.818 15.3865 18.8573 15.2793 20.2073C15.6543 19.3179 16.3079 18.7394 17.015 18.793Z" fill="url(#paint5_linear_969_4152)"/>
<path d="M19.3822 14.4C18.7929 14.2072 18.2358 13.4893 16.9072 12.9536C15.2465 12.2786 14.1108 12.6214 12.9537 13.4465C12.8465 13.5214 12.7287 13.5964 12.6001 13.6821C12.3537 13.8428 12.2787 14.1964 12.4287 14.4857C12.5144 14.6679 12.9537 15.0107 13.4144 14.7322C14.8608 13.8536 15.7822 14.1107 16.8751 14.55C17.7429 14.9036 18.3108 15.75 19.4251 15.6643C19.8751 15.6322 20.0787 15.4072 20.1001 15.075C20.1323 14.6786 19.8108 14.5393 19.3822 14.4Z" fill="url(#paint6_linear_969_4152)"/>
<path d="M26.5291 30.1714C26.4541 30.1714 26.3898 30.15 26.3148 30.1286C26.3041 30.1178 24.6862 29.5393 22.7041 29.1107C20.1755 28.5643 18.2148 28.5107 17.0255 28.9607C16.6398 29.1107 16.2005 28.9071 16.0612 28.5214C15.9112 28.1357 16.1148 27.6964 16.5005 27.5571C19.9719 26.25 26.5505 28.6179 26.8291 28.7143C27.2148 28.8536 27.4184 29.2821 27.2791 29.6786C27.1612 29.9893 26.8505 30.1821 26.5291 30.1714Z" fill="#643800"/>
<path d="M27.3205 29.4428C27.3312 29.1214 27.1383 28.8214 26.8277 28.7143C26.5491 28.6179 19.9705 26.25 16.4991 27.5571C16.1348 27.6964 15.9419 28.0714 16.0383 28.4357C17.6455 27.4072 20.2169 27.0107 27.3205 29.4428Z" fill="url(#paint7_linear_969_4152)"/>
<path d="M22.5003 39.6429C31.968 39.6429 39.6431 31.9678 39.6431 22.5C39.6431 13.0323 31.968 5.35718 22.5003 5.35718C13.0326 5.35718 5.35742 13.0323 5.35742 22.5C5.35742 31.9678 13.0326 39.6429 22.5003 39.6429Z" fill="url(#paint8_linear_969_4152)"/>
<path d="M25.5333 16.7786C25.3297 16.0287 26.0154 15.3537 27.3976 14.9786C28.5761 14.6572 31.3297 14.6144 33.7297 16.4144C34.169 16.7465 33.7297 17.1108 33.3333 16.9287C31.994 16.2965 28.7368 15.9001 26.519 16.7572C25.619 17.1108 25.5333 16.7786 25.5333 16.7786Z" fill="url(#paint9_linear_969_4152)"/>
<path d="M22.5003 39.6429C31.968 39.6429 39.6431 31.9678 39.6431 22.5C39.6431 13.0323 31.968 5.35718 22.5003 5.35718C13.0326 5.35718 5.35742 13.0323 5.35742 22.5C5.35742 31.9678 13.0326 39.6429 22.5003 39.6429Z" fill="url(#paint10_radial_969_4152)"/>
<path d="M35.1526 26.8716C36.3098 27.5251 35.3133 29.7108 35.1419 30.9322C34.874 32.8501 36.5562 36.2144 35.6133 39.2572C34.6705 42.3001 33.4705 44.3037 28.1026 43.6501C22.7348 42.9965 22.3169 41.6251 22.5633 40.8751C22.7883 40.1787 23.3026 40.2965 23.3026 40.2965C23.3026 40.2965 22.2097 39.7608 22.349 38.6144C22.4883 37.4679 23.7204 37.5965 23.7204 37.5965C23.7204 37.5965 22.7133 37.2216 22.8633 35.9465C23.0133 34.6715 24.3954 34.8215 24.3954 34.8215C24.3954 34.8215 22.0383 33.4394 19.3276 31.993C17.4098 30.9751 17.5276 30.4073 17.8276 30.0001C18.1276 29.5929 19.349 28.9822 22.124 30.5251C24.8991 32.0679 28.874 33.2572 30.0955 33.2358C31.3169 33.2037 32.5705 32.593 32.5491 29.6787C32.5169 27.3216 34.2098 26.3358 35.1526 26.8716Z" fill="url(#paint11_linear_969_4152)"/>
<path d="M24.376 34.8321C24.376 34.8321 22.0188 33.4499 19.3081 32.0035C17.3902 30.9856 17.5081 30.4178 17.8081 30.0106C17.8616 29.9357 17.9581 29.8499 18.0866 29.7964C17.1438 31.4571 27.4295 34.7035 24.376 34.8321Z" fill="url(#paint12_linear_969_4152)"/>
<path d="M30.076 33.2358C31.2974 33.2037 32.551 32.593 32.5296 29.6786C32.5082 27.3108 34.2118 26.3358 35.1439 26.8608C35.2189 26.9037 35.2831 26.9465 35.3368 27.0001C33.901 26.9465 33.0974 28.2537 33.0653 29.9679C33.0331 31.6608 32.6153 33.8144 29.6367 33.2143C29.8082 33.2358 29.9582 33.2465 30.076 33.2358Z" fill="url(#paint13_radial_969_4152)"/>
<path d="M22.329 38.7108C24.0862 39.2573 25.6397 40.5001 27.8683 40.8001C29.8398 41.068 33.4398 40.618 35.7755 38.5715C35.7326 38.7965 35.679 39.0215 35.6148 39.2573C34.6719 42.3001 33.4719 44.3037 28.1041 43.6501C22.7362 42.9965 22.3183 41.6251 22.5647 40.8751C22.7897 40.1787 23.304 40.2965 23.304 40.2965C23.304 40.2965 22.2647 39.7823 22.329 38.7108Z" fill="url(#paint14_linear_969_4152)"/>
<path d="M17.7852 30.0536C17.7959 30.0429 17.8066 30.0321 17.8066 30.0215C18.1066 29.6143 19.328 29.0036 22.103 30.5464C24.878 32.0893 28.853 33.2786 30.0744 33.2571C31.2959 33.225 32.5494 32.6143 32.528 29.7C32.528 28.9714 32.678 28.3822 32.9244 27.9214C33.5459 27.8571 34.028 28.2 34.0816 29.5286C34.2316 33.0643 34.7459 36.5679 31.5638 36.4071C25.7566 36.1071 23.5923 31.5536 17.7852 30.0536Z" fill="url(#paint15_radial_969_4152)"/>
<path d="M23.7001 37.5965C23.7001 37.5965 24.2358 37.8108 24.7501 37.8965C24.418 37.8751 23.6894 37.9608 23.2394 38.0251C23.0894 38.0465 22.9608 38.1322 22.8858 38.2608C22.318 39.2787 23.2823 40.2965 23.2823 40.2965C23.2823 40.2965 22.1894 39.7608 22.3287 38.6144C22.4679 37.4787 23.7001 37.5965 23.7001 37.5965Z" fill="url(#paint16_linear_969_4152)"/>
<path d="M22.553 40.8751C22.7351 40.3072 23.1208 40.2858 23.2494 40.2858L23.2923 40.2965C23.2923 40.2965 23.7637 40.3715 24.278 40.2965C23.8816 40.3929 23.3994 40.5536 23.1744 40.6715C22.8315 41.6143 24.128 42.4608 27.5887 42.9858C33.3101 43.8643 34.328 40.9715 34.9494 39.0001C35.8601 36.1501 34.0815 33.4072 34.628 30.7501C34.8637 29.6036 35.3566 27.825 35.2387 26.925C36.2566 27.6429 35.3244 29.7429 35.1422 30.9215C34.853 32.7536 36.5565 36.2037 35.6137 39.2465C34.6708 42.2893 33.4708 44.2929 28.103 43.6393C22.7244 42.9965 22.3066 41.6251 22.553 40.8751Z" fill="url(#paint17_linear_969_4152)"/>
<path d="M24.289 40.2965C24.2783 40.2965 24.2783 40.2965 24.2676 40.2965C24.2997 40.2858 24.3426 40.2751 24.3747 40.2644L24.289 40.2965Z" fill="url(#paint18_linear_969_4152)"/>
<path d="M23.9353 34.8536C23.9674 34.8429 24.0103 34.8429 24.0424 34.8429C24.0531 34.8429 24.0639 34.8429 24.0853 34.8429C24.1067 34.8429 24.1281 34.8429 24.1496 34.8429C24.1603 34.8429 24.171 34.8429 24.1817 34.8429C24.2031 34.8429 24.2246 34.8429 24.246 34.8429C24.2567 34.8429 24.2674 34.8429 24.2782 34.8429C24.2995 34.8429 24.3103 34.8429 24.321 34.8429C24.3317 34.8429 24.3317 34.8429 24.3424 34.8429C24.3531 34.8429 24.3638 34.8429 24.3638 34.8429H24.3746C24.3853 34.8429 24.3853 34.8429 24.3853 34.8429C24.3853 34.8429 24.2889 34.7894 24.1067 34.6822C24.3317 34.4143 24.4496 34.1572 24.4496 34.1572L25.8746 35.0679C25.3389 34.8215 24.2674 35.0144 23.7639 35.1322C23.0996 35.775 23.2496 37.2429 23.7103 37.6072C23.7103 37.6072 22.7031 37.2322 22.8531 35.9572C22.9389 35.1536 23.5174 34.9179 23.9353 34.8536Z" fill="url(#paint19_linear_969_4152)"/>
<defs>
<radialGradient id="paint0_radial_969_4152" cx="0" cy="0" r="1" gradientUnits="userSpaceOnUse" gradientTransform="translate(25.8732 15.5526) rotate(180) scale(20.6806)">
<stop stop-color="#FFE030"/>
<stop offset="1" stop-color="#FFB92E"/>
</radialGradient>
<radialGradient id="paint1_radial_969_4152" cx="0" cy="0" r="1" gradientUnits="userSpaceOnUse" gradientTransform="translate(25.8732 15.5526) rotate(180) scale(24.5454)">
<stop stop-color="#FFEA5F"/>
<stop offset="1" stop-color="#FFBC47" stop-opacity="0"/>
</radialGradient>
<radialGradient id="paint2_radial_969_4152" cx="0" cy="0" r="1" gradientUnits="userSpaceOnUse" gradientTransform="translate(28.5793 21.1817) rotate(109.828) scale(2.42202 1.567)">
<stop offset="0.00132565" stop-color="#7A4400"/>
<stop offset="1" stop-color="#643800"/>
</radialGradient>
<linearGradient id="paint3_linear_969_4152" x1="28.2664" y1="18.5896" x2="28.1169" y2="20.9112" gradientUnits="userSpaceOnUse">
<stop offset="0.00132565" stop-color="#3C2200"/>
<stop offset="1" stop-color="#512D00"/>
</linearGradient>
<radialGradient id="paint4_radial_969_4152" cx="0" cy="0" r="1" gradientUnits="userSpaceOnUse" gradientTransform="translate(17.4089 20.4623) rotate(109.828) scale(2.42202 1.567)">
<stop offset="0.00132565" stop-color="#7A4400"/>
<stop offset="1" stop-color="#643800"/>
</radialGradient>
<linearGradient id="paint5_linear_969_4152" x1="17.0844" y1="17.9316" x2="16.9349" y2="20.2532" gradientUnits="userSpaceOnUse">
<stop offset="0.00132565" stop-color="#3C2200"/>
<stop offset="1" stop-color="#512D00"/>
</linearGradient>
<linearGradient id="paint6_linear_969_4152" x1="16.1762" y1="16.8892" x2="16.2834" y2="12.6034" gradientUnits="userSpaceOnUse">
<stop offset="0.00132565" stop-color="#3C2200"/>
<stop offset="1" stop-color="#7A4400"/>
</linearGradient>
<linearGradient id="paint7_linear_969_4152" x1="21.604" y1="30.7134" x2="21.8426" y2="23.1428" gradientUnits="userSpaceOnUse">
<stop offset="0.00132565" stop-color="#3C2200"/>
<stop offset="1" stop-color="#512D00"/>
</linearGradient>
<linearGradient id="paint8_linear_969_4152" x1="22.3765" y1="20.0965" x2="23.2872" y2="37.7751" gradientUnits="userSpaceOnUse">
<stop offset="0.4938" stop-color="#FFBC47" stop-opacity="0"/>
<stop offset="1" stop-color="#FF8900"/>
</linearGradient>
<linearGradient id="paint9_linear_969_4152" x1="29.7871" y1="16.9621" x2="29.2597" y2="15.0081" gradientUnits="userSpaceOnUse">
<stop offset="0.00132565" stop-color="#3C2200"/>
<stop offset="1" stop-color="#7A4400"/>
</linearGradient>
<radialGradient id="paint10_radial_969_4152" cx="0" cy="0" r="1" gradientUnits="userSpaceOnUse" gradientTransform="translate(23.6365 36.0169) scale(6.63322)">
<stop offset="0.1836" stop-color="#FF8000" stop-opacity="0.75"/>
<stop offset="0.995" stop-color="#FF8000" stop-opacity="0"/>
</radialGradient>
<linearGradient id="paint11_linear_969_4152" x1="26.5126" y1="41.9572" x2="26.8628" y2="31.1981" gradientUnits="userSpaceOnUse">
<stop offset="0.00132565" stop-color="#FFCB4B"/>
<stop offset="1" stop-color="#FFD748"/>
</linearGradient>
<linearGradient id="paint12_linear_969_4152" x1="22.063" y1="29.5579" x2="19.9201" y2="37.8079" gradientUnits="userSpaceOnUse">
<stop stop-color="#FFBC47" stop-opacity="0"/>
<stop offset="1" stop-color="#FFA754"/>
</linearGradient>
<radialGradient id="paint13_radial_969_4152" cx="0" cy="0" r="1" gradientUnits="userSpaceOnUse" gradientTransform="translate(32.5135 30.0552) rotate(-173.079) scale(3.0422)">
<stop stop-color="#FFE85B"/>
<stop offset="1" stop-color="#FFE85B" stop-opacity="0"/>
</radialGradient>
<linearGradient id="paint14_linear_969_4152" x1="28.621" y1="37.3416" x2="30.0682" y2="44.6147" gradientUnits="userSpaceOnUse">
<stop offset="0.4938" stop-color="#FFBC47" stop-opacity="0"/>
<stop offset="1" stop-color="#FF8900"/>
</linearGradient>
<radialGradient id="paint15_radial_969_4152" cx="0" cy="0" r="1" gradientUnits="userSpaceOnUse" gradientTransform="translate(30.1436 34.0185) rotate(-174.35) scale(5.41076 1.97494)">
<stop stop-color="#FFE85B"/>
<stop offset="1" stop-color="#FFE85B" stop-opacity="0"/>
</radialGradient>
<linearGradient id="paint16_linear_969_4152" x1="24.0053" y1="37.1113" x2="22.2106" y2="41.2899" gradientUnits="userSpaceOnUse">
<stop stop-color="#FFBC47" stop-opacity="0"/>
<stop offset="1" stop-color="#FFA754"/>
</linearGradient>
<linearGradient id="paint17_linear_969_4152" x1="28.0857" y1="31.855" x2="33.1214" y2="45.1408" gradientUnits="userSpaceOnUse">
<stop stop-color="#FFBC47" stop-opacity="0"/>
<stop offset="1" stop-color="#FFA754"/>
</linearGradient>
<linearGradient id="paint18_linear_969_4152" x1="20.2901" y1="37.5817" x2="31.0911" y2="44.8604" gradientUnits="userSpaceOnUse">
<stop stop-color="#FFBC47" stop-opacity="0"/>
<stop offset="1" stop-color="#FFA754"/>
</linearGradient>
<linearGradient id="paint19_linear_969_4152" x1="24.0445" y1="34.1881" x2="24.7508" y2="37.7381" gradientUnits="userSpaceOnUse">
<stop stop-color="#FFBC47" stop-opacity="0"/>
<stop offset="1" stop-color="#FFA754"/>
</linearGradient>
</defs>
</svg>
