<?xml version="1.0" encoding="iso-8859-1"?>
<!-- Generator: Adobe Illustrator 19.0.0, SVG Export Plug-In . SVG Version: 6.00 Build 0)  -->
<svg version="1.1" id="Capa_1" xmlns="http://www.w3.org/2000/svg" xmlns:xlink="http://www.w3.org/1999/xlink" x="0px" y="0px"
	 viewBox="0 0 496 496" style="enable-background:new 0 0 496 496;" xml:space="preserve">
<path style="fill:#308BCB;" d="M496,369.6c0,27.2-21.6,48.8-48,48.8H48c-26.4,0-48-21.6-48-48.8V126.4c0-27.2,21.6-48.8,48-48.8h400
	c26.4,0,48,21.6,48,48.8V369.6z"/>
<path style="fill:#1C7CB7;" d="M48,77.6h400c26.4,0,48,21.6,48,48.8v243.2c0,27.2-21.6,48.8-48,48.8"/>
<g>
	<path style="fill:#056DA0;" d="M48,77.6h400c26.4,0,48,21.6,48,48.8v88.8"/>
	<path style="fill:#056DA0;" d="M496,369.6c0,27.2-21.6,48.8-48,48.8H48c-26.4,0-48-21.6-48-48.8"/>
</g>
<path style="fill:#F5F8FC;" d="M296.8,168c-0.8-11.2-12-27.2-39.2-28.8c0,4,0,8.8,0,14.4c3.2,0,4.8,0.8,4.8,0.8
	c10.4,2.4,16.8,8,16.8,16c0,5.6-4.8,13.6-17.6,17.6c-2.4,0.8-4.8,1.6-8,1.6c-1.6,0-2.4,0.8-4,0.8c-2.4,0.8-5.6,1.6-8,1.6h-0.8l0,0
	c-3.2,0.8-6.4,1.6-8.8,3.2c-13.6,6.4-19.2,17.6-16,31.2c2.4,8.8,7.2,13.6,17.6,17.6c3.2,0.8,6.4,2.4,9.6,3.2l0,0
	c0,10.4,0,19.2,0,19.2v1.6l1.6-0.8c0,0,1.6-0.8,4-1.6c1.6-0.8,3.2-0.8,4-1.6h0.8h0.8v-0.8c0,0,0-2.4,0-12.8c5.6,2.4,8.8,4,9.6,7.2
	c0,4-8,7.2-16,9.6c-14.4,4.8-16,12-15.2,18.4c0.8,5.6,5.6,8.8,11.2,12c0,0.8,0,1.6,0,2.4s0,1.6,0,2.4c0,13.6,0.8,32,0.8,34.4
	c0,4,0.8,6.4,1.6,8c0.8,0.8,0.8,1.6,1.6,1.6s3.2,0,3.2-8.8c0-1.6,0.8-20.8,0.8-36c6.4,2.4,12,6.4,14.4,15.2l1.6,6.4V316
	c0-16-8.8-20.8-16-24.8c0-6.4,0-10.4,0-11.2v0l-1.6,0.8c-3.2,0.8-7.2,2.4-8,4.8l0,0c0-3.2,1.6-4,8-6.4c1.6-0.8,4-1.6,5.6-2.4
	c2.4-0.8,4.8-1.6,8.8-3.2c7.2-2.4,11.2-7.2,12-13.6s-2.4-12-8.8-16.8c-4.8-4-12-6.4-16-8l0,0c0-3.2,0-5.6,0-9.6c0-8.8,0-16.8,0-16.8
	v-1.6h-1.6c-2.4,0-8.8,2.4-10.4,2.4h-0.8v0.8c0,0.8,0,8.8,0,19.2l0,0c-4-1.6-6.4-2.4-8-4.8c-2.4-2.4-3.2-5.6-2.4-8.8
	c0.8-3.2,4-5.6,8.8-7.2c4.8-1.6,9.6-2.4,14.4-4c7.2-1.6,15.2-4,21.6-7.2C291.2,192,297.6,182.4,296.8,168z"/>
<g>
	<path style="fill:#C3D2E2;" d="M257.6,140c0,4,0,8.8,0,14.4c3.2,0,4.8,0.8,4.8,0.8c10.4,2.4,16.8,8,16.8,16
		c0,5.6-4.8,13.6-17.6,17.6c-2.4,0.8-4.8,1.6-8,1.6c-1.6,0-2.4,0.8-4,0.8c-2.4,0.8-5.6,1.6-8,1.6h-0.8l0,0c-3.2,0.8-6.4,1.6-8.8,3.2
		c-10.4,4.8-16.8,13.6-16.8,23.2l40,33.6V252c5.6,2.4,8.8,4,9.6,7.2c0,0.8,0,0.8,0,1.6l11.2,9.6c2.4-2.4,4-5.6,4.8-8.8
		c0.8-6.4-2.4-12-8.8-16.8c-4.8-4-12-6.4-16-8l0,0c0-3.2,0-5.6,0-9.6c0-8.8,0-16.8,0-16.8v-1.6h-1.6c-2.4,0-8.8,2.4-10.4,2.4h-0.8
		v0.8c0,0.8,0,8.8,0,19.2l0,0c-4-1.6-6.4-2.4-8-4.8c-2.4-2.4-3.2-5.6-2.4-8.8c0.8-3.2,4-5.6,8.8-7.2c4.8-1.6,9.6-2.4,14.4-4
		c7.2-1.6,15.2-4,21.6-7.2c13.6-7.2,20-16.8,19.2-31.2C296,156.8,284.8,140.8,257.6,140z"/>
	<path style="fill:#C3D2E2;" d="M212,176c5.6-3.2,14.4-8.8,16.8-12c3.2-4,7.2-6.4,11.2-8c0-5.6,0-10.4,0-14.4
		c-6.4,1.6-10.4,3.2-12,4.8c-0.8,0-0.8,0.8-1.6,0.8s-1.6,0.8-3.2,0.8c-4,0.8-8,1.6-12.8,7.2c-0.8,1.6-4,4.8-5.6,7.2
		c-0.8,1.6-1.6,4-2.4,5.6c0,1.6-0.8,2.4-0.8,4c-2.4,3.2-1.6,5.6-1.6,5.6l0,0l0.8,0.8c0,0.8-0.8,1.6-1.6,2.4c-2.4,2.4-4.8,3.2-8,3.2
		c2.4,1.6,6.4-0.8,6.4-0.8s-0.8,2.4-1.6,5.6c2.4-4.8,4-7.2,5.6-8.8C202.4,179.2,205.6,179.2,212,176z M211.2,162.4l4-4h3.2l-0.8,1.6
		l-4.8,4.8h-2.4L211.2,162.4z"/>
</g>
<g>
	<path style="fill:#F5F8FC;" d="M192.8,184l2.4,2.4c0-0.8,0-1.6,0-1.6l-0.8-0.8C194.4,183.2,193.6,184,192.8,184z"/>
	<path style="fill:#F5F8FC;" d="M230.4,245.6h-0.8v2.4L230.4,245.6z"/>
</g>
<g>
	<path style="fill:#C3D2E2;" d="M275.2,175.2c-5.6-2.4-11.2-4-17.6-4.8c0,0.8,0,0.8,0,1.6c5.6,0.8,11.2,2.4,16.8,4.8
		C274.4,176,275.2,175.2,275.2,175.2z"/>
	<polygon style="fill:#C3D2E2;" points="315.2,205.6 316,205.6 314.4,202.4 313.6,202.4 314.4,203.2 	"/>
	<polygon style="fill:#C3D2E2;" points="316.8,212.8 317.6,214.4 316.8,215.2 317.6,217.6 318.4,218.4 318.4,215.2 317.6,214.4 
		317.6,211.2 316,207.2 316,208 316,210.4 	"/>
</g>
<g>
	<path style="fill:#F5F8FC;" d="M232,245.6c-0.8,0-0.8,0-1.6-0.8v1.6L232,245.6z"/>
	<path style="fill:#F5F8FC;" d="M256,305.6L256,305.6L256,305.6z"/>
</g>
<g>
	<polygon style="fill:#C3D2E2;" points="268,212.8 267.2,212.8 266.4,212.8 264.8,216 266.4,216 266.4,214.4 268,212.8 268.8,212 
		268,211.2 	"/>
	<polygon style="fill:#C3D2E2;" points="257.6,212.8 257.6,216 259.2,215.2 260.8,211.2 258.4,211.2 	"/>
	<polygon style="fill:#C3D2E2;" points="270.4,210.4 272,210.4 272,210.4 270.4,209.6 270.4,208.8 268.8,208.8 269.6,210.4 
		269.6,211.2 	"/>
	<polygon style="fill:#C3D2E2;" points="310.4,197.6 312,200.8 312.8,200.8 311.2,197.6 	"/>
</g>
<g>
	<path style="fill:#F5F8FC;" d="M265.6,317.6L265.6,317.6L265.6,317.6L265.6,317.6z"/>
	<polygon style="fill:#F5F8FC;" points="156.8,291.2 157.6,292.8 158.4,294.4 159.2,293.6 158.4,292.8 157.6,292 157.6,290.4 
		156.8,289.6 156,289.6 	"/>
	<polygon style="fill:#F5F8FC;" points="197.6,242.4 198.4,244.8 198.4,245.6 198.4,247.2 197.6,248.8 197.6,248.8 198.4,252 
		198.4,252 198.4,249.6 199.2,244.8 198.4,242.4 	"/>
</g>
<g>
	<polygon style="fill:#C3D2E2;" points="292,212.8 292.8,211.2 290.4,212 289.6,212.8 290.4,212.8 	"/>
	<polygon style="fill:#C3D2E2;" points="296,210.4 296.8,210.4 297.6,209.6 298.4,208 297.6,208 296.8,208 296.8,205.6 296,206.4 
		296.8,208 296,208.8 295.2,208.8 294.4,209.6 294.4,211.2 	"/>
</g>
<g>
	<polygon style="fill:#F5F8FC;" points="198.4,252.8 198.4,252.8 197.6,253.6 196.8,252 196.8,252 196.8,253.6 197.6,254.4 
		196.8,255.2 198.4,256 198.4,257.6 199.2,256.8 199.2,255.2 198.4,254.4 	"/>
	<path style="fill:#F5F8FC;" d="M144.8,193.6c-6.4,14.4-8.8,28.8-8.8,44s3.2,30.4,8.8,44s13.6,25.6,24,36s22.4,18.4,36,24
		s28.8,8.8,44,8.8s30.4-3.2,44-8.8c13.6-5.6,25.6-13.6,36-24s18.4-22.4,24-36s8.8-28.8,8.8-44s-3.2-30.4-8.8-44
		c-5.6-13.6-13.6-25.6-24-36s-22.4-18.4-36-24c-10.4-4.8-21.6-7.2-33.6-8c0,0.8,0,0.8,0,1.6c11.2,0.8,22.4,4,32.8,8
		c12.8,5.6,24.8,13.6,35.2,24L314.4,172v-0.8h-0.8l-1.6-0.8l-1.6-0.8l2.4-0.8l-0.8,0h-1.6l0.8-0.8l-1.6-3.2l-3.2-4.8l-3.2-2.4
		l-1.6-0.8H300V156l-3.2-1.6l-1.6,0.8c2.4,4,3.2,8,4,12c0,3.2,0,5.6,0,8l0.8-0.8l3.2,6.4h-2.4l1.6,1.6l-4,4L296,184v-1.6
		c-0.8,1.6-0.8,2.4-1.6,4v0.8h2.4v0.8l-1.6,1.6c-0.8-0.8-1.6-1.6-2.4-2.4c0,0.8-0.8,0.8-0.8,1.6c0.8,0.8,1.6,1.6,1.6,1.6l-14.4,14.4
		c-0.8-0.8-2.4-2.4-4-3.2c-0.8,0-0.8,0.8-1.6,0.8c1.6,0.8,3.2,2.4,4,4l0,1.6l0,0v-0.8l-0.8,0.8h-1.6v-1.6l-1.6,0.8l-1.6,1.6l0.8,0.8
		l1.6-0.8l1.6,0.8l0,0h0.8l-4,4l-4.8,0.8l-0.8,1.6l-0.8,0.8v0.8h0.8l0.8,0.8v0.8l0,0h-0.8l-2.4,0.8c-0.8-0.8-0.8-0.8-1.6-0.8l0,0
		h-0.8c-0.8-0.8-1.6-0.8-3.2-1.6v5.6c0,1.6,0,4,0,5.6h0.8l0.8,0.8l-1.6,1.6c0,0.8,0,1.6,0,2.4l2.4-2.4l-0.8,1.6h0.8l0.8,2.4l1.6,1.6
		l-3.2-1.6v0.8c4,1.6,9.6,4,14.4,7.2c7.2,4.8,10.4,12,9.6,19.2c-0.8,4.8-3.2,8.8-8,12v0.8L276,276h-1.6l-0.8,0.8l-3.2,1.6h-3.2
		l-0.8,1.6l0.8,0.8l0,0h-0.8H264l-0.8-0.8h-2.4l0,0c-0.8,0-0.8,0-1.6,0.8v1.6c0,0.8,0,4,0,9.6c7.2,4,16.8,9.6,16,26.4
		c0,0,0,3.2-0.8,4.8l0,0l3.2,0.8c-6.4,1.6-12.8,3.2-19.2,4c0,0.8,0,0.8,0,1.6c7.2-0.8,13.6-1.6,20.8-4l1.6,0.8l1.6,1.6l1.6-0.8
		l3.2-0.8l0.8-0.8l3.2-1.6l3.2-2.4l3.2-3.2v-0.8c6.4-4,12-8,17.6-13.6l14.4,14.4c-10.4,9.6-21.6,17.6-34.4,23.2
		c-13.6,5.6-28,8.8-43.2,8.8s-29.6-3.2-43.2-8.8C196,336,184,328,174.4,318.4l14.4-14.4c8,8,17.6,14.4,28,18.4
		c9.6,4,19.2,6.4,29.6,7.2c0-0.8,0-0.8,0-1.6c-20.8-1.6-40.8-10.4-56-24.8l3.2-3.2l2.4,2.4l5.6-0.8l2.4-2.4h3.2h3.2l1.6-0.8v-1.6
		l-1.6-1.6l-1.6-4l-1.6-0.8l-6.4-2.4l0.8-0.8c11.2,10.4,25.6,17.6,40.8,19.2c0-0.8,0-0.8,0-1.6c-15.2-1.6-28.8-8-39.2-18.4
		l14.4-14.4c4,4,8,6.4,13.6,8.8c0-0.8,0-0.8,0.8-1.6c-4.8-2.4-8.8-4.8-12.8-8l15.2-15.2c2.4,2.4,4.8,4,8,4.8v-1.6
		c-2.4-0.8-4.8-2.4-7.2-4l0.8-0.8h0.8l0.8-0.8h1.6l0.8-0.8h1.6v-2.4l-4.8-1.6l0,0h-1.6l-1.6,1.6l-0.8,2.4l0,0
		c-1.6-2.4-3.2-4.8-4-7.2v-0.8c-1.6-0.8-2.4-1.6-4-1.6H224l-0.8-0.8l-1.6,0.8l-0.8-0.8l0.8-0.8h1.6c-4.8-3.2-7.2-8-8.8-13.6
		c-0.8-3.2-0.8-7.2-0.8-10.4l-2.4,0.8h-1.6c1.6-2.4,3.2-5.6,4.8-8c0.8-1.6,1.6-4,2.4-5.6l0,0l-14.4-14.4
		c10.4-10.4,23.2-16.8,37.6-18.4c0-0.8,0-0.8,0-1.6c-14.4,2.4-28,8.8-38.4,19.2l-3.2-3.2l0,0c0,0.8-0.8,0.8-0.8,1.6l3.2,3.2
		c-12,12.8-19.2,29.6-19.2,47.2h-20.8c0-23.2,8.8-45.6,25.6-61.6l5.6,5.6c0,0,0.8,0,1.6,0h0.8l-7.2-7.2c4.8-4.8,9.6-8.8,15.2-12
		c0-0.8,0.8-1.6,0.8-2.4c-6.4,4-12,8-16.8,13.6L172,160c10.4-10.4,21.6-18.4,35.2-24c10.4-4.8,21.6-7.2,32.8-8v-1.6
		c-11.2,0.8-22.4,4-32.8,8c-13.6,5.6-25.6,13.6-36,24C158.4,168,150.4,180.8,144.8,193.6z M314.4,174.4L328,160
		c9.6,10.4,17.6,21.6,23.2,34.4c5.6,13.6,8.8,28,8.8,43.2h-20.8c0-12-2.4-24-7.2-35.2c-0.8-0.8-0.8-2.4-1.6-3.2l0.8-0.8l0.8,0.8
		l0.8-1.6l-7.2-11.2l-1.6-0.8L314.4,174.4L314.4,174.4z M297.6,190.4l1.6,1.6l0.8-3.2h-1.6l0,0l4.8-4.8l3.2,3.2h3.2l0.8,1.6v2.4
		l5.6,3.2h1.6l4,4l0.8,2.4l2.4,2.4h3.2l1.6-3.2c4.8,11.2,8,24,8,36.8h-20.8c0-4,0-8-0.8-12l0.8-1.6h0.8l0.8-4.8h-0.8v-0.8h-2.4
		l-0.8-0.8l-0.8,0.8l1.6,0.8h-0.8v0.8c-0.8-2.4-0.8-4-1.6-5.6l0.8-1.6v-2.4h-0.8l-0.8-2.4l0.8-0.8l-0.8,0.8h-1.6l-0.8-0.8
		c-0.8-0.8-0.8-1.6-1.6-2.4h2.4l-0.8-0.8l1.6-0.8v-0.8h-0.8l-1.6,0.8l-0.8-0.8l0.8-1.6H308l-0.8,1.6l-1.6-0.8
		c-0.8-1.6-2.4-3.2-3.2-4.8v-0.8l0,0C300.8,193.6,299.2,192,297.6,190.4L297.6,190.4z M303.2,231.2l3.2-1.6h3.2l0.8-1.6l0.8-0.8
		l1.6-2.4v-1.6c0,0.8,0,0.8,0,1.6l-0.8,1.6v0.8l-0.8,1.6v0.8l-1.6,2.4v1.6h0.8l1.6-2.4v-1.6h0.8l0,0c0.8,3.2,0.8,6.4,0.8,9.6h-16
		h-0.8v-1.6l1.6-0.8l0.8-1.6h2.4v-0.8L303.2,231.2z M307.2,202.4L307.2,202.4L307.2,202.4L307.2,202.4z M296.8,192
		c1.6,1.6,3.2,3.2,4.8,4.8l-0.8,0.8H300l1.6,0.8l0.8-0.8c0.8,0.8,1.6,1.6,1.6,2.4h-0.8l0,0h0.8l2.4,3.2h0.8c0,0.8,0.8,0.8,0.8,1.6
		v1.6l-1.6,1.6l-0.8-0.8H304l0.8,1.6l-0.8,0.8l2.4,0.8l0.8,1.6l1.6,0.8v0.8l1.6,0.8v2.4h0.8c0.8,1.6,0.8,3.2,1.6,4.8l0,0l-0.8,1.6
		l-1.6,0.8l-0.8,3.2l-2.4,1.6l-0.8-1.6l0.8-4l1.6-0.8l-4.8-4l-2.4,0.8l-2.4,4.8l-2.4-0.8l-0.8-1.6l0.8-0.8l0.8,0.8h0.8V220l-1.6-0.8
		v0.8H296v-1.6l-2.4-2.4l-3.2-1.6H288l0,0c-1.6-2.4-4-5.6-5.6-8L296.8,192z M280,208.8l0.8-0.8c0.8,0.8,0.8,0.8,1.6,1.6l-1.6,0.8
		H280l-0.8-0.8L280,208.8L280,208.8z M280,218.4l1.6-0.8L280,216l0.8-1.6v-0.8l1.6-0.8l-1.6-2.4l-2.4,1.6v1.6l-1.6-0.8h-1.6
		l-0.8-0.8l0,0l3.2-3.2l0,0h3.2l0.8-1.6c1.6,1.6,2.4,3.2,4,5.6l0,0L284,216l-2.4-1.6h-0.8l0.8,1.6l0.8,0.8l-0.8,1.6v-0.8L280,218.4z
		 M292.8,277.6l-3.2,2.4h-0.8v-0.8h-1.6l-2.4,0.8h-2.4h-0.8l-1.6-1.6h-0.8l-0.8-0.8h-1.6l-0.8-0.8h-0.8l0,0h0.8V276l2.4,0.8l0.8,0.8
		l2.4,0.8v0.8h2.4l3.2,0.8l0.8,1.6h1.6l1.6-1.6l0.8-2.4l1.6-4v-0.8l0.8-0.8l0.8-2.4l-0.8-0.8l0.8-0.8l-0.8-0.8v-2.4l-1.6,0.8
		l-0.8,1.6h-1.6v1.6l-1.6,1.6l-0.8-0.8l-0.8,0.8h-2.4l0,0c0.8-0.8,0.8-0.8,1.6-1.6h0.8h0.8l0.8-1.6v-0.8h0.8l2.4-3.2l1.6-4l4.8-2.4
		v-1.6l-0.8-0.8v-0.8l1.6,0.8l3.2,0.8l2.4-0.8l4-0.8l-0.8-3.2l-1.6-1.6H304l-3.2-7.2H300l-0.8-1.6l0.8-0.8l0,0h15.2
		c0,16.8-7.2,33.6-19.2,45.6l-0.8-0.8v-0.8l0.8-2.4v-4l-0.8-2.4l-0.8,0.8L292.8,277.6L292.8,277.6z M295.2,313.6L295.2,313.6
		l0.8-1.6l-0.8-1.6l2.4-2.4v-1.6l-1.6-0.8l1.6-4l2.4-4l-2.4-3.2h-0.8h-1.6l-0.8-2.4h-0.8l0.8-2.4V288c0.8-0.8,0.8-0.8,1.6-1.6
		l8.8,8.8l0,0l0,0l5.6,5.6C306.4,306.4,300.8,310.4,295.2,313.6z M310.4,299.2L310.4,299.2l0.8-1.6l-0.8-4.8v-1.6l-0.8-1.6l-0.8-0.8
		h0.8l-0.8-0.8h-1.6v1.6l-0.8,0.8l0.8,1.6l-0.8,2.4l-0.8,0.8v0.8l-8-8c12-12.8,19.2-28.8,20-46.4h20.8c0,23.2-9.6,44.8-25.6,61.6
		L310.4,299.2z M312.8,301.6c8-8,14.4-17.6,19.2-28.8c4.8-10.4,7.2-22.4,7.2-33.6H360c0,14.4-3.2,28.8-8.8,41.6
		c-5.6,12.8-13.6,24.8-24,35.2L312.8,301.6z M185.6,300.8c-1.6-1.6-3.2-3.2-4.8-4.8l1.6,0.8l1.6-0.8l4,2.4h0.8L185.6,300.8z
		 M188,251.2l-2.4,0.8l-0.8-0.8l-0.8-1.6l-0.8-0.8c-0.8-3.2-0.8-6.4-0.8-9.6h8.8v0.8l-1.6,2.4h-0.8l-1.6,4.8l1.6,2.4L188,251.2z
		 M194.4,280.8L194.4,280.8h0.8l0.8,0.8L194.4,280.8z M200,286.4l-0.8-1.6C199.2,284.8,200,285.6,200,286.4L200,286.4z M201.6,284.8
		c-1.6-1.6-2.4-2.4-4-4l0,0l0.8-2.4V276l-2.4-4v-4l-0.8-2.4l0.8-0.8l-2.4-4v-1.6l-1.6-2.4h-1.6h2.4L192,256l-1.6-3.2L188,252
		l0.8-1.6l-0.8-3.2l0.8-2.4h3.2l0.8-1.6V240h1.6h0.8l1.6,0.8V240h5.6c0,1.6,0,3.2,0,4l0,0h-1.6l-0.8,1.6h1.6l1.6-0.8
		c1.6,9.6,6.4,18.4,12.8,24.8L201.6,284.8z M195.2,236l0.8-4l3.2-1.6l4,0.8l0.8,1.6c0,1.6,0,3.2,0,4.8h-5.6v-0.8L195.2,236z
		 M211.2,247.2l2.4,0.8l1.6,1.6l0.8-0.8l2.4,1.6l0.8,0.8l-1.6-0.8v0.8l1.6,0.8l1.6,1.6v-0.8v-1.6l0.8-0.8l0.8-0.8l-1.6-1.6l1.6,0.8
		l0.8,1.6l0.8,2.4h1.6l-3.2,0.8l1.6,2.4h0.8v-0.8v-1.6h1.6l0.8-1.6l0.8-3.2h0.8l0.8-0.8c0.8,2.4,2.4,4,4,5.6l-15.2,15.2
		c-6.4-6.4-11.2-15.2-12-24.8h0.8l3.2,2.4L211.2,247.2z M208,220v-0.8l0,0V220L208,220z M200.8,192l14.4,14.4c-3.2,3.2-6.4,8-8,12
		h-0.8l0.8-0.8l-1.6,1.6L204,220v-0.8l-2.4,0.8v0.8l1.6-0.8h2.4l1.6-0.8v0.8l-2.4,1.6l-0.8-0.8l-3.2,3.2l-2.4-0.8l-1.6,2.4l-2.4,5.6
		l0.8,1.6l-3.2,2.4v2.4l0,0h-9.6C182.4,220.8,188.8,204,200.8,192z M180.8,239.2c0,3.2,0,6.4,0.8,9.6L180,248v1.6h-0.8V248l-1.6,0.8
		v1.6l-4,5.6h-0.8l-0.8,9.6l-2.4,1.6h-0.8l-1.6,0.8H164l0,0c-3.2-8.8-4.8-17.6-4.8-27.2h21.6V239.2z M162.4,266.4l-1.6,0.8l-4-2.4
		l-0.8,0.8l-0.8-0.8l-0.8,0.8l0.8,1.6h-2.4l-1.6-0.8v-1.6V264h-0.8v0.8v0.8h-0.8l-1.6,0.8l0.8,0.8h-1.6l-0.8,0.8h0.8h-0.8v1.6
		l0.8,0.8l0.8,0.8h-0.8l0.8,1.6h0.8v0.8l0.8,0.8v0.8l-2.4-1.6l0.8,2.4l-1.6-3.2v1.6l1.6,3.2l0.8,2.4l3.2,6.4v-1.6l-2.4-4.8v-2.4
		l1.6-2.4l4,4.8l0.8-0.8l-0.8-3.2l0.8,0.8l1.6,2.4l2.4,0.8l0.8,1.6h0.8l-2.4-1.6l0.8-0.8l0.8,2.4l1.6,2.4h1.6l4,6.4l2.4,0.8l0.8-2.4
		l0.8,0.8l3.2,4l4,0.8c2.4,2.4,4.8,5.6,7.2,8L172,316.8c-10.4-10.4-18.4-21.6-24-35.2s-8.8-27.2-8.8-41.6H160
		C158.4,248.8,160,257.6,162.4,266.4z M184,174.4c-8,8-14.4,17.6-18.4,28c-4.8,11.2-7.2,23.2-7.2,35.2h-20.8
		c0-15.2,3.2-29.6,8.8-43.2c5.6-12.8,12.8-24.8,23.2-34.4L184,174.4z"/>
</g>
<g>
	<path style="fill:#C3D2E2;" d="M204.8,133.6c-13.6,5.6-25.6,13.6-36,24c-4,4-7.2,8-10.4,12.8l1.6,0.8c3.2-4,6.4-8,9.6-12l14.4,14.4
		c-3.2,3.2-5.6,6.4-8.8,10.4l1.6,0.8c2.4-4,5.6-7.2,8.8-10.4l5.6,5.6c0,0,0.8,0,1.6,0h0.8l-7.2-7.2c4.8-4.8,9.6-8.8,15.2-12
		c0-0.8,0.8-1.6,0.8-2.4c-6.4,4-12,8-16.8,13.6l-14.4-14.4c10.4-10.4,21.6-18.4,35.2-24c10.4-4.8,21.6-7.2,32.8-8V124
		C226.4,126.4,215.2,129.6,204.8,133.6z"/>
	<path style="fill:#C3D2E2;" d="M328.8,158.4c-10.4-10.4-22.4-18.4-36-24c-10.4-4.8-21.6-7.2-33.6-8c0,0.8,0,0.8,0,1.6
		c11.2,0.8,22.4,4,32.8,8c12.8,5.6,24.8,13.6,35.2,24l-12.8,12.8V172h-0.8l-1.6-1.6l-1.6-0.8l2.4-0.8l-0.8,0h-1.6l0.8-0.8l-1.6-3.2
		l-3.2-4.8l-3.2-2.4l-1.6-0.8H300V156l-3.2-1.6l-1.6,0.8c2.4,4,3.2,8,4,12c0,3.2,0,5.6,0,8l0.8-0.8l3.2,6.4h-2.4l1.6,1.6l-4,4
		L296,184v-1.6c-0.8,1.6-0.8,2.4-1.6,4v0.8h2.4v0.8l-1.6,1.6c-0.8-0.8-1.6-1.6-2.4-2.4c0,0.8-0.8,0.8-0.8,1.6
		c0.8,0.8,1.6,1.6,1.6,1.6l-14.4,14.4c-0.8-0.8-2.4-2.4-4-3.2c-0.8,0-0.8,0.8-1.6,0.8c1.6,0.8,3.2,2.4,4,4l0,1.6l0,0v-0.8l-0.8,0.8
		h-1.6v-1.6l-1.6,0.8l-1.6,1.6l0.8,0.8l1.6-0.8l1.6,0.8l0,0h0.8l-4,4l-4.8,0.8l-0.8,1.6l-0.8,0.8v0.8h0.8l0.8,0.8v0.8l0,0h-0.8
		l-2.4,0.8c-0.8-0.8-0.8-0.8-1.6-0.8l0,0h-0.8c-0.8-0.8-1.6-0.8-3.2-1.6v5.6c0,1.6,0,4,0,5.6h0.8l0.8,0.8l-1.6,1.6
		c0,0.8,0,1.6,0,2.4l2.4-2.4l-0.8,1.6h0.8l0.8,2.4l1.6,1.6l-3.2-1.6v0.8c4,1.6,9.6,4,14.4,7.2c7.2,4.8,10.4,12,9.6,19.2
		c-0.8,4-2.4,7.2-5.6,10.4l8,7.2l1.6,0.8l0.8,1.6h1.6l1.6-1.6l0.8-2.4l1.6-4v-0.8l0.8-0.8l0.8-2.4l-0.8-0.8l0.8-0.8L296,268v-2.4
		l-1.6,0.8l-0.8,1.6H292v1.6l-1.6,1.6l-0.8-0.8l-0.8,0.8h-2.4l0,0c0.8-0.8,0.8-0.8,1.6-1.6h0.8h0.8l0.8-1.6v-0.8h0.8l2.4-3.2l1.6-4
		l4.8-2.4V256l-0.8-0.8v-0.8l1.6,0.8l3.2,0.8l2.4-0.8l4-0.8l-0.8-3.2l-1.6-1.6h-2.4l-3.2-7.2h-0.8l-2.4-2.4l0.8-0.8l0,0h15.2
		c0,16.8-7.2,33.6-19.2,45.6l-0.8-0.8v-0.8l0.8-2.4v-4l-0.8-2.4l-0.8,0.8l-0.8,1.6v0.8l-3.2,2.4h-0.8v-0.8H288l0,0l8.8,7.2
		c0,0,0.8,0,0.8-0.8l7.2,7.2l15.2,12.8l-4.8-4.8c8-8,14.4-17.6,19.2-28.8c4.8-10.4,7.2-22.4,7.2-33.6H360c0,14.4-3.2,28.8-8.8,41.6
		c-5.6,12.8-12.8,24-23.2,34.4l0.8,0.8c9.6-10.4,17.6-21.6,23.2-34.4c5.6-13.6,8.8-28.8,8.8-44s-3.2-30.4-8.8-44
		C347.2,180.8,339.2,168,328.8,158.4z M280,208.8l0.8-0.8c0.8,0.8,0.8,0.8,1.6,1.6l-1.6,0.8H280l-0.8-0.8L280,208.8L280,208.8z
		 M286.4,214.4l-1.6,3.2l-2.4-1.6h-0.8l0.8,1.6l0.8,0.8l-0.8,1.6v-0.8l-2.4-0.8l1.6-0.8L280,216l0.8-1.6v-0.8l1.6-0.8l-1.6-2.4
		l-2.4,1.6v1.6l-1.6-0.8h-1.6l-0.8-0.8l0,0l3.2-3.2l0,0h3.2l0.8-1.6C284,211.2,284.8,212.8,286.4,214.4L286.4,214.4z M297.6,222.4
		l-0.8-1.6l0.8-0.8l0.8,0.8h0.8v-1.6l-1.6-0.8v0.8h-0.8l-0.8-0.8l-2.4-2.4l-3.2-1.6H288l0,0c-1.6-2.4-4-5.6-5.6-8l14.4-14.4
		c1.6,1.6,3.2,3.2,4.8,4.8l-0.8,0.8H300l1.6,0.8l0.8-0.8c0.8,0.8,1.6,1.6,1.6,2.4h-0.8l0,0h0.8l2.4,3.2h0.8c0,0.8,0.8,0.8,0.8,1.6
		v1.6l-1.6,1.6l-0.8-0.8H304l0.8,1.6l-0.8,0.8l2.4,0.8l0.8,1.6l1.6,0.8v0.8l1.6,0.8v2.4h0.8c0.8,1.6,0.8,3.2,1.6,4.8l0,0l-0.8,1.6
		l-1.6,0.8l-0.8,3.2l-2.4,1.6l-0.8-1.6l0.8-4l1.6-0.8l-4.8-4l-2.4,0.8l-2.4,4.8L297.6,222.4z M306.4,202.4L306.4,202.4L306.4,202.4
		C307.2,202.4,307.2,202.4,306.4,202.4z M299.2,237.6L299.2,237.6V236l1.6-0.8l0.8-1.6h2.4v-0.8l-0.8-1.6l3.2-1.6h3.2l0.8-1.6
		l0.8-0.8l1.6-2.4v-1.6c0,0.8,0,0.8,0,1.6l-0.8,1.6v0.8l-0.8,1.6v0.8l-1.6,2.4v1.6h0.8l1.6-2.4v-1.6h0.8l0,0
		c0.8,3.2,0.8,6.4,0.8,9.6h-14.4V237.6z M312,300.8l-1.6-1.6v-0.8l0.8-0.8l-0.8-4.8v-1.6l-0.8-1.6l-0.8-0.8h0.8l-0.8-0.8h-1.6v1.6
		l-0.8,0.8l0.8,1.6l-0.8,2.4l-0.8,0.8v0.8l-8-8c12-12.8,19.2-28.8,20-46.4h20.8C337.6,262.4,328,284,312,300.8z M316.8,237.6
		c0-4,0-8-0.8-12l0.8-1.6h0.8l0.8-4.8h-0.8v-0.8h-2.4l-0.8-0.8l-0.8,0.8l1.6,0.8h-0.8v0.8c-0.8-2.4-0.8-4-1.6-5.6l0.8-1.6v-2.4h-0.8
		L312,208l0.8-0.8H312h-1.6l-0.8-0.8c-0.8-0.8-0.8-1.6-1.6-2.4h2.4l-0.8-0.8l1.6-0.8v-0.8h-0.8l-1.6,0.8l-0.8-0.8l0.8-1.6H308
		l-0.8,1.6l-1.6-0.8c-0.8-1.6-2.4-3.2-3.2-4.8v-0.8l0,0c-1.6-1.6-3.2-3.2-4-4.8l0,0l1.6,1.6l0.8-3.2h-1.6l0,0l4.8-4.8l3.2,3.2h3.2
		l0.8,1.6v2.4l5.6,3.2h1.6l4,4l0.8,2.4l2.4,2.4h3.2l1.6-3.2c4.8,11.2,8,24,8,36.8h-21.6V237.6z M339.2,237.6c0-12-2.4-24-7.2-35.2
		c-0.8-0.8-0.8-2.4-1.6-3.2l0.8-0.8l0.8,0.8l0.8-1.6l-7.2-11.2l-1.6-0.8l-10.4-12l0,0L328,160c9.6,10.4,17.6,21.6,23.2,34.4
		c5.6,13.6,8.8,28,8.8,43.2H339.2L339.2,237.6z"/>
	<path style="fill:#C3D2E2;" d="M239.2,170.4c-14.4,2.4-28,8.8-38.4,19.2l-3.2-3.2l0,0c0,0.8-0.8,0.8-0.8,1.6l3.2,3.2
		c-2.4,3.2-4.8,5.6-7.2,8.8l0.8,0.8c2.4-3.2,4.8-6.4,7.2-8.8l14.4,14.4c-2.4,2.4-4,4.8-5.6,8l1.6,0.8c0.8-1.6,2.4-3.2,3.2-4.8
		s1.6-4,2.4-5.6l0,0l-14.4-14.4c10.4-10.4,23.2-16.8,37.6-18.4C239.2,171.2,239.2,171.2,239.2,170.4z"/>
	<polygon style="fill:#C3D2E2;" points="300,153.6 300.8,154.4 304,156 304.8,157.6 305.6,157.6 305.6,156 304.8,155.2 304.8,154.4 
		303.2,153.6 302.4,153.6 301.6,153.6 302.4,152.8 	"/>
	<path style="fill:#C3D2E2;" d="M296.8,182.4L296.8,182.4l0.8,1.6h0.8L296.8,182.4z"/>
	<polygon style="fill:#C3D2E2;" points="310.4,247.2 307.2,248 308,249.6 310.4,249.6 	"/>
	<polygon style="fill:#C3D2E2;" points="299.2,204 300,205.6 301.6,204.8 300.8,204.8 300,203.2 300,202.4 300,201.6 299.2,201.6 
		298.4,201.6 296.8,202.4 299.2,203.2 	"/>
	<polygon style="fill:#C3D2E2;" points="309.6,195.2 310.4,196 311.2,196 312,196.8 311.2,196 309.6,194.4 308,192.8 308.8,195.2 	
		"/>
	<polygon style="fill:#C3D2E2;" points="296.8,204 296.8,202.4 296,204 296,204.8 	"/>
</g>
<g>
	<path style="fill:#F5F8FC;" d="M310.4,367.2c-12-2.4-24-4-32.8-4c-11.2,0-20.8,2.4-28.8,5.6c-8-3.2-18.4-5.6-28.8-5.6
		c-8.8,0-20.8,0.8-32.8,4c-18.4,4-33.6,7.2-47.2,0c12.8,12,27.2,16.8,49.6,15.2c18.4-1.6,32.8-9.6,50.4-8.8h0.8
		c-18.4,9.6-28.8,23.2-28.8,23.2l8,0.8c0,0,8-17.6,28-23.2c20,4.8,28,23.2,28,23.2l8-0.8c0,0-10.4-13.6-28.8-23.2h0.8
		c16.8-0.8,32,8,50.4,8.8c21.6,1.6,36.8-3.2,49.6-15.2C344,374.4,328,371.2,310.4,367.2z"/>
	<path style="fill:#F5F8FC;" d="M328,351.2c5.6-6.4,8-9.6,11.2-18.4s3.2-16.8,6.4-24c-2.4,3.2-4.8,6.4-8.8,10.4s-8.8,8.8-14.4,20
		c-4.8,10.4-4.8,14.4-9.6,22.4c11.2-4,19.2,4,46.4-6.4c12.8-4.8,21.6-16.8,25.6-27.2c-9.6,8.8-17.6,13.6-28.8,15.2
		C344.8,344.8,337.6,345.6,328,351.2z"/>
</g>
<g>
	<path style="fill:#C3D2E2;" d="M368.8,350.4c8-5.6,12.8-14.4,16-21.6c-8.8,8-16,12-24.8,14.4L368.8,350.4z"/>
	<path style="fill:#C3D2E2;" d="M335.2,321.6l5.6,4.8c1.6-6.4,1.6-12,4.8-16.8c-2.4,3.2-4.8,6.4-8.8,10.4
		C336.8,320,336,320.8,335.2,321.6z"/>
	<path style="fill:#C3D2E2;" d="M380.8,310.4c-8.8,5.6-18.4,8-24.8,16c4-4.8,4.8-6.4,5.6-12c2.4-13.6-1.6-21.6,0-36
		c-2.4,5.6-9.6,17.6-11.2,27.2c-3.2,14.4-2.4,27.2-9.6,36.8c10.4-8,20-8,33.6-14.4c16-8,24.8-21.6,28.8-41.6
		C400,295.2,391.2,304,380.8,310.4z"/>
	<path style="fill:#C3D2E2;" d="M376.8,295.2c7.2-25.6-5.6-35.2-7.2-50.4c-0.8,5.6-2.4,14.4-3.2,18.4c-0.8,23.2,8.8,28,1.6,49.6
		c5.6-8.8,12.8-11.2,22.4-19.2c11.2-10.4,20.8-25.6,20-45.6c-2.4,5.6-8.8,16.8-16.8,24.8C386.4,279.2,380,288.8,376.8,295.2z"/>
	<path style="fill:#C3D2E2;" d="M396.8,233.6c-5.6,9.6-8.8,24-9.6,28.8c1.6-25.6-16-39.2-19.2-46.4c1.6,8.8,0.8,12.8,3.2,20.8
		c2.4,9.6,12.8,24.8,12,40c3.2-7.2,8.8-15.2,12-19.2c4-6.4,9.6-12,11.2-19.2c2.4-8,2.4-16.8-2.4-32
		C404.8,217.6,400.8,225.6,396.8,233.6z"/>
	<path style="fill:#C3D2E2;" d="M387.2,224.8c-4-14.4-10.4-23.2-20-31.2c-6.4-5.6-8.8-7.2-12-11.2c4,8,5.6,13.6,8.8,20
		c4.8,8.8,18.4,18.4,24,36c1.6-8.8,7.2-15.2,10.4-27.2c4-12.8-3.2-32.8-11.2-42.4c4,11.2,4.8,22.4,3.2,31.2
		C388.8,209.6,388,215.2,387.2,224.8z"/>
	<path style="fill:#C3D2E2;" d="M377.6,184.8c-4-8-12.8-13.6-20-17.6c-7.2-4.8-11.2-6.4-19.2-13.6c3.2,4.8,6.4,10.4,11.2,16.8
		c4.8,5.6,15.2,12,19.2,15.2c4,3.2,10.4,9.6,15.2,20c-0.8-8,2.4-19.2-0.8-33.6c-2.4-14.4-8.8-21.6-19.2-29.6c3.2,4,7.2,10.4,8.8,20
		C374.4,170.4,375.2,178.4,377.6,184.8z"/>
	<path style="fill:#C3D2E2;" d="M345.6,149.6c10.4,9.6,17.6,10.4,25.6,20.8c-4.8-13.6-8.8-21.6-18.4-28.8
		c-12-10.4-24.8-14.4-29.6-16.8C332.8,131.2,332.8,137.6,345.6,149.6z"/>
</g>
<g>
	<path style="fill:#F5F8FC;" d="M184,361.6c-4.8-8-4.8-12-9.6-22.4c-4.8-11.2-10.4-16-14.4-20s-6.4-6.4-8.8-10.4
		c4,7.2,3.2,14.4,6.4,24c3.2,8.8,5.6,12,11.2,18.4c-9.6-5.6-16.8-6.4-28-8s-19.2-6.4-28.8-15.2c4,10.4,12.8,22.4,25.6,27.2
		C165.6,365.6,173.6,357.6,184,361.6z"/>
	<path style="fill:#F5F8FC;" d="M156,342.4c-7.2-9.6-6.4-21.6-9.6-36.8c-1.6-9.6-9.6-21.6-11.2-27.2c2.4,14.4-2.4,22.4,0,36
		c0.8,4.8,1.6,7.2,5.6,12c-6.4-8-16-10.4-24.8-16c-10.4-6.4-19.2-14.4-23.2-24c4.8,20,12.8,34.4,28.8,41.6
		C136,334.4,146.4,334.4,156,342.4z"/>
	<path style="fill:#F5F8FC;" d="M107.2,292.8c8.8,8,16,10.4,22.4,19.2c-7.2-21.6,2.4-26.4,1.6-49.6c0-4-2.4-12.8-3.2-18.4
		c-1.6,15.2-15.2,24.8-7.2,50.4c-3.2-6.4-9.6-16-16.8-24c-7.2-8-14.4-19.2-16.8-24.8C86.4,267.2,96,282.4,107.2,292.8z"/>
	<path style="fill:#F5F8FC;" d="M102.4,257.6c3.2,4,8.8,12,12,19.2c0-16,9.6-30.4,12-40c2.4-7.2,0.8-12,3.2-20.8
		c-3.2,7.2-20.8,20.8-19.2,46.4c-0.8-4.8-4.8-19.2-9.6-28.8c-4-8-8-16-7.2-27.2c-4.8,15.2-4.8,24-2.4,32
		C92.8,245.6,98.4,251.2,102.4,257.6z"/>
	<path style="fill:#F5F8FC;" d="M108.8,238.4c5.6-17.6,16.8-25.6,22.4-33.6c4-6.4,6.4-14.4,10.4-22.4c-2.4,3.2-4.8,5.6-12,11.2
		c-9.6,8-16,16.8-20,31.2c0-8.8-1.6-14.4-3.2-24.8c-1.6-8.8-1.6-20,3.2-31.2c-8,9.6-15.2,29.6-11.2,42.4
		C101.6,223.2,107.2,229.6,108.8,238.4z"/>
	<path style="fill:#F5F8FC;" d="M112.8,205.6c5.6-10.4,11.2-16.8,15.2-20c4-3.2,14.4-9.6,19.2-15.2c4.8-5.6,7.2-11.2,11.2-16.8
		c-7.2,6.4-11.2,8.8-19.2,13.6c-7.2,4-16,8.8-20,17.6c2.4-6.4,3.2-14.4,4-21.6c0.8-10.4,5.6-16.8,8.8-20c-10.4,8-16,15.2-19.2,29.6
		C111.2,187.2,113.6,197.6,112.8,205.6z"/>
	<path style="fill:#F5F8FC;" d="M152,149.6c12.8-12,12.8-18.4,22.4-25.6c-4.8,2.4-17.6,7.2-29.6,16.8c-8.8,8-13.6,16-18.4,28.8
		C134.4,160,141.6,159.2,152,149.6z"/>
</g>
<g>
	<path style="fill:#C3D2E2;" d="M135.2,151.2l7.2,5.6c3.2-1.6,6.4-4,9.6-7.2c12.8-12,12.8-18.4,22.4-25.6
		c-4.8,2.4-17.6,7.2-29.6,16.8C140.8,144.8,138.4,148,135.2,151.2z"/>
	<path style="fill:#C3D2E2;" d="M240,128.8c0,2.4,0.8,44.8,0.8,57.6c3.2-0.8,6.4-1.6,9.6-1.6c1.6,0,3.2,0,4,0
		c0-10.4,1.6-55.2,1.6-57.6c0-1.6,0.8-3.2,0.8-5.6c1.6-6.4,3.2-16-0.8-20.8c-1.6-2.4-4.8-3.2-8-3.2c-3.2,0-6.4,0.8-8,3.2
		c-4.8,5.6-2.4,16.8-0.8,24C240,126.4,240,128,240,128.8z"/>
</g>
<g>
</g>
<g>
</g>
<g>
</g>
<g>
</g>
<g>
</g>
<g>
</g>
<g>
</g>
<g>
</g>
<g>
</g>
<g>
</g>
<g>
</g>
<g>
</g>
<g>
</g>
<g>
</g>
<g>
</g>
</svg>
