<?xml version="1.0" encoding="iso-8859-1"?>
<!-- Generator: Adobe Illustrator 19.0.0, SVG Export Plug-In . SVG Version: 6.00 Build 0)  -->
<svg version="1.1" id="Capa_1" xmlns="http://www.w3.org/2000/svg" xmlns:xlink="http://www.w3.org/1999/xlink" x="0px" y="0px"
	 viewBox="0 0 496 496" style="enable-background:new 0 0 496 496;" xml:space="preserve">
<path style="fill:#007E3A;" d="M0,248v121.6c0,27.2,21.6,48.8,48,48.8h400c26.4,0,48-21.6,48-48.8V248H0z"/>
<path style="fill:#056B30;" d="M248,248l200,170.4c26.4,0,48-21.6,48-48.8V248H248z"/>
<path style="fill:#FC3D32;" d="M448,77.6H48c-26.4,0-48,21.6-48,48.8V248h496V126.4C496,99.2,474.4,77.6,448,77.6z"/>
<path style="fill:#ED2B26;" d="M448,77.6H48L248,248h248V126.4C496,99.2,474.4,77.6,448,77.6z"/>
<path style="fill:#C11414;" d="M496,369.6c0,27.2-21.6,48.8-48,48.8H48c-26.4,0-48-21.6-48-48.8"/>
<path style="fill:#DD1D1D;" d="M48,77.6h400c26.4,0,48,21.6,48,48.8v88.8"/>
<path style="fill:#055124;" d="M133.6,369.6v48.8H448c26.4,0,48-21.6,48-48.8H133.6z"/>
<path style="fill:#FFFFFF;" d="M133.6,77.6H48c-26.4,0-48,21.6-48,48.8V248l0,0v121.6c0,27.2,21.6,48.8,48,48.8h85.6V77.6z"/>
<polygon style="fill:#E2E4E8;" points="133.6,77.6 48,77.6 133.6,150.4 "/>
<polygon style="fill:#C4C8CE;" points="133.6,77.6 48,77.6 133.6,104 "/>
<path style="fill:#E2E4E8;" d="M0,248L0,248v121.6c0,27.2,21.6,48.8,48,48.8h85.6V248H0z"/>
<path style="fill:#C4C8CE;" d="M0,369.6c0,27.2,21.6,48.8,48,48.8h85.6v-48.8H0z"/>
<g>
</g>
<g>
</g>
<g>
</g>
<g>
</g>
<g>
</g>
<g>
</g>
<g>
</g>
<g>
</g>
<g>
</g>
<g>
</g>
<g>
</g>
<g>
</g>
<g>
</g>
<g>
</g>
<g>
</g>
</svg>
