<?xml version="1.0" encoding="iso-8859-1"?>
<!-- Generator: Adobe Illustrator 19.0.0, SVG Export Plug-In . SVG Version: 6.00 Build 0)  -->
<svg version="1.1" id="Capa_1" xmlns="http://www.w3.org/2000/svg" xmlns:xlink="http://www.w3.org/1999/xlink" x="0px" y="0px"
	 viewBox="0 0 512 512" style="enable-background:new 0 0 512 512;" xml:space="preserve">
<path style="fill:#28AE66;" d="M512,381.523c0,28.077-22.297,50.374-49.548,50.374H49.548C22.297,431.897,0,409.6,0,381.523V130.477
	C0,102.4,22.297,80.103,49.548,80.103h412.903c27.252,0,49.548,22.297,49.548,50.374V381.523z"/>
<path style="fill:#0BA060;" d="M49.548,80.103h412.903c27.252,0,49.548,22.297,49.548,50.374v251.045
	c0,28.077-22.297,50.374-49.548,50.374"/>
<g>
	<path style="fill:#06966D;" d="M49.548,80.103h412.903c27.252,0,49.548,22.297,49.548,50.374v91.665"/>
	<path style="fill:#06966D;" d="M512,381.523c0,28.077-22.297,50.374-49.548,50.374H49.548C22.297,431.897,0,409.6,0,381.523"/>
</g>
<g transform="scale(0.99907 0.99907)">
	<path style="fill:#FFFFFF;" d="M256.818,127.166c21.471,9.084,36.335,30.555,36.335,55.329c0,33.032-27.252,60.284-60.284,60.284
		c-14.865,0-28.903-5.781-38.813-14.039c6.606,2.477,14.039,4.129,21.471,4.955c33.032,1.652,61.935-24.774,62.761-57.806
		C278.289,156.895,270.03,138.727,256.818,127.166z"/>
	<g>
		<path style="fill:#CECECE;" d="M256.818,127.166c14.039,11.561,22.297,28.903,21.471,48.723
			c-1.652,28.903-22.297,52.026-49.548,56.981l11.561,9.91c29.729-3.303,52.852-28.903,52.852-60.284
			C293.153,157.721,278.289,136.25,256.818,127.166z"/>
		<polygon style="fill:#CECECE;" points="209.747,132.121 203.14,127.166 205.618,119.734 199.011,124.689 192.405,119.734 
			194.882,127.166 188.276,132.121 196.534,132.121 199.011,140.379 201.489,132.121 		"/>
		<polygon style="fill:#CECECE;" points="209.747,163.501 203.14,158.547 205.618,150.289 199.011,155.243 192.405,150.289 
			194.882,158.547 188.276,163.501 196.534,163.501 199.011,171.759 201.489,163.501 		"/>
		<polygon style="fill:#CECECE;" points="209.747,194.882 203.14,189.927 205.618,181.669 199.011,186.624 192.405,181.669 
			194.882,189.927 188.276,194.882 196.534,194.882 199.011,203.14 201.489,194.882 		"/>
	</g>
	<polygon style="fill:#FFFFFF;" points="179.192,178.366 172.585,173.411 175.063,165.979 168.456,170.934 161.024,165.979 
		164.327,173.411 156.895,178.366 165.979,178.366 168.456,186.624 170.934,178.366 	"/>
	<polygon style="fill:#CECECE;" points="218.83,148.637 225.437,143.682 222.959,135.424 229.566,140.379 236.172,135.424 
		233.695,143.682 241.127,148.637 232.043,148.637 229.566,156.069 227.089,148.637 	"/>
</g>
<g>
	<polygon style="fill:#CA3745;" points="125.523,253.523 128,251.871 125.523,250.219 	"/>
	<polygon style="fill:#CA3745;" points="102.4,265.91 103.226,265.084 101.574,265.084 	"/>
	<polygon style="fill:#CA3745;" points="91.665,221.316 94.142,221.316 93.316,220.49 	"/>
	<polygon style="fill:#CA3745;" points="101.574,221.316 103.226,221.316 102.4,220.49 	"/>
	<polygon style="fill:#CA3745;" points="82.581,221.316 84.232,221.316 83.406,220.49 	"/>
	<polygon style="fill:#CA3745;" points="93.316,265.91 94.142,265.084 91.665,265.084 	"/>
	<polygon style="fill:#CA3745;" points="60.284,245.265 60.284,241.961 57.806,243.613 	"/>
	<polygon style="fill:#CA3745;" points="125.523,245.265 128,243.613 125.523,241.961 	"/>
	<path style="fill:#CA3745;" d="M45.419,80.103v351.794h94.968V80.103H45.419z M49.548,105.703l7.432-4.955v-5.781l7.432-4.129
		h5.781l10.735-5.781h23.123l10.735,5.781h5.781L128,94.968v5.781l7.432,4.955v11.561L128,122.219V128l-7.432,4.129h-4.955
		l-10.735,5.781H81.755l-10.735-5.781h-6.606L56.981,128v-5.781l-7.432-5.781V105.703z M133.781,236.181l-0.826,1.652h-1.652
		l-1.652-1.652l-4.129,3.303l0,0l4.129,2.477l1.652-1.652h1.652l0.826,1.652l-1.652,1.652l1.652,0.826l-0.826,1.652h-1.652
		l-1.652-1.652l-4.129,3.303l0,0l4.129,2.477l1.652-1.652h1.652l0.826,1.652l-1.652,1.652l1.652,0.826l-0.826,1.652h-1.652
		l-1.652-1.652L125.523,256v2.477H128v2.477c0,0-1.652,0-2.477,0v2.477h-2.477v-3.303h-4.955v3.303h2.477v2.477c0,0-1.652,0-2.477,0
		v2.477h-2.477v-3.303h-9.084l-1.652,1.652l1.652,1.652l-1.652,1.652c-0.826-0.826-1.652-0.826-1.652-1.652l-1.652,1.652
		l-1.652-1.652l1.652-1.652l-1.652-1.652h-1.652l-1.652,1.652l1.652,1.652l-1.652,1.652c-0.826-0.826-1.652-0.826-1.652-1.652
		l-1.652,1.652l-1.652-1.652l1.652-1.652l-1.652-1.652h-1.652l-1.652,1.652l1.652,1.652l-1.652,1.652l-1.652-1.652
		c-0.826,0.826-1.652,1.652-1.652,1.652l-1.652-1.652l1.652-1.652l-1.652-1.652H71.019v3.303h-3.303c0,0,0-1.652,0-2.477h-2.477
		v-2.477h2.477v-3.303h-4.129v3.303h-3.303c0,0,0-1.652,0-2.477h-2.477v-2.477h2.477V256l-4.129-2.477l-1.652,1.652h-1.652
		l-0.826-1.652l1.652-0.826l-1.652-0.826l0.826-1.652h1.652l1.652,1.652l4.129-4.129l0,0l-4.129-2.477l-1.652,1.652h-1.652
		l-0.826-1.652l1.652-0.826l-1.652-0.826l0.826-1.652h1.652l1.652,1.652l4.129-4.129l0,0l-4.129-2.477l-1.652,1.652h-1.652
		l-0.826-1.652l1.652-0.826l-1.652-0.826l0.826-1.652h1.652l1.652,1.652l4.129-4.129v-2.477h-1.652v-2.477c0,0,1.652,0,2.477,0
		v-2.477h2.477v3.303h4.955v-4.129h-2.477v-2.477c0,0,1.652,0,2.477,0v-2.477h2.477v3.303h9.084l1.652-1.652l-1.652-1.652
		l1.652-1.652c0.826,0.826,1.652,1.652,1.652,1.652l1.652-1.652l1.652,1.652l-1.652,1.652l1.652,1.652h1.652l1.652-1.652
		l-1.652-1.652l1.652-1.652l1.652,1.652c0.826-0.826,1.652-0.826,1.652-1.652l1.652,1.652l-1.652,1.652l1.652,1.652h1.652
		l1.652-1.652l-1.652-1.652l1.652-1.652l1.652,1.652c0.826-0.826,1.652-0.826,1.652-1.652l1.652,1.652l-1.652,1.652l1.652,1.652
		h9.084v-3.303h2.477c0,0,0,1.652,0,2.477h2.477v2.477h-2.477v3.303h4.955v-3.303h2.477c0,0,0,1.652,0,2.477h2.477v2.477h-2.477
		v3.303l4.129,2.477l1.652-1.652h1.652l0.826,1.652l1.652,1.652L133.781,236.181z M113.135,155.252v3.303h9.084v3.303h9.084v13.213
		v4.129v13.213h-9.084v3.303h-9.084v3.303h-9.084v3.303H82.581v-3.303h-9.91v-3.303h-9.084v-3.303h-9.084V179.2v-4.129v-13.213
		h9.084v-3.303h9.084v-3.303h9.91v-3.303h20.645v3.303H113.135z M128.826,383.174l-24.774,13.213H81.755l-24.774-13.213v-21.471
		l24.774-13.213l0,0h22.297l24.774,13.213C128.826,361.703,128.826,383.174,128.826,383.174z M136.258,318.761h-6.606v6.606h-6.606
		v6.606H99.097l-4.129,2.477l1.652,0.826h8.258l0.826-0.826h-7.432l2.477-2.477h10.735l-4.955,4.955h-9.91l-3.303-2.477
		l-3.303,2.477h-9.91l-5.781-4.955h10.735l2.477,2.477h-7.432l0.826,0.826h8.258l1.652-0.826l-4.129-2.477H62.761v-6.606h-6.606
		v-6.606h-6.606v-17.342h6.606v-6.606h6.606v-6.606H86.71l4.129-2.477l-1.652-0.826h-8.258l-0.826,0.826h7.432l-2.477,2.477H74.323
		l4.955-4.955h9.91l3.303,2.477l3.303-2.477h9.91l4.955,4.955H99.923l-2.477-2.477h7.432l-0.826-0.826h-8.258l-1.652,0.826
		l4.129,2.477h23.948v6.606h6.606v6.606h6.606v17.342L136.258,318.761L136.258,318.761z"/>
</g>
<path style="fill:#A0182C;" d="M128.826,383.174l-24.774,13.213H81.755l-24.774-13.213v-1.652H45.419v50.374
	c1.652,0,2.477,0,4.129,0h90.839v-50.374h-11.561V383.174z"/>
<g>
	<polygon style="fill:#CA3745;" points="83.406,265.91 84.232,265.084 82.581,265.084 	"/>
	<polygon style="fill:#CA3745;" points="60.284,253.523 60.284,250.219 57.806,251.871 	"/>
	<polygon style="fill:#CA3745;" points="125.523,237.006 128,235.355 125.523,233.703 	"/>
	<polygon style="fill:#CA3745;" points="60.284,237.006 60.284,233.703 57.806,235.355 	"/>
</g>
<g>
	<path style="fill:#FAAE29;" d="M55.329,397.213c0.826-2.477,1.652-4.129,0.826-6.606c0-1.652-1.652-3.303-1.652-4.955
		c-1.652,1.652-1.652,3.303-1.652,5.781C53.677,393.084,55.329,394.735,55.329,397.213z"/>
	<path style="fill:#FAAE29;" d="M66.89,412.077c-0.826-0.826-1.652-2.477-1.652-4.129c-0.826,0.826-0.826,2.477-0.826,3.303
		c0,1.652,1.652,2.477,2.477,4.129c-1.652-0.826-3.303-1.652-5.781-2.477c-2.477-0.826-4.129-1.652-6.606-3.303
		c0.826,3.303,3.303,5.781,6.606,6.606c2.477,0.826,4.129,0,7.432,1.652C68.542,415.381,67.716,413.729,66.89,412.077z"/>
	<path style="fill:#FAAE29;" d="M77.626,421.161c-1.652-0.826-2.477-2.477-3.303-4.129c-1.652-2.477-2.477-3.303-4.955-4.129
		c0.826,0.826,1.652,2.477,2.477,4.129c0.826,0.826,1.652,2.477,2.477,2.477c-2.477,0-4.955-1.652-7.432-1.652
		c-1.652,0-3.303,0.826-4.955,0c1.652,1.652,3.303,3.303,5.781,3.303C71.019,421.987,74.323,421.161,77.626,421.161z"/>
	<path style="fill:#FAAE29;" d="M61.11,411.252c0-1.652,0.826-3.303,0.826-4.955c0.826-1.652,0-3.303-0.826-4.955
		c0,1.652-0.826,2.477-0.826,4.129c0,0.826-0.826,1.652-0.826,3.303c-0.826-0.826-1.652-1.652-3.303-2.477
		c-1.652-0.826-3.303-1.652-4.129-3.303c0,2.477,0.826,4.129,2.477,4.955C56.981,408.774,59.458,409.6,61.11,411.252z"/>
	<path style="fill:#FAAE29;" d="M57.806,403.819c0-1.652,0-2.477,0.826-4.129c0.826-1.652,1.652-3.303,0.826-4.955
		c0,0.826-0.826,1.652-1.652,2.477c-0.826,0.826-1.652,2.477-1.652,4.129c-0.826-0.826-1.652-1.652-1.652-3.303
		c-0.826-1.652-2.477-2.477-4.129-4.129c0,1.652,0.826,3.303,1.652,4.955C53.677,401.342,56.155,402.994,57.806,403.819z"/>
	<path style="fill:#FAAE29;" d="M128,403.819c1.652-0.826,4.129-2.477,4.955-4.129c0.826-1.652,1.652-3.303,1.652-4.955
		c-1.652,0.826-2.477,2.477-4.129,4.129c-0.826,0.826-0.826,2.477-1.652,3.303c0-1.652-0.826-2.477-1.652-4.129
		c-0.826-0.826-0.826-1.652-1.652-2.477c-0.826,1.652,0,3.303,0.826,4.955C128,401.342,128,402.168,128,403.819z"/>
	<path style="fill:#FAAE29;" d="M132.955,391.432c0.826-1.652,0-4.129-1.652-5.781c0,1.652-1.652,3.303-1.652,4.955
		c-0.826,2.477,0,4.129,0.826,6.606C130.477,394.735,132.129,393.084,132.955,391.432z"/>
	<path style="fill:#FAAE29;" d="M129.652,405.471c-0.826,0.826-2.477,1.652-3.303,2.477c0-0.826,0-1.652-0.826-3.303
		c0-1.652-0.826-2.477-0.826-4.129c-0.826,1.652-1.652,3.303-0.826,4.955c0.826,1.652,1.652,3.303,0.826,4.955
		c1.652-1.652,4.129-2.477,5.781-3.303c1.652-1.652,2.477-3.303,2.477-4.955C132.129,403.819,130.477,404.645,129.652,405.471z"/>
	<path style="fill:#FAAE29;" d="M119.742,415.381c0.826-1.652,1.652-2.477,2.477-4.129c0-1.652,0-2.477-0.826-3.303
		c-0.826,1.652-0.826,2.477-1.652,4.129s-1.652,4.129-1.652,5.781c2.477-0.826,4.955-0.826,7.432-1.652
		c3.303-0.826,5.781-3.303,6.606-6.606c-1.652,1.652-4.129,2.477-6.606,3.303C123.045,413.729,121.394,415.381,119.742,415.381z"/>
	<path style="fill:#FAAE29;" d="M93.316,421.987c-4.129-0.826-8.258-0.826-11.561,0c-4.955,0.826-9.084,1.652-14.039,1.652
		c5.781,1.652,10.735,2.477,16.516,0c3.303-0.826,4.955-1.652,7.432-1.652l0,0c-3.303,0.826-5.781,2.477-8.258,4.955l1.652,1.652
		c3.303-3.303,6.606-4.955,9.084-5.781c2.477,0.826,5.781,2.477,9.084,5.781l1.652-1.652c-2.477-2.477-5.781-4.129-8.258-4.955l0,0
		c2.477,0,4.129,0.826,7.432,1.652c5.781,1.652,10.735,1.652,16.516,0c-4.955,0-9.91-0.826-14.039-1.652
		C100.748,421.161,96.619,421.161,93.316,421.987z"/>
	<path style="fill:#FAAE29;" d="M119.742,417.858c-2.477,0-4.955,1.652-7.432,1.652c0.826-0.826,1.652-1.652,2.477-2.477
		c0.826-1.652,1.652-2.477,2.477-4.129c-2.477,0-4.129,1.652-4.955,4.129c-0.826,1.652-1.652,3.303-3.303,4.129
		c3.303,0,6.606,0.826,9.91,0c2.477,0,4.129-1.652,6.606-2.477C123.045,418.684,121.394,417.858,119.742,417.858z"/>
	<polygon style="fill:#FAAE29;" points="55.329,271.69 52.852,270.039 56.155,266.735 52.852,263.432 54.503,261.781 
		45.419,253.523 45.419,253.523 45.419,256 45.419,256.826 50.374,261.781 48.723,263.432 52.852,266.735 51.2,268.387 51.2,265.91 
		47.897,265.91 47.897,269.213 55.329,275.819 58.632,275.819 59.458,273.342 56.981,273.342 59.458,270.865 65.239,276.645 
		59.458,281.6 56.981,279.948 59.458,279.948 58.632,277.471 55.329,277.471 47.897,284.077 47.897,286.555 51.2,286.555 
		51.2,284.077 52.852,285.729 48.723,289.858 50.374,291.51 45.419,296.465 45.419,296.465 45.419,298.942 45.419,299.768 
		54.503,291.51 52.852,289.858 56.155,285.729 52.852,283.252 55.329,280.774 59.458,284.903 68.542,276.645 59.458,268.387 	"/>
	<polygon style="fill:#FAAE29;" points="61.11,274.168 60.284,276.645 61.11,278.297 62.761,276.645 	"/>
	<polygon style="fill:#FAAE29;" points="47.897,278.297 49.548,278.297 51.2,276.645 49.548,274.994 47.897,274.994 47.897,271.69 
		45.419,270.039 45.419,270.039 45.419,282.426 45.419,283.252 47.897,280.774 	"/>
	<polygon style="fill:#FAAE29;" points="140.387,253.523 140.387,253.523 131.303,261.781 132.955,263.432 129.652,266.735 
		132.955,270.039 130.477,271.69 126.348,268.387 117.265,276.645 126.348,284.903 130.477,280.774 132.955,283.252 
		129.652,285.729 132.955,289.858 131.303,291.51 140.387,299.768 140.387,298.942 140.387,298.942 140.387,296.465 
		140.387,296.465 140.387,296.465 135.432,291.51 137.084,289.858 132.955,285.729 134.606,284.077 134.606,286.555 137.91,286.555 
		137.91,284.077 130.477,277.471 127.174,277.471 126.348,279.948 128.826,279.948 126.348,281.6 120.568,276.645 126.348,270.865 
		128.826,273.342 126.348,273.342 127.174,275.819 130.477,275.819 137.91,269.213 137.91,265.91 134.606,265.91 134.606,268.387 
		132.955,266.735 137.084,263.432 135.432,261.781 140.387,256.826 140.387,256 140.387,256 	"/>
	<polygon style="fill:#FAAE29;" points="124.697,278.297 125.523,276.645 124.697,274.168 123.045,276.645 	"/>
	<polygon style="fill:#FAAE29;" points="137.91,274.994 136.258,274.994 134.606,276.645 136.258,278.297 137.91,278.297 
		137.91,280.774 140.387,283.252 140.387,282.426 140.387,270.039 140.387,270.039 137.91,271.69 	"/>
	<polygon style="fill:#FAAE29;" points="55.329,337.755 52.852,336.103 56.155,332.8 52.852,329.497 54.503,327.845 45.419,319.587 
		45.419,319.587 45.419,322.065 45.419,322.89 50.374,327.845 48.723,329.497 52.852,332.8 51.2,334.452 51.2,331.974 
		47.897,331.974 47.897,335.277 55.329,341.884 58.632,341.884 59.458,339.406 56.981,339.406 59.458,336.929 65.239,342.71 
		59.458,347.664 56.981,346.013 59.458,346.013 58.632,343.535 55.329,343.535 47.897,350.142 47.897,352.619 51.2,352.619 
		51.2,350.968 52.852,351.794 48.723,355.923 50.374,357.574 45.419,362.529 45.419,362.529 45.419,365.832 45.419,365.832 
		54.503,357.574 52.852,355.923 56.155,351.794 52.852,349.316 55.329,346.839 59.458,350.968 68.542,342.71 59.458,334.452 	"/>
	<polygon style="fill:#FAAE29;" points="61.11,341.058 60.284,342.71 61.11,344.361 62.761,342.71 	"/>
	<polygon style="fill:#FAAE29;" points="47.897,344.361 49.548,344.361 51.2,342.71 49.548,341.058 47.897,341.058 47.897,338.581 
		45.419,336.103 45.419,336.103 45.419,348.49 45.419,349.316 47.897,346.839 	"/>
	<polygon style="fill:#FAAE29;" points="140.387,319.587 140.387,319.587 131.303,327.845 132.955,329.497 129.652,332.8 
		132.955,336.103 130.477,337.755 126.348,334.452 117.265,342.71 126.348,350.968 130.477,346.839 132.955,349.316 
		129.652,351.794 132.955,355.923 131.303,357.574 140.387,365.832 140.387,365.832 140.387,365.832 140.387,362.529 
		140.387,362.529 140.387,362.529 135.432,357.574 137.084,355.923 132.955,351.794 134.606,350.968 134.606,352.619 
		137.91,352.619 137.91,350.142 130.477,343.535 127.174,343.535 126.348,346.013 128.826,346.013 126.348,347.664 120.568,342.71 
		126.348,336.929 128.826,339.406 126.348,339.406 127.174,341.884 130.477,341.884 137.91,335.277 137.91,331.974 134.606,331.974 
		134.606,334.452 132.955,332.8 137.084,329.497 135.432,327.845 140.387,322.89 140.387,322.065 140.387,322.065 	"/>
	<polygon style="fill:#FAAE29;" points="124.697,344.361 125.523,342.71 124.697,341.058 123.045,342.71 	"/>
	<polygon style="fill:#FAAE29;" points="137.91,341.058 136.258,341.058 134.606,342.71 136.258,344.361 137.91,344.361 
		137.91,346.839 140.387,349.316 140.387,348.49 140.387,336.103 140.387,336.103 137.91,338.581 	"/>
	<polygon style="fill:#FAAE29;" points="55.329,139.561 52.852,137.91 56.155,134.606 52.852,131.303 54.503,129.652 
		45.419,120.568 45.419,121.394 45.419,123.871 45.419,123.871 50.374,129.652 48.723,131.303 52.852,134.606 51.2,136.258 
		51.2,133.781 47.897,133.781 47.897,136.258 55.329,143.69 58.632,143.69 59.458,141.213 56.981,141.213 59.458,138.735 
		65.239,143.69 59.458,149.471 56.981,146.994 59.458,146.994 58.632,144.516 55.329,144.516 47.897,151.948 47.897,154.426 
		51.2,154.426 51.2,151.948 52.852,153.6 48.723,156.903 50.374,158.555 45.419,163.51 45.419,164.335 45.419,166.813 
		45.419,167.639 54.503,158.555 52.852,156.903 56.155,153.6 52.852,150.297 55.329,148.645 59.458,152.774 68.542,143.69 
		59.458,135.432 	"/>
	<polygon style="fill:#FAAE29;" points="61.11,142.039 60.284,143.69 61.11,145.342 62.761,143.69 	"/>
	<polygon style="fill:#FAAE29;" points="47.897,146.168 49.548,146.168 51.2,143.69 49.548,142.039 47.897,142.039 47.897,139.561 
		45.419,137.91 45.419,137.91 45.419,150.297 45.419,150.297 47.897,148.645 	"/>
	<polygon style="fill:#FAAE29;" points="55.329,205.626 52.852,203.974 56.155,200.671 52.852,197.368 54.503,195.716 
		45.419,186.632 45.419,187.458 45.419,189.935 45.419,190.761 50.374,195.716 48.723,197.368 52.852,200.671 51.2,202.323 
		51.2,199.845 47.897,199.845 47.897,202.323 55.329,209.755 58.632,209.755 59.458,207.277 56.981,207.277 59.458,204.8 
		65.239,210.581 59.458,215.535 56.981,213.058 59.458,213.058 58.632,210.581 55.329,210.581 47.897,218.013 47.897,220.49 
		51.2,220.49 51.2,218.013 52.852,219.665 48.723,222.968 50.374,225.445 45.419,230.4 45.419,230.4 45.419,232.877 45.419,233.703 
		54.503,225.445 52.852,222.968 56.155,219.665 52.852,216.361 55.329,214.71 59.458,218.839 68.542,210.581 59.458,201.497 	"/>
	<polygon style="fill:#FAAE29;" points="61.11,208.103 60.284,209.755 61.11,212.232 62.761,209.755 	"/>
	<polygon style="fill:#FAAE29;" points="47.897,212.232 49.548,212.232 51.2,210.581 49.548,208.103 47.897,208.103 47.897,205.626 
		45.419,203.974 45.419,203.974 45.419,216.361 45.419,216.361 47.897,214.71 	"/>
	<polygon style="fill:#FAAE29;" points="140.387,120.568 131.303,129.652 132.955,131.303 129.652,134.606 132.955,137.91 
		130.477,139.561 126.348,135.432 117.265,143.69 126.348,152.774 130.477,148.645 132.955,150.297 129.652,153.6 132.955,156.903 
		131.303,158.555 140.387,167.639 140.387,166.813 140.387,166.813 140.387,164.335 140.387,164.335 140.387,163.51 
		135.432,158.555 137.084,156.903 132.955,153.6 134.606,151.948 134.606,154.426 137.91,154.426 137.91,151.948 130.477,144.516 
		127.174,144.516 126.348,146.994 128.826,146.994 126.348,149.471 120.568,143.69 126.348,138.735 128.826,141.213 
		126.348,141.213 127.174,143.69 130.477,143.69 137.91,136.258 137.91,133.781 134.606,133.781 134.606,136.258 132.955,134.606 
		137.084,131.303 135.432,129.652 140.387,123.871 140.387,123.871 140.387,123.871 140.387,121.394 140.387,121.394 	"/>
	<polygon style="fill:#FAAE29;" points="124.697,145.342 125.523,143.69 124.697,142.039 123.045,143.69 	"/>
	<polygon style="fill:#FAAE29;" points="137.91,142.039 136.258,142.039 134.606,143.69 136.258,146.168 137.91,146.168 
		137.91,148.645 140.387,150.297 140.387,150.297 140.387,137.91 140.387,137.91 137.91,139.561 	"/>
	<polygon style="fill:#FAAE29;" points="140.387,186.632 131.303,195.716 132.955,197.368 129.652,200.671 132.955,203.974 
		130.477,205.626 126.348,201.497 117.265,210.581 126.348,218.839 130.477,214.71 132.955,216.361 129.652,219.665 
		132.955,222.968 131.303,225.445 140.387,233.703 140.387,232.877 140.387,232.877 140.387,230.4 140.387,230.4 140.387,230.4 
		135.432,225.445 137.084,222.968 132.955,219.665 134.606,218.013 134.606,220.49 137.91,220.49 137.91,218.013 130.477,210.581 
		127.174,210.581 126.348,213.058 128.826,213.058 126.348,215.535 120.568,210.581 126.348,204.8 128.826,207.277 126.348,207.277 
		127.174,209.755 130.477,209.755 137.91,202.323 137.91,199.845 134.606,199.845 134.606,202.323 132.955,200.671 137.084,197.368 
		135.432,195.716 140.387,190.761 140.387,189.935 140.387,189.935 140.387,187.458 140.387,187.458 	"/>
	<polygon style="fill:#FAAE29;" points="124.697,212.232 125.523,209.755 124.697,208.103 123.045,209.755 	"/>
	<polygon style="fill:#FAAE29;" points="137.91,208.103 136.258,208.103 134.606,210.581 136.258,212.232 137.91,212.232 
		137.91,214.71 140.387,216.361 140.387,216.361 140.387,203.974 140.387,203.974 137.91,205.626 	"/>
	<polygon style="fill:#FAAE29;" points="66.065,80.103 65.239,80.103 59.458,85.058 56.981,83.406 59.458,83.406 58.632,80.929 
		55.329,80.929 47.897,87.535 47.897,90.013 51.2,90.013 51.2,88.361 52.852,89.187 48.723,93.316 50.374,94.968 45.419,99.923 
		45.419,99.923 45.419,103.226 45.419,103.226 54.503,94.968 52.852,93.316 56.155,89.187 52.852,86.71 55.329,84.232 
		59.458,88.361 68.542,80.103 68.542,80.103 	"/>
	<polygon style="fill:#FAAE29;" points="62.761,80.103 61.935,80.103 61.11,80.103 60.284,80.103 61.11,81.755 	"/>
	<polygon style="fill:#FAAE29;" points="47.897,81.755 49.548,81.755 51.2,80.103 51.2,80.103 51.2,80.103 45.419,80.103 
		45.419,85.884 45.419,86.71 47.897,84.232 	"/>
	<polygon style="fill:#FAAE29;" points="140.387,99.923 135.432,94.968 137.084,93.316 132.955,89.187 134.606,88.361 
		134.606,90.013 137.91,90.013 137.91,87.535 130.477,80.929 127.174,80.929 126.348,83.406 128.826,83.406 126.348,85.058 
		120.568,80.103 119.742,80.103 117.265,80.103 117.265,80.103 126.348,88.361 130.477,84.232 132.955,86.71 129.652,89.187 
		132.955,93.316 131.303,94.968 140.387,103.226 140.387,103.226 140.387,103.226 	"/>
	<polygon style="fill:#FAAE29;" points="125.523,80.103 124.697,80.103 123.871,80.103 123.045,80.103 124.697,81.755 	"/>
	<polygon style="fill:#FAAE29;" points="134.606,80.103 134.606,80.103 134.606,80.103 136.258,81.755 137.91,81.755 137.91,84.232 
		140.387,86.71 140.387,85.884 140.387,80.103 	"/>
</g>
<g>
</g>
<g>
</g>
<g>
</g>
<g>
</g>
<g>
</g>
<g>
</g>
<g>
</g>
<g>
</g>
<g>
</g>
<g>
</g>
<g>
</g>
<g>
</g>
<g>
</g>
<g>
</g>
<g>
</g>
</svg>
