<?xml version="1.0" encoding="iso-8859-1"?>
<!-- Generator: Adobe Illustrator 19.0.0, SVG Export Plug-In . SVG Version: 6.00 Build 0)  -->
<svg version="1.1" id="Capa_1" xmlns="http://www.w3.org/2000/svg" xmlns:xlink="http://www.w3.org/1999/xlink" x="0px" y="0px"
	 viewBox="0 0 496 496" style="enable-background:new 0 0 496 496;" xml:space="preserve">
<path style="fill:#377E3F;" d="M0,304.8v64.8c0,27.2,21.6,48.8,48,48.8h400c26.4,0,48-21.6,48-48.8v-64.8H0z"/>
<path style="fill:#29682D;" d="M448,418.4c26.4,0,48-21.6,48-48.8v-64.8H315.2L448,418.4z"/>
<path style="fill:#377E3F;" d="M448,77.6H48c-26.4,0-48,21.6-48,48.8v64.8h496v-64.8C496,99.2,474.4,77.6,448,77.6z"/>
<path style="fill:#29682D;" d="M448,77.6H48l132.8,113.6H496v-64.8C496,99.2,474.4,77.6,448,77.6z"/>
<path style="fill:#1C541D;" d="M448,77.6H48l370.4,113.6H496v-64.8C496,99.2,474.4,77.6,448,77.6z"/>
<polygon style="fill:#F3F4F5;" points="0,140.8 0,189.6 0,191.2 0,304.8 0,306.4 0,355.2 496,355.2 496,306.4 496,304.8 496,191.2 
	496,189.6 496,140.8 "/>
<polygon style="fill:#D3DDE5;" points="180,189.6 180,189.6 316,306.4 373.6,355.2 496,355.2 496,306.4 496,304.8 496,191.2 
	496,189.6 496,140.8 122.4,140.8 "/>
<polygon style="fill:#C1D1DB;" points="417.6,191.2 496,191.2 496,189.6 496,140.8 255.2,140.8 "/>
<rect y="189.6" style="fill:#B40A2D;" width="496" height="116"/>
<polygon style="fill:#99082B;" points="316,306.4 496,306.4 496,189.6 180,189.6 "/>
<polygon style="fill:#ECC81D;" points="266.4,258.4 295.2,237.6 259.2,237.6 248,203.2 236.8,237.6 200.8,237.6 229.6,258.4 
	218.4,292.8 248,272 277.6,292.8 "/>
<polygon style="fill:#D8B009;" points="259.2,237.6 248,203.2 236.8,237.6 235.2,237.6 268,265.6 266.4,258.4 295.2,237.6 "/>
<g>
</g>
<g>
</g>
<g>
</g>
<g>
</g>
<g>
</g>
<g>
</g>
<g>
</g>
<g>
</g>
<g>
</g>
<g>
</g>
<g>
</g>
<g>
</g>
<g>
</g>
<g>
</g>
<g>
</g>
</svg>
