<?xml version="1.0" encoding="iso-8859-1"?>
<!-- Generator: Adobe Illustrator 19.0.0, SVG Export Plug-In . SVG Version: 6.00 Build 0)  -->
<svg version="1.1" id="Capa_1" xmlns="http://www.w3.org/2000/svg" xmlns:xlink="http://www.w3.org/1999/xlink" x="0px" y="0px"
	 viewBox="0 0 496 496" style="enable-background:new 0 0 496 496;" xml:space="preserve">
<path style="fill:#FFFFFF;" d="M496,369.6c0,27.2-21.6,48.8-48,48.8H48c-26.4,0-48-21.6-48-48.8V126.4c0-27.2,21.6-48.8,48-48.8h400
	c26.4,0,48,21.6,48,48.8V369.6z"/>
<path style="fill:#E9F3F4;" d="M48,77.6h400c26.4,0,48,21.6,48,48.8v243.2c0,27.2-21.6,48.8-48,48.8"/>
<g>
	<path style="fill:#D9ECED;" d="M496,369.6c0,27.2-21.6,48.8-48,48.8H48c-26.4,0-48-21.6-48-48.8"/>
	<path style="fill:#D9ECED;" d="M48,77.6h400c26.4,0,48,21.6,48,48.8v88.8"/>
</g>
<path style="fill:#AA0000;" d="M345.6,184c4,0.8,5.6,4.8,10.4,11.2c30.4,39.2,73.6,4.8,80-37.6l0.8-5.6l-1.6,5.6
	c-3.2,11.2-12.8,20.8-21.6,22.4c-7.2,1.6-13.6,4-16,5.6c-1.6,1.6-2.4,1.6-4,0c-1.6-0.8-4-1.6-7.2-1.6c-4.8,0-5.6,0-8,3.2
	c-1.6,1.6-2.4,3.2-3.2,2.4c0,0,0-1.6,0.8-2.4c0.8-1.6,0.8-1.6,0-1.6s-1.6,1.6-3.2,4c-1.6,4.8-7.2,8.8-9.6,8.8
	C356,196,355.2,184,345.6,184C343.2,183.2,343.2,183.2,345.6,184z"/>
<path style="fill:#FF0000;" d="M437.6,159.2c-7.2,38.4-47.2,77.6-82.4,36c-1.6-3.2-4-6.4-4.8-8c-2.4-2.4-6.4-3.2-6.4-1.6
	c0,0.8,1.6,0.8,2.4,0.8c2.4,0,3.2,0.8,5.6,5.6c2.4,5.6,13.6,17.6,16,17.6s0.8,1.6-4,4c-9.6,4.8-12.8,7.2-23.2,15.2
	c-11.2,8.8-23.2,16-37.6,16c-12.8-2.4-20.8-3.2-28.8,4.8c-4,4-12.8,4.8-26.4,4.8s-22.4-0.8-26.4-4.8c-8-7.2-16-7.2-28.8-4.8
	c-14.4,0-27.2-7.2-37.6-16c-10.4-8-13.6-10.4-23.2-15.2c-4-2.4-5.6-4-4-4c2.4-0.8,13.6-12,16-17.6c2.4-4.8,3.2-5.6,5.6-5.6
	c1.6,0,2.4-0.8,2.4-0.8c0-2.4-4-0.8-6.4,1.6c-1.6,1.6-3.2,4.8-4.8,8c-31.2,37.6-74.4,8-81.6-36c-0.8-5.6-1.6-8-1.6-5.6
	c0.8,27.2,18.4,49.6,36.8,68c8,8,13.6,18.4,20,27.2c2.4,5.6,4.8,10.4,6.4,16c19.2,47.2,83.2,80,132,79.2
	c52.8,0.8,98.4-32.8,122.4-79.2c2.4-4.8,4-10.4,6.4-16c5.6-9.6,12.8-19.2,20-27.2c17.6-19.2,36-40.8,37.6-68
	C439.2,151.2,438.4,154.4,437.6,159.2z"/>
<path style="fill:#D60000;" d="M437.6,159.2c-7.2,38.4-47.2,77.6-82.4,36c-1.6-3.2-4-6.4-4.8-8c-2.4-2.4-6.4-3.2-6.4-1.6
	c0,0.8,1.6,0.8,2.4,0.8c2.4,0,3.2,0.8,5.6,5.6c2.4,5.6,13.6,17.6,16,17.6s0.8,1.6-4,4c-9.6,4.8-12.8,7.2-23.2,15.2
	c-11.2,8.8-23.2,16-37.6,16c-12.8-2.4-20.8-3.2-28.8,4.8c-3.2,3.2-8,4-16,4.8l72,61.6c18.4-13.6,33.6-32,44.8-52.8
	c2.4-4.8,4-10.4,6.4-16c5.6-9.6,12.8-19.2,20-27.2c17.6-19.2,36-40.8,37.6-68C439.2,151.2,438.4,154.4,437.6,159.2z"/>
<path style="fill:#FF0000;" d="M139.2,194.4c4.8-6.4,6.4-10.4,10.4-11.2c2.4-0.8,2.4-0.8,0-0.8c-8.8,0.8-9.6,12.8-17.6,15.2
	c-2.4,0-8-4.8-9.6-8.8c-0.8-2.4-2.4-4-3.2-4c-0.8,0-0.8,0.8,0,1.6c0.8,0.8,0.8,1.6,0.8,2.4c0,0-1.6-0.8-3.2-3.2
	c-2.4-3.2-3.2-3.2-8-3.2c-3.2,0-6.4,0.8-7.2,1.6c-1.6,1.6-2.4,1.6-4,0c-2.4-2.4-8.8-4-16-5.6C72,176.8,63.2,167.2,60,156l-1.6-4
	l0.8,5.6C65.6,200,108.8,233.6,139.2,194.4z"/>
<g>
</g>
<g>
</g>
<g>
</g>
<g>
</g>
<g>
</g>
<g>
</g>
<g>
</g>
<g>
</g>
<g>
</g>
<g>
</g>
<g>
</g>
<g>
</g>
<g>
</g>
<g>
</g>
<g>
</g>
</svg>
