<?xml version="1.0" encoding="iso-8859-1"?>
<!-- Generator: Adobe Illustrator 19.0.0, SVG Export Plug-In . SVG Version: 6.00 Build 0)  -->
<svg version="1.1" id="Capa_1" xmlns="http://www.w3.org/2000/svg" xmlns:xlink="http://www.w3.org/1999/xlink" x="0px" y="0px"
	 viewBox="0 0 496 496" style="enable-background:new 0 0 496 496;" xml:space="preserve">
<path style="fill:#27509F;" d="M496,369.6c0,27.2-21.6,46.4-48,46.4H48c-26.4,0-48-19.2-48-46.4V126.4C0,99.2,21.6,80,48,80h400
	c26.4,0,48,19.2,48,46.4V369.6z"/>
<path style="fill:#1A4589;" d="M48,80h400c26.4,0,48,19.2,48,46.4v243.2c0,27.2-24.8,46.4-51.2,46.4"/>
<g>
	<path style="fill:#123B77;" d="M496,368.8c0,30.4-21.6,47.2-48,47.2H48c-26.4,0-48-20.8-48-48"/>
	<path style="fill:#123B77;" d="M48,80h400c26.4,0,48,19.2,48,46.4V216"/>
</g>
<polygon style="fill:#FAC80D;" points="496,216 280,216 280,80 216,80 216,216 0,216 0,280 216,280 216,416 280,416 280,280 
	496,280 "/>
<g>
	<rect x="216" y="368" style="fill:#DDA800;" width="64" height="48"/>
	<polygon style="fill:#DDA800;" points="280,80 216,80 216,216 208.8,216 284.8,280 496,280 496,216 280,216 	"/>
</g>
<g>
</g>
<g>
</g>
<g>
</g>
<g>
</g>
<g>
</g>
<g>
</g>
<g>
</g>
<g>
</g>
<g>
</g>
<g>
</g>
<g>
</g>
<g>
</g>
<g>
</g>
<g>
</g>
<g>
</g>
</svg>
