<?xml version="1.0" encoding="iso-8859-1"?>
<!-- Generator: Adobe Illustrator 19.0.0, SVG Export Plug-In . SVG Version: 6.00 Build 0)  -->
<svg version="1.1" id="Capa_1" xmlns="http://www.w3.org/2000/svg" xmlns:xlink="http://www.w3.org/1999/xlink" x="0px" y="0px"
	 viewBox="0 0 496 496" style="enable-background:new 0 0 496 496;" xml:space="preserve">
<path style="fill:#FFFFFF;" d="M496,369.6c0,27.2-21.6,48.8-48,48.8H48c-26.4,0-48-21.6-48-48.8V126.4c0-27.2,21.6-48.8,48-48.8h400
	c26.4,0,48,21.6,48,48.8V369.6z"/>
<path style="fill:#EDEBE4;" d="M48,77.6h400c26.4,0,48,21.6,48,48.8v243.2c0,27.2-21.6,48.8-48,48.8"/>
<g>
	<path style="fill:#E2DFD7;" d="M496,369.6c0,27.2-21.6,48.8-48,48.8H48c-26.4,0-48-21.6-48-48.8"/>
	<path style="fill:#E2DFD7;" d="M48,77.6h400c26.4,0,48,21.6,48,48.8v88.8"/>
</g>
<path style="fill:#FFE000;" d="M248,77.6H48c-25.6,0-45.6,20-47.2,45.6v249.6c1.6,25.6,22.4,45.6,47.2,45.6h200V77.6z"/>
<polygon style="fill:#E2C103;" points="248,77.6 48,77.6 248,248 "/>
<g>
	<polygon style="fill:#CCAA05;" points="248,77.6 48,77.6 248,139.2 	"/>
	<path style="fill:#CCAA05;" d="M0,369.6v3.2l0,0c0,1.6,0,3.2,0.8,4.8l0,0c0,1.6,0.8,3.2,0.8,4.8l0,0c0,1.6,0.8,3.2,1.6,4l0,0
		c0.8,1.6,0.8,2.4,1.6,4l0,0c0.8,1.6,1.6,2.4,1.6,3.2c0,0,0,0,0,0.8c1.6,1.6,1.6,3.2,2.4,4c0,0,0,0.8,0.8,0.8
		c0.8,0.8,1.6,1.6,2.4,3.2l0.8,0.8c0.8,0.8,1.6,1.6,2.4,2.4l0.8,0.8c0.8,0.8,1.6,1.6,2.4,2.4l0.8,0.8c0.8,0.8,1.6,0.8,2.4,1.6
		c0.8,0,0.8,0.8,1.6,0.8c0.8,0.8,1.6,0.8,2.4,1.6c0.8,0,1.6,0.8,1.6,0.8c0.8,0,1.6,0.8,2.4,0.8c0.8,0,1.6,0.8,2.4,0.8
		c0.8,0,0.8,0,1.6,0s1.6,0.8,2.4,0.8c0.8,0,1.6,0,1.6,0.8c0.8,0,2.4,0,3.2,0.8c0.8,0,0.8,0,1.6,0c1.6,0,3.2,0,4.8,0H248v-48.8
		L0,369.6L0,369.6z"/>
</g>
<g>
	<polygon style="fill:#FFE000;" points="317.6,245.6 317.6,237.6 305.6,225.6 305.6,233.6 	"/>
	<path style="fill:#FFE000;" d="M460,207.2h-4l-4-4l-4,4l2.4-2.4v-4l-8-8l-4,4l2.4-2.4v-4l-2.4-2.4l1.6-1.6c1.6,0,2.4-0.8,2.4-2.4
		l1.6-1.6l-1.6,1.6c1.6,0,2.4-0.8,2.4-2.4c0-0.8-0.8-0.8-0.8-1.6l0.8-0.8h0.8c1.6,0,3.2-1.6,3.2-4s-1.6-3.2-3.2-3.2
		s-3.2,1.6-3.2,3.2v0.8l-0.8,0.8c-0.8,0-0.8-0.8-1.6-0.8c-1.6,0-2.4,0.8-2.4,2.4l0.8-0.8l-1.6,1.6c-1.6,0-2.4,0.8-2.4,2.4l0,0
		l-3.2,3.2l0,0l-15.2,16l0,0c0-0.8,0-0.8,0-1.6v-0.8c0-1.6,0-3.2,0-4.8v-0.8V192c0-0.8,0-0.8,0-1.6v-0.8v-0.8V188c0,0,0-0.8,0-1.6
		v-0.8c0-0.8,0-0.8,0-1.6v-0.8v-0.8v-0.8v-0.8V180v-0.8v-0.8v-0.8v-0.8V176c0,0,0,0,0-0.8c0,0,0,0,0-0.8l0,0l0,0c0,0,0,0,0.8,0l0,0
		c0,0,0,0,0.8,0l0,0c0,0,0,0,0.8,0l0,0c0,0,0,0,0.8,0l0,0c0,0,0,0,0.8,0.8c0,0,0,0,0,0.8c0,0,0,0,0.8,0.8c0,0,0,0,0,0.8
		c0,0,0,0,0.8,0.8c0,0,0,0,0,0.8c0,0,0,0.8,0.8,0.8c0,0,0,0,0,0.8c0,0,0,0.8,0.8,0.8l0,0c0,0,0,0.8,0.8,0.8l0,0l0,0l0,0l0,0
		c0.8,1.6,1.6,2.4,2.4,4c0,0,0,0,0.8,0c0,0,0,0,0-0.8c-0.8-0.8-1.6-1.6-1.6-2.4c0,0,0,0.8,0.8,0.8l0.8,0.8l0.8,0.8l0,0l0,0l0,0l0,0
		l0,0l0,0l0,0l0,0l0,0l0,0c-0.8,0-0.8-0.8-1.6-1.6c0.8,0.8,0.8,0.8,1.6,0.8l0,0l0,0l0,0c0,0,0,0,0.8,0l0,0l0,0l0,0l0,0l0,0
		c0,0,0,0,0-0.8c-0.8-0.8-1.6-1.6-2.4-3.2c0.8,0.8,1.6,2.4,2.4,2.4l0,0l0,0l0,0c0,0,0,0,0.8,0l0,0l0,0c0,0,0,0,0.8,0l0,0l0,0l0,0
		c0,0,0,0,0.8,0l0,0l0,0c0,0,0,0,0-0.8c-0.8-0.8-1.6-1.6-1.6-2.4c0,0,0,0.8,0.8,0.8c0,0,0.8,0.8,1.6,0.8c0,0,0,0,0.8,0.8l0,0l0,0
		l0,0l0,0l0,0l0,0l0,0l0,0l0,0l0,0c-0.8,0-0.8-0.8-1.6-1.6c0.8,0.8,0.8,0.8,1.6,0.8l0,0l0,0l0,0c-0.8,0-1.6-1.6-2.4-2.4l0,0l0,0
		c0,0,0-0.8-0.8-0.8l0,0c0,0,0-0.8-0.8-0.8l0,0l-0.8-0.8l0,0c0,0,0-0.8-0.8-0.8l0,0c-0.8-0.8-0.8-0.8-1.6-1.6l0,0c0,0-0.8,0-0.8-0.8
		l0,0c0,0-0.8,0-0.8-0.8l0,0h-0.8l0,0h-0.8l0,0h-0.8l0,0l0,0l0,0c0,0,0,0-0.8,0c0,0,0,0-0.8,0c0,0,0,0-0.8,0l0,0c0,0,0,0-0.8,0l0,0
		c0,0-0.8,0-0.8,0.8l0,0l0,0l-7.2,7.2l0,0l0,0l0,0l0,0c0,0,0,0-0.8,0.8l-0.8,0.8l-0.8,0.8l0,0c0,0,0,0.8-0.8,0.8v0.8v0.8v0.8v0.8
		v0.8v0.8v0.8v0.8v0.8v0.8v0.8v0.8c0,0.8,0,0.8,0,1.6v0.8c0,0.8,0,0.8,0,1.6c0,0,0,0,0,0.8c0,0.8,0,0.8,0,1.6c0,0,0,0,0,0.8
		c0,0.8,0,0.8,0,1.6l0,0c0,0.8,0,1.6,0,1.6l0,0c0,4,0,8,0,12l-7.2,0.8c-1.6,0-2.4,0.8-2.4,2.4l-2.4,2.4c0-0.8-0.8-0.8-0.8-1.6
		c-0.8-1.6-2.4-3.2-3.2-5.6c3.2-0.8,5.6-1.6,5.6-2.4l0,0c0,0,0,0,0-0.8v-1.6l0.8-0.8l-0.8-0.8v-0.8l0,0c0,0,0-0.8-0.8-0.8
		c0,0,0,0-0.8,0v-0.8c0.8,0,1.6-0.8,1.6-1.6l0,0c0.8,0,1.6,0,2.4-1.6c0.8-0.8,0.8-2.4,0-2.4s-1.6,0-2.4,1.6c0,0.8-0.8,0.8-0.8,1.6
		c-0.8,0.8-0.8,0.8-1.6,0.8v-0.8h0.8c0.8-0.8,0.8-1.6,0-1.6l0,0l0,0h0.8c0.8,0,0.8-0.8,0.8-1.6c0-0.8-0.8-0.8-0.8-1.6
		c0.8-2.4,0.8-4,1.6-6.4c0,0,0.8,0,0.8-0.8c0,0,0,0,0-0.8v-1.6l0.8-0.8l-0.8-0.8v-1.6c0,0,0,0,0-0.8c0-0.8,0-0.8-0.8-0.8h-0.8l0,0
		c0.8,0,2.4-0.8,3.2-2.4l0,0c0.8,0.8,1.6,0,2.4-1.6s0.8-2.4,0-3.2c-0.8-0.8-1.6,0-2.4,1.6c0,0.8-0.8,0.8-0.8,1.6
		c-0.8,0.8-1.6,1.6-2.4,1.6c0-0.8,0-0.8,0-1.6c0.8,0,1.6,0,2.4,0c0.8-0.8,0.8-1.6,0-1.6s-1.6-0.8-2.4-1.6c0.8,0.8,2.4,1.6,3.2,1.6
		c0.8,0,0.8-0.8,0.8-1.6c0-0.8-0.8-1.6-1.6-1.6c-0.8,0-1.6-0.8-1.6,0c0,0.8,0.8,2.4,0.8,2.4s1.6-0.8,0.8-1.6c0-3.2-0.8-6.4-1.6-8.8
		c0,0,0.8,0,0.8-0.8c0,0,0,0,0-0.8V164l0.8-0.8l0.8,0v-0.8l0,0c0-0.8,0-0.8-0.8-0.8s-0.8,0-1.6-0.8c0.8,0,2.4-0.8,3.2-2.4l0,0
		c0.8,0.8,1.6,0,2.4-1.6s0.8-2.4,0-3.2c-0.8-0.8-1.6,0-2.4,1.6c0,0.8-0.8,0.8-0.8,1.6c-0.8,0.8-2.4,2.4-3.2,1.6
		c-0.8,0-1.6-1.6-2.4-2.4l0.8-0.8c0-0.8-0.8-0.8-0.8-0.8c-0.8,0-0.8,0.8-0.8,0.8v0.8l0,0c0-0.8-0.8-0.8-0.8-1.6h0.8
		c0.8-0.8-0.8-1.6-1.6-1.6c0.8,0,2.4,0.8,2.4,0.8c0.8-0.8,0.8-1.6,0-2.4c0-0.8-3.2-0.8-3.2-0.8s2.4,0,2.4-0.8c0-0.8-0.8-0.8-1.6-1.6
		c-0.8,0-1.6,0-2.4,0s-0.8,0.8-0.8,1.6l0,0c0-0.8,0-1.6-0.8-1.6l0,0l0,0l0,0c0-0.8,0.8-1.6,0.8-2.4c0,0.8-0.8,2.4,0,3.2
		c0.8,0.8,1.6,0.8,1.6,0c0.8,0,0.8-0.8,0.8-1.6c0-0.8,0-1.6-0.8-1.6s-1.6,1.6-1.6,1.6s0.8-2.4,0.8-3.2c2.4,0,1.6-0.8,0.8,0
		c-0.8,0-0.8,1.6-0.8,2.4c0-0.8,0-2.4-0.8-2.4s-0.8,0.8-0.8,1.6c-2.4-3.2-5.6-5.6-8.8-8l0,0c0-0.8,0-2.4,0-3.2c-0.8,0-0.8,0-1.6,0
		v-5.6l3.2,0.8v-4l-3.2,0.8l0.8-4h-4l0.8,4l-3.2-0.8v4l3.2-0.8v5.6c-0.8,0-0.8,0-1.6,0c0,0.8,0,1.6,0,3.2l0,0
		c-3.2,2.4-6.4,5.6-9.6,8.8c0-0.8-0.8-1.6-0.8-1.6c-0.8,0-0.8,1.6-0.8,1.6c0-0.8,0-2.4-0.8-2.4c-0.8-0.8-1.6,0-1.6,0.8
		c0,0.8,0.8,3.2,0.8,3.2s-0.8-1.6-1.6-1.6c-0.8,0-0.8,0.8-0.8,1.6c0,0.8,0.8,1.6,0.8,1.6c0.8,0.8,1.6,0,1.6,0s0-1.6,0-3.2
		c0,0.8,0,1.6,0.8,2.4c0,0,0,0.8,0.8,0.8l0,0c0,0,0,0-0.8,0s-0.8,0.8-0.8,2.4c0,0,0,0.8-0.8,0.8l0,0c-0.8,0-1.6,0-2.4,0.8
		c0.8,0,2.4-0.8,2.4-0.8c0-0.8,0-1.6-0.8-1.6s-1.6-0.8-2.4,0c-0.8,0-1.6,0.8-1.6,1.6c0,0.8,2.4,0.8,2.4,0.8s-2.4,0-3.2,0.8
		c0,0.8-0.8,1.6,0,2.4c0,0,2.4,0,2.4-0.8c-0.8,0-1.6,0.8-1.6,1.6l0.8,0.8c0,0.8-0.8,0.8-0.8,1.6c0,0,0,0-0.8-0.8c0,0,0,0,0-0.8
		c0-0.8-0.8-0.8-0.8-0.8c-0.8,0-0.8,0.8-0.8,0.8c0,0.8,0.8,0.8,0.8,0.8l0,0c0,0.8,0,2.4-1.6,2.4c-1.6,0.8-2.4-0.8-4-1.6
		c0-0.8,0-0.8-0.8-1.6c-0.8-1.6-1.6-1.6-2.4-1.6c-0.8,0.8-0.8,1.6,0,3.2c0.8,1.6,1.6,1.6,2.4,1.6l0,0c0.8,1.6,2.4,2.4,4,2.4
		c-0.8,0-0.8,0-1.6,0.8l-0.8,0.8c0,0,0,0,0,0.8v0.8l0,0L348,168l0.8,0.8c0,0.8,0,0.8,0,1.6v0.8l0.8,0.8l0,0c3.2-1.6,2.4,0.8,2.4,4
		l0,0c-0.8,0-2.4,1.6-2.4,1.6s1.6-1.6,0.8-2.4c-0.8-0.8-1.6,0-1.6,0c-0.8,0-1.6,1.6-1.6,1.6c0,0.8,0,1.6,0.8,1.6s1.6-0.8,3.2-1.6
		c-0.8,0.8-1.6,0.8-2.4,1.6c-0.8,0.8-0.8,1.6,0,1.6c0.8,0.8,1.6,0.8,2.4,0l0,0c0,0.8,0,0.8,0,1.6c-0.8,0-1.6-1.6-3.2-1.6
		c0-0.8,0-0.8-0.8-1.6c-0.8-1.6-2.4-1.6-2.4-1.6c-0.8,0.8-0.8,1.6,0,3.2s2.4,1.6,2.4,1.6l0,0c0.8,0.8,1.6,2.4,3.2,2.4l0,0h-0.8
		l-0.8,0.8c0,0,0,0,0.8,0.8v0.8l0,0l-0.8,0.8l0.8,0.8c0,0.8,0,0.8,0,1.6v0.8l0.8,0.8c0,2.4,0.8,4,0.8,6.4l0,0
		c-0.8,0-0.8,0.8-0.8,1.6c0,0.8,0,1.6,0.8,1.6h0.8l0,0c0,0,0,0-0.8,0s-0.8,0.8,0,1.6l0.8,0.8c0,0,0,0,0,0.8c-0.8,0-0.8-0.8-1.6-0.8
		c0-0.8,0-0.8-0.8-1.6c-0.8-0.8-1.6-1.6-2.4-1.6s-0.8,1.6,0,2.4s1.6,1.6,2.4,1.6l0,0c0.8,0.8,1.6,1.6,2.4,1.6c0,0,0,0,0,0.8l0,0
		l-0.8,0.8l0,0v0.8l0,0l-0.8,0.8l0.8,0.8c0,0.8,0,0.8,0,0.8v0.8c0,0,0,0,0,0.8c0,0.8,2.4,1.6,4.8,1.6c-1.6,2.4-2.4,4.8-4,6.4
		l-2.4-2.4c0-1.6-1.6-2.4-2.4-2.4l-6.4-6.4c0-4.8,0-8.8,0-13.6l0,0c0-0.8,0-0.8,0-1.6c0,0,0,0,0-0.8c0-0.8,0-0.8,0-1.6
		c0,0,0,0,0-0.8c0-0.8,0-0.8,0-1.6V188c0-0.8,0-0.8,0-1.6v-0.8c0-0.8,0-0.8,0-0.8V184v-0.8v-0.8v-0.8v-0.8V180v-0.8v-0.8v-0.8v-0.8
		c0,0,0-0.8-0.8-0.8l0,0c0-0.8-0.8-0.8-0.8-0.8l-0.8-0.8c-0.8-0.8-0.8-0.8-0.8-0.8l0,0l0,0l0,0l0,0l-7.2-7.2l0,0l0,0
		c0,0-0.8,0-0.8-0.8l0,0c0,0,0,0-0.8,0l0,0c0,0,0,0-0.8,0c0,0,0,0-0.8,0c0,0,0,0-0.8,0l0,0l0,0l0,0h-0.8l0,0h-0.8l0,0H324l0,0
		c0,0-0.8,0-0.8,0.8l0,0c0,0-0.8,0-0.8,0.8l0,0l-0.8,0.8l0,0l-0.8,0.8l0,0l-0.8,0.8l0,0l-0.8,0.8l0,0c0,0,0,0.8-0.8,0.8l0,0
		c0,0,0,0.8-0.8,0.8l0,0l0,0c-0.8,1.6-0.8,2.4-2.4,2.4l0,0l0,0l0,0c0.8,0,0.8-0.8,1.6-0.8c0,0.8-0.8,0.8-1.6,1.6l0,0l0,0l0,0l0,0
		l0,0l0,0l0,0l0,0l0,0l0,0c0,0,0,0,0.8-0.8c0.8,0,0.8,0,1.6-0.8c0,0,0-0.8,0.8-0.8c-0.8,0.8-0.8,1.6-1.6,2.4c0,0,0,0,0,0.8l0,0l0,0
		c0,0,0,0,0.8,0l0,0l0,0l0,0c0,0,0,0,0.8,0l0,0l0,0c0,0,0,0,0.8,0l0,0l0,0c0,0,0,0,0.8,0c1.6,0,1.6-1.6,2.4-2.4
		c-0.8,0.8-0.8,2.4-2.4,3.2c0,0,0,0,0,0.8l0,0l0,0l0,0l0,0l0,0c0,0,0,0,0.8,0l0,0l0,0l0,0c0.8,0,0.8-0.8,1.6-0.8
		c0,0.8-0.8,0.8-1.6,1.6l0,0l0,0l0,0l0,0l0,0l0,0l0,0l0,0l0,0l0,0c0,0,0.8,0,0.8-0.8c0.8,0,0.8,0,0.8-0.8c0,0,0-0.8,0.8-0.8
		c-0.8,0.8-0.8,1.6-1.6,2.4c0,0,0,0,0,0.8c0,0,0,0,0.8,0c0.8-0.8,1.6-2.4,2.4-4l0,0l0,0l0,0l0,0c0,0,0-0.8,0.8-0.8l0,0
		c0,0,0-0.8,0.8-0.8c0,0,0,0,0-0.8c0,0,0-0.8,0.8-0.8c0,0,0,0,0-0.8c0,0,0,0,0.8-0.8c0,0,0,0,0-0.8c0,0,0,0,0.8-0.8c0,0,0,0,0-0.8
		c0,0,0,0,0.8-0.8l0,0c0,0,0,0,0.8,0c0,0,0,0,0.8,0c0,0,0,0,0.8,0l0,0c0,0,0,0,0.8,0l0,0c0,0,0,0,0.8,0l0,0l0,0c0,0,0,0,0,0.8
		c0,0,0,0,0,0.8v0.8c0,0,0,0,0,0.8v0.8v0.8c0,0,0,0.8,0,1.6v0.8c0,0.8,0,0.8,0,1.6v0.8c0,0.8,0,0.8,0,1.6v0.8c0,0.8,0,0.8,0,1.6
		c0,0,0,0,0,0.8c0,0.8,0,0.8,0,1.6l0,0c0,0.8,0,1.6,0,2.4l0,0c0,3.2,0,5.6,0,8.8l0,0v0.8L318.4,180l0,0l-3.2-3.2l0,0
		c0-1.6-1.6-2.4-2.4-2.4l-1.6-1.6l0.8,0.8c0-1.6-1.6-2.4-2.4-2.4s-0.8,0.8-1.6,0.8l0.8,4v-0.8c0-1.6-1.6-3.2-3.2-3.2
		s-3.2,1.6-3.2,3.2s1.6,3.2,3.2,3.2h0.8l0.8,0.8c0,0.8-0.8,0.8-0.8,1.6c0,1.6,0.8,2.4,2.4,2.4l1.6,1.6c0,1.6,0.8,2.4,2.4,2.4
		l0.8,1.6l-1.6,2.4v4l-2.4-2.4l-8,8v4l2.4,2.4l-4-4l-4,4h-4l-2.4,2.4l12,12l-12-12v8l12,12l14.4-14.4v-4l-4-4l4-4l2.4-2.4l0,0
		l-2.4,2.4v4l4,4l4-4v-4l4,4l-4,4v4l4,4l-4,4v-4l0,0l0,0l-4-4l-8,8h-4l-2.4,2.4l12,12v8l10.4-10.4V232l2.4,2.4l0,0l0,0l0,0l0,0l8-8
		v-4c0,0,0,0,0,0.8v0.8v0.8v0.8c0,0,0,0.8,0.8,0.8c0,0,0,0,0,0.8c0,0,0,0.8,0.8,0.8c0,0,0,0,0,0.8c0,0,0,0,0.8,0.8l0,0l0,0l0,0
		l7.2,7.2l0,0l0,0l0,0l0.8,0.8c0.8,0.8,2.4,0.8,3.2,0.8c1.6,0,2.4-0.8,4-1.6l0,0c0,1.6,0.8,2.4,2.4,2.4l7.2,4.8h-0.8
		c-0.8,0.8-1.6,1.6-0.8,2.4c0.8,0.8,1.6,1.6,2.4,0.8l0,0c-5.6,4-11.2,8-15.2,12c-1.6,1.6-2.4,2.4-2.4,4l-0.8-0.8l-2.4,2.4l-0.8-0.8
		l-2.4,3.2c-4-1.6-8-3.2-12.8-3.2c-5.6,0-11.2,1.6-16,4.8l-0.8-0.8c-0.8,0.8-1.6,1.6-3.2,2.4c0,0,0,0,0-0.8c0-2.4-1.6-4-4-4
		s-4,1.6-4,4s1.6,4,4,4h0.8c-0.8,0.8-1.6,1.6-2.4,3.2l1.6,0.8c-2.4,4-4,8.8-4,14.4c0,0.8,0,1.6,0,1.6c0,0.8,0,1.6,0,1.6
		c0,4.8,1.6,9.6,3.2,13.6v3.2l0.8,0.8c-1.6,0-3.2,1.6-3.2,4s1.6,4,4,4c1.6,0,3.2-1.6,4-3.2c0.8,0.8,2.4,1.6,3.2,2.4l0.8-0.8l0,0
		c4,2.4,8.8,4,14.4,4c2.4,0,4.8,0,7.2-0.8c6.4,7.2,18.4,15.2,33.6,16.8v0.8c-0.8,0.8-1.6,1.6-1.6,3.2c0,0.8,0,0.8,0,1.6
		c0,0.8-0.8,0.8-0.8,1.6c-0.8,3.2,0.8,9.6,0.8,9.6l0,0l0,0l0,0c0.8,0.8,1.6,0.8,3.2,0.8s2.4-0.8,3.2-0.8l0,0l0,0l0,0c0,0,0,0,0-0.8
		c0.8,0,1.6-0.8,2.4-0.8l0,0l0,0h0.8c0,0,1.6-6.4,0.8-9.6c0-0.8-0.8-1.6-0.8-1.6c0-0.8,0-0.8,0-1.6c0-0.8,0-1.6-0.8-2.4
		c14.4-1.6,25.6-9.6,32-16.8c2.4,0.8,4.8,0.8,6.4,0.8c5.6,0,10.4-1.6,14.4-4l0,0l0.8,0.8c0.8-0.8,2.4-1.6,3.2-2.4
		c0,1.6,1.6,3.2,4,3.2s4-1.6,4-4c0-1.6-1.6-3.2-3.2-4l0.8-0.8v-3.2c2.4-4,3.2-8.8,3.2-13.6c0-0.8,0-1.6,0-1.6c0-0.8,0-1.6,0-1.6
		c0-4.8-1.6-10.4-4-14.4l1.6-0.8c-0.8-0.8-1.6-1.6-2.4-3.2h0.8c2.4,0,4-1.6,4-4s-1.6-4-4-4s-4,1.6-4,4v0.8c-0.8-0.8-1.6-1.6-3.2-2.4
		l-0.8,0.8c-4.8-3.2-9.6-4.8-16-4.8c-4.8,0-8.8,0.8-12.8,3.2l2.4-3.2l-0.8,0.8l-2.4-2.4l-0.8,0.8c0-1.6-0.8-2.4-2.4-4
		c-4-4-9.6-7.2-15.2-12c0.8,0,1.6,0,1.6-0.8c0.8-0.8,0.8-1.6,0.8-2.4c0-0.8-0.8-1.6-1.6-1.6l0,0l6.4-4.8c1.6,0,2.4-0.8,2.4-2.4l0,0
		c1.6,0.8,2.4,1.6,4,1.6s2.4,0,3.2-0.8l0.8-0.8l0,0l0,0l0,0l7.2-7.2l0,0l0,0l0,0c0,0,0,0,0.8-0.8c0,0,0,0,0-0.8c0,0,0,0,0.8-0.8
		c0,0,0,0,0-0.8V224c0,0,0,0,0-0.8v-0.8v-0.8c0,0,0,0,0-0.8l0,0l8,8v3.2v-2.4l-8-8v4l8,8l0,0l0,0l0,0l0,0l2.4-1.6v4l10.4,10.4l12-12
		v-8l2.4-2.4h-4l-8-8l-4,4l0,0l0,0v4l-4-4l4-4v-4l-4-4l-2.4,2.4l6.4-6.4v4l4,4l4-4v-4l0,0l4,4l-4,4v4l14.4,14.4l12-12v-8L460,207.2z
		 M430.4,176L430.4,176L430.4,176L430.4,176z M425.6,180L425.6,180L425.6,180L425.6,180z M424,181.6L424,181.6L424,181.6L424,181.6
		L424,181.6z M425.6,180L425.6,180L425.6,180L425.6,180z M426.4,179.2L426.4,179.2L426.4,179.2L426.4,179.2z M426.4,180.8
		L426.4,180.8L426.4,180.8z M428,177.6L428,177.6L428,177.6L428,177.6z M428.8,176.8L428.8,176.8L428.8,176.8L428.8,176.8z
		 M404.8,221.6L404.8,221.6l0.8-0.8l0,0l0.8-0.8l0,0c0,0,0,0,0,0.8c0,0.8,0,0.8,0,1.6l0,0c0,0.8,0,0.8,0,1.6l0,0
		c0,1.6-0.8,2.4-0.8,4c-1.6,0-3.2-0.8-4.8-2.4l2.4-2.4C404,224,404.8,223.2,404.8,221.6z M383.2,230.4l-4.8,7.2c0-0.8,0-0.8,0-1.6
		c0-0.8-0.8-1.6-2.4-1.6c-0.8,0-1.6,0-1.6,0.8c0,0.8-0.8,1.6,0,1.6v0.8l-0.8-0.8l-4.8-8l0,0l0,0c0-1.6-1.6-2.4-2.4-2.4l0,0
		c2.4-3.2,4.8-8,6.4-12c1.6,0,2.4,0,4,0c0.8,0,2.4,0,3.2,0c1.6,4.8,4,8.8,6.4,12.8C384.8,228,384,229.6,383.2,230.4z M346.4,228.8
		c-0.8-1.6-0.8-4-0.8-5.6l0,0c0-0.8,0-0.8,0-1.6l0,0v-0.8l0.8,0.8l0.8,0.8l0,0c0,1.6,0.8,2.4,2.4,2.4l2.4,2.4
		C349.6,227.2,348,228,346.4,228.8z M320.8,176L320.8,176L320.8,176L320.8,176z M322.4,176.8L322.4,176.8L322.4,176.8L322.4,176.8z
		 M323.2,177.6L323.2,177.6L323.2,177.6L323.2,177.6z M324.8,179.2L324.8,179.2L324.8,179.2L324.8,179.2z M324.8,180.8L324.8,180.8
		L324.8,180.8z M325.6,180L325.6,180L325.6,180L325.6,180z M325.6,180L325.6,180L325.6,180L325.6,180z M327.2,181.6L327.2,181.6
		L327.2,181.6L327.2,181.6L327.2,181.6z M423.2,182.4L423.2,182.4L423.2,182.4L423.2,182.4z M426.4,184L426.4,184
		c-0.8-0.8-0.8-0.8-1.6-1.6C425.6,183.2,425.6,183.2,426.4,184z M425.6,180.8c0,0.8,0.8,0.8,0.8,1.6
		C426.4,182.4,425.6,181.6,425.6,180.8z M427.2,179.2L427.2,179.2L427.2,179.2L427.2,179.2z M428,180c0,0.8,0.8,0.8,1.6,1.6
		C428.8,180.8,428,180,428,180z M428,178.4L428,178.4L428,178.4c0,0.8,0.8,1.6,1.6,2.4C428.8,180,428,179.2,428,178.4z M432.8,177.6
		C432,177.6,432,177.6,432.8,177.6c-0.8-0.8-0.8-0.8-1.6-1.6C431.2,176.8,432,177.6,432.8,177.6z M400,179.2L400,179.2L400,179.2
		L400,179.2z M396.8,160L396.8,160L396.8,160L396.8,160z M394.4,152c-0.8,0-1.6,0-2.4-0.8l0,0C392.8,152,393.6,152,394.4,152z
		 M354.4,160L354.4,160L354.4,160L354.4,160z M350.4,179.2c0,0,0.8,0,0.8-0.8l0,0C351.2,179.2,351.2,179.2,350.4,179.2z
		 M318.4,177.6c0.8-0.8,0.8-0.8,1.6-1.6C320,176.8,319.2,177.6,318.4,177.6C319.2,177.6,319.2,177.6,318.4,177.6z M323.2,177.6
		L323.2,177.6C323.2,178.4,323.2,178.4,323.2,177.6c-0.8,1.6-0.8,1.6-1.6,2.4C322.4,180,323.2,179.2,323.2,177.6z M321.6,180.8
		c0.8,0,0.8-0.8,1.6-1.6C323.2,180,322.4,180.8,321.6,180.8z M324,179.2L324,179.2L324,179.2L324,179.2z M324,182.4
		c0.8-0.8,0.8-0.8,0.8-1.6C324.8,181.6,324.8,182.4,324,182.4z M326.4,182.4c0,0.8-0.8,0.8-0.8,1.6l0,0
		C325.6,183.2,325.6,183.2,326.4,182.4z M328,182.4L328,182.4L328,182.4L328,182.4z M309.6,209.6l-2.4-2.4L309.6,209.6l1.6-1.6
		L309.6,209.6z M324,223.2L324,223.2L324,223.2L324,223.2z M330.4,229.6v2.4V229.6l8-8l0,0L330.4,229.6z M360,272L360,272
		c0.8-0.8,1.6-1.6,3.2-3.2c3.2-3.2,6.4-8,9.6-12.8v8.8c-1.6,8.8-4.8,18.4-8,26.4c-1.6,4-4,7.2-5.6,9.6c0.8-1.6,0.8-4,0.8-5.6
		c0-0.8,0-1.6,0-1.6c0-0.8,0-1.6,0-1.6c0-4.8-1.6-9.6-4-13.6l2.4-3.2l-0.8-0.8L360,272z M338.4,311.2L338.4,311.2L338.4,311.2
		c0.8,0,0.8,0,0.8,0C339.2,311.2,338.4,311.2,338.4,311.2z M328.8,312L328.8,312c-8-1.6-13.6-7.2-16-14.4h0.8c0.8,0,1.6-0.8,1.6-1.6
		c0-0.8,0-4,0-4l0,0l0,0c0-0.8-0.8-1.6-1.6-1.6h-0.8c2.4-7.2,8-12.8,16-14.4l0,0c0.8,0,1.6,0.8,1.6,1.6c0,0.8,0.8,1.6,1.6,1.6
		c0.8,0,1.6-0.8,1.6-1.6c0-0.8,0.8-1.6,1.6-1.6l0,0c7.2,1.6,13.6,7.2,16,14.4h-0.8c-0.8,0-1.6,0.8-1.6,1.6l0,0l0,0v4
		c0,0.8,0.8,1.6,1.6,1.6h0.8c-1.6,4-4,8-7.2,10.4l0,0c-0.8,0-0.8,0-1.6-0.8l0,0c-0.8,0-0.8,0-1.6,0l0,0c-0.8,0-0.8,0-1.6,0l0,0h-0.8
		l0,0l0,0h-0.8l0,0l0,0c-1.6,0-3.2,1.6-4,4l0,0l0,0c0-0.8-0.8-1.6-1.6-1.6c-0.8,0-1.6,0.8-1.6,1.6C330.4,311.2,329.6,312,328.8,312z
		 M344,320.8c0.8-0.8,1.6-0.8,2.4-1.6l0,0l0.8,0.8c0.8-0.8,2.4-1.6,3.2-2.4c0.8,1.6,1.6,3.2,4,3.2s4-1.6,4-4c0-1.6-1.6-3.2-3.2-4
		l0.8-0.8v-1.6c0.8,0,0.8-0.8,1.6-0.8c4-3.2,8-8.8,11.2-15.2c1.6-3.2,3.2-7.2,4-10.4v51.2C360,333.6,349.6,326.4,344,320.8z
		 M380,334.4c0-8.8,0-30.4,0-48.8c0.8,3.2,2.4,5.6,3.2,8.8c3.2,6.4,6.4,12,11.2,15.2l0.8,0.8v1.6l0.8,0.8c-1.6,0-3.2,1.6-3.2,4
		s1.6,4,4,4c1.6,0,3.2-1.6,4-3.2c0.8,0.8,2.4,1.6,3.2,2.4l0.8-0.8l0,0c0.8,0.8,2.4,0.8,3.2,1.6C402.4,326.4,392,332.8,380,334.4z
		 M437.6,297.6h0.8c-2.4,7.2-8,12.8-16,14.4l0,0c-0.8,0-1.6-0.8-1.6-1.6c0-0.8-0.8-1.6-1.6-1.6c-0.8,0-1.6,0.8-1.6,0.8
		c-0.8-1.6-2.4-2.4-4-3.2l0,0l0,0h-0.8l0,0l0,0H412l0,0c0,0-0.8,0-1.6,0l0,0c-0.8,0-0.8,0-1.6,0l0,0c-0.8,0-0.8,0-1.6,0.8l0,0
		c-3.2-2.4-6.4-6.4-7.2-10.4h0.8c0.8,0,1.6-0.8,1.6-1.6v-4l0,0l0,0c0-0.8-0.8-1.6-1.6-1.6H400c2.4-7.2,8-12.8,16-14.4l0,0
		c0.8,0,1.6,0.8,1.6,1.6c0,0.8,0.8,1.6,1.6,1.6c0.8,0,1.6-0.8,1.6-1.6c0-0.8,0.8-1.6,1.6-1.6l0,0c7.2,1.6,13.6,7.2,16,14.4h-0.8
		c-0.8,0-1.6,0.8-1.6,1.6l0,0l0,0c0,0,0,2.4,0,4C436,296.8,436.8,297.6,437.6,297.6z M412.8,311.2
		C412.8,311.2,413.6,311.2,412.8,311.2c0.8,0,0.8,0,0.8,0l0,0C413.6,311.2,412.8,311.2,412.8,311.2z M412.8,311.2L412.8,311.2
		L412.8,311.2L412.8,311.2z M393.6,274.4L393.6,274.4l1.6,3.2c-2.4,4-4,8.8-4,13.6c0,0.8,0,1.6,0,1.6c0,0.8,0,1.6,0,1.6
		c0,1.6,0,3.2,0.8,5.6c-1.6-2.4-3.2-5.6-4.8-8.8c-3.2-6.4-5.6-14.4-7.2-22.4c0-4,0-8,0-11.2c3.2,4,5.6,8,8.8,11.2
		c1.6,1.6,2.4,2.4,4,2.4l-1.6,0.8L393.6,274.4z M427.2,224L427.2,224L427.2,224L427.2,224z M427.2,203.2l2.4-2.4L427.2,203.2
		L427.2,203.2z"/>
</g>
<path style="fill:#E2C103;" d="M456,207.2l-4-4l-2.4,2.4v-4l-8-8l-1.6,1.6v-4l-2.4-2.4l1.6-1.6c1.6,0,2.4-0.8,2.4-2.4l1.6-1.6
	l-0.8,0.8c1.6,0,2.4-0.8,2.4-2.4c0-0.8-0.8-0.8-0.8-1.6l0.8-0.8h0.8c1.6,0,3.2-1.6,3.2-4s-1.6-3.2-3.2-3.2s-3.2,1.6-3.2,3.2v0.8
	l-0.8,0.8c-0.8,0-0.8-0.8-1.6-0.8c-1.6,0-2.4,0.8-2.4,2.4l0.8-0.8l-1.6,1.6c-1.6,0-2.4,0.8-2.4,2.4l-3.2,3.2l0,0l-15.2,16l0,0
	c0-0.8,0-0.8,0-1.6v-0.8c0-1.6,0-3.2,0-4.8v-0.8V192c0-0.8,0-0.8,0-1.6v-0.8v-0.8V188c0,0,0-0.8,0-1.6v-0.8c0-0.8,0-0.8,0-1.6v-0.8
	v-0.8v-0.8v-0.8V180v-0.8v-0.8v-0.8v-0.8V176c0,0,0,0,0-0.8c0,0,0,0,0-0.8l0,0l0,0c0,0,0,0,0.8,0l0,0c0,0,0,0,0.8,0l0,0
	c0,0,0,0,0.8,0l0,0c0,0,0,0,0.8,0l0,0c0,0,0,0,0.8,0.8c0,0,0,0,0,0.8c0,0,0,0,0.8,0.8c0,0,0,0,0,0.8c0,0,0,0,0.8,0.8c0,0,0,0,0,0.8
	c0,0,0,0.8,0.8,0.8c0,0,0,0,0,0.8c0,0,0,0.8,0.8,0.8l0,0c0,0,0,0.8,0.8,0.8l0,0c0.8,1.6,1.6,2.4,2.4,4c0,0,0,0,0.8,0c0,0,0,0,0-0.8
	c-0.8-0.8-1.6-1.6-1.6-2.4c0,0,0,0.8,0.8,0.8l0.8,0.8l0.8,0.8l0,0l0,0l0,0l0,0l0,0l0,0l0,0l0,0l0,0l0,0c-0.8,0-0.8-0.8-1.6-1.6
	c0.8,0.8,0.8,0.8,1.6,0.8l0,0l0,0l0,0c0,0,0,0,0.8,0l0,0l0,0l0,0l0,0l0,0c0,0,0,0,0-0.8c-0.8-0.8-1.6-1.6-2.4-3.2
	c0.8,0.8,1.6,2.4,2.4,2.4l0,0l0,0l0,0c0,0,0,0,0.8,0l0,0l0,0c0,0,0,0,0.8,0l0,0l0,0l0,0c0,0,0,0,0.8,0l0,0l0,0c0,0,0,0,0-0.8
	c-0.8-0.8-1.6-1.6-1.6-2.4c0,0,0,0.8,0.8,0.8c0,0,0.8,0.8,1.6,0.8c0,0,0,0,0.8,0.8l0,0l0,0l0,0l0,0l0,0l0,0l0,0l0,0l0,0l0,0
	c-0.8,0-0.8-0.8-1.6-1.6c0.8,0.8,0.8,0.8,1.6,0.8l0,0l0,0l0,0c-0.8,0-1.6-1.6-2.4-2.4l0,0l0,0c0,0,0-0.8-0.8-0.8l0,0
	c0,0,0-0.8-0.8-0.8l0,0l-0.8-0.8l0,0c0,0,0-0.8-0.8-0.8l0,0c-0.8-0.8-0.8-0.8-1.6-1.6l0,0c0,0-0.8,0-0.8-0.8l0,0c0,0-0.8,0-0.8-0.8
	l0,0h-0.8l0,0h-0.8l0,0h-0.8l0,0l0,0l0,0c0,0,0,0-0.8,0c0,0,0,0-0.8,0c0,0,0,0-0.8,0l0,0c0,0,0,0-0.8,0l0,0c0,0-0.8,0-0.8,0.8l0,0
	l0,0l-7.2,7.2l0,0l0,0l0,0l0,0c0,0,0,0-0.8,0.8l-0.8,0.8l-0.8,0.8l0,0c0,0,0,0.8-0.8,0.8v0.8v0.8v0.8v0.8v0.8v0.8v0.8v0.8v0.8v0.8
	v0.8v0.8c0,0.8,0,0.8,0,1.6v0.8c0,0.8,0,0.8,0,1.6c0,0,0,0,0,0.8c0,0.8,0,0.8,0,1.6c0,0,0,0,0,0.8c0,0.8,0,0.8,0,1.6l0,0
	c0,0.8,0,1.6,0,1.6l0,0c0,4,0,8,0,12l-7.2,0.8c-1.6,0-2.4,0.8-2.4,2.4l-2.4,2.4c0-0.8-0.8-0.8-0.8-1.6c-0.8-1.6-2.4-3.2-3.2-5.6
	c3.2-0.8,5.6-1.6,5.6-2.4l0,0c0,0,0,0,0-0.8v-1.6l0.8-0.8l-0.8-0.8v-0.8l0,0c0,0,0-0.8-0.8-0.8c0,0,0,0-0.8,0v-0.8
	c0.8,0,1.6-0.8,1.6-1.6l0,0c0.8,0,1.6,0,2.4-1.6c0.8-0.8,0.8-2.4,0-2.4s-1.6,0-2.4,1.6c0,0.8-0.8,0.8-0.8,1.6
	c-0.8,0.8-0.8,0.8-1.6,0.8v-0.8h0.8c0.8-0.8,0.8-1.6,0-1.6l0,0l0,0h0.8c0.8,0,0.8-0.8,0.8-1.6c0-0.8-0.8-0.8-0.8-1.6
	c0.8-2.4,0.8-4,1.6-6.4c0,0,0.8,0,0.8-0.8c0,0,0,0,0-0.8v-1.6l0.8-0.8l-0.8-0.8v-1.6c0,0,0,0,0-0.8c0-0.8,0-0.8-0.8-0.8h-0.8l0,0
	c0.8,0,2.4-0.8,3.2-2.4l0,0c0.8,0.8,1.6,0,2.4-1.6s0.8-2.4,0-3.2c-0.8-0.8-1.6,0-2.4,1.6c0,0.8-0.8,0.8-0.8,1.6
	c-0.8,0.8-1.6,1.6-2.4,1.6c0-0.8,0-0.8,0-1.6c0.8,0,1.6,0,2.4,0c0.8-0.8,0.8-1.6,0-1.6s-1.6-0.8-2.4-1.6c0.8,0.8,2.4,1.6,3.2,1.6
	c0.8,0,0.8-0.8,0.8-1.6c0-0.8-0.8-1.6-1.6-1.6c-0.8,0-1.6-0.8-1.6,0c0,0.8,0.8,2.4,0.8,2.4s1.6-0.8,0.8-1.6c0-3.2-0.8-6.4-1.6-8.8
	c0,0,0.8,0,0.8-0.8c0,0,0,0,0-0.8V164l0.8-0.8l0.8,0v-0.8l0,0c0-0.8,0-0.8-0.8-0.8s-0.8,0-1.6-0.8c0.8,0,2.4-0.8,3.2-2.4l0,0
	c0.8,0.8,1.6,0,2.4-1.6s0.8-2.4,0-3.2c-0.8-0.8-1.6,0-2.4,1.6c0,0.8-0.8,0.8-0.8,1.6c-0.8,0.8-2.4,2.4-3.2,1.6
	c-0.8,0-1.6-1.6-2.4-2.4l0.8-0.8c0-0.8-0.8-0.8-0.8-0.8c-0.8,0-0.8,0.8-0.8,0.8v0.8l0,0c0-0.8-0.8-0.8-0.8-1.6h0.8
	c0.8-0.8-0.8-1.6-1.6-1.6c0.8,0,2.4,0.8,2.4,0.8c0.8-0.8,0.8-1.6,0-2.4c0-0.8-3.2-0.8-3.2-0.8s2.4,0,2.4-0.8c0-0.8-0.8-0.8-1.6-1.6
	c-0.8,0-1.6,0-2.4,0s-0.8,0.8-0.8,1.6l0,0c0-0.8,0-1.6-0.8-1.6l0,0l0,0l0,0c0-0.8,0.8-1.6,0.8-2.4c0,0.8-0.8,2.4,0,3.2
	c0.8,0.8,1.6,0.8,1.6,0c0.8,0,0.8-0.8,0.8-1.6c0-0.8,0-1.6-0.8-1.6s-1.6,1.6-1.6,1.6s0.8-2.4,0.8-3.2c2.4,0,1.6-0.8,0.8,0
	c-0.8,0-0.8,1.6-0.8,2.4c0-0.8,0-2.4-0.8-2.4s-0.8,0.8-0.8,1.6c-2.4-3.2-5.6-5.6-8.8-8l0,0c0-0.8,0-2.4,0-3.2c-0.8,0-0.8,0-1.6,0
	v-5.6l3.2,0.8v-4l-3.2,0.8l0.8-4h-4l0.8,4l-3.2-0.8v4l3.2-0.8v5.6c-0.8,0-0.8,0-1.6,0c0,0.8,0,1.6,0,3.2l0,0
	c-3.2,2.4-6.4,5.6-9.6,8.8c0-0.8-0.8-1.6-0.8-1.6c-0.8,0-0.8,1.6-0.8,1.6c0-0.8,0-2.4-0.8-2.4c-0.8-0.8-1.6,0-1.6,0.8
	c0,0.8,0.8,3.2,0.8,3.2s-0.8-1.6-1.6-1.6c-0.8,0-0.8,0.8-0.8,1.6c0,0.8,0.8,1.6,0.8,1.6c0.8,0.8,1.6,0,1.6,0s0-1.6,0-3.2
	c0,0.8,0,1.6,0.8,2.4c0,0,0,0.8,0.8,0.8l0,0c0,0,0,0-0.8,0s-0.8,0.8-0.8,2.4c0,0,0,0.8-0.8,0.8l0,0c-0.8,0-1.6,0-2.4,0.8
	c0.8,0,2.4-0.8,2.4-0.8c0-0.8,0-1.6-0.8-1.6s-1.6-0.8-2.4,0c-0.8,0-1.6,0.8-1.6,1.6c0,0.8,2.4,0.8,2.4,0.8s-2.4,0-3.2,0.8
	c0,0.8-0.8,1.6,0,2.4c0,0,2.4,0,2.4-0.8c-0.8,0-1.6,0.8-1.6,1.6l0.8,0.8c0,0.8-0.8,0.8-0.8,1.6c0,0,0,0-0.8-0.8c0,0,0,0,0-0.8
	c0-0.8-0.8-0.8-0.8-0.8c-0.8,0-0.8,0.8-0.8,0.8c0,0.8,0.8,0.8,0.8,0.8l0,0c0,0.8,0,2.4-1.6,2.4c-1.6,0.8-2.4-0.8-4-1.6
	c0-0.8,0-0.8-0.8-1.6c-0.8-1.6-1.6-1.6-2.4-1.6c-0.8,0.8-0.8,1.6,0,3.2c0.8,1.6,1.6,1.6,2.4,1.6l0,0c0.8,1.6,2.4,2.4,4,2.4
	c-0.8,0-0.8,0-1.6,0.8l-0.8,0.8c0,0,0,0,0,0.8v0.8l0,0L348,168l0.8,0.8c0,0.8,0,0.8,0,1.6v0.8l0.8,0.8l0,0c3.2-1.6,2.4,0.8,2.4,4
	c-0.8,0-2.4,1.6-2.4,1.6s1.6-1.6,0.8-2.4c-0.8-0.8-1.6,0-1.6,0c-0.8,0-1.6,1.6-1.6,1.6c0,0.8,0,1.6,0.8,1.6s1.6-0.8,3.2-1.6
	c-0.8,0.8-1.6,0.8-2.4,1.6c-0.8,0.8-0.8,1.6,0,1.6c0.8,0.8,1.6,0.8,2.4,0l0,0c0,0.8,0,0.8,0,1.6c-0.8,0-1.6-1.6-3.2-1.6
	c0-0.8,0-0.8-0.8-1.6c-0.8-1.6-2.4-1.6-2.4-1.6c-0.8,0.8-0.8,1.6,0,3.2s2.4,1.6,2.4,1.6l0,0c0.8,0.8,1.6,2.4,3.2,2.4l0,0h-0.8
	l-0.8,0.8c0,0,0,0,0.8,0.8v0.8l0,0l-0.8,0.8l0.8,0.8c0,0.8,0,0.8,0,1.6v0.8l0.8,0.8c0,2.4,0.8,4,0.8,6.4l0,0c-0.8,0-0.8,0.8-0.8,1.6
	c0,0.8,0,1.6,0.8,1.6h0.8l0,0c0,0,0,0-0.8,0s-0.8,0.8,0,1.6l0.8,0.8c0,0,0,0,0,0.8c-0.8,0-0.8-0.8-1.6-0.8c0-0.8,0-0.8-0.8-1.6
	c-0.8-0.8-1.6-1.6-2.4-1.6s-0.8,1.6,0,2.4s1.6,1.6,2.4,1.6l0,0c0.8,0.8,1.6,1.6,2.4,1.6c0,0,0,0,0,0.8l0,0l-0.8,0.8l0,0v0.8l0,0
	l-0.8,0.8l0.8,0.8c0,0.8,0,0.8,0,0.8v0.8c0,0,0,0,0,0.8c0,0.8,2.4,1.6,4.8,1.6c-1.6,2.4-2.4,4.8-4,6.4l-2.4-2.4
	c0-1.6-1.6-2.4-2.4-2.4l-6.4-6.4c0-4.8,0-8.8,0-13.6l0,0c0-0.8,0-0.8,0-1.6c0,0,0,0,0-0.8c0-0.8,0-0.8,0-1.6c0,0,0,0,0-0.8
	c0-0.8,0-0.8,0-1.6V188c0-0.8,0-0.8,0-1.6v-0.8c0-0.8,0-0.8,0-0.8V184v-0.8v-0.8v-0.8v-0.8V180v-0.8v-0.8v-0.8v-0.8
	c0,0,0-0.8-0.8-0.8l0,0c0-0.8-0.8-0.8-0.8-0.8l-0.8-0.8c-0.8-0.8-0.8-0.8-0.8-0.8l0,0l0,0l0,0l0,0l-7.2-7.2l0,0l0,0
	c0,0-0.8,0-0.8-0.8l0,0c0,0,0,0-0.8,0l0,0c0,0,0,0-0.8,0c0,0,0,0-0.8,0c0,0,0,0-0.8,0l0,0l0,0l0,0h-0.8l0,0h-0.8l0,0H324l0,0
	c0,0-0.8,0-0.8,0.8l0,0c0,0-0.8,0-0.8,0.8l0,0l-0.8,0.8l0,0l-0.8,0.8l0,0l-0.8,0.8l0,0l-0.8,0.8l0,0c0,0,0,0.8-0.8,0.8l0,0
	c0,0,0,0.8-0.8,0.8l0,0l0,0c-0.8,1.6-0.8,2.4-2.4,2.4l0,0l0,0l0,0c0.8,0,0.8-0.8,1.6-0.8c0,0.8-0.8,0.8-1.6,1.6l0,0l0,0l0,0l0,0l0,0
	l0,0l0,0l0,0l0,0l0,0c0,0,0,0,0.8-0.8c0.8,0,0.8,0,1.6-0.8c0,0,0-0.8,0.8-0.8c-0.8,0.8-0.8,1.6-1.6,2.4c0,0,0,0,0,0.8l0,0l0,0
	c0,0,0,0,0.8,0l0,0l0,0l0,0c0,0,0,0,0.8,0l0,0l0,0c0,0,0,0,0.8,0l0,0l0,0c0,0,0,0,0.8,0c1.6,0,1.6-1.6,2.4-2.4
	c-0.8,0.8-0.8,2.4-2.4,3.2c0,0,0,0,0,0.8l0,0l0,0l0,0l0,0l0,0c0,0,0,0,0.8,0l0,0l0,0l0,0c0.8,0,0.8-0.8,1.6-0.8
	c0,0.8-0.8,0.8-1.6,1.6l0,0l0,0l0,0l0,0l0,0l0,0l0,0l0,0l0,0l0,0c0,0,0.8,0,0.8-0.8c0.8,0,0.8,0,0.8-0.8c0,0,0-0.8,0.8-0.8
	c-0.8,0.8-0.8,1.6-1.6,2.4c0,0,0,0,0,0.8c0,0,0,0,0.8,0c0.8-0.8,1.6-2.4,2.4-4l0,0l0,0c0,0,0-0.8,0.8-0.8l0,0c0,0,0-0.8,0.8-0.8
	c0,0,0,0,0-0.8c0,0,0-0.8,0.8-0.8c0,0,0,0,0-0.8c0,0,0,0,0.8-0.8c0,0,0,0,0-0.8c0,0,0,0,0.8-0.8c0,0,0,0,0-0.8c0,0,0,0,0.8-0.8l0,0
	c0,0,0,0,0.8,0c0,0,0,0,0.8,0c0,0,0,0,0.8,0l0,0c0,0,0,0,0.8,0l0,0c0,0,0,0,0.8,0l0,0l0,0c0,0,0,0,0,0.8c0,0,0,0,0,0.8v0.8
	c0,0,0,0,0,0.8v0.8v0.8c0,0,0,0.8,0,1.6v0.8c0,0.8,0,0.8,0,1.6v0.8c0,0.8,0,0.8,0,1.6v0.8c0,0.8,0,0.8,0,1.6c0,0,0,0,0,0.8
	c0,0.8,0,0.8,0,1.6l0,0c0,0.8,0,1.6,0,2.4l0,0c0,3.2,0,5.6,0,8.8l0,0v0.8L318.4,180l0,0l-3.2-3.2c0-1.6-1.6-2.4-2.4-2.4l-1.6-1.6
	l0.8,0.8c0-1.6-1.6-2.4-2.4-2.4s-0.8,0.8-1.6,0.8l0.8,4v-0.8c0-1.6-1.6-3.2-3.2-3.2s-3.2,1.6-3.2,3.2s1.6,3.2,3.2,3.2h0.8l0.8,0.8
	c0,0.8-0.8,0.8-0.8,1.6c0,1.6,0.8,2.4,2.4,2.4l1.6,1.6c0,1.6,0.8,2.4,2.4,2.4l0.8,1.6l-1.6,2.4v4l-2.4-2.4l-8,8v4l2.4,2.4l-4-4l-4,4
	h-4l-2.4,2.4v8l12,12l14.4-14.4v-4l-4-4l4-4v4l4,4l4-4v-4l4,4l-4,4v4l4,4l-4,4v-4l0,0l0,0l-4-4l-8,8h-4l-2.4,2.4l12,12v8l10.4-10.4
	V232l2.4,2.4l0,0l0,0l0,0l0,0l8-8v-4c0,0,0,0,0,0.8v0.8v0.8v0.8c0,0,0,0.8,0.8,0.8c0,0,0,0,0,0.8c0,0,0,0.8,0.8,0.8c0,0,0,0,0,0.8
	c0,0,0,0,0.8,0.8l0,0l0,0l0,0l7.2,7.2l0,0l0,0l0,0l0.8,0.8c0.8,0.8,2.4,0.8,3.2,0.8c1.6,0,2.4-0.8,4-1.6l0,0c0,1.6,0.8,2.4,2.4,2.4
	l7.2,4.8h-0.8c-0.8,0.8-1.6,1.6-0.8,2.4c0.8,0.8,1.6,1.6,2.4,0.8l0,0c-5.6,4-11.2,8-15.2,12c-1.6,1.6-2.4,2.4-2.4,4l-0.8-0.8
	l-2.4,2.4l-0.8-0.8l-2.4,3.2c-4-1.6-8-3.2-12.8-3.2c-5.6,0-11.2,1.6-16,4.8l-0.8-0.8c-0.8,0.8-1.6,1.6-3.2,2.4c0,0,0,0,0-0.8
	c0-2.4-1.6-4-4-4s-4,1.6-4,4s1.6,4,4,4h0.8c-0.8,0.8-1.6,1.6-2.4,3.2l1.6,0.8c-2.4,4-4,8.8-4,14.4c0,0.8,0,1.6,0,1.6
	c0,0.8,0,1.6,0,1.6v0.8l31.2,26.4c0.8,0,2.4-0.8,3.2-0.8c6.4,7.2,18.4,15.2,33.6,16.8v0.8c-0.8,0.8-1.6,1.6-1.6,3.2
	c0,0.8,0,0.8,0,1.6c0,0.8-0.8,0.8-0.8,1.6c-0.8,1.6,0,4.8,0,7.2l4.8,4c0.8,0,2.4-0.8,2.4-0.8l0,0c0,0,0,0,0-0.8
	c0.8,0,1.6-0.8,2.4-0.8h0.8c0,0,1.6-6.4,0.8-9.6c0-0.8-0.8-1.6-0.8-1.6c0-0.8,0-0.8,0-1.6c0-0.8,0-1.6-0.8-2.4
	c14.4-1.6,25.6-9.6,32-16.8c2.4,0.8,4.8,0.8,6.4,0.8c5.6,0,10.4-1.6,14.4-4l0,0l0.8,0.8c0.8-0.8,2.4-1.6,3.2-2.4
	c0,1.6,1.6,3.2,4,3.2s4-1.6,4-4c0-1.6-1.6-3.2-3.2-4l0.8-0.8v-3.2c2.4-4,3.2-8.8,3.2-13.6c0-0.8,0-1.6,0-1.6c0-0.8,0-1.6,0-1.6
	c0-4.8-1.6-10.4-4-14.4l1.6-0.8c-0.8-0.8-1.6-1.6-2.4-3.2h0.8c2.4,0,4-1.6,4-4s-1.6-4-4-4s-4,1.6-4,4v0.8c-0.8-0.8-1.6-1.6-3.2-2.4
	l-0.8,0.8c-4.8-3.2-9.6-4.8-16-4.8c-4.8,0-8.8,0.8-12.8,3.2l2.4-3.2l-0.8,0.8l-2.4-2.4l-0.8,0.8c0-1.6-0.8-2.4-2.4-4
	c-4-4-9.6-7.2-15.2-12c0.8,0,1.6,0,1.6-0.8c0.8-0.8,0.8-1.6,0.8-2.4c0-0.8-0.8-1.6-1.6-1.6l0,0l6.4-4.8c1.6,0,2.4-0.8,2.4-2.4l0,0
	c1.6,0.8,2.4,1.6,4,1.6s2.4,0,3.2-0.8l0.8-0.8l0,0l0,0l0,0l7.2-7.2l0,0l0,0l0,0c0,0,0,0,0.8-0.8c0,0,0,0,0-0.8c0,0,0,0,0.8-0.8
	c0,0,0,0,0-0.8V224c0,0,0,0,0-0.8v-0.8v-0.8c0,0,0,0,0-0.8l0,0l8,8v3.2v-2.4l-8-8v4l8,8l0,0l0,0l0,0l0,0l2.4-1.6v4l10.4,10.4l12-12
	v-8l2.4-2.4h-4l-8-8l-4,4l0,0l0,0v4l-4-4l4-4v-4l-4-4l-2.4,2.4l6.4-6.4v4l4,4l4-4v-4l4,4l-4,4v4l14.4,14.4l12-12v-8L460,208h-4
	V207.2z M432.8,177.6C432,177.6,432,177.6,432.8,177.6c-0.8-0.8-0.8-0.8-1.6-1.6C431.2,176.8,432,177.6,432.8,177.6z M430.4,176
	L430.4,176L430.4,176L430.4,176z M428.8,176.8L428.8,176.8L428.8,176.8L428.8,176.8z M428,177.6L428,177.6L428,177.6L428,177.6z
	 M428,177.6c0.8,0.8,0.8,1.6,1.6,2.4C428.8,180,428,179.2,428,177.6C428,178.4,428,178.4,428,177.6L428,177.6z M427.2,179.2
	L427.2,179.2L427.2,179.2L427.2,179.2z M426.4,179.2L426.4,179.2L426.4,179.2L426.4,179.2z M425.6,180L425.6,180L425.6,180
	L425.6,180z M425.6,180L425.6,180L425.6,180L425.6,180z M426.4,184L426.4,184c-0.8-0.8-0.8-0.8-1.6-1.6
	C425.6,183.2,425.6,183.2,426.4,184z M424,181.6L424,181.6L424,181.6L424,181.6L424,181.6z M423.2,182.4L423.2,182.4L423.2,182.4
	L423.2,182.4z M400.8,180C400,179.2,400,179.2,400.8,180C400,179.2,400,179.2,400.8,180C400,179.2,400,179.2,400.8,180z M396.8,160
	L396.8,160L396.8,160L396.8,160z M394.4,152c-0.8,0-1.6,0-2.4-0.8l0,0C392.8,152,393.6,152,394.4,152z M352,179.2h-0.8
	C351.2,179.2,351.2,179.2,352,179.2L352,179.2z M354.4,160L354.4,160L354.4,160L354.4,160z M319.2,177.6L319.2,177.6
	c0-0.8,0.8-0.8,0.8-1.6C320,176.8,319.2,177.6,319.2,177.6z M320.8,176L320.8,176L320.8,176L320.8,176z M323.2,177.6L323.2,177.6
	L323.2,177.6L323.2,177.6z M322.4,176.8L322.4,176.8L322.4,176.8L322.4,176.8z M323.2,178.4c-0.8,0.8-0.8,1.6-1.6,2.4
	C322.4,180,323.2,179.2,323.2,178.4L323.2,178.4L323.2,178.4z M325.6,180L325.6,180L325.6,180L325.6,180z M325.6,180L325.6,180
	L325.6,180L325.6,180z M324.8,179.2L324.8,179.2L324.8,179.2L324.8,179.2z M324,179.2L324,179.2L324,179.2L324,179.2z M324.8,184
	L324.8,184c0-0.8,0.8-0.8,0.8-1.6C325.6,183.2,325.6,183.2,324.8,184z M327.2,181.6L327.2,181.6L327.2,181.6L327.2,181.6
	L327.2,181.6z M328,182.4L328,182.4L328,182.4L328,182.4z M324,223.2L324,223.2L324,223.2L324,223.2z M330.4,229.6v2.4V229.6l8-8
	l0,0L330.4,229.6z M346.4,228.8c-0.8-1.6-0.8-4-0.8-5.6l0,0c0-0.8,0-0.8,0-1.6l0,0v-0.8l0.8,0.8l0.8,0.8c0,1.6,0.8,2.4,2.4,2.4
	l2.4,2.4C349.6,227.2,348,228,346.4,228.8z M338.4,311.2L338.4,311.2L338.4,311.2c0.8,0,0.8,0,0.8,0
	C339.2,311.2,338.4,311.2,338.4,311.2z M343.2,308c-0.8,0-0.8,0-1.6,0l0,0c-0.8,0-0.8,0-1.6,0l0,0h-0.8l0,0l0,0h-0.8
	c-1.6,0-3.2,1.6-4,4l0,0l0,0c0-0.8-0.8-1.6-1.6-1.6c-0.8,0-1.6,0.8-1.6,1.6c0,0.8-0.8,1.6-1.6,1.6l0,0c-7.2-1.6-13.6-7.2-16-14.4
	h0.8c0.8,0,1.6-0.8,1.6-1.6c0-0.8,0-4,0-4l0,0c0-0.8-0.8-1.6-1.6-1.6h-0.8c2.4-7.2,8-12.8,16-14.4l0,0c0.8,0,1.6,0.8,1.6,1.6
	c0,0.8,0.8,1.6,1.6,1.6c0.8,0,1.6-0.8,1.6-1.6c0-0.8,0.8-1.6,1.6-1.6l0,0c7.2,1.6,13.6,7.2,16,14.4h-0.8c-0.8,0-1.6,0.8-1.6,1.6l0,0
	l0,0v2.4c0,0.8,0.8,1.6,1.6,1.6h0.8c-1.6,4-4,8-7.2,10.4l0,0C344,308,343.2,308,343.2,308L343.2,308z M372.8,334.4
	c-12.8-0.8-23.2-7.2-28.8-13.6c0.8-0.8,1.6-0.8,2.4-1.6l0,0l0.8,0.8c0.8-0.8,2.4-1.6,3.2-2.4c0.8,1.6,1.6,3.2,4,3.2s4-1.6,4-4
	c0-1.6-1.6-3.2-3.2-4l0.8-0.8v-1.6c0.8,0,0.8-0.8,1.6-0.8c4-3.2,8-8.8,11.2-15.2c1.6-3.2,3.2-7.2,4-10.4V334.4z M372.8,265.6
	c-1.6,8.8-4.8,18.4-8,26.4c-1.6,4-4,7.2-5.6,9.6c0.8-1.6,0.8-4,0.8-5.6c0-0.8,0-1.6,0-1.6c0-0.8,0-1.6,0-1.6c0-4.8-1.6-9.6-4-13.6
	l2.4-3.2l-0.8-0.8l2.4-3.2l-0.8-0.8c0.8,0,2.4-0.8,4-2.4c3.2-3.2,6.4-8,9.6-12.8L372.8,265.6L372.8,265.6z M412.8,311.2
	C412.8,311.2,413.6,311.2,412.8,311.2c0.8,0,0.8,0,0.8,0l0,0C413.6,311.2,412.8,311.2,412.8,311.2z M402.4,292L402.4,292
	c0-0.8-0.8-1.6-1.6-1.6H400c2.4-7.2,8-12.8,16-14.4l0,0c0.8,0,1.6,0.8,1.6,1.6c0,0.8,0.8,1.6,1.6,1.6c0.8,0,1.6-0.8,1.6-1.6
	c0-0.8,0.8-1.6,1.6-1.6l0,0c7.2,1.6,13.6,7.2,16,14.4h-0.8c-0.8,0-1.6,0.8-1.6,1.6l0,0l0,0c0,0,0,2.4,0,4c0,0.8,0.8,1.6,1.6,1.6h0.8
	c-2.4,7.2-8,12.8-16,14.4l0,0c-0.8,0-1.6-0.8-1.6-1.6c0-0.8-0.8-1.6-1.6-1.6c-0.8,0-1.6,0.8-1.6,0.8c-0.8-1.6-2.4-2.4-4-3.2h-0.8
	l0,0l0,0H412l0,0c0,0-0.8,0-1.6,0l0,0c-0.8,0-0.8,0-1.6,0l0,0c-0.8,0-0.8,0-1.6,0.8l0,0c-3.2-2.4-6.4-6.4-7.2-10.4h0.8
	c0.8,0,1.6-0.8,1.6-1.6V292L402.4,292z M396.8,320.8c1.6,0,3.2-1.6,4-3.2c0.8,0.8,2.4,1.6,3.2,2.4l0.8-0.8l0,0
	c0.8,0.8,2.4,0.8,3.2,1.6c-5.6,6.4-16,12.8-28,13.6c0-8.8,0-30.4,0-48.8c0.8,3.2,2.4,5.6,3.2,8.8c3.2,6.4,6.4,12,11.2,15.2l0.8,0.8
	v1.6l0.8,0.8c-1.6,0-3.2,1.6-3.2,4C392.8,319.2,395.2,320.8,396.8,320.8z M388,268.8c1.6,1.6,2.4,2.4,4,2.4l-0.8,0.8l2.4,2.4
	l-0.8,0.8l2.4,3.2c-2.4,4-4,8.8-4,13.6c0,0.8,0,1.6,0,1.6c0,0.8,0,1.6,0,1.6c0,1.6,0,3.2,0.8,5.6c-1.6-2.4-3.2-5.6-4.8-8.8
	c-3.2-6.4-5.6-14.4-7.2-22.4c0-4,0-8,0-11.2C382.4,262.4,385.6,265.6,388,268.8z M383.2,230.4l-4.8,7.2c0-0.8,0-0.8,0-1.6
	c0-0.8-0.8-1.6-2.4-1.6c-0.8,0-1.6,0-1.6,0.8c0,0.8-0.8,1.6,0,1.6v0.8l-0.8-0.8l-4.8-8c0-1.6-1.6-2.4-2.4-2.4l0,0
	c2.4-3.2,4.8-8,6.4-12c1.6,0,2.4,0,4,0c0.8,0,2.4,0,3.2,0c1.6,4.8,4,8.8,6.4,12.8C384.8,228,384,229.6,383.2,230.4z M406.4,220.8
	L406.4,220.8c0,0.8,0,1.6,0,2.4l0,0c0,0.8,0,0.8,0,1.6l0,0c0,1.6-0.8,2.4-0.8,4c-1.6,0-3.2-0.8-4.8-2.4l2.4-2.4
	c1.6,0,2.4-0.8,2.4-2.4L406.4,220.8L406.4,220.8C406.4,220,406.4,220.8,406.4,220.8z M427.2,224L427.2,224L427.2,224L427.2,224z"/>
<g>
	<path style="fill:#FFE000;" d="M399.2,155.2c-0.8,0-1.6-0.8-2.4,0c0,0.8,0.8,1.6,1.6,1.6s1.6,0,2.4,0c0.8-0.8,0.8-1.6,0-1.6
		s-1.6-0.8-2.4-1.6c0.8,0.8,2.4,1.6,2.4,1.6c0.8,0,0.8-0.8,0.8-1.6c0-0.8-0.8-1.6-1.6-1.6c-0.8,0-1.6-0.8-1.6,0
		c0,0.8,0.8,1.6,0.8,1.6l-0.8-1.6c-0.8,0-1.6,0.8-1.6,1.6S398.4,155.2,399.2,155.2z"/>
	<path style="fill:#FFE000;" d="M404.8,153.6c1.6-1.6,2.4-2.4,2.4-3.2c0-0.8,0-1.6-0.8-0.8c-0.8,0-0.8,1.6-1.6,2.4
		c0-0.8,0.8-1.6,0-2.4c-0.8,0-1.6,0.8-1.6,1.6c0,0.8,0,1.6,0,2.4C403.2,154.4,404,153.6,404.8,153.6z"/>
	<path style="fill:#FFE000;" d="M349.6,155.2c0,0,1.6-0.8,2.4-1.6C351.2,154.4,350.4,155.2,349.6,155.2c0,0.8,0,1.6,0.8,2.4
		s1.6,0.8,2.4,0c0.8,0,1.6-1.6,1.6-1.6c0-0.8-1.6-0.8-2.4,0c0.8,0,2.4-0.8,2.4-1.6c0-0.8-0.8-1.6-1.6-1.6c-0.8,0-2.4,1.6-2.4,1.6
		s1.6-2.4,0.8-2.4c-0.8-0.8-0.8,0-1.6,0c-0.8,0-0.8,0.8-1.6,1.6C348,154.4,348.8,155.2,349.6,155.2z"/>
	<path style="fill:#FFE000;" d="M346.4,153.6c0.8,0,1.6,0.8,2.4,0c0.8-0.8,0.8-1.6,0-2.4c0-0.8-1.6-1.6-1.6-1.6
		c-0.8,0-0.8,1.6,0,2.4c0-0.8-0.8-2.4-1.6-2.4c-0.8-0.8-0.8,0-0.8,0.8C344,151.2,344,152,346.4,153.6z"/>
	<path style="fill:#FFE000;" d="M405.6,173.6c-0.8,0-1.6,0.8-1.6,1.6c0,0.8,0,1.6,0,2.4c0.8,0.8,1.6,0.8,2.4,0
		c1.6-1.6,2.4-2.4,2.4-3.2c0-0.8,0-1.6-0.8-0.8c-0.8,0-0.8,1.6-1.6,2.4C406.4,175.2,406.4,173.6,405.6,173.6z"/>
	<path style="fill:#FFE000;" d="M344.8,177.6c0.8,0,1.6,0.8,2.4,0c0.8-0.8,0.8-1.6,0-2.4c0-0.8-1.6-1.6-1.6-1.6
		c-0.8,0-0.8,1.6,0,2.4c0-0.8-0.8-2.4-1.6-2.4c-0.8-0.8-1.6,0-0.8,0.8C342.4,175.2,343.2,176.8,344.8,177.6z"/>
	<path style="fill:#FFE000;" d="M348.8,196.8c-0.8-0.8-0.8,0-0.8,0.8c0,0.8,0,1.6,1.6,3.2c0.8,0,1.6,0.8,1.6,0
		c0.8-0.8,0.8-1.6,0-2.4c0-0.8-0.8-1.6-1.6-1.6c-0.8,0-0.8,1.6,0,1.6C349.6,198.4,349.6,196.8,348.8,196.8z"/>
	<path style="fill:#FFE000;" d="M400.8,196.8c-0.8,0-1.6,0.8-1.6,1.6c0,0.8,0,1.6,0,2.4c0.8,0.8,1.6,0,1.6,0
		c1.6-0.8,1.6-2.4,1.6-3.2c0-0.8,0-1.6-0.8-0.8c-0.8,0-0.8,1.6-0.8,2.4C401.6,198.4,401.6,196.8,400.8,196.8z"/>
</g>
<g>
</g>
<g>
</g>
<g>
</g>
<g>
</g>
<g>
</g>
<g>
</g>
<g>
</g>
<g>
</g>
<g>
</g>
<g>
</g>
<g>
</g>
<g>
</g>
<g>
</g>
<g>
</g>
<g>
</g>
</svg>
