<?xml version="1.0" encoding="iso-8859-1"?>
<!-- Generator: Adobe Illustrator 19.0.0, SVG Export Plug-In . SVG Version: 6.00 Build 0)  -->
<svg version="1.1" id="Capa_1" xmlns="http://www.w3.org/2000/svg" xmlns:xlink="http://www.w3.org/1999/xlink" x="0px" y="0px"
	 viewBox="0 0 496 496" style="enable-background:new 0 0 496 496;" xml:space="preserve">
<path style="fill:#1EB53A;" d="M0,304v65.6C0,396.8,21.6,416,48,416h400c26.4,0,48-19.2,48-46.4V304H0z"/>
<path style="fill:#0099B5;" d="M448,80H48C21.6,80,0,99.2,0,126.4V192h496v-65.6C496,99.2,474.4,80,448,80z"/>
<rect y="192" style="fill:#FFFFFF;" width="496" height="112"/>
<path style="fill:#11A325;" d="M448,416c26.4,0,48-19.2,48-46.4V304H315.2L448,416z"/>
<path style="fill:#078C9E;" d="M448,80H48l132,112h316v-65.6C496,99.2,474.4,80,448,80z"/>
<polygon style="fill:#E1EAE2;" points="315.2,304 496,304 496,192 180,192 "/>
<path style="fill:#048089;" d="M448,80H48l370.4,112H496v-65.6C496,99.2,474.4,80,448,80z"/>
<polygon style="fill:#C2CEC3;" points="496,214.4 496,192 414.4,192 "/>
<path style="fill:#098914;" d="M496,368.8c0,30.4-21.6,47.2-48,47.2H48c-26.4,0-48-20.8-48-48"/>
<rect y="184" style="fill:#CE1126;" width="496" height="8"/>
<polygon style="fill:#A8071E;" points="180,192 496,192 496,184 169.6,184 "/>
<rect y="304" style="fill:#CE1126;" width="496" height="8"/>
<polygon style="fill:#A8071E;" points="315.2,304 324.8,312 496,312 496,304 "/>
<g>
	<path style="fill:#FFFFFF;" d="M75.2,102.4c-1.6,0-3.2-0.8-4.8-0.8c-16.8,0-31.2,13.6-31.2,31.2S52.8,164,70.4,164
		c1.6,0,3.2,0,4.8-0.8c-14.4-2.4-25.6-15.2-25.6-30.4C49.6,116.8,60.8,104.8,75.2,102.4z"/>
	<polygon style="fill:#FFFFFF;" points="90.4,155.2 88.8,151.2 87.2,155.2 83.2,155.2 86.4,158.4 85.6,162.4 88.8,160 92.8,162.4 
		91.2,158.4 95.2,155.2 	"/>
	<polygon style="fill:#FFFFFF;" points="115.2,155.2 113.6,151.2 112,155.2 108,155.2 111.2,158.4 110.4,162.4 113.6,160 
		117.6,162.4 116,158.4 119.2,155.2 	"/>
	<polygon style="fill:#FFFFFF;" points="140,155.2 138.4,151.2 136.8,155.2 132.8,155.2 136,158.4 134.4,162.4 138.4,160 
		142.4,162.4 140.8,158.4 144,155.2 	"/>
	<polygon style="fill:#FFFFFF;" points="164.8,155.2 163.2,151.2 161.6,155.2 157.6,155.2 160.8,158.4 159.2,162.4 163.2,160 
		167.2,162.4 165.6,158.4 168.8,155.2 	"/>
	<polygon style="fill:#FFFFFF;" points="189.6,155.2 188,151.2 186.4,155.2 182.4,155.2 185.6,158.4 184,162.4 188,160 191.2,162.4 
		190.4,158.4 193.6,155.2 	"/>
	<polygon style="fill:#FFFFFF;" points="113.6,126.4 112.8,130.4 108,130.4 112,133.6 110.4,137.6 113.6,135.2 117.6,137.6 
		116,133.6 120,130.4 115.2,130.4 	"/>
	<polygon style="fill:#FFFFFF;" points="138.4,126.4 137.6,130.4 132.8,130.4 136.8,133.6 135.2,137.6 138.4,135.2 142.4,137.6 
		140.8,133.6 144.8,130.4 140,130.4 	"/>
	<polygon style="fill:#FFFFFF;" points="163.2,126.4 162.4,130.4 157.6,130.4 161.6,133.6 160,137.6 163.2,135.2 167.2,137.6 
		165.6,133.6 169.6,130.4 164.8,130.4 	"/>
	<polygon style="fill:#FFFFFF;" points="189.6,130.4 188,126.4 187.2,130.4 182.4,130.4 185.6,133.6 184.8,137.6 188,135.2 
		192,137.6 190.4,133.6 194.4,130.4 	"/>
	<polygon style="fill:#FFFFFF;" points="136,108.8 134.4,112.8 138.4,110.4 141.6,112.8 140.8,108.8 144,105.6 140,105.6 
		138.4,101.6 136.8,105.6 132,105.6 	"/>
	<polygon style="fill:#FFFFFF;" points="160.8,108.8 159.2,112.8 163.2,110.4 166.4,112.8 165.6,108.8 168.8,105.6 164.8,105.6 
		163.2,101.6 161.6,105.6 156.8,105.6 	"/>
	<polygon style="fill:#FFFFFF;" points="185.6,108.8 184,112.8 188,110.4 191.2,112.8 190.4,108.8 193.6,105.6 188.8,105.6 
		188,101.6 186.4,105.6 181.6,105.6 	"/>
</g>
<g>
</g>
<g>
</g>
<g>
</g>
<g>
</g>
<g>
</g>
<g>
</g>
<g>
</g>
<g>
</g>
<g>
</g>
<g>
</g>
<g>
</g>
<g>
</g>
<g>
</g>
<g>
</g>
<g>
</g>
</svg>
