<?xml version="1.0" encoding="iso-8859-1"?>
<!-- Generator: Adobe Illustrator 19.0.0, SVG Export Plug-In . SVG Version: 6.00 Build 0)  -->
<svg version="1.1" id="Capa_1" xmlns="http://www.w3.org/2000/svg" xmlns:xlink="http://www.w3.org/1999/xlink" x="0px" y="0px"
	 viewBox="0 0 496 496" style="enable-background:new 0 0 496 496;" xml:space="preserve">
<path style="fill:#1A9647;" d="M0,304v65.6C0,396.8,21.6,416,48,416h400c26.4,0,48-19.2,48-46.4V304H0z"/>
<path style="fill:#1E8436;" d="M446.4,416c26.4,0,49.6-16,49.6-46.4V304H315.2L446.4,416z"/>
<path style="fill:#595959;" d="M448,80H48C21.6,80,0,99.2,0,126.4V192h496v-65.6C496,99.2,474.4,80,448,80z"/>
<path style="fill:#3A3A3A;" d="M448,80H48l131.2,112.8L496,192v-65.6C496,99.2,474.4,80,448,80z"/>
<path d="M448,80H48l367.2,112H496v-65.6C496,99.2,474.4,80,448,80z"/>
<polygon style="fill:#F3F4F5;" points="0,144 0,189.6 0,191.2 0,304.8 0,306.4 0,352 496,352 496,306.4 496,304.8 496,191.2 
	496,189.6 496,144 "/>
<polygon style="fill:#D3DDE5;" points="176,191.2 176,190.4 314.4,304.8 371.2,352 496,352 496,306.4 496,304.8 496,191.2 
	496,189.6 496,144 122.4,144 "/>
<polygon style="fill:#C1D1DB;" points="417.6,192 496,192 496,189.6 496,144 257.6,144 "/>
<rect y="168" style="fill:#C11F40;" width="496" height="160"/>
<polygon style="fill:#043C66;" points="176,190.4 176,190.4 314.4,305.6 343.2,328 496,328 496,306.4 496,304.8 496,191.2 
	496,189.6 496,168 152.8,168 "/>
<polygon style="fill:#A51134;" points="176,190.4 176,190.4 314.4,305.6 342.4,328 496,328 496,306.4 496,304.8 496,191.2 
	496,189.6 496,168 149.6,168 "/>
<path style="fill:#1C51BA;" d="M1.6,114.4c-0.8,4-1.6,8-1.6,12v40.8v24v114.4v24v40.8c0,4,0.8,8,1.6,11.2L196,248L1.6,114.4z"/>
<path style="fill:#214391;" d="M0,168v23.2v114.4v24v40.8c0,4,0.8,8,1.6,11.2L196,248"/>
<polygon style="fill:#F8D12E;" points="57.6,209.6 75.2,232.8 103.2,224 86.4,248 103.2,271.2 76,262.4 59.2,286.4 58.4,256.8 
	30.4,248 58.4,239.2 "/>
<g>
</g>
<g>
</g>
<g>
</g>
<g>
</g>
<g>
</g>
<g>
</g>
<g>
</g>
<g>
</g>
<g>
</g>
<g>
</g>
<g>
</g>
<g>
</g>
<g>
</g>
<g>
</g>
<g>
</g>
</svg>
