<?xml version="1.0" encoding="iso-8859-1"?>
<!-- Generator: Adobe Illustrator 19.0.0, SVG Export Plug-In . SVG Version: 6.00 Build 0)  -->
<svg version="1.1" id="Capa_1" xmlns="http://www.w3.org/2000/svg" xmlns:xlink="http://www.w3.org/1999/xlink" x="0px" y="0px"
	 viewBox="0 0 496 496" style="enable-background:new 0 0 496 496;" xml:space="preserve">
<path style="fill:#00D7E2;" d="M496,369.6c0,27.2-21.6,48.8-48,48.8H48c-26.4,0-48-21.6-48-48.8V126.4c0-27.2,21.6-48.8,48-48.8h400
	c26.4,0,48,21.6,48,48.8V369.6z"/>
<path style="fill:#09BECC;" d="M48,77.6h400c26.4,0,48,21.6,48,48.8v243.2c0,27.2-21.6,48.8-48,48.8"/>
<g>
	<path style="fill:#04B2BF;" d="M48,77.6h400c26.4,0,48,21.6,48,48.8v88.8"/>
	<path style="fill:#04B2BF;" d="M496,369.6c0,27.2-21.6,48.8-48,48.8H48c-26.4,0-48-21.6-48-48.8"/>
</g>
<g>
	<g>
		<path style="fill:#2354A3;" d="M68.8,261.6c0,5.6-3.2,11.2-9.6,11.2s-9.6-4-9.6-10.4V232H28v35.2c0,18.4,15.2,24,31.2,24
			c7.2,0,15.2-0.8,20.8-5.6c6.4-4,9.6-11.2,9.6-18.4V232H68.8V261.6z"/>
		<path style="fill:#2354A3;" d="M135.2,229.6c-8,0-13.6,3.2-19.2,8.8V232H95.2v56.8H116V260c0-6.4,2.4-12.8,10.4-12.8
			c7.2,0,9.6,5.6,9.6,12v29.6h20.8v-39.2C156.8,236.8,148,229.6,135.2,229.6z"/>
		<rect x="163.2" y="231.2" style="fill:#2354A3;" width="20.8" height="56.8"/>
		<path style="fill:#2354A3;" d="M189.6,260.8c0,16.8,13.6,29.6,29.6,29.6c5.6,0,11.2-0.8,16-4v-17.6c-3.2,1.6-7.2,3.2-11.2,3.2
			c-7.2,0-12-5.6-12-12.8c0-7.2,5.6-12.8,12.8-12.8c4,0,7.2,1.6,10.4,4v-17.6c-4.8-2.4-9.6-4-15.2-4
			C203.2,229.6,189.6,243.2,189.6,260.8z"/>
	</g>
	<g>
		<path style="fill:#0B2F77;" d="M308.8,208.8c-6.4,6.4-6.4,16-6.4,24V288h20.8v-40h11.2v-16h-11.2v-3.2c0-6.4,0.8-11.2,8.8-11.2
			h3.2v-15.2h-5.6C322.4,202.4,314.4,204,308.8,208.8z"/>
		<path style="fill:#0B2F77;" d="M356.8,262.4c0.8,0.8,0.8,0.8,1.6,0.8c0,0,0,0,0-0.8c0-3.2-4-10.4-5.6-12.8l-2.4-4
			c-0.8-0.8-1.6-3.2-2.4-3.2s-0.8,0.8-0.8,0.8c0,5.6,2.4,12.8,6.4,16.8L356.8,262.4z"/>
		<path style="fill:#0B2F77;" d="M355.2,250.4c0.8,0,0.8-1.6,0.8-2.4c0-4.8-0.8-9.6-2.4-13.6c0-0.8-1.6-6.4-2.4-6.4
			s-1.6,6.4-1.6,7.2c0,3.2,0.8,7.2,1.6,10.4C352,245.6,353.6,250.4,355.2,250.4z"/>
		<path style="fill:#0B2F77;" d="M356,237.6c1.6,0,2.4-10.4,2.4-11.2c0-0.8,0-8.8-1.6-8.8c-0.8,0-1.6,3.2-1.6,4
			c-0.8,2.4-0.8,4.8-0.8,7.2C353.6,228.8,354.4,237.6,356,237.6z"/>
	</g>
	<path style="fill:#2354A3;" d="M173.6,201.6c-6.4,0-12,5.6-12,12s5.6,12,12,12s12-5.6,12-12S180,201.6,173.6,201.6z"/>
	<g>
		<path style="fill:#0B2F77;" d="M269.6,228.8c-8,0-16,2.4-21.6,8c-6.4,5.6-9.6,15.2-9.6,23.2c0,5.6,1.6,12,4.8,16.8
			c4.8,9.6,15.2,13.6,25.6,13.6c6.4,0,13.6-1.6,19.2-4.8c5.6-4,8-8.8,9.6-15.2h-20c-1.6,3.2-4.8,5.6-8.8,5.6
			c-6.4,0-9.6-4.8-9.6-11.2h38.4c0-1.6,0.8-4,0.8-6.4C298.4,240.8,288.8,228.8,269.6,228.8z M259.2,252.8
			c0.8-5.6,3.2-10.4,10.4-10.4c6.4,0,8.8,4.8,8.8,10.4H259.2z"/>
		<path style="fill:#0B2F77;" d="M439.2,285.6c-5.6-1.6-11.2-2.4-16.8-2.4c-4.8,0-10.4,0.8-15.2,2.4c-4.8-1.6-9.6-2.4-14.4-2.4
			c-4,0-8,0.8-12,1.6l-4.8,0.8c-0.8,0-4.8,0.8-4.8,1.6l0,0l0.8,0.8l3.2,0.8c3.2,0.8,6.4,1.6,9.6,1.6c4.8,0,8-0.8,11.2-4.8l0.8-0.8
			c3.2,0,5.6,0.8,8,1.6c-4.8,3.2-9.6,5.6-12.8,9.6l1.6,1.6c1.6-1.6,3.2-3.2,4.8-4c1.6-0.8,7.2-4.8,8.8-4.8c1.6,0,8.8,5.6,10.4,6.4
			l1.6,1.6l0.8,0.8l1.6-1.6l-0.8-0.8c-3.2-3.2-7.2-5.6-12-8c2.4-0.8,5.6-1.6,8-1.6h0.8c1.6,4,7.2,5.6,10.4,5.6
			c1.6,0,13.6-1.6,13.6-3.2C443.2,286.4,439.2,285.6,439.2,285.6z"/>
		<path style="fill:#0B2F77;" d="M372.8,265.6l-0.8-0.8c-0.8,0-0.8,0.8-0.8,0.8c0,4,0.8,7.2,3.2,10.4c1.6,3.2,5.6,6.4,9.6,6.4
			c0.8,0,1.6,0,1.6-0.8c0-3.2-8.8-12.8-11.2-15.2L372.8,265.6z"/>
		<path style="fill:#0B2F77;" d="M379.2,283.2c0-2.4-20-9.6-22.4-9.6c0,0-0.8,0-0.8,0.8s4.8,4.8,5.6,5.6c3.2,2.4,7.2,4.8,12,4.8
			C374.4,284.8,379.2,284.8,379.2,283.2z"/>
		<path style="fill:#0B2F77;" d="M371.2,277.6c0.8,0,0.8-0.8,0.8-0.8c0-4-0.8-8-1.6-11.2c0-0.8-2.4-10.4-4-10.4
			c-0.8,0-1.6,8-1.6,9.6c0,2.4,0,5.6,1.6,8C367.2,272.8,369.6,277.6,371.2,277.6z"/>
		<path style="fill:#0B2F77;" d="M367.2,275.2c0-3.2-15.2-17.6-17.6-17.6c0,0,0,0,0,0.8c0,2.4,4,8,4.8,9.6
			C356.8,271.2,362.4,276,367.2,275.2C367.2,276,367.2,276,367.2,275.2z"/>
		<path style="fill:#0B2F77;" d="M362.4,266.4c0.8,0,0.8-0.8,0.8-1.6l0.8-3.2c1.6-4.8,1.6-9.6,1.6-15.2c0-0.8,0-2.4-0.8-2.4
			s-2.4,4.8-3.2,4.8c-0.8,2.4-1.6,5.6-1.6,8C359.2,258.4,360,266.4,362.4,266.4z"/>
		<path style="fill:#0B2F77;" d="M357.6,254.4c2.4,0,7.2-16,7.2-19.2l0,0c-0.8,0-3.2,3.2-3.2,3.2c-2.4,4-4.8,8-4.8,12
			C356.8,251.2,356,254.4,357.6,254.4z"/>
		<path style="fill:#0B2F77;" d="M357.6,241.6l1.6-1.6c2.4-2.4,8-11.2,8-14.4l0,0c-1.6,0-5.6,4-6.4,5.6c-2.4,3.2-4,6.4-4,10.4v0.8
			C356.8,242.4,357.6,241.6,357.6,241.6z"/>
		<path style="fill:#0B2F77;" d="M359.2,230.4c1.6,0,4.8-4,5.6-4.8c1.6-1.6,4.8-7.2,4.8-9.6v-0.8l0,0l-1.6,1.6
			C364,219.2,358.4,225.6,359.2,230.4C358.4,230.4,358.4,230.4,359.2,230.4z"/>
		<path style="fill:#0B2F77;" d="M359.2,224c0,0,0.8,0,0.8-0.8l0.8-0.8c2.4-2.4,4.8-6.4,5.6-9.6l0.8-2.4v-0.8v-0.8
			c-0.8,0-4,3.2-4.8,4c-2.4,2.4-4,6.4-4,9.6C358.4,223.2,359.2,224,359.2,224z"/>
		<path style="fill:#0B2F77;" d="M443.2,264.8c-1.6,0-14.4,15.2-14.4,17.6c0,0.8,0.8,0.8,0.8,0.8
			C438.4,283.2,443.2,273.6,443.2,264.8C443.2,265.6,443.2,264.8,443.2,264.8z"/>
		<path style="fill:#0B2F77;" d="M458.4,274.4c-4,0-16,4.8-19.2,6.4l-2.4,1.6c-0.8,0-1.6,0.8-1.6,1.6c0,1.6,4.8,1.6,4.8,1.6
			c4,0,8-1.6,11.2-3.2C452.8,280.8,459.2,276,458.4,274.4C459.2,274.4,458.4,274.4,458.4,274.4z"/>
		<path style="fill:#0B2F77;" d="M443.2,277.6C444,277.6,444,277.6,443.2,277.6l1.6-1.6c3.2-3.2,4.8-8,4.8-12.8c0-0.8,0-2.4,0-3.2
			l-0.8-3.2c0,0,0-1.6-0.8-1.6s-2.4,4.8-2.4,5.6c-1.6,4.8-3.2,10.4-3.2,16v0.8C443.2,276.8,443.2,277.6,443.2,277.6z"/>
		<path style="fill:#0B2F77;" d="M466.4,258.4C465.6,258.4,465.6,258.4,466.4,258.4l-1.6,0.8c-3.2,1.6-8,5.6-10.4,8
			c-1.6,1.6-7.2,7.2-7.2,8.8c0,0,0,0.8,0.8,0.8c1.6,0,5.6-2.4,7.2-3.2c4-2.4,8-7.2,9.6-12l0.8-2.4
			C466.4,259.2,466.4,258.4,466.4,258.4L466.4,258.4z"/>
		<path style="fill:#0B2F77;" d="M452.8,266.4c1.6,0,2.4-8,2.4-9.6c0-3.2-0.8-7.2-2.4-10.4l-1.6-2.4c0,0,0-0.8-0.8-0.8
			s-0.8,0.8-0.8,0.8v2.4c0,1.6,0,3.2,0,4.8C450.4,252.8,451.2,266.4,452.8,266.4z"/>
		<path style="fill:#0B2F77;" d="M458.4,254.4C458.4,254.4,458.4,253.6,458.4,254.4l0.8-2.4c0-0.8,0-1.6,0-2.4
			c0-2.4-0.8-4.8-1.6-7.2c-0.8-1.6-4-7.2-5.6-7.2c-0.8,0,0,4.8,0,4.8C452.8,241.6,456.8,254.4,458.4,254.4z"/>
		<path style="fill:#0B2F77;" d="M460,248.8c0,0,0,1.6,0.8,1.6c1.6,0,4-5.6,4-6.4c0.8-3.2,1.6-6.4,1.6-8.8c0-0.8,0-0.8,0-1.6v-2.4
			c0,0,0-2.4-0.8-2.4s-2.4,5.6-2.4,6.4C461.6,239.2,460,244,460,248.8z"/>
		<path style="fill:#0B2F77;" d="M456,264C456.8,264,456.8,263.2,456,264l1.6-0.8c3.2-1.6,6.4-5.6,7.2-9.6c1.6-3.2,2.4-6.4,2.4-10.4
			v-0.8C465.6,242.4,456,260,456,264C456,263.2,456,264,456,264z"/>
		<path style="fill:#0B2F77;" d="M458.4,240.8l0.8,0.8c0,0,0,0,0-0.8V240c0-4.8-3.2-9.6-7.2-12.8l-2.4-1.6l-0.8-0.8c0,0,0,0,0,0.8
			c0,2.4,5.6,10.4,7.2,12.8L458.4,240.8z"/>
		<path style="fill:#0B2F77;" d="M448,218.4c0.8,2.4,7.2,12,9.6,12c0.8,0,0-0.8,0-1.6c0-2.4-1.6-4.8-2.4-6.4s-5.6-6.4-7.2-6.4l0,0
			v0.8V218.4z"/>
		<path style="fill:#0B2F77;" d="M457.6,224c0.8,0,0.8-1.6,0.8-1.6c0-4-3.2-8-5.6-11.2l-2.4-1.6l-0.8-0.8c-0.8,0,0.8,4,0.8,4.8
			C450.4,215.2,455.2,224,457.6,224z"/>
		<path style="fill:#0B2F77;" d="M460,237.6C460.8,237.6,460.8,236.8,460,237.6l0.8-1.6c0.8-2.4,1.6-4.8,1.6-7.2s0-5.6-0.8-8
			l-0.8-2.4c0,0,0-1.6-0.8-1.6s-1.6,9.6-1.6,10.4C458.4,228.8,459.2,237.6,460,237.6z"/>
		<path style="fill:#0B2F77;" d="M407.2,280.8c22.4,0,40.8-19.2,40.8-41.6s-17.6-40.8-40-40.8c-9.6,0-20,4-27.2,10.4
			c-8.8,8-13.6,20-13.6,32C367.2,262.4,384.8,280.8,407.2,280.8z M439.2,215.2c-1.6,1.6-4,3.2-5.6,4c-1.6-3.2-3.2-5.6-5.6-8l1.6-1.6
			c0.8-0.8,1.6-1.6,2.4-2.4C435.2,209.6,437.6,212.8,439.2,215.2z M422.4,202.4c3.2,0.8,6.4,2.4,8.8,4.8c-1.6,1.6-2.4,2.4-4,3.2
			c-1.6-2.4-4-4-6.4-5.6C421.6,203.2,422.4,203.2,422.4,202.4z M425.6,211.2c-1.6,1.6-4,2.4-6.4,3.2c-0.8-0.8-0.8-2.4-1.6-3.2
			l-1.6-2.4v-1.6c0.8-0.8,2.4-0.8,3.2-2.4C421.6,207.2,424,208.8,425.6,211.2z M420,200.8h1.6c-0.8,0.8-1.6,1.6-1.6,1.6
			c-1.6-0.8-3.2-1.6-4.8-2.4l-1.6,0h-0.8C415.2,200,417.6,200,420,200.8z M417.6,204c-0.8,0.8-1.6,0.8-2.4,1.6l-0.8-0.8
			c-0.8-1.6-1.6-2.4-2.4-3.2C413.6,201.6,416,203.2,417.6,204z M409.6,202.4c1.6,1.6,2.4,3.2,4,4.8c-1.6,0-2.4,0.8-4,0.8V202.4z
			 M409.6,208.8c1.6,0,3.2,0,4.8-0.8c1.6,1.6,2.4,4,3.2,6.4c-2.4,0.8-5.6,1.6-8,1.6V208.8z M418.4,216c0.8,1.6,1.6,3.2,1.6,4.8
			l0.8,1.6c0,0,0,0,0,0.8c0,0.8-1.6,1.6-2.4,1.6c-3.2,0-6.4,0.8-8.8,0.8v-8C412,217.6,415.2,216.8,418.4,216z M408,201.6v5.6
			c-1.6,0-2.4-0.8-4-0.8C404,205.6,407.2,201.6,408,201.6z M404.8,202.4l-1.6,1.6l-1.6,1.6c-0.8-0.8-2.4-0.8-3.2-1.6
			c2.4-1.6,4-2.4,7.2-3.2L404.8,202.4z M403.2,200L403.2,200c-1.6,0.8-4,1.6-5.6,3.2c-0.8-0.8-0.8-0.8-1.6-1.6
			C398.4,200.8,400.8,200,403.2,200z M394.4,201.6c0.8,0.8,1.6,1.6,2.4,2.4c-0.8,0.8-4.8,2.4-4.8,4c0,0,0,0.8,0.8,0.8s4.8-3.2,5.6-4
			c0.8,0.8,2.4,1.6,3.2,2.4c-0.8,0.8-1.6,2.4-1.6,4c0,0,0,0.8,0.8,0.8s2.4-3.2,3.2-4c1.6,0.8,3.2,0.8,4.8,0.8v7.2c-1.6,0-2.4,0-4,0
			c0.8,0.8,0.8,1.6,1.6,2.4h2.4v8H408c-0.8,0-0.8,0-1.6,0c-0.8,0-1.6,0-1.6,0.8c0,1.6,2.4,0.8,3.2,0.8v2.4c0,0.8,0,1.6,0.8,1.6
			s0.8-0.8,0.8-1.6V228c1.6,0,3.2,0,4.8,0l4.8-0.8c1.6,0,4-0.8,4-3.2c0-0.8,0-0.8,0-1.6l-0.8-2.4c0-1.6-0.8-2.4-1.6-3.2
			c2.4-0.8,4.8-1.6,6.4-3.2c2.4,2.4,4,4.8,4.8,7.2c-0.8,0-3.2,0.8-3.2,2.4l0.8,0.8c1.6,0,2.4-0.8,3.2-0.8c0,0.8,0.8,2.4,1.6,2.4
			c0.8,0,0.8-0.8,0.8-0.8c0-0.8,0-1.6-0.8-2.4c1.6-0.8,3.2-1.6,4.8-3.2l1.6-0.8c4,6.4,6.4,13.6,6.4,20.8c0,22.4-16.8,41.6-40,41.6
			c-21.6,0-39.2-17.6-39.2-39.2C368,223.2,379.2,208,394.4,201.6z"/>
		<path style="fill:#0B2F77;" d="M378.4,220c0-0.8,0-1.6,0.8-3.2c-4.8,3.2-7.2,12-7.2,17.6c0.8,0,0.8-0.8,1.6-0.8
			C374.4,228.8,376,224,378.4,220z"/>
		<path style="fill:#0B2F77;" d="M432,264.8l0.8,1.6c4-3.2,7.2-8,8.8-12.8l-2.4,1.6C437.6,258.4,435.2,262.4,432,264.8z"/>
		<path style="fill:#0B2F77;" d="M371.2,238.4c0,20.8,15.2,37.6,36.8,37.6c8.8,0,16.8-3.2,23.2-8.8l0,0v-0.8c0,0-4-2.4-4-6.4
			c0-0.8,0-2.4,1.6-2.4c0.8,0,0.8,0,1.6,0c8,0,14.4-9.6,14.4-17.6c0-9.6-7.2-17.6-17.6-17.6c-1.6,0-3.2,0-4,1.6l-0.8,1.6l-0.8,0.8
			l-2.4,0.8c-2.4,0.8-2.4,3.2-4.8,4h-1.6h-1.6c-1.6,0-0.8,3.2-1.6,3.2h-0.8c-0.8,0,0,2.4-0.8,2.4h-0.8c-0.8,0-0.8,0.8-0.8,1.6
			c0,1.6-1.6,2.4-1.6,4c0,4,6.4,4,7.2,9.6v2.4v2.4l0.8,1.6c0,0.8,0,0.8,0,1.6c0,0.8-0.8,1.6-1.6,2.4c-0.8,0.8-6.4,0.8-10.4,2.4
			l-4.8,2.4c-1.6,0.8-3.2,0.8-4.8,0.8c-2.4,0-7.2-1.6-7.2-4.8c0-0.8,0.8-3.2,1.6-3.2l0,0l0.8,0.8c0.8,0.8,2.4,0.8,3.2,0.8
			c1.6,0,2.4,0,4-0.8c0.8,0,4-0.8,4.8-0.8s1.6,0.8,3.2,0.8c3.2,0,4.8-3.2,4.8-5.6c0,0,0-1.6-0.8-1.6H404c-0.8,0-0.8-0.8-1.6-0.8
			c-1.6,0-3.2,2.4-4,2.4h-0.8l-1.6-0.8c-2.4-0.8-5.6-0.8-5.6-2.4v-1.6l-1.6-2.4l0,0v-4c0-1.6-0.8-3.2-0.8-4.8c0-0.8,0.8-1.6,1.6-1.6
			h0.8l1.6,0.8c0.8,0,1.6,0,1.6,0c0.8,0,1.6,0,2.4-0.8c0-0.8,1.6-1.6,1.6-1.6l0.8-0.8l0.8-0.8v-0.8c0-0.8,1.6-0.8,1.6-1.6
			c0-0.8,0-1.6,0-2.4c0-2.4,3.2-4,3.2-8c0-6.4-8-11.2-13.6-11.2s-11.2,4.8-11.2,10.4c0,2.4,0.8,4.8,0.8,8
			C380.8,232.8,371.2,232.8,371.2,238.4z"/>
		<path style="fill:#0B2F77;" d="M191.2,271.2c4,11.2,15.2,19.2,28,19.2c5.6,0,11.2-0.8,16-4v-17.6c-3.2,1.6-7.2,3.2-11.2,3.2
			c-7.2,0-12-5.6-12-12.8c0-7.2,5.6-12.8,12.8-12.8c4,0,7.2,1.6,10.4,4v-17.6c-1.6-0.8-2.4-1.6-4-1.6L191.2,271.2z"/>
	</g>
</g>
<g>
</g>
<g>
</g>
<g>
</g>
<g>
</g>
<g>
</g>
<g>
</g>
<g>
</g>
<g>
</g>
<g>
</g>
<g>
</g>
<g>
</g>
<g>
</g>
<g>
</g>
<g>
</g>
<g>
</g>
</svg>
