<?xml version="1.0" encoding="iso-8859-1"?>
<!-- Generator: Adobe Illustrator 19.0.0, SVG Export Plug-In . SVG Version: 6.00 Build 0)  -->
<svg version="1.1" id="Capa_1" xmlns="http://www.w3.org/2000/svg" xmlns:xlink="http://www.w3.org/1999/xlink" x="0px" y="0px"
	 viewBox="0 0 496 496" style="enable-background:new 0 0 496 496;" xml:space="preserve">
<path style="fill:#FFFFFF;" d="M0,248v121.6C0,396.8,21.6,416,48,416h400c26.4,0,48-19.2,48-46.4V248H0z"/>
<path style="fill:#E1E5E5;" d="M248,248l197.6,168c26.4,0,50.4-19.2,50.4-46.4V248H248z"/>
<path style="fill:#ED2939;" d="M448,80H48C21.6,80,0,99.2,0,126.4V248h496V126.4C496,99.2,474.4,80,448,80z"/>
<path style="fill:#DD2238;" d="M448,80H48l200,168h248V126.4C496,99.2,474.4,80,448,80z"/>
<path style="fill:#D0D6D6;" d="M496,368.8c0,28.8-21.6,47.2-48,47.2H48c-26.4,0-48-20.8-48-48"/>
<path style="fill:#CE1535;" d="M48,80h400c26.4,0,48,19.2,48,46.4V216"/>
<g>
	<path style="fill:#FFFFFF;" d="M49.6,159.2c0-28,22.4-51.2,49.6-52c-5.6-1.6-12-3.2-18.4-3.2c-30.4,0-55.2,24.8-55.2,55.2
		s24.8,55.2,55.2,55.2c6.4,0,12.8-0.8,18.4-3.2C71.2,210.4,49.6,187.2,49.6,159.2z"/>
	<polygon style="fill:#FFFFFF;" points="83.2,145.6 80.8,136.8 77.6,145.6 68,145.6 76,151.2 72.8,160.8 80.8,155.2 88,160.8 
		84.8,151.2 92.8,145.6 	"/>
	<polygon style="fill:#FFFFFF;" points="151.2,145.6 141.6,145.6 139.2,136.8 136,145.6 127.2,145.6 134.4,151.2 132,160.8 
		139.2,155.2 146.4,160.8 144,151.2 	"/>
	<polygon style="fill:#FFFFFF;" points="114.4,129.6 121.6,124 112.8,124 109.6,115.2 107.2,124 97.6,124 105.6,129.6 102.4,139.2 
		109.6,133.6 117.6,139.2 	"/>
	<polygon style="fill:#FFFFFF;" points="91.2,171.2 88.8,180.8 79.2,180.8 87.2,186.4 84,196 91.2,189.6 99.2,196 96,186.4 
		103.2,180.8 94.4,180.8 	"/>
	<polygon style="fill:#FFFFFF;" points="131.2,180.8 128,171.2 125.6,180.8 116,180.8 123.2,186.4 120.8,196 128,189.6 136,196 
		132.8,186.4 140,180.8 	"/>
</g>
<g>
</g>
<g>
</g>
<g>
</g>
<g>
</g>
<g>
</g>
<g>
</g>
<g>
</g>
<g>
</g>
<g>
</g>
<g>
</g>
<g>
</g>
<g>
</g>
<g>
</g>
<g>
</g>
<g>
</g>
</svg>
