<?xml version="1.0" encoding="iso-8859-1"?>
<!-- Generator: Adobe Illustrator 19.0.0, SVG Export Plug-In . SVG Version: 6.00 Build 0)  -->
<svg version="1.1" id="Capa_1" xmlns="http://www.w3.org/2000/svg" xmlns:xlink="http://www.w3.org/1999/xlink" x="0px" y="0px"
	 viewBox="0 0 496 496" style="enable-background:new 0 0 496 496;" xml:space="preserve">
<path style="fill:#6CC4EE;" d="M496,369.6c0,27.2-21.6,46.4-48,46.4H48c-26.4,0-48-19.2-48-46.4V126.4C0,99.2,21.6,80,48,80h400
	c26.4,0,48,19.2,48,46.4V369.6z"/>
<path style="fill:#54AAD1;" d="M48,80h400c26.4,0,48,19.2,48,46.4v243.2c0,27.2-25.6,46.4-52,46.4"/>
<g>
	<path style="fill:#46A3CC;" d="M496,368.8c0,29.6-21.6,47.2-48,47.2H48c-26.4,0-48-20.8-48-48"/>
	<path style="fill:#46A3CC;" d="M48,80h400c26.4,0,48,19.2,48,46.4V216"/>
</g>
<polygon style="fill:#FFFFFF;" points="349.6,392 248,111.2 146.4,392 "/>
<g>
	<polygon style="fill:#CFE1E5;" points="146.4,392 349.6,392 340.8,368 155.2,368 	"/>
	<polygon style="fill:#CFE1E5;" points="248,108 209.6,216.8 320,310.4 	"/>
</g>
<polygon style="fill:#303030;" points="168,392 328,392 248,171.2 "/>
<polygon points="248,167.2 226.4,231.2 288.8,284 "/>
<polygon style="fill:#F8D648;" points="168,392 328,392 248,267.2 "/>
<polygon style="fill:#E2BD23;" points="168,392 328,392 312.8,368 183.2,368 "/>
<g>
</g>
<g>
</g>
<g>
</g>
<g>
</g>
<g>
</g>
<g>
</g>
<g>
</g>
<g>
</g>
<g>
</g>
<g>
</g>
<g>
</g>
<g>
</g>
<g>
</g>
<g>
</g>
<g>
</g>
</svg>
