<?xml version="1.0" encoding="iso-8859-1"?>
<!-- Generator: Adobe Illustrator 19.0.0, SVG Export Plug-In . SVG Version: 6.00 Build 0)  -->
<svg version="1.1" id="Capa_1" xmlns="http://www.w3.org/2000/svg" xmlns:xlink="http://www.w3.org/1999/xlink" x="0px" y="0px"
	 viewBox="0 0 496 496" style="enable-background:new 0 0 496 496;" xml:space="preserve">
<path style="fill:#002395;" d="M0,248v121.6c0,27.2,21.6,48.8,48,48.8h400c26.4,0,48-21.6,48-48.8V248H0z"/>
<path style="fill:#052377;" d="M248,248l200,170.4c26.4,0,48-21.6,48-48.8V248H248z"/>
<path style="fill:#D21034;" d="M448,77.6H48c-26.4,0-48,21.6-48,48.8V248h496V126.4C496,99.2,474.4,77.6,448,77.6z"/>
<path style="fill:#C10830;" d="M448,77.6H48L248,248h248V126.4C496,99.2,474.4,77.6,448,77.6z"/>
<path style="fill:#052272;" d="M0,369.6c0,27.2,21.6,48.8,48,48.8h400c26.4,0,48-21.6,48-48.8H0z"/>
<path style="fill:#A5042E;" d="M448,77.6H48l448,137.6v-88.8C496,99.2,474.4,77.6,448,77.6z"/>
<path style="fill:#FFFFFF;" d="M244,205.6L17.6,88.8C6.4,97.6,0,111.2,0,126.4V248l0,0v121.6c0,15.2,6.4,28.8,17.6,37.6L244,290.4
	h252V248l0,0v-42.4H244z"/>
<path style="fill:#007A4D;" d="M236.8,220.8L6.4,101.6c-4,7.2-6.4,15.2-6.4,24V248v121.6c0,8.8,2.4,16.8,6.4,24l230.4-118.4H496V248
	v-27.2H236.8z"/>
<polygon style="fill:#0A4F33;" points="236.8,220.8 184,193.6 248,248 280,275.2 496,275.2 496,248 496,220.8 "/>
<polygon style="fill:#FDCE12;" points="0,138.4 0,357.6 212.8,248 "/>
<polygon points="0,163.2 0,332.8 164,248 "/>
<g>
</g>
<g>
</g>
<g>
</g>
<g>
</g>
<g>
</g>
<g>
</g>
<g>
</g>
<g>
</g>
<g>
</g>
<g>
</g>
<g>
</g>
<g>
</g>
<g>
</g>
<g>
</g>
<g>
</g>
</svg>
