<?xml version="1.0" encoding="iso-8859-1"?>
<!-- Generator: Adobe Illustrator 19.0.0, SVG Export Plug-In . SVG Version: 6.00 Build 0)  -->
<svg version="1.1" id="Capa_1" xmlns="http://www.w3.org/2000/svg" xmlns:xlink="http://www.w3.org/1999/xlink" x="0px" y="0px"
	 viewBox="0 0 496 496" style="enable-background:new 0 0 496 496;" xml:space="preserve">
<path style="fill:#CE1126;" d="M0,248v121.6c0,27.2,21.6,48.8,48,48.8h400c26.4,0,48-21.6,48-48.8V248H0z"/>
<path style="fill:#BA0822;" d="M248,248l200,170.4c26.4,0,48-21.6,48-48.8V248H248z"/>
<path style="fill:#0038A8;" d="M448,77.6H48c-26.4,0-48,21.6-48,48.8V248h496V126.4C496,99.2,474.4,77.6,448,77.6z"/>
<path style="fill:#033789;" d="M448,77.6H48L248,248h248V126.4C496,99.2,474.4,77.6,448,77.6z"/>
<path style="fill:#A0001F;" d="M496,369.6c0,27.2-21.6,48.8-48,48.8H48c-26.4,0-48-21.6-48-48.8"/>
<path style="fill:#002C6B;" d="M48,77.6h400c26.4,0,48,21.6,48,48.8v88.8"/>
<path style="fill:#F3F2F2;" d="M2.4,110.4c-1.6,4.8-2.4,10.4-2.4,16V248l0,0v121.6c0,5.6,0.8,11.2,2.4,16L140,248L2.4,110.4z"/>
<path style="fill:#FDFFFD;" d="M79.2,308.8L140,248L2.4,110.4c-1.6,4.8-2.4,10.4-2.4,16"/>
<g>
	<path style="fill:#E8BB00;" d="M70.4,247.2v-0.8l14.4-1.6l-1.6-1.6l-12.8,2.4c-0.8-2.4-1.6-4-2.4-5.6l10.4-7.2v-2.4l-11.2,8.8
		l-0.8-0.8l12-10.4v-3.2h-3.2l-10.4,12L64,236l8.8-11.2h-1.6L64,235.2c-1.6-0.8-4-1.6-5.6-2.4l2.4-12.8l-1.6-1.6L56.8,232H56
		l0.8-15.2l-2.4-2.4l-2.4,2.4l1.6,15.2h-0.8l-1.6-14.4l-1.6,1.6L52,232c-2.4,0.8-4,1.6-5.6,2.4L39.2,224h-2.4l8.8,11.2l-0.8,0.8
		l-10.4-12h-3.2v3.2l12,10.4l-0.8,0.8l-11.2-8.8v2.4l10.4,7.2c-0.8,1.6-1.6,4-2.4,5.6l-12.8-2.4l-1.6,1.6l14.4,1.6v0.8L24,245.6
		l-2.4,2.4l2.4,2.4l15.2-0.8v0.8L24.8,252l1.6,1.6l12.8-2.4c0.8,2.4,1.6,4,2.4,5.6L31.2,264v2.4l11.2-8.8l0.8,0.8l-12,10.4v3.2h3.2
		l10.4-12l0.8,0.8L36.8,272h2.4l7.2-10.4c1.6,0.8,4,1.6,5.6,2.4l-2.4,12.8l1.6,1.6l1.6-14.4h0.8l-0.8,15.2l2.4,2.4l2.4-2.4L56,264
		h0.8l1.6,14.4l1.6-1.6L57.6,264c2.4-0.8,4-1.6,5.6-2.4l8,10.4h2.4l-8.8-11.2l0.8-0.8L76,272h3.2v-3.2l-12-10.4l0.8-0.8l11.2,8.8
		V264l-10.4-7.2c0.8-1.6,1.6-4,2.4-5.6l12.8,2.4l1.6-1.6l-14.4-1.6v-0.8l15.2,0.8L88,248l-2.4-2.4L70.4,247.2z"/>
	<polygon style="fill:#E8BB00;" points="120.8,245.6 120.8,240 116.8,244.8 110.4,243.2 114.4,248 110.4,252.8 116.8,251.2 
		120.8,256 120.8,250.4 126.4,248 	"/>
	<polygon style="fill:#E8BB00;" points="20,302.4 17.6,296.8 16,303.2 9.6,304 15.2,307.2 13.6,312.8 18.4,308.8 24,312 21.6,306.4 
		26.4,301.6 	"/>
	<polygon style="fill:#E8BB00;" points="16,192.8 17.6,199.2 20,193.6 26.4,194.4 21.6,189.6 24,184 18.4,187.2 13.6,183.2 
		15.2,188.8 9.6,192 	"/>
</g>
<g>
</g>
<g>
</g>
<g>
</g>
<g>
</g>
<g>
</g>
<g>
</g>
<g>
</g>
<g>
</g>
<g>
</g>
<g>
</g>
<g>
</g>
<g>
</g>
<g>
</g>
<g>
</g>
<g>
</g>
</svg>
