<?xml version="1.0" encoding="iso-8859-1"?>
<!-- Generator: Adobe Illustrator 19.0.0, SVG Export Plug-In . SVG Version: 6.00 Build 0)  -->
<svg version="1.1" id="Capa_1" xmlns="http://www.w3.org/2000/svg" xmlns:xlink="http://www.w3.org/1999/xlink" x="0px" y="0px"
	 viewBox="0 0 496 496" style="enable-background:new 0 0 496 496;" xml:space="preserve">
<path style="fill:#FCD116;" d="M496,369.956c0,27.2-21.6,48.8-48,48.8H48c-26.4,0-48-21.6-48-48.8v-243.2c0-27.2,21.6-49.6,48-49.6
	h400.8c26.8,0,47.2,22.2,47.2,49.6V369.956z"/>
<path style="fill:#215B33;" d="M3.6,388.556c7.2,17.6,24.4,30.2,44.4,30.2h400c26.4,0,48-21.6,48-48.8v-227.2L3.6,388.556z"/>
<path style="fill:#E5BB0C;" d="M48,77.156h400.8c26.8,0,47.2,22.2,47.2,49.6v243.2c0,27.2-21.6,48.8-48,48.8"/>
<path style="fill:#BC9904;" d="M48,77.156h400.8c26.8,0,47.2,22.2,47.2,49.6v88.8"/>
<path style="fill:#134722;" d="M261.8,259.656l186.2,159.1c26.4,0,48-21.6,48-48.8v-154.4v-72.8L261.8,259.656z"/>
<polygon style="fill:#0A3014;" points="496,215.556 496,142.756 405.8,187.656 "/>
<path style="fill:#0051BA;" d="M448.8,77.156H48c-26.4,0-48,22.4-48,49.6v228l492.6-246.7C485.5,89.756,469.8,77.256,448.8,77.156z"
	/>
<path style="fill:#044B99;" d="M481.1,90.256c-15-14-29.9-13.1-32.3-13.1H48l187.1,159.9l257.5-128.9
	C491.8,105.656,488.1,96.856,481.1,90.256z"/>
<path style="fill:#064782;" d="M489.2,100.856c-2.6-4.3-5.1-7.8-9-11.5c-6.2-5.7-17.1-12.3-31.4-12.2H48l313.3,96.8l131.4-65.9
	C492.6,108.056,491.2,104.256,489.2,100.856z"/>
<path style="fill:#BC9904;" d="M0,369.956c0,27.2,21.6,48.8,48,48.8h400c26.4,0,48-21.6,48-48.8H0z"/>
<path style="fill:#0A3014;" d="M40.8,369.956l-37.2,18.6c6.3,14.9,17.3,21.7,17.3,21.7c2.5,1.8,5.4,3.4,7.8,4.5
	c9.5,4.2,17.7,4.1,20.1,4.1H448c26.4,0,48-21.6,48-48.8H40.8V369.956z"/>
<polygon style="fill:#FFFFFF;" points="125.6,169.956 119.2,150.756 112.8,169.956 92.8,169.956 108.8,181.956 102.4,201.156 
	119.2,189.156 136,201.156 129.6,181.956 145.6,169.956 "/>
<polygon style="fill:#C3D6EA;" points="164.8,134.756 158.4,153.956 174.4,141.956 191.2,153.956 184.8,134.756 201.6,122.756 
	180.8,122.756 174.4,103.556 168,122.756 148,122.756 "/>
<g>
	<polygon style="fill:#FFFFFF;" points="180.8,217.156 174.4,197.956 168,217.156 148,217.156 164.8,229.156 158.4,249.156 
		174.4,237.156 191.2,249.156 184.8,229.156 201.6,217.156 	"/>
	<polygon style="fill:#FFFFFF;" points="70.4,217.156 64,197.956 57.6,217.156 37.6,217.156 53.6,229.156 47.2,249.156 64,237.156 
		80.8,249.156 74.4,229.156 90.4,217.156 	"/>
	<polygon style="fill:#FFFFFF;" points="64,103.556 57.6,122.756 37.6,122.756 53.6,134.756 47.2,153.956 64,141.956 80.8,153.956 
		74.4,134.756 90.4,122.756 70.4,122.756 	"/>
</g>
<g>
</g>
<g>
</g>
<g>
</g>
<g>
</g>
<g>
</g>
<g>
</g>
<g>
</g>
<g>
</g>
<g>
</g>
<g>
</g>
<g>
</g>
<g>
</g>
<g>
</g>
<g>
</g>
<g>
</g>
</svg>
