<?xml version="1.0" encoding="iso-8859-1"?>
<!-- Generator: Adobe Illustrator 19.0.0, SVG Export Plug-In . SVG Version: 6.00 Build 0)  -->
<svg version="1.1" id="Capa_1" xmlns="http://www.w3.org/2000/svg" xmlns:xlink="http://www.w3.org/1999/xlink" x="0px" y="0px"
	 viewBox="0 0 496.011 496.011" style="enable-background:new 0 0 496.011 496.011;" xml:space="preserve">
<path style="fill:#EC2227;" d="M0.005,304.005v65.6c0,27.2,21.6,46.4,48,46.4h400c26.4,0,48-19.2,48-46.4v-65.6H0.005z"/>
<path style="fill:#FFFFFF;" d="M448.005,80.005h-400c-26.4,0-48,19.2-48,46.4v65.6h496v-65.6
	C496.005,99.205,474.405,80.005,448.005,80.005z"/>
<rect x="0.005" y="192.005" style="fill:#005EA5;" width="496" height="112"/>
<path style="fill:#D81927;" d="M446.405,416.005c27.7,0.1,50-17.8,49.6-46.4v-65.6h-180.8L446.405,416.005z"/>
<path style="fill:#DAE1E5;" d="M448.005,80.005h-400l132,112h316v-65.6C496.005,99.205,474.405,80.005,448.005,80.005z"/>
<polygon style="fill:#025A91;" points="315.205,304.005 496.005,304.005 496.005,192.005 180.005,192.005 "/>
<path style="fill:#CAD4D8;" d="M448.005,80.005h-400l367.2,112h80.8v-65.6C496.005,99.205,474.405,80.005,448.005,80.005z"/>
<polygon style="fill:#01527A;" points="496.005,214.405 496.005,192.005 414.405,192.005 "/>
<path style="fill:#C10E24;" d="M496.005,368.805c0,29.6-21.6,47.2-48,47.2h-400c-26.4,0-48.4-19.3-48-48"/>
<g transform="matrix(0.12937 0 0 0.12937 2.224 1)">
	<path style="fill:#005EA5;" d="M1232.903,1515.502l37.6-552.8c-292-139.2-630.4-138.4-922.4,0l37.6,552
		c16.8,248,185.6,460,423.2,532C1047.303,1974.702,1216.103,1762.702,1232.903,1515.502"/>
	<path style="fill:#01527A;" d="M658.803,869.302l584.5,497.4l27.2-404C1083.303,874.702,847.603,835.702,658.803,869.302z"/>
	<g>
		<path style="fill:#FFFFFF;" d="M636.103,1689.901c36-20.8,80-20.8,115.2,0s79.2,20.8,115.2,0c36-20.8,79.2-20.8,115.2,0
			c53.6,31.2,122.4,13.6,155.2-39.2c7.2-20,12.8-40,17.6-60.8l-172.8-230.4l-69.6,92l-103.2-207.2l-104,207.2l-69.6-92l-172.8,230.4
			c4.8,20.8,10.4,40.8,17.6,60.8C513.703,1703.502,582.503,1721.102,636.103,1689.901z"/>
		<path style="fill:#FFFFFF;" d="M981.703,1789.102c-36-20.8-79.2-20.8-115.2,0c-36,20.8-80,20.8-115.2,0c-36-20.8-80-20.8-115.2,0
			c-22.4,12.8-47.2,17.6-71.2,14.4c62.4,78.4,146.4,139.2,244,172.8c97.6-33.6,181.6-94.4,244-172.8
			C1028.903,1806.702,1004.103,1802.702,981.703,1789.102z"/>
		<path style="fill:#FFFFFF;" d="M981.703,1722.702c-36-20.8-79.2-20.8-115.2,0c-36,20.8-80,20.8-115.2,0c-36-20.8-80-20.8-115.2,0
			c-41.6,24-92.8,19.2-128-8.8c8.8,16.8,18.4,33.6,28.8,49.6c31.2,12,68,11.2,100-7.2c36-20.8,80-20.8,115.2,0s79.2,20.8,115.2,0
			c36-20.8,79.2-20.8,115.2,0c31.2,18.4,68,20,100,7.2c10.4-16,20-32.8,28.8-49.6
			C1074.503,1741.901,1024.103,1746.702,981.703,1722.702z"/>
	</g>
	<path style="fill:#FDDB00;" d="M846.903,1138.602l-19.8,21.6l19.8,21.6l-28.8-7.2l-9,28.8l-9-28.8l-28.8,7.2l19.8-21.6l-19.8-21.6
		l28.8,7.2l9-28.8l9,28.8L846.903,1138.602z M650.403,1005.401l-9-27l-9,27l-28.8-7.2l19.8,21.6l-19.8,21.6l28.8-7.2l9,28.8l9-28.8
		l28.8,7.2l-19.8-21.6l19.8-21.6L650.403,1005.401z M1014.603,1000.002l-28.8,7.2l-9-28.8l-9,28.8l-28.8-7.2l19.8,21.6l-19.8,21.6
		l28.8-7.2l9,28.8l9-28.8l28.8,7.2l-19.8-21.6L1014.603,1000.002z"/>
	<path style="fill:#EC2227;" d="M380.103,948.302l38.4,564.8c16,230.4,170.4,428,390.4,499.2c220-71.2,374.4-268.8,390.4-499.2
		l38.4-564.8c10.4,4.8,22.4,9.6,32.8,14.4l-38.4,552c-16.8,248-185.6,460-423.2,532c-238.4-72-407.2-284-423.2-532l-37.6-552
		C359.303,957.302,369.703,952.502,380.103,948.302"/>
</g>
<g>
</g>
<g>
</g>
<g>
</g>
<g>
</g>
<g>
</g>
<g>
</g>
<g>
</g>
<g>
</g>
<g>
</g>
<g>
</g>
<g>
</g>
<g>
</g>
<g>
</g>
<g>
</g>
<g>
</g>
</svg>
