<?xml version="1.0" encoding="iso-8859-1"?>
<!-- Generator: Adobe Illustrator 19.0.0, SVG Export Plug-In . SVG Version: 6.00 Build 0)  -->
<svg version="1.1" id="Capa_1" xmlns="http://www.w3.org/2000/svg" xmlns:xlink="http://www.w3.org/1999/xlink" x="0px" y="0px"
	 viewBox="0 0 496 496" style="enable-background:new 0 0 496 496;" xml:space="preserve">
<path style="fill:#EC2227;" d="M0,330.602v64.8c0,27.2,21.6,48.8,48,48.8h400c26.4,0,48-21.6,48-48.8v-64.8H0z"/>
<path style="fill:#FFFFFF;" d="M448,103.402H48c-26.4,0-48,21.6-48,48.8v64.8h496v-64.8C496,125.002,474.4,103.402,448,103.402z"/>
<rect y="215.402" style="fill:#005EA5;" width="496" height="116"/>
<path style="fill:#D81927;" d="M448,444.202c26.4,0,48-21.6,48-48.8v-64.8H315.2L448,444.202z"/>
<path style="fill:#DAE1E5;" d="M448,103.402H48l132.8,113.6H496v-64.8C496,125.002,474.4,103.402,448,103.402z"/>
<polygon style="fill:#025A91;" points="316,332.202 496,332.202 496,215.402 180,215.402 "/>
<path style="fill:#CAD4D8;" d="M448,103.402H48l370.4,113.6H496v-64.8C496,125.002,474.4,103.402,448,103.402z"/>
<polygon style="fill:#01527A;" points="496,240.202 496,215.402 414.4,215.402 "/>
<path style="fill:#C10E24;" d="M496,395.402c0,27.2-21.6,48.8-48,48.8H48c-26.4,0-48-21.6-48-48.8"/>
<path style="fill:#FFFFFF;" d="M115.2,353.002c-27.2-13.6-67.2-40-67.2-92s2.4-76,2.4-76h64.8H180c0,0,2.4,24,2.4,76
	S143.2,339.402,115.2,353.002z"/>
<g transform="matrix(0.00584 0 0 -0.00584 1.44 6.04)">
	<path style="fill:#EE1C25;" d="M8.444,51.798c-0.159,0.075-0.388,0.229-0.388,0.528c0,0.299,0.014,0.439,0.014,0.439h0.374h0.374
		c0,0,0.014-0.135,0.014-0.439C8.832,52.027,8.603,51.873,8.444,51.798z"/>
	<path style="fill:#C10E24;" d="M8.818,52.765H8.673l0.154-0.131C8.823,52.718,8.818,52.765,8.818,52.765z"/>
	<g>
		<g>
			<g>
				<path style="fill:#0B4EA2;" d="M8.655,52.13c-0.065,0-0.089-0.051-0.089-0.051S8.524,52.19,8.444,52.19
					c-0.079,0-0.121-0.112-0.121-0.112S8.299,52.13,8.234,52.13c-0.042,0-0.075-0.037-0.098-0.075
					c0.079-0.126,0.21-0.206,0.308-0.257c0.103,0.047,0.229,0.126,0.308,0.257C8.734,52.087,8.701,52.13,8.655,52.13z"/>
				<path style="fill:#FFFFFF;" d="M8.412,52.335v-0.121c0.009,0.005,0.023,0.005,0.033,0.005s0.023-0.005,0.033-0.005v0.121
					c0.047,0,0.131,0,0.201-0.023c0,0,0,0.028,0,0.056c0,0.028,0,0.056,0,0.056c-0.075-0.023-0.159-0.023-0.201-0.023v0.103
					c0.037,0,0.093,0,0.159-0.023c0,0,0,0.028,0,0.056c0,0.033,0,0.056,0,0.056c-0.065-0.023-0.121-0.023-0.159-0.023
					c0,0.065,0.023,0.15,0.023,0.15s-0.037-0.005-0.056-0.005c-0.014,0-0.056,0.005-0.056,0.005s0.019-0.084,0.023-0.15
					c-0.037,0-0.093,0-0.159,0.023c0,0,0-0.028,0-0.056c0-0.033,0-0.056,0-0.056c0.065,0.023,0.121,0.023,0.159,0.023v-0.103
					c-0.042,0-0.126-0.005-0.201,0.023c0,0,0-0.028,0-0.056c0-0.028,0-0.056,0-0.056C8.276,52.335,8.36,52.335,8.412,52.335z"/>
			</g>
		</g>
	</g>
</g>
<g>
</g>
<g>
</g>
<g>
</g>
<g>
</g>
<g>
</g>
<g>
</g>
<g>
</g>
<g>
</g>
<g>
</g>
<g>
</g>
<g>
</g>
<g>
</g>
<g>
</g>
<g>
</g>
<g>
</g>
</svg>
