<?xml version="1.0" encoding="iso-8859-1"?>
<!-- Generator: Adobe Illustrator 19.0.0, SVG Export Plug-In . SVG Version: 6.00 Build 0)  -->
<svg version="1.1" id="Capa_1" xmlns="http://www.w3.org/2000/svg" xmlns:xlink="http://www.w3.org/1999/xlink" x="0px" y="0px"
	 viewBox="0 0 496.8 496.8" style="enable-background:new 0 0 496.8 496.8;" xml:space="preserve">
<path style="fill:#FFFFFF;" d="M0,305.8V370c0,27.2,21.6,48.8,48,48.8h400c26.4,0,48.8-21.6,48.8-48.8v-64.2L0,305.8L0,305.8z"/>
<path style="fill:#C6363C;" d="M448,78H48C21.6,78,0,99.6,0,126.8v64h496.8v-64C496.8,99.6,474.4,78,448,78z"/>
<rect y="190.8" style="fill:#0C4076;" width="496.8" height="115"/>
<path style="fill:#DAE1E5;" d="M448,418.8c26.4,0,48.8-21.6,48.8-48.8v-64.2H315.2L448,418.8z"/>
<path style="fill:#BA2B2B;" d="M448.8,78H48l132,112.8h316.8v-64.2C496.8,99.4,475.2,78,448.8,78z"/>
<polygon style="fill:#093A66;" points="316.4,305.8 496.8,305.8 496.8,190.8 180,190.8 "/>
<path style="fill:#A32323;" d="M448,78H48l368.4,112.8h80.4v-64C496.8,99.6,474.4,78,448,78z"/>
<polygon style="fill:#053151;" points="496.8,214.8 496.8,190.8 416.4,190.8 "/>
<path style="fill:#BAC2C6;" d="M496.8,370c0,27.2-22.4,48.8-48.8,48.8H48c-26.4,0-48-21.6-48-48.8"/>
<polygon style="fill:#FFD350;" points="64.5,179.9 65.3,184.8 144.3,184.8 145.1,179.9 "/>
<path style="fill:#EDB92E;" d="M154,141.9c-1.4-2.5-3.7-4.2-6.4-4.8c-8.7-1.9-25.7-5-41.1-5v-6.6h3.3v-3.3h-3.3v-3.3h-3.3v3.3h-3.3
	v3.3h3.3v6.6c-15.4,0-32.4,3.1-41.1,5c-2.7,0.6-5,2.3-6.4,4.8s-1.6,5.6-0.7,8.3l7,19.2c0.2,0.6,0.6,1.1,1,1.4l2.3,13.9h79l2.3-13.9
	c0.5-0.4,0.8-0.8,1-1.4l7-19.2C155.6,147.5,155.4,144.5,154,141.9z M67.4,165.1L61.2,148c-0.3-1-0.3-2,0.2-2.9
	c0.3-0.5,0.9-1.3,2-1.5c3.2-0.7,7.4-1.5,12.2-2.3c-1.1,2.5-1.4,5.7-0.8,8.5l3.2,15.3H67.4z M81.3,148.5c-0.5-2.5,0.3-4.7,0.6-5
	c4.3-1.6,12.2-4.2,19.7-4.6v26.2H84.7L81.3,148.5z M128.4,148.5l-3.4,16.6h-16.8v-26.2c7.5,0.5,15.4,3,19.5,4.5
	C128.1,143.8,128.9,146,128.4,148.5z M148.5,148l-6.2,17.1h-10.6l3.2-15.3c0.6-2.8,0.3-6-0.8-8.5c4.8,0.8,9.1,1.6,12.2,2.3
	c1.2,0.2,1.8,1.1,2,1.5C148.7,146,148.8,147.1,148.5,148z"/>
<g>
	<polygon style="fill:#D6980D;" points="103.2,119 103.2,122.3 99.9,122.3 99.9,122.4 106.5,128 106.5,125.6 109.8,125.6 
		109.8,122.3 106.5,122.3 106.5,119 	"/>
	<path style="fill:#D6980D;" d="M147.6,137.2c-7.8-1.7-22.2-4.3-36.1-4.9l11,9.4c2,0.6,3.8,1.2,5.2,1.7c0.4,0.3,0.9,1.7,0.9,3.5
		l5.9,5l0.4-2.1c0.6-2.8,0.3-6-0.8-8.5c4.8,0.8,9.1,1.6,12.2,2.3c1.2,0.2,1.8,1.1,2,1.5c0.5,0.9,0.6,1.9,0.2,2.9l-4.4,12.1l5.3,4.6
		l5.2-14.5c1-2.7,0.8-5.8-0.7-8.3C152.6,139.5,150.3,137.7,147.6,137.2z"/>
	<polygon style="fill:#D6980D;" points="62.9,170 146.8,170 147.6,165.1 62,165.1 	"/>
</g>
<path style="fill:#BA2B2B;" d="M42.3,184.8c-1.8,0-3.3,1.5-3.3,3.3v115c0,36.5,29.5,66.1,65.8,66.1s65.8-29.6,65.8-66.1v-115
	c0-1.8-1.5-3.3-3.3-3.3L42.3,184.8L42.3,184.8z"/>
<path style="fill:#EDB92E;" d="M130.7,305.1L130.7,305.1c0.8-0.1,1.6-0.1,3.1,0.5c1.8,1.4,2.6,2.1,3.4,1.2c1.6-0.2-2.6-2.1-6.3-5.7
	c-5.4-5-5.7-8.2-6-10.6c1.6-0.2,3.3,0.4,7.7,4c2.8,3.7,4.9,7.5,8.5,11.1c0.9,0.7,1.7,0.6,2.6,1.3c0.8-0.1,6.4-0.7,6.4-0.7
	c1-1.3,3-1.4,3.8-0.4h0.1c1.4-1.8,3.1-1.1,4.2,1.2c0.1,0.8-0.7,0.9-0.7,0.9c-0.8-0.7-1.6-0.6-3,0.2c0,1-1.1,2.5-2.4,2
	c-0.9-0.7-5.6,0.6-6.4-0.1c1,1.5,4.2,1.9,6.6,1.7c0.1,0,0.2,0,0.4,0c2.4,0,3.6,1,2.6,5.3c-0.7,0.9-0.7,0.9-0.8,0.1
	c-0.1-0.5-0.4-0.9-1.1-1.4c-0.7,1.5-2.9,1.7-3.1,0.2c-0.2-1.6-6-3.4-6.9-4.1c1.1,2.3,3.7,4.4,5.6,6.6c1.6,1.3,1.7,1.4,0.7,3.5
	c0.2,1.3-0.2,2.8-1.5,3.8c-0.7,0.9-0.8,0.1-0.9-0.7c0.5-0.6,0.1-1.6-0.5-2.6c-0.2,0.1-0.4,0.2-0.6,0.3c-2.4,0.3-3.3-0.4-2.7-2.9
	c0.5-2.5-2.2-5.4-2.3-6.2c-0.9-0.7-1-1.5-1.1-2.3c-0.9-0.7-5.1-2.7-6.6-1.7s-3.1,1.1-4.2-1.2c0.1-0.1,0.1-0.2,0.2-0.4
	c-1.4-0.5-2.7-0.8-3.3-0.1c-0.8,0.1-0.8,0.1-0.9-0.7C126.7,304.8,129,304.5,130.7,305.1z"/>
<path id="SVGCleanerId_0" style="fill:#EDB92E;" d="M74.8,331.6c-0.1,0.3-0.2,0.7-0.3,1c0.2-1.4,1-2.8,2.4-4.2
	c1.6-1.6,1.6-4.8,0-6.4c-1.6-0.8-2.4-2.4-4-4c-0.8,1.6-1.6,3.2-3.2,4c-1.6,1.6-1.6,4.8,0,6.4s2.4,4,2.4,4.8c0,0.4,0.2,1.2,0.3,2.2
	c-0.2-1.2-0.6-2.5-1.1-3.8c-2.4-5.6-12-3.2-6.4,4h0.8c0-1.6,0.8-2.4,2.4-2.4c4,0.8,4,8.8,0,7.2c-1.6,0-0.8,1.6,0,2.4
	c0.7,0.5,1.5,0.7,2.1,0.4c0.1,0.5,0.8,1.4,1.9,2c0,0,0.8,0.8,0.8,1.6h0.8c0-0.8,0.8-0.8,0.8-1.6c1-0.5,1.7-1.3,1.9-1.9
	c0.5,0.1,1.1-0.1,1.7-0.5c0.8-0.8,1.6-2.4,0-2.4c-4,1.6-4-6.4,0-7.2c1.6,0,2.4,0.8,2.4,2.4h0.8C86.8,328.4,77.2,326,74.8,331.6z"/>
<path style="fill:#EDB92E;" d="M78.4,305.1L78.4,305.1c-0.8-0.1-1.6-0.1-3.1,0.5c-1.8,1.4-2.6,2.1-3.4,1.2c-1.6-0.2,2.6-2.1,6.3-5.7
	c5.4-5,5.7-8.2,6-10.6c-1.6-0.2-3.3,0.4-7.7,4c-2.8,3.7-4.9,7.5-8.5,11.1c-0.9,0.7-1.7,0.6-2.6,1.3c-0.8-0.1-6.4-0.7-6.4-0.7
	c-1-1.3-3-1.4-3.8-0.4h-0.1c-1.4-1.8-3.1-1.1-4.2,1.2c-0.1,0.8,0.7,0.9,0.7,0.9c0.8-0.7,1.6-0.6,3,0.2c0,1,1.1,2.5,2.4,2
	c0.9-0.7,5.6,0.6,6.4-0.1c-1,1.5-4.2,1.9-6.6,1.7c-0.1,0-0.2,0-0.4,0c-2.4,0-3.6,1-2.6,5.3c0.7,0.9,0.7,0.9,0.8,0.1
	c0.1-0.5,0.4-0.9,1.1-1.4c0.7,1.5,2.9,1.7,3.1,0.2c0.2-1.6,6-3.4,6.9-4.1c-1.1,2.3-3.7,4.4-5.6,6.6c-1.6,1.3-1.7,1.4-0.7,3.5
	c-0.2,1.3,0.2,2.8,1.5,3.8c0.7,0.9,0.8,0.1,0.9-0.7c-0.5-0.6-0.1-1.6,0.5-2.6c0.2,0.1,0.4,0.2,0.6,0.3c2.4,0.3,3.3-0.4,2.7-2.9
	c-0.5-2.5,2.2-5.4,2.3-6.2c0.9-0.7,1-1.5,1.1-2.3c0.9-0.7,5.1-2.7,6.6-1.7s3.1,1.1,4.2-1.2c-0.1-0.1-0.1-0.2-0.2-0.4
	c1.4-0.5,2.7-0.8,3.3-0.1c0.8,0.1,0.8,0.1,0.9-0.7C82.5,304.8,80.1,304.5,78.4,305.1z"/>
<g>
	<path id="SVGCleanerId_0_1_" style="fill:#EDB92E;" d="M74.8,331.6c-0.1,0.3-0.2,0.7-0.3,1c0.2-1.4,1-2.8,2.4-4.2
		c1.6-1.6,1.6-4.8,0-6.4c-1.6-0.8-2.4-2.4-4-4c-0.8,1.6-1.6,3.2-3.2,4c-1.6,1.6-1.6,4.8,0,6.4s2.4,4,2.4,4.8c0,0.4,0.2,1.2,0.3,2.2
		c-0.2-1.2-0.6-2.5-1.1-3.8c-2.4-5.6-12-3.2-6.4,4h0.8c0-1.6,0.8-2.4,2.4-2.4c4,0.8,4,8.8,0,7.2c-1.6,0-0.8,1.6,0,2.4
		c0.7,0.5,1.5,0.7,2.1,0.4c0.1,0.5,0.8,1.4,1.9,2c0,0,0.8,0.8,0.8,1.6h0.8c0-0.8,0.8-0.8,0.8-1.6c1-0.5,1.7-1.3,1.9-1.9
		c0.5,0.1,1.1-0.1,1.7-0.5c0.8-0.8,1.6-2.4,0-2.4c-4,1.6-4-6.4,0-7.2c1.6,0,2.4,0.8,2.4,2.4h0.8C86.8,328.4,77.2,326,74.8,331.6z"/>
</g>
<g>
	<path style="fill:#EDB92E;" d="M130.7,305.1L130.7,305.1c0.8-0.1,1.6-0.1,3.1,0.5c1.8,1.4,2.6,2.1,3.4,1.2c1.6-0.2-2.6-2.1-6.3-5.7
		c-5.4-5-5.7-8.2-6-10.6c1.6-0.2,3.3,0.4,7.7,4c2.8,3.7,4.9,7.5,8.5,11.1c0.9,0.7,1.7,0.6,2.6,1.3c0.8-0.1,6.4-0.7,6.4-0.7
		c1-1.3,3-1.4,3.8-0.4h0.1c1.4-1.8,3.1-1.1,4.2,1.2c0.1,0.8-0.7,0.9-0.7,0.9c-0.8-0.7-1.6-0.6-3,0.2c0,1-1.1,2.5-2.4,2
		c-0.9-0.7-5.6,0.6-6.4-0.1c1,1.5,4.2,1.9,6.6,1.7c0.1,0,0.2,0,0.4,0c2.4,0,3.6,1,2.6,5.3c-0.7,0.9-0.7,0.9-0.8,0.1
		c-0.1-0.5-0.4-0.9-1.1-1.4c-0.7,1.5-2.9,1.7-3.1,0.2c-0.2-1.6-6-3.4-6.9-4.1c1.1,2.3,3.7,4.4,5.6,6.6c1.6,1.3,1.7,1.4,0.7,3.5
		c0.2,1.3-0.2,2.8-1.5,3.8c-0.7,0.9-0.8,0.1-0.9-0.7c0.5-0.6,0.1-1.6-0.5-2.6c-0.2,0.1-0.4,0.2-0.6,0.3c-2.4,0.3-3.3-0.4-2.7-2.9
		c0.5-2.5-2.2-5.4-2.3-6.2c-0.9-0.7-1-1.5-1.1-2.3c-0.9-0.7-5.1-2.7-6.6-1.7s-3.1,1.1-4.2-1.2c0.1-0.1,0.1-0.2,0.2-0.4
		c-1.4-0.5-2.7-0.8-3.3-0.1c-0.8,0.1-0.8,0.1-0.9-0.7C126.7,304.8,129,304.5,130.7,305.1z"/>
	<path style="fill:#EDB92E;" d="M134.4,331.6c0.1,0.3,0.2,0.7,0.3,1c-0.2-1.4-1-2.8-2.4-4.2c-1.6-1.6-1.6-4.8,0-6.4
		c1.6-0.8,2.4-2.4,4-4c0.8,1.6,1.6,3.2,3.2,4c1.6,1.6,1.6,4.8,0,6.4s-2.4,4-2.4,4.8c0,0.4-0.2,1.2-0.3,2.2c0.2-1.2,0.6-2.5,1.1-3.8
		c2.4-5.6,12-3.2,6.4,4h-0.8c0-1.6-0.8-2.4-2.4-2.4c-4,0.8-4,8.8,0,7.2c1.6,0,0.8,1.6,0,2.4c-0.7,0.5-1.5,0.7-2.1,0.4
		c-0.1,0.5-0.8,1.4-1.9,2c0,0-0.8,0.8-0.8,1.6h-0.8c0-0.8-0.8-0.8-0.8-1.6c-1-0.5-1.7-1.3-1.9-1.9c-0.5,0.1-1.1-0.1-1.7-0.5
		c-0.8-0.8-1.6-2.4,0-2.4c4,1.6,4-6.4,0-7.2c-1.6,0-2.4,0.8-2.4,2.4H128C122.4,328.4,132,326,134.4,331.6z"/>
</g>
<path style="fill:#EDB92E;" d="M71.8,327C72.6,327,72.6,326.2,71.8,327L71.8,327z"/>
<g>
	<path style="fill:#F5F5F5;" d="M112.2,293.4L118,279l-13.2,3.3L91.6,279l5.8,14.4c0.5,1.3,0.6,2.8,0.2,4.1l-14.3,48.8
		c-0.9,3.1,0.6,6.5,3.6,7.8c4.2,1.8,10.5,3.9,17.9,3.9s13.7-2.1,17.9-3.9c3-1.3,4.6-4.6,3.6-7.8L112,297.6
		C111.6,296.2,111.7,294.8,112.2,293.4z"/>
	<path style="fill:#F5F5F5;" d="M81.8,217.8l-15-7.5c-2.8-1.4-4.2-4.5-3.4-7.5l0.8-3.4c0.6-2.4-1.2-4.6-3.6-4.6
		c-1.1,0-2.2,0.5-2.9,1.4c-7.8,9.7-12,21.9-12,34.3c3.2,16.3,1.9,42.3,0,69.6c0,0,13.7-2.7,26.2-20.8c2.3-3.3,6-5.3,10-5.5
		l-7.3,20.7c1.2-0.3,3.6-1.5,4.3-2.3c0,1.2,0,2.2,0.6,3.3c1.2-0.6,2.2-1.2,2.8-2.5c0.4,1.2,0.4,2.5,1.3,3.5c0.9-0.5,2.3-1.9,2.8-3.3
		c0.5,1.6,0.7,2.8,2.1,3.5c2.9-4,7-8.8,11.5-13.7L81.8,217.8z"/>
	<path style="fill:#F5F5F5;" d="M109.6,283.1c4.5,4.9,8.6,9.7,11.5,13.7c1.4-0.7,1.6-1.9,2.1-3.5c0.5,1.4,1.8,2.7,2.8,3.3
		c1-1,1-2.3,1.3-3.5c0.7,1.3,1.6,1.9,2.8,2.5c0.6-1.1,0.6-2.2,0.6-3.3c0.6,0.9,3.1,2,4.3,2.3l-7.3-20.7c4,0.2,7.8,2.2,10,5.5
		c12.4,18.1,26.2,20.8,26.2,20.8c-1.9-27.3-3.2-53.3,0-69.6c0-12.5-4.2-24.6-12-34.3c-0.7-0.9-1.8-1.4-2.9-1.4
		c-2.4,0-4.2,2.3-3.6,4.6l0.8,3.4c0.7,3-0.7,6.1-3.4,7.5l-15,7.5L109.6,283.1z"/>
</g>
<g>
	<path style="fill:#EDB92E;" d="M84.1,194.7h-8.2c-3.4,0-5.3,3.9-3.3,6.6l0,0c3.9-0.6,7.8,0.5,11.5,3.3c-1.1,1.4-3.5,2.4-6.6,3.3
		c3.3,1.4,6.6,1.7,9.9,0L84.1,194.7z"/>
	<path style="fill:#EDB92E;" d="M122.6,207.9c3.3,1.7,6.6,1.4,9.9,0c-3.1-0.9-5.5-1.9-6.6-3.3c3.8-2.8,7.6-3.9,11.5-3.3l0,0
		c2-2.7,0.1-6.6-3.3-6.6h-8.2L122.6,207.9z"/>
</g>
<g>
	<path style="fill:#F5F5F5;" d="M126.9,192.1l-13.9,2.3c-1,0.2-1.9,0.8-2.3,1.7c-2.7,4.7-4.6,9.6-5.9,14.7
		c-1.4-5.4-3.2-10.5-5.9-14.7c-0.5-0.9-1.3-1.6-2.3-1.7l-13.9-2.3c-1.8-0.3-3.1,1.5-2.3,3.2l7.9,15.9l-6.6,6.6h23h23l-6.6-6.6
		l7.9-15.9C130,193.7,128.7,191.8,126.9,192.1z"/>
	<circle style="fill:#F5F5F5;" cx="104.8" cy="166.5" r="4.9"/>
</g>
<ellipse style="fill:#0C4076;" cx="104.8" cy="178.3" rx="3.9" ry="2.7"/>
<ellipse style="fill:#C6363C;" cx="85.3" cy="178.3" rx="3.9" ry="2.7"/>
<g>
	<ellipse style="fill:#0C4076;" cx="65.8" cy="178.3" rx="3.9" ry="2.7"/>
	<ellipse style="fill:#0C4076;" cx="143.7" cy="178.3" rx="3.9" ry="2.7"/>
</g>
<ellipse style="fill:#C6363C;" cx="124.2" cy="178.3" rx="3.9" ry="2.7"/>
<g>
	<circle style="fill:#F5F5F5;" cx="127.7" cy="166.5" r="4.9"/>
	<circle style="fill:#F5F5F5;" cx="145.7" cy="166.5" r="4.9"/>
	<circle style="fill:#F5F5F5;" cx="82" cy="166.5" r="4.9"/>
	<circle style="fill:#F5F5F5;" cx="63.9" cy="166.5" r="4.9"/>
</g>
<path style="fill:#0C4076;" d="M110.5,138.8c0.6-1,0.9-2.1,0.9-3.3c0-3.6-2.9-6.6-6.6-6.6s-6.6,2.9-6.6,6.6c0,1.2,0.3,2.3,0.9,3.3
	C99.1,138.8,110.5,138.8,110.5,138.8z"/>
<path style="fill:#C6363C;" d="M104.8,285.2c-13.6,0-24.7-11.1-24.7-24.7v-44.4h49.4v44.4C129.5,274.2,118.4,285.2,104.8,285.2z"/>
<path style="fill:#A54B50;" d="M127.9,217.8v42.8c0,12.7-10.3,23-23,23s-23-10.3-23-23v-42.8L127.9,217.8 M131.2,214.5h-3.3H81.8
	h-3.3v3.3v42.8c0,14.5,11.8,26.3,26.3,26.3s26.3-11.8,26.3-26.3v-42.8v-3.3H131.2z"/>
<g>
	<path style="fill:#FFFFFF;" d="M127.9,242.9h-18.1v-25.2h-9.9v25.2H81.8v9.9h18.1v30.3c1.6,0.3,3.2,0.5,4.9,0.5
		c1.7,0,3.3-0.2,4.9-0.5v-30.3h18.1v-9.9H127.9z"/>
	<path style="fill:#FFFFFF;" d="M85.9,259.3c0,3.2,4,5.6,5.6,2.4c0.8-1.6,0-2.4-0.8-2.4s-1.6,0-1.6,1.6c-3.2-1.6,3.2-5.6,6.4-0.8
		c0,1.6-2.4,3.2-2.4,4s2.4,2.4,1.6,4c-3.2,4.8-9.6,0.8-6.4-0.8c0,0.8,0.8,1.6,1.6,1.6c0.8,0,1.6-1.6,0.8-2.4
		c-0.8-3.2-5.6-0.8-5.6,2.4c0.8,8,8.8,4.8,12.8,3.2v-16C94.7,255.3,85.9,252.1,85.9,259.3z"/>
	<path style="fill:#FFFFFF;" d="M85.9,225.3c0,3.2,4,5.6,5.6,2.4c0.8-1.6,0-2.4-0.8-2.4s-1.6,0-1.6,1.6c-3.2-1.6,3.2-5.6,6.4-0.8
		c0,1.6-2.4,3.2-2.4,4s2.4,2.4,1.6,4c-3.2,4.8-9.6,0.8-6.4-0.8c0,0.8,0.8,1.6,1.6,1.6c0.8,0,1.6-1.6,0.8-2.4
		c-0.8-3.2-5.6-0.8-5.6,2.4c0.8,8,8.8,4.8,12.8,3.2v-16C94.7,221.3,85.9,218.1,85.9,225.3z"/>
	<path style="fill:#FFFFFF;" d="M119.3,266.5c-0.8,0.8,0,2.4,0.8,2.4s1.6-0.8,1.6-1.6c3.2,1.6-3.2,5.6-6.4,0.8
		c-0.8-1.6,1.6-3.2,1.6-4s-2.4-2.4-2.4-4c3.2-4.8,9.6-0.8,6.4,0.8c0-1.6-0.8-1.6-1.6-1.6c-0.8,0-1.6,0.8-0.8,2.4
		c1.6,3.2,5.6,0.8,5.6-2.4c0-7.2-8.8-4-12-3.2v16c4,1.6,12,4.8,12.8-3.2C124.9,265.7,120.1,263.3,119.3,266.5z"/>
	<path style="fill:#FFFFFF;" d="M124.9,234.9c0-3.2-4.8-5.6-5.6-2.4c-0.8,0.8,0,2.4,0.8,2.4c0.8,0,1.6-0.8,1.6-1.6
		c3.2,1.6-3.2,5.6-6.4,0.8c-0.8-1.6,1.6-3.2,1.6-4s-2.4-2.4-2.4-4c3.2-4.8,9.6-0.8,6.4,0.8c0-1.6-0.8-1.6-1.6-1.6s-1.6,0.8-0.8,2.4
		c1.6,3.2,5.6,0.8,5.6-2.4c0-7.2-8.8-4-12-3.2v16C116.1,239.7,124.1,242.9,124.9,234.9z"/>
</g>
<g>
</g>
<g>
</g>
<g>
</g>
<g>
</g>
<g>
</g>
<g>
</g>
<g>
</g>
<g>
</g>
<g>
</g>
<g>
</g>
<g>
</g>
<g>
</g>
<g>
</g>
<g>
</g>
<g>
</g>
</svg>
