<?xml version="1.0" encoding="iso-8859-1"?>
<!-- Generator: Adobe Illustrator 19.0.0, SVG Export Plug-In . SVG Version: 6.00 Build 0)  -->
<svg version="1.1" id="Capa_1" xmlns="http://www.w3.org/2000/svg" xmlns:xlink="http://www.w3.org/1999/xlink" x="0px" y="0px"
	 viewBox="0 0 496 496" style="enable-background:new 0 0 496 496;" xml:space="preserve">
<path style="fill:#6BD8F2;" d="M496,369.6c0,27.2-21.6,48.8-48,48.8H48c-26.4,0-48-21.6-48-48.8V126.4c0-27.2,21.6-48.8,48-48.8h400
	c26.4,0,48,21.6,48,48.8V369.6z"/>
<path style="fill:#44CBEA;" d="M48,77.6h400c26.4,0,48,21.6,48,48.8v243.2c0,27.2-21.6,48.8-48,48.8"/>
<g>
	<path style="fill:#0DB9D6;" d="M48,77.6h400c26.4,0,48,21.6,48,48.8v88.8"/>
	<path style="fill:#0DB9D6;" d="M496,369.6c0,27.2-21.6,48.8-48,48.8H48c-26.4,0-48-21.6-48-48.8"/>
</g>
<path style="fill:#FFFFFF;" d="M165.6,168c-6.4,8-6.4,15.2-6.4,15.2l0,0c0,0,4.8-1.6,10.4-8c0,0,0.8-0.8,0.8-1.6
	c7.2-8.8,12.8-18.4,12.8-18.4s-7.2,1.6-16,10.4C166.4,167.2,165.6,168,165.6,168z"/>
<path style="fill:#D7F0F4;" d="M165.6,168c-1.6,2.4-3.2,4-4,6.4l4.8,4c0.8-0.8,1.6-1.6,3.2-3.2c0,0,0.8-0.8,0.8-1.6
	c7.2-8.8,12.8-18.4,12.8-18.4s-7.2,1.6-16,10.4C166.4,167.2,165.6,168,165.6,168z"/>
<g>
	<path style="fill:#FFFFFF;" d="M149.6,182.4c-3.2,10.4,0,24.8,0,24.8l0,0c0,0,1.6-2.4,4-4.8l0.8-0.8c4-4,9.6-8.8,13.6-13.6l0,0
		c8-9.6,8.8-15.2,8.8-15.2s-2.4,3.2-6.4,5.6c-3.2,2.4-7.2,4.8-10.4,7.2c-4.8,4-6.4,7.2-6.4,7.2l0,0c0-0.8,0.8-3.2,1.6-6.4
		c0.8-3.2,1.6-8,2.4-11.2c0-0.8,0-0.8,0-1.6c1.6-6.4,3.2-10.4,3.2-10.4l0,0l0,0c0,0-7.2,4.8-11.2,14.4c0,0.8-0.8,2.4-0.8,3.2
		C149.6,181.6,149.6,181.6,149.6,182.4z"/>
	<path style="fill:#FFFFFF;" d="M142.4,230.4c0.8,2.4,1.6,4.8,1.6,6.4c0,0.8,0,0.8,0.8,0.8l0,0l0,0c0,0,0.8-4,3.2-8.8
		c0.8-0.8,1.6-1.6,2.4-3.2c3.2-4,6.4-9.6,9.6-15.2v-0.8c3.2-5.6,4.8-11.2,5.6-13.6c0-0.8,0-0.8,0-0.8l0,0c0,0-1.6,1.6-3.2,3.2
		l-0.8,0.8c-2.4,1.6-4.8,4-7.2,7.2c-0.8,0.8-1.6,1.6-2.4,2.4c-0.8,0.8-1.6,1.6-2.4,2.4c-2.4,4-4,7.2-4,7.2s0.8-4,0.8-10.4v-0.8
		c0-4-1.6-8.8-1.6-15.2c0-0.8,0-0.8,0-1.6c0-0.8,0-0.8,0-1.6c1.6-6.4,1.6-8.8,1.6-8.8l0,0l0,0c0,0-7.2,8.8-8.8,20.8c0,1.6,0,2.4,0,4
		c0,6.4,1.6,13.6,4,20C141.6,227.2,141.6,228.8,142.4,230.4z"/>
	<path style="fill:#FFFFFF;" d="M148,261.6L148,261.6h0.8c0,0-0.8-3.2-0.8-5.6v-0.8c1.6-4.8,4-9.6,4.8-11.2c1.6-4,2.4-7.2,3.2-10.4
		c0-1.6,0.8-3.2,0.8-4.8c1.6-5.6,0-10.4,0-10.4s-6.4,8.8-9.6,17.6c-3.2,7.2-2.4,14.4-2.4,14.4l0,0c0-0.8-1.6-6.4-4-13.6
		c-1.6-6.4-4.8-10.4-7.2-16c0,0,0-0.8-0.8-0.8c-2.4-4.8-3.2-9.6-3.2-9.6s-1.6,5.6-1.6,12c0,0.8,0,1.6,0,3.2
		c0.8,4.8,1.6,12.8,8.8,21.6C145.6,256.8,148,261.6,148,261.6z"/>
	<path style="fill:#FFFFFF;" d="M161.6,289.6h0.8c0,0,0-0.8-0.8-1.6c-0.8-1.6-1.6-4-1.6-8c0,0,0,0,0-0.8c0.8-8,1.6-18.4,0.8-26.4
		c-0.8-8.8-4-13.6-4-13.6s-3.2,12.8-3.2,22.4s1.6,13.6,3.2,16.8c0.8,1.6,0.8,2.4,0.8,2.4s-3.2-6.4-8-13.6c-4-4.8-8.8-8.8-12-14.4
		c-4-5.6-5.6-9.6-5.6-9.6s0,0,0,0.8c0,2.4,0,12,5.6,22.4c0.8,2.4,2.4,4,4,6.4l0.8,0.8c4,4.8,9.6,8,13.6,11.2
		C159.2,287.2,161.6,289.6,161.6,289.6z"/>
	<path style="fill:#FFFFFF;" d="M181.6,312.8L181.6,312.8h1.6c0,0-1.6-2.4-3.2-8.8c-0.8-3.2-0.8-6.4-1.6-10.4
		c-0.8-2.4-0.8-4.8-1.6-6.4c-4-9.6-10.4-19.2-11.2-20.8l0,0c0,0,0,2.4,0.8,8c0,4.8,0.8,12,1.6,16.8c2.4,9.6,8.8,16.8,8.8,16.8
		s-0.8-0.8-2.4-2.4l-0.8-0.8c-1.6-2.4-4.8-4.8-8-7.2c-3.2-2.4-8-5.6-12-8.8c-1.6-1.6-3.2-2.4-4.8-4c-3.2-3.2-5.6-5.6-7.2-8
		c-1.6-2.4-2.4-2.4-2.4-2.4s0,1.6,0.8,3.2c1.6,5.6,5.6,16,12.8,23.2c0.8,0.8,3.2,4,9.6,7.2c4,1.6,10.4,3.2,15.2,4
		C180.8,312,181.6,312.8,181.6,312.8z"/>
	<path style="fill:#FFFFFF;" d="M192,328c3.2-0.8,7.2-1.6,11.2-1.6c3.2-0.8,6.4-1.6,7.2-1.6l0,0l0.8-0.8c0,0-3.2-0.8-5.6-4
		c-4-5.6-5.6-11.2-13.6-20c-6.4-7.2-11.2-11.2-11.2-11.2s0,0.8,0,1.6c0,1.6,0.8,4,1.6,6.4c0.8,4,2.4,8.8,4.8,13.6
		c0,0.8,0.8,1.6,0.8,1.6c0.8,1.6,1.6,2.4,2.4,3.2c4,4,8.8,6.4,8.8,6.4s-3.2-1.6-8-2.4c-0.8,0-1.6,0-2.4-0.8c-2.4-0.8-5.6-0.8-8-1.6
		c-4-0.8-8-2.4-12-3.2c-6.4-1.6-10.4-4-12-4.8c-0.8-0.8-1.6-0.8-1.6-0.8s7.2,13.6,22.4,18.4c2.4,0.8,4,1.6,9.6,1.6c0.8,0,2.4,0,4,0
		C191.2,328,191.2,328,192,328z"/>
	<path style="fill:#FFFFFF;" d="M306.4,334.4c-8-1.6-22.4-6.4-31.2-7.2c-0.8,0-1.6,0-1.6,0c-12-0.8-24,3.2-24,3.2s-1.6,0-3.2-0.8
		c-0.8,0-0.8,0-1.6,0s-0.8,0-1.6,0c-4.8-0.8-11.2-2.4-16-2.4c-14.4,0.8-24,4.8-32.8,6.4c-3.2,0.8-5.6,0.8-8,0.8
		c-11.2,0-13.6-1.6-13.6-1.6s10.4,8.8,27.2,8.8c12.8,0,21.6-4,30.4-7.2c1.6-0.8,2.4-0.8,3.2-1.6c3.2-0.8,5.6-1.6,7.2-1.6
		c1.6,0,2.4,0,2.4,0l0,0c0,0-8.8,3.2-15.2,8c-8,4.8-12,10.4-12,10.4l0,0c0,0,1.6,0.8,2.4,1.6c0.8,0.8,2.4,0.8,2.4,0.8
		s3.2-6.4,10.4-11.2c7.2-5.6,16.8-8,16.8-8s8.8,3.2,16,8c6.4,4.8,9.6,10.4,9.6,10.4l0,0c0,0,0.8,0,1.6-0.8c0,0,0.8,0,0.8-0.8
		c0.8-0.8,1.6-0.8,1.6-0.8l0,0c0,0-3.2-4-8-7.2c-8-5.6-16.8-9.6-16.8-9.6s0.8,0,1.6,0c2.4,0,5.6,0.8,6.4,1.6c8,4,15.2,6.4,23.2,8
		c3.2,0.8,7.2,0.8,10.4,0.8c16.8,0,26.4-8.8,26.4-8.8l0,0C321.6,333.6,315.2,335.2,306.4,334.4z"/>
	<path style="fill:#FFFFFF;" d="M328,314.4c-0.8,0-1.6,0.8-2.4,0.8c-6.4,1.6-12.8,3.2-18.4,4.8c-4.8,0.8-7.2,2.4-8.8,2.4l0,0
		c0.8,0,6.4-2.4,11.2-9.6c3.2-4.8,4.8-11.2,6.4-16c0.8-4,1.6-7.2,1.6-7.2s-6.4,6.4-13.6,13.6s-8.8,13.6-12,17.6
		c-2.4,3.2-4.8,4-5.6,4l0,0v0.8c0,0,3.2,0.8,7.2,1.6c0.8,0,0.8,0,1.6,0c4,0.8,8.8,1.6,14.4,1.6c2.4,0,4.8,0,7.2-0.8
		c16-4.8,23.2-16,24.8-19.2l0,0l0,0l0,0l0,0C340.8,308.8,336,312,328,314.4z"/>
</g>
<g>
	<path style="fill:#D7F0F4;" d="M356,276.8c-1.6,1.6-3.2,4.8-8,8.8s-12.8,9.6-18.4,14.4l-0.8,0.8c-2.4,1.6-4.8,4.8-6.4,5.6
		c-1.6,1.6-2.4,2.4-2.4,2.4s7.2-8,9.6-16.8c0-0.8,0-1.6,0.8-2.4c0.8-4.8,0.8-8.8,1.6-12.8c0-4.8,0.8-8.8,0.8-8.8l0,0l0,0
		c-0.8,1.6-5.6,10.4-9.6,19.2c-3.2,7.2-4,12-4.8,16c-0.8,1.6-0.8,4-1.6,5.6c-0.8,3.2-2.4,5.6-2.4,5.6h0.8c0,0,1.6-0.8,5.6-1.6
		c6.4-1.6,14.4-1.6,23.2-8.8c0.8-0.8,2.4-2.4,3.2-3.2c9.6-10.4,12-24.8,12-24.8l0,0l0,0C357.6,275.2,356.8,276,356,276.8z"/>
	<path style="fill:#D7F0F4;" d="M357.6,256c-2.4,4-6.4,7.2-9.6,11.2c-0.8,1.6-2.4,2.4-3.2,4c-4,5.6-6.4,10.4-6.4,11.2l0,0
		c0,0,3.2-6.4,3.2-19.2c0-10.4-3.2-22.4-3.2-22.4s-3.2,5.6-4,18.4c-0.8,7.2,0.8,16,0.8,22.4c0,5.6-2.4,9.6-2.4,9.6h0.8l0,0
		c0,0,2.4-2.4,6.4-5.6l0.8-0.8c5.6-4,12-8.8,16-14.4c8.8-13.6,7.2-25.6,7.2-25.6s0,0,0,0.8C364,245.6,361.6,251.2,357.6,256z"/>
	<path style="fill:#D7F0F4;" d="M363.2,215.2c0,0.8-0.8,1.6-0.8,2.4c-2.4,6.4-6.4,14.4-8.8,21.6c-1.6,4.8-2.4,8.8-3.2,10.4
		c0,0.8,0,1.6,0,1.6s0-7.2-2.4-14.4c-0.8-0.8-0.8-2.4-1.6-3.2c-3.2-8-8.8-15.2-8.8-15.2s0,0,0,0.8c0,1.6-0.8,6.4,0.8,14.4
		c1.6,7.2,5.6,15.2,7.2,20.8c0.8,3.2,0,6.4,0,7.2l0,0h0.8c0,0,1.6-2.4,4-6.4c4-5.6,10.4-13.6,12-20c0.8-1.6,0.8-3.2,1.6-4.8
		c0.8-2.4,0.8-4.8,0.8-7.2l0,0c0-3.2-0.8-6.4-1.6-8.8v-0.8c-0.8-2.4-0.8-4-0.8-4S364.8,212.8,363.2,215.2z"/>
	<path style="fill:#D7F0F4;" d="M351.2,192.8c0,5.6-1.6,11.2-1.6,16c0,4.8,0.8,9.6,0.8,9.6l0,0c0-0.8-2.4-4.8-6.4-9.6
		c-2.4-3.2-6.4-5.6-8.8-8s-4.8-4.8-4.8-4.8l0,0l0,0c0,0,0.8,4.8,3.2,9.6c0,0.8,0.8,1.6,0.8,2.4c5.6,11.2,10.4,15.2,13.6,21.6
		c2.4,4,2.4,7.2,2.4,7.2l0.8-0.8c0,0,0-0.8,0.8-2.4c0-1.6,0.8-3.2,1.6-5.6c1.6-7.2,4.8-16.8,4-25.6c0-0.8,0-2.4,0-3.2
		c-0.8-3.2-1.6-5.6-2.4-8.8c-2.4-5.6-4.8-8.8-5.6-10.4l0,0l0,0C349.6,180.8,351.2,185.6,351.2,192.8z"/>
	<path style="fill:#D7F0F4;" d="M338.4,176c0.8,3.2,1.6,7.2,1.6,10.4c0,0.8,0,0.8,0,1.6c0.8,3.2,1.6,5.6,1.6,5.6s-0.8-3.2-4.8-6.4
		c-3.2-3.2-8.8-6.4-12-8.8c-4-2.4-5.6-5.6-5.6-5.6s0,0,0,0.8c0.8,1.6,2.4,7.2,9.6,15.2c4,4.8,8,8.8,12,12c0.8,0.8,0.8,0.8,1.6,1.6
		c3.2,3.2,4.8,4.8,4.8,4.8l0,0c0,0,0-2.4,0.8-5.6c0-2.4,0.8-5.6,0.8-8.8c0-3.2,0-7.2-1.6-11.2c-1.6-5.6-4-9.6-7.2-12.8
		c-2.4-2.4-4.8-4-4.8-4.8l0,0c0,0,0,0.8,0.8,3.2C336.8,168.8,337.6,172,338.4,176z"/>
	<path style="fill:#D7F0F4;" d="M316.8,161.6c2.4,3.2,4.8,7.2,8,12c1.6,1.6,2.4,3.2,4,4.8c0,0,0,0.8,0.8,0.8c3.2,3.2,8,4.8,8,4.8
		l0,0c0-1.6-0.8-7.2-7.2-15.2c-0.8-0.8-0.8-1.6-1.6-2.4c-5.6-6.4-15.2-9.6-15.2-9.6l0,0C314.4,157.6,315.2,159.2,316.8,161.6z"/>
</g>
<path style="fill:#FFFFFF;" d="M256.8,144c-2.4,0-4,1.6-4,4c0,0.8,0,0.8,0,1.6c-7.2,5.6-14.4,16.8-20.8,32c-1.6-0.8-2.4-1.6-4-1.6
	c0,0-4-1.6-7.2,0c-3.2,0.8-4.8,4.8-4.8,4.8c-2.4,4-2.4,9.6-2.4,11.2c-0.8,0.8-1.6,1.6-1.6,2.4c0,1.6,0.8,2.4,1.6,3.2
	c0,2.4,0.8,4,0.8,6.4c-5.6,0-8.8,1.6-10.4,4c-1.6,3.2-0.8,7.2,2.4,12c-3.2,0.8-5.6,2.4-8,3.2c-12,5.6-17.6,12.8-16.8,18.4l0,0
	c0,2.4,1.6,4.8,4.8,6.4c4,3.2,10.4,4.8,18.4,6.4c3.2,0.8,7.2,0.8,9.6,0.8c-0.8,27.2,4.8,46.4,15.2,48.8c8,1.6,17.6-6.4,25.6-21.6
	c6.4,5.6,12,7.2,16,5.6c5.6-2.4,7.2-10.4,5.6-23.2c0-1.6,0-2.4-0.8-4c1.6,0,3.2,0,4,0c5.6,0,8-3.2,8.8-4.8c0.8-0.8,1.6-1.6,1.6-3.2
	s-0.8-3.2-2.4-3.2c-0.8-1.6-1.6-4-3.2-5.6c2.4-0.8,5.6-2.4,8-3.2c12-5.6,17.6-12.8,16.8-18.4c-0.8-6.4-8.8-10.4-21.6-12.8
	c-3.2-0.8-7.2-0.8-11.2-0.8c1.6-10.4,1.6-20,1.6-28s-0.8-20.8-5.6-30.4c-2.4-4.8-4.8-7.2-8-8c-3.2-0.8-5.6-0.8-7.2,0
	C258.4,144.8,257.6,144,256.8,144z M219.2,208c0-2.4-0.8-4-0.8-6.4c1.6-0.8,2.4-1.6,2.4-3.2c0-1.6-0.8-2.4-1.6-3.2
	c0-1.6,0-6.4,1.6-8.8c0,0,1.6-2.4,3.2-3.2c2.4-0.8,4.8,0,4.8,0c0.8,0,1.6,0.8,1.6,0.8c0.8,0,0.8,0.8,1.6,0.8c-3.2,7.2-5.6,15.2-8,24
	C222.4,208,220.8,208,219.2,208z M207.2,215.2c0-0.8,0-1.6,0.8-2.4c1.6-2.4,4-3.2,8.8-3.2c0.8,3.2,1.6,6.4,2.4,10.4
	c-3.2,0.8-6.4,1.6-8.8,3.2C208,220,207.2,216.8,207.2,215.2z M270.4,244c-0.8,2.4-1.6,4.8-2.4,7.2c-4.8,1.6-10.4,2.4-16,3.2
	c-3.2-1.6-7.2-4-11.2-5.6c-4-2.4-7.2-4.8-11.2-7.2c-2.4-6.4-4.8-12-7.2-17.6c0-0.8,0-1.6,0.8-1.6v-0.8c5.6-1.6,12-3.2,18.4-4
	c4,1.6,8.8,4,12.8,7.2c3.2,1.6,6.4,4,8.8,5.6C266.4,235.2,268.8,240,270.4,244z M268.8,232.8c1.6,0.8,2.4,1.6,4,3.2
	c0,1.6-0.8,2.4-0.8,4C270.4,237.6,269.6,235.2,268.8,232.8z M271.2,248.8c0,0.8,0,0.8,0.8,1.6h-0.8
	C271.2,250.4,271.2,249.6,271.2,248.8z M267.2,254.4c-0.8,1.6-1.6,4-1.6,5.6c-0.8,0-0.8,0-1.6,0c-2.4-0.8-4.8-1.6-8-3.2
	C260,256,263.2,255.2,267.2,254.4z M236.8,256.8c-1.6-3.2-4-7.2-5.6-11.2c2.4,1.6,5.6,3.2,8,4.8c3.2,1.6,5.6,3.2,8.8,4.8
	C244,256,240.8,256.8,236.8,256.8z M270.4,253.6c0.8,0,1.6-0.8,2.4-0.8c0.8,3.2,1.6,6.4,2.4,8.8c-2.4,0-4.8-0.8-7.2-1.6
	C268.8,258.4,269.6,256,270.4,253.6z M225.6,238.4c-1.6-1.6-3.2-2.4-4.8-4c0-1.6,0.8-4,0.8-5.6C223.2,232.8,224,235.2,225.6,238.4z
	 M256.8,222.4c-3.2-2.4-7.2-4-10.4-5.6c4-0.8,7.2-0.8,10.4-1.6c1.6,3.2,4,6.4,5.6,10.4C260.8,224.8,258.4,223.2,256.8,222.4z
	 M224,218.4c0.8-2.4,0.8-4.8,1.6-7.2c4,0.8,8,2.4,12,4C232.8,216,228.8,217.6,224,218.4z M221.6,218.4c-0.8-3.2-1.6-5.6-2.4-8.8
	c1.6,0,2.4,0,4,0.8C222.4,213.6,221.6,216,221.6,218.4z M220,222.4c0,0.8,0,0.8,0.8,1.6c-0.8,3.2-0.8,5.6-1.6,8.8
	c-3.2-2.4-5.6-5.6-7.2-8C214.4,224,216.8,223.2,220,222.4z M193.6,252.8c-4-1.6-7.2-4-8-6.4c-0.8-1.6,0-3.2,0-4
	c2.4-4.8,10.4-11.2,23.2-16c0.8,0.8,1.6,2.4,3.2,3.2c1.6,1.6,4,4,5.6,5.6c-0.8,7.2-1.6,14.4-2.4,20.8
	C209.6,256,200,255.2,193.6,252.8z M222.4,256.8c-0.8,0-2.4,0-4,0c0-6.4,0.8-12.8,1.6-19.2c2.4,1.6,4,3.2,6.4,5.6
	c0,0.8,0.8,1.6,0.8,2.4c1.6,4,4,8,5.6,12c-1.6,0-4,0-5.6,0c-0.8-0.8-1.6-1.6-3.2-1.6C224,255.2,223.2,256,222.4,256.8z M231.2,306.4
	c-9.6-1.6-13.6-20.8-12.8-46.4c1.6,0,3.2,0,4,0c0.8,0.8,1.6,1.6,2.4,1.6c1.6,0,2.4-0.8,3.2-1.6c2.4,0,4.8,0,7.2,0
	c4.8,8.8,10.4,16.8,16,22.4c0.8,0.8,1.6,2.4,3.2,3.2C247.2,299.2,238.4,307.2,231.2,306.4z M271.2,264c1.6,0,3.2,0.8,4,0.8
	c2.4,13.6,0.8,23.2-4,24.8c-3.2,1.6-8-0.8-13.6-5.6c3.2-6.4,6.4-13.6,8.8-21.6C268.8,264,270.4,264,271.2,264z M256,282.4
	c-5.6-5.6-11.2-13.6-17.6-23.2c4,0,8-0.8,12-1.6c0.8,0,0.8,0,1.6,0c4,1.6,8,3.2,12,4.8C261.6,269.6,259.2,276.8,256,282.4z
	 M288,254.4c-1.6,0.8-2.4,1.6-2.4,3.2c0,0.8,0.8,1.6,0.8,2.4l0,0c-0.8,0.8-3.2,2.4-6.4,2.4c-0.8,0-1.6,0-2.4,0
	c-0.8-3.2-1.6-6.4-2.4-10.4c3.2-0.8,6.4-2.4,9.6-3.2C286.4,251.2,287.2,252.8,288,254.4z M274.4,249.6c-0.8-1.6-0.8-4-1.6-5.6
	c0.8-2.4,0.8-4,1.6-6.4c4,3.2,6.4,6.4,8.8,9.6C280.8,248,277.6,248.8,274.4,249.6z M309.6,226.4c0.8,5.6-8,13.6-24,19.2
	c-0.8-0.8-1.6-1.6-2.4-2.4c-2.4-2.4-5.6-5.6-8.8-8c0-0.8,0-1.6,0.8-2.4c1.6-6.4,2.4-12,3.2-17.6C296.8,216,308.8,220.8,309.6,226.4z
	 M276,215.2c-0.8,5.6-1.6,12-3.2,17.6v0.8c-1.6-1.6-4-3.2-5.6-4.8c0,0,0-0.8-0.8-0.8c-1.6-4-4-8.8-6.4-12.8
	C265.6,214.4,271.2,214.4,276,215.2z M244,214.4c-0.8,0-1.6,0-2.4,0c-5.6-2.4-10.4-4-15.2-5.6c2.4-8,4.8-16,7.2-23.2
	c6.4,4.8,14.4,13.6,21.6,26.4C252,213.6,248,213.6,244,214.4z M272.8,157.6c4,8,4.8,21.6,5.6,29.6c0,8-0.8,16.8-1.6,25.6
	c-5.6,0-11.2,0-17.6,0.8c-3.2-5.6-7.2-11.2-10.4-16c-2.4-3.2-6.4-8.8-11.2-12c-0.8,0-0.8-0.8-1.6-0.8c0.8-2.4,2.4-4.8,3.2-7.2
	c5.6-11.2,11.2-20,16.8-24c0.8,0,1.6,0.8,1.6,0.8c1.6,0,3.2-1.6,4-3.2C263.2,148.8,268.8,148.8,272.8,157.6z"/>
<g>
	<path style="fill:#D7F0F4;" d="M290.4,213.6c-3.2-0.8-7.2-0.8-11.2-0.8c1.6-10.4,1.6-20,1.6-28s-0.8-20.8-5.6-30.4
		c-2.4-4.8-4.8-7.2-8-8c-3.2-0.8-5.6-0.8-7.2,0c-0.8-0.8-1.6-0.8-2.4-0.8c-2.4,0-4,1.6-4,4c0,0.8,0,0.8,0,1.6
		c-7.2,5.6-14.4,16.8-20.8,32c-1.6-0.8-2.4-1.6-4-1.6c0,0-4-1.6-7.2,0c-3.2,0.8-4.8,4.8-4.8,4.8c-2.4,4-2.4,9.6-2.4,11.2
		c-0.8,0.8-1.6,1.6-1.6,2.4c0,1.6,0.8,2.4,1.6,3.2c0,2.4,0.8,4,0.8,6.4c-5.6,0-8.8,1.6-10.4,4l0,0l1.6,1.6v-0.8
		c1.6-2.4,4-3.2,8.8-3.2c0.8,3.2,1.6,6.4,2.4,10.4c-0.8,0-1.6,0.8-3.2,0.8l2.4,1.6c0.8,0,0.8,0,1.6-0.8c0,0.8,0,0.8,0.8,1.6l0,0
		l4,3.2c-0.8-1.6-0.8-2.4-1.6-4c0-0.8,0-1.6,0.8-1.6v-0.8c5.6-1.6,12-3.2,18.4-4c4,1.6,8.8,4,12.8,7.2c3.2,1.6,6.4,4,8.8,5.6
		c2.4,4.8,4,9.6,5.6,14.4c-0.8,2.4-1.6,4.8-2.4,7.2c-4,0.8-8,1.6-12.8,2.4l2.4,2.4c3.2-0.8,6.4-0.8,8.8-1.6c-0.8,1.6-1.6,4-1.6,5.6
		c-0.8,0-0.8,0-1.6,0c-0.8,0-2.4-0.8-3.2-1.6l6.4,5.6V264c1.6,0.8,3.2,0.8,4,0.8c1.6,0,3.2,0.8,4,0.8c0.8,2.4,0.8,4.8,0.8,7.2
		l3.2,2.4c0-1.6,0-3.2-0.8-5.6c0-1.6,0-2.4-0.8-4c1.6,0,3.2,0,4,0c5.6,0,8-3.2,8.8-4.8c0.8-0.8,1.6-1.6,1.6-3.2s-0.8-3.2-2.4-3.2
		c-0.8-1.6-1.6-4-3.2-5.6c2.4-0.8,5.6-2.4,8-3.2c12-5.6,17.6-12.8,16.8-18.4C311.2,220,303.2,216,290.4,213.6z M238.4,176
		c5.6-11.2,11.2-20,16.8-24c0.8,0,1.6,0.8,1.6,0.8c1.6,0,3.2-1.6,4-3.2c2.4-0.8,8-0.8,12,8c4,8,4.8,21.6,5.6,29.6
		c0,8-0.8,16.8-1.6,25.6c-5.6,0-11.2,0-17.6,0.8c-3.2-5.6-7.2-11.2-10.4-16c-2.4-3.2-6.4-8.8-11.2-12c-0.8,0-0.8-0.8-1.6-0.8
		C236,180.8,236.8,178.4,238.4,176z M221.6,218.4c-0.8-3.2-1.6-5.6-2.4-8.8c1.6,0,2.4,0,4,0.8C222.4,213.6,221.6,216,221.6,218.4z
		 M219.2,208c0-2.4-0.8-4-0.8-6.4c1.6-0.8,2.4-1.6,2.4-3.2c0-1.6-0.8-2.4-1.6-3.2c0-1.6,0-6.4,1.6-8.8c0,0,1.6-2.4,3.2-3.2
		c2.4-0.8,4.8,0,4.8,0c0.8,0,1.6,0.8,1.6,0.8c0.8,0,0.8,0.8,1.6,0.8c-3.2,7.2-5.6,15.2-8,24C222.4,208,220.8,208,219.2,208z
		 M224,218.4c0.8-2.4,0.8-4.8,1.6-7.2c4,0.8,8,2.4,12,4C232.8,216,228.8,217.6,224,218.4z M241.6,214.4c-5.6-2.4-10.4-4-15.2-5.6
		c2.4-8,4.8-16,7.2-23.2c6.4,4.8,14.4,13.6,21.6,26.4c-4,0-7.2,0.8-11.2,1.6C243.2,214.4,242.4,214.4,241.6,214.4z M256.8,222.4
		c-3.2-2.4-7.2-4-10.4-5.6c4-0.8,7.2-0.8,10.4-1.6c1.6,3.2,4,6.4,5.6,10.4C260.8,224.8,258.4,223.2,256.8,222.4z M266.4,228
		c-1.6-4-4-8.8-6.4-12.8c5.6-0.8,11.2-0.8,16,0c-0.8,5.6-1.6,12-3.2,17.6v0.8c-1.6-1.6-4-3.2-5.6-4.8
		C266.4,228.8,266.4,228,266.4,228z M274.4,237.6c4,3.2,6.4,6.4,8.8,9.6c-2.4,0.8-5.6,1.6-8.8,3.2c-0.8-1.6-0.8-4-1.6-5.6
		C273.6,242.4,273.6,240,274.4,237.6z M268.8,232.8c1.6,0.8,2.4,1.6,4,3.2c0,1.6-0.8,2.4-0.8,4C270.4,237.6,269.6,235.2,268.8,232.8
		z M272,250.4h-0.8c0-0.8,0-1.6,0.8-2.4C272,249.6,272,249.6,272,250.4z M268,260.8c0.8-2.4,1.6-4.8,2.4-7.2c0.8,0,1.6-0.8,2.4-0.8
		c0.8,3.2,1.6,6.4,2.4,8.8C272.8,261.6,270.4,261.6,268,260.8z M288,254.4c-1.6,0.8-2.4,1.6-2.4,3.2c0,0.8,0.8,1.6,0.8,2.4l0,0
		c-0.8,0.8-3.2,2.4-6.4,2.4c-0.8,0-1.6,0-2.4,0c-0.8-3.2-1.6-6.4-2.4-10.4c3.2-0.8,6.4-2.4,9.6-3.2
		C286.4,251.2,287.2,252.8,288,254.4z M285.6,246.4c-0.8-0.8-1.6-1.6-2.4-2.4c-2.4-2.4-5.6-5.6-8.8-8c0-0.8,0-1.6,0.8-2.4
		c1.6-6.4,2.4-12,3.2-17.6c18.4,0.8,29.6,5.6,31.2,12C310.4,232,301.6,240,285.6,246.4z"/>
	<circle style="fill:#D7F0F4;" cx="257.6" cy="247.2" r="4"/>
</g>
<g>
</g>
<g>
</g>
<g>
</g>
<g>
</g>
<g>
</g>
<g>
</g>
<g>
</g>
<g>
</g>
<g>
</g>
<g>
</g>
<g>
</g>
<g>
</g>
<g>
</g>
<g>
</g>
<g>
</g>
</svg>
