<?xml version="1.0" encoding="iso-8859-1"?>
<!-- Generator: Adobe Illustrator 19.0.0, SVG Export Plug-In . SVG Version: 6.00 Build 0)  -->
<svg version="1.1" id="Capa_1" xmlns="http://www.w3.org/2000/svg" xmlns:xlink="http://www.w3.org/1999/xlink" x="0px" y="0px"
	 viewBox="0 0 496 496" style="enable-background:new 0 0 496 496;" xml:space="preserve">
<path style="fill:#5EB6E4;" d="M0,248v121.6c0,27.2,21.6,48.8,48,48.8h400c26.4,0,48-21.6,48-48.8V248H0z"/>
<path style="fill:#3EA2CE;" d="M248,248l200,170.4c26.4,0,48-21.6,48-48.8V248H248z"/>
<path style="fill:#FFFFFF;" d="M448,77.6H48c-26.4,0-48,21.6-48,48.8V248h496V126.4C496,99.2,474.4,77.6,448,77.6z"/>
<path style="fill:#E2E2E2;" d="M448,77.6H48L248,248h248V126.4C496,99.2,474.4,77.6,448,77.6z"/>
<path style="fill:#1C8FB7;" d="M496,369.6c0,27.2-21.6,48.8-48,48.8H48c-26.4,0-48-21.6-48-48.8"/>
<path style="fill:#CFD1D1;" d="M48,77.6h400c26.4,0,48,21.6,48,48.8v88.8"/>
<path style="fill:#F1BF31;" d="M192,268.8c-0.8-0.8-0.8-1.6,0-2.4c0.8,0,1.6,0,2.4,0.8c0.8,0.8,0.8,1.6,0,2.4
	C193.6,269.6,192,269.6,192,268.8z"/>
<g>
	<path style="fill:#466343;" d="M196.8,208c-4,3.2-6.4,5.6-9.6,9.6c-2.4,4-4,9.6-4.8,10.4c0,0.8-0.8,1.6-1.6,1.6s-0.8,0-0.8,0v2.4
		v-0.8l0,0c0-0.8,0.8-0.8,1.6-1.6c0.8,0,1.6-0.8,1.6-0.8c0.8,0,8-3.2,10.4-7.2C197.6,216.8,197.6,211.2,196.8,208z"/>
	<path style="fill:#466343;" d="M188,267.2c0-0.8,0.8-0.8,0.8-1.6c0.8-0.8,0.8-1.6,1.6-1.6l0.8-0.8c1.6-1.6,2.4-3.2,3.2-4.8
		c0-0.8,0-0.8,0.8-1.6c0.8-3.2,0.8-5.6,0-8.8c0-2.4-0.8-4-1.6-6.4l0,0c0,0.8-2.4,4-3.2,5.6c-1.6,2.4-3.2,4.8-3.2,7.2
		c0,2.4,0,4.8,0,6.4s0.8,4.8,0,5.6l0,0l0.8,1.6C188,268.8,188,268,188,267.2L188,267.2z"/>
</g>
<g>
	<path style="fill:#94BB79;" d="M281.6,274.4c-3.2-3.2-8-5.6-12.8-5.6c-2.4,0-5.6,0.8-8,2.4c-3.2-3.2-7.2-4.8-12-4.8
		c-4.8,0-8.8,2.4-12,5.6c-3.2-1.6-6.4-3.2-8.8-3.2c-4.8,0-8.8,2.4-12,5.6c0,0,0,0,0,0.8c0,0,0,0,0.8,0c12,22.4,32,30.4,32,30.4
		s7.2-3.2,16-10.4l0,0c1.6-0.8,3.2-2.4,4-4l0,0C272.8,287.2,276.8,281.6,281.6,274.4C280.8,275.2,280.8,275.2,281.6,274.4
		C280.8,275.2,280.8,275.2,281.6,274.4L281.6,274.4z"/>
	<path style="fill:#94BB79;" d="M252.8,267.2L252.8,267.2L252.8,267.2c2.4,0.8,5.6,3.2,7.2,4.8c1.6,1.6,1.6,1.6,1.6,1.6s0.8,0,0,0
		c0,0-0.8-0.8-1.6-1.6c0,0,0,0,0.8,0l0,0h0.8l0,0h0.8l0,0h0.8l0,0h0.8l0,0h0.8l0,0h0.8l0,0h0.8h0.8c2.4,0,4,0.8,6.4,1.6l0,0h0.8
		l-2.4-8v-16l1.6-2.4l0,0v-5.6l0,0l-1.6-4.8l0,0v1.6l-1.6-0.8V236l0,0l-1.6-0.8l0,0l-1.6,0.8l0,0v1.6l-3.2,0.8v-1.6l0,0l-3.2,0.8
		l0,0v5.6l0,0l2.4,2.4v16l-2.4,8c-1.6-1.6-4-2.4-4.8-3.2l-2.4-8v-16l1.6-2.4l0,0v-5.6l0,0l-3.2-0.8l0,0v1.6l-1.6-0.8v-1.6l0,0
		l-2.4,0l0,0l-1.6,0.8l0,0v1.6l-1.6,0.8v-1.6l0,0l-4.8,0.8l0,0v5.6l0,0l2.4,2.4v16l-2.4,9.6c0,0,0,0,0.8,0l0,0l0,0l0,0l0,0h0.8l0,0
		h0.8l0,0h0.8l0,0h0.8l0,0h0.8l0,0h0.8l0,0c0.8,0,0.8,0,1.6,0s0.8,0,1.6,0C250.4,266.4,252,267.2,252.8,267.2z"/>
	<path style="fill:#94BB79;" d="M232.8,246.4l1.6-3.2l0,0v-5.6l0,0l-3.2-0.8l0,0v1.6l-1.6-0.8V236l0,0l-1.6-0.8l0,0l-1.6,0.8l0,0
		v1.6l-1.6,0.8v-1.6l0,0l-3.2,1.6l0,0v5.6l0,0l2.4,2.4v16l-2.4,8c0,0,0,0,0.8,0l0,0l0,0h0.8l0,0c0,0,0,0,0.8,0c0,0,0,0,0.8,0
		c0,0,0,0,0.8,0c0,0,0,0,0.8,0c0,0,0,0,0.8,0c0,0,0,0,0.8,0c0,0,0,0,0.8,0c0,0,0,0,0.8,0c0,0,0,0,0.8,0c0,0,0,0,0.8,0c0,0,0,0,0.8,0
		c0,0,0,0,0.8,0h0.8c2.4,0,4.8,0.8,6.4,1.6l0,0h0.8l-2.4-8v-17.6H232.8z"/>
	<path style="fill:#94BB79;" d="M333.6,236.8c0-0.8,2.4-1.6,1.6-2.4l-0.8-0.8c0-0.8,0.8-1.6,0.8-2.4c0-1.6-1.6-1.6-3.2-0.8l-0.8,0.8
		c0,0-0.8-0.8-1.6,0c-0.8,0-1.6,2.4-1.6,2.4s-0.8-0.8-1.6-0.8c-1.6,0-1.6,1.6-1.6,3.2c-0.8,0-1.6,0-1.6,0c-0.8,0.8-0.8,2.4-0.8,4
		l0,0l0,0c0-1.6,0-4-0.8-4h-0.8c0,0,0,0,0-0.8c0,0,0-0.8,0.8-0.8l0.8-0.8c1.6,0.8,4-0.8,4.8-1.6v-0.8c0.8-0.8,1.6-4,0.8-4.8
		c-0.8-0.8-3.2,0-4,0.8h-0.8c-1.6,1.6-1.6,4-1.6,4.8l0,0l0,0v0.8c0,0,0,0-0.8,0.8l0,0c0-1.6,0-2.4-0.8-4c0-0.8,0-0.8,0-1.6
		c0.8-2.4,3.2-3.2,5.6-4c1.6-0.8,0-1.6,0.8-2.4l0,0c0.8-0.8,2.4-0.8,3.2-1.6l0.8-0.8c0-0.8-0.8-0.8-1.6-1.6l0,0c0.8-1.6,4.8-4,0-4
		c0.8-0.8,2.4-4,0.8-4.8c-0.8,0-1.6,0-1.6,0c-0.8,0-0.8-4.8-3.2-4.8c-1.6,0-1.6,2.4-1.6,4c0,0.8-0.8,0.8-1.6,0.8
		c0-0.8-0.8-2.4-1.6-2.4c-0.8,0-3.2,1.6-3.2,4l-0.8,0.8c-0.8,1.6,0,4,1.6,4.8c0,0.8,0,0.8,0,1.6l0,0c-0.8-2.4-1.6-4-1.6-4.8l0,0
		c0,0,0-1.6,0-2.4c0,0,0,0,0-0.8c0-3.2,2.4-6.4-0.8-6.4c0-1.6,1.6-5.6-0.8-5.6c0,0-0.8,0-1.6,0c0-1.6,0-3.2-1.6-4
		c-0.8-0.8-2.4,0.8-2.4,0c-0.8-0.8-0.8-3.2-2.4-2.4l-0.8,0.8c-0.8-0.8-3.2-2.4-4.8-0.8c-0.8,0.8,1.6,3.2,1.6,4c0,0-0.8,0.8-0.8,1.6
		c0,1.6,1.6,1.6,1.6,2.4c-2.4,1.6,0,3.2,1.6,4.8c-2.4,3.2,2.4,4,2.4,4c-1.6,2.4,4,2.4,7.2,4c0,0,0,0,0.8,0.8s1.6,4,1.6,4l0,0v0.8
		c0.8,2.4,1.6,4.8,1.6,7.2c0,1.6,0.8,4,0.8,5.6c-0.8-0.8-1.6-1.6-1.6-2.4c-0.8-1.6,0.8-4,0-4.8c0-0.8-0.8-0.8-1.6-0.8
		c-0.8-0.8,0-5.6-2.4-6.4c-0.8-0.8-1.6,1.6-2.4,0c0-0.8-0.8-2.4-1.6-1.6c-0.8,0-0.8,0.8-0.8,0.8l0,0c0,0-0.8-1.6-2.4-1.6
		c-0.8,0-1.6,0.8-1.6,0.8c-0.8,0-2.4-1.6-3.2,0c-0.8,0.8,0.8,2.4,1.6,3.2c0,0.8-0.8,0.8-0.8,1.6s2.4,1.6,3.2,2.4
		c0,0-1.6,0.8-0.8,1.6c0,0.8,2.4,0.8,3.2,0.8c-0.8,1.6,0.8,3.2,2.4,3.2h2.4c0,0-0.8,0.8,0,1.6s2.4,0,4,0c0.8,0,2.4,0.8,4,2.4
		c0,0,0,0,0,0.8s0,1.6,0,2.4c0,0,0,0-0.8,0s-0.8,0.8-1.6,1.6c0,0.8,0,0.8,0,1.6h-0.8c0-0.8-0.8-2.4-0.8-3.2s-0.8-0.8-1.6,0
		c-0.8-5.6-1.6-3.2-3.2-3.2c-0.8,0-2.4-3.2-4-2.4c-0.8,0-0.8,0.8-0.8,0.8c-0.8,0-2.4-1.6-3.2,0c-0.8,0.8,0.8,2.4,0.8,3.2
		c0,0-0.8,0.8-0.8,1.6c0,1.6,1.6,1.6,2.4,3.2c0,0.8-0.8,1.6-0.8,2.4c0,2.4,4,1.6,4,2.4v0.8c0,2.4,4.8,0.8,6.4,0.8
		c-0.8,0-1.6,0-1.6,0.8c-0.8,1.6,1.6,3.2,1.6,4c0,0-1.6,0-1.6,1.6c0,0.8,0,0.8,0.8,1.6h-0.8c-0.8-0.8,0-4-2.4-4
		c-0.8,0-0.8,0.8-1.6,0.8c-0.8-0.8-0.8-1.6-1.6-2.4c-0.8,0-1.6,0.8-1.6,0.8c-0.8,0-2.4-1.6-4-0.8s0,3.2,0,3.2s-0.8,0-0.8,0.8
		c-0.8,0.8,1.6,2.4,1.6,2.4s-0.8,0.8-0.8,1.6c0,1.6,1.6,1.6,2.4,3.2c0,0.8,0,1.6,0,1.6c0,1.6,2.4,0.8,4,1.6c0.8,0-0.8,1.6,0.8,1.6
		c0.8,0,3.2-0.8,3.2,0.8l0,0l0,0l0,0l0,0l0,0c0,0,0,0.8,0,1.6l0,0l0,0v0.8c-0.8,0-0.8,0-1.6,0c-1.6,0.8-1.6,2.4-2.4,3.2
		c0,0,0,0-0.8,0L308,268c0.8-1.6,0-4-0.8-4.8h-0.8c-1.6-1.6-4-2.4-4.8-1.6s0,3.2,0.8,4.8v0.8c0.8,1.6,3.2,2.4,4.8,1.6
		c0,0,0,0,0.8,0.8h-0.8c-1.6,0.8,0,4.8-0.8,5.6c-0.8,0.8-0.8,0-1.6,0c0-0.8-0.8-0.8-0.8-1.6c0-0.8,0.8-2.4,0-3.2c0,0-0.8,0-1.6,0
		c0-0.8,0.8-2.4-0.8-3.2c-0.8,0-1.6,0.8-1.6,0.8l-0.8-1.6c0-0.8-0.8-1.6-1.6-1.6c-1.6,0-0.8,1.6-1.6,3.2c-0.8,0-1.6,0-1.6,0.8
		c-0.8,0.8,0.8,1.6,0.8,2.4l0,0h-0.8c-2.4,0.8,0,2.4,0.8,3.2c0,0.8-0.8,0.8-1.6,1.6c0,1.6,2.4,2.4,2.4,3.2c0,0.8-0.8,0.8-0.8,1.6
		c0,0.8,1.6,1.6,2.4,2.4c0,0,0,0,0,0.8s0,0.8,0,1.6c-3.2,3.2-7.2,5.6-11.2,7.2c0-0.8,0-0.8,0-1.6c0,0,3.2,0,3.2-0.8
		c0.8-0.8,0-1.6,0-2.4c0.8-0.8,3.2,0,3.2-1.6c0-0.8-0.8-1.6-0.8-1.6c0.8-1.6,2.4-3.2,0-3.2c0-0.8,0.8-2.4-0.8-3.2
		c-1.6,0-2.4,1.6-2.4,1.6s-1.6-0.8-2.4-0.8c-1.6,0.8-0.8,2.4-1.6,3.2c-0.8,0.8-1.6,0-3.2,0.8s-0.8,3.2-0.8,4c-0.8,0.8-1.6,0-1.6,1.6
		c0,0.8,0,3.2,0,4c-0.8,0.8-2.4,1.6-4,2.4l2.4-0.8c0,0,0.8,0,1.6-0.8c-0.8,0.8-1.6,0.8-3.2,1.6h-0.8c0,0,0,0,0.8,0h-0.8
		c-12,3.2-19.2,8.8-24.8,15.2c-4.8,5.6-7.2,10.4-10.4,16c-1.6,3.2,2.4,3.2,3.2,0.8c4-8,5.6-11.2,10.4-16c5.6-6.4,13.6-12,27.2-14.4
		c0.8,0,1.6-0.8,3.2-0.8c0.8,0,0.8,0,1.6,0.8c0,0.8,0,3.2,1.6,4.8h0.8c0.8,0.8,4,1.6,4.8,0.8c0.8-0.8,0-3.2-0.8-4c0,0,0-0.8-0.8-0.8
		c-4-1.6-6.4-1.6-8-1.6h-0.8l0,0c0.8-0.8,2.4-0.8,3.2-1.6l0,0l0,0l0,0c0.8,0,1.6,0,2.4,0l0,0c1.6,0.8,0.8,4,2.4,4.8
		c0.8,0.8,1.6,0,2.4,0c0.8,0.8,0.8,4,2.4,4c0.8,0,1.6-0.8,2.4-0.8c0.8,0.8,1.6,2.4,3.2,2.4c0.8,0,2.4-1.6,2.4-1.6
		c0.8,0,0.8,0.8,1.6,0.8c0.8,0,1.6-0.8,0.8-1.6c0-0.8-0.8-0.8-1.6-1.6c0-0.8,0.8-0.8,0-1.6c-0.8-0.8-1.6-0.8-1.6-0.8h-0.8l0,0l0,0
		c0,0,1.6-0.8,0-2.4c-0.8-0.8-2.4-0.8-4-0.8l0,0c0,0,0-1.6-1.6-1.6c-2.4,0-6.4,0.8-8.8,0l0,0c2.4-0.8,4-2.4,6.4-4h0.8l0,0
		c0,1.6,1.6,4,4,4h0.8c1.6,0,4,0,4-0.8c0.8-1.6-0.8-3.2-2.4-4l0,0c-1.6-1.6-4.8-0.8-5.6,0.8l0,0c0.8-0.8,2.4-1.6,3.2-2.4
		c0.8-0.8,2.4-0.8,3.2,0c1.6,0.8,1.6,3.2,2.4,3.2s0.8,0,1.6,0c0.8,1.6,0.8,3.2,3.2,3.2c0.8,0,0.8-0.8,1.6-0.8l0,0
		c0.8,1.6,2.4,3.2,3.2,0c0.8,0,2.4,1.6,3.2,0.8v-0.8c0.8-0.8,2.4,0.8,2.4,0c0.8-0.8-0.8-1.6-0.8-2.4c1.6-0.8-1.6-2.4-1.6-2.4
		c0-0.8,0-0.8,0-1.6c0-1.6-1.6-1.6-2.4-0.8c-1.6,0,0-1.6-0.8-1.6s-1.6,0-2.4,0c0-0.8,0-2.4,0-2.4c0.8,0,4,0.8,4-0.8
		c0-0.8,0-0.8,0-1.6h0.8c0.8,0,1.6,0,2.4,0c1.6-0.8,0.8-1.6,0.8-1.6c1.6-0.8,4.8,0.8,4.8-1.6c0,0-0.8-0.8,0-0.8
		c0.8-0.8,3.2,0,3.2-1.6c0-0.8-0.8-0.8-0.8-1.6c0.8-1.6,3.2-3.2,1.6-4.8c-0.8-0.8-2.4,0-3.2,0c-0.8-3.2-2.4,0.8-3.2,0.8l0,0
		c-0.8,0-0.8-0.8-2.4,0l-0.8,0.8l0,0c0.8-1.6,1.6-2.4,0-3.2c-0.8-0.8-2.4,0.8-3.2,1.6c0-0.8,0.8-1.6,0.8-2.4c0.8,0,1.6-0.8,1.6-1.6
		c2.4-1.6,7.2,2.4,7.2-1.6l0,0c0,0,4.8,0.8,4.8-1.6v-0.8c0-0.8,3.2-0.8,3.2-2.4c0,0-0.8,0-0.8-0.8c0.8-0.8,2.4-2.4,0.8-4
		c0,0-0.8,0-0.8-0.8s0.8-3.2-0.8-4c-1.6,0-2.4,2.4-3.2,2.4c-0.8,0-0.8-0.8-1.6,0c-0.8,0-0.8,0.8-1.6,1.6c0,0,0,0-0.8,0
		c-2.4,0-2.4,3.2-3.2,4c-0.8,0-1.6-0.8-2.4,0.8c-0.8,0.8,0,2.4-0.8,4l-0.8,0.8c-0.8,0.8-0.8,0.8-1.6,0.8c0,0,0,0-0.8,0
		c0.8-1.6,0.8-3.2,1.6-4.8c0.8-0.8,0.8-1.6,1.6-2.4c0.8-0.8,1.6-1.6,2.4-2.4c1.6-1.6-0.8-1.6,0-1.6v-0.8c1.6,0,4,0.8,5.6,0
		c0,0,0-1.6,0.8-1.6c0.8-0.8,4.8,0.8,5.6-2.4c0-0.8-0.8-1.6-0.8-1.6c0.8-0.8,4-2.4,3.2-4C334.4,236.8,333.6,236.8,333.6,236.8z
		 M276.8,295.2H276C276,295.2,276.8,294.4,276.8,295.2c0.8-1.6,2.4-1.6,4-0.8C280,294.4,278.4,294.4,276.8,295.2z M296.8,284
		C296,284,296,284,296.8,284c0-2.4,2.4-3.2,3.2-4c1.6-0.8,2.4-1.6,0.8-3.2l0,0l0.8-0.8c0,0.8,0,1.6,0,2.4
		C300,280.8,298.4,282.4,296.8,284z M299.2,284.8L299.2,284.8c0.8-0.8,0.8-0.8,1.6-1.6c0.8,0,1.6-0.8,2.4-0.8l0,0l0,0
		C301.6,283.2,300.8,284.8,299.2,284.8z M312,264v-0.8l0,0l0,0l0,0v-0.8v-0.8c0.8-1.6,2.4-5.6,0.8-6.4H312c0-0.8,0.8-2.4,0-3.2l0,0
		l0,0c0.8,0.8,1.6,1.6,1.6,1.6c0.8,0,0.8,0.8,0.8,1.6C314.4,257.6,313.6,260.8,312,264z M316,220.8V220c0-0.8,0-1.6,0.8-3.2l0,0
		c0,1.6,1.6,3.2,1.6,3.2c0,0.8-0.8,0.8-0.8,1.6c0,1.6,1.6,2.4,1.6,4c0,0.8,0,1.6-0.8,2.4C317.6,225.6,316.8,223.2,316,220.8z"/>
</g>
<g>
	<path style="fill:#9AD8DB;" d="M224,226.4c0.8,2.4,2.4,5.6,2.4,8l0,0c4-0.8,0.8-10.4,0-12.8c1.6,0,2.4,2.4,2.4,4l0,0
		c1.6-0.8,2.4-2.4,2.4-4c0,0,0,0,0-0.8s0-1.6-0.8-2.4c-0.8-0.8-1.6-1.6-3.2-1.6c-2.4,0-4.8,1.6-4.8,4c0,0.8,0,1.6,0,2.4
		C223.2,224,224,225.6,224,226.4z"/>
	<path style="fill:#9AD8DB;" d="M244.8,223.2c0.8,2.4,2.4,5.6,2.4,8l0,0c4-0.8,0.8-10.4,0-12.8c1.6,0,2.4,2.4,2.4,4l0,0
		c1.6-0.8,2.4-2.4,2.4-4c0,0,0,0,0-0.8s0-1.6-0.8-2.4c-0.8-0.8-1.6-1.6-3.2-1.6c-2.4,0-4.8,1.6-4.8,4c0,0.8,0,1.6,0,2.4
		C244,221.6,244,222.4,244.8,223.2z"/>
	<path style="fill:#9AD8DB;" d="M265.6,226.4c0.8,2.4,2.4,5.6,2.4,8l0,0c4-0.8,0.8-10.4,0-12.8c1.6,0,2.4,2.4,2.4,4l0,0
		c1.6-0.8,2.4-2.4,2.4-4c0,0,0,0,0-0.8s0-1.6-0.8-2.4c-0.8-0.8-1.6-1.6-3.2-1.6c-2.4,0-4.8,1.6-4.8,4c0,0.8,0,1.6,0,2.4
		C264.8,224,264.8,225.6,265.6,226.4z"/>
</g>
<path style="fill:#D99F31;" d="M297.6,231.2c-0.8-16.8-6.4-28-12.8-33.6c0,0,0,0-0.8-0.8l0,0c0,0,0,0-0.8,0l0,0c0,0,0,0-0.8,0l0,0
	c0,0-0.8,0-0.8-0.8l0,0c0,0,0,0-0.8,0l0,0c0,0,0,0-0.8,0l0,0h-0.8l0,0c0,0,0,0-0.8,0l0,0c0,0,0,0-0.8,0l0,0h-0.8l0,0H276l0,0
	c0,0,0,0-0.8,0l0,0c-0.8,0-0.8,0-1.6,0l0,0c0,0,0,0-0.8,0l0,0H272l0,0h-0.8l0,0c0,0,0,0-0.8,0l0,0c0,0,0,0-0.8,0l0,0
	c-0.8,0-0.8,0-1.6,0l0,0c0,0,0,0-0.8,0l0,0l0,0c1.6-0.8,2.4-1.6,2.4-3.2c0-0.8,0-1.6-0.8-1.6l0.8-0.8v-0.8c0.8,0,1.6-0.8,1.6-1.6
	v-0.8c0.8-0.8,0.8-1.6,0.8-2.4V184c1.6-2.4,4-4,8-5.6c-0.8-0.8-1.6-0.8-2.4-1.6l0,0c0.8-0.8,0.8-1.6,1.6-2.4h0.8
	c1.6,0,2.4-0.8,2.4-2.4c0-0.8-0.8-1.6-1.6-2.4c0-0.8,0.8-1.6,0.8-3.2c1.6,0,2.4-1.6,2.4-3.2c0-1.6-1.6-3.2-3.2-3.2l0,0
	c-0.8-0.8-0.8-1.6-1.6-1.6c0,0,0,0,0-0.8c0-1.6-1.6-3.2-3.2-3.2c-0.8,0-1.6,0.8-2.4,1.6c-0.8,0-2.4,0-3.2,0c0-1.6-1.6-2.4-2.4-2.4
	c-1.6,0-2.4,0.8-2.4,2.4c-0.8,0-2.4,0-3.2,0l0,0c0-1.6-0.8-2.4-2.4-2.4c-0.8,0-1.6,0.8-2.4,1.6c-1.6-0.8-3.2-1.6-4.8-2.4h0.8
	c0.8-0.8,1.6-1.6,1.6-1.6s-0.8,0-1.6,0l-1.6-2.4c0-1.6-0.8-3.2-1.6-3.2c0.8-0.8,0.8-1.6,0.8-2.4c0-2.4-1.6-4-3.2-4.8v-3.2v-0.8
	c0-1.6,1.6,0,3.2,0c0.8,0,1.6-0.8,1.6-2.4s-0.8-1.6-1.6-1.6c-0.8,0-2.4,0.8-3.2,0.8c-0.8-0.8,0-2.4,0-3.2s-0.8-1.6-2.4-1.6
	c-0.8,0-2.4,0.8-2.4,1.6s1.6,2.4,0,3.2c-0.8,0.8-1.6-0.8-3.2-0.8c-0.8,0-1.6,0.8-1.6,1.6s0.8,2.4,1.6,2.4c1.6,0,3.2-1.6,3.2,0v0.8
	v3.2c-1.6,0.8-3.2,2.4-3.2,4.8c0,0.8,0,1.6,0.8,2.4c-0.8,0.8-1.6,1.6-1.6,3.2l-1.6,2.4c-0.8,0-1.6,0-1.6,0s0,1.6,1.6,1.6h0.8
	c-1.6,0.8-3.2,1.6-4.8,2.4c0-0.8-1.6-1.6-2.4-1.6c-1.6,0-2.4,0.8-2.4,2.4l0,0c-0.8,0-2.4,0-3.2,0c0-1.6-1.6-2.4-2.4-2.4
	c-1.6,0-2.4,0.8-2.4,2.4c-1.6,0-2.4,0-3.2,0c-0.8-0.8-1.6-1.6-2.4-1.6c-1.6,0-3.2,1.6-3.2,3.2c0,0,0,0,0,0.8
	c-0.8,0.8-1.6,1.6-1.6,1.6l0,0c-1.6,0-3.2,1.6-3.2,3.2c0,1.6,0.8,2.4,2.4,3.2c0,0.8,0.8,1.6,0.8,3.2c-0.8,0.8-1.6,1.6-1.6,2.4
	c0,1.6,0.8,2.4,2.4,2.4h0.8c0.8,0.8,0.8,1.6,1.6,2.4l0,0c-0.8,0-2.4,0.8-2.4,1.6c4,1.6,6.4,3.2,8,5.6c0,0.8-0.8,0.8-0.8,1.6
	s0.8,1.6,1.6,1.6v0.8c0,0.8,0.8,1.6,1.6,1.6v0.8l0.8,0.8c1.6-3.2,1.6-2.4,1.6-1.6s0.8,1.6,2.4,3.2c-4.8-0.8-10.4,0.8-16,5.6
	c-6.4,5.6-12,16.8-12.8,33.6c-1.6,26.4,10.4,46.4,23.2,58.4c6.4,6.4,17.6,12.8,26.4,16.8l0,0l0,0c2.4-0.8,4-1.6,6.4-2.4l0,0l0,0
	c2.4-0.8,4-2.4,6.4-3.2l0,0c4-2.4,8-4.8,11.2-7.2l0.8-0.8l0.8-0.8l0.8-0.8c0,0,0.8,0,0.8-0.8C288,277.6,300,257.6,297.6,231.2z
	 M264,194.4L264,194.4L264,194.4L264,194.4L264,194.4z M276,160c1.6,2.4-0.8,5.6-3.2,8c-0.8,0-2.4,0.8-3.2,1.6c0-4-1.6-5.6-1.6-5.6
	s-1.6,0-4,1.6l-7.2-11.2C264,158.4,273.6,156,276,160z M252,159.2c0.8-2.4,1.6-4.8,1.6-6.4c0-0.8,0-0.8,0-1.6
	c0.8,0.8,1.6,1.6,2.4,2.4l8,12c-0.8,0.8-1.6,0.8-2.4,1.6c-0.8-4-2.4-6.4-2.4-6.4s-4,0.8-5.6,4.8c0-1.6-0.8-2.4-1.6-4
	C252,160.8,252,160,252,159.2z M248,196c5.6,0,10.4-0.8,14.4-1.6l-11.2,5.6c-0.8-0.8-1.6-1.6-2.4-1.6l0,0l0,0l0,0l0,0l0,0
	c-0.8,0-2.4,0.8-2.4,0.8s0,0,0,0.8l-11.2-4.8C237.6,195.2,242.4,196,248,196z M242.4,151.2c0,0.8,0,1.6,0,1.6c0,1.6,1.6,4,2.4,6.4
	c0,0.8,0,1.6,0,2.4c-0.8,0.8-0.8,2.4-1.6,4c-2.4-4-5.6-4.8-5.6-4.8s-2.4,2.4-2.4,6.4c-0.8-0.8-1.6-1.6-2.4-1.6l8-12
	C240.8,152.8,241.6,152,242.4,151.2z M223.2,167.2c-2.4-2.4-4-5.6-2.4-8c2.4-4,12-1.6,19.2-6.4l-8,11.2c-2.4-1.6-4-1.6-4-1.6
	s-0.8,1.6-1.6,5.6C225.6,168,224,168,223.2,167.2z M232.8,194.4L232.8,194.4C232,194.4,232,194.4,232.8,194.4
	C232,194.4,232,194.4,232.8,194.4z M240.8,298.4c-9.6-8-31.2-30.4-29.6-63.2c0.8-16.8,4.8-23.2,8-25.6c0.8,2.4,4,4,7.2,4
	c2.4,0,4-0.8,5.6-1.6l12.8-7.2c0,0.8,0.8,0.8,1.6,1.6l0,0l0,0h0.8l0,0l0,0c0.8,0,1.6,0,2.4-0.8l0.8-0.8l0,0l12.8,7.2
	c0,0,0.8,0,0.8,0.8l0,0l0,0l0,0c0,0,0,0,0.8,0l0,0l0,0l0,0c0,0,0,0,0.8,0l0,0l0,0l0,0l0,0l0,0l0,0c0,0,0,0,0.8,0l0,0c0,0,0,0,0.8,0
	l0,0c0,0,0,0,0.8,0c0,0,0,0,0.8,0l0,0c0,0,0,0,0.8,0l0,0c0,0,0,0,0.8,0l0,0c0,0,0,0,0.8,0l0,0c0,0,0,0,0.8,0l0,0c0,0,0,0,0.8,0l0,0
	c0,0,0,0,0.8,0l0,0c0,0,0,0,0.8,0l0,0c0,0,0.8,0,0.8-0.8l0,0l0.8-0.8l0,0l0.8-0.8l0,0c0,0,0-0.8,0.8-0.8c2.4,2.4,7.2,8,8,25.6
	c1.6,32.8-20,55.2-29.6,63.2c-0.8,0-1.6,0.8-2.4,0.8l0,0c0,0,0,0-0.8,0l0,0l0,0l0,0l0,0l0,0l0,0l0,0l0,0l0,0l0,0l0,0l0,0l0,0l0,0
	l0,0l0,0l0,0l0,0H252l0,0l0,0l0,0C247.2,301.6,244,300,240.8,298.4z M248,305.6L248,305.6L248,305.6L248,305.6L248,305.6z"/>
<path style="fill:#466343;" d="M258.4,327.2c-5.6-8.8-7.2-11.2-11.2-15.2c-5.6-6.4-13.6-12.8-26.4-16l0,0c-0.8,0-2.4-0.8-3.2-1.6
	c0,0,0-0.8-0.8-0.8l0,0l0,0c-0.8-0.8-0.8-1.6-0.8-2.4c-0.8-1.6-0.8-4-1.6-5.6c-3.2-5.6-8-5.6-11.2-11.2c-0.8,4.8-0.8,11.2,5.6,16
	c2.4,1.6,5.6,1.6,7.2,2.4l0,0l0.8,0.8c0,0.8,0.8,0.8,0.8,0.8c-3.2-0.8-7.2-2.4-10.4-4c-2.4-1.6-4-2.4-4.8-5.6c0-0.8-0.8-1.6-0.8-3.2
	c-0.8-1.6-1.6-2.4-2.4-3.2l0,0c1.6-3.2,2.4-5.6,1.6-9.6c-0.8-4-3.2-8.8-3.2-12.8l0,0c-3.2,3.2-4.8,6.4-4.8,9.6c0,0-0.8,0-1.6,0
	c-1.6,0-3.2,1.6-3.2,3.2c0,0.8,0,1.6,0.8,1.6c0,0,0,0,0,0.8l-0.8-0.8l0,0l0,0c-1.6-3.2-3.2-5.6-4.8-8.8l0,0l0,0l0,0l0,0
	c0-0.8-0.8-3.2,0-5.6c1.6-3.2,1.6-5.6,0.8-8.8c2.4-1.6,6.4-4,8-8.8c2.4-4.8,1.6-9.6,0-12.8c-2.4,4.8-7.2,5.6-9.6,12
	c0,0.8-0.8,1.6-0.8,1.6c-0.8-1.6-0.8-3.2-0.8-4.8c0,0,0,0-0.8,0c-0.8,0.8-0.8,0.8-1.6,1.6c0.8-6.4,1.6-13.6,3.2-18.4l0,0v-0.8
	c0.8-0.8,0.8-1.6,1.6-2.4c1.6-1.6,6.4-4.8,8-8c4-5.6,3.2-13.6,2.4-14.4c-3.2,3.2-6.4,4.8-9.6,9.6c-3.2,4-3.2,12-4,13.6
	c0,0.8-0.8,2.4-0.8,3.2l0,0c0,0.8-0.8,1.6-0.8,2.4l0,0c0,0,0,0-0.8-0.8s0-0.8-0.8-0.8c0.8-0.8,1.6-1.6,1.6-2.4
	c0-1.6-0.8-2.4-2.4-2.4h-0.8c-1.6-5.6-3.2-8.8-4-11.2c0-0.8-6.4,8-4.8,16.8c0.8,4,5.6,8.8,6.4,9.6c0.8,0.8,1.6,1.6,2.4,2.4
	c0,0.8,0,1.6,0,2.4c0,1.6,0,3.2,0,4c-0.8,0.8-1.6,2.4-1.6,3.2c0,0,0,0,0-0.8c0,0-0.8-4-1.6-4c-1.6-6.4-3.2-8-8-12.8
	c-1.6-0.8-2.4-2.4-3.2-4l0,0c0,0.8-0.8,1.6-0.8,3.2c-0.8,4,0,8.8,1.6,12c1.6,2.4,4,4.8,7.2,6.4c0.8,0.8,3.2,0.8,4,1.6
	c0,0.8-0.8,1.6-0.8,2.4c-0.8-0.8-1.6-0.8-2.4-0.8c-1.6,0-2.4,1.6-2.4,2.4s1.6,2.4,2.4,2.4c0.8,0,0.8,0,1.6-0.8c0,4,1.6,7.2,4,10.4
	c0.8,0.8,1.6,1.6,2.4,1.6c0.8,1.6,0.8,3.2,1.6,4.8l0,0l0,0l0,0l0,0l0,0l0,0l0,0l0,0l0,0l0,0l0,0h-0.8c-0.8-0.8-1.6-1.6-3.2-4
	c-3.2-5.6-4.8-9.6-10.4-12.8c-2.4-1.6-4-3.2-6.4-4.8l0,0c0,0.8,0,5.6,0,6.4c0.8,4,1.6,8,4.8,10.4c1.6,0.8,2.4,1.6,4,2.4
	c0.8,0,1.6,0.8,2.4,0.8c2.4,0.8,5.6,0.8,7.2,1.6l0,0c0,0,0,0,0.8,0l0,0c0,0,0,0,0.8,0l0,0c0.8,0,0.8,0.8,1.6,0.8l0,0l0,0l0,0l0,0
	l0.8,0.8c0.8,2.4,2.4,4.8,4,7.2c0,0.8,0,0.8,0,1.6c-1.6-0.8-4.8-4.8-8-7.2c-5.6-3.2-11.2-2.4-16-4.8c0.8,5.6,4.8,10.4,10.4,12.8
	c4.8,2.4,12.8,0,13.6,0h0.8c0,1.6,0.8,3.2,1.6,4.8c-3.2-1.6-5.6-1.6-10.4-0.8c-3.2,0.8-5.6,1.6-8.8,1.6l0,0c4,4.8,8,7.2,15.2,7.2
	c4.8,0,8-3.2,9.6-4c1.6,0.8,4,1.6,5.6,1.6c2.4,1.6,4,3.2,6.4,4.8l0,0l0,0l0,0l0,0l0,0l0,0l0,0l0,0H204l0,0l0,0h-0.8
	c-0.8,0-1.6,0-2.4,0c-0.8,0-1.6,0-2.4,0c0.8-0.8,0.8-0.8,0.8-1.6c0-1.6-1.6-3.2-3.2-3.2c-1.6,0-3.2,1.6-3.2,3.2
	c0,0.8,0.8,1.6,1.6,2.4c-7.2,1.6-8,7.2-12.8,8c0,0,0,0,0,0.8c4.8,3.2,12,2.4,16.8-1.6c1.6-1.6,3.2-4,4.8-5.6c0.8,0,0.8-0.8,1.6-0.8
	l0,0l0,0l0,0c0,0,0,0,0.8,0l0,0h0.8l0,0l0,0l0,0l0,0l0,0c0.8,0.8,1.6,0.8,2.4,0.8c0,0.8-0.8,0.8-0.8,0.8h-0.8
	c-1.6,0-3.2,1.6-3.2,3.2s1.6,3.2,3.2,3.2c1.6,0,3.2-1.6,3.2-3.2c0-0.8,0-1.6-0.8-2.4l0.8-0.8c1.6,0.8,3.2,0.8,4.8,1.6
	c12.8,2.4,21.6,8,27.2,13.6c0,0,0,0,0.8,0.8s1.6,1.6,2.4,2.4c4,4.8,5.6,8,8.8,14.4C257.6,330.4,260.8,330.4,258.4,327.2z
	 M179.2,230.4c0-0.8-0.8-1.6-0.8-2.4c0-1.6,0.8-5.6,0.8-8.8c0,0,0,0,0.8,0l0,0c0,0,0,0.8,0.8,0.8c0,0,0,0.8,0.8,0.8v0.8l0,0
	C180,224.8,179.2,227.2,179.2,230.4L179.2,230.4z M191.2,273.6c-0.8,0-0.8-0.8-1.6-0.8c0-0.8,0-0.8,0-0.8c0.8,0,0.8,0.8,1.6,0.8
	s0.8,0,1.6,0c0,1.6,0.8,2.4,0.8,4C193.6,274.4,192.8,274.4,191.2,273.6z"/>
<path style="fill:#FFFFFF;" d="M308.8,317.6c-3.2,0.8-7.2,0.8-9.6,0.8c1.6-1.6,4-5.6,4-8c0,0,0,0-0.8,0c-4,2.4-5.6,3.2-10.4,3.2
	c-3.2,0-8.8-3.2-10.4-3.2c0-1.6,0.8-3.2,1.6-5.6c2.4-8.8-12.8-4.8-17.6-3.2c-5.6,1.6-10.4,2.4-17.6,2.4c-7.2,0-12-0.8-17.6-2.4
	c-4-0.8-19.2-4.8-17.6,3.2c0.8,2.4,0.8,4,1.6,5.6c-1.6,0-7.2,3.2-10.4,3.2c-4.8,0-6.4-0.8-10.4-3.2h-0.8c0,2.4,1.6,5.6,4,8
	c-2.4,0-6.4,0-9.6-0.8c0,0-0.8,0,0,0.8c0.8,1.6,4,4,5.6,4.8c8,5.6,14.4,5.6,23.2,1.6c5.6-2.4,10.4,0,16,0.8c7.2,0.8,5.6-5.6,4.8-8.8
	c4,0.8,7.2,0.8,12,0.8l0,0c-3.2,0-5.6,0-8-0.8c3.2,0,5.6,0.8,8.8,0.8l0,0c2.4,0,4,0,5.6,0c-1.6,0-4,0-6.4,0l0,0c4.8,0,8-0.8,12-0.8
	c-0.8,3.2-2.4,9.6,4.8,8.8c5.6-0.8,10.4-3.2,16-0.8c8.8,4,15.2,4,23.2-1.6C305.6,322.4,308.8,320,308.8,317.6
	C309.6,317.6,309.6,317.6,308.8,317.6z M265.6,302.4h0.8c-0.8,0-2.4,0.8-4,0.8C264,302.4,264.8,302.4,265.6,302.4z M263.2,303.2
	C262.4,303.2,262.4,303.2,263.2,303.2C262.4,303.2,262.4,303.2,263.2,303.2z"/>
<g>
</g>
<g>
</g>
<g>
</g>
<g>
</g>
<g>
</g>
<g>
</g>
<g>
</g>
<g>
</g>
<g>
</g>
<g>
</g>
<g>
</g>
<g>
</g>
<g>
</g>
<g>
</g>
<g>
</g>
</svg>
