<?xml version="1.0" encoding="iso-8859-1"?>
<!-- Generator: Adobe Illustrator 19.0.0, SVG Export Plug-In . SVG Version: 6.00 Build 0)  -->
<svg version="1.1" id="Capa_1" xmlns="http://www.w3.org/2000/svg" xmlns:xlink="http://www.w3.org/1999/xlink" x="0px" y="0px"
	 viewBox="0 0 496 496" style="enable-background:new 0 0 496 496;" xml:space="preserve">
<path style="fill:#CE1126;" d="M496,369.6c0,27.2-21.6,48.8-48,48.8H48c-26.4,0-48-21.6-48-48.8V126.4c0-27.2,21.6-48.8,48-48.8h400
	c26.4,0,48,21.6,48,48.8V369.6z"/>
<path style="fill:#AD1027;" d="M48,77.6h400c26.4,0,48,21.6,48,48.8v243.2c0,27.2-21.6,48.8-48,48.8"/>
<g>
	<path style="fill:#910923;" d="M48,77.6h400c26.4,0,48,21.6,48,48.8v88.8"/>
	<path style="fill:#910923;" d="M496,369.6c0,27.2-21.6,48.8-48,48.8H48c-26.4,0-48-21.6-48-48.8"/>
</g>
<path style="fill:#002B7F;" d="M268,252.8V77.6H48c-26.4,0-48,21.6-48,48.8v126.4H268z"/>
<polygon style="fill:#03255B;" points="268,252.8 268,77.6 48,77.6 253.6,252.8 "/>
<g>
	<polygon style="fill:#FFFFFF;" points="112,204.8 125.6,246.4 90.4,220.8 133.6,220.8 98.4,246.4 	"/>
	<polygon style="fill:#FFFFFF;" points="64.8,142.4 75.2,174.4 47.2,154.4 81.6,154.4 53.6,174.4 	"/>
	<polygon style="fill:#FFFFFF;" points="160.8,135.2 171.2,165.6 144.8,147.2 176.8,147.2 151.2,165.6 	"/>
	<polygon style="fill:#FFFFFF;" points="112,103.2 123.2,135.2 95.2,115.2 129.6,115.2 101.6,135.2 	"/>
	<polygon style="fill:#FFFFFF;" points="136,176 142.4,196 124.8,183.2 146.4,183.2 129.6,196 	"/>
</g>
<g>
</g>
<g>
</g>
<g>
</g>
<g>
</g>
<g>
</g>
<g>
</g>
<g>
</g>
<g>
</g>
<g>
</g>
<g>
</g>
<g>
</g>
<g>
</g>
<g>
</g>
<g>
</g>
<g>
</g>
</svg>
