<?xml version="1.0" encoding="iso-8859-1"?>
<!-- Generator: Adobe Illustrator 19.0.0, SVG Export Plug-In . SVG Version: 6.00 Build 0)  -->
<svg version="1.1" id="Capa_1" xmlns="http://www.w3.org/2000/svg" xmlns:xlink="http://www.w3.org/1999/xlink" x="0px" y="0px"
	 viewBox="0 0 496 496" style="enable-background:new 0 0 496 496;" xml:space="preserve">
<path style="fill:#DA1E34;" d="M496,368.4c0,27.2-21.6,46.4-48,46.4H48c-26.4,0-48-19.2-48-46.4V125.2C0,98,21.6,78.8,48,78.8h400
	c26.4,0,48,19.2,48,46.4V368.4z"/>
<path style="fill:#C40C27;" d="M48,78.8h400c26.4,0,48,19.2,48,46.4v243.2c0,27.2-25.6,46.4-52,46.4"/>
<g>
	<path style="fill:#A30423;" d="M496,367.6c0,29.6-21.6,47.2-48,47.2H48c-26.4,0-48-20.8-48-48"/>
	<path style="fill:#A30423;" d="M48,78.8h400c26.4,0,48,19.2,48,46.4v89.6"/>
</g>
<path style="fill:#E9E9EA;" d="M248,78.8H48C22.4,78.8,0,96.4,0,122v249.6c0,25.6,22.4,43.2,48,43.2h200V78.8z"/>
<polygon style="fill:#D1D1D1;" points="248,78.8 48,78.8 248,246.8 "/>
<g>
	<polygon style="fill:#BCBCBC;" points="248,78.8 48,78.8 248,138 	"/>
	<path style="fill:#BCBCBC;" d="M0,366.8v4.8l0,0c0,1.6,0,3.2,0,4.8l0,0c0,1.6,0.8,3.2,1.6,4.8l0,0c0,1.6,0.8,3.2,1.6,4l0,0
		c0.8,1.6,0.8,2.4,1.6,4l0,0c0.8,1.6,1.6,2.4,1.6,3.2c0,0,0,0,0,0.8c1.6,1.6,1.6,3.2,2.4,4c0,0,0,0.8,0.8,0.8
		c0.8,0.8,1.6,1.6,2.4,3.2l0.8,0.8c0.8,0.8,1.6,1.6,2.4,2.4l0.8,0.8c0.8,0.8,1.6,1.6,2.4,2.4l0.8,0.8c0.8,0.8,1.6,0.8,2.4,1.6
		c0.8,0,0.8,0.8,1.6,0.8c0.8,0.8,1.6,0.8,2.4,1.6c0.8,0,1.6,0.8,1.6,0.8c0.8,0,1.6,0.8,2.4,0.8c0.8,0,1.6,0.8,2.4,0.8
		c0.8,0,0.8,0,1.6,0s1.6,0.8,2.4,0.8c0.8,0,1.6,0,1.6,0.8c0.8,0,2.4,0,3.2,0.8c0.8,0,0.8-0.8,1.6-0.8c2.4-0.8,4-1.6,5.6-1.6h200v-48
		H0z"/>
</g>
<g>
</g>
<g>
</g>
<g>
</g>
<g>
</g>
<g>
</g>
<g>
</g>
<g>
</g>
<g>
</g>
<g>
</g>
<g>
</g>
<g>
</g>
<g>
</g>
<g>
</g>
<g>
</g>
<g>
</g>
</svg>
