<?xml version="1.0" encoding="iso-8859-1"?>
<!-- Generator: Adobe Illustrator 19.0.0, SVG Export Plug-In . SVG Version: 6.00 Build 0)  -->
<svg version="1.1" id="Capa_1" xmlns="http://www.w3.org/2000/svg" xmlns:xlink="http://www.w3.org/1999/xlink" x="0px" y="0px"
	 viewBox="0 0 496.8 496.8" style="enable-background:new 0 0 496.8 496.8;" xml:space="preserve">
<path style="fill:#20603D;" d="M0,332.4V370c0,25.6,18.4,45.6,43.2,48.8h410.4c24-2.4,43.2-23.2,43.2-48.8v-37.6H0z"/>
<path style="fill:#00A1DE;" d="M448,78H48C21.6,78,0,99.6,0,126.8v120h496v-120C496,99.6,474.4,78,448,78z"/>
<path style="fill:#009AC9;" d="M48,78h400c26.4,0,48,21.6,48,48.8V370c0,27.2-21.6,48.8-48,48.8"/>
<path style="fill:#124F2C;" d="M448,418.8h5.6l0,0c3.2,0,5.6-0.8,8-1.6c0,0,0,0,0.8,0c2.4-0.8,4.8-1.6,7.2-3.2c0,0,0.8,0,0.8-0.8
	c2.4-1.6,4-2.4,6.4-4l0.8-0.8c1.6-1.6,4-3.2,5.6-4.8l0.8-0.8c1.6-1.6,3.2-4,4.8-6.4l0.8-0.8c1.6-2.4,2.4-4.8,3.2-7.2v-0.8
	c0.8-2.4,1.6-4.8,2.4-8v-0.8c0.8-2.4,0.8-5.6,0.8-8.8v-37.6H346.4L448,418.8z"/>
<path style="fill:#008EAF;" d="M48,78h400c26.4,0,48,21.6,48,48.8v88.8"/>
<path style="fill:#0C381F;" d="M496,370c0,27.2-21.6,48.8-48,48.8H48c-26.4,0-48-21.6-48-48.8"/>
<rect y="246" style="fill:#FAD201;" width="496" height="86.4"/>
<polygon style="fill:#D8AE00;" points="346.4,332.4 496,332.4 496,246 245.6,246 "/>
<g>
	<path style="fill:#E5BE01;" d="M405.6,143.6c-11.2,0-20,8.8-20,20s8.8,20,20,20s20-8.8,20-20S416.8,143.6,405.6,143.6z"/>
	<path style="fill:#E5BE01;" d="M427.2,166l48.8-3.2l-48.8-2.4l46.4-15.2l-48,9.6l40.8-27.2l-44,22.4l32.8-36.8L418.4,146l22.4-44
		l-27.2,40.8l9.6-48L408,141.2l-3.2-48.8l-3.2,48.8l-15.2-46.4l9.6,48L368.8,102l22.4,44l-36.8-32.8l32.8,36.8l-44-22.4l40.8,27.2
		l-48-9.6l48,15.2l-48.8,3.2l48.8,3.2L337.6,182l48-9.6l-40.8,27.2l44-22.4L356,214l36.8-32.8l-22.4,43.2l27.2-40.8l-9.6,48
		l15.2-46.4l3.2,48.8l3.2-48.8l15.2,46.4l-9.6-48l27.2,40.8l-22.4-44l36.8,32.8l-33.6-36.8l44,22.4l-40.8-27.2l48,9.6L427.2,166z
		 M405.6,185.2c-12,0-21.6-9.6-21.6-21.6s9.6-21.6,21.6-21.6s21.6,9.6,21.6,21.6S417.6,185.2,405.6,185.2z"/>
</g>
<g>
</g>
<g>
</g>
<g>
</g>
<g>
</g>
<g>
</g>
<g>
</g>
<g>
</g>
<g>
</g>
<g>
</g>
<g>
</g>
<g>
</g>
<g>
</g>
<g>
</g>
<g>
</g>
<g>
</g>
</svg>
