<?xml version="1.0" encoding="iso-8859-1"?>
<!-- Generator: Adobe Illustrator 19.0.0, SVG Export Plug-In . SVG Version: 6.00 Build 0)  -->
<svg version="1.1" id="Capa_1" xmlns="http://www.w3.org/2000/svg" xmlns:xlink="http://www.w3.org/1999/xlink" x="0px" y="0px"
	 viewBox="0 0 496 496" style="enable-background:new 0 0 496 496;" xml:space="preserve">
<path style="fill:#0038A8;" d="M0,304.8v64.8c0,27.2,21.6,48.8,48,48.8h400c26.4,0,48-21.6,48-48.8v-64.8H0z"/>
<path style="fill:#D52B1E;" d="M448,77.6H48c-26.4,0-48,21.6-48,48.8v64.8h496v-64.8C496,99.2,474.4,77.6,448,77.6z"/>
<rect y="189.6" style="fill:#FFFFFF;" width="496" height="116"/>
<path style="fill:#003282;" d="M448,418.4c26.4,0,48-21.6,48-48.8v-64.8H315.2L448,418.4z"/>
<path style="fill:#C41108;" d="M448,77.6H48l132.8,113.6H496v-64.8C496,99.2,474.4,77.6,448,77.6z"/>
<polygon style="fill:#E2E2E2;" points="316,306.4 496,306.4 496,189.6 180,189.6 "/>
<path style="fill:#A30602;" d="M448,77.6H48l370.4,113.6H496v-64.8C496,99.2,474.4,77.6,448,77.6z"/>
<polygon style="fill:#BCBCBC;" points="496,214.4 496,189.6 414.4,189.6 "/>
<path style="fill:#002A66;" d="M496,369.6c0,27.2-21.6,48.8-48,48.8H48c-26.4,0-48-21.6-48-48.8"/>
<path style="fill:#009B3A;" d="M273.6,244c0,0,0.8-0.8,1.6-0.8c0.8,0,1.6-0.8,2.4-0.8c0.8-0.8,0.8-1.6,0-1.6s-1.6,0.8-1.6,0.8
	c-0.8,0-0.8,0.8-0.8,1.6C274.4,243.2,274.4,243.2,273.6,244c0.8-0.8,1.6-2.4,1.6-4c0-2.4,0-4,0-4.8c0,0-0.8,0.8-0.8,1.6
	c0-0.8-0.8-1.6-0.8-1.6s-0.8,0.8-0.8,3.2c-0.8-1.6-0.8-2.4-1.6-2.4l0,0l0.8-0.8c0.8,0,1.6-0.8,2.4-1.6s0.8-1.6,0-1.6
	s-1.6,0.8-1.6,0.8s0,1.6-0.8,1.6c0,0,0,0-0.8,0.8c0-0.8,0.8-1.6,0.8-3.2l0,0c0-2.4-0.8-4-0.8-4.8c0,0-0.8,0.8-0.8,1.6
	c0-0.8-0.8-1.6-0.8-1.6s-0.8,1.6,0,3.2c-0.8-1.6-1.6-2.4-2.4-2.4l0.8-0.8c0-0.8,0-0.8,0-0.8l-0.8,0.8c0,0,0,0.8,0,1.6c0,0,0,0,0,0.8
	c0-0.8,0-1.6,0-2.4c0-1.6-0.8-2.4-1.6-2.4c0,0,0,0.8,0,1.6c-1.6-1.6-2.4-2.4-2.4-2.4s0,0.8,0,1.6c-0.8-0.8-1.6-0.8-1.6-0.8v0.8
	l-0.8-0.8l0,0l0,0c0,0-0.8-1.6-1.6-2.4l0,0c-1.6-1.6-2.4-2.4-3.2-1.6c0,0,0,0.8,1.6,1.6c-1.6-0.8-2.4-0.8-2.4-0.8s0.8,0.8,2.4,1.6
	c-1.6,0-2.4,0-2.4,0s1.6,0.8,3.2,0.8s2.4,0,3.2,0l0,0l0.8,0.8c-0.8,0-0.8,0-1.6,0c0,0,0,0.8,0.8,1.6c-0.8,0-1.6,0-1.6,0
	s0.8,0.8,2.4,1.6c0.8,0,1.6,0,2.4,0l0,0l0,0H264c-0.8,0-0.8,0.8-0.8,0.8s0,0.8,0.8,0c0.8,0,0.8-0.8,0.8-0.8s0,0,0.8,0
	c0,0.8,0.8,0.8,0.8,1.6c-0.8-0.8-2.4-0.8-2.4,0s1.6,2.4,3.2,3.2l0,0c1.6,0.8,2.4,1.6,3.2,1.6h-0.8c0,0-0.8-0.8-1.6,0
	c-0.8,0-1.6,0.8-1.6,0.8s0,0.8,0.8,0.8s0.8-0.8,1.6-0.8c0,0.8,0,1.6,0.8,2.4c-0.8-0.8-1.6-0.8-1.6-0.8c0,0.8,0.8,2.4,2.4,4l0,0
	c0.8,0.8,0.8,0.8,1.6,1.6l0,0l0,0c0,0,0,0-0.8,0s-1.6,0.8-1.6,0.8s0,0.8,0.8,0.8c0,0.8,0,2.4,0.8,4.8c0.8,1.6,0.8,2.4,1.6,3.2H272
	l0,0c0-0.8,0-0.8-0.8-0.8l0,0l0,0c-0.8,0-1.6,0-1.6,0c-0.8,0,0,0.8,0.8,0.8h0.8c0,0.8-0.8,0.8-0.8,1.6c0-1.6-0.8-2.4-0.8-2.4
	c-0.8,0-0.8,2.4-0.8,5.6l0,0c0,0.8,0,1.6,0,1.6s0,0-0.8,0l0,0c0,0-0.8,0-0.8-0.8s0-0.8,0-0.8s-0.8,0-0.8,0.8l0,0c0,0-0.8,0,0,0.8
	c-0.8,0.8-1.6,2.4-2.4,3.2c-0.8,1.6-1.6,3.2-1.6,4l0,0c0-0.8,0-0.8,0-0.8s0.8-0.8,0-1.6c0-0.8-0.8-1.6-1.6-2.4c-0.8,0-0.8,0-0.8,0.8
	c-0.8,0.8-2.4,1.6-4,3.2s-2.4,3.2-2.4,4.8c-0.8,0.8-1.6,0.8-3.2,1.6c-1.6-0.8-3.2-1.6-4.8-2.4c-2.4-1.6-6.4-4.8-8.8-6.4
	c1.6,1.6,3.2,3.2,4,4.8c-1.6-1.6-4-3.2-4.8-4.8c0.8,0.8,1.6,1.6,1.6,2.4c-1.6-1.6-3.2-2.4-4-4c0.8,1.6,2.4,3.2,4,4.8
	c-1.6-1.6-2.4-2.4-3.2-4s-1.6-2.4-2.4-3.2c0.8,1.6,1.6,3.2,2.4,5.6c-0.8-2.4-2.4-4-3.2-5.6c0-0.8-0.8-1.6-0.8-2.4l0,0
	c0,0.8,0,1.6,0,1.6c0-0.8-0.8-2.4-0.8-3.2c0,0.8,0,1.6,0,1.6l0,0c0,0,0,0,0,0.8c0,1.6,0.8,2.4,0.8,4c-0.8-2.4-0.8-4.8-1.6-7.2v0.8
	c0-0.8,0-1.6,0-2.4c0,1.6,0,3.2,0,4.8c0-2.4,0-4.8-0.8-6.4c0,0.8,0,1.6,0,3.2c0-0.8,0-2.4,0-3.2c0,1.6,0,4-0.8,6.4
	c0-2.4,0-4.8,0.8-7.2c0,0,0,0.8,0,1.6c0-0.8,0-2.4,0-3.2c0,1.6-0.8,3.2-0.8,4.8c0-2.4,0.8-4.8,0.8-6.4c0,0.8,0,0.8-0.8,1.6
	c0-0.8,0-2.4,0-3.2c-0.8,1.6-0.8,4-1.6,5.6c0.8-2.4,0.8-4.8,1.6-6.4c0-0.8,0-0.8,0.8-1.6c0,0.8-0.8,1.6-0.8,1.6
	c0-0.8,0.8-1.6,0.8-3.2c0,0,0-0.8,0.8-0.8c-0.8,0.8-1.6,1.6-2.4,3.2c0-0.8,0.8-0.8,0.8-1.6c0.8-0.8,0.8-1.6,1.6-1.6l0,0
	c0-0.8,0.8-1.6,0.8-1.6c-0.8,0.8-1.6,1.6-2.4,2.4c0.8-1.6,1.6-2.4,2.4-4c-0.8,0.8-1.6,1.6-1.6,2.4c0.8-1.6,1.6-2.4,1.6-3.2
	c-0.8,1.6-2.4,3.2-3.2,4.8c1.6-1.6,2.4-4,3.2-4.8s1.6-1.6,1.6-1.6l0,0l0,0c-0.8,0-1.6,0.8-2.4,1.6c0.8-0.8,2.4-2.4,3.2-3.2l0,0
	c0,0,0,0,0.8,0c-0.8,0-0.8,0.8-1.6,0.8c0,0,0,0,0.8,0s1.6-0.8,1.6-0.8h-0.8c0.8,0,1.6-0.8,2.4-0.8c-0.8,0-0.8,0-1.6,0l0,0l0,0
	c-0.8,0-2.4,0.8-3.2,0.8c0.8-0.8,1.6-0.8,3.2-0.8c0.8,0,1.6,0,2.4,0c-0.8,0-0.8,0-1.6,0c0.8,0,1.6-0.8,1.6-0.8h0.8
	c-0.8,0-1.6,0-3.2,0c1.6-0.8,2.4-0.8,4-0.8c-1.6,0-3.2,0.8-4.8,0.8c1.6-0.8,4-0.8,5.6-1.6c-0.8,0-2.4,0-3.2,0c0.8,0,2.4-0.8,3.2-0.8
	c-1.6,0-3.2,0-4,0c1.6,0,3.2,0,4.8-0.8c-0.8,0-1.6,0-2.4,0c1.6,0,3.2,0,4-0.8c-1.6,0-3.2,0-4.8,0l0,0c1.6,0,4,0,5.6,0h-0.8
	c0.8,0,1.6,0,2.4,0c-0.8,0-2.4,0-3.2-0.8c1.6,0,2.4,0,3.2,0c-0.8,0-2.4-0.8-3.2-0.8c1.6,0,3.2,0.8,4,0.8h-0.8c0.8,0,0.8,0,1.6,0l0,0
	l0,0l0,0l0,0c-0.8,0-0.8-0.8-1.6-0.8c0.8,0,1.6,0,1.6,0c-0.8,0-0.8,0-1.6-0.8c0.8,0,2.4,0,3.2,0c-1.6,0-3.2-0.8-4.8-0.8l0,0h0.8
	c0.8,0,2.4,0.8,3.2,0.8c-0.8,0-1.6-0.8-2.4-0.8c1.6,0,2.4,0,2.4,0h-2.4l0,0c1.6,0,4.8-0.8,4.8-0.8h-2.4c0.8,0,1.6-0.8,1.6-0.8
	l-4,1.6l0,0c0.8,0,0.8-0.8,0.8-0.8l-2.4,0.8l0,0c0.8-0.8,2.4-0.8,2.4-0.8l-3.2,0.8c0,0,0.8,0,0.8-0.8c0.8-0.8,2.4-1.6,3.2-1.6
	c-0.8,0-1.6,0.8-2.4,0.8c0,0,0,0,0.8,0c0,0-0.8,0-0.8,0.8h-0.8c0.8-0.8,0.8-1.6,1.6-2.4c-0.8,0.8-1.6,1.6-2.4,2.4l0,0
	c0.8-0.8,0.8-1.6,1.6-2.4c-0.8,0.8-1.6,1.6-2.4,2.4l0,0c0,0,0-0.8,0.8-0.8l0,0l0,0c0-0.8,0.8-1.6,0.8-1.6c-0.8,0.8-0.8,1.6-1.6,2.4
	l-2.4,0.8c0.8-0.8,1.6-2.4,1.6-3.2c-0.8,0.8-1.6,2.4-2.4,4l0,0l0.8-0.8l0,0c0-0.8,0.8-1.6,0.8-3.2c-0.8,0.8-0.8,2.4-1.6,3.2
	c0-0.8,0.8-2.4,0.8-3.2c-0.8,1.6-1.6,3.2-1.6,4.8l0,0c0.8-1.6,1.6-4,2.4-4.8c-0.8,1.6-2.4,3.2-3.2,5.6v-0.8c0-0.8,0.8-0.8,0.8-0.8
	v0.8c0-0.8,0.8-2.4,0.8-3.2c-0.8,0.8-0.8,2.4-1.6,4l-0.8,0.8c0.8-1.6,0.8-3.2,1.6-4c-0.8,1.6-1.6,3.2-2.4,4.8c0-1.6,0.8-3.2,0.8-4
	c-0.8,1.6-0.8,3.2-1.6,4.8V228c0-0.8,0.8-0.8,0.8-0.8v0.8c0-1.6,0-2.4,0.8-4c0,1.6-0.8,3.2-1.6,4.8v0.8c0-1.6,0-3.2,0-4
	c0,1.6-0.8,2.4-0.8,4l0,0c0-1.6,0.8-2.4,0.8-4c-0.8,1.6-0.8,3.2-1.6,5.6c0-1.6,0.8-4,0.8-5.6c-0.8,1.6-1.6,4-2.4,5.6
	c0-1.6,0-4,0-5.6c0,2.4-0.8,4.8-1.6,8c0-2.4,0-4,0-6.4c0,1.6-0.8,3.2-0.8,5.6l0,0l0,0l-0.8,1.6c0-2.4,0-4,0-6.4c0,1.6-0.8,4-0.8,5.6
	c0-1.6-0.8-3.2-0.8-4c0,1.6,0,3.2,0.8,5.6l0,0c0-1.6-0.8-3.2-0.8-4.8c0,1.6,0,3.2,0.8,5.6l0,0c-0.8-1.6-0.8-3.2-1.6-4.8
	c0,1.6,0.8,4,0.8,6.4c0-0.8-0.8-1.6-0.8-2.4c0-1.6-0.8-2.4-0.8-3.2c0,0,0,0.8,0,1.6l0,0v0.8c0,1.6,0,4,0.8,5.6
	c-0.8-1.6-1.6-4-1.6-5.6c0,1.6,0.8,4,0.8,5.6c-0.8-1.6-1.6-3.2-1.6-4.8c0,1.6,0.8,3.2,1.6,4.8c-0.8-1.6-0.8-2.4-1.6-3.2
	c0.8,1.6,1.6,4.8,2.4,7.2c-0.8-1.6-1.6-3.2-3.2-4.8c0.8,1.6,1.6,4,2.4,5.6c-0.8-1.6-2.4-3.2-3.2-4.8c0,0.8,0.8,0.8,0.8,1.6
	c0,0,0-0.8-0.8-0.8c0.8,0.8,0.8,2.4,1.6,3.2v1.6c-0.8-1.6-1.6-3.2-2.4-4.8c0.8,0.8,0.8,2.4,1.6,4c-0.8-0.8-0.8-1.6-1.6-2.4
	c0.8,1.6,1.6,3.2,2.4,4.8c0,0,0,0,0,0.8v0.8c-0.8-0.8-2.4-2.4-3.2-3.2c0.8,0.8,1.6,2.4,2.4,3.2l0,0l0,0c-0.8-0.8-1.6-1.6-2.4-2.4
	c0.8,1.6,2.4,3.2,3.2,4.8l0,0c-1.6-0.8-2.4-1.6-3.2-2.4c1.6,1.6,3.2,3.2,4.8,4.8c-1.6-0.8-3.2-1.6-4-2.4c1.6,0.8,3.2,2.4,4.8,4
	c-1.6-0.8-3.2-1.6-4.8-2.4c0.8,0.8,2.4,1.6,4,3.2l0.8,0.8c-1.6-0.8-3.2-1.6-4-2.4c1.6,0.8,3.2,2.4,4.8,4l0.8,0.8
	c-1.6-0.8-4-1.6-5.6-2.4c1.6,0.8,3.2,2.4,5.6,4c-1.6-0.8-3.2-0.8-4.8-1.6c0.8,0,1.6,0.8,2.4,0.8c-0.8,0-0.8,0-1.6-0.8
	c1.6,0.8,4,1.6,6.4,3.2l0,0c-1.6,0-4-0.8-5.6-1.6c1.6,0.8,3.2,1.6,4.8,1.6c-0.8,0-2.4-0.8-2.4-0.8l2.4,1.6c-1.6,0-3.2-0.8-4.8-0.8
	c1.6,0.8,4,1.6,6.4,2.4c-1.6,0-3.2,0-4.8,0c1.6,0,3.2,0.8,5.6,0.8c-1.6,0-3.2,0-4.8,0c0.8,0,2.4,0.8,3.2,0.8c-0.8,0-0.8,0-0.8,0
	l2.4,0.8l0,0h-0.8l0,0c-0.8,0-2.4,0-3.2,0.8c1.6,0,3.2,0,4.8,0h1.6c-1.6,0-3.2,0.8-4.8,0.8c0.8,0,2.4,0,4,0h1.6
	c-1.6,0.8-2.4,0.8-4,1.6c1.6,0,4-0.8,5.6-0.8l0,0h0.8c-1.6,0-3.2,0.8-3.2,0.8h3.2c-1.6,0.8-3.2,1.6-4.8,2.4c1.6-0.8,4-0.8,6.4-1.6
	c-1.6,0.8-3.2,1.6-4,2.4c0.8-0.8,2.4-0.8,3.2-1.6h2.4c-1.6,0.8-3.2,1.6-4,2.4c1.6-0.8,4-1.6,5.6-1.6c-1.6,0.8-2.4,1.6-4,3.2
	c1.6-0.8,4-2.4,6.4-3.2h0.8l0,0c0.8,0.8,2.4,1.6,3.2,2.4c-1.6,0.8-3.2,2.4-4.8,1.6s-4-1.6-4-1.6s0,3.2,3.2,3.2
	c2.4,0,4.8-1.6,6.4-2.4c2.4,1.6,4,2.4,4.8,2.4c1.6,0,4-0.8,5.6-3.2c-3.2,0.8-4.8,1.6-7.2,0.8c0,0-0.8-0.8-1.6-0.8
	c0.8-0.8,1.6-0.8,1.6-1.6c0.8,0.8,2.4,0.8,5.6,0.8s5.6-0.8,5.6-1.6c0-0.8-1.6-1.6-4-1.6c0.8,0,0.8-0.8,0.8-0.8
	c0.8,0,0.8-0.8,1.6-0.8l0.8,0.8c0.8,0.8,1.6,2.4,2.4,3.2c0.8,0.8,1.6,0.8,1.6,0s-0.8-1.6-1.6-2.4c-0.8-0.8-1.6,0-2.4-0.8
	c0,0,0,0-0.8-0.8c0.8,0,2.4,0,4.8,0l0,0c3.2-0.8,5.6-1.6,5.6-2.4s-0.8-0.8-2.4-0.8c1.6-0.8,1.6-1.6,1.6-1.6c0-0.8-1.6,0-4,0
	c0.8-0.8,1.6-1.6,1.6-1.6h0.8c0.8,0,1.6,0.8,3.2,0.8c0.8,0,1.6-0.8,0.8-0.8c-0.8-0.8-1.6-0.8-2.4-0.8s-1.6,0.8-2.4,0.8h-0.8
	c0.8,0,2.4-0.8,3.2-2.4l0,0c2.4-1.6,3.2-4,3.2-4s-0.8,0-2.4,0.8c0.8-0.8,0.8-2.4,0.8-2.4s-1.6,0.8-2.4,1.6c0-0.8,0.8-2.4,0.8-2.4
	l0,0c0.8,0,0.8,0,1.6,0c0.8,0,1.6,0,3.2,0c0.8,0,1.6-0.8,0.8-0.8c-0.8,0-1.6,0-2.4,0s-0.8,0.8-1.6,0.8c0,0,0,0-0.8,0
	c0.8-0.8,1.6-1.6,2.4-2.4l0,0c1.6-2.4,1.6-4,1.6-4s-0.8,0-1.6,0.8c0-0.8,0-1.6,0-2.4c0,0-0.8,0.8-1.6,2.4
	C273.6,245.6,273.6,244.8,273.6,244L273.6,244L273.6,244z M265.6,229.6L265.6,229.6c0,0,0-0.8,0.8-0.8l0,0c0,0,0,0.8,0.8,2.4
	C266.4,229.6,266.4,229.6,265.6,229.6z M269.6,236h0.8l0,0c0,0,0,0.8,0,1.6C270.4,237.6,269.6,236.8,269.6,236z M270.4,246.4
	c0-0.8-0.8-0.8-0.8-1.6c0.8,0,0.8,0,0.8,0C270.4,245.6,270.4,245.6,270.4,246.4z M239.2,226.4C240,226.4,240,226.4,239.2,226.4
	c1.6,0.8,2.4,0.8,3.2,0.8C241.6,227.2,240,226.4,239.2,226.4C239.2,225.6,239.2,226.4,239.2,226.4z M229.6,228.8
	C229.6,228.8,230.4,228.8,229.6,228.8C230.4,228.8,229.6,228.8,229.6,228.8L229.6,228.8z M229.6,228L229.6,228L229.6,228L229.6,228z
	 M221.6,246.4v-0.8C221.6,246.4,221.6,246.4,221.6,246.4C221.6,247.2,221.6,246.4,221.6,246.4z M224.8,248.8L224.8,248.8
	c0.8-1.6,1.6-3.2,2.4-4.8C226.4,245.6,225.6,247.2,224.8,248.8z M231.2,258.4L231.2,258.4L231.2,258.4L231.2,258.4z M237.6,270.4
	c0.8,0,1.6-0.8,1.6-0.8l0,0l0,0C239.2,270.4,238.4,270.4,237.6,270.4z M257.6,267.2c0.8-0.8,1.6-2.4,1.6-3.2l0.8,0.8
	c0,0,0,0.8,0.8,1.6C259.2,266.4,258.4,267.2,257.6,267.2z M265.6,260L265.6,260L265.6,260L265.6,260z M267.2,261.6
	C267.2,261.6,267.2,260.8,267.2,261.6C267.2,260.8,267.2,260.8,267.2,261.6L267.2,261.6z M267.2,260.8
	C267.2,260.8,268,260.8,267.2,260.8C268,260.8,268,260.8,267.2,260.8C268,260.8,268,260.8,267.2,260.8z M270.4,254.4
	c0-0.8,0-1.6,0-1.6h0.8C271.2,252.8,271.2,253.6,270.4,254.4z M271.2,244c0.8,0,0.8,0.8,0.8,0.8C272,244,272,244,271.2,244
	C272,244,272,244,271.2,244z M272.8,244.8c0,0,0,0.8-0.8,1.6C272,245.6,272,244.8,272.8,244.8C272,244.8,272.8,244.8,272.8,244.8
	L272.8,244.8z"/>
<path style="fill:#FEDF00;" d="M254.4,256.8L248,252l-6.4,4.8l2.4-7.2l-5.6-4.8h7.2l2.4-7.2l2.4,7.2h7.2l-5.6,4.8L254.4,256.8z"/>
<polygon style="fill:#C4A800;" points="250.4,244 248,236.8 245.6,244 244,244 253.6,252.8 252,248.8 258.4,244 "/>
<g>
	<path style="fill:#828079;" d="M248,192c-15.2,0-28.8,5.6-39.2,16s-16,24.8-16,39.2c0,30.4,24.8,56,56,56l0,0
		c15.2,0,28.8-5.6,39.2-16c10.4-10.4,16-24.8,16-39.2C304,217.6,278.4,192,248,192z M285.6,285.6c-10.4,10.4-23.2,16-37.6,16v0.8
		v-0.8c-29.6,0-53.6-24-53.6-53.6c0-14.4,5.6-28,16-37.6c10.4-10.4,23.2-16,37.6-16l0,0c29.6,0,53.6,24,53.6,53.6
		C301.6,262.4,296,276,285.6,285.6z"/>
	<path style="fill:#828079;" d="M248,202.4c-24.8,0-45.6,20-45.6,45.6c0,24.8,20,45.6,45.6,45.6s45.6-20,45.6-45.6
		S272.8,202.4,248,202.4z M248,292L248,292c-24,0-44-20-44-44s20-44,44-44s44,20,44,44S272,292,248,292z"/>
	<path style="fill:#828079;" d="M248,212.8c-19.2,0-35.2,16-35.2,35.2s16,35.2,35.2,35.2s35.2-16,35.2-35.2S267.2,212.8,248,212.8z
		 M248,281.6L248,281.6c-18.4,0-33.6-15.2-33.6-33.6s15.2-33.6,33.6-33.6s33.6,15.2,33.6,33.6S266.4,281.6,248,281.6z"/>
</g>
<g>
</g>
<g>
</g>
<g>
</g>
<g>
</g>
<g>
</g>
<g>
</g>
<g>
</g>
<g>
</g>
<g>
</g>
<g>
</g>
<g>
</g>
<g>
</g>
<g>
</g>
<g>
</g>
<g>
</g>
</svg>
