<?xml version="1.0" encoding="iso-8859-1"?>
<!-- Generator: Adobe Illustrator 19.0.0, SVG Export Plug-In . SVG Version: 6.00 Build 0)  -->
<svg version="1.1" id="Capa_1" xmlns="http://www.w3.org/2000/svg" xmlns:xlink="http://www.w3.org/1999/xlink" x="0px" y="0px"
	 viewBox="0 0 496 496" style="enable-background:new 0 0 496 496;" xml:space="preserve">
<path style="fill:#CC0001;" d="M496,369.6c0,27.2-21.6,48.8-48,48.8H48c-26.4,0-48-21.6-48-48.8V126.4c0-27.2,21.6-48.8,48-48.8h400
	c26.4,0,48,21.6,48,48.8V369.6z"/>
<path style="fill:#B21010;" d="M48,77.6h400c26.4,0,48,21.6,48,48.8v243.2c0,27.2-21.6,48.8-48,48.8"/>
<path style="fill:#BC0A0A;" d="M496,369.6c0,27.2-21.6,48.8-48,48.8H48c-26.4,0-48-21.6-48-48.8"/>
<path style="fill:#930606;" d="M48,77.6h400c26.4,0,48,21.6,48,48.8v88.8"/>
<rect y="233.6" style="fill:#FFFFFF;" width="496" height="28.8"/>
<polygon style="fill:#DDDBDB;" points="264.8,262.4 496,262.4 496,233.6 231.2,233.6 "/>
<rect y="296" style="fill:#FFFFFF;" width="496" height="28.8"/>
<polygon style="fill:#DDDBDB;" points="337.6,324.8 496,324.8 496,296 304.8,296 "/>
<path style="fill:#FFFFFF;" d="M0,358.4v11.2c0,6.4,0.8,12,3.2,16.8h489.6c1.6-5.6,3.2-11.2,3.2-16.8v-11.2H0z"/>
<path style="fill:#DDDBDB;" d="M411.2,387.2h81.6l0,0c0.8-2.4,1.6-5.6,2.4-8l0,0c0.8-3.2,0.8-6.4,0.8-9.6v-11.2H377.6L411.2,387.2z"
	/>
<path style="fill:#FFFFFF;" d="M0,126.4v11.2h496v-11.2c0-6.4-0.8-12-3.2-16.8H3.2C0.8,114.4,0,120,0,126.4z"/>
<path style="fill:#DDDBDB;" d="M495.2,117.6L495.2,117.6c-0.8-3.2-1.6-5.6-2.4-8.8l0,0h-408l33.6,28.8H496v-11.2
	C496,123.2,496,120,495.2,117.6z"/>
<rect y="171.2" style="fill:#FFFFFF;" width="496" height="28.8"/>
<polygon style="fill:#DDDBDB;" points="191.2,200 496,200 496,171.2 158.4,171.2 "/>
<path style="fill:#384DA0;" d="M155.2,233.6v-156H48c-26.4,0-48,21.6-48,48.8v107.2L155.2,233.6L155.2,233.6z"/>
<polygon style="fill:#233A84;" points="155.2,77.6 48,77.6 155.2,168.8 "/>
<g>
	<path style="fill:#FFCC00;" d="M60.8,116c-21.6,0-40,17.6-40,40s17.6,40,40,40c8,0,15.2-2.4,21.6-6.4c-4,1.6-7.2,1.6-11.2,1.6
		C52,191.2,36,175.2,36,156c0-19.2,16-35.2,35.2-35.2c4,0,8.8,0.8,12,2.4C76.8,118.4,69.6,116,60.8,116z"/>
	<path style="fill:#FFCC00;" d="M127.2,176l-16.8-8.8l4.8,17.6L104,170.4l-3.2,18.4l-3.2-18.4l-11.2,15.2l4.8-17.6l-16.8,8
		l12.8-14.4L68,162.4l17.6-7.2L68,148l19.2,0.8l-12.8-14.4l16.8,8.8l-4.8-17.6l11.2,15.2l3.2-18.4l3.2,18.4l11.2-15.2l-4.8,18.4
		l16.8-8.8l-12.8,14.4l19.2-0.8L116,156l17.6,7.2l-19.2-0.8L127.2,176z"/>
</g>
<g>
</g>
<g>
</g>
<g>
</g>
<g>
</g>
<g>
</g>
<g>
</g>
<g>
</g>
<g>
</g>
<g>
</g>
<g>
</g>
<g>
</g>
<g>
</g>
<g>
</g>
<g>
</g>
<g>
</g>
</svg>
