<?xml version="1.0" encoding="iso-8859-1"?>
<!-- Generator: Adobe Illustrator 19.0.0, SVG Export Plug-In . SVG Version: 6.00 Build 0)  -->
<svg version="1.1" id="Capa_1" xmlns="http://www.w3.org/2000/svg" xmlns:xlink="http://www.w3.org/1999/xlink" x="0px" y="0px"
	 viewBox="0 0 496 496" style="enable-background:new 0 0 496 496;" xml:space="preserve">
<path style="fill:#F5F8FC;" d="M496,369.6c0,27.2-21.6,48.8-48,48.8H48c-26.4,0-48-21.6-48-48.8V126.4c0-27.2,21.6-48.8,48-48.8h400
	c26.4,0,48,21.6,48,48.8V369.6z"/>
<path style="fill:#E2ECF7;" d="M48,77.6h400c26.4,0,48,21.6,48,48.8v243.2c0,27.2-21.6,48.8-48,48.8"/>
<g>
	<path style="fill:#D4E5F4;" d="M48,77.6h400c26.4,0,48,21.6,48,48.8v88.8"/>
	<path style="fill:#D4E5F4;" d="M496,369.6c0,27.2-21.6,48.8-48,48.8H48c-26.4,0-48-21.6-48-48.8"/>
</g>
<path style="fill:#069C4D;" d="M312,218.4c0-0.8,0-4.8,0-4.8c2.4,0,5.6-0.8,8.8-0.8c3.2,0,5.6,0,8.8,0.8c1.6,0,3.2,0.8,4.8,0.8
	c12,2.4,23.2,8.8,32,17.6c12,12,19.2,28,19.2,45.6s-6.4,33.6-19.2,45.6c-12,12-28,19.2-45.6,19.2c-16.8,0-33.6-6.4-45.6-19.2
	c-12-12-19.2-28-19.2-45.6c0-29.6,20-54.4,47.2-62.4v4.8l-0.8,4.8l0,0c-8,2.4-15.2,7.2-21.6,13.6c-10.4,10.4-16,24.8-16,39.2
	c0,15.2,5.6,28.8,16,39.2c10.4,10.4,24.8,16,39.2,16c30.4,0,56-24.8,56-56c0-15.2-5.6-28.8-16-39.2s-24.8-16-39.2-16
	c-3.2,0-5.6,0-8,0.8C312,222.4,312,220,312,218.4"/>
<g>
	<path style="fill:#048940;" d="M372.8,257.6c2.4,6.4,4,12.8,4,20c0,6.4-0.8,12-3.2,17.6c1.6,0.8,3.2,0.8,4.8,0.8c1.6,0,2.4,0,4,0
		c1.6-5.6,2.4-12,2.4-17.6c0-7.2-1.6-14.4-3.2-20.8c-0.8,0-1.6,0-3.2,0C376,256.8,374.4,256.8,372.8,257.6z"/>
	<path style="fill:#048940;" d="M264.8,277.6c0-7.2,1.6-14.4,4-20.8c-0.8,0-1.6,0-2.4,0c-2.4,0-5.6,0.8-7.2,1.6
		c-1.6,5.6-3.2,12-3.2,19.2c0,5.6,0.8,11.2,2.4,16c2.4,1.6,5.6,1.6,8.8,1.6h0.8C266.4,289.6,264.8,284,264.8,277.6z"/>
</g>
<g>
	<path style="fill:#111516;" d="M248,154.4c-35.2,0-64,28.8-64,64c0,16.8,6.4,33.6,19.2,45.6c9.6,9.6,20.8,15.2,33.6,17.6
		c1.6,0,3.2,0.8,4,0.8s3.2,0,4,0s2.4,0,3.2,0c16.8,0,33.6-6.4,45.6-19.2c12-12,19.2-28,19.2-45.6s-6.4-33.6-19.2-45.6
		C281.6,160.8,264.8,154.4,248,154.4 M304,218.4c0,30.4-24.8,56-56,56c-1.6,0-2.4,0-4,0s-3.2,0-4.8-0.8c-1.6,0-2.4,0-3.2-0.8
		c-10.4-2.4-20-7.2-27.2-15.2c-10.4-10.4-16-24.8-16-39.2c0-15.2,5.6-28.8,16-39.2s24.8-16,39.2-16c15.2,0,28.8,5.6,39.2,16
		C297.6,189.6,304,203.2,304,218.4z"/>
	<path style="fill:#FAED33;" d="M240,282.4c-1.6,0-4-0.8-4-0.8c-2.4,28.8-26.4,51.2-55.2,51.2c-15.2,0-28.8-5.6-39.2-16
		s-16-24.8-16-39.2c0-15.2,5.6-28.8,16-39.2s24.8-16,39.2-16c15.2,0,28.8,5.6,39.2,16c9.6,9.6,15.2,21.6,16,34.4c0,0,1.6,0.8,4,0.8
		s4.8,0.8,4.8,0.8c-0.8-16-7.2-30.4-18.4-42.4c-12-12-28-19.2-45.6-19.2c-35.2,0-64,28.8-64,64c0,17.6,6.4,33.6,19.2,45.6
		c12,12,28,19.2,45.6,19.2c16.8,0,33.6-6.4,45.6-19.2c11.2-11.2,17.6-24.8,18.4-40C244.8,282.4,241.6,282.4,240,282.4"/>
</g>
<path style="fill:#F2DB0A;" d="M150.4,230.4c8.8-5.6,19.2-8.8,30.4-8.8c1.6,0,3.2,0,4.8,0c0-0.8,0-1.6,0-2.4c0-2.4-0.8-4-0.8-6.4
	c-1.6,0-3.2,0-4,0c-12,0-24,3.2-33.6,9.6C147.2,225.6,148.8,228.8,150.4,230.4z"/>
<g>
	<path style="fill:#009CD8;" d="M116,277.6v-4c-3.2,0.8-6.4,0.8-10.4,0.8c-15.2,0-28.8-5.6-39.2-16s-16-24.8-16-39.2
		c0-15.2,5.6-28.8,16-39.2s24.8-16,39.2-16c15.2,0,28.8,5.6,39.2,16s16,24.8,16,39.2c0,24-15.2,44.8-36.8,52.8v4.8v4
		c10.4-3.2,19.2-8.8,27.2-16c12-12,19.2-28,19.2-45.6s-6.4-33.6-19.2-45.6c-12-12-28-19.2-45.6-19.2c-35.2,0-64,28.8-64,64
		c0,16.8,6.4,33.6,19.2,45.6c12,12,28,19.2,45.6,19.2c3.2,0,6.4,0,10.4-0.8L116,277.6"/>
	<path style="fill:#EA1D26;" d="M330.4,222.4l-4.8-0.8c0.8,16,7.2,30.4,18.4,41.6c12,12,28,19.2,45.6,19.2
		c16.8,0,33.6-6.4,45.6-19.2c12-12,19.2-28,19.2-45.6S448,184,435.2,172c-12-12-28-19.2-45.6-19.2c-33.6,0-61.6,26.4-64,59.2
		l4.8,0.8l4,0.8c0.8-13.6,6.4-25.6,16-35.2c10.4-10.4,24.8-16,39.2-16c15.2,0,28.8,5.6,39.2,16c10.4,10.4,16,24.8,16,39.2
		c0,30.4-24.8,56-56,56c-4.8,0-9.6-0.8-13.6-1.6c-9.6-2.4-18.4-7.2-25.6-14.4c-9.6-9.6-15.2-21.6-16-34.4L330.4,222.4"/>
</g>
<g>
	<path style="fill:#F2DB0A;" d="M232,256.8c2.4,4.8,3.2,10.4,4,16c0,0,1.6,0.8,4,0.8s4.8,0.8,4.8,0.8c0-5.6-1.6-11.2-3.2-16.8
		c-2.4-0.8-4-1.6-6.4-1.6C233.6,256.8,232.8,256.8,232,256.8z"/>
	<path style="fill:#F2DB0A;" d="M240,282.4c-1.6,0-4-0.8-4-0.8c0,4.8-1.6,9.6-3.2,13.6c0.8,0,1.6,0,1.6,0c2.4,0,5.6-0.8,7.2-1.6
		c0.8-4,1.6-8,1.6-11.2C244.8,282.4,241.6,282.4,240,282.4z"/>
</g>
<g>
	<path style="fill:#0880BC;" d="M116,277.6v-4c-3.2,0.8-6.4,0.8-10.4,0.8c-1.6,0-3.2,0-4.8,0c-0.8,1.6-0.8,3.2-0.8,5.6
		c0,0.8,0,2.4,0,3.2c1.6,0,3.2,0,4.8,0c3.2,0,6.4,0,10.4-0.8L116,277.6z"/>
	<path style="fill:#0880BC;" d="M135.2,266.4c-3.2,1.6-6.4,4-10.4,4.8v4.8v4c4.8-1.6,9.6-4,14.4-6.4
		C138.4,271.2,136.8,268,135.2,266.4z"/>
</g>
<g>
	<path style="fill:#048940;" d="M312,218.4c0,0.8,0,4,0,4c2.4-0.8,5.6-0.8,8-0.8c0.8,0,2.4,0,3.2,0c0-0.8,0-1.6,0-2.4
		c0-2.4-0.8-4-0.8-6.4c-0.8,0-1.6,0-2.4,0c-3.2,0-5.6,0-8.8,0.8C312,213.6,312,217.6,312,218.4z"/>
	<path style="fill:#048940;" d="M288.8,232c4-3.2,8.8-5.6,13.6-7.2l0,0l0.8-4.8v-4.8c-6.4,1.6-12.8,4.8-18.4,8.8
		C285.6,227.2,287.2,229.6,288.8,232z"/>
</g>
<g>
	<path style="fill:#03893F;" d="M374.4,289.6c-5.6,24.8-28,43.2-54.4,43.2c-15.2,0-28.8-5.6-39.2-16c-7.2-7.2-12.8-16.8-15.2-27.2
		h-8.8c2.4,12.8,8.8,24,17.6,32.8c12,12,28,19.2,45.6,19.2c16.8,0,33.6-6.4,45.6-19.2c8.8-8.8,15.2-20.8,17.6-32.8H374.4z"/>
	<path style="fill:#F9DD35;" d="M234.4,289.6c-5.6,24.8-28,43.2-54.4,43.2c-15.2,0-28.8-5.6-39.2-16c-7.2-7.2-12.8-16.8-15.2-27.2
		h-8.8c2.4,12.8,8.8,24,17.6,32.8c12,12,28,19.2,45.6,19.2c16.8,0,33.6-6.4,45.6-19.2c8.8-8.8,15.2-20.8,17.6-32.8H234.4z"/>
</g>
<g>
</g>
<g>
</g>
<g>
</g>
<g>
</g>
<g>
</g>
<g>
</g>
<g>
</g>
<g>
</g>
<g>
</g>
<g>
</g>
<g>
</g>
<g>
</g>
<g>
</g>
<g>
</g>
<g>
</g>
</svg>
