<?xml version="1.0" encoding="iso-8859-1"?>
<!-- Generator: Adobe Illustrator 19.0.0, SVG Export Plug-In . SVG Version: 6.00 Build 0)  -->
<svg version="1.1" id="Capa_1" xmlns="http://www.w3.org/2000/svg" xmlns:xlink="http://www.w3.org/1999/xlink" x="0px" y="0px"
	 viewBox="0 0 496 496" style="enable-background:new 0 0 496 496;" xml:space="preserve">
<path style="fill:#E73525;" d="M496,369.6c0,27.2-21.6,48.8-48,48.8H48c-26.4,0-48-21.6-48-48.8V126.4c0-27.2,21.6-48.8,48-48.8h400
	c26.4,0,48,21.6,48,48.8V369.6z"/>
<path style="fill:#D31C13;" d="M48,77.6h400c26.4,0,48,21.6,48,48.8v243.2c0,27.2-21.6,48.8-48,48.8"/>
<g>
	<path style="fill:#BC0A0A;" d="M496,369.6c0,27.2-21.6,48.8-48,48.8H48c-26.4,0-48-21.6-48-48.8"/>
	<path style="fill:#BC0A0A;" d="M48,77.6h400c26.4,0,48,21.6,48,48.8v88.8"/>
</g>
<rect y="233.6" style="fill:#FFFFFF;" width="496" height="28.8"/>
<polygon style="fill:#DDDBDB;" points="264.8,262.4 496,262.4 496,233.6 231.2,233.6 "/>
<rect y="296" style="fill:#FFFFFF;" width="496" height="28.8"/>
<polygon style="fill:#DDDBDB;" points="337.6,324.8 496,324.8 496,296 304.8,296 "/>
<path style="fill:#FFFFFF;" d="M0,358.4v11.2c0,6.4,0.8,12,3.2,16.8h489.6c1.6-5.6,3.2-11.2,3.2-16.8v-11.2H0z"/>
<path style="fill:#DDDBDB;" d="M411.2,387.2h81.6l0,0c0.8-2.4,1.6-5.6,2.4-8l0,0c0.8-3.2,0.8-6.4,0.8-9.6v-11.2H377.6L411.2,387.2z"
	/>
<path style="fill:#FFFFFF;" d="M0,126.4v11.2h496v-11.2c0-6.4-0.8-12-3.2-16.8H3.2C0.8,114.4,0,120,0,126.4z"/>
<path style="fill:#DDDBDB;" d="M495.2,117.6L495.2,117.6c-0.8-3.2-1.6-5.6-2.4-8.8l0,0h-408l33.6,28.8H496v-11.2
	C496,123.2,496,120,495.2,117.6z"/>
<rect y="171.2" style="fill:#FFFFFF;" width="496" height="28.8"/>
<polygon style="fill:#DDDBDB;" points="191.2,200 496,200 496,171.2 158.4,171.2 "/>
<path style="fill:#384DA0;" d="M155.2,233.6v-156H48c-26.4,0-48,21.6-48,48.8v107.2L155.2,233.6L155.2,233.6z"/>
<polygon style="fill:#233A84;" points="155.2,77.6 48,77.6 155.2,168.8 "/>
<polygon style="fill:#FAF9FB;" points="77.6,120.8 86.4,147.2 114.4,147.2 91.2,164 100,190.4 77.6,174.4 54.4,190.4 63.2,164 
	40.8,147.2 68.8,147.2 "/>
<g>
</g>
<g>
</g>
<g>
</g>
<g>
</g>
<g>
</g>
<g>
</g>
<g>
</g>
<g>
</g>
<g>
</g>
<g>
</g>
<g>
</g>
<g>
</g>
<g>
</g>
<g>
</g>
<g>
</g>
</svg>
