<?xml version="1.0" encoding="iso-8859-1"?>
<!-- Generator: Adobe Illustrator 19.0.0, SVG Export Plug-In . SVG Version: 6.00 Build 0)  -->
<svg version="1.1" id="Capa_1" xmlns="http://www.w3.org/2000/svg" xmlns:xlink="http://www.w3.org/1999/xlink" x="0px" y="0px"
	 viewBox="0 0 496 496" style="enable-background:new 0 0 496 496;" xml:space="preserve">
<path style="fill:#ED1C24;" d="M0,304.8v64.8c0,27.2,21.6,48.8,48,48.8h400c26.4,0,48-21.6,48-48.8v-64.8H0z"/>
<path style="fill:#DD101F;" d="M448,418.4c26.4,0,48-21.6,48-48.8v-64.8H315.2L448,418.4z"/>
<path style="fill:#ED1C24;" d="M448,77.6H48c-26.4,0-48,21.6-48,48.8v64.8h496v-64.8C496,99.2,474.4,77.6,448,77.6z"/>
<path style="fill:#DD101F;" d="M448,77.6H48l132.8,113.6H496v-64.8C496,99.2,474.4,77.6,448,77.6z"/>
<path style="fill:#BC0826;" d="M448,77.6H48l370.4,113.6H496v-64.8C496,99.2,474.4,77.6,448,77.6z"/>
<polygon style="fill:#F3F4F5;" points="0,140.8 0,189.6 0,191.2 0,304.8 0,306.4 0,355.2 496,355.2 496,306.4 496,304.8 496,191.2 
	496,189.6 496,140.8 "/>
<polygon style="fill:#D3DDE5;" points="180,189.6 180,189.6 316,306.4 373.6,355.2 496,355.2 496,306.4 496,304.8 496,191.2 
	496,189.6 496,140.8 122.4,140.8 "/>
<path style="fill:#00A651;" d="M245.6,156l-3.2,4.8c-1.6,2.4-5.6,7.2-8.8,8.8c-3.2,2.4-7.2,5.6-8.8,8l-3.2,3.2l3.2-0.8
	c1.6-0.8,4-0.8,4.8-1.6s1.6,0,1.6,0.8l0,0l0,0c-0.8,1.6-5.6,5.6-9.6,7.2c-4,1.6-9.6,5.6-10.4,7.2l0,0l0,0l0,0l0,0l0,0l0,0l0,0l0,0
	l0,0l0,0l0,0l0,0l0,0c0.8,0,1.6,0,3.2,0c2.4-0.8,4,0,4.8,1.6c1.6,2.4,0.8,4-2.4,4c-4,0-8.8,4-9.6,6.4s-2.4,4-6.4,5.6
	c-7.2,3.2-16,8.8-16.8,11.2l0,0c0,2.4,5.6,2.4,14.4-0.8c1.6-0.8,2.4,0,4,3.2c1.6,4,1.6,4-2.4,9.6c-3.2,4-5.6,5.6-8,6.4
	c-5.6,0.8-7.2,2.4-14.4,9.6c-3.2,3.2-6.4,6.4-7.2,6.4h-0.8l0,0l0,0l0,0l0,0l0,0l0,0l0,0l0,0l0,0l0,0l0,0l0,0l0,0
	c0.8,0.8,4,3.2,6.4,3.2c1.6,0,5.6-1.6,8-4c5.6-4,5.6-4,8-1.6c1.6,1.6,2.4,3.2,2.4,5.6s-1.6,4-8,7.2c-4.8,2.4-11.2,7.2-16,12
	c-6.4,6.4-8,7.2-11.2,7.2c-1.6,0-2.4,0-3.2,0l0,0l0,0l0,0l0,0c0,0,0.8,0.8,1.6,2.4c0.8,0.8,3.2,1.6,4.8,1.6c4.8,0,20-5.6,24.8-9.6
	c4.8-3.2,8.8-4,12-1.6c5.6,3.2-4,9.6-20.8,15.2c-6.4,1.6-12,4-12.8,4l0,0l0,0l0,0l0,0c0,0.8,0,1.6,0.8,2.4c1.6,2.4,11.2,2.4,18.4,0
	c3.2-0.8,11.2-4,16.8-7.2c11.2-5.6,11.2-5.6,15.2-3.2c9.6,4.8,8.8,13.6-2.4,27.2c-4.8,6.4-9.6,8.8-16.8,11.2
	c-3.2,0.8-8.8,6.4-8.8,8.8c0,0,0,0,0,0.8h3.2c0.8,0,0.8-0.8,1.6-1.6c2.4-3.2,7.2-5.6,12.8-5.6s12-3.2,17.6-8c4.8-4,8.8-5.6,12-3.2
	c1.6,0.8,3.2,1.6,5.6,0c4-1.6,6.4-0.8,6.4,2.4c0,1.6,1.6,3.2,3.2,4s4.8,4,7.2,5.6c1.6,1.6,3.2,2.4,3.2,2.4l0,0l0,0l0,0l0,0l0,0l0,0
	l0,0l0,0l0,0l0,0l0,0l0,0l0,0l0,0c0-0.8-0.8-2.4-1.6-4c-0.8-0.8-0.8-2.4-0.8-3.2l0,0l0,0l0,0l0,0l0,0l0,0l0,0l0,0l0,0
	c0.8,0,4.8,0,8.8,0c7.2,0.8,8,1.6,12,6.4c2.4,2.4,4,4,5.6,4.8h3.2c0.8,0,0.8-0.8,0.8-0.8l0,0l0,0l0,0l0,0l0,0l0,0
	c0-0.8-4.8-4.8-9.6-8.8c-11.2-9.6-13.6-13.6-13.6-26.4c0-8,0-10.4,2.4-12c3.2-3.2,4.8-3.2,12,0.8c5.6,3.2,7.2,3.2,19.2,2.4
	c13.6,0,13.6,0,20,4c4,2.4,8,4.8,10.4,6.4c4,3.2,8,3.2,9.6,0.8c0.8-3.2-6.4-9.6-21.6-17.6c-14.4-8-16-9.6-9.6-13.6
	c4-2.4,4-1.6,10.4,1.6c4.8,2.4,7.2,3.2,10.4,2.4l4-0.8l-8.8-7.2c-4.8-4-9.6-8-10.4-9.6c-2.4-3.2-7.2-5.6-12-5.6
	c-2.4,0-4.8-0.8-4.8-0.8l0,0l0,0l0,0c-1.6-2.4,2.4-4,14.4-4c15.2-0.8,17.6-2.4,7.2-5.6c-4-1.6-10.4-3.2-14.4-4s-6.4-1.6-7.2-3.2
	c0,0,0,0,0-0.8l0,0c0,0,0-0.8,0.8-1.6s4-0.8,10.4,0s10.4,1.6,11.2,0.8c0.8-0.8-2.4-3.2-8.8-7.2c-6.4-3.2-13.6-8.8-17.6-12.8
	c-3.2-3.2-8.8-7.2-11.2-8.8c-4-1.6-4.8-3.2-4.8-4c0.8-2.4,6.4-2.4,10.4,0c1.6,0.8,5.6,1.6,8.8,1.6h6.4l-4-1.6
	c-4-1.6-15.2-9.6-16-11.2l0,0l0,0l0,0l0,0l0,0l0,0l0,0c0.8,0,3.2-0.8,6.4,0h6.4l-12-7.2c-6.4-4.8-10.4-7.2-15.2-8
	c-3.2-0.8-7.2-1.6-8.8-1.6c-4-0.8-9.6-7.2-12.8-12.8L245.6,156z M224.8,191.2C225.6,191.2,225.6,191.2,224.8,191.2
	c1.6,0,2.4,0,2.4,0.8l0,0l0,0l0,0l0,0l0,0l0,0l0,0l0,0c0,0.8-1.6,2.4-3.2,3.2c-0.8,0.8-1.6,0.8-2.4,0.8l0,0l0,0l0,0c0,0,0-0.8,0-2.4
	C222.4,192,223.2,191.2,224.8,191.2z M255.2,194.4L255.2,194.4c1.6,0,3.2,0.8,3.2,2.4c0,1.6-0.8,2.4-3.2,2.4c-1.6,0-2.4,0-3.2-0.8
	c0,0,0-0.8,0-1.6C252.8,195.2,253.6,194.4,255.2,194.4z M246.4,195.2c1.6,0,2.4,0.8,2.4,2.4c0,2.4-0.8,3.2-4.8,4
	c-2.4,0.8-4.8,0.8-5.6,0.8l0,0l0,0c-1.6-1.6,0-4,3.2-5.6C244,195.2,245.6,195.2,246.4,195.2z M267.2,195.2c2.4,0,2.4,0.8,1.6,4
	c0,0.8-1.6,1.6-3.2,1.6c-2.4,0-2.4-0.8-2.4-2.4c0-2.4,1.6-3.2,3.2-3.2C266.4,195.2,266.4,195.2,267.2,195.2z M232.8,200.8
	L232.8,200.8c3.2,0,1.6,4.8-2.4,7.2c-3.2,2.4-6.4,3.2-7.2,2.4l0,0l0,0l0,0l0,0l0,0l0,0l0,0l0,0C222.4,207.2,229.6,201.6,232.8,200.8
	z M258.4,212.8c1.6,0,2.4,1.6,1.6,4c0,1.6-1.6,2.4-3.2,2.4s-2.4,0-2.4,0l0,0l0,0l0,0l0,0l0,0c0-0.8,0.8-1.6,2.4-4
	C256,213.6,257.6,212.8,258.4,212.8z M248,213.6L248,213.6c2.4,0,3.2,2.4,0.8,4c-0.8,0.8-2.4,0.8-2.4,0.8l0,0l0,0
	c0,0-1.6-0.8-3.2-0.8L240,216l3.2-1.6C244.8,214.4,247.2,213.6,248,213.6z M269.6,216c1.6,0,2.4,0,4,0.8c2.4,0.8,3.2,1.6,2.4,4.8
	c-0.8,3.2-2.4,4-8.8,1.6c-3.2-0.8-3.2-1.6-2.4-4C265.6,217.6,267.2,216,269.6,216z M221.6,216.8L221.6,216.8c4.8,0,5.6,0.8,3.2,4
	c-0.8,0.8-2.4,2.4-3.2,3.2c-1.6,1.6-2.4,0.8-3.2-0.8c-1.6-2.4-1.6-4-0.8-4.8C217.6,217.6,219.2,216.8,221.6,216.8z M208.8,219.2
	c2.4,0,3.2,0.8,4.8,4l2.4,4l-3.2,1.6c-3.2,0.8-4,0.8-6.4-2.4c-1.6-2.4-2.4-4-1.6-4.8l0,0l0,0l0,0C205.6,220,206.4,219.2,208.8,219.2
	L208.8,219.2z M284,231.2c2.4,0,4.8,1.6,4,4c-0.8,3.2-4,4-7.2,1.6c-1.6-1.6-1.6-1.6-0.8-4C281.6,232,282.4,231.2,284,231.2z
	 M240.8,236.8C241.6,236.8,241.6,236.8,240.8,236.8C241.6,236.8,241.6,236.8,240.8,236.8c0.8,0,0.8,0,0.8,0l0,0l0,0l0,0l0,0
	c0,0.8,0.8,0.8,0,2.4c-0.8,3.2-2.4,4-4,1.6C238.4,239.2,239.2,236.8,240.8,236.8z M227.2,240c0.8,0,2.4,0.8,4,1.6
	c0.8,0.8,1.6,1.6,1.6,2.4l0,0l0,0l0,0l0,0l0,0l0,0l0,0l0,0c-0.8,0.8-2.4,0-4-0.8s-2.4-2.4-2.4-3.2l0,0l0,0
	C225.6,240,226.4,240,227.2,240z M249.6,240c0.8,0,0.8,0,1.6,1.6c0.8,0.8,2.4,3.2,2.4,4.8c0.8,3.2-0.8,4.8-4,3.2
	c-3.2-1.6-4-4-2.4-7.2C248.8,240.8,248.8,240,249.6,240z M257.6,244.8c0.8,0,1.6,0.8,2.4,3.2c0,1.6,0,2.4,0,2.4l0,0l0,0l0,0l0,0l0,0
	l0,0l0,0l0,0c-1.6,0-2.4-1.6-2.4-4C256.8,245.6,256.8,244.8,257.6,244.8z M208,249.6c1.6,0,3.2,0,4,0c1.6,0,2.4,0.8,3.2,1.6l0,0l0,0
	c0,0,0,0,0,0.8s-1.6,2.4-4,3.2c-2.4,0.8-5.6,2.4-8,3.2c-4,0.8-4,0.8-5.6-3.2c-0.8-2.4-1.6-4-1.6-4l0,0l0,0l0,0l0,0l0,0
	C196,250.4,203.2,249.6,208,249.6z M284.8,260.8c4.8,0,7.2,3.2,2.4,6.4c-3.2,2.4-8,2.4-10.4,0c-2.4-1.6-1.6-1.6,1.6-4
	C280,261.6,282.4,260.8,284.8,260.8z M300.8,264.8L300.8,264.8c0.8,0,2.4,0.8,4,1.6c2.4,1.6,2.4,1.6-0.8,4.8
	c-1.6,1.6-2.4,3.2-3.2,3.2l0,0l0,0l0,0l0,0c0,0-2.4-0.8-4-0.8c-2.4,0-4-1.6-4-2.4l0,0C292.8,268.8,298.4,264.8,300.8,264.8z
	 M219.2,269.6C220,269.6,220,269.6,219.2,269.6c4,0,5.6,2.4,5.6,7.2c0,6.4-4,5.6-5.6-0.8C217.6,270.4,217.6,269.6,219.2,269.6z
	 M242.4,271.2c1.6,0,6.4,0.8,7.2,1.6l0,0l0,0l0,0l0,0l0,0l0,0l0,0c0,0.8-1.6,2.4-2.4,4l-2.4,3.2l-1.6-4.8
	C242.4,274.4,241.6,272,242.4,271.2C241.6,271.2,241.6,271.2,242.4,271.2C241.6,271.2,241.6,271.2,242.4,271.2
	C241.6,271.2,241.6,271.2,242.4,271.2L242.4,271.2C241.6,271.2,241.6,271.2,242.4,271.2L242.4,271.2L242.4,271.2L242.4,271.2
	L242.4,271.2L242.4,271.2z M231.2,273.6c0,0,0.8,0,1.6,0c1.6,0,2.4,1.6,3.2,2.4c0,1.6,0,2.4,0,3.2l0,0l0,0l0,0l0,0l0,0l0,0
	c-0.8,0-1.6-0.8-2.4-3.2C231.2,275.2,230.4,273.6,231.2,273.6L231.2,273.6L231.2,273.6z"/>
<path style="fill:#007535;" d="M318.4,287.2c-14.4-8-16-9.6-9.6-13.6c4-2.4,4-1.6,10.4,1.6c4.8,2.4,7.2,3.2,10.4,2.4l4-0.8l-8.8-7.2
	c-4.8-4-9.6-8-10.4-9.6c-2.4-3.2-7.2-5.6-12-5.6c-2.4,0-4.8-0.8-4.8-0.8l0,0l0,0l0,0c-1.6-2.4,2.4-4,14.4-4
	c15.2-0.8,17.6-2.4,7.2-5.6c-4-1.6-10.4-3.2-14.4-4s-6.4-1.6-7.2-3.2c0,0,0,0,0-0.8l0,0c0,0,0-0.8,0.8-1.6s4-0.8,10.4,0
	s10.4,1.6,11.2,0.8c0.8-0.8-2.4-3.2-8.8-7.2c-6.4-3.2-13.6-8.8-17.6-12.8c-3.2-3.2-8.8-7.2-11.2-8.8c-4-1.6-4.8-3.2-4.8-4
	c0.8-2.4,6.4-2.4,10.4,0c1.6,0.8,5.6,1.6,8.8,1.6h6.4l-4-1.6c-4-1.6-15.2-9.6-16-11.2l0,0l0,0l0,0l0,0l0,0l0,0l0,0
	c0.8,0,3.2-0.8,6.4,0h6.4l-12-7.2c-6.4-4.8-10.4-7.2-15.2-8c-3.2-0.8-7.2-1.6-8.8-1.6c-4-0.8-9.6-7.2-12.8-12.8l-2.4-4.8l-3.2,4.8
	c-1.6,2.4-5.6,7.2-8.8,8.8c-3.2,2.4-7.2,5.6-8.8,8l-3.2,3.2l3.2-0.8c1.6-0.8,4-0.8,4.8-1.6s1.6,0,1.6,0.8l0,0l0,0
	c-0.8,1.6-5.6,5.6-9.6,7.2c-4,1.6-9.6,5.6-10.4,7.2l0,0l0,0l0,0l0,0l0,0l0,0l0,0l0,0l0,0l0,0l0,0l0,0l0,0c0.8,0,1.6,0,3.2,0
	c2.4-0.8,4,0,4.8,1.6c1.6,2.4,0.8,4-2.4,4c-4,0-8.8,4-9.6,6.4c0,1.6-0.8,2.4-2.4,3.2l12.8,11.2c-0.8-1.6-0.8-3.2-0.8-4
	c0.8-0.8,1.6-1.6,4-1.6l0,0c4.8,0,5.6,0.8,3.2,4c-0.8,0.8-2.4,2.4-3.2,3.2c0,0,0,0-0.8,0l18.4,15.2c0-1.6,0.8-3.2,2.4-3.2l0,0
	c0,0,0,0,0.8,0l0,0l0,0l0,0l0,0l0,0c0,0.8,0.8,0.8,0,2.4c0,1.6-0.8,2.4-1.6,2.4l60.8,51.2c11.2,0,12,0,18.4,4c4,2.4,8,4.8,10.4,6.4
	c4,3.2,8,3.2,9.6,0.8C340.8,301.6,332.8,295.2,318.4,287.2z M255.2,194.4L255.2,194.4c1.6,0,3.2,0.8,3.2,2.4c0,1.6-0.8,2.4-3.2,2.4
	c-1.6,0-2.4,0-3.2-0.8c0,0,0-0.8,0-1.6C252.8,195.2,253.6,194.4,255.2,194.4z M224.8,191.2C225.6,191.2,225.6,191.2,224.8,191.2
	c1.6,0,2.4,0,2.4,0.8l0,0l0,0l0,0l0,0l0,0l0,0l0,0l0,0c0,0.8-1.6,2.4-3.2,3.2c-0.8,0.8-1.6,0.8-2.4,0.8l0,0l0,0l0,0c0,0,0-0.8,0-2.4
	C222.4,192,223.2,191.2,224.8,191.2z M230.4,208.8c-3.2,2.4-6.4,3.2-7.2,2.4l0,0l0,0l0,0l0,0l0,0l0,0l0,0l0,0c0-2.4,6.4-8.8,9.6-8.8
	l0,0C235.2,200.8,233.6,206.4,230.4,208.8z M237.6,202.4L237.6,202.4L237.6,202.4c-1.6-1.6,0-4,3.2-5.6c2.4-1.6,4-1.6,4.8-1.6
	c1.6,0,2.4,0.8,2.4,2.4c0,2.4-0.8,3.2-4.8,4C240.8,202.4,238.4,202.4,237.6,202.4z M246.4,218.4L246.4,218.4c0,0-1.6-0.8-3.2-0.8
	L240,216l3.2-1.6c1.6-0.8,4-1.6,4.8-1.6l0,0c2.4,0,3.2,2.4,0.8,4C248,217.6,246.4,218.4,246.4,218.4L246.4,218.4z M250.4,249.6
	c-3.2-1.6-4-4-2.4-7.2c0.8-0.8,0.8-1.6,1.6-1.6c0.8,0,0.8,0,1.6,1.6c0.8,0.8,2.4,3.2,2.4,4.8C254.4,249.6,252.8,250.4,250.4,249.6z
	 M259.2,250.4L259.2,250.4L259.2,250.4L259.2,250.4L259.2,250.4L259.2,250.4L259.2,250.4L259.2,250.4L259.2,250.4
	c-1.6,0-3.2-1.6-3.2-4c0-1.6,0.8-1.6,0.8-1.6c0.8,0,1.6,0.8,2.4,3.2C260,249.6,260,250.4,259.2,250.4z M260,216.8
	c0,1.6-1.6,2.4-3.2,2.4s-2.4,0-2.4,0l0,0l0,0l0,0l0,0l0,0c0-0.8,0.8-1.6,2.4-4c0.8-1.6,1.6-1.6,2.4-1.6
	C259.2,212.8,260,214.4,260,216.8z M280.8,232.8c0.8-0.8,1.6-1.6,3.2-1.6c2.4,0,4.8,1.6,4,4c-0.8,3.2-4,4-7.2,1.6
	C279.2,235.2,279.2,235.2,280.8,232.8z M262.4,198.4c0-2.4,1.6-3.2,3.2-3.2h0.8c2.4,0,2.4,0.8,1.6,4c0,0.8-1.6,1.6-3.2,1.6
	C262.4,200.8,262.4,200.8,262.4,198.4z M267.2,223.2c-3.2-0.8-3.2-1.6-2.4-4c0.8-2.4,3.2-3.2,5.6-3.2c1.6,0,2.4,0,4,0.8
	c2.4,0.8,3.2,1.6,2.4,4.8C275.2,224.8,273.6,225.6,267.2,223.2z M286.4,267.2c-3.2,2.4-8,2.4-10.4,0c-2.4-1.6-1.6-1.6,1.6-4
	c2.4-1.6,4.8-2.4,6.4-2.4C288.8,260.8,291.2,264,286.4,267.2z M300.8,274.4L300.8,274.4L300.8,274.4L300.8,274.4L300.8,274.4
	c-0.8,0-2.4-0.8-4.8-0.8s-4-1.6-4-2.4l0,0c0-1.6,5.6-6.4,8-6.4l0,0c0.8,0,2.4,0.8,3.2,1.6c2.4,1.6,2.4,1.6-0.8,4.8
	C302.4,272.8,301.6,274.4,300.8,274.4z"/>
<g>
</g>
<g>
</g>
<g>
</g>
<g>
</g>
<g>
</g>
<g>
</g>
<g>
</g>
<g>
</g>
<g>
</g>
<g>
</g>
<g>
</g>
<g>
</g>
<g>
</g>
<g>
</g>
<g>
</g>
</svg>
