<?xml version="1.0" encoding="iso-8859-1"?>
<!-- Generator: Adobe Illustrator 19.0.0, SVG Export Plug-In . SVG Version: 6.00 Build 0)  -->
<svg version="1.1" id="Capa_1" xmlns="http://www.w3.org/2000/svg" xmlns:xlink="http://www.w3.org/1999/xlink" x="0px" y="0px"
	 viewBox="0 0 496 496" style="enable-background:new 0 0 496 496;" xml:space="preserve">
<path style="fill:#0C763C;" d="M0,304v65.6C0,396.8,21.6,416,48,416h400c26.4,0,48-19.2,48-46.4V304H0z"/>
<path style="fill:#3A3A3A;" d="M448,80H48C21.6,80,0,99.2,0,126.4V192h496v-65.6C496,99.2,474.4,80,448,80z"/>
<rect y="192" style="fill:#F3F4F5;" width="496" height="112"/>
<path style="fill:#01662C;" d="M446.4,416c26.4,0,49.6-19.2,49.6-46.4V304H315.2L446.4,416z"/>
<path style="fill:#151515;" d="M448,80H48l132,112h316v-65.6C496,99.2,474.4,80,448,80z"/>
<polygon style="fill:#D3D9DD;" points="315.2,304 496,304 496,192 180,192 "/>
<path d="M448,80H48l367.2,112H496v-65.6C496,99.2,474.4,80,448,80z"/>
<polygon style="fill:#B8C5CC;" points="496,214.4 496,192 414.4,192 "/>
<path style="fill:#025624;" d="M496,368.8c0,29.6-21.6,47.2-48,47.2H48c-26.4,0-48-16.8-48-48"/>
<polygon style="fill:#AA1717;" points="168,248 0,141.6 0,189.6 0,191.2 0,304.8 0,306.4 0,354.4 "/>
<polyline style="fill:#CD2029;" points="0,192 0,191.2 0,304.8 0,306.4 0,354.4 168,248 "/>
<path style="fill:#FFFFFF;" d="M46.4,280c4.8-4,9.6-8.8,14.4-13.6c4.8,4,9.6,9.6,14.4,12.8c0-6.4-0.8-12-0.8-19.2
	c6.4-0.8,12.8-2.4,19.2-3.2c-4.8-4-10.4-7.2-16-11.2c3.2-5.6,6.4-11.2,9.6-16.8c-5.6,0.8-12,4-18.4,4.8c-3.2-5.6-4.8-12-7.2-18.4
	c-3.2,5.6-4.8,12-7.2,18.4c-6.4-1.6-12.8-4-19.2-5.6c3.2,5.6,6.4,11.2,9.6,16.8c-4.8,4-11.2,7.2-16,12c6.4,0.8,12,2.4,18.4,2.4
	C48,266.4,46.4,272.8,46.4,280z"/>
<g>
</g>
<g>
</g>
<g>
</g>
<g>
</g>
<g>
</g>
<g>
</g>
<g>
</g>
<g>
</g>
<g>
</g>
<g>
</g>
<g>
</g>
<g>
</g>
<g>
</g>
<g>
</g>
<g>
</g>
</svg>
