<?xml version="1.0" encoding="iso-8859-1"?>
<!-- Generator: Adobe Illustrator 19.0.0, SVG Export Plug-In . SVG Version: 6.00 Build 0)  -->
<svg version="1.1" id="Capa_1" xmlns="http://www.w3.org/2000/svg" xmlns:xlink="http://www.w3.org/1999/xlink" x="0px" y="0px"
	 viewBox="0 0 496 496" style="enable-background:new 0 0 496 496;" xml:space="preserve">
<path style="fill:#CE1126;" d="M0,248v121.6c0,27.2,21.6,48.8,48,48.8h400c26.4,0,48-21.6,48-48.8V248H0z"/>
<path style="fill:#B70B25;" d="M248,248l200,170.4c26.4,0,48-21.6,48-48.8V248H248z"/>
<path style="fill:#002B7F;" d="M448,77.6H48c-26.4,0-48,21.6-48,48.8V248h496V126.4C496,99.2,474.4,77.6,448,77.6z"/>
<path style="fill:#002766;" d="M448,77.6H48L248,248h248V126.4C496,99.2,474.4,77.6,448,77.6z"/>
<path style="fill:#9B0421;" d="M496,369.6c0,27.2-21.6,48.8-48,48.8H48c-26.4,0-48-21.6-48-48.8"/>
<path style="fill:#001E42;" d="M48,77.6h400c26.4,0,48,21.6,48,48.8v88.8"/>
<g>
	<circle style="fill:#FFD83D;" cx="90.4" cy="140.8" r="3.2"/>
	<circle style="fill:#FFD83D;" cx="83.2" cy="138.4" r="3.2"/>
	<circle style="fill:#FFD83D;" cx="76" cy="137.6" r="3.2"/>
	<circle style="fill:#FFD83D;" cx="68" cy="136.8" r="3.2"/>
	<circle style="fill:#FFD83D;" cx="60.8" cy="137.6" r="3.2"/>
	<circle style="fill:#FFD83D;" cx="54.4" cy="139.2" r="3.2"/>
	<circle style="fill:#FFD83D;" cx="48.8" cy="144" r="3.2"/>
	<circle style="fill:#FFD83D;" cx="44" cy="149.6" r="3.2"/>
	<circle style="fill:#FFD83D;" cx="42.4" cy="156.8" r="3.2"/>
	<circle style="fill:#FFD83D;" cx="42.4" cy="164" r="3.2"/>
	<circle style="fill:#FFD83D;" cx="44" cy="171.2" r="3.2"/>
	<circle style="fill:#FFD83D;" cx="116.8" cy="140.8" r="3.2"/>
</g>
<g>
	<circle style="fill:#E5B20E;" cx="124" cy="138.4" r="3.2"/>
	<circle style="fill:#E5B20E;" cx="131.2" cy="137.6" r="3.2"/>
	<circle style="fill:#E5B20E;" cx="139.2" cy="136.8" r="3.2"/>
	<circle style="fill:#E5B20E;" cx="146.4" cy="137.6" r="3.2"/>
	<circle style="fill:#E5B20E;" cx="152.8" cy="139.2" r="3.2"/>
	<circle style="fill:#E5B20E;" cx="159.2" cy="144" r="3.2"/>
	<circle style="fill:#E5B20E;" cx="163.2" cy="149.6" r="3.2"/>
	<circle style="fill:#E5B20E;" cx="164.8" cy="156.8" r="3.2"/>
	<circle style="fill:#E5B20E;" cx="164.8" cy="164" r="3.2"/>
	<circle style="fill:#E5B20E;" cx="163.2" cy="171.2" r="3.2"/>
</g>
<path style="fill:#FFD83D;" d="M100.8,118.4c0,0.8,0.8,1.6,1.6,1.6l-3.2,5.6l0.8,1.6c-2.4,0.8-4,2.4-4,4.8l0,0l0,0
	c0,0.8,0,0.8,0,1.6c0,4,3.2,7.2,7.2,7.2s7.2-3.2,7.2-7.2c0-0.8,0-1.6,0-1.6l0,0l0,0c-0.8-2.4-2.4-4-4-4.8l0.8-1.6L104,120
	c0.8,0,1.6-0.8,1.6-1.6l4,2.4l5.6-3.2l-5.6-3.2l-4,2.4c0-0.8-0.8-1.6-2.4-1.6l3.2-5.6l-2.4-6.4l-3.2,6.4l3.2,5.6
	c-0.8,0-1.6,0.8-2.4,1.6l-4-2.4l-5.6,3.2l5.6,3.2L100.8,118.4z"/>
<g>
	<path style="fill:#E5B20E;" d="M106.4,116.8c0-0.8-0.8-1.6-2.4-1.6l3.2-5.6l-3.2-6.4l-3.2,6.4l3.2,5.6c-0.8,0-1.6,0.8-2.4,1.6
		l-4-2.4l-3.2,2.4l4.8,4l3.2-2.4c0,0.8,0.8,1.6,1.6,1.6l-1.6,3.2l4.8,4l0.8-1.6l-4-5.6c0.8,0,1.6-0.8,1.6-1.6l4,2.4l5.6-3.2
		l-5.6-3.2L106.4,116.8z"/>
	<path style="fill:#E5B20E;" d="M108.8,129.6C108.8,129.6,108,128.8,108.8,129.6L108.8,129.6z"/>
</g>
<path style="fill:#FFD83D;" d="M158.4,175.2c1.6-4.8,2.4-9.6,2.4-15.2c0-9.6-7.2-19.2-20-19.2c-10.4,0-21.6,3.2-30.4,5.6v-0.8
	c1.6,0,2.4-1.6,2.4-3.2c0-1.6-1.6-3.2-3.2-3.2s-3.2,1.6-3.2,3.2c0,1.6,1.6,3.2,3.2,3.2l-4,0.8c0,0.8,0,0.8,0,1.6
	c0-0.8-1.6-1.6-2.4-1.6s-2.4,0.8-2.4,1.6c0-0.8,0-0.8,0-1.6l-4-0.8c1.6,0,3.2-1.6,3.2-3.2c0-1.6-1.6-3.2-3.2-3.2s-3.2,1.6-3.2,3.2
	c0,1.6,0.8,3.2,2.4,3.2v0.8c-8.8-2.4-20-5.6-30.4-5.6c-12.8,0-20,9.6-20,19.2c0,5.6,0.8,10.4,2.4,15.2c-4,0-8,0.8-12,4
	c8,6.4,11.2,24.8,17.6,32.8l0,0c0,4,21.6,8,48.8,8s48.8-4,48.8-8l0,0c6.4-8,9.6-26.4,17.6-32.8C166.4,176,162.4,174.4,158.4,175.2z
	 M103.2,169.6L103.2,169.6C104,169.6,104,169.6,103.2,169.6L103.2,169.6C104,169.6,104,169.6,103.2,169.6L103.2,169.6L103.2,169.6z
	 M104,162.4L104,162.4C103.2,162.4,103.2,162.4,104,162.4L104,162.4C103.2,162.4,103.2,162.4,104,162.4L104,162.4L104,162.4z
	 M104,156.8L104,156.8C103.2,156.8,103.2,156.8,104,156.8L104,156.8C103.2,156,103.2,156,104,156.8C104,156,104,156,104,156.8
	L104,156.8z M104,150.4L104,150.4C104,151.2,104,151.2,104,150.4C103.2,151.2,103.2,151.2,104,150.4L104,150.4
	C103.2,150.4,103.2,150.4,104,150.4L104,150.4z"/>
<g>
	<path style="fill:#E5B20E;" d="M140.8,140.8c-5.6,0-11.2,0.8-16.8,2.4l35.2,29.6c1.6-4,2.4-8,2.4-12.8
		C160.8,149.6,153.6,140.8,140.8,140.8z"/>
	<path style="fill:#E5B20E;" d="M168.8,180.8c0.8-0.8,0.8-0.8,1.6-1.6c-2.4-1.6-4.8-3.2-8-3.2L168.8,180.8z"/>
</g>
<circle style="fill:#FFD83D;" cx="104" cy="143.2" r="2.4"/>
<g>
</g>
<g>
</g>
<g>
</g>
<g>
</g>
<g>
</g>
<g>
</g>
<g>
</g>
<g>
</g>
<g>
</g>
<g>
</g>
<g>
</g>
<g>
</g>
<g>
</g>
<g>
</g>
<g>
</g>
</svg>
