<?xml version="1.0" encoding="iso-8859-1"?>
<!-- Generator: Adobe Illustrator 19.0.0, SVG Export Plug-In . SVG Version: 6.00 Build 0)  -->
<svg version="1.1" id="Capa_1" xmlns="http://www.w3.org/2000/svg" xmlns:xlink="http://www.w3.org/1999/xlink" x="0px" y="0px"
	 viewBox="0 0 496 496" style="enable-background:new 0 0 496 496;" xml:space="preserve">
<path style="fill:#006600;" d="M0,304.8v64.8c0,27.2,21.6,48.8,48,48.8h400c26.4,0,48-21.6,48-48.8v-64.8H0z"/>
<path id="SVGCleanerId_0" style="fill:#444444;" d="M448,77.6H48c-26.4,0-48,21.6-48,48.8v64.2h496v-64.2
	C496,99.2,474.4,77.6,448,77.6z"/>
<g>
	<path id="SVGCleanerId_0_1_" style="fill:#444444;" d="M448,77.6H48c-26.4,0-48,21.6-48,48.8v64.2h496v-64.2
		C496,99.2,474.4,77.6,448,77.6z"/>
</g>
<rect y="190.6" style="fill:#205688;" width="496" height="114.2"/>
<path style="fill:#045904;" d="M448,418.4c26.4,0,48-21.6,48-48.8v-64.8H315.2L448,418.4z"/>
<path style="fill:#282626;" d="M448,77.6H48l132.8,113H496v-64.2C496,99.2,474.4,77.6,448,77.6z"/>
<polygon style="fill:#0D4772;" points="316,304.8 496,304.8 496,190.6 180,190.6 "/>
<path d="M448,77.6H48l370.4,113H496v-64.2C496,99.2,474.4,77.6,448,77.6z"/>
<polygon style="fill:#063A59;" points="496,214.4 496,190.6 414.4,190.6 "/>
<path style="fill:#034703;" d="M496,369.6c0,27.2-21.6,48.8-48,48.8H48c-26.4,0-48-21.6-48-48.8"/>
<rect y="181.6" style="fill:#FFFFFF;" width="496" height="9"/>
<polygon style="fill:#99AAB5;" points="180.8,190.6 496,190.6 496,181.6 169.6,181.6 "/>
<rect y="304.8" style="fill:#FFFFFF;" width="496" height="9.6"/>
<polygon style="fill:#99AAB5;" points="315.2,304.8 326.4,314.4 496,314.4 496,304.8 "/>
<path d="M180,361.6l4,2.4l111.2-192.8c6.4-1.6,10.4-8,13.6-14.4c2.4-4,12-20.8,16-42.4c-16.8,14.4-26.4,31.2-28.8,35.2
	c-3.2,6.4-7.2,12.8-5.6,19.2L180,361.6z"/>
<path style="fill:#FFFFFF;" d="M180,361.6l4,2.4l111.2-192.8c6.4-1.6,10.4-8,13.6-14.4c2.4-4,12-20.8,16-42.4
	c-16.8,14.4-26.4,31.2-28.8,35.2c-3.2,6.4-7.2,12.8-5.6,19.2L180,361.6z"/>
<path d="M316,361.6l-4,2.4L200.8,171.2c-6.4-1.6-10.4-8-13.6-14.4c-2.4-4-12-20.8-16-42.4c16.8,14.4,26.4,31.2,28.8,35.2
	c3.2,6.4,7.2,12.8,5.6,19.2L316,361.6z"/>
<g>
	<path style="fill:#BB0000;" d="M496,190.6H0v114.2h496V190.6z"/>
	<path style="fill:#BB0000;" d="M304.9,249.3c0,63.3-46.7,114.6-57.3,114.6s-57.3-51.3-57.3-114.6s46.7-114.6,57.3-114.6
		C258.2,134.7,304.9,186,304.9,249.3z"/>
</g>
<path d="M293.4,304.5c6.7-16.4,11.5-35.2,11.5-55.3s-4.7-38.9-11.5-55.3c-6.7,16.4-11.5,35.2-11.5,55.3
	C282,269.3,286.7,288.1,293.4,304.5z"/>
<path d="M201.8,194c-6.7,16.4-11.5,35.2-11.5,55.3c0,20,4.7,38.9,11.5,55.3c6.7-16.4,11.5-35.2,11.5-55.3S208.5,210.4,201.8,194z"/>
<g>
	<ellipse style="fill:#F5F5F5;" cx="247.6" cy="249.3" rx="11.5" ry="17.2"/>
	<path style="fill:#F5F5F5;" d="M249.3,134.7v97.4c3.1-6.5,8.7-25.7,8.7-48.7S252.4,141.2,249.3,134.7z"/>
	<path style="fill:#F5F5F5;" d="M245.9,134.7c-3.1,6.5-8.7,25.7-8.7,48.7s5.5,42.2,8.7,48.7V134.7z"/>
	<path style="fill:#F5F5F5;" d="M249.3,266.4v97.4c3.1-6.5,8.7-25.7,8.7-48.7C258,292.2,252.4,272.9,249.3,266.4z"/>
	<path style="fill:#F5F5F5;" d="M245.9,266.4c-3.1,6.5-8.7,25.7-8.7,48.7s5.5,42.2,8.7,48.7V266.4z"/>
</g>
<g>
</g>
<g>
</g>
<g>
</g>
<g>
</g>
<g>
</g>
<g>
</g>
<g>
</g>
<g>
</g>
<g>
</g>
<g>
</g>
<g>
</g>
<g>
</g>
<g>
</g>
<g>
</g>
<g>
</g>
</svg>
