<?xml version="1.0" encoding="iso-8859-1"?>
<!-- Generator: Adobe Illustrator 19.0.0, SVG Export Plug-In . SVG Version: 6.00 Build 0)  -->
<svg version="1.1" id="Capa_1" xmlns="http://www.w3.org/2000/svg" xmlns:xlink="http://www.w3.org/1999/xlink" x="0px" y="0px"
	 viewBox="0 0 496 496" style="enable-background:new 0 0 496 496;" xml:space="preserve">
<path style="fill:#DA0000;" d="M0,304.8v64.8c0,27.2,21.6,48.8,48,48.8h400c26.4,0,48-21.6,48-48.8v-64.8H0z"/>
<path style="fill:#239F40;" d="M448,77.6H48c-26.4,0-48,21.6-48,48.8v64.8h496v-64.8C496,99.2,474.4,77.6,448,77.6z"/>
<rect y="189.6" style="fill:#FFFFFF;" width="496" height="116"/>
<path style="fill:#C10000;" d="M448,418.4c26.4,0,48-21.6,48-48.8v-64.8H315.2L448,418.4z"/>
<path style="fill:#138E2A;" d="M448,77.6H48l132.8,113.6H496v-64.8C496,99.2,474.4,77.6,448,77.6z"/>
<polygon style="fill:#F7F4E2;" points="316,306.4 496,306.4 496,189.6 180,189.6 "/>
<path style="fill:#097218;" d="M448,77.6H48l370.4,113.6H496v-64.8C496,99.2,474.4,77.6,448,77.6z"/>
<polygon style="fill:#F2E9C2;" points="496,214.4 496,189.6 414.4,189.6 "/>
<g>
	<path style="fill:#A00000;" d="M496,369.6c0,27.2-21.6,48.8-48,48.8H48c-26.4,0-48-21.6-48-48.8"/>
	<path style="fill:#A00000;" d="M268.8,210.4c0,0,37.6,29.6,9.6,71.2C304.8,265.6,307.2,222.4,268.8,210.4z"/>
	<path style="fill:#A00000;" d="M248,205.6c5.6,6.4,16,0,12.8-7.2c-6.4,11.2-12.8,2.4-12.8,2.4s-6.4,8.8-12.8-2.4
		C232,205.6,242.4,212.8,248,205.6z"/>
</g>
<path style="fill:#DA0000;" d="M280.8,247.2c-1.6-27.2-16-36-16-36s25.6,37.6-12,69.6l1.6-39.2v-28.8C252,212,248,208,248,208
	s-4,4.8-6.4,4.8v28.8l1.6,39.2c-38.4-32-12-69.6-12-69.6s-14.4,8-16,36c-0.8,27.2,24,40.8,24,40.8c-2.4,0.8-8,3.2-19.2,3.2
	c13.6,4.8,23.2,1.6,23.2,1.6l4,5.6l4-5.6c0,0,10.4,3.2,23.2-1.6c-11.2,0-16.8-1.6-19.2-3.2C256.8,287.2,280.8,274.4,280.8,247.2z"/>
<path id="SVGCleanerId_0" style="fill:#DA0000;" d="M227.2,210.4c-38.4,12-36,56-9.6,71.2C189.6,239.2,227.2,210.4,227.2,210.4z"/>
<g>
	<path style="fill:#A00000;" d="M264.8,211.2c0,0,17.6,25.6,2.4,52.8l7.2,6.4c4-6.4,6.4-13.6,6.4-23.2
		C279.2,219.2,264.8,211.2,264.8,211.2z"/>
	<path style="fill:#A00000;" d="M220.8,224.8l4,3.2c2.4-10.4,7.2-16.8,7.2-16.8S225.6,214.4,220.8,224.8z"/>
	<path style="fill:#A00000;" d="M254.4,241.6v-28.8C252,212,248,208,248,208s-4,4.8-6.4,4.8v28.8v1.6l12,9.6L254.4,241.6z"/>
</g>
<g>
	<path id="SVGCleanerId_0_1_" style="fill:#DA0000;" d="M227.2,210.4c-38.4,12-36,56-9.6,71.2C189.6,239.2,227.2,210.4,227.2,210.4z
		"/>
</g>
<g style="opacity:0.5;">
	<rect x="224" y="169.6" style="fill:#FFFFFF;" width="32.8" height="3.2"/>
	<polygon style="fill:#FFFFFF;" points="268.8,179.2 267.2,179.2 267.2,169.6 264,169.6 264,179.2 261.6,179.2 261.6,169.6 
		258.4,169.6 258.4,174.4 248.8,174.4 248.8,182.4 256.8,182.4 256.8,179.2 252,179.2 252,177.6 258.4,177.6 258.4,182.4 272,182.4 
		272,169.6 268.8,169.6 	"/>
	<rect x="228.8" y="179.2" style="fill:#FFFFFF;" width="3.2" height="3.2"/>
	<polygon style="fill:#FFFFFF;" points="227.2,177.6 234.4,177.6 234.4,182.4 247.2,182.4 247.2,174.4 239.2,174.4 239.2,177.6 
		244,177.6 244,179.2 237.6,179.2 237.6,174.4 224,174.4 224,182.4 227.2,182.4 	"/>
	<rect x="248.8" y="184.8" style="fill:#FFFFFF;" width="23.2" height="3.2"/>
	<rect x="224" y="184.8" style="fill:#FFFFFF;" width="23.2" height="3.2"/>
	<rect x="224" y="313.6" style="fill:#FFFFFF;" width="32.8" height="3.2"/>
	<polygon style="fill:#FFFFFF;" points="239.2,321.6 244,321.6 244,323.2 237.6,323.2 237.6,318.4 224,318.4 224,326.4 227.2,326.4 
		227.2,321.6 234.4,321.6 234.4,326.4 247.2,326.4 247.2,318.4 239.2,318.4 	"/>
	<polygon style="fill:#FFFFFF;" points="268.8,323.2 267.2,323.2 267.2,313.6 264,313.6 264,323.2 261.6,323.2 261.6,313.6 
		258.4,313.6 258.4,318.4 248.8,318.4 248.8,326.4 256.8,326.4 256.8,323.2 252,323.2 252,321.6 258.4,321.6 258.4,326.4 272,326.4 
		272,313.6 268.8,313.6 	"/>
	<rect x="228.8" y="323.2" style="fill:#FFFFFF;" width="3.2" height="3.2"/>
	<rect x="248.8" y="308" style="fill:#FFFFFF;" width="23.2" height="3.2"/>
	<rect x="224" y="308" style="fill:#FFFFFF;" width="23.2" height="3.2"/>
	<rect x="273.6" y="169.6" style="fill:#FFFFFF;" width="32.8" height="3.2"/>
	<polygon style="fill:#FFFFFF;" points="317.6,179.2 316,179.2 316,169.6 312.8,169.6 312.8,179.2 311.2,179.2 311.2,169.6 
		308,169.6 308,174.4 298.4,174.4 298.4,182.4 306.4,182.4 306.4,179.2 301.6,179.2 301.6,177.6 308,177.6 308,182.4 320.8,182.4 
		320.8,169.6 317.6,169.6 	"/>
	<rect x="278.4" y="179.2" style="fill:#FFFFFF;" width="3.2" height="3.2"/>
	<polygon style="fill:#FFFFFF;" points="276.8,177.6 283.2,177.6 283.2,182.4 296.8,182.4 296.8,174.4 288,174.4 288,177.6 
		293.6,177.6 293.6,179.2 286.4,179.2 286.4,174.4 273.6,174.4 273.6,182.4 276.8,182.4 	"/>
	<rect x="273.6" y="184.8" style="fill:#FFFFFF;" width="23.2" height="3.2"/>
	<rect x="298.4" y="184.8" style="fill:#FFFFFF;" width="23.2" height="3.2"/>
	<polygon style="fill:#FFFFFF;" points="288,321.6 293.6,321.6 293.6,323.2 286.4,323.2 286.4,318.4 273.6,318.4 273.6,326.4 
		276.8,326.4 276.8,321.6 283.2,321.6 283.2,326.4 296.8,326.4 296.8,318.4 288,318.4 	"/>
	<polygon style="fill:#FFFFFF;" points="317.6,323.2 316,323.2 316,313.6 312.8,313.6 312.8,323.2 311.2,323.2 311.2,313.6 
		308,313.6 308,318.4 298.4,318.4 298.4,326.4 306.4,326.4 306.4,323.2 301.6,323.2 301.6,321.6 308,321.6 308,326.4 320.8,326.4 
		320.8,313.6 317.6,313.6 	"/>
	<rect x="278.4" y="323.2" style="fill:#FFFFFF;" width="3.2" height="3.2"/>
	<rect x="273.6" y="313.6" style="fill:#FFFFFF;" width="32.8" height="3.2"/>
	<rect x="298.4" y="308" style="fill:#FFFFFF;" width="23.2" height="3.2"/>
	<rect x="273.6" y="308" style="fill:#FFFFFF;" width="23.2" height="3.2"/>
	<polygon style="fill:#FFFFFF;" points="128.8,177.6 135.2,177.6 135.2,182.4 148,182.4 148,174.4 140,174.4 140,177.6 145.6,177.6 
		145.6,179.2 138.4,179.2 138.4,174.4 125.6,174.4 125.6,182.4 128.8,182.4 	"/>
	<polygon style="fill:#FFFFFF;" points="169.6,179.2 168,179.2 168,169.6 164.8,169.6 164.8,179.2 163.2,179.2 163.2,169.6 
		160,169.6 160,174.4 150.4,174.4 150.4,182.4 158.4,182.4 158.4,179.2 153.6,179.2 153.6,177.6 160,177.6 160,182.4 172.8,182.4 
		172.8,169.6 169.6,169.6 	"/>
	<rect x="125.6" y="169.6" style="fill:#FFFFFF;" width="32.8" height="3.2"/>
	<rect x="130.4" y="179.2" style="fill:#FFFFFF;" width="3.2" height="3.2"/>
	<rect x="125.6" y="184.8" style="fill:#FFFFFF;" width="23.2" height="3.2"/>
	<rect x="150.4" y="184.8" style="fill:#FFFFFF;" width="23.2" height="3.2"/>
	<rect x="130.4" y="323.2" style="fill:#FFFFFF;" width="3.2" height="3.2"/>
	<polygon style="fill:#FFFFFF;" points="169.6,323.2 168,323.2 168,313.6 164.8,313.6 164.8,323.2 163.2,323.2 163.2,313.6 
		160,313.6 160,318.4 150.4,318.4 150.4,326.4 158.4,326.4 158.4,323.2 153.6,323.2 153.6,321.6 160,321.6 160,326.4 172.8,326.4 
		172.8,313.6 169.6,313.6 	"/>
	<rect x="125.6" y="313.6" style="fill:#FFFFFF;" width="32.8" height="3.2"/>
	<polygon style="fill:#FFFFFF;" points="140,321.6 145.6,321.6 145.6,323.2 138.4,323.2 138.4,318.4 125.6,318.4 125.6,326.4 
		128.8,326.4 128.8,321.6 135.2,321.6 135.2,326.4 148,326.4 148,318.4 140,318.4 	"/>
	<rect x="125.6" y="308" style="fill:#FFFFFF;" width="23.2" height="3.2"/>
	<rect x="150.4" y="308" style="fill:#FFFFFF;" width="23.2" height="3.2"/>
	<rect x="175.2" y="169.6" style="fill:#FFFFFF;" width="32.8" height="3.2"/>
	<rect x="180" y="179.2" style="fill:#FFFFFF;" width="3.2" height="3.2"/>
	<polygon style="fill:#FFFFFF;" points="219.2,179.2 217.6,179.2 217.6,169.6 214.4,169.6 214.4,179.2 212.8,179.2 212.8,169.6 
		209.6,169.6 209.6,174.4 199.2,174.4 199.2,182.4 208,182.4 208,179.2 202.4,179.2 202.4,177.6 209.6,177.6 209.6,182.4 
		222.4,182.4 222.4,169.6 219.2,169.6 	"/>
	<polygon style="fill:#FFFFFF;" points="178.4,177.6 184.8,177.6 184.8,182.4 197.6,182.4 197.6,174.4 189.6,174.4 189.6,177.6 
		194.4,177.6 194.4,179.2 188,179.2 188,174.4 175.2,174.4 175.2,182.4 178.4,182.4 	"/>
	<rect x="199.2" y="184.8" style="fill:#FFFFFF;" width="23.2" height="3.2"/>
	<rect x="175.2" y="184.8" style="fill:#FFFFFF;" width="23.2" height="3.2"/>
	<rect x="175.2" y="313.6" style="fill:#FFFFFF;" width="32.8" height="3.2"/>
	<polygon style="fill:#FFFFFF;" points="219.2,323.2 217.6,323.2 217.6,313.6 214.4,313.6 214.4,323.2 212.8,323.2 212.8,313.6 
		209.6,313.6 209.6,318.4 199.2,318.4 199.2,326.4 208,326.4 208,323.2 202.4,323.2 202.4,321.6 209.6,321.6 209.6,326.4 
		222.4,326.4 222.4,313.6 219.2,313.6 	"/>
	<polygon style="fill:#FFFFFF;" points="189.6,321.6 194.4,321.6 194.4,323.2 188,323.2 188,318.4 175.2,318.4 175.2,326.4 
		178.4,326.4 178.4,321.6 184.8,321.6 184.8,326.4 197.6,326.4 197.6,318.4 189.6,318.4 	"/>
	<rect x="180" y="323.2" style="fill:#FFFFFF;" width="3.2" height="3.2"/>
	<rect x="199.2" y="308" style="fill:#FFFFFF;" width="23.2" height="3.2"/>
	<rect x="175.2" y="308" style="fill:#FFFFFF;" width="23.2" height="3.2"/>
	<polygon style="fill:#FFFFFF;" points="466.4,179.2 464,179.2 464,169.6 460.8,169.6 460.8,179.2 459.2,179.2 459.2,169.6 
		456,169.6 456,174.4 446.4,174.4 446.4,182.4 454.4,182.4 454.4,179.2 449.6,179.2 449.6,177.6 456,177.6 456,182.4 469.6,182.4 
		469.6,169.6 466.4,169.6 	"/>
	<polygon style="fill:#FFFFFF;" points="424.8,177.6 431.2,177.6 431.2,182.4 444.8,182.4 444.8,174.4 436.8,174.4 436.8,177.6 
		441.6,177.6 441.6,179.2 434.4,179.2 434.4,174.4 421.6,174.4 421.6,182.4 424.8,182.4 	"/>
	<rect x="421.6" y="169.6" style="fill:#FFFFFF;" width="32.8" height="3.2"/>
	<rect x="426.4" y="179.2" style="fill:#FFFFFF;" width="3.2" height="3.2"/>
	<rect x="446.4" y="184.8" style="fill:#FFFFFF;" width="23.2" height="3.2"/>
	<rect x="421.6" y="184.8" style="fill:#FFFFFF;" width="23.2" height="3.2"/>
	<rect x="426.4" y="323.2" style="fill:#FFFFFF;" width="3.2" height="3.2"/>
	<polygon style="fill:#FFFFFF;" points="466.4,323.2 464,323.2 464,313.6 460.8,313.6 460.8,323.2 459.2,323.2 459.2,313.6 
		456,313.6 456,318.4 446.4,318.4 446.4,326.4 454.4,326.4 454.4,323.2 449.6,323.2 449.6,321.6 456,321.6 456,326.4 469.6,326.4 
		469.6,313.6 466.4,313.6 	"/>
	<rect x="421.6" y="313.6" style="fill:#FFFFFF;" width="32.8" height="3.2"/>
	<polygon style="fill:#FFFFFF;" points="436.8,321.6 441.6,321.6 441.6,323.2 434.4,323.2 434.4,318.4 421.6,318.4 421.6,326.4 
		424.8,326.4 424.8,321.6 431.2,321.6 431.2,326.4 444.8,326.4 444.8,318.4 436.8,318.4 	"/>
	<rect x="421.6" y="308" style="fill:#FFFFFF;" width="23.2" height="3.2"/>
	<rect x="446.4" y="308" style="fill:#FFFFFF;" width="23.2" height="3.2"/>
	<polygon style="fill:#FFFFFF;" points="474.4,177.6 480.8,177.6 480.8,182.4 493.6,182.4 493.6,174.4 485.6,174.4 485.6,177.6 
		490.4,177.6 490.4,179.2 484,179.2 484,174.4 471.2,174.4 471.2,182.4 474.4,182.4 	"/>
	<rect x="471.2" y="169.6" style="fill:#FFFFFF;" width="17.6" height="3.2"/>
	<rect x="476" y="179.2" style="fill:#FFFFFF;" width="3.2" height="3.2"/>
	<rect x="471.2" y="184.8" style="fill:#FFFFFF;" width="23.2" height="3.2"/>
	<polygon style="fill:#FFFFFF;" points="485.6,321.6 490.4,321.6 490.4,323.2 484,323.2 484,318.4 471.2,318.4 471.2,326.4 
		474.4,326.4 474.4,321.6 480.8,321.6 480.8,326.4 493.6,326.4 493.6,318.4 485.6,318.4 	"/>
	<rect x="476" y="323.2" style="fill:#FFFFFF;" width="3.2" height="3.2"/>
	<rect x="471.2" y="313.6" style="fill:#FFFFFF;" width="17.6" height="3.2"/>
	<rect x="471.2" y="308" style="fill:#FFFFFF;" width="23.2" height="3.2"/>
	<polygon style="fill:#FFFFFF;" points="326.4,177.6 332.8,177.6 332.8,182.4 345.6,182.4 345.6,174.4 337.6,174.4 337.6,177.6 
		342.4,177.6 342.4,179.2 336,179.2 336,174.4 323.2,174.4 323.2,182.4 326.4,182.4 	"/>
	<polygon style="fill:#FFFFFF;" points="367.2,179.2 365.6,179.2 365.6,169.6 362.4,169.6 362.4,179.2 360.8,179.2 360.8,169.6 
		357.6,169.6 357.6,174.4 348,174.4 348,182.4 356,182.4 356,179.2 350.4,179.2 350.4,177.6 357.6,177.6 357.6,182.4 370.4,182.4 
		370.4,169.6 367.2,169.6 	"/>
	<rect x="328" y="179.2" style="fill:#FFFFFF;" width="3.2" height="3.2"/>
	<rect x="323.2" y="169.6" style="fill:#FFFFFF;" width="32.8" height="3.2"/>
	<rect x="348" y="184.8" style="fill:#FFFFFF;" width="23.2" height="3.2"/>
	<rect x="323.2" y="184.8" style="fill:#FFFFFF;" width="23.2" height="3.2"/>
	<rect x="323.2" y="313.6" style="fill:#FFFFFF;" width="32.8" height="3.2"/>
	<polygon style="fill:#FFFFFF;" points="337.6,321.6 342.4,321.6 342.4,323.2 336,323.2 336,318.4 323.2,318.4 323.2,326.4 
		326.4,326.4 326.4,321.6 332.8,321.6 332.8,326.4 345.6,326.4 345.6,318.4 337.6,318.4 	"/>
	<rect x="328" y="323.2" style="fill:#FFFFFF;" width="3.2" height="3.2"/>
	<polygon style="fill:#FFFFFF;" points="367.2,323.2 365.6,323.2 365.6,313.6 362.4,313.6 362.4,323.2 360.8,323.2 360.8,313.6 
		357.6,313.6 357.6,318.4 348,318.4 348,326.4 356,326.4 356,323.2 350.4,323.2 350.4,321.6 357.6,321.6 357.6,326.4 370.4,326.4 
		370.4,313.6 367.2,313.6 	"/>
	<rect x="323.2" y="308" style="fill:#FFFFFF;" width="23.2" height="3.2"/>
	<rect x="348" y="308" style="fill:#FFFFFF;" width="23.2" height="3.2"/>
	<rect x="372" y="169.6" style="fill:#FFFFFF;" width="32.8" height="3.2"/>
	<polygon style="fill:#FFFFFF;" points="416.8,179.2 415.2,179.2 415.2,169.6 412,169.6 412,179.2 410.4,179.2 410.4,169.6 
		407.2,169.6 407.2,174.4 396.8,174.4 396.8,182.4 404.8,182.4 404.8,179.2 400,179.2 400,177.6 407.2,177.6 407.2,182.4 420,182.4 
		420,169.6 416.8,169.6 	"/>
	<rect x="377.6" y="179.2" style="fill:#FFFFFF;" width="3.2" height="3.2"/>
	<polygon style="fill:#FFFFFF;" points="375.2,177.6 382.4,177.6 382.4,182.4 395.2,182.4 395.2,174.4 387.2,174.4 387.2,177.6 
		392,177.6 392,179.2 385.6,179.2 385.6,174.4 372,174.4 372,182.4 375.2,182.4 	"/>
	<rect x="396.8" y="184.8" style="fill:#FFFFFF;" width="23.2" height="3.2"/>
	<rect x="372" y="184.8" style="fill:#FFFFFF;" width="23.2" height="3.2"/>
	<polygon style="fill:#FFFFFF;" points="387.2,321.6 392,321.6 392,323.2 385.6,323.2 385.6,318.4 372,318.4 372,326.4 375.2,326.4 
		375.2,321.6 382.4,321.6 382.4,326.4 395.2,326.4 395.2,318.4 387.2,318.4 	"/>
	<rect x="372" y="313.6" style="fill:#FFFFFF;" width="32.8" height="3.2"/>
	<polygon style="fill:#FFFFFF;" points="416.8,323.2 415.2,323.2 415.2,313.6 412,313.6 412,323.2 410.4,323.2 410.4,313.6 
		407.2,313.6 407.2,318.4 396.8,318.4 396.8,326.4 404.8,326.4 404.8,323.2 400,323.2 400,321.6 407.2,321.6 407.2,326.4 420,326.4 
		420,313.6 416.8,313.6 	"/>
	<rect x="377.6" y="323.2" style="fill:#FFFFFF;" width="3.2" height="3.2"/>
	<rect x="372" y="308" style="fill:#FFFFFF;" width="23.2" height="3.2"/>
	<rect x="396.8" y="308" style="fill:#FFFFFF;" width="23.2" height="3.2"/>
	<rect x="76" y="169.6" style="fill:#FFFFFF;" width="32.8" height="3.2"/>
	<rect x="80.8" y="179.2" style="fill:#FFFFFF;" width="3.2" height="3.2"/>
	<polygon style="fill:#FFFFFF;" points="79.2,177.6 85.6,177.6 85.6,182.4 99.2,182.4 99.2,174.4 91.2,174.4 91.2,177.6 96,177.6 
		96,179.2 88.8,179.2 88.8,174.4 76,174.4 76,182.4 79.2,182.4 	"/>
	<polygon style="fill:#FFFFFF;" points="120.8,179.2 118.4,179.2 118.4,169.6 116,169.6 116,179.2 113.6,179.2 113.6,169.6 
		110.4,169.6 110.4,174.4 100.8,174.4 100.8,182.4 108.8,182.4 108.8,179.2 104,179.2 104,177.6 110.4,177.6 110.4,182.4 124,182.4 
		124,169.6 120.8,169.6 	"/>
	<rect x="76" y="184.8" style="fill:#FFFFFF;" width="23.2" height="3.2"/>
	<rect x="100.8" y="184.8" style="fill:#FFFFFF;" width="23.2" height="3.2"/>
	<rect x="76" y="313.6" style="fill:#FFFFFF;" width="32.8" height="3.2"/>
	<polygon style="fill:#FFFFFF;" points="91.2,321.6 96,321.6 96,323.2 88.8,323.2 88.8,318.4 76,318.4 76,326.4 79.2,326.4 
		79.2,321.6 85.6,321.6 85.6,326.4 99.2,326.4 99.2,318.4 91.2,318.4 	"/>
	<rect x="80.8" y="323.2" style="fill:#FFFFFF;" width="3.2" height="3.2"/>
	<polygon style="fill:#FFFFFF;" points="120.8,323.2 118.4,323.2 118.4,313.6 116,313.6 116,323.2 113.6,323.2 113.6,313.6 
		110.4,313.6 110.4,318.4 100.8,318.4 100.8,326.4 108.8,326.4 108.8,323.2 104,323.2 104,321.6 110.4,321.6 110.4,326.4 124,326.4 
		124,313.6 120.8,313.6 	"/>
	<rect x="76" y="308" style="fill:#FFFFFF;" width="23.2" height="3.2"/>
	<rect x="100.8" y="308" style="fill:#FFFFFF;" width="23.2" height="3.2"/>
	<polygon style="fill:#FFFFFF;" points="21.6,179.2 20,179.2 20,169.6 16.8,169.6 16.8,179.2 15.2,179.2 15.2,169.6 12,169.6 
		12,174.4 2.4,174.4 2.4,182.4 10.4,182.4 10.4,179.2 5.6,179.2 5.6,177.6 12,177.6 12,182.4 24.8,182.4 24.8,169.6 21.6,169.6 	"/>
	<rect x="2.4" y="184.8" style="fill:#FFFFFF;" width="23.2" height="3.2"/>
	<polygon style="fill:#FFFFFF;" points="21.6,323.2 20,323.2 20,313.6 16.8,313.6 16.8,323.2 15.2,323.2 15.2,313.6 12,313.6 
		12,318.4 2.4,318.4 2.4,326.4 10.4,326.4 10.4,323.2 5.6,323.2 5.6,321.6 12,321.6 12,326.4 24.8,326.4 24.8,313.6 21.6,313.6 	"/>
	<rect x="2.4" y="308" style="fill:#FFFFFF;" width="23.2" height="3.2"/>
	<rect x="26.4" y="169.6" style="fill:#FFFFFF;" width="32.8" height="3.2"/>
	<polygon style="fill:#FFFFFF;" points="29.6,177.6 36.8,177.6 36.8,182.4 49.6,182.4 49.6,174.4 41.6,174.4 41.6,177.6 46.4,177.6 
		46.4,179.2 40,179.2 40,174.4 26.4,174.4 26.4,182.4 29.6,182.4 	"/>
	<rect x="32" y="179.2" style="fill:#FFFFFF;" width="3.2" height="3.2"/>
	<polygon style="fill:#FFFFFF;" points="71.2,179.2 69.6,179.2 69.6,169.6 66.4,169.6 66.4,179.2 64.8,179.2 64.8,169.6 61.6,169.6 
		61.6,174.4 51.2,174.4 51.2,182.4 59.2,182.4 59.2,179.2 54.4,179.2 54.4,177.6 61.6,177.6 61.6,182.4 74.4,182.4 74.4,169.6 
		71.2,169.6 	"/>
	<rect x="51.2" y="184.8" style="fill:#FFFFFF;" width="23.2" height="3.2"/>
	<rect x="26.4" y="184.8" style="fill:#FFFFFF;" width="23.2" height="3.2"/>
	<rect x="32" y="323.2" style="fill:#FFFFFF;" width="3.2" height="3.2"/>
	<rect x="26.4" y="313.6" style="fill:#FFFFFF;" width="32.8" height="3.2"/>
	<polygon style="fill:#FFFFFF;" points="41.6,321.6 46.4,321.6 46.4,323.2 40,323.2 40,318.4 26.4,318.4 26.4,326.4 29.6,326.4 
		29.6,321.6 36.8,321.6 36.8,326.4 49.6,326.4 49.6,318.4 41.6,318.4 	"/>
	<polygon style="fill:#FFFFFF;" points="71.2,323.2 69.6,323.2 69.6,313.6 66.4,313.6 66.4,323.2 64.8,323.2 64.8,313.6 61.6,313.6 
		61.6,318.4 51.2,318.4 51.2,326.4 59.2,326.4 59.2,323.2 54.4,323.2 54.4,321.6 61.6,321.6 61.6,326.4 74.4,326.4 74.4,313.6 
		71.2,313.6 	"/>
	<rect x="51.2" y="308" style="fill:#FFFFFF;" width="23.2" height="3.2"/>
	<rect x="26.4" y="308" style="fill:#FFFFFF;" width="23.2" height="3.2"/>
</g>
<g>
</g>
<g>
</g>
<g>
</g>
<g>
</g>
<g>
</g>
<g>
</g>
<g>
</g>
<g>
</g>
<g>
</g>
<g>
</g>
<g>
</g>
<g>
</g>
<g>
</g>
<g>
</g>
<g>
</g>
</svg>
