<?xml version="1.0" encoding="iso-8859-1"?>
<!-- Generator: Adobe Illustrator 19.0.0, SVG Export Plug-In . SVG Version: 6.00 Build 0)  -->
<svg version="1.1" id="Capa_1" xmlns="http://www.w3.org/2000/svg" xmlns:xlink="http://www.w3.org/1999/xlink" x="0px" y="0px"
	 viewBox="0 0 496 496" style="enable-background:new 0 0 496 496;" xml:space="preserve">
<path style="fill:#2B479D;" d="M496,369.6c0,27.2-21.6,46.4-48,46.4H48c-26.4,0-48-19.2-48-46.4V126.4C0,99.2,21.6,80,48,80h400
	c26.4,0,48,19.2,48,46.4V369.6z"/>
<path style="fill:#183889;" d="M48,80h400c26.4,0,48,19.2,48,46.4v243.2c0,27.2-24.8,46.4-51.2,46.4"/>
<g>
	<path style="fill:#042872;" d="M496,368.8c0,28.8-21.6,47.2-48,47.2H48c-26.4,0-48-20.8-48-48"/>
	<path style="fill:#042872;" d="M48,80h400c26.4,0,48,19.2,48,46.4V216"/>
</g>
<polygon style="fill:#F3F4F5;" points="496,200 296,200 296,80 200,80 200,200 0,200 0,296 200,296 200,416 296,416 296,296 
	496,296 "/>
<rect x="200" y="368" style="fill:#B2C2CE;" width="96" height="48"/>
<polygon style="fill:#CFD9E2;" points="296,80 200,80 200,200 189.6,200 303.2,296 496,296 496,200 296,200 "/>
<g>
	<polygon style="fill:#B2C2CE;" points="296,155.2 296,80 200,80 200,126.4 	"/>
	<polygon style="fill:#B2C2CE;" points="496,214.4 496,200 443.2,200 	"/>
</g>
<polygon style="fill:#ED2A3D;" points="496,216 280,216 280,80 216,80 216,216 0,216 0,280 216,280 216,416 280,416 280,280 
	496,280 "/>
<g>
	<rect x="216" y="368" style="fill:#D31E38;" width="64" height="48"/>
	<polygon style="fill:#D31E38;" points="280,80 216,80 216,216 208.8,216 284,280 496,280 496,216 280,216 	"/>
</g>
<g>
</g>
<g>
</g>
<g>
</g>
<g>
</g>
<g>
</g>
<g>
</g>
<g>
</g>
<g>
</g>
<g>
</g>
<g>
</g>
<g>
</g>
<g>
</g>
<g>
</g>
<g>
</g>
<g>
</g>
</svg>
