<?xml version="1.0" encoding="iso-8859-1"?>
<!-- Generator: Adobe Illustrator 19.0.0, SVG Export Plug-In . SVG Version: 6.00 Build 0)  -->
<svg version="1.1" id="Capa_1" xmlns="http://www.w3.org/2000/svg" xmlns:xlink="http://www.w3.org/1999/xlink" x="0px" y="0px"
	 viewBox="0 0 496 496" style="enable-background:new 0 0 496 496;" xml:space="preserve">
<path style="fill:#F5F8FC;" d="M496,369.6c0,27.2-21.6,48.8-48,48.8H48c-26.4,0-48-21.6-48-48.8V126.4c0-27.2,21.6-48.8,48-48.8h400
	c26.4,0,48,21.6,48,48.8V369.6z"/>
<path style="fill:#E2ECF7;" d="M48,77.6h400c26.4,0,48,21.6,48,48.8v243.2c0,27.2-21.6,48.8-48,48.8"/>
<g>
	<path style="fill:#D4E5F4;" d="M48,77.6h400c26.4,0,48,21.6,48,48.8v88.8"/>
	<path style="fill:#D4E5F4;" d="M496,369.6c0,27.2-21.6,48.8-48,48.8H48c-26.4,0-48-21.6-48-48.8"/>
</g>
<path style="fill:#EE4135;" d="M254.4,148c0,0-31.2,32-74.4,32c-12.8,0-24-7.2-18.4-24c-7.2,8.8-8,20-8,21.6s-1.6,17.6,28,17.6
	s71.2-18.4,84-35.2L254.4,148"/>
<path style="fill:#C61510;" d="M180,180c-12.8,0-24-7.2-18.4-24c-3.2,4-5.6,8.8-6.4,12.8l31.2,26.4c29.6-1.6,67.2-19.2,80-35.2
	l-11.2-11.2C254.4,148,223.2,180,180,180z"/>
<path style="fill:#224290;" d="M196.8,212.8v16.8c28-2.4,120-37.6,120-75.2c0-14.4-14.4-24-25.6-28.8c0,0,15.2,8,15.2,21.6
	S285.6,193.6,196.8,212.8"/>
<path style="fill:#018442;" d="M286.4,218.4c-18.4,16-64.8,38.4-114.4,38.4c-45.6,0-49.6-15.2-53.6-20.8c0,0-0.8,35.2,59.2,35.2
	s113.6-31.2,120.8-40.8L286.4,218.4"/>
<path style="fill:#06542B;" d="M242.4,243.2l13.6,11.2c23.2-8.8,39.2-20,42.4-24.8l-12-11.2C277.6,226.4,262.4,236,242.4,243.2z"/>
<path style="fill:#EE4135;" d="M211.2,288.8C252,285.6,376,245.6,360.8,176c0,0,7.2,8.8,7.2,21.6c0,60-104,108.8-156.8,108.8V288.8"
	/>
<path style="fill:#C61510;" d="M276,272l14.4,12c40.8-20,77.6-51.2,77.6-86.4c0-12.8-7.2-21.6-7.2-21.6
	C370.4,220.8,322.4,253.6,276,272z"/>
<path style="fill:#018442;" d="M376.8,264c-29.6,76.8-91.2,88-112.8,88v18.4C332.8,370.4,376.8,307.2,376.8,264"/>
<path style="fill:#06542B;" d="M336.8,323.2l10.4,8.8c19.2-20.8,29.6-47.2,29.6-68.8C366.4,291.2,352,310.4,336.8,323.2z"/>
<path style="fill:#224290;" d="M314.4,294.4c-25.6,17.6-80.8,32.8-130.4,32.8c-21.6,0-37.6-7.2-43.2-12c0,0,11.2,26.4,64.8,26.4
	c71.2,0,120-30.4,123.2-35.2L314.4,294.4"/>
<g>
</g>
<g>
</g>
<g>
</g>
<g>
</g>
<g>
</g>
<g>
</g>
<g>
</g>
<g>
</g>
<g>
</g>
<g>
</g>
<g>
</g>
<g>
</g>
<g>
</g>
<g>
</g>
<g>
</g>
</svg>
