<?xml version="1.0" encoding="iso-8859-1"?>
<!-- Generator: Adobe Illustrator 19.0.0, SVG Export Plug-In . SVG Version: 6.00 Build 0)  -->
<svg version="1.1" id="Capa_1" xmlns="http://www.w3.org/2000/svg" xmlns:xlink="http://www.w3.org/1999/xlink" x="0px" y="0px"
	 viewBox="0 0 496 496" style="enable-background:new 0 0 496 496;" xml:space="preserve">
<path style="fill:#E70013;" d="M496,369.6c0,27.2-21.6,48.8-48,48.8H48c-26.4,0-48-21.6-48-48.8V126.4c0-27.2,21.6-48.8,48-48.8h400
	c26.4,0,48,21.6,48,48.8V369.6z"/>
<path style="fill:#D30B0B;" d="M48,77.6h400c26.4,0,48,21.6,48,48.8v243.2c0,27.2-21.6,48.8-48,48.8"/>
<g>
	<path style="fill:#C10000;" d="M48,77.6h400c26.4,0,48,21.6,48,48.8v88.8"/>
	<path style="fill:#C10000;" d="M496,369.6c0,27.2-21.6,48.8-48,48.8H48c-26.4,0-48-21.6-48-48.8"/>
</g>
<g>
	<g>
		<path style="fill:#F7E22B;" d="M201.6,268.8c1.6-4,4-7.2,6.4-11.2c0.8-1.6,8-9.6,8-10.4c0,0-12-18.4-13.6-20.8
			c-3.2-6.4-8-17.6-9.6-24.8c-5.6-18.4-8.8-37.6-8.8-61.6h-17.6v9.6c0,21.6,7.2,40.8,13.6,56c4,9.6,21.6,36,28.8,40.8
			c-4,6.4-11.2,12-16,19.2c-4,6.4-10.4,14.4-12.8,22.4c-6.4,16-14.4,34.4-14.4,56.8v7.2c0,1.6,0,2.4,0.8,4h16.8v-2.4
			c0-24,4-41.6,8.8-60C193.6,284.8,197.6,276,201.6,268.8z"/>
		<path style="fill:#F7E22B;" d="M230.4,140.8v13.6c0,16.8,1.6,32.8,2.4,48.8c0.8,6.4,6.4,45.6,6.4,45.6
			c-6.4,22.4-9.6,66.4-9.6,94.4V356h16.8V249.6l0.8-108.8H230.4z"/>
		<path style="fill:#F7E22B;" d="M216,269.6c1.6-4,2.4-7.2,4-11.2c0.8-1.6,4.8-10.4,4.8-10.4s-7.2-18.4-8.8-21.6
			c-2.4-7.2-4.8-15.2-6.4-24c-0.8-8-3.2-16.8-4-25.6c-0.8-8.8-1.6-18.4-1.6-28.8v-8h-16.8v4c0,18.4,4.8,43.2,9.6,56.8
			c3.2,8.8,5.6,16.8,9.6,24c4,8,8,14.4,12,21.6c-8,15.2-14.4,24.8-20.8,43.2c-4,12.8-10.4,36.8-10.4,53.6v11.2h16v-9.6
			c0-15.2,2.4-41.6,5.6-53.6C212,284.8,213.6,277.6,216,269.6z"/>
		<path style="fill:#F7E22B;" d="M286.4,140.8h-16V160c0,15.2-0.8,32-3.2,45.6c-1.6,7.2-1.6,15.2-3.2,21.6
			c-0.8,4.8-3.2,18.4-3.2,20.8c0,0,3.2,19.2,4,20c1.6,4,2.4,16,2.4,21.6c1.6,14.4,3.2,28.8,3.2,45.6V356h16c0-34.4-8.8-85.6-20-108
			C277.6,225.6,286.4,174.4,286.4,140.8z"/>
		<path style="fill:#F7E22B;" d="M228.8,209.6c-1.6-12-3.2-29.6-3.2-42.4V140h-16c0,33.6,8.8,85.6,20,107.2c-12,22.4-20,73.6-20,108
			h16v-24c0-15.2,2.4-28.8,3.2-42.4c0.8-8,4-33.6,5.6-40C235.2,246.4,230.4,216,228.8,209.6z"/>
		<path style="fill:#F7E22B;" d="M204,248c-2.4-3.2-6.4-5.6-8.8-8.8c-3.2-3.2-5.6-6.4-8-10.4c-5.6-7.2-9.6-14.4-13.6-22.4
			C166.4,192,160,168.8,160,148v-7.2h-16.8v13.6c0,19.2,9.6,44,16.8,56.8c4.8,8,9.6,14.4,16,20.8c4,4,16,14.4,20.8,16
			c-0.8,0.8-9.6,6.4-11.2,8c-4,3.2-7.2,5.6-10.4,8.8c-6.4,6.4-12,14.4-16.8,22.4c-8.8,16-16,36.8-16,61.6v7.2h16.8v-8.8
			c0-20,7.2-44,13.6-57.6C179.2,276.8,193.6,255.2,204,248z"/>
		<path style="fill:#F7E22B;" d="M260,230.4c1.6-8,2.4-16.8,3.2-24.8c0.8-7.2,1.6-18.4,1.6-25.6c0-8.8,0.8-17.6,0.8-27.2v-12h-16.8
			l0.8,108.8V356h16.8c0-34.4-1.6-74.4-8-102.4C256,244,257.6,240,260,230.4z"/>
		<path style="fill:#F7E22B;" d="M277.6,247.2c4-7.2,8-14.4,12-22.4c4-7.2,6.4-16.8,9.6-25.6c4.8-16.8,9.6-37.6,9.6-60H292v9.6
			c0,8.8-0.8,20-1.6,27.2c-0.8,4-0.8,8.8-1.6,12.8c-0.8,3.2-2.4,8.8-2.4,12c-1.6,8-4,16-6.4,23.2c-0.8,3.2-8.8,20.8-8.8,20.8
			s8,18.4,8.8,21.6c2.4,8,4.8,15.2,6.4,24c4,14.4,5.6,38.4,5.6,56v6.4h16v-6.4c0-22.4-4.8-39.2-9.6-56.8
			C293.6,274.4,285.6,262.4,277.6,247.2z"/>
		<path style="fill:#F7E22B;" d="M304,267.2c-4.8-7.2-12-13.6-16-20c8.8-5.6,24.8-32,29.6-43.2c8-18.4,12.8-34.4,12.8-60.8v-0.8
			c0-1.6,0-1.6-0.8-2.4h-16.8v1.6c0,22.4-3.2,42.4-8.8,60c-2.4,8-6.4,17.6-9.6,24.8c-1.6,3.2-4,7.2-6.4,10.4
			c-0.8,1.6-7.2,9.6-7.2,10.4s6.4,8.8,7.2,9.6c2.4,4,4,7.2,6.4,11.2c4,7.2,8,16.8,10.4,24.8c4.8,20,8.8,36,8.8,61.6h17.6v-9.6
			c0-23.2-7.2-40-13.6-56.8C314.4,282.4,308,273.6,304,267.2z"/>
		<path style="fill:#F7E22B;" d="M336.8,285.6c-4-7.2-11.2-16-16.8-21.6c-4-4-20.8-16-21.6-16.8c4.8-1.6,17.6-12.8,21.6-16
			c7.2-7.2,11.2-13.6,16-21.6c8-13.6,16-39.2,16-60.8v-8h-16v8c0,20.8-6.4,44-13.6,58.4c-4,8-8,16-13.6,22.4c-2.4,3.2-4.8,6.4-8,9.6
			c-2.4,3.2-6.4,5.6-8.8,9.6c10.4,7.2,24,28.8,30.4,41.6C328.8,304,336,328,336,348v8h16.8v-10.4
			C353.6,321.6,344.8,300.8,336.8,285.6z"/>
	</g>
	<g>
		<path style="fill:#FCC015;" d="M277.6,247.2c4-7.2,8-14.4,12-22.4c4-7.2,6.4-16.8,9.6-25.6c4.8-16.8,9.6-37.6,9.6-60H292v9.6
			c0,8.8-0.8,20-1.6,27.2c-0.8,4-0.8,8.8-1.6,12.8c-0.8,3.2-2.4,8.8-2.4,12c-1.6,8-4,16-6.4,23.2c-0.8,3.2-8.8,20.8-8.8,20.8
			s8,18.4,8.8,21.6c2.4,8,4.8,15.2,6.4,24c4,14.4,5.6,38.4,5.6,56v6.4h16v-6.4c0-22.4-4.8-39.2-9.6-56.8
			C293.6,274.4,285.6,262.4,277.6,247.2z"/>
		<path style="fill:#FCC015;" d="M304,267.2c-4.8-7.2-12-13.6-16-20c8.8-5.6,24.8-32,29.6-43.2c8-18.4,12.8-34.4,12.8-60.8v-0.8
			c0-1.6,0-1.6-0.8-2.4h-16.8v1.6c0,22.4-3.2,42.4-8.8,60c-2.4,8-6.4,17.6-9.6,24.8c-1.6,3.2-4,7.2-6.4,10.4
			c-0.8,1.6-7.2,9.6-7.2,10.4s6.4,8.8,7.2,9.6c2.4,4,4,7.2,6.4,11.2c4,7.2,8,16.8,10.4,24.8c4.8,20,8.8,36,8.8,61.6h17.6v-9.6
			c0-23.2-7.2-40-13.6-56.8C314.4,282.4,308,273.6,304,267.2z"/>
		<path style="fill:#FCC015;" d="M336.8,285.6c-4-7.2-11.2-16-16.8-21.6c-4-4-20.8-16-21.6-16.8c4.8-1.6,17.6-12.8,21.6-16
			c7.2-7.2,11.2-13.6,16-21.6c8-13.6,16-39.2,16-60.8v-8h-16v8c0,20.8-6.4,44-13.6,58.4c-4,8-8,16-13.6,22.4c-2.4,3.2-4.8,6.4-8,9.6
			c-2.4,3.2-6.4,5.6-8.8,9.6c10.4,7.2,24,28.8,30.4,41.6C328.8,304,336,328,336,348v8h16.8v-10.4
			C353.6,321.6,344.8,300.8,336.8,285.6z"/>
		<path style="fill:#FCC015;" d="M261.6,248c0.8,3.2,3.2,19.2,4,20c1.6,4,2.4,16,2.4,21.6c1.6,14.4,3.2,28.8,3.2,45.6V356h16
			c0-34.4-8.8-84.8-20-107.2h-5.6V248z"/>
		<path style="fill:#FCC015;" d="M257.6,248h-7.2v0.8v106.4h16.8c0-34.4-1.6-74.4-8-102.4C257.6,251.2,257.6,249.6,257.6,248z"/>
		<path style="fill:#FCC015;" d="M245.6,248h-7.2l0,0c-6.4,22.4-9.6,66.4-9.6,94.4v12.8h16.8V248.8V248z"/>
		<path style="fill:#FCC015;" d="M229.6,248c-12,22.4-20,73.6-20,107.2h16v-24c0-15.2,2.4-28.8,3.2-42.4c0.8-8,4-33.6,5.6-40V248
			L229.6,248L229.6,248z"/>
		<path style="fill:#FCC015;" d="M198.4,290.4c-4,12.8-10.4,36.8-10.4,53.6v11.2h16v-9.6c0-15.2,2.4-41.6,5.6-53.6
			c2.4-8,4-15.2,6.4-23.2c1.6-4,2.4-7.2,4-11.2c0.8-1.6,4.8-10.4,4.8-10.4h-7.2C210.4,263.2,204,272,198.4,290.4z"/>
		<path style="fill:#FCC015;" d="M192,267.2c-4,6.4-10.4,14.4-12.8,22.4c-6.4,16-14.4,34.4-14.4,56.8v5.6c0,1.6,0,2.4,0.8,4h16.8
			v-2.4c0-24,4-41.6,8.8-60c2.4-8,6.4-17.6,9.6-24c1.6-4,4-7.2,6.4-11.2c0.8-1.6,8-9.6,8-10.4H208C203.2,253.6,196.8,260,192,267.2z
			"/>
		<path style="fill:#FCC015;" d="M185.6,255.2c-4,3.2-7.2,5.6-10.4,8.8c-6.4,6.4-12,14.4-16.8,22.4c-8.8,16-16,36.8-16,61.6v7.2
			h16.8v-8.8c0-20,7.2-44,13.6-57.6c6.4-12,20-34.4,30.4-41.6H196C194.4,249.6,187.2,254.4,185.6,255.2z"/>
	</g>
</g>
<g>
</g>
<g>
</g>
<g>
</g>
<g>
</g>
<g>
</g>
<g>
</g>
<g>
</g>
<g>
</g>
<g>
</g>
<g>
</g>
<g>
</g>
<g>
</g>
<g>
</g>
<g>
</g>
<g>
</g>
</svg>
