<?xml version="1.0" encoding="iso-8859-1"?>
<!-- Generator: Adobe Illustrator 19.0.0, SVG Export Plug-In . SVG Version: 6.00 Build 0)  -->
<svg version="1.1" id="Capa_1" xmlns="http://www.w3.org/2000/svg" xmlns:xlink="http://www.w3.org/1999/xlink" x="0px" y="0px"
	 viewBox="0 0 496 496" style="enable-background:new 0 0 496 496;" xml:space="preserve">
<path style="fill:#2B479D;" d="M496,369.6c0,27.2-21.6,48.8-48,48.8H48c-26.4,0-48-21.6-48-48.8V126.4c0-27.2,21.6-48.8,48-48.8h400
	c26.4,0,48,21.6,48,48.8V369.6z"/>
<path style="fill:#183887;" d="M48,77.6h400c26.4,0,48,21.6,48,48.8v243.2c0,27.2-21.6,48.8-48,48.8"/>
<g>
	<path style="fill:#0B2F77;" d="M48,77.6h400c26.4,0,48,21.6,48,48.8v88.8"/>
	<path style="fill:#0B2F77;" d="M496,369.6c0,27.2-21.6,48.8-48,48.8H48c-26.4,0-48-21.6-48-48.8"/>
</g>
<g>
	<path style="fill:#DAEAF2;" d="M276,131.2C276.8,131.2,276.8,131.2,276,131.2c0-0.8,2.4-3.2,2.4-4l0.8-0.8c0,0,0-0.8,0.8-0.8l0,0
		h0.8c0.8,0,3.2-0.8,4.8-1.6l0,0c0-0.8-0.8-2.4-1.6-3.2l0,0c-0.8,0-2.4,0.8-3.2,0.8c0,0,0,0-0.8,0s-0.8,0-1.6,0
		c0,0.8-2.4,1.6-3.2,2.4c0,0,0,0,0,0.8C276,127.2,276,128.8,276,131.2z"/>
	<path style="fill:#DAEAF2;" d="M298.4,136c0-0.8,2.4-2.4,2.4-4c0-0.8-0.8-2.4-1.6-3.2l0,0l0,0c-0.8,0-1.6,0-1.6,0.8
		c-1.6,0-2.4,0.8-4,0.8C292.8,130.4,297.6,136,298.4,136z"/>
	<path style="fill:#DAEAF2;" d="M274.4,180l0.8-0.8c2.4-2.4,4,0.8,6.4,0l0,0l0,0l0,0c-0.8,0-0.8-0.8-1.6-0.8c-1.6-0.8-2.4-1.6-4-1.6
		C275.2,178.4,275.2,179.2,274.4,180L274.4,180L274.4,180z"/>
	<path style="fill:#DAEAF2;" d="M312.8,196c0,0,0.8,0,0.8-0.8c0-0.8-0.8-7.2-1.6-8.8c0,0.8-0.8,0.8-0.8,1.6c0,0.8,0,2.4,0,3.2
		C312.8,192.8,312.8,194.4,312.8,196z"/>
	<path style="fill:#DAEAF2;" d="M301.6,289.6c0.8-0.8,1.6-4.8,1.6-5.6c0-0.8-0.8-1.6-0.8-2.4s-0.8-1.6-0.8-1.6
		c-0.8,0.8-1.6,1.6-2.4,2.4s-0.8,1.6-0.8,2.4s-1.6,4-1.6,4.8s1.6,1.6,2.4,2.4C298.4,291.2,300.8,289.6,301.6,289.6z"/>
	<path style="fill:#DAEAF2;" d="M360,124c2.4,4,5.6,7.2,8,11.2c2.4,2.4,4,5.6,6.4,7.2c1.6,1.6,4,3.2,5.6,4.8s4,2.4,5.6,4l0,0
		c0-2.4-1.6-5.6-1.6-8c-0.8-2.4-1.6-4-1.6-6.4c-0.8-1.6-1.6-4-3.2-5.6c-0.8-0.8-1.6-2.4-1.6-3.2c-0.8-1.6-2.4-2.4-3.2-4
		c-1.6-1.6-3.2-4-5.6-5.6s-4.8-4-8-5.6c-0.8-0.8-1.6-1.6-3.2-2.4s-3.2-1.6-4.8-2.4c-0.8-0.8-2.4-1.6-3.2-1.6
		c1.6,3.2,3.2,6.4,4.8,8.8C356.8,118.4,358.4,121.6,360,124z"/>
</g>
<path id="SVGCleanerId_0" style="fill:#DAEAF2;" d="M112,149.6c1.6-0.8,2.4-1.6,4-1.6c11.2-6.4,20.8-16.8,26.4-28
	c1.6-3.2,2.4-5.6,4-8.8c0-0.8,0.8-1.6,0.8-2.4c-0.8,0.8-2.4,0.8-3.2,1.6c-3.2,1.6-5.6,3.2-8.8,4.8c-8.8,6.4-16.8,14.4-21.6,24.8
	c-1.6,3.2-2.4,7.2-2.4,11.2C111.2,149.6,111.2,149.6,112,149.6z"/>
<path style="fill:#DAEAF2;" d="M388,140.8c0.8,2.4,0.8,4.8,1.6,7.2c0,3.2,0.8,7.2,0.8,10.4c0,1.6,0,3.2,0.8,5.6l0,0l0,0h-0.8l0,0
	l0,0c0,0,0,0,0-0.8l0,0c-1.6-1.6-2.4-3.2-4-4c-0.8-0.8-2.4-2.4-3.2-3.2c-4.8-4.8-10.4-8.8-16-12.8c-0.8-0.8-2.4-1.6-3.2-2.4
	c-0.8-0.8-1.6-0.8-1.6-1.6v0.8c0,0.8,0.8,0.8,0.8,1.6c0.8,1.6,1.6,3.2,2.4,4c1.6,2.4,4,4.8,6.4,7.2c3.2,4,7.2,8,10.4,12
	c1.6,1.6,3.2,3.2,4.8,4.8c2.4,2.4,4.8,4.8,8,6.4c1.6,0.8,3.2,2.4,4.8,4l0,0l0,0l0,0c0-1.6,0.8-3.2,0.8-4c0-0.8,0.8-3.2,0.8-4
	c0-1.6,0.8-3.2,0.8-4.8c0-5.6,0-11.2-0.8-16.8c-0.8-1.6-1.6-4-1.6-5.6c-2.4-6.4-4.8-14.4-10.4-18.4c-1.6-0.8-2.4-1.6-4-2.4
	c0.8,2.4,1.6,5.6,2.4,8C386.4,134.4,387.2,137.6,388,140.8z"/>
<path id="SVGCleanerId_1" style="fill:#DAEAF2;" d="M97.6,181.6c0.8,0,7.2-5.6,8-6.4c1.6-1.6,3.2-3.2,4.8-4c2.4-2.4,4.8-4.8,6.4-7.2
	c4-4,8-8.8,12-13.6c0.8-1.6,6.4-8.8,6.4-10.4c0,0-7.2,4.8-8,5.6c-2.4,1.6-4,3.2-6.4,4.8c-2.4,1.6-4.8,4-6.4,5.6s-3.2,2.4-4,4
	c-1.6,1.6-3.2,4-4.8,4.8l0,0l0,0l0,0V164c0-0.8,0-2.4,0-3.2c0-1.6,0-3.2,0-4.8c0-2.4,0.8-4.8,0.8-6.4c0-2.4,0.8-4,1.6-6.4
	c0.8-3.2,1.6-6.4,3.2-9.6c0-0.8,2.4-7.2,2.4-8c-1.6,0.8-2.4,2.4-4,4c-0.8,0.8-1.6,1.6-2.4,2.4c-2.4,4-5.6,8-7.2,12
	c-0.8,1.6-1.6,3.2-2.4,4.8c-0.8,3.2-0.8,5.6-1.6,8.8c0,3.2-0.8,7.2-0.8,10.4C96,172.8,97.6,177.6,97.6,181.6z"/>
<path id="SVGCleanerId_2" style="fill:#DAEAF2;" d="M87.2,210.4c0.8,2.4,1.6,5.6,3.2,8c0.8,1.6,1.6,3.2,1.6,4.8l0,0
	c0-0.8,0.8-1.6,0.8-2.4c1.6-3.2,3.2-6.4,5.6-9.6s4.8-7.2,6.4-10.4c1.6-3.2,3.2-5.6,4.8-8.8c0.8-2.4,2.4-4,3.2-6.4
	c0-0.8,0.8-1.6,0.8-2.4c1.6-4,3.2-8,4.8-12v-0.8l0,0c-0.8,0.8-1.6,1.6-2.4,2.4c-1.6,1.6-3.2,2.4-4.8,4.8c-4.8,5.6-9.6,10.4-13.6,16
	c-0.8,1.6-1.6,2.4-3.2,4c-0.8,0.8-1.6,1.6-2.4,3.2l0,0l0,0V200c0-3.2,0-7.2,0-10.4c0-3.2-0.8-7.2-0.8-10.4c0-0.8,0-1.6,0-2.4
	c-0.8-3.2-0.8-6.4-0.8-8.8c0-4,0-7.2,0-10.4c0-1.6,0-3.2,0-4c-2.4,3.2-4.8,7.2-5.6,11.2c-0.8,2.4-0.8,4.8-1.6,7.2c0,1.6,0,2.4,0,4
	s0,2.4-0.8,4c0,1.6,0,4,0.8,5.6C83.2,194.4,84.8,202.4,87.2,210.4z"/>
<path style="fill:#DAEAF2;" d="M394.4,187.2c-0.8-0.8-1.6-1.6-2.4-2.4c-1.6-1.6-3.2-3.2-4-5.6c-1.6-1.6-2.4-2.4-4-4s-3.2-3.2-4.8-4
	c-0.8-0.8-0.8-0.8-1.6-1.6l0,0c0,0,0,0.8,0,1.6c1.6,4,3.2,8,4.8,12.8c0.8,3.2,2.4,5.6,4,8c3.2,6.4,7.2,12.8,10.4,18.4
	c1.6,3.2,3.2,5.6,5.6,8.8c0.8,1.6,1.6,2.4,1.6,4l0,0v-0.8c0-0.8,0-1.6,0-2.4l0,0v0.8l0,0l0,0c0,0,0-0.8,0.8-1.6
	c0.8-1.6,1.6-4,2.4-5.6c0.8-2.4,1.6-5.6,2.4-8s0.8-4.8,1.6-6.4c0-1.6,0.8-3.2,0.8-5.6c0.8-3.2,0.8-6.4,0.8-9.6c0-1.6,0-3.2,0-4.8
	c0-3.2-0.8-5.6-0.8-8.8c0-0.8-0.8-2.4-0.8-3.2c0-0.8-0.8-2.4-0.8-3.2c-0.8-1.6-1.6-2.4-1.6-4c-0.8-1.6-1.6-3.2-2.4-4.8
	c-0.8-0.8-0.8-1.6-1.6-2.4c0,3.2,0,7.2,0,10.4c0,2.4,0,4.8,0,7.2c-0.8,3.2-0.8,6.4-1.6,9.6c-0.8,3.2-1.6,7.2-1.6,10.4
	c0,3.2,0,6.4,0,8.8l0,0c0,0-3.2-4-3.2-4.8C397.6,192,396,189.6,394.4,187.2z"/>
<path id="SVGCleanerId_3" style="fill:#DAEAF2;" d="M75.2,221.6c0.8,1.6,0.8,4,1.6,5.6c0.8,3.2,1.6,5.6,2.4,8c0,0.8,0.8,2.4,1.6,3.2
	c0.8,1.6,1.6,2.4,2.4,4c1.6,2.4,2.4,4.8,4,7.2s4,5.6,5.6,8c0.8,0,0.8,0,0.8-0.8c1.6-4,3.2-8,5.6-12c0.8-1.6,0.8-2.4,1.6-4
	c1.6-4.8,4-9.6,5.6-14.4c0.8-1.6,0.8-4,1.6-5.6c0.8-2.4,1.6-5.6,2.4-8c0-1.6,0-4,0.8-5.6c0-1.6,0.8-4,0-5.6c0,0.8-1.6,2.4-1.6,2.4
	c-1.6,2.4-3.2,5.6-4.8,8c-0.8,1.6-1.6,3.2-2.4,4.8c-3.2,5.6-5.6,11.2-7.2,17.6c-0.8,1.6-0.8,3.2-1.6,4.8l0,0l0,0l0,0
	c-0.8-3.2-2.4-6.4-3.2-9.6c-0.8-1.6-0.8-3.2-1.6-5.6c-1.6-3.2-2.4-6.4-4-9.6c-0.8-2.4-1.6-4.8-2.4-7.2c-0.8-1.6-1.6-3.2-2.4-5.6
	c0-0.8-0.8-2.4-0.8-3.2c-0.8-0.8-0.8-1.6-1.6-2.4c-0.8-1.6-0.8-3.2-2.4-4.8c0,3.2-0.8,7.2-0.8,10.4c0,2.4,0,4.8,0,7.2
	c0,1.6,0,3.2,0.8,4.8C74.4,218.4,74.4,220,75.2,221.6z"/>
<g>
	<path style="fill:#DAEAF2;" d="M408.8,225.6c-0.8,4-2.4,7.2-4,11.2c-0.8,0.8-0.8,2.4-1.6,4l0,0l0,0c-0.8-1.6-0.8-3.2-1.6-4.8
		c-1.6-4-2.4-8.8-4-12.8c-0.8-2.4-2.4-4.8-3.2-6.4c-1.6-3.2-2.4-5.6-4-8s-3.2-4-4.8-5.6l0,0l0,0c0,0,0,0,0,0.8
		c-0.8,3.2,0,6.4,0.8,8.8c0,1.6,0.8,3.2,0.8,4.8c0.8,4,1.6,7.2,3.2,11.2c0.8,1.6,1.6,3.2,2.4,5.6c1.6,5.6,4,10.4,6.4,15.2
		c0.8,1.6,1.6,4,2.4,5.6s0.8,3.2,1.6,4l0,0c2.4-3.2,4.8-6.4,7.2-9.6c0.8-0.8,0.8-1.6,1.6-2.4c4-6.4,7.2-13.6,8.8-21.6
		c0-1.6,0.8-2.4,0.8-4c0.8-4.8,0.8-10.4,0.8-16c0-2.4,0-4.8-0.8-7.2c0-0.8,0-2.4,0-3.2c-0.8,0.8-0.8,2.4-1.6,3.2
		c-2.4,4-3.2,8.8-5.6,13.6c-0.8,2.4-2.4,5.6-3.2,8C410.4,221.6,409.6,223.2,408.8,225.6z"/>
	<path style="fill:#DAEAF2;" d="M424,238.4c0,0.8-1.6,2.4-1.6,2.4c-2.4,3.2-4,5.6-6.4,8.8c-4,4.8-6.4,10.4-10.4,15.2
		c-4,4.8-8,9.6-12,15.2l0,0l0,0l0,0l0,0l0,0c0-0.8,0-0.8,0-1.6c0-2.4,0-4.8,0-7.2c0-0.8,0-1.6,0-2.4c0-5.6-0.8-11.2-1.6-16.8
		c0-1.6-0.8-2.4-0.8-4c-0.8-2.4-1.6-4.8-2.4-8c-0.8-1.6-0.8-3.2-1.6-4.8c0-0.8,0-1.6-0.8-2.4c0,1.6-0.8,3.2-0.8,4
		c-0.8,3.2-0.8,6.4-1.6,9.6c0,2.4,0,4.8,0,7.2c0,3.2,0,6.4,0,9.6c0,2.4,0,4,0.8,6.4c0,2.4,0,4,0.8,6.4c0.8,4,0.8,8.8,1.6,12.8
		c0,2.4,0.8,5.6,0.8,8l0,0l0,0c1.6-1.6,4-3.2,5.6-4.8c2.4-1.6,4-4,6.4-5.6c1.6-1.6,2.4-2.4,4-4s3.2-3.2,4.8-4.8
		c1.6-1.6,3.2-3.2,4-4.8c2.4-3.2,4.8-7.2,7.2-10.4c0-0.8,0.8-2.4,1.6-3.2c0.8-1.6,0.8-2.4,1.6-4c0.8-1.6,0.8-2.4,0.8-4
		c0-0.8,0.8-2.4,0.8-3.2C424,248,424.8,238.4,424,238.4z"/>
</g>
<path id="SVGCleanerId_4" style="fill:#DAEAF2;" d="M88,280c1.6,1.6,3.2,2.4,4,4c1.6,1.6,3.2,3.2,4,4.8c2.4,1.6,4.8,4,7.2,5.6
	c1.6,0.8,3.2,2.4,4.8,3.2l0,0c0.8-6.4,0.8-12.8,1.6-19.2c0.8-8,0.8-16.8,0.8-25.6c0-4.8-0.8-8.8-1.6-12.8c0-1.6,0-5.6-0.8-6.4
	c0,1.6-0.8,3.2-1.6,5.6c-0.8,3.2-1.6,6.4-2.4,8.8c-0.8,1.6-0.8,4-0.8,5.6c-0.8,5.6-1.6,11.2-1.6,16c0,2.4,0,4.8-0.8,7.2
	c0,0.8,0,1.6,0,2.4l0,0l0,0l0,0c-0.8,0-6.4-8.8-7.2-10.4c-1.6-2.4-3.2-4.8-4.8-6.4c-2.4-3.2-5.6-7.2-8-10.4c-1.6-2.4-4-5.6-5.6-8
	s-3.2-4-4.8-6.4l0,0l0,0c0,0,0,1.6,0,2.4c0,2.4,0,4.8,0.8,7.2c0,3.2,0.8,7.2,2.4,10.4c0.8,1.6,1.6,4,2.4,6.4c0.8,1.6,1.6,3.2,2.4,4
	s1.6,2.4,1.6,3.2c1.6,1.6,2.4,3.2,4,4.8C86.4,276.8,87.2,278.4,88,280z"/>
<path id="SVGCleanerId_5" style="fill:#DAEAF2;" d="M414.4,282.4L414.4,282.4L414.4,282.4L414.4,282.4z"/>
<path style="fill:#DAEAF2;" d="M414.4,282.4c-4,3.2-8,7.2-11.2,10.4c-4.8,4-8.8,8-13.6,11.2c-4,3.2-8,6.4-12,9.6
	c-2.4,1.6-4.8,4-7.2,5.6c-0.8,0.8-2.4,1.6-3.2,2.4l0,0l0,0v-0.8h-0.8l0,0c1.6,0,4-9.6,4.8-11.2c0.8-3.2,1.6-6.4,3.2-9.6
	c0.8-2.4,0.8-5.6,1.6-8c0.8-1.6,0.8-4,1.6-5.6c0-0.8,0-2.4,0.8-3.2c0-2.4,0-5.6,0-8c0-1.6,0-3.2,0-4s0-1.6,0-2.4
	c-1.6,3.2-4,7.2-5.6,10.4c-2.4,4.8-4,10.4-6.4,15.2c-0.8,2.4-0.8,4-1.6,6.4c-0.8,4-2.4,8-3.2,12c0,1.6-0.8,2.4-0.8,4
	c-0.8,4-1.6,7.2-2.4,11.2c0,2.4-0.8,4.8-0.8,6.4c4-1.6,7.2-3.2,11.2-4c1.6-0.8,4-1.6,5.6-2.4c2.4-1.6,4.8-2.4,8-4
	c1.6-0.8,3.2-1.6,4.8-2.4c1.6-0.8,2.4-2.4,4-3.2c3.2-2.4,5.6-4.8,8.8-7.2c1.6-1.6,4-4,5.6-5.6c1.6-2.4,2.4-4.8,4-6.4
	c1.6-2.4,2.4-4.8,4-7.2c0.8-2.4,1.6-4,1.6-6.4C414.4,284,414.4,283.2,414.4,282.4L414.4,282.4z"/>
<path id="SVGCleanerId_6" style="fill:#DAEAF2;" d="M114.4,324.8c3.2,1.6,5.6,3.2,8.8,4.8c1.6,0.8,4,1.6,5.6,2.4s4,1.6,5.6,2.4
	s3.2,1.6,4.8,1.6c0-2.4-0.8-4-0.8-6.4c-0.8-5.6-1.6-11.2-3.2-16c-0.8-1.6-1.6-4-1.6-6.4c-0.8-1.6-0.8-3.2-1.6-4.8
	c-0.8-1.6-2.4-8.8-3.2-9.6l0,0V292c-0.8-1.6-1.6-3.2-2.4-5.6c-1.6-4.8-3.2-8.8-5.6-12.8c-0.8-1.6-1.6-3.2-2.4-4.8l0,0
	c0,3.2,0,6.4,0,10.4c0,5.6,0.8,11.2,1.6,16.8c0.8,2.4,0.8,4.8,1.6,7.2c0.8,4,2.4,7.2,3.2,11.2c0.8,3.2,2.4,5.6,3.2,9.6l0,0l0,0
	c-4-3.2-8-6.4-12-9.6c-4-2.4-7.2-5.6-11.2-8c-2.4-1.6-4-3.2-6.4-5.6c-2.4-1.6-4.8-3.2-6.4-5.6c-2.4-2.4-4.8-4.8-7.2-7.2
	c-1.6-1.6-3.2-3.2-4.8-4.8l0,0l0,0c0,1.6,0.8,2.4,1.6,4c0,1.6,0,3.2,0.8,4.8c2.4,6.4,6.4,11.2,11.2,16c1.6,1.6,3.2,3.2,4.8,4.8
	c1.6,1.6,4,3.2,5.6,4.8c1.6,1.6,3.2,2.4,4.8,4C112,323.2,113.6,324,114.4,324.8z"/>
<path style="fill:#DAEAF2;" d="M386.4,331.2C386.4,332,386.4,332,386.4,331.2c-1.6,0.8-3.2,1.6-5.6,2.4s-4.8,1.6-6.4,2.4
	c-8,3.2-16,6.4-24,8.8c-4,0.8-8.8,2.4-12.8,3.2c-1.6,0-4,0.8-4.8,1.6c-1.6,0-5.6,1.6-6.4,0.8c0,0,8-7.2,8.8-8c1.6-1.6,3.2-4,4.8-5.6
	c0.8-0.8,1.6-2.4,2.4-3.2c1.6-2.4,3.2-4,4-6.4c0.8-1.6,1.6-2.4,2.4-4c0.8-3.2,2.4-7.2,3.2-10.4c0.8-1.6,3.2-12,2.4-12.8
	c-0.8,0.8-1.6,1.6-2.4,2.4c-2.4,2.4-4.8,5.6-7.2,8.8c-1.6,2.4-4,4.8-5.6,7.2c-2.4,3.2-5.6,7.2-8,10.4c-2.4,3.2-4,6.4-6.4,9.6
	c-2.4,4-5.6,8-8,12c-0.8,1.6-1.6,3.2-3.2,4l0,0l0,0l0,0c2.4,0.8,4.8,0.8,6.4,1.6c2.4,0,4,0.8,6.4,0.8c1.6,0,3.2,0,4.8,0
	c1.6,0,4,0,5.6,0c3.2,0,7.2-0.8,10.4-0.8c1.6,0,2.4-0.8,4-0.8c1.6-0.8,3.2-0.8,4.8-1.6c1.6-0.8,4-1.6,5.6-2.4s2.4-0.8,4-1.6
	c4-2.4,7.2-4.8,10.4-8c3.2-2.4,5.6-4.8,8-7.2C384.8,333.6,385.6,332.8,386.4,331.2C386.4,332,386.4,332,386.4,331.2z"/>
<path id="SVGCleanerId_7" style="fill:#DAEAF2;" d="M168,356.8c4.8-0.8,9.6-1.6,14.4-2.4l0,0c-0.8-0.8-1.6-1.6-1.6-2.4
	c-0.8-1.6-2.4-2.4-3.2-4s-2.4-4-3.2-5.6s-1.6-2.4-2.4-4c-2.4-3.2-4-5.6-6.4-8.8c-4-6.4-8.8-12-13.6-18.4c-1.6-2.4-3.2-4-4.8-6.4
	c-1.6-1.6-3.2-4-5.6-4.8c0,1.6,0,3.2,0.8,4.8c0,1.6,0,2.4,0.8,4c0.8,2.4,1.6,4,2.4,6.4c0.8,2.4,1.6,5.6,2.4,8c0.8,1.6,1.6,2.4,2.4,4
	c0.8,1.6,1.6,3.2,3.2,4.8c0,0,0,0,0.8,0l0,0l0,0c0,0,0,0,0,0.8c0,0,0.8,1.6,1.6,1.6c1.6,1.6,3.2,4,4.8,5.6s3.2,3.2,4.8,4.8
	c0.8,0.8,2.4,2.4,3.2,3.2c0.8,0.8,1.6,1.6,2.4,2.4c-1.6,0-3.2-0.8-4.8-0.8c-3.2-0.8-6.4-1.6-9.6-2.4c-4-0.8-7.2-2.4-11.2-3.2
	c-3.2-0.8-6.4-1.6-8.8-3.2c-4-0.8-8-2.4-11.2-4c-4-1.6-8-3.2-12.8-4.8c0,0-1.6-0.8-1.6,0s1.6,1.6,1.6,2.4c1.6,1.6,3.2,3.2,4.8,4.8
	c1.6,1.6,4,3.2,5.6,4c1.6,1.6,4,2.4,6.4,4c1.6,0.8,2.4,1.6,4,2.4s4,1.6,5.6,2.4C146.4,356.8,157.6,357.6,168,356.8z"/>
<path id="SVGCleanerId_8" style="fill:#DAEAF2;" d="M359.2,362.4h-0.8h-0.8c-0.8,0-1.6,0-2.4,0h-0.8c-0.8,0-1.6,0-1.6,0
	c-0.8,0-1.6,0-1.6,0c-0.8,0-3.2,0-4,0s-1.6,0-1.6,0c-3.2,0-7.2-0.8-10.4-0.8c-2.4,0-5.6-0.8-8-0.8c-3.2,0-6.4-0.8-8.8-1.6
	c-7.2-1.6-14.4-2.4-20.8-4c-3.2-0.8-6.4-0.8-9.6-0.8c-1.6,0-3.2,0-4.8,0c-1.6,0.8-4,0-5.6,0c-0.8,0-0.8,0-1.6,0c-0.8,0-0.8,0-1.6,0
	c-0.8,0-1.6,0-2.4,0s-0.8,0-1.6,0c-0.8,0-0.8,0-1.6,0c-1.6,0-4,0.8-5.6,0.8c-0.8,0-2.4,0-3.2,0.8c-1.6,0-3.2,0.8-4.8,1.6
	c-0.8,0.8-2.4,0.8-3.2,1.6c-0.8,0-1.6,0.8-2.4,0.8s-1.6-0.8-2.4-0.8c-1.6-0.8-3.2-1.6-5.6-1.6c-4-0.8-7.2-2.4-11.2-3.2
	c-1.6,0-3.2,0-4.8-0.8c-1.6,0-2.4,0-4,0c-2.4,0-5.6,0-8,0c-1.6,0-3.2,0-4.8,0c-0.8,0-1.6,0-2.4,0c-1.6,0-3.2,0-4,0h-0.8
	c-0.8,0-0.8,0-1.6,0h-0.8h-0.8c-0.8,0-0.8,0-1.6,0H196h-0.8c-0.8,0-0.8,0-1.6,0h-0.8H192h-0.8c-0.8,0-0.8,0-1.6,0
	c-2.4,0-4.8,0.8-6.4,1.6c-0.8,0-2.4,0.8-3.2,0.8s-1.6,0-1.6,0c-0.8,0-1.6,0-1.6,0c-0.8,0-0.8,0-1.6,0s-1.6,0-1.6,0h-0.8
	c-0.8,0-1.6,0-2.4,0c-0.8,0-2.4,0-3.2,0s-3.2,0-4,0c-1.6,0-3.2,0-4,0c-4.8,0-8.8,0-13.6-0.8c-2.4,0-4.8-0.8-7.2-0.8c0,0-0.8,0-1.6,0
	v0.8c2.4,1.6,4,2.4,6.4,4c1.6,1.6,4,1.6,5.6,3.2c1.6,0.8,4,1.6,5.6,2.4c1.6,0,3.2,0.8,4.8,0.8s2.4,0.8,4,0.8c2.4,0,4.8,0,7.2,0
	c4,0,8-0.8,12-0.8c3.2,0,5.6,0,8.8-0.8c6.4-1.6,12.8-3.2,19.2-5.6c6.4-1.6,12-4,18.4-4.8c0.8,0,2.4,0,3.2-0.8c1.6,0,2.4,0,4,0
	c2.4,0,5.6,0,8,0.8c1.6,0.8,3.2,0.8,4.8,1.6l0,0l0,0c-1.6,0.8-4,1.6-5.6,3.2c-8.8,4-17.6,8.8-24.8,15.2c-1.6,0.8-3.2,2.4-4.8,3.2
	c-0.8,0.8-1.6,0.8-2.4,1.6l0,0l0,0c1.6,0,3.2,0,4.8,0c0.8,0,1.6,0,2.4,0c0.8,0,1.6-1.6,2.4-1.6c1.6-1.6,4-4,5.6-5.6
	c0.8-0.8,2.4-2.4,3.2-3.2c1.6-1.6,4-2.4,5.6-4s3.2-2.4,5.6-4c1.6-0.8,2.4-1.6,4-1.6c0.8-0.8,3.2-1.6,4.8-2.4c0.8,0,3.2,0.8,4.8,1.6
	c2.4,0.8,4.8,1.6,6.4,2.4s4,2.4,5.6,4c4,3.2,7.2,5.6,10.4,9.6c1.6,1.6,4,3.2,5.6,5.6h0.8c0.8,0,1.6,0,2.4,0c1.6,0,3.2,0,5.6,0l0,0
	c-0.8,0-1.6-0.8-2.4-1.6c-2.4-2.4-5.6-4-8-6.4s-5.6-4-8-5.6s-5.6-3.2-8-5.6c-2.4-1.6-4.8-2.4-8-4c-1.6-0.8-3.2-1.6-4-2.4l0,0l0,0
	c0.8,0,0.8,0,1.6-0.8c1.6,0,4-0.8,5.6-0.8c4.8-0.8,10.4-0.8,15.2,0c0.8,0,2.4,0,3.2,0c5.6,1.6,10.4,3.2,16,4.8
	c5.6,1.6,12,3.2,17.6,4.8c3.2,0.8,7.2,0.8,10.4,1.6c2.4,0,5.6,0.8,8,0.8s5.6-0.8,8-0.8c0.8,0,2.4-0.8,3.2-0.8c2.4-0.8,4-0.8,6.4-1.6
	c1.6-0.8,3.2-0.8,4.8-1.6c1.6-0.8,4-0.8,5.6-2.4c2.4-1.6,5.6-3.2,8-5.6l0,0c-0.8,0-0.8,0-1.6,0C360,362.4,360,362.4,359.2,362.4z"/>
<g>
	<path style="fill:#DAEAF2;" d="M132.8,206.4c-0.8,4.8-1.6,9.6-1.6,14.4c0,15.2,1.6,28,5.6,40c1.6,4.8,4,9.6,6.4,14.4
		c0.8,1.6,1.6,3.2,2.4,4.8c1.6,2.4,3.2,5.6,4.8,8c3.2,4.8,7.2,9.6,11.2,14.4c1.6,1.6,3.2,4,5.6,5.6c0.8,0.8,1.6,1.6,2.4,2.4
		c0.8,0.8,1.6,1.6,2.4,2.4l0,0l0,0l0,0V312l0,0l0,0l0,0v0.8c0.8,0.8,1.6,1.6,2.4,1.6c1.6,1.6,4,3.2,6.4,4.8
		c8,5.6,16.8,10.4,26.4,13.6c8,3.2,16.8,4.8,26.4,6.4c25.6,3.2,51.2-3.2,70.4-15.2c4.8-3.2,10.4-6.4,15.2-10.4
		c3.2-2.4,6.4-5.6,8.8-8.8c0.8-0.8,2.4-2.4,3.2-3.2c10.4-12,18.4-24.8,23.2-39.2c0.8-3.2,1.6-5.6,2.4-8.8c2.4-12,4-24,3.2-37.6
		c0-2.4-0.8-4.8-0.8-6.4c-1.6-8-3.2-16-5.6-23.2c-0.8-0.8-0.8-2.4-1.6-3.2c-8-19.2-20.8-36.8-38.4-49.6c-2.4-2.4-5.6-4-8.8-5.6
		c-3.2-1.6-6.4-3.2-9.6-4.8c-4-1.6-8-3.2-12.8-4.8c-5.6-2.4-12-4-18.4-4.8c-5.6-0.8-10.4-1.6-16-1.6c-1.6,0-2.4-0.8-3.2-0.8
		c0,0-0.8,0-0.8,0.8c-0.8,0-3.2,0-4.8,0c-0.8,0-4,0-4.8,0s-0.8,0-1.6,0H232c-0.8,0-0.8,0-1.6,0s-1.6,0-1.6,0c-0.8,0-1.6,0-2.4,0
		h-0.8h-0.8H224c-0.8,0-2.4,0-3.2,0.8c-2.4,0.8-4,0.8-6.4,1.6c-8.8,2.4-16.8,6.4-24.8,10.4c-2.4,1.6-4.8,2.4-7.2,4
		c-4.8,3.2-9.6,7.2-14.4,11.2c-0.8,0-0.8,0.8-1.6,0.8l0,0c0,0.8-0.8,0.8-0.8,1.6c0,0-6.4,6.4-7.2,7.2c-1.6,1.6-3.2,4-4.8,5.6
		c-4.8,7.2-9.6,14.4-13.6,23.2C137.6,188.8,134.4,197.6,132.8,206.4z M151.2,287.2c-3.2-5.6-6.4-10.4-8.8-16
		c-6.4-14.4-9.6-29.6-9.6-47.2l0,0l0,0c1.6,0,3.2,0,4.8,0s4,0,5.6,0c3.2,0,7.2,0,10.4,0c0,3.2,0,6.4,0,9.6c0,1.6,0.8,3.2,0,4.8
		c0,0.8-3.2,1.6-4,2.4c-3.2,1.6-3.2,3.2-4,6.4c0,0.8-0.8,1.6-0.8,2.4c0,1.6,0.8,3.2,0.8,4.8l0,0l0,0c0.8,0,1.6-1.6,3.2-1.6
		c1.6,0.8,2.4,0.8,4,1.6c0.8,0.8,2.4,0.8,3.2,1.6c0.8,0.8,0.8,1.6,1.6,2.4s0.8,0.8,1.6,1.6c0.8,1.6,1.6,3.2,2.4,4.8
		c0.8,1.6,1.6,3.2,2.4,4.8c1.6,3.2,4,6.4,5.6,9.6c1.6,2.4,3.2,4,4.8,6.4c0.8,0.8,1.6,2.4,3.2,3.2v0.8c0,0.8-3.2,3.2-4,4
		c-3.2,3.2-7.2,7.2-10.4,10.4C162.4,303.2,152.8,289.6,151.2,287.2z M244.8,176c0,0.8-1.6,0-1.6,0.8c-0.8,0-0.8,0-1.6,0
		s-0.8,0-1.6,0h-0.8c-1.6,0-3.2,0.8-4.8,0.8c-6.4,1.6-11.2,4.8-16,8c-1.6,1.6-3.2,2.4-4.8,4l0,0l0,0c-0.8-0.8-2.4-1.6-3.2-3.2
		c-1.6-1.6-3.2-4-5.6-5.6c-0.8-0.8-1.6-1.6-3.2-3.2c-0.8-0.8-2.4-2.4-3.2-3.2l0,0c0,0,0,0,0.8,0c3.2-3.2,6.4-5.6,10.4-8
		c0.8-0.8,1.6-0.8,2.4-1.6c6.4-3.2,12.8-6.4,20-7.2c2.4-0.8,4-0.8,6.4-0.8c0.8,0,2.4,0,3.2,0s2.4,0,3.2,0c0,4.8,0,9.6,0,14.4
		C244.8,172.8,244.8,175.2,244.8,176z M200,179.2c1.6,1.6,2.4,2.4,4,4s3.2,3.2,4.8,4.8c0.8,0.8,1.6,1.6,2.4,2.4h-0.8
		c-1.6,0-4.8,0-6.4,0c-0.8,0-2.4,1.6-3.2,2.4c-0.8,0.8-1.6,1.6-3.2,1.6c-1.6,1.6-2.4,2.4-4,4c-1.6,2.4-3.2,4.8-4.8,7.2
		c0,0,0,0,0,0.8l0.8,0.8c0,0.8-1.6,2.4-1.6,4s-0.8,2.4-0.8,4c0,0.8-1.6,6.4-2.4,7.2c-0.8,0.8-5.6,0-7.2,0l0,0c0,0,0-0.8,0-1.6
		c0.8-4,0.8-8,1.6-11.2c1.6-4,2.4-8.8,4.8-12.8c0.8-0.8,0.8-2.4,1.6-3.2c1.6-3.2,4-5.6,5.6-8.8c0.8-0.8,1.6-1.6,1.6-2.4
		c1.6-1.6,3.2-3.2,4.8-4.8C198.4,177.6,199.2,178.4,200,179.2z M244,247.2c0.8,0.8,0,2.4,0,3.2c-2.4,0-3.2-0.8-3.2,1.6
		c0,0.8,0,1.6,0,1.6c0.8,0,0.8,0.8,1.6,0.8l0.8,0.8l0,0c0-0.8,1.6-1.6,1.6-1.6c0.8-0.8,0.8-1.6,1.6-2.4l0.8-0.8
		c1.6-0.8,2.4,0.8,3.2,0.8s0.8,0,1.6,0c0.8,0,0.8,0,1.6,0l0.8-0.8c0.8,0,0.8,0.8,1.6,0.8c0.8,0,1.6,0,2.4,0s1.6,1.6,1.6,2.4
		c-0.8,0-3.2,0.8-4,1.6l-0.8,0.8h-0.8c-0.8,0-3.2,0-4-0.8c0-0.8-0.8-0.8-0.8-1.6l0,0c-0.8,2.4-1.6,2.4-2.4,2.4
		c-1.6,0-3.2,0.8-4.8,1.6c-0.8,0.8-2.4,1.6-3.2,3.2s-2.4,2.4-3.2,3.2c-0.8,0.8-0.8,2.4-1.6,3.2l0,0c-1.6,0-3.2-0.8-4-1.6
		c-4-1.6-8-4-11.2-6.4c-1.6-0.8-2.4-2.4-4-4l0,0c0-0.8,13.6-14.4,15.2-15.2l0,0c2.4,1.6,4,3.2,6.4,4.8c0.8,0,1.6,0.8,2.4,0.8
		C240,246.4,243.2,246.4,244,247.2z M276.8,306.4C277.6,306.4,277.6,306.4,276.8,306.4c1.6,0,3.2-0.8,4-1.6c1.6-0.8,3.2-3.2,4.8-4.8
		c0.8-0.8,2.4-1.6,3.2-3.2c0.8-0.8,0.8-3.2,1.6-4.8c0.8-3.2,1.6-6.4,2.4-9.6c0-0.8,0.8-2.4,0.8-3.2c0-1.6-1.6-3.2-0.8-4.8
		c0-0.8,3.2-3.2,3.2-3.2l0,0c1.6,0.8,2.4,2.4,4,3.2c3.2,3.2,6.4,7.2,10.4,10.4c0,1.6-8,8-8.8,8.8c-8,6.4-16.8,11.2-25.6,14.4
		c-2.4,0.8-5.6,1.6-8,2.4c-0.8,0-3.2,0.8-4.8,0.8c-0.8,0-1.6,0-2.4,0.8H260h-0.8h-0.8c-0.8,0-0.8,0-1.6,0c-0.8,0-0.8,0-1.6,0h-0.8
		c-0.8,0-1.6,0-2.4,0s-2.4,0-2.4,0c-0.8,0-1.6,0-1.6,0l0,0c-0.8-1.6,0-3.2,0-4.8c0-4.8,0-9.6,0-14.4l0,0c0,0,0.8,0,1.6,0
		c3.2,0,5.6-0.8,8.8-0.8c0.8,0,2.4,0,3.2-0.8l0,0c0,0.8,4.8,8,5.6,8.8c1.6,0.8,3.2,1.6,4.8,1.6C272.8,304.8,275.2,305.6,276.8,306.4
		z M287.2,236c0.8-0.8,1.6-1.6,2.4-1.6s0.8-0.8,1.6-0.8h0.8c0,1.6-0.8,2.4-0.8,4c-0.8,3.2-2.4,5.6-4,8.8l0,0l0,0l0,0
		c0-0.8,0-1.6-0.8-2.4c0-1.6,0-3.2-2.4-2.4l-0.8,1.6c-0.8,0.8-4,1.6-4.8,1.6l0,0l0,0c0-0.8,0-0.8,0-0.8c0.8-0.8,2.4-0.8,3.2-1.6
		C283.2,239.2,285.6,237.6,287.2,236z M296,183.2c0,0.8,0.8,0.8,1.6,1.6c0.8,0,2.4,0,3.2,0.8c0.8,0.8,1.6,1.6,1.6,2.4
		c1.6,2.4,3.2,4.8,4,7.2c0.8,1.6,1.6,2.4,1.6,4c0,0.8,0,1.6,0,2.4l0,0l0,0c0,0,0,0,0-0.8l0,0l0,0l0,0v0.8c0,0.8,0,1.6,0,2.4l0,0h0.8
		c0,0,0,0.8,0.8,0.8c0.8,4,2.4,8,2.4,12.8c0,0.8,0,2.4,0,3.2l0,0c-1.6,0-4,0-5.6,0c-0.8,0-2.4,0-3.2,0c-0.8,0-5.6,0-6.4,0
		s-1.6-3.2-1.6-4c0-0.8,0.8-8,1.6-8.8c0.8-0.8,2.4-0.8,3.2-1.6c0.8,0,0.8-0.8,0.8-1.6c0.8-0.8,1.6,0,2.4-0.8
		c0.8-0.8,1.6-1.6,2.4-2.4l0,0l0,0c-0.8,0-0.8,0.8-1.6,0.8c-0.8,0-2.4,0-3.2,0l0,0l0,0c0-0.8,1.6-2.4,1.6-3.2c0-0.8-0.8-1.6-1.6-1.6
		c-0.8-0.8-1.6-1.6-2.4-2.4c-0.8,0-1.6,0-2.4,0c-1.6,0-4,0-4.8,0s-1.6-2.4-2.4-3.2c-0.8-0.8-2.4-1.6-3.2-2.4l0,0l0,0
		c0.8,0,1.6,0,2.4,0c0-1.6-2.4-1.6-3.2-1.6l0,0c0-0.8,7.2-7.2,8-8.8c0.8,0,0.8,0.8,0.8,0.8l0,0l-0.8,0.8
		C296,182.4,296,183.2,296,183.2z M300.8,175.2c0-0.8,2.4-2.4,3.2-3.2c0.8,0,1.6,0.8,2.4,1.6c0.8,0.8,2.4,1.6,3.2,2.4
		c0.8,0.8,1.6,1.6,2.4,2.4c0.8,0.8,1.6,2.4,3.2,3.2c0.8,0,3.2,0.8,4,0c0.8,0,2.4-2.4,3.2-2.4c0.8,0,1.6,3.2,2.4,4
		c4,7.2,6.4,13.6,8,21.6c0.8,1.6,3.2,16,2.4,17.6c-0.8,0.8-16.8,0-19.2,0l0,0c0,0,0,0,0-0.8c0-2.4,0-4-0.8-5.6
		c-0.8-3.2-1.6-6.4-2.4-9.6c0-0.8-0.8-2.4-0.8-3.2c0-2.4,2.4-3.2,1.6-5.6l0,0l0,0l0,0c0,0-1.6,2.4-2.4,2.4l0,0l0,0v-0.8h-0.8
		c0-0.8-0.8-1.6-0.8-1.6c-0.8-1.6-1.6-4-3.2-6.4l0,0c0,0,0.8,0,0.8,0.8l0,0l1.6-1.6l0,0l0,0c-1.6-2.4-2.4-4-4-6.4
		c-0.8-0.8-0.8-1.6-1.6-1.6c-0.8-0.8-1.6-0.8-2.4-0.8l0,0l0.8-0.8C301.6,176.8,300.8,176.8,300.8,175.2z M312,285.6
		C312,285.6,312,284.8,312,285.6c-1.6-0.8-2.4-2.4-3.2-3.2c-2.4-2.4-4.8-5.6-8-8c-0.8-0.8-2.4-2.4-2.4-3.2l0,0
		c0-0.8,1.6-2.4,2.4-3.2c1.6-2.4,4-4.8,5.6-8s3.2-6.4,4-8.8c0.8-1.6,1.6-3.2,1.6-5.6c0.8-1.6,0.8-3.2,1.6-4.8c0-0.8,0.8-2.4,0.8-4
		c0-0.8,0-1.6,0-3.2c0-2.4,0.8-4.8,0.8-6.4c0-0.8,0-1.6,0-2.4c0,0,0,0,0-0.8l0,0c4.8,0,10.4,0,15.2,0c1.6,0,3.2,0,4,0l0,0
		c0,4,0,7.2-0.8,11.2c0,2.4-0.8,4.8-0.8,7.2c-0.8,3.2-1.6,6.4-2.4,9.6c-2.4,8-6.4,15.2-10.4,22.4c-0.8,1.6-2.4,3.2-4,4.8
		C315.2,281.6,313.6,284.8,312,285.6L312,285.6z M295.2,267.2C294.4,267.2,294.4,267.2,295.2,267.2
		C294.4,267.2,294.4,268,295.2,267.2c-0.8,0-0.8-0.8-0.8-0.8c-0.8-0.8-1.6-1.6-2.4-2.4c0-0.8,0-0.8,0-1.6c0-0.8-0.8-5.6-1.6-6.4
		c-0.8-0.8-3.2,0.8-4,0.8c0,0-0.8,0-1.6,0l0,0l0,0l0,0c0.8-0.8,3.2-2.4,3.2-3.2c0.8-1.6-0.8-3.2,0-4.8c0-0.8,0.8-2.4,1.6-3.2
		c0.8-1.6,1.6-3.2,2.4-4c0.8-1.6,0.8-3.2,1.6-4c0-1.6,0.8-2.4,0.8-4l0,0c0-1.6,1.6-1.6,2.4-1.6c2.4-0.8,6.4-1.6,7.2-3.2
		c0,0-0.8-1.6-0.8-2.4l0,0c0.8,0,1.6,1.6,2.4,0c0-0.8-2.4-1.6-3.2-0.8c-0.8,0-2.4-0.8-2.4-1.6l0,0l0,0c0.8,0,2.4,0,4,0
		c2.4,0,4.8,0,7.2,0c0.8,0,2.4,0,3.2,0l0,0l0,0c0,1.6,0,3.2,0,4.8c0,3.2,0,5.6-0.8,8.8c-0.8,4.8-2.4,9.6-4,14.4s-4.8,9.6-8,13.6
		c-0.8,1.6-1.6,3.2-3.2,4C297.6,270.4,295.2,268,295.2,267.2z M296,271.2L296,271.2c0,0-2.4,3.2-3.2,3.2c-0.8,0-0.8-0.8-0.8-0.8
		c-0.8-2.4-0.8-4-0.8-6.4C293.6,268,294.4,269.6,296,271.2z M259.2,292.8c-0.8,0-0.8,0-1.6,0.8c-0.8,0-1.6,0-1.6,0h-0.8
		c-0.8,0-0.8,0-1.6,0c-0.8,0-0.8,0-1.6,0c-0.8,0-0.8,0-1.6,0c-0.8,0-2.4,0-2.4,0c-0.8,0-0.8,0-1.6,0v-0.8c0-3.2,0-6.4,0-9.6h0.8
		c2.4,0,4.8,0,7.2,0c0.8,0,3.2,0,3.2,0c0.8,0.8,1.6,1.6,1.6,3.2c0.8,0.8,0.8,1.6,1.6,3.2C260.8,290.4,260.8,292,259.2,292.8z
		 M216.8,259.2c1.6,0.8,3.2,2.4,4.8,3.2c2.4,1.6,4.8,3.2,8,4c1.6,0.8,3.2,1.6,4.8,1.6c0,0,0,0,0.8,0c0,0.8,0.8,1.6,0.8,1.6
		c0,1.6,0.8,3.2,0.8,5.6v0.8c0.8,0.8,0.8,0.8,1.6,1.6c0.8,0.8,2.4,1.6,3.2,3.2c0.8,0,0.8,0.8,1.6,0.8s1.6,0,2.4,0c0,4,0,7.2,0,11.2
		l0,0c0,0-0.8,0-1.6,0c-4,0-8,0-11.2-0.8c-9.6-1.6-18.4-4.8-25.6-10.4c-2.4-1.6-4-3.2-6.4-4.8c0,0,0,0,0-0.8c1.6,0,4.8,0,5.6-0.8
		c0.8,0,1.6-1.6,1.6-2.4s0.8-0.8,0.8-1.6c0-1.6-4.8-5.6-4-7.2c0-0.8,1.6-2.4,2.4-3.2c2.4-2.4,4-4,6.4-6.4l0,0
		C215.2,257.6,216,258.4,216.8,259.2z M211.2,257.6c-1.6,1.6-3.2,3.2-4.8,4.8c-0.8,0.8-1.6,1.6-2.4,2.4c0,0-0.8,0-0.8-0.8
		c-1.6-1.6-2.4-4-4-5.6c-0.8-0.8-1.6-1.6-2.4-2.4c0-0.8,0-0.8,0-1.6c0-1.6,0.8-3.2,0-4.8c-0.8-2.4-2.4-4-2.4-6.4c-0.8-1.6,0-4,0-5.6
		s-1.6-3.2-2.4-4c0-0.8,0-0.8,0-1.6c0-0.8-0.8-2.4-0.8-3.2c-1.6-1.6-2.4-3.2-4-5.6c0.8,0,0.8-0.8,1.6-1.6c0.8-0.8,2.4-0.8,3.2-0.8
		l0,0l-0.8,0.8v0.8c0,1.6,0.8,3.2,0.8,4.8c0,0.8,0,1.6,0,3.2c1.6,0,2.4,0,4,0c-0.8-0.8-0.8-1.6-1.6-2.4c0-0.8,0.8-1.6,0.8-2.4
		c0-1.6-0.8-3.2-1.6-5.6c0,0,0,0-0.8,0c0,0,0,0-0.8,0s-0.8,0-0.8-0.8c0-0.8-0.8-0.8-0.8-1.6c0-0.8,1.6-2.4,2.4-2.4
		c1.6,0,4,0,4.8,1.6c0,0.8,0,1.6,0,2.4s0,1.6,0,2.4c-0.8,0.8-1.6,1.6-2.4,1.6l0,0c0,0.8,0.8,1.6,0.8,1.6c0.8,0,1.6,0,2.4,0.8
		c0,2.4,0.8,4,0.8,6.4c0.8,4.8,3.2,10.4,5.6,15.2c1.6,2.4,3.2,5.6,5.6,8v0.8C212.8,256,211.2,256.8,211.2,257.6z M178.4,285.6
		c-1.6-1.6-2.4-3.2-4-4.8c-3.2-4-5.6-8.8-8-12.8c-0.8-1.6-2.4-4-2.4-5.6h0.8h0.8l0.8,1.6c2.4,2.4,4.8,4.8,7.2,7.2
		c3.2,2.4,7.2,2.4,11.2,4c1.6,0.8,2.4,2.4,4,2.4c0.8,0,1.6,0,2.4,0c0,0.8-8.8,9.6-10.4,10.4l0,0
		C179.2,287.2,178.4,286.4,178.4,285.6z M194.4,177.6c-0.8,0.8-2.4,2.4-3.2,3.2c-1.6,1.6-2.4,3.2-4,4.8c-1.6,3.2-4,5.6-5.6,8.8
		c-0.8,1.6-0.8,2.4-1.6,4v0.8c-0.8,2.4-1.6,4-2.4,6.4c0,1.6-0.8,2.4-0.8,4c-0.8,4-1.6,8-1.6,12l0,0c0,0-1.6,0-2.4,0
		c-5.6,0-12,0-17.6,0c0-15.2,5.6-29.6,12-41.6c0.8-1.6,2.4-4,3.2-5.6c2.4-3.2,4.8-6.4,7.2-9.6c1.6-1.6,2.4-2.4,4-4
		c1.6,0.8,3.2,2.4,4,4c2.4,2.4,4,4,6.4,6.4c0.8,1.6,3.2,2.4,4,4C196,176,195.2,177.6,194.4,177.6z M175.2,224c0,1.6-3.2,4.8-4.8,6.4
		c-1.6,1.6-0.8,4-1.6,5.6c0,0.8-1.6,0.8-2.4,1.6c-1.6,0.8-2.4,0.8-4,1.6c-2.4,0-4.8,0-6.4,0c0-0.8,0-1.6-0.8-2.4c0-1.6,0-4,0-5.6
		c0-2.4,0-4.8,0-6.4C162.4,224,168.8,224,175.2,224z M244.8,337.6c0,0.8-1.6,0-2.4,0c-6.4,0-13.6-0.8-19.2-2.4
		c-4.8-0.8-9.6-2.4-13.6-4c-4-0.8-7.2-2.4-11.2-4c-9.6-4-18.4-9.6-26.4-16.8c-1.6-1.6-3.2-3.2-4.8-4.8c-0.8-0.8-1.6-1.6-1.6-2.4l0,0
		c4.8-4.8,9.6-9.6,14.4-14.4c1.6,0.8,3.2,2.4,4.8,4c2.4,1.6,4.8,4,7.2,5.6c4,3.2,8.8,5.6,12.8,8c4,1.6,8,3.2,12.8,4.8
		c5.6,1.6,12,3.2,18.4,4c1.6,0,3.2,0,4.8,0c0.8,0,4,0,4,0.8c0,0,0,0.8,0,1.6c0,1.6,0,2.4,0,4c0,3.2,0,5.6,0,8.8
		C244.8,332.8,245.6,336.8,244.8,337.6z M244.8,315.2c0,0.8-1.6,0-1.6,0c-1.6,0-3.2,0-4.8,0c-4,0-8-0.8-12-1.6
		c-11.2-2.4-21.6-6.4-30.4-12.8c-3.2-2.4-6.4-4-9.6-7.2c-1.6-0.8-4-3.2-4.8-4.8c0-0.8,0-0.8,0-0.8c2.4-2.4,4.8-4.8,6.4-6.4
		c1.6-1.6,2.4-2.4,4-4c0.8,0,1.6,0,2.4-0.8c0.8,0,1.6,0,2.4,0c0.8,0.8,1.6,1.6,2.4,2.4c0.8,0.8,1.6,0.8,1.6,1.6
		c3.2,2.4,5.6,4,8.8,6.4c9.6,5.6,21.6,8.8,33.6,8.8l0,0c0,0,0,1.6,0,2.4c0,4,0,8,0,12.8C245.6,311.2,245.6,313.6,244.8,315.2z
		 M324,305.6c-2.4,2.4-4,4-6.4,5.6C308,320,296,326.4,284,330.4c-3.2,1.6-7.2,2.4-11.2,3.2c-2.4,0.8-4,0.8-6.4,1.6
		c-0.8,0-1.6,0-1.6,0H264c-0.8,0-1.6,0-1.6,0c-0.8,0-0.8,0-1.6,0c-0.8,0-0.8,0-1.6,0c-0.8,0-0.8,0-1.6,0c-0.8,0-0.8,0-1.6,0
		c-0.8,0-1.6,0-1.6,0c-0.8,0-1.6,0-1.6,0c-0.8,0-1.6,0-2.4,0s-4,0-4,0c-0.8-0.8,0-7.2,0-8.8c0-4,0-8,0-12l0,0c0,0,1.6,0,2.4,0
		c6.4,0,12-0.8,17.6-2.4c7.2-1.6,13.6-4,19.2-7.2c1.6-0.8,4-1.6,5.6-3.2c2.4-1.6,4.8-3.2,7.2-4.8c0.8-0.8,2.4-1.6,3.2-2.4
		c1.6-0.8,3.2-2.4,4.8-4c1.6-1.6,4-3.2,5.6-5.6c1.6,0,4.8,4,5.6,5.6c2.4,2.4,5.6,5.6,8,8c0,0,0.8,0.8,0.8,1.6
		C325.6,304,324,304.8,324,305.6z M357.6,225.6c0,2.4,0,4.8,0,7.2c-0.8,4-0.8,8-1.6,12c-2.4,15.2-8.8,29.6-16.8,42.4
		c-2.4,3.2-4.8,6.4-7.2,9.6c-0.8,1.6-2.4,2.4-3.2,4l0,0c-0.8,0-0.8-0.8-1.6-0.8c-0.8-0.8-1.6-1.6-2.4-3.2c-2.4-2.4-4-4.8-6.4-6.4
		c-0.8-0.8-2.4-2.4-3.2-3.2v-0.8c0-0.8,2.4-3.2,2.4-3.2c1.6-1.6,2.4-3.2,4-4.8c3.2-4.8,5.6-8.8,8-13.6c2.4-6.4,4.8-12.8,6.4-19.2
		c0.8-2.4,0.8-5.6,1.6-8c0.8-2.4,0.8-5.6,0.8-8c0-0.8,0-3.2,0-4h1.6c4,0,8.8,0,12.8,0c0.8,0,2.4,0,3.2,0c0.8,0,1.6,0,2.4,0
		C357.6,224,357.6,225.6,357.6,225.6z M326.4,148.8c1.6,0.8,2.4,2.4,3.2,4c1.6,1.6,3.2,3.2,4,4.8c7.2,9.6,12,19.2,16.8,29.6
		c1.6,4.8,3.2,9.6,4,14.4c0.8,1.6,3.2,19.2,2.4,20c-0.8,0.8-4,0-5.6,0c-3.2,0-6.4,0-9.6,0c-1.6,0-4,0-5.6,0v-0.8c0-0.8,0-0.8,0-1.6
		c-0.8-8.8-2.4-16-4.8-23.2c-0.8-1.6-0.8-3.2-1.6-4.8c-1.6-3.2-3.2-6.4-4-9.6c-0.8-0.8-2.4-3.2-2.4-4c0-0.8,3.2-3.2,4-4l0,0l0,0
		c-0.8-1.6-2.4-2.4-3.2-4c-3.2-3.2-5.6-5.6-8.8-8.8l0,0C314.4,160,325.6,149.6,326.4,148.8z M246.4,132c0-4.8,0-9.6,0-14.4
		c0-1.6,0-3.2,0-4c19.2,0,36.8,5.6,52,13.6c4,2.4,7.2,4.8,11.2,7.2c4.8,3.2,8.8,6.4,12.8,10.4c0.8,0.8,2.4,2.4,2.4,3.2
		c0,1.6-10.4,10.4-11.2,12c-0.8,0-8-7.2-8-8c0-0.8,0-0.8,0-1.6c0-1.6,0-3.2,0-5.6c0-0.8,0-1.6,0-1.6c-0.8-0.8-1.6-1.6-2.4-3.2
		c-0.8-0.8-1.6-1.6-3.2-3.2c-0.8-0.8-1.6,0-2.4-0.8c-0.8-0.8-1.6-1.6-2.4-1.6s-1.6-0.8-2.4-0.8s-0.8-0.8-1.6-0.8l0,0l0,0
		c-0.8,0-1.6,0.8-3.2,0.8c-3.2,0.8-5.6,2.4-8.8,3.2c0,1.6,0,2.4,0,4l0,0l0,0c-0.8,0-1.6-0.8-2.4-0.8c-2.4-0.8-5.6-1.6-8-2.4
		c-6.4-1.6-13.6-2.4-20.8-2.4l0,0C246.4,134.4,246.4,132,246.4,132z M246.4,136c1.6,0,4,0,5.6,0c2.4,0,4.8,0.8,7.2,0.8
		c5.6,0.8,11.2,2.4,16,4c0.8,0,3.2,0.8,3.2,1.6c0.8,0.8,0.8,3.2,1.6,4.8c0.8,3.2,1.6,6.4,2.4,9.6c0,0.8,0,2.4,0.8,3.2
		c0,0.8,0.8,0,0.8,0c2.4-0.8,4-1.6,6.4-2.4c0.8,0,2.4-0.8,3.2-0.8c0,0.8,1.6,2.4,0.8,3.2c0,1.6-2.4,2.4-3.2,4c0,0.8,1.6,3.2,1.6,3.2
		c2.4,1.6,5.6,3.2,8,4.8l0,0l-2.4,2.4l0,0l0,0c0,0-0.8-0.8-0.8-1.6l0,0c-0.8,0-0.8,2.4-1.6,3.2l0,0l0,0l0,0l-0.8-0.8
		c-0.8,0-2.4,0-3.2,0c-0.8-0.8-1.6-1.6-2.4-2.4c-1.6-0.8-3.2-2.4-4.8-3.2c-0.8-0.8-0.8-0.8-1.6-1.6c-0.8-0.8-1.6-1.6-1.6-2.4
		c-0.8-1.6,0-4-0.8-4.8c-0.8-0.8-1.6-1.6-2.4-1.6c-1.6-1.6-4-3.2-5.6-4c-0.8-3.2-1.6-3.2-2.4-4l0,0c0,1.6,2.4,8.8,1.6,9.6l-2.4-0.8
		c-4.8-1.6-9.6-3.2-14.4-4c-2.4,0-4.8-0.8-8-0.8c-0.8,0,0-1.6,0-1.6c0-2.4,0-4.8,0-7.2C246.4,143.2,246.4,139.2,246.4,136z
		 M246.4,162.4c0-1.6,0-4,0-5.6c8,0,15.2,1.6,21.6,4c1.6,0.8,3.2,0.8,4,1.6c0.8,0.8,0.8,1.6,1.6,2.4c1.6,1.6,2.4,2.4,4,4
		s3.2,3.2,4,4l0,0l0.8-0.8c0.8-0.8,0.8-0.8,1.6-0.8c0.8,0,1.6,0.8,1.6,0.8c1.6,1.6,3.2,2.4,4.8,4c0.8,0.8,1.6,1.6,2.4,2.4l0,0
		c0,0-9.6,10.4-10.4,10.4s-0.8,0-1.6,0c-0.8,0-2.4,0.8-2.4,0c-0.8-1.6,1.6-2.4,2.4-3.2l0,0c0-0.8-0.8-0.8-1.6-0.8
		c-0.8,0-0.8,0.8-1.6,0.8l0,0c-0.8,0-1.6-1.6-2.4-1.6c-1.6-0.8-3.2-0.8-5.6-0.8l0,0l0,0c0.8-0.8,0.8-0.8,1.6-1.6c0,0,0-0.8,0.8-0.8
		c-0.8,0-0.8,0-1.6,0c-0.8,0,0,1.6-2.4,1.6c-0.8,0-1.6-0.8-2.4-0.8c-1.6-0.8-2.4-0.8-4-1.6c-5.6-1.6-11.2-3.2-16.8-2.4
		c0-0.8,0-0.8,0-1.6C246.4,170.4,246.4,166.4,246.4,162.4z M246.4,192c0-3.2,0-6.4,0-9.6c0-1.6,0-3.2,0-4.8c8,0,16,1.6,21.6,4.8l0,0
		c0,0-0.8,0.8-1.6,1.6l0,0l0,0c0.8,0,1.6-0.8,2.4-0.8l0,0c0,0-1.6,1.6-1.6,2.4c0,0,0.8,0.8,0.8,1.6c0,0.8-2.4,3.2-3.2,4
		c-0.8,0-0.8,0-1.6,0c-0.8,0-0.8,0-1.6,0c-1.6,0-1.6,0.8-3.2,0.8l0,0c-0.8,0-0.8,0-1.6-0.8l0,0l0,0c0,0,0.8-1.6,1.6-2.4
		c0,0-0.8-2.4-0.8-3.2l0,0c0,0-1.6,1.6-1.6,2.4l0,0l0,0c0.8,1.6,0,1.6-0.8,2.4h-0.8c-0.8,0-4.8,0.8-5.6,0.8l0,0
		c0,1.6-0.8,1.6-2.4,1.6l0,0C246.4,193.6,246.4,192.8,246.4,192z M248.8,197.6c0.8,0,1.6,0.8,1.6,0.8c0.8,0.8,6.4,8.8,6.4,8.8
		c0,0.8-1.6,0.8-1.6,1.6l0,0l0,0c0.8,1.6,1.6,2.4,2.4,4c0,0.8,0.8,1.6,0.8,2.4c0,0.8-0.8,1.6-0.8,1.6c0,1.6,0.8,2.4,0.8,4
		c0,0.8-0.8,1.6-0.8,2.4c-0.8,1.6-1.6,4-2.4,5.6l-0.8,0.8c0,0.8-0.8,0.8-0.8,1.6c0,0-0.8,0-1.6,0c-1.6,0-3.2,0-4.8,1.6
		c0,0,0,0,0,0.8c0,0.8,0,0.8,0,1.6c0,1.6-1.6,3.2-0.8,4.8l0.8,0.8c0,1.6-0.8,2.4-1.6,3.2l0,0l0,0c0-0.8-0.8-0.8-0.8-1.6
		c0-0.8-0.8-2.4-0.8-3.2l0,0l0,0l0,0c0,0.8,0,0.8-0.8,1.6c-0.8,0.8-1.6,0.8-1.6,2.4c0.8,0,0.8-0.8,1.6-1.6l0,0v0.8
		c0,0.8,0,1.6-0.8,2.4l0,0c-0.8,0-1.6,0-1.6-0.8c-5.6-0.8-9.6-4.8-12.8-9.6c0-0.8-1.6-1.6-1.6-2.4s0.8-0.8,0.8-0.8
		c1.6-0.8,4-0.8,5.6-1.6c1.6,0,3.2-0.8,4.8-0.8c0,0.8-0.8,2.4-0.8,3.2l0,0c0.8,0,2.4,0,3.2,0s1.6-1.6,1.6-2.4c0.8,0-2.4-1.6-2.4-1.6
		c0-0.8,2.4-3.2,2.4-4c0.8-0.8,0.8-1.6,0.8-2.4c0-0.8,0-1.6,0-2.4c-0.8-0.8-1.6-0.8-2.4-1.6c-1.6-0.8-3.2-2.4-4-3.2l0,0
		c-0.8,0.8-1.6,2.4-2.4,3.2c-1.6,2.4-3.2,4-4.8,6.4c-0.8,1.6-2.4,2.4-2.4,4l0,0c0-0.8,0-0.8-0.8-1.6c-0.8,0-0.8,0-1.6,0
		c0,0.8,0.8,1.6,0.8,2.4c0.8,2.4,1.6,4,3.2,6.4c0.8,0.8,1.6,2.4,1.6,3.2l0,0l0,0c-0.8,1.6-3.2,3.2-4,4c-2.4,2.4-4.8,4.8-7.2,7.2
		c-0.8,0.8-2.4,2.4-3.2,3.2l0,0c-0.8,0-1.6-1.6-2.4-2.4c-5.6-8-9.6-16.8-9.6-27.2l0,0l0,0c1.6,0.8,3.2,0.8,4.8,1.6
		c0.8,0,2.4,0,3.2,0c1.6,0,2.4,1.6,4,2.4c0.8,0,0.8,0,1.6,0.8c0.8,0.8,0.8,1.6,1.6,3.2c0.8,0,3.2,0,3.2-0.8c0.8-0.8,0.8-1.6,1.6-2.4
		s0.8-1.6,1.6-3.2c0.8-0.8,1.6-1.6,2.4-2.4c0.8-0.8,0.8-0.8,1.6-1.6c0.8,0,1.6,0,1.6,0c0-0.8,0-0.8,0.8-1.6c0-1.6,0.8-2.4,0.8-4
		c0-2.4,0-5.6,0-8c0-0.8,2.4-3.2,3.2-4.8c0.8-0.8,0.8-1.6,1.6-2.4s2.4-1.6,4-2.4c0.8-0.8,1.6-1.6,2.4-2.4l0.8-0.8
		c0-0.8,0-2.4-0.8-2.4c-0.8-0.8-5.6-4.8-6.4-4.8c-0.8,0-4,2.4-4.8,3.2c-0.8,0.8-2.4,0.8-4,0.8s-3.2,0.8-4.8,0.8
		c-0.8,0-2.4,0-3.2-0.8c-0.8,0-1.6,0-2.4-0.8c-0.8,1.6-1.6,1.6-1.6,0.8c0-0.8,2.4-2.4,2.4-3.2c4.8-4,10.4-7.2,16-8.8
		c1.6,0,3.2-0.8,4-0.8c1.6,0,2.4-0.8,4-0.8c0.8,0,1.6,0,1.6,0.8c0.8,0.8,0,2.4,0,4c0,4,0,7.2,0,11.2c0,0.8-0.8,1.6-0.8,2.4
		c0,0,0.8,0,0.8,0.8C246.4,196.8,248,196.8,248.8,197.6z M244.8,142.4c0,4,0,8.8,0,12.8l0,0c0,0-2.4,0-3.2,0s-1.6,0-2.4,0h-0.8
		c-0.8,0-0.8,0-1.6,0s-0.8,0-1.6,0s-0.8,0-1.6,0s-0.8,0-1.6,0c-1.6,0-3.2,0-4,0.8c-2.4,0-4.8,1.6-6.4,1.6c-3.2,1.6-7.2,2.4-10.4,4.8
		c-3.2,1.6-5.6,4-8,5.6c-1.6,0.8-2.4,1.6-4,3.2c-0.8,0.8-0.8,0.8-1.6,1.6h-0.8c-4-4-8.8-8.8-12.8-12.8c0,0,0,0,0-0.8
		c0-0.8,6.4-5.6,8-6.4c10.4-8,22.4-12.8,35.2-16c3.2-0.8,6.4-0.8,9.6-1.6c1.6,0,3.2,0,4.8-0.8c0.8,0,2.4,0,3.2,0.8
		C244.8,136.8,244.8,141.6,244.8,142.4z M181.6,133.6c8.8-6.4,18.4-10.4,28.8-14.4c4-1.6,8-2.4,12-3.2c3.2-0.8,7.2-1.6,10.4-1.6
		c2.4,0,4.8-0.8,7.2-0.8c1.6,0,3.2,0,5.6,0c0,7.2,0,13.6,0,20.8l0,0h-3.2c-0.8,0-1.6,0-1.6,0c-0.8,0-1.6,0-2.4,0h-0.8
		c-0.8,0-0.8,0-1.6,0s-0.8,0-1.6,0s-0.8,0-1.6,0s-1.6,0-2.4,0.8c-1.6,0-2.4,0.8-4,0.8s-3.2,0.8-4.8,0.8c-12,3.2-22.4,8.8-32,16
		c-1.6,1.6-3.2,2.4-4.8,4c-0.8,0-0.8,0.8-1.6,0.8s-3.2-3.2-4-4c-3.2-3.2-7.2-7.2-10.4-10.4C168,143.2,180,134.4,181.6,133.6z
		 M156,157.6c3.2-4,6.4-8,10.4-11.2c1.6,0.8,3.2,3.2,4.8,4c2.4,2.4,4,4,6.4,6.4c0.8,0.8,3.2,2.4,4,4c0.8,0-0.8,1.6-1.6,1.6
		c-1.6,1.6-3.2,3.2-4.8,5.6c-2.4,3.2-4,5.6-6.4,8.8c-0.8,1.6-2.4,3.2-3.2,5.6c-4.8,8-8,18.4-9.6,28c-0.8,2.4-0.8,5.6-0.8,8.8
		c0,1.6,0,2.4,0,4c0,0.8-1.6,0-2.4,0c-6.4,0-12.8,0-19.2,0c0-4.8,0-8.8,0.8-13.6c0-1.6,0.8-2.4,0.8-4c0.8-4.8,2.4-9.6,3.2-13.6
		C142.4,178.4,148,168,156,157.6z"/>
	<g>
		<path style="fill:#B1D7E5;" d="M276,131.2C276.8,131.2,276.8,131.2,276,131.2c0-0.8,2.4-3.2,2.4-4l0.8-0.8c0,0,0-0.8,0.8-0.8l0,0
			h0.8c0.8,0,3.2-0.8,4.8-1.6l0,0c0-0.8-0.8-2.4-1.6-3.2l0,0c-0.8,0-2.4,0.8-3.2,0.8c0,0,0,0-0.8,0s-0.8,0-1.6,0
			c0,0.8-2.4,1.6-3.2,2.4c0,0,0,0,0,0.8C276,127.2,276,128.8,276,131.2z"/>
		<path style="fill:#B1D7E5;" d="M298.4,136c0-0.8,2.4-2.4,2.4-4c0-0.8-0.8-2.4-1.6-3.2l0,0l0,0c-0.8,0-1.6,0-1.6,0.8
			c-1.6,0-2.4,0.8-4,0.8C292.8,130.4,297.6,136,298.4,136z"/>
		<path style="fill:#B1D7E5;" d="M274.4,180l0.8-0.8c2.4-2.4,4,0.8,6.4,0l0,0l0,0l0,0c-0.8,0-0.8-0.8-1.6-0.8
			c-1.6-0.8-2.4-1.6-4-1.6C275.2,178.4,275.2,179.2,274.4,180L274.4,180L274.4,180z"/>
		<path style="fill:#B1D7E5;" d="M312.8,196c0,0,0.8,0,0.8-0.8c0-0.8-0.8-7.2-1.6-8.8c0,0.8-0.8,0.8-0.8,1.6c0,0.8,0,2.4,0,3.2
			C312.8,192.8,312.8,194.4,312.8,196z"/>
		<path style="fill:#B1D7E5;" d="M301.6,289.6c0.8-0.8,1.6-4.8,1.6-5.6c0-0.8-0.8-1.6-0.8-2.4s-0.8-1.6-0.8-1.6
			c-0.8,0.8-1.6,1.6-2.4,2.4s-0.8,1.6-0.8,2.4s-1.6,4-1.6,4.8s1.6,1.6,2.4,2.4C298.4,291.2,300.8,289.6,301.6,289.6z"/>
		<path style="fill:#B1D7E5;" d="M360,124c2.4,4,5.6,7.2,8,11.2c2.4,2.4,4,5.6,6.4,7.2c1.6,1.6,4,3.2,5.6,4.8s4,2.4,5.6,4l0,0
			c0-2.4-1.6-5.6-1.6-8c-0.8-2.4-1.6-4-1.6-6.4c-0.8-1.6-1.6-4-3.2-5.6c-0.8-0.8-1.6-2.4-1.6-3.2c-0.8-1.6-2.4-2.4-3.2-4
			c-1.6-1.6-3.2-4-5.6-5.6s-4.8-4-8-5.6c-0.8-0.8-1.6-1.6-3.2-2.4s-3.2-1.6-4.8-2.4c-0.8-0.8-2.4-1.6-3.2-1.6
			c1.6,3.2,3.2,6.4,4.8,8.8C356.8,118.4,358.4,121.6,360,124z"/>
	</g>
</g>
<g>
	<path id="SVGCleanerId_0_1_" style="fill:#DAEAF2;" d="M112,149.6c1.6-0.8,2.4-1.6,4-1.6c11.2-6.4,20.8-16.8,26.4-28
		c1.6-3.2,2.4-5.6,4-8.8c0-0.8,0.8-1.6,0.8-2.4c-0.8,0.8-2.4,0.8-3.2,1.6c-3.2,1.6-5.6,3.2-8.8,4.8c-8.8,6.4-16.8,14.4-21.6,24.8
		c-1.6,3.2-2.4,7.2-2.4,11.2C111.2,149.6,111.2,149.6,112,149.6z"/>
</g>
<path style="fill:#B1D7E5;" d="M388,140.8c0.8,2.4,0.8,4.8,1.6,7.2c0,3.2,0.8,7.2,0.8,10.4c0,1.6,0,3.2,0.8,5.6l0,0l0,0h-0.8l0,0
	l0,0c0,0,0,0,0-0.8l0,0c-1.6-1.6-2.4-3.2-4-4c-0.8-0.8-2.4-2.4-3.2-3.2c-4.8-4.8-10.4-8.8-16-12.8c-0.8-0.8-2.4-1.6-3.2-2.4
	c-0.8-0.8-1.6-0.8-1.6-1.6v0.8c0,0.8,0.8,0.8,0.8,1.6c0.8,1.6,1.6,3.2,2.4,4c1.6,2.4,4,4.8,6.4,7.2c3.2,4,7.2,8,10.4,12
	c1.6,1.6,3.2,3.2,4.8,4.8c2.4,2.4,4.8,4.8,8,6.4c1.6,0.8,3.2,2.4,4.8,4l0,0l0,0l0,0c0-1.6,0.8-3.2,0.8-4c0-0.8,0.8-3.2,0.8-4
	c0-1.6,0.8-3.2,0.8-4.8c0-5.6,0-11.2-0.8-16.8c-0.8-1.6-1.6-4-1.6-5.6c-2.4-6.4-4.8-14.4-10.4-18.4c-1.6-0.8-2.4-1.6-4-2.4
	c0.8,2.4,1.6,5.6,2.4,8C386.4,134.4,387.2,137.6,388,140.8z"/>
<g>
	<path id="SVGCleanerId_1_1_" style="fill:#DAEAF2;" d="M97.6,181.6c0.8,0,7.2-5.6,8-6.4c1.6-1.6,3.2-3.2,4.8-4
		c2.4-2.4,4.8-4.8,6.4-7.2c4-4,8-8.8,12-13.6c0.8-1.6,6.4-8.8,6.4-10.4c0,0-7.2,4.8-8,5.6c-2.4,1.6-4,3.2-6.4,4.8
		c-2.4,1.6-4.8,4-6.4,5.6s-3.2,2.4-4,4c-1.6,1.6-3.2,4-4.8,4.8l0,0l0,0l0,0V164c0-0.8,0-2.4,0-3.2c0-1.6,0-3.2,0-4.8
		c0-2.4,0.8-4.8,0.8-6.4c0-2.4,0.8-4,1.6-6.4c0.8-3.2,1.6-6.4,3.2-9.6c0-0.8,2.4-7.2,2.4-8c-1.6,0.8-2.4,2.4-4,4
		c-0.8,0.8-1.6,1.6-2.4,2.4c-2.4,4-5.6,8-7.2,12c-0.8,1.6-1.6,3.2-2.4,4.8c-0.8,3.2-0.8,5.6-1.6,8.8c0,3.2-0.8,7.2-0.8,10.4
		C96,172.8,97.6,177.6,97.6,181.6z"/>
</g>
<g>
	<path id="SVGCleanerId_2_1_" style="fill:#DAEAF2;" d="M87.2,210.4c0.8,2.4,1.6,5.6,3.2,8c0.8,1.6,1.6,3.2,1.6,4.8l0,0
		c0-0.8,0.8-1.6,0.8-2.4c1.6-3.2,3.2-6.4,5.6-9.6s4.8-7.2,6.4-10.4c1.6-3.2,3.2-5.6,4.8-8.8c0.8-2.4,2.4-4,3.2-6.4
		c0-0.8,0.8-1.6,0.8-2.4c1.6-4,3.2-8,4.8-12v-0.8l0,0c-0.8,0.8-1.6,1.6-2.4,2.4c-1.6,1.6-3.2,2.4-4.8,4.8c-4.8,5.6-9.6,10.4-13.6,16
		c-0.8,1.6-1.6,2.4-3.2,4c-0.8,0.8-1.6,1.6-2.4,3.2l0,0l0,0V200c0-3.2,0-7.2,0-10.4c0-3.2-0.8-7.2-0.8-10.4c0-0.8,0-1.6,0-2.4
		c-0.8-3.2-0.8-6.4-0.8-8.8c0-4,0-7.2,0-10.4c0-1.6,0-3.2,0-4c-2.4,3.2-4.8,7.2-5.6,11.2c-0.8,2.4-0.8,4.8-1.6,7.2c0,1.6,0,2.4,0,4
		s0,2.4-0.8,4c0,1.6,0,4,0.8,5.6C83.2,194.4,84.8,202.4,87.2,210.4z"/>
</g>
<path style="fill:#B1D7E5;" d="M394.4,187.2c-0.8-0.8-1.6-1.6-2.4-2.4c-1.6-1.6-3.2-3.2-4-5.6c-1.6-1.6-2.4-2.4-4-4s-3.2-3.2-4.8-4
	c-0.8-0.8-0.8-0.8-1.6-1.6l0,0c0,0,0,0.8,0,1.6c1.6,4,3.2,8,4.8,12.8c0.8,3.2,2.4,5.6,4,8c3.2,6.4,7.2,12.8,10.4,18.4
	c1.6,3.2,3.2,5.6,5.6,8.8c0.8,1.6,1.6,2.4,1.6,4l0,0v-0.8c0-0.8,0-1.6,0-2.4l0,0v0.8l0,0l0,0c0,0,0-0.8,0.8-1.6
	c0.8-1.6,1.6-4,2.4-5.6c0.8-2.4,1.6-5.6,2.4-8s0.8-4.8,1.6-6.4c0-1.6,0.8-3.2,0.8-5.6c0.8-3.2,0.8-6.4,0.8-9.6c0-1.6,0-3.2,0-4.8
	c0-3.2-0.8-5.6-0.8-8.8c0-0.8-0.8-2.4-0.8-3.2c0-0.8-0.8-2.4-0.8-3.2c-0.8-1.6-1.6-2.4-1.6-4c-0.8-1.6-1.6-3.2-2.4-4.8
	c-0.8-0.8-0.8-1.6-1.6-2.4c0,3.2,0,7.2,0,10.4c0,2.4,0,4.8,0,7.2c-0.8,3.2-0.8,6.4-1.6,9.6c-0.8,3.2-1.6,7.2-1.6,10.4
	c0,3.2,0,6.4,0,8.8l0,0c0,0-3.2-4-3.2-4.8C397.6,192,396,189.6,394.4,187.2z"/>
<g>
	<path id="SVGCleanerId_3_1_" style="fill:#DAEAF2;" d="M75.2,221.6c0.8,1.6,0.8,4,1.6,5.6c0.8,3.2,1.6,5.6,2.4,8
		c0,0.8,0.8,2.4,1.6,3.2c0.8,1.6,1.6,2.4,2.4,4c1.6,2.4,2.4,4.8,4,7.2s4,5.6,5.6,8c0.8,0,0.8,0,0.8-0.8c1.6-4,3.2-8,5.6-12
		c0.8-1.6,0.8-2.4,1.6-4c1.6-4.8,4-9.6,5.6-14.4c0.8-1.6,0.8-4,1.6-5.6c0.8-2.4,1.6-5.6,2.4-8c0-1.6,0-4,0.8-5.6c0-1.6,0.8-4,0-5.6
		c0,0.8-1.6,2.4-1.6,2.4c-1.6,2.4-3.2,5.6-4.8,8c-0.8,1.6-1.6,3.2-2.4,4.8c-3.2,5.6-5.6,11.2-7.2,17.6c-0.8,1.6-0.8,3.2-1.6,4.8l0,0
		l0,0l0,0c-0.8-3.2-2.4-6.4-3.2-9.6c-0.8-1.6-0.8-3.2-1.6-5.6c-1.6-3.2-2.4-6.4-4-9.6c-0.8-2.4-1.6-4.8-2.4-7.2
		c-0.8-1.6-1.6-3.2-2.4-5.6c0-0.8-0.8-2.4-0.8-3.2c-0.8-0.8-0.8-1.6-1.6-2.4c-0.8-1.6-0.8-3.2-2.4-4.8c0,3.2-0.8,7.2-0.8,10.4
		c0,2.4,0,4.8,0,7.2c0,1.6,0,3.2,0.8,4.8C74.4,218.4,74.4,220,75.2,221.6z"/>
</g>
<g>
	<path style="fill:#B1D7E5;" d="M408.8,225.6c-0.8,4-2.4,7.2-4,11.2c-0.8,0.8-0.8,2.4-1.6,4l0,0l0,0c-0.8-1.6-0.8-3.2-1.6-4.8
		c-1.6-4-2.4-8.8-4-12.8c-0.8-2.4-2.4-4.8-3.2-6.4c-1.6-3.2-2.4-5.6-4-8s-3.2-4-4.8-5.6l0,0l0,0c0,0,0,0,0,0.8
		c-0.8,3.2,0,6.4,0.8,8.8c0,1.6,0.8,3.2,0.8,4.8c0.8,4,1.6,7.2,3.2,11.2c0.8,1.6,1.6,3.2,2.4,5.6c1.6,5.6,4,10.4,6.4,15.2
		c0.8,1.6,1.6,4,2.4,5.6s0.8,3.2,1.6,4l0,0c2.4-3.2,4.8-6.4,7.2-9.6c0.8-0.8,0.8-1.6,1.6-2.4c4-6.4,7.2-13.6,8.8-21.6
		c0-1.6,0.8-2.4,0.8-4c0.8-4.8,0.8-10.4,0.8-16c0-2.4,0-4.8-0.8-7.2c0-0.8,0-2.4,0-3.2c-0.8,0.8-0.8,2.4-1.6,3.2
		c-2.4,4-3.2,8.8-5.6,13.6c-0.8,2.4-2.4,5.6-3.2,8C410.4,221.6,409.6,223.2,408.8,225.6z"/>
	<path style="fill:#B1D7E5;" d="M424,238.4c0,0.8-1.6,2.4-1.6,2.4c-2.4,3.2-4,5.6-6.4,8.8c-4,4.8-6.4,10.4-10.4,15.2
		c-4,4.8-8,9.6-12,15.2l0,0l0,0l0,0l0,0l0,0c0-0.8,0-0.8,0-1.6c0-2.4,0-4.8,0-7.2c0-0.8,0-1.6,0-2.4c0-5.6-0.8-11.2-1.6-16.8
		c0-1.6-0.8-2.4-0.8-4c-0.8-2.4-1.6-4.8-2.4-8c-0.8-1.6-0.8-3.2-1.6-4.8c0-0.8,0-1.6-0.8-2.4c0,1.6-0.8,3.2-0.8,4
		c-0.8,3.2-0.8,6.4-1.6,9.6c0,2.4,0,4.8,0,7.2c0,3.2,0,6.4,0,9.6c0,2.4,0,4,0.8,6.4c0,2.4,0,4,0.8,6.4c0.8,4,0.8,8.8,1.6,12.8
		c0,2.4,0.8,5.6,0.8,8l0,0l0,0c1.6-1.6,4-3.2,5.6-4.8c2.4-1.6,4-4,6.4-5.6c1.6-1.6,2.4-2.4,4-4s3.2-3.2,4.8-4.8
		c1.6-1.6,3.2-3.2,4-4.8c2.4-3.2,4.8-7.2,7.2-10.4c0-0.8,0.8-2.4,1.6-3.2c0.8-1.6,0.8-2.4,1.6-4c0.8-1.6,0.8-2.4,0.8-4
		c0-0.8,0.8-2.4,0.8-3.2C424,248,424.8,238.4,424,238.4z"/>
</g>
<g>
	<path id="SVGCleanerId_4_1_" style="fill:#DAEAF2;" d="M88,280c1.6,1.6,3.2,2.4,4,4c1.6,1.6,3.2,3.2,4,4.8c2.4,1.6,4.8,4,7.2,5.6
		c1.6,0.8,3.2,2.4,4.8,3.2l0,0c0.8-6.4,0.8-12.8,1.6-19.2c0.8-8,0.8-16.8,0.8-25.6c0-4.8-0.8-8.8-1.6-12.8c0-1.6,0-5.6-0.8-6.4
		c0,1.6-0.8,3.2-1.6,5.6c-0.8,3.2-1.6,6.4-2.4,8.8c-0.8,1.6-0.8,4-0.8,5.6c-0.8,5.6-1.6,11.2-1.6,16c0,2.4,0,4.8-0.8,7.2
		c0,0.8,0,1.6,0,2.4l0,0l0,0l0,0c-0.8,0-6.4-8.8-7.2-10.4c-1.6-2.4-3.2-4.8-4.8-6.4c-2.4-3.2-5.6-7.2-8-10.4c-1.6-2.4-4-5.6-5.6-8
		s-3.2-4-4.8-6.4l0,0l0,0c0,0,0,1.6,0,2.4c0,2.4,0,4.8,0.8,7.2c0,3.2,0.8,7.2,2.4,10.4c0.8,1.6,1.6,4,2.4,6.4c0.8,1.6,1.6,3.2,2.4,4
		s1.6,2.4,1.6,3.2c1.6,1.6,2.4,3.2,4,4.8C86.4,276.8,87.2,278.4,88,280z"/>
</g>
<g>
	<path id="SVGCleanerId_5_1_" style="fill:#DAEAF2;" d="M414.4,282.4L414.4,282.4L414.4,282.4L414.4,282.4z"/>
</g>
<path style="fill:#B1D7E5;" d="M414.4,282.4c-4,3.2-8,7.2-11.2,10.4c-4.8,4-8.8,8-13.6,11.2c-4,3.2-8,6.4-12,9.6
	c-2.4,1.6-4.8,4-7.2,5.6c-0.8,0.8-2.4,1.6-3.2,2.4l0,0l0,0v-0.8h-0.8l0,0c1.6,0,4-9.6,4.8-11.2c0.8-3.2,1.6-6.4,3.2-9.6
	c0.8-2.4,0.8-5.6,1.6-8c0.8-1.6,0.8-4,1.6-5.6c0-0.8,0-2.4,0.8-3.2c0-2.4,0-5.6,0-8c0-1.6,0-3.2,0-4s0-1.6,0-2.4
	c-1.6,3.2-4,7.2-5.6,10.4c-2.4,4.8-4,10.4-6.4,15.2c-0.8,2.4-0.8,4-1.6,6.4c-0.8,4-2.4,8-3.2,12c0,1.6-0.8,2.4-0.8,4
	c-0.8,4-1.6,7.2-2.4,11.2c0,2.4-0.8,4.8-0.8,6.4c4-1.6,7.2-3.2,11.2-4c1.6-0.8,4-1.6,5.6-2.4c2.4-1.6,4.8-2.4,8-4
	c1.6-0.8,3.2-1.6,4.8-2.4c1.6-0.8,2.4-2.4,4-3.2c3.2-2.4,5.6-4.8,8.8-7.2c1.6-1.6,4-4,5.6-5.6c1.6-2.4,2.4-4.8,4-6.4
	c1.6-2.4,2.4-4.8,4-7.2c0.8-2.4,1.6-4,1.6-6.4C414.4,284,414.4,283.2,414.4,282.4L414.4,282.4z"/>
<g>
	<path id="SVGCleanerId_6_1_" style="fill:#DAEAF2;" d="M114.4,324.8c3.2,1.6,5.6,3.2,8.8,4.8c1.6,0.8,4,1.6,5.6,2.4s4,1.6,5.6,2.4
		s3.2,1.6,4.8,1.6c0-2.4-0.8-4-0.8-6.4c-0.8-5.6-1.6-11.2-3.2-16c-0.8-1.6-1.6-4-1.6-6.4c-0.8-1.6-0.8-3.2-1.6-4.8
		c-0.8-1.6-2.4-8.8-3.2-9.6l0,0V292c-0.8-1.6-1.6-3.2-2.4-5.6c-1.6-4.8-3.2-8.8-5.6-12.8c-0.8-1.6-1.6-3.2-2.4-4.8l0,0
		c0,3.2,0,6.4,0,10.4c0,5.6,0.8,11.2,1.6,16.8c0.8,2.4,0.8,4.8,1.6,7.2c0.8,4,2.4,7.2,3.2,11.2c0.8,3.2,2.4,5.6,3.2,9.6l0,0l0,0
		c-4-3.2-8-6.4-12-9.6c-4-2.4-7.2-5.6-11.2-8c-2.4-1.6-4-3.2-6.4-5.6c-2.4-1.6-4.8-3.2-6.4-5.6c-2.4-2.4-4.8-4.8-7.2-7.2
		c-1.6-1.6-3.2-3.2-4.8-4.8l0,0l0,0c0,1.6,0.8,2.4,1.6,4c0,1.6,0,3.2,0.8,4.8c2.4,6.4,6.4,11.2,11.2,16c1.6,1.6,3.2,3.2,4.8,4.8
		c1.6,1.6,4,3.2,5.6,4.8c1.6,1.6,3.2,2.4,4.8,4C112,323.2,113.6,324,114.4,324.8z"/>
</g>
<path style="fill:#B1D7E5;" d="M386.4,331.2C386.4,332,386.4,332,386.4,331.2c-1.6,0.8-3.2,1.6-5.6,2.4s-4.8,1.6-6.4,2.4
	c-8,3.2-16,6.4-24,8.8c-4,0.8-8.8,2.4-12.8,3.2c-1.6,0-4,0.8-4.8,1.6c-1.6,0-5.6,1.6-6.4,0.8c0,0,8-7.2,8.8-8c1.6-1.6,3.2-4,4.8-5.6
	c0.8-0.8,1.6-2.4,2.4-3.2c1.6-2.4,3.2-4,4-6.4c0.8-1.6,1.6-2.4,2.4-4c0.8-3.2,2.4-7.2,3.2-10.4c0.8-1.6,3.2-12,2.4-12.8
	c-0.8,0.8-1.6,1.6-2.4,2.4c-2.4,2.4-4.8,5.6-7.2,8.8c-1.6,2.4-4,4.8-5.6,7.2c-2.4,3.2-5.6,7.2-8,10.4c-2.4,3.2-4,6.4-6.4,9.6
	c-2.4,4-5.6,8-8,12c-0.8,1.6-1.6,3.2-3.2,4l0,0l0,0l0,0c2.4,0.8,4.8,0.8,6.4,1.6c2.4,0,4,0.8,6.4,0.8c1.6,0,3.2,0,4.8,0
	c1.6,0,4,0,5.6,0c3.2,0,7.2-0.8,10.4-0.8c1.6,0,2.4-0.8,4-0.8c1.6-0.8,3.2-0.8,4.8-1.6c1.6-0.8,4-1.6,5.6-2.4s2.4-0.8,4-1.6
	c4-2.4,7.2-4.8,10.4-8c3.2-2.4,5.6-4.8,8-7.2C384.8,333.6,385.6,332.8,386.4,331.2C386.4,332,386.4,332,386.4,331.2z"/>
<g>
	<path id="SVGCleanerId_7_1_" style="fill:#DAEAF2;" d="M168,356.8c4.8-0.8,9.6-1.6,14.4-2.4l0,0c-0.8-0.8-1.6-1.6-1.6-2.4
		c-0.8-1.6-2.4-2.4-3.2-4s-2.4-4-3.2-5.6s-1.6-2.4-2.4-4c-2.4-3.2-4-5.6-6.4-8.8c-4-6.4-8.8-12-13.6-18.4c-1.6-2.4-3.2-4-4.8-6.4
		c-1.6-1.6-3.2-4-5.6-4.8c0,1.6,0,3.2,0.8,4.8c0,1.6,0,2.4,0.8,4c0.8,2.4,1.6,4,2.4,6.4c0.8,2.4,1.6,5.6,2.4,8
		c0.8,1.6,1.6,2.4,2.4,4c0.8,1.6,1.6,3.2,3.2,4.8c0,0,0,0,0.8,0l0,0l0,0c0,0,0,0,0,0.8c0,0,0.8,1.6,1.6,1.6c1.6,1.6,3.2,4,4.8,5.6
		s3.2,3.2,4.8,4.8c0.8,0.8,2.4,2.4,3.2,3.2c0.8,0.8,1.6,1.6,2.4,2.4c-1.6,0-3.2-0.8-4.8-0.8c-3.2-0.8-6.4-1.6-9.6-2.4
		c-4-0.8-7.2-2.4-11.2-3.2c-3.2-0.8-6.4-1.6-8.8-3.2c-4-0.8-8-2.4-11.2-4c-4-1.6-8-3.2-12.8-4.8c0,0-1.6-0.8-1.6,0s1.6,1.6,1.6,2.4
		c1.6,1.6,3.2,3.2,4.8,4.8c1.6,1.6,4,3.2,5.6,4c1.6,1.6,4,2.4,6.4,4c1.6,0.8,2.4,1.6,4,2.4s4,1.6,5.6,2.4
		C146.4,356.8,157.6,357.6,168,356.8z"/>
</g>
<g>
	<path id="SVGCleanerId_8_1_" style="fill:#DAEAF2;" d="M359.2,362.4h-0.8h-0.8c-0.8,0-1.6,0-2.4,0h-0.8c-0.8,0-1.6,0-1.6,0
		c-0.8,0-1.6,0-1.6,0c-0.8,0-3.2,0-4,0s-1.6,0-1.6,0c-3.2,0-7.2-0.8-10.4-0.8c-2.4,0-5.6-0.8-8-0.8c-3.2,0-6.4-0.8-8.8-1.6
		c-7.2-1.6-14.4-2.4-20.8-4c-3.2-0.8-6.4-0.8-9.6-0.8c-1.6,0-3.2,0-4.8,0c-1.6,0.8-4,0-5.6,0c-0.8,0-0.8,0-1.6,0c-0.8,0-0.8,0-1.6,0
		c-0.8,0-1.6,0-2.4,0s-0.8,0-1.6,0c-0.8,0-0.8,0-1.6,0c-1.6,0-4,0.8-5.6,0.8c-0.8,0-2.4,0-3.2,0.8c-1.6,0-3.2,0.8-4.8,1.6
		c-0.8,0.8-2.4,0.8-3.2,1.6c-0.8,0-1.6,0.8-2.4,0.8s-1.6-0.8-2.4-0.8c-1.6-0.8-3.2-1.6-5.6-1.6c-4-0.8-7.2-2.4-11.2-3.2
		c-1.6,0-3.2,0-4.8-0.8c-1.6,0-2.4,0-4,0c-2.4,0-5.6,0-8,0c-1.6,0-3.2,0-4.8,0c-0.8,0-1.6,0-2.4,0c-1.6,0-3.2,0-4,0h-0.8
		c-0.8,0-0.8,0-1.6,0h-0.8h-0.8c-0.8,0-0.8,0-1.6,0H196h-0.8c-0.8,0-0.8,0-1.6,0h-0.8H192h-0.8c-0.8,0-0.8,0-1.6,0
		c-2.4,0-4.8,0.8-6.4,1.6c-0.8,0-2.4,0.8-3.2,0.8s-1.6,0-1.6,0c-0.8,0-1.6,0-1.6,0c-0.8,0-0.8,0-1.6,0s-1.6,0-1.6,0h-0.8
		c-0.8,0-1.6,0-2.4,0c-0.8,0-2.4,0-3.2,0s-3.2,0-4,0c-1.6,0-3.2,0-4,0c-4.8,0-8.8,0-13.6-0.8c-2.4,0-4.8-0.8-7.2-0.8
		c0,0-0.8,0-1.6,0v0.8c2.4,1.6,4,2.4,6.4,4c1.6,1.6,4,1.6,5.6,3.2c1.6,0.8,4,1.6,5.6,2.4c1.6,0,3.2,0.8,4.8,0.8s2.4,0.8,4,0.8
		c2.4,0,4.8,0,7.2,0c4,0,8-0.8,12-0.8c3.2,0,5.6,0,8.8-0.8c6.4-1.6,12.8-3.2,19.2-5.6c6.4-1.6,12-4,18.4-4.8c0.8,0,2.4,0,3.2-0.8
		c1.6,0,2.4,0,4,0c2.4,0,5.6,0,8,0.8c1.6,0.8,3.2,0.8,4.8,1.6l0,0l0,0c-1.6,0.8-4,1.6-5.6,3.2c-8.8,4-17.6,8.8-24.8,15.2
		c-1.6,0.8-3.2,2.4-4.8,3.2c-0.8,0.8-1.6,0.8-2.4,1.6l0,0l0,0c1.6,0,3.2,0,4.8,0c0.8,0,1.6,0,2.4,0c0.8,0,1.6-1.6,2.4-1.6
		c1.6-1.6,4-4,5.6-5.6c0.8-0.8,2.4-2.4,3.2-3.2c1.6-1.6,4-2.4,5.6-4s3.2-2.4,5.6-4c1.6-0.8,2.4-1.6,4-1.6c0.8-0.8,3.2-1.6,4.8-2.4
		c0.8,0,3.2,0.8,4.8,1.6c2.4,0.8,4.8,1.6,6.4,2.4s4,2.4,5.6,4c4,3.2,7.2,5.6,10.4,9.6c1.6,1.6,4,3.2,5.6,5.6h0.8c0.8,0,1.6,0,2.4,0
		c1.6,0,3.2,0,5.6,0l0,0c-0.8,0-1.6-0.8-2.4-1.6c-2.4-2.4-5.6-4-8-6.4s-5.6-4-8-5.6s-5.6-3.2-8-5.6c-2.4-1.6-4.8-2.4-8-4
		c-1.6-0.8-3.2-1.6-4-2.4l0,0l0,0c0.8,0,0.8,0,1.6-0.8c1.6,0,4-0.8,5.6-0.8c4.8-0.8,10.4-0.8,15.2,0c0.8,0,2.4,0,3.2,0
		c5.6,1.6,10.4,3.2,16,4.8c5.6,1.6,12,3.2,17.6,4.8c3.2,0.8,7.2,0.8,10.4,1.6c2.4,0,5.6,0.8,8,0.8s5.6-0.8,8-0.8
		c0.8,0,2.4-0.8,3.2-0.8c2.4-0.8,4-0.8,6.4-1.6c1.6-0.8,3.2-0.8,4.8-1.6c1.6-0.8,4-0.8,5.6-2.4c2.4-1.6,5.6-3.2,8-5.6l0,0
		c-0.8,0-0.8,0-1.6,0C360,362.4,360,362.4,359.2,362.4z"/>
</g>
<g>
	<path style="fill:#B1D7E5;" d="M358.4,216c0-2.4-0.8-4.8-0.8-6.4c-1.6-8-3.2-16-5.6-23.2c-0.8-0.8-0.8-2.4-1.6-3.2
		c-8-19.2-20.8-36.8-38.4-49.6c-2.4-2.4-5.6-4-8.8-5.6c-3.2-1.6-6.4-3.2-9.6-4.8c-4-1.6-8-3.2-12.8-4.8c-5.6-2.4-12-4-18.4-4.8
		c-4-0.8-8.8-1.6-14.4-1.6c-0.8,0-2.4,0-3.2-0.8V196c1.6,0.8,2.4,1.6,4,1.6c0.8,0,1.6,0.8,1.6,0.8c0.8,0.8,6.4,8.8,6.4,8.8
		c0,0.8-1.6,0.8-1.6,1.6l0,0l0,0c0.8,1.6,1.6,2.4,2.4,4c0,0.8,0.8,1.6,0.8,2.4c0,0.8-0.8,1.6-0.8,1.6c0,1.6,0.8,2.4,0.8,4
		c0,0.8-0.8,1.6-0.8,2.4c-0.8,1.6-1.6,4-2.4,5.6l-0.8,0.8c0,0.8-0.8,0.8-0.8,1.6c0,0-0.8,0-1.6,0c-1.6,0-3.2,0-4.8,1.6
		c0,0,0,0,0,0.8c0,0.8,0,0.8,0,1.6c0,1.6-1.6,3.2-0.8,4.8l0.8,0.8c0,1.6-0.8,2.4-1.6,3.2l0,0l0,0v10.4c0.8-0.8,0.8-1.6,1.6-2.4
		l0.8-0.8c1.6-0.8,2.4,0.8,3.2,0.8c0.8,0,0.8,0,1.6,0c0.8,0,0.8,0,1.6,0l0.8-0.8c0.8,0,0.8,0.8,1.6,0.8c0.8,0,1.6,0,2.4,0
		s1.6,1.6,1.6,2.4c-0.8,0-3.2,0.8-4,1.6l-0.8,0.8h-0.8c-0.8,0-3.2,0-4-0.8c0-0.8-0.8-0.8-0.8-1.6l0,0c-1.6,1.6-2.4,1.6-3.2,1.6
		s-1.6,0-2.4,0.8v26.4l0,0c0,4,0,7.2,0,11.2l0,0v1.6v1.6c0,4,0,8,0,12.8c0,1.6,0,3.2,0,4.8v3.2v0.8c0,1.6,0,2.4,0,4
		c0,3.2,0,5.6,0,8.8c0,0.8,0,4,0,5.6v3.2c20.8,0,41.6-5.6,57.6-15.2c4.8-3.2,10.4-6.4,15.2-10.4c3.2-2.4,6.4-5.6,8.8-8.8
		c0.8-0.8,2.4-2.4,3.2-3.2c10.4-12,18.4-24.8,23.2-39.2c0.8-3.2,1.6-5.6,2.4-8.8C358.4,241.6,359.2,229.6,358.4,216z M326.4,148.8
		c1.6,0.8,2.4,2.4,3.2,4c1.6,1.6,3.2,3.2,4,4.8c7.2,9.6,12,19.2,16.8,29.6c1.6,4.8,3.2,9.6,4,14.4c0.8,1.6,3.2,19.2,2.4,20
		c-0.8,0.8-4,0-5.6,0c-3.2,0-6.4,0-9.6,0c-1.6,0-4,0-5.6,0v-0.8c0-0.8,0-0.8,0-1.6c-0.8-8.8-2.4-16-4.8-23.2
		c-0.8-1.6-0.8-3.2-1.6-4.8c-1.6-3.2-3.2-6.4-4-9.6c-0.8-0.8-2.4-3.2-2.4-4c0-0.8,3.2-3.2,4-4l0,0l0,0c-0.8-1.6-2.4-2.4-3.2-4
		c-3.2-3.2-5.6-5.6-8.8-8.8l0,0C314.4,160,325.6,149.6,326.4,148.8z M308.8,281.6c-2.4-2.4-4.8-5.6-8-8c-0.8-0.8-2.4-2.4-2.4-3.2
		l0,0c0-0.8,1.6-2.4,2.4-3.2c1.6-2.4,4-4.8,5.6-8s3.2-6.4,4-8.8c0.8-1.6,1.6-3.2,1.6-5.6c0.8-1.6,0.8-3.2,1.6-4.8
		c0-0.8,0.8-2.4,0.8-4c0-0.8,0-1.6,0-3.2c0-2.4,0.8-4.8,0.8-6.4c0-0.8,0-1.6,0-2.4c0,0,0,0,0-0.8l0,0c4.8,0,10.4,0,15.2,0
		c1.6,0,3.2,0,4,0l0,0c0,4,0,7.2-0.8,11.2c0,2.4-0.8,4.8-0.8,7.2c-0.8,3.2-1.6,6.4-2.4,9.6c-2.4,8-6.4,15.2-10.4,22.4
		c-0.8,1.6-2.4,3.2-4,4.8c-0.8,1.6-3.2,4-4,4.8l0,0l0,0C310.4,284,309.6,283.2,308.8,281.6z M295.2,267.2
		C294.4,267.2,294.4,267.2,295.2,267.2C294.4,267.2,294.4,268,295.2,267.2c-0.8,0-0.8-0.8-0.8-0.8c-0.8-0.8-1.6-1.6-2.4-2.4
		c0-0.8,0-0.8,0-1.6c0-0.8-0.8-5.6-1.6-6.4c-0.8-0.8-3.2,0.8-4,0.8c0,0-0.8,0-1.6,0l0,0l0,0l0,0c0.8-0.8,3.2-2.4,3.2-3.2
		c0.8-1.6-0.8-3.2,0-4.8c0-0.8,0.8-2.4,1.6-3.2c0.8-1.6,1.6-3.2,2.4-4c0.8-1.6,0.8-3.2,1.6-4c0-1.6,0.8-2.4,0.8-4l0,0
		c0-1.6,1.6-1.6,2.4-1.6c2.4-0.8,6.4-1.6,7.2-3.2c0,0-0.8-1.6-0.8-2.4l0,0c0.8,0,1.6,1.6,2.4,0c0-0.8-2.4-1.6-3.2-0.8
		c-0.8,0-2.4-0.8-2.4-1.6l0,0l0,0c0.8,0,2.4,0,4,0c2.4,0,4.8,0,7.2,0c0.8,0,2.4,0,3.2,0l0,0l0,0c0,1.6,0,3.2,0,4.8
		c0,3.2,0,5.6-0.8,8.8c-0.8,4.8-2.4,9.6-4,14.4s-4.8,9.6-8,13.6c-0.8,1.6-1.6,3.2-3.2,4C297.6,270.4,295.2,268,295.2,267.2z
		 M296,271.2L296,271.2c0,0-2.4,3.2-3.2,3.2c-0.8,0-0.8-0.8-0.8-0.8c-0.8-2.4-0.8-4-0.8-6.4C293.6,268,294.4,269.6,296,271.2z
		 M277.6,244c0-0.8,0-0.8,0-0.8c0.8-0.8,2.4-0.8,3.2-1.6c1.6-1.6,4-3.2,5.6-4.8c0.8-0.8,1.6-1.6,2.4-1.6s0.8-0.8,1.6-0.8h0.8
		c0,1.6-0.8,2.4-0.8,4c-0.8,3.2-2.4,5.6-4,8.8l0,0l0,0l0,0c0-0.8,0-1.6-0.8-2.4c0-1.6,0-3.2-2.4-2.4l-0.8,1.6
		C282.4,243.2,279.2,244,277.6,244C278.4,244,278.4,244,277.6,244C278.4,244,278.4,244,277.6,244z M296,183.2c0,0.8,0.8,0.8,1.6,1.6
		c0.8,0,2.4,0,3.2,0.8c0.8,0.8,1.6,1.6,1.6,2.4c1.6,2.4,3.2,4.8,4,7.2c0.8,1.6,1.6,2.4,1.6,4c0,0.8,0,1.6,0,2.4l0,0l0,0
		c0,0,0,0,0-0.8l0,0l0,0l0,0v0.8c0,0.8,0,1.6,0,2.4l0,0h0.8c0,0,0,0.8,0.8,0.8c0.8,4,2.4,8,2.4,12.8c0,0.8,0,2.4,0,3.2l0,0
		c-1.6,0-4,0-5.6,0c-0.8,0-2.4,0-3.2,0c-0.8,0-5.6,0-6.4,0s-1.6-3.2-1.6-4c0-0.8,0.8-8,1.6-8.8c0.8-0.8,2.4-0.8,3.2-1.6
		c0.8,0,0.8-0.8,0.8-1.6c0.8-0.8,1.6,0,2.4-0.8c0.8-0.8,1.6-1.6,2.4-2.4l0,0l0,0c-0.8,0-0.8,0.8-1.6,0.8c-0.8,0-2.4,0-3.2,0l0,0l0,0
		c0-0.8,1.6-2.4,1.6-3.2c0-0.8-0.8-1.6-1.6-1.6c-0.8-0.8-1.6-1.6-2.4-2.4c-0.8,0-1.6,0-2.4,0c-1.6,0-4,0-4.8,0s-1.6-2.4-2.4-3.2
		c-0.8-0.8-2.4-1.6-3.2-2.4l0,0l0,0c0.8,0,1.6,0,2.4,0c0-1.6-2.4-1.6-3.2-1.6l0,0c0-0.8,7.2-7.2,8-8.8c0.8,0,0.8,0.8,0.8,0.8l0,0
		l-0.8,0.8C296,182.4,296,183.2,296,183.2z M300.8,175.2c0-0.8,2.4-2.4,3.2-3.2c0.8,0,1.6,0.8,2.4,1.6c0.8,0.8,2.4,1.6,3.2,2.4
		c0.8,0.8,1.6,1.6,2.4,2.4c0.8,0.8,1.6,2.4,3.2,3.2c0.8,0,3.2,0.8,4,0c0.8,0,2.4-2.4,3.2-2.4c0.8,0,1.6,3.2,2.4,4
		c4,7.2,6.4,13.6,8,21.6c0.8,1.6,3.2,16,2.4,17.6c-0.8,0.8-16.8,0-19.2,0l0,0c0,0,0,0,0-0.8c0-2.4,0-4-0.8-5.6
		c-0.8-3.2-1.6-6.4-2.4-9.6c0-0.8-0.8-2.4-0.8-3.2c0-2.4,2.4-3.2,1.6-5.6l0,0l0,0l0,0c0,0-1.6,2.4-2.4,2.4l0,0l0,0v-0.8h-0.8
		c0-0.8-0.8-1.6-0.8-1.6c-0.8-1.6-1.6-4-3.2-6.4l0,0c0,0,0.8,0,0.8,0.8l0,0l1.6-1.6l0,0l0,0c-1.6-2.4-2.4-4-4-6.4
		c-0.8-0.8-0.8-1.6-1.6-1.6c-0.8-0.8-1.6-0.8-2.4-0.8l0,0l0.8-0.8C301.6,176.8,300.8,176.8,300.8,175.2z M246.4,132
		c0-4.8,0-9.6,0-14.4c0-1.6,0-3.2,0-4c19.2,0,36.8,5.6,52,13.6c4,2.4,7.2,4.8,11.2,7.2c4.8,3.2,8.8,6.4,12.8,10.4
		c0.8,0.8,2.4,2.4,2.4,3.2c0,1.6-10.4,10.4-11.2,12c-0.8,0-8-7.2-8-8c0-0.8,0-0.8,0-1.6c0-1.6,0-3.2,0-5.6c0-0.8,0-1.6,0-1.6
		c-0.8-0.8-1.6-1.6-2.4-3.2c-0.8-0.8-1.6-1.6-3.2-3.2c-0.8-0.8-1.6,0-2.4-0.8c-0.8-0.8-1.6-1.6-2.4-1.6s-1.6-0.8-2.4-0.8
		s-0.8-0.8-1.6-0.8l0,0l0,0c-0.8,0-1.6,0.8-3.2,0.8c-3.2,0.8-5.6,2.4-8.8,3.2c0,1.6,0,2.4,0,4l0,0l0,0c-0.8,0-1.6-0.8-2.4-0.8
		c-2.4-0.8-5.6-1.6-8-2.4c-6.4-1.6-13.6-2.4-20.8-2.4l0,0C246.4,134.4,246.4,132,246.4,132z M246.4,136c1.6,0,4,0,5.6,0
		c2.4,0,4.8,0.8,7.2,0.8c5.6,0.8,11.2,2.4,16,4c0.8,0,3.2,0.8,3.2,1.6c0.8,0.8,0.8,3.2,1.6,4.8c0.8,3.2,1.6,6.4,2.4,9.6
		c0,0.8,0,2.4,0.8,3.2c0,0.8,0.8,0,0.8,0c2.4-0.8,4-1.6,6.4-2.4c0.8,0,2.4-0.8,3.2-0.8c0,0.8,1.6,2.4,0.8,3.2c0,1.6-2.4,2.4-3.2,4
		c0,0.8,1.6,3.2,1.6,3.2c2.4,1.6,5.6,3.2,8,4.8l0,0l-2.4,2.4l0,0l0,0c0,0-0.8-0.8-0.8-1.6l0,0c-0.8,0-0.8,2.4-1.6,3.2l0,0l0,0l0,0
		l-0.8-0.8c-0.8,0-2.4,0-3.2,0c-0.8-0.8-1.6-1.6-2.4-2.4c-1.6-0.8-3.2-2.4-4.8-3.2c-0.8-0.8-0.8-0.8-1.6-1.6
		c-0.8-0.8-1.6-1.6-1.6-2.4c-0.8-1.6,0-4-0.8-4.8c-0.8-0.8-1.6-1.6-2.4-1.6c-1.6-1.6-4-3.2-5.6-4c-0.8-3.2-1.6-3.2-2.4-4l0,0
		c0,1.6,2.4,8.8,1.6,9.6l-2.4-0.8c-4.8-1.6-9.6-3.2-14.4-4c-2.4,0-4.8-0.8-8-0.8c-0.8,0,0-1.6,0-1.6c0-2.4,0-4.8,0-7.2
		C246.4,143.2,246.4,139.2,246.4,136z M246.4,157.6c8,0,15.2,1.6,21.6,4c1.6,0.8,3.2,0.8,4,1.6c0.8,0.8,0.8,1.6,1.6,2.4
		c1.6,1.6,2.4,2.4,4,4s3.2,3.2,4,4l0,0l0.8-0.8c0.8-0.8,0.8-0.8,1.6-0.8c0.8,0,1.6,0.8,1.6,0.8c1.6,1.6,3.2,2.4,4.8,4
		c0.8,0.8,1.6,1.6,2.4,2.4l0,0c0,0-9.6,10.4-10.4,10.4s-0.8,0-1.6,0c-0.8,0-2.4,0.8-2.4,0c-0.8-1.6,1.6-2.4,2.4-3.2l0,0
		c0-0.8-0.8-0.8-1.6-0.8c-0.8,0-0.8,0.8-1.6,0.8l0,0c-0.8,0-1.6-1.6-2.4-1.6c-1.6-0.8-3.2-0.8-5.6-0.8l0,0l0,0
		c0.8-0.8,0.8-0.8,1.6-1.6c0,0,0-0.8,0.8-0.8c-0.8,0-0.8,0-1.6,0c-0.8,0,0,1.6-2.4,1.6c-0.8,0-1.6-0.8-2.4-0.8
		c-1.6-0.8-2.4-0.8-4-1.6c-5.6-1.6-11.2-3.2-16.8-2.4c0-0.8,0-0.8,0-1.6c0-4,0-8,0-11.2C246.4,160.8,246.4,159.2,246.4,157.6z
		 M259.2,192.8L259.2,192.8c-0.8,0-0.8,0-1.6,0l0,0l0,0c0,0,0.8-1.6,1.6-2.4c0,0-0.8-2.4-0.8-3.2l0,0c0,0-1.6,1.6-1.6,2.4l0,0l0,0
		c0.8,1.6,0,1.6-0.8,2.4h-0.8c-0.8,0-4.8,0.8-5.6,0.8l0,0c0,1.6-0.8,1.6-2.4,1.6l0,0v-1.6c0-3.2,0-6.4,0-9.6c0-1.6,0-3.2,0-4.8
		c8,0,16,1.6,21.6,4.8l0,0c0,0-0.8,0.8-1.6,1.6l0,0l0,0c0.8,0,1.6-0.8,2.4-0.8l0,0c0,0-1.6,1.6-1.6,2.4c0,0,0.8,0.8,0.8,1.6
		c0,0.8-2.4,3.2-3.2,4c-0.8,0-0.8,0-1.6,0c-0.8,0-0.8,0-1.6,0C260.8,191.2,260,192,259.2,192.8z M247.2,282.4c2.4,0,4.8,0,7.2,0
		c0.8,0,3.2,0,3.2,0c0.8,0.8,1.6,1.6,1.6,3.2c0.8,0.8,0.8,1.6,1.6,3.2c0,1.6,0,3.2-1.6,3.2c-0.8,0-0.8,0-1.6,0.8c-0.8,0-1.6,0-1.6,0
		h-0.8c-0.8,0-0.8,0-1.6,0c-0.8,0-0.8,0-1.6,0c-0.8,0-0.8,0-1.6,0c-0.8,0-2.4,0-2.4,0c-0.8,0-0.8,0-1.6,0V292
		C247.2,289.6,247.2,286.4,247.2,282.4C247.2,283.2,247.2,283.2,247.2,282.4z M247.2,310.4c0-4.8,0-9.6,0-14.4l0,0c0,0,0.8,0,1.6,0
		c3.2,0,5.6-0.8,8.8-0.8c0.8,0,2.4,0,3.2-0.8l0,0c0,0.8,4.8,8,5.6,8.8c1.6,0.8,3.2,1.6,4.8,1.6c2.4,0.8,4,1.6,6.4,2.4h0.8
		c0.8,0,2.4-0.8,3.2-0.8c1.6-0.8,3.2-3.2,4.8-4.8c0.8-0.8,2.4-1.6,3.2-3.2c0.8-0.8,0.8-3.2,1.6-4.8c0.8-3.2,1.6-6.4,2.4-9.6
		c0-0.8,0.8-2.4,0.8-3.2c0-1.6-1.6-3.2-0.8-4.8c0-0.8,3.2-3.2,3.2-3.2l0,0c1.6,0.8,2.4,2.4,4,3.2c3.2,3.2,6.4,7.2,10.4,10.4
		c0,1.6-8,8-8.8,8.8c-8,6.4-16.8,11.2-25.6,14.4c-2.4,0.8-5.6,1.6-8,2.4c-0.8,0-3.2,0.8-4.8,0.8c-0.8,0-1.6,0-2.4,0.8h-0.8H260h-0.8
		c-0.8,0-0.8,0-1.6,0c-0.8,0-0.8,0-1.6,0h-0.8c-0.8,0-1.6,0-2.4,0s-2.4,0-2.4,0c-0.8,0-1.6,0-1.6,0l0,0
		C246.4,313.6,247.2,312,247.2,310.4z M324,305.6c-2.4,2.4-4,4-6.4,5.6C308,320,296,326.4,284,330.4c-3.2,1.6-7.2,2.4-11.2,3.2
		c-2.4,0.8-4,0.8-6.4,1.6c-0.8,0-1.6,0-1.6,0H264c-0.8,0-1.6,0-1.6,0c-0.8,0-0.8,0-1.6,0c-0.8,0-0.8,0-1.6,0c-0.8,0-0.8,0-1.6,0
		c-0.8,0-0.8,0-1.6,0c-0.8,0-1.6,0-1.6,0c-0.8,0-1.6,0-1.6,0c-0.8,0-1.6,0-2.4,0s-4,0-4,0c-0.8-0.8,0-7.2,0-8.8c0-4,0-8,0-12l0,0
		c0,0,1.6,0,2.4,0c6.4,0,12-0.8,17.6-2.4c7.2-1.6,13.6-4,19.2-7.2c1.6-0.8,4-1.6,5.6-3.2c2.4-1.6,4.8-3.2,7.2-4.8
		c0.8-0.8,2.4-1.6,3.2-2.4c1.6-0.8,3.2-2.4,4.8-4c1.6-1.6,4-3.2,5.6-5.6c1.6,0,4.8,4,5.6,5.6c2.4,2.4,5.6,5.6,8,8
		c0,0,0.8,0.8,0.8,1.6C325.6,304,324,304.8,324,305.6z M357.6,233.6c-0.8,4-0.8,8-1.6,12c-2.4,15.2-8.8,29.6-16.8,42.4
		c-2.4,3.2-4.8,6.4-7.2,9.6c-0.8,1.6-2.4,2.4-3.2,4l0,0c-0.8,0-0.8-0.8-1.6-0.8c-0.8-0.8-1.6-1.6-2.4-3.2c-2.4-2.4-4-4.8-6.4-6.4
		c-0.8-0.8-2.4-2.4-3.2-3.2v-0.8c0-0.8,2.4-3.2,2.4-3.2c1.6-1.6,2.4-3.2,4-4.8c3.2-4.8,5.6-8.8,8-13.6c2.4-6.4,4.8-12.8,6.4-19.2
		c0.8-2.4,0.8-5.6,1.6-8c0.8-2.4,0.8-5.6,0.8-8c0-0.8,0-3.2,0-4h1.6c4,0,8.8,0,12.8,0c0.8,0,2.4,0,3.2,0c0.8,0,1.6,0,2.4,0
		c0,0,0.8,1.6,0,2.4C357.6,228.8,357.6,231.2,357.6,233.6z"/>
	<path style="fill:#B1D7E5;" d="M360.8,362.4c-0.8,0-0.8,0-1.6,0h-0.8h-0.8c-0.8,0-1.6,0-2.4,0h-0.8c-0.8,0-1.6,0-1.6,0
		c-0.8,0-1.6,0-1.6,0c-0.8,0-3.2,0-4,0s-1.6,0-1.6,0c-3.2,0-7.2-0.8-10.4-0.8c-2.4,0-5.6-0.8-8-0.8c-3.2,0-6.4-0.8-8.8-1.6
		c-7.2-1.6-14.4-2.4-20.8-4c-3.2-0.8-6.4-0.8-9.6-0.8c-1.6,0-3.2,0-4.8,0c-1.6,0.8-4,0-5.6,0c-0.8,0-0.8,0-1.6,0c-0.8,0-0.8,0-1.6,0
		c-0.8,0-1.6,0-2.4,0s-0.8,0-1.6,0c-0.8,0-0.8,0-1.6,0c-1.6,0-4,0.8-5.6,0.8c-0.8,0-2.4,0-3.2,0.8c-1.6,0-3.2,0.8-4.8,1.6
		c-0.8,0.8-2.4,0.8-3.2,1.6c-0.8,0-1.6,0.8-2.4,0.8s-0.8,0-1.6-0.8v1.6h0.8c0.8,0,3.2,0.8,4.8,1.6c2.4,0.8,4.8,1.6,6.4,2.4
		s4,2.4,5.6,4c4,3.2,7.2,5.6,10.4,9.6c1.6,1.6,4,3.2,5.6,5.6h0.8c0.8,0,1.6,0,2.4,0c1.6,0,3.2,0,5.6,0l0,0c-0.8,0-1.6-0.8-2.4-1.6
		c-2.4-2.4-5.6-4-8-6.4s-5.6-4-8-5.6s-5.6-3.2-8-5.6c-2.4-1.6-4.8-2.4-8-4c-1.6-0.8-3.2-1.6-4-2.4l0,0l0,0c0.8,0,0.8,0,1.6-0.8
		c1.6,0,4-0.8,5.6-0.8c4.8-0.8,10.4-0.8,15.2,0c0.8,0,2.4,0,3.2,0c5.6,1.6,10.4,3.2,16,4.8c5.6,1.6,12,3.2,17.6,4.8
		c3.2,0.8,7.2,0.8,10.4,1.6c2.4,0,5.6,0.8,8,0.8s5.6-0.8,8-0.8c0.8,0,2.4-0.8,3.2-0.8c2.4-0.8,4-0.8,6.4-1.6
		c1.6-0.8,3.2-0.8,4.8-1.6c1.6-0.8,4-0.8,5.6-2.4c2.4-1.6,5.6-3.2,8-5.6l0,0C361.6,362.4,361.6,362.4,360.8,362.4z"/>
</g>
<g>
</g>
<g>
</g>
<g>
</g>
<g>
</g>
<g>
</g>
<g>
</g>
<g>
</g>
<g>
</g>
<g>
</g>
<g>
</g>
<g>
</g>
<g>
</g>
<g>
</g>
<g>
</g>
<g>
</g>
</svg>
