<?xml version="1.0" encoding="iso-8859-1"?>
<!-- Generator: Adobe Illustrator 19.0.0, SVG Export Plug-In . SVG Version: 6.00 Build 0)  -->
<svg version="1.1" id="Capa_1" xmlns="http://www.w3.org/2000/svg" xmlns:xlink="http://www.w3.org/1999/xlink" x="0px" y="0px"
	 viewBox="0 0 496 496" style="enable-background:new 0 0 496 496;" xml:space="preserve">
<path style="fill:#FFFFFF;" d="M496,369.6c0,27.2-21.6,48.8-48,48.8H48c-26.4,0-48-21.6-48-48.8V126.4c0-27.2,21.6-48.8,48-48.8h400
	c26.4,0,48,21.6,48,48.8V369.6z"/>
<path style="fill:#E9F3F4;" d="M48,77.6h400c26.4,0,48,21.6,48,48.8v243.2c0,27.2-21.6,48.8-48,48.8"/>
<g>
	<path style="fill:#D9ECED;" d="M496,369.6c0,27.2-21.6,48.8-48,48.8H48c-26.4,0-48-21.6-48-48.8"/>
	<path style="fill:#D9ECED;" d="M48,77.6h400c26.4,0,48,21.6,48,48.8v88.8"/>
</g>
<polygon style="fill:#DA1E37;" points="496,216 280,216 280,77.6 216,77.6 216,216 0,216 0,280 216,280 216,418.4 280,418.4 
	280,280 496,280 "/>
<g>
	<rect x="216" y="369.6" style="fill:#C11734;" width="64" height="48.8"/>
	<polygon style="fill:#C11734;" points="280,77.6 216,77.6 216,216 210.4,216 285.6,280 496,280 496,216 280,216 	"/>
</g>
<g>
	<rect x="161.6" y="144.8" style="fill:#DA1E37;" width="13.6" height="52.8"/>
	<rect x="141.6" y="164" style="fill:#DA1E37;" width="52.8" height="13.6"/>
	<rect x="161.6" y="298.4" style="fill:#DA1E37;" width="13.6" height="52.8"/>
	<rect x="141.6" y="318.4" style="fill:#DA1E37;" width="52.8" height="13.6"/>
	<rect x="321.6" y="144.8" style="fill:#DA1E37;" width="13.6" height="52.8"/>
	<rect x="301.6" y="164" style="fill:#DA1E37;" width="52.8" height="13.6"/>
	<rect x="321.6" y="298.4" style="fill:#DA1E37;" width="13.6" height="52.8"/>
	<rect x="301.6" y="318.4" style="fill:#DA1E37;" width="52.8" height="13.6"/>
</g>
<g>
</g>
<g>
</g>
<g>
</g>
<g>
</g>
<g>
</g>
<g>
</g>
<g>
</g>
<g>
</g>
<g>
</g>
<g>
</g>
<g>
</g>
<g>
</g>
<g>
</g>
<g>
</g>
<g>
</g>
</svg>
