<?xml version="1.0" encoding="iso-8859-1"?>
<!-- Generator: Adobe Illustrator 19.0.0, SVG Export Plug-In . SVG Version: 6.00 Build 0)  -->
<svg version="1.1" id="Capa_1" xmlns="http://www.w3.org/2000/svg" xmlns:xlink="http://www.w3.org/1999/xlink" x="0px" y="0px"
	 viewBox="0 0 512 512" style="enable-background:new 0 0 512 512;" xml:space="preserve">
<rect x="167.639" y="80.103" style="fill:#FFFFFF;" width="175.897" height="351.794"/>
<polygon style="fill:#DDE7ED;" points="344.361,331.148 344.361,80.103 167.639,80.103 167.639,180.852 "/>
<g>
	<rect x="167.639" y="381.523" style="fill:#C9DAE2;" width="175.897" height="50.374"/>
	<polygon style="fill:#C9DAE2;" points="344.361,170.116 344.361,80.103 167.639,80.103 167.639,116.439 	"/>
</g>
<g>
	<path style="fill:#4997D0;" d="M167.639,80.103H49.548C22.297,80.103,0,102.4,0,130.477v251.045
		c0,28.077,22.297,50.374,49.548,50.374h118.916V80.103H167.639z"/>
	<path style="fill:#4997D0;" d="M462.452,80.103h-118.09v351.794h118.09c27.252,0,49.548-22.297,49.548-50.374V130.477
		C512,102.4,489.703,80.103,462.452,80.103z"/>
</g>
<g>
	<path style="fill:#3789BC;" d="M462.452,80.103h-118.09v251.045l118.09,100.748c27.252,0,49.548-22.297,49.548-50.374V130.477
		C512,102.4,489.703,80.103,462.452,80.103z"/>
	<polygon style="fill:#3789BC;" points="167.639,80.103 49.548,80.103 167.639,180.852 	"/>
</g>
<g>
	<path style="fill:#257AA5;" d="M344.361,431.897h118.09c27.252,0,49.548-22.297,49.548-50.374H344.361V431.897z"/>
	<path style="fill:#257AA5;" d="M0,381.523c0,28.077,22.297,50.374,49.548,50.374h118.916v-50.374H0z"/>
	<path style="fill:#257AA5;" d="M462.452,80.103h-118.09v90.013L512,221.316v-90.839C512,102.4,489.703,80.103,462.452,80.103z"/>
	<polygon style="fill:#257AA5;" points="167.639,80.103 49.548,80.103 167.639,116.439 	"/>
</g>
<g>
	<path style="fill:#67923D;" d="M260.129,318.761c-0.826-0.826-1.652-1.652-2.477-1.652c-4.955-2.477-9.084-4.129-14.865-4.955
		c0-0.826-0.826-1.652-1.652-2.477c0.826-0.826,0.826-3.303,0-4.955l0,0l0,0c-1.652-4.129-4.955-9.084-11.561-13.213l0,0l0,0
		c0,0.826,1.652,4.955,3.303,9.084c-1.652-2.477-4.955-4.129-8.258-5.781l0,0c0,1.652,6.606,14.039,11.561,16.516l0.826-0.826
		l1.652,2.477c-1.652-0.826-2.477-1.652-4.129-2.477c-2.477-0.826-4.955-1.652-6.606-2.477c0,0,0,0-0.826,0
		c-1.652-0.826-2.477-0.826-4.129-1.652c0,0,0,0-0.826,0c0.826,0,0.826,0.826,1.652,0c0.826-5.781-4.129-18.168-5.781-18.994l0,0
		l0,0c-1.652,8.258,0,14.039,2.477,17.342c0,0,0,0,0,0.826c-1.652-1.652-4.129-1.652-4.955-3.303
		c-2.477-2.477-4.129-4.129-6.606-6.606c0.826,0,0.826-0.826,0.826-0.826c0.826-1.652,0-5.781-3.303-9.91
		c0-2.477,0-6.606-2.477-11.561l0,0l0,0c-0.826,1.652-1.652,11.561,0,15.69c0.826,0,0.826,0,1.652-0.826l0,0
		c0.826,2.477,1.652,5.781,3.303,7.432c-3.303-3.303-6.606-7.432-9.084-11.561c0-0.826,0-1.652,0-2.477
		c0.826,0,1.652-0.826,1.652-1.652c1.652-2.477,1.652-9.084-2.477-15.69l0,0l0,0c0,0.826-0.826,3.303-0.826,6.606
		c0-1.652-0.826-4.129-1.652-6.606c1.652-2.477,2.477-5.781,3.303-9.91l0,0l0,0c-0.826,0-3.303,3.303-4.955,5.781c0,0,0,0,0-0.826
		l0,0l0,0l0,0c0,0,0,0.826,0,1.652c-0.826,0.826-0.826,2.477-1.652,3.303c-0.826-1.652-0.826-3.303-0.826-4.955
		c2.477,0.826,6.606-4.129,7.432-13.213c0-1.652,0-2.477,0-4.129c-0.826,0-1.652,2.477-3.303,4.129
		c0.826-2.477,0.826-4.955,0.826-9.084c2.477-1.652,4.955-3.303,7.432-6.606c-1.652,0-8.258,2.477-12.387,4.955
		c0-0.826,0-2.477,0.826-3.303c0.826-0.826,1.652-0.826,2.477-1.652c1.652,0.826,4.129,0,6.606-1.652
		c2.477-1.652,5.781-5.781,8.258-10.735c-0.826,0-4.129,1.652-7.432,4.129c1.652-2.477,4.129-6.606,4.955-10.735l0,0l0,0
		c-1.652,0.826-11.561,9.084-12.387,14.865l0,0c0,0-0.826,0.826-1.652,0.826c0.826-4.129,2.477-7.432,4.129-11.561h0.826
		c0,0,0,0,0.826,0c0.826,0,0.826,0,0.826-0.826c0-0.826,0-0.826-0.826-0.826c-0.826,0-0.826,0-0.826,0.826l0,0h-0.826
		c0-0.826,0.826-1.652,1.652-2.477c0.826-0.826,2.477-1.652,3.303-2.477l-3.303,2.477c1.652-2.477,2.477-4.955,4.129-7.432
		c3.303-2.477,6.606-11.561,6.606-13.213c-0.826,0.826-1.652,0.826-1.652,1.652c-4.955,4.129-6.606,9.91-4.955,10.735
		c-1.652,2.477-3.303,4.955-4.955,7.432v-2.477c0,0.826,0,1.652,0,3.303c0,0.826-0.826,1.652-0.826,1.652v-0.826
		c0,0,0.826,0,0.826-0.826c0-0.826,0-0.826-0.826-0.826s-0.826,0-0.826,0.826c0,0.826,0,0.826,0.826,0.826l0,0v0.826
		c-0.826,1.652-1.652,4.129-2.477,5.781v-4.955h0.826c1.652-4.955,0.826-16.516,0-18.168l0,0l0,0
		c-4.129,9.084-3.303,16.516-0.826,17.342l0,0c0,1.652,0,4.129,0,5.781v0.826l-0.826-0.826c0,0,0,0,0-0.826
		c0-0.826,0-0.826-0.826-0.826c-0.826,0-0.826,0-0.826,0.826c0,0.826,0,0.826,0.826,0.826c0,0,0,0,0.826,0
		c0,0.826,0.826,0.826,0.826,0.826c-0.826,2.477-1.652,4.955-2.477,7.432c0-0.826-0.826-1.652-0.826-2.477c0,0,0,0,0.826,0
		c0.826-5.781-4.129-17.342-5.781-18.168l0,0l0,0c-1.652,9.084,0.826,16.516,3.303,18.168c0.826,0,0.826,0.826,1.652,0.826
		l0.826,2.477c0,0.826-0.826,1.652-0.826,2.477c0,0.826-0.826,2.477-0.826,3.303c-0.826-2.477-2.477-6.606-6.606-11.561
		c0,0.826,0,1.652,0,2.477c0,4.129,1.652,7.432,3.303,9.084c-0.826,4.129-0.826,7.432,0,10.735
		c-2.477-4.129-5.781-8.258-7.432-9.084l0,0l0,0c0.826,10.735,5.781,17.342,9.084,18.168c0.826,0,0.826,0,1.652,0
		c0,3.303,0.826,6.606,1.652,9.91l-2.477-3.303l0,0c-2.477-4.129-10.735-9.91-12.387-9.91l0,0c1.652,4.129,4.129,6.606,6.606,9.084
		s4.955,2.477,5.781,1.652c0.826,1.652,1.652,2.477,2.477,3.303c0,0.826,0,0.826,0,1.652l-1.652-0.826l0,0
		c0-0.826-0.826-0.826-0.826-0.826c-0.826,0-0.826,0.826-0.826,0.826c0,0.826,0.826,0.826,0.826,0.826s0.826,0,0.826-0.826
		c0.826,0,0.826,0.826,1.652,0.826c1.652,4.129,3.303,7.432,4.955,11.561c-0.826-0.826-1.652-1.652-2.477-2.477l0,0
		c0-0.826-0.826-1.652-1.652-3.303h0.826c0.826-1.652-1.652-4.129-5.781-4.955c-2.477-1.652-4.955-3.303-5.781-3.303l0,0l0,0
		c0,0.826,0.826,2.477,1.652,3.303c-1.652,0-4.129,0-6.606,0.826l0,0l0,0l0,0c0.826,0.826,4.955,2.477,9.084,4.129
		c2.477,3.303,4.955,4.955,7.432,4.955c0.826,0,0.826,0,0.826-0.826l2.477,2.477c0.826,0.826,0.826,1.652,1.652,3.303
		c0-1.652-0.826-1.652-1.652-1.652l0,0c-3.303-2.477-14.039-4.129-15.69-3.303l0,0l0,0c6.606,4.955,12.387,5.781,14.865,4.129
		l0.826-0.826l1.652,0.826v0.826c1.652,3.303,4.129,6.606,6.606,9.084c-4.955-3.303-11.561-5.781-13.213-5.781l0,0l0,0
		c5.781,7.432,12.387,10.735,14.865,9.084c0,0,0.826,0,0.826-0.826c1.652,1.652,4.129,4.129,6.606,5.781
		c-4.955-3.303-16.516-4.129-18.168-4.129l0,0l0,0c7.432,6.606,14.865,7.432,18.168,5.781c0.826,0,0.826-0.826,0.826-1.652
		c1.652,0.826,4.129,1.652,4.955,3.303c-5.781-2.477-19.819-0.826-21.471,0.826l0,0l0,0c9.91,4.955,17.342,4.129,20.645,1.652
		c0.826-0.826,0.826-1.652,0.826-2.477c0.826,0.826,1.652,0.826,1.652,0.826c0.826,0,1.652,0.826,1.652,0.826
		c-2.477,0-6.606,1.652-9.91,4.955l0,0l0,0c0.826,0,6.606,0,10.735-1.652c-5.781,2.477-12.387,7.432-13.213,8.258l0,0l0,0
		c11.561,0,18.994-4.955,19.819-8.258c0-0.826,0-0.826,0-1.652c0.826,0,2.477,0.826,3.303,0.826
		c1.652,0.826,3.303,2.477,4.129,2.477l0,0l-4.129,0.826l0,0l0,0l0,0c-4.955,0-14.865,6.606-16.516,8.258
		c2.477,0,4.955,0,6.606-0.826c6.606-1.652,10.735-4.955,9.91-7.432c1.652,0,2.477-0.826,4.129-0.826
		c6.606,0.826,11.561,2.477,17.342,4.955c0.826,0.826,1.652,0.826,2.477,1.652L260.129,318.761L260.129,318.761z M194.065,231.226
		c0-1.652,0.826-2.477,0.826-4.129l1.652-0.826h0.826c0,0,0.826,0,1.652,0c-1.652,1.652-2.477,2.477-3.303,3.303l0,0l0,0
		c0,0,0,0,0.826,0.826L194.065,231.226C194.065,232.052,194.065,232.052,194.065,231.226z M191.587,251.871c0,0.826,0,0.826,0,1.652
		c0-0.826-0.826-1.652-0.826-2.477C190.761,251.045,191.587,251.045,191.587,251.871L191.587,251.871z M193.239,237.832
		c0.826,0,1.652,0,2.477,0c-0.826,1.652-1.652,4.129-2.477,5.781c0-0.826,0-0.826,0-1.652
		C193.239,240.31,193.239,239.484,193.239,237.832z M192.413,251.045L192.413,251.045c0.826,0,0.826-0.826,1.652-0.826
		c0,0,0,0,0.826-0.826c-0.826,0.826-0.826,2.477-1.652,3.303c0,0,0,0-0.826,0h-0.826
		C192.413,252.697,192.413,251.871,192.413,251.045z M192.413,254.348C193.239,254.348,193.239,255.174,192.413,254.348
		c0,0.826,0,0.826,0,1.652C192.413,256,192.413,255.174,192.413,254.348z M194.89,265.084h0.826c0,1.652,0,3.303,0.826,4.955
		C195.716,268.387,194.89,266.735,194.89,265.084z M201.497,280.774c-0.826-1.652-1.652-4.129-2.477-5.781
		c0.826,0,1.652-0.826,1.652-2.477c0,2.477,0.826,4.955,0.826,6.606l0,0L201.497,280.774
		C201.497,281.6,201.497,281.6,201.497,280.774z M227.923,308.852c0.826,0,1.652-0.826,1.652-0.826c0.826,0,0.826,0,1.652,0
		C230.4,308.026,229.574,308.852,227.923,308.852z M240.31,311.329L240.31,311.329c-0.826-0.826-1.652-1.652-2.477-2.477
		c0-0.826,0-1.652,0-2.477c0.826,0.826,1.652,2.477,2.477,3.303c0,0,0.826,0,0.826-0.826l1.652,2.477
		C242.787,312.155,241.135,311.329,240.31,311.329z"/>
	<path style="fill:#67923D;" d="M216.361,298.942c0.826,0,0.826-0.826,1.652-0.826c1.652-2.477,0-10.735-6.606-18.168l0,0l0,0
		C210.581,281.6,213.058,294.813,216.361,298.942z"/>
	<path style="fill:#67923D;" d="M199.845,209.755L199.845,209.755c3.303-3.303,4.129-12.387,3.303-14.039l0,0l0,0
		C198.194,202.323,197.368,208.103,199.845,209.755z"/>
	<path style="fill:#67923D;" d="M203.148,280.774c-0.826,0-0.826,0.826-0.826,0.826c0,0.826,0.826,0.826,0.826,0.826
		s0.826,0,0.826-0.826C203.974,280.774,203.148,280.774,203.148,280.774z"/>
	<path style="fill:#67923D;" d="M199.845,283.252L199.845,283.252c0-0.826-0.826-0.826-0.826-0.826
		c-0.826,0-0.826,0.826-0.826,0.826s0,0.826,0.826,0.826C199.019,284.077,199.845,283.252,199.845,283.252z"/>
	<path style="fill:#67923D;" d="M232.052,305.548c0-0.826-0.826-0.826-0.826-0.826l-0.826,0.826c0,0.826,0.826,0.826,0.826,0.826
		S232.052,306.374,232.052,305.548z"/>
	<path style="fill:#67923D;" d="M234.529,311.329c0-0.826-0.826-0.826-0.826-0.826s-0.826,0-0.826,0.826
		c0,0.826,0.826,0.826,0.826,0.826L234.529,311.329z"/>
	<path style="fill:#67923D;" d="M309.677,261.781L309.677,261.781C308.852,261.781,308.852,261.781,309.677,261.781
		c-3.303,8.258-3.303,14.865-1.652,18.168c0.826,1.652,1.652,1.652,2.477,1.652C312.155,275.819,310.503,263.432,309.677,261.781
		L309.677,261.781L309.677,261.781z"/>
	<path style="fill:#67923D;" d="M320.413,231.226L320.413,231.226L320.413,231.226c0,0.826,0,0.826,0.826,0.826s0.826,0,0.826-0.826
		c0,0,0-0.826-0.826-0.826c2.477-1.652,5.781-8.258,4.955-17.342l0,0l0,0c-1.652,0.826-7.432,12.387-7.432,18.168
		C319.587,231.226,320.413,231.226,320.413,231.226z"/>
	<path style="fill:#67923D;" d="M316.284,226.271c-1.652-4.129-9.084-11.561-10.735-12.387l0,0l0,0
		c1.652,8.258,6.606,13.213,9.91,12.387H316.284L316.284,226.271L316.284,226.271L316.284,226.271z"/>
	<path style="fill:#67923D;" d="M332.8,267.561c-2.477-0.826-4.129-0.826-6.606-0.826v-0.826l0,0l0,0c0,0-0.826,0-1.652,0.826
		c-4.955,0.826-7.432,2.477-7.432,4.129c-0.826,0.826-1.652,1.652-2.477,2.477c0.826-2.477,1.652-4.129,2.477-6.606
		c0.826-0.826,1.652-1.652,2.477-2.477c0.826,0.826,3.303,0,6.606-1.652c2.477-1.652,4.955-4.955,6.606-9.084l0,0
		c-1.652,0-10.735,6.606-13.213,10.735l0,0l-2.477,2.477c0.826-3.303,1.652-6.606,2.477-9.91c0.826-0.826,0.826-1.652,1.652-2.477
		h0.826c2.477-0.826,6.606-5.781,7.432-14.039l0,0l0,0c-0.826,0.826-3.303,3.303-4.955,6.606c0.826-2.477,0.826-6.606,0.826-9.91
		c0-0.826,0-1.652,0-2.477c1.652-1.652,3.303-4.129,4.129-8.258c0-0.826,0-0.826,0.826-1.652c-5.781,4.129-9.084,9.084-9.91,10.735
		c0-0.826,0-1.652-0.826-3.303c-0.826-3.303-1.652-5.781-2.477-9.084c0-1.652,0.826-2.477,0.826-4.129l0,0
		c2.477-0.826,3.303-7.432,0-15.69l0,0l0,0c0,0.826-0.826,1.652-0.826,4.129c0-2.477-0.826-6.606-2.477-9.91l0,0l0,0
		c-0.826,0.826-1.652,10.735,0,14.865l0,0l-0.826,3.303c0-0.826-0.826-1.652-0.826-2.477c0-0.826-0.826-2.477-0.826-3.303
		l0.826,3.303c-0.826-0.826-0.826-1.652-1.652-2.477c0,0,0,0,0.826-0.826c1.652-2.477-0.826-9.91-8.258-15.69l0,0l0,0
		c0,0.826,1.652,6.606,4.129,10.735l0,0c0,0,0,0,0,0.826c0.826,1.652,1.652,3.303,2.477,4.129c1.652,2.477,3.303,5.781,4.129,9.084
		l-3.303-2.477c0.826,0.826,2.477,2.477,3.303,2.477c0.826,2.477,1.652,5.781,3.303,9.084l-0.826-0.826l0.826,0.826
		c0.826,1.652,0.826,3.303,1.652,4.955c0,0.826,0,1.652,0.826,2.477c-0.826-0.826-0.826-1.652-1.652-1.652l0,0l0,0l0,0
		c-2.477-4.129-12.387-10.735-14.039-10.735c2.477,4.955,4.955,8.258,7.432,9.91c2.477,1.652,4.955,2.477,6.606,1.652l1.652,1.652
		c0,0.826,0,1.652,0,2.477c-0.826-0.826-2.477-1.652-4.129-2.477l-0.826-0.826l0,0l0,0c0,0,0,0,0,0.826
		c-3.303-1.652-5.781-2.477-6.606-2.477c2.477,2.477,4.129,4.955,6.606,5.781c0,6.606,1.652,11.561,4.129,13.213
		c0.826,0.826,0.826,0.826,1.652,0.826l0,0c0,2.477,0,5.781-0.826,8.258l-1.652-2.477l0,0l0,0l0,0c0-0.826,0-1.652,0-2.477
		l0.826,0.826c0.826,0,0.826-0.826,0.826-0.826c0-0.826-0.826-0.826-0.826-0.826c-0.826,0-0.826,0-0.826,0.826l0,0
		c-1.652-5.781-5.781-13.213-7.432-14.039c0,1.652,0,3.303,0,4.129c0.826,9.084,4.955,14.039,7.432,13.213
		c0.826,0.826,0.826,1.652,1.652,2.477c0,1.652-0.826,4.129-1.652,5.781c0-0.826-0.826-1.652-0.826-3.303s0-3.303,0-4.129l0,0l0,0
		l0,0c0,0.826-0.826,0.826-0.826,1.652c-1.652-2.477-3.303-5.781-3.303-5.781l0,0l0,0c0,4.129,0.826,7.432,1.652,9.91
		c-2.477,5.781-1.652,10.735,0,11.561c-0.826,1.652-1.652,4.129-2.477,5.781c-1.652,3.303-4.129,6.606-6.606,9.084v-4.129
		c0,0,0,0,0.826,0c1.652-4.129,0.826-14.039,0-15.69l0,0l0,0c-1.652,4.129-2.477,7.432-2.477,10.735l0,0l0,0l0,0
		c-4.955,5.781-4.955,12.387-4.129,14.039c0,0,0,0,0.826,0.826c-1.652,1.652-2.477,2.477-4.129,4.129c0,0,0,0-0.826,0.826
		c3.303-4.955,4.129-18.168,3.303-19.819l0,0l0,0c-2.477,3.303-4.129,6.606-4.955,9.084c0-1.652,0-3.303-0.826-4.955l0,0l0,0
		c-1.652,1.652-6.606,13.213-5.781,18.994c0.826,0,0.826,0,1.652,0h-0.826c-3.303,1.652-7.432,2.477-11.561,4.129
		c-1.652,0.826-2.477,1.652-4.129,2.477l1.652-2.477c0.826,0,1.652,0,3.303-0.826c3.303-1.652,7.432-7.432,9.91-15.69l0,0l0,0
		c-0.826,0-3.303,1.652-5.781,4.129c0.826-1.652,0.826-3.303,1.652-4.955l0,0c-1.652,0.826-11.561,10.735-13.213,16.516
		c0,0,0.826,0,0.826,0.826c-1.652,0.826-1.652,2.477-2.477,3.303c-4.955,0.826-9.91,2.477-14.865,4.955
		c-0.826,0.826-1.652,0.826-2.477,1.652l0,0l0.826,0.826c0.826-0.826,1.652-1.652,2.477-1.652c4.129-1.652,8.258-3.303,12.387-4.129
		c0.826,0.826,2.477,0.826,3.303,1.652c-0.826,2.477,3.303,5.781,9.91,7.432c1.652,0.826,4.129,0.826,6.606,0.826
		c-0.826-1.652-10.736-8.258-16.516-8.258l0,0l0,0c0,0,0,0,0,0.826l-3.303-1.652c1.652,0,3.303-0.826,5.781-0.826
		c0.826,0,0.826,0,1.652-0.826l4.129,0.826l0,0c3.303,4.129,14.865,8.258,16.516,8.258l0,0l0,0
		c-1.652-2.477-3.303-4.129-4.955-5.781c4.129,0.826,7.432,1.652,9.084,1.652l0,0l0,0c-6.606-6.606-14.039-8.258-16.516-6.606
		l-0.826,0.826c-2.477,0-4.129,0-6.606,0c0.826-0.826,1.652-0.826,1.652-0.826c2.477-1.652,5.781-1.652,9.084-3.303l1.652,0.826
		c0,0.826,0.826,1.652,1.652,2.477c3.303,2.477,10.736,2.477,19.819-1.652l0,0l0,0c-1.652-0.826-15.69-3.303-21.471-0.826l0,0
		c-0.826,0-0.826,0-1.652-0.826c0.826,0,1.652-0.826,2.477-0.826c0,0,0.826-0.826,1.652-0.826c0.826-0.826,1.652-0.826,1.652-1.652
		c0.826,0,1.652,0,2.477,0l0.826,0.826c3.303,1.652,11.561,0.826,20.645-6.606l0,0l0,0c-1.652-0.826-16.516,0.826-21.471,4.955
		v0.826h-2.477c0.826-0.826,2.477-0.826,3.303-2.477c2.477-2.477,4.129-4.129,6.606-6.606l0.826,0.826
		c2.477,1.652,9.084-1.652,14.865-9.084l0,0l0,0c-1.652,0-8.258,2.477-13.213,5.781c2.477-2.477,4.129-4.955,5.781-8.258h1.652
		c0,0.826,0,0.826,0.826,0.826c2.477,1.652,9.91,0.826,17.342-4.955l0,0l0,0c-1.652-0.826-14.039,0.826-18.168,4.129l0,0
		c-0.826,0-0.826,0-1.652,0c0,0,0-0.826,0.826-0.826c0.826-1.652,0.826-2.477,1.652-4.129l0.826-0.826l0,0
		c0,0.826,0.826,0.826,1.652,0.826c2.477,0,5.781-2.477,9.084-7.432C328.671,269.213,331.974,267.561,332.8,267.561L332.8,267.561
		L332.8,267.561L332.8,267.561z M321.239,254.348C322.065,254.348,322.065,255.174,321.239,254.348l-0.826,2.477
		c0-1.652,0-3.303,0-4.955l0,0c0.826,0,1.652,0,2.477-0.826C322.065,252.697,322.065,253.523,321.239,254.348z M321.239,250.219
		L321.239,250.219L321.239,250.219L321.239,250.219z M320.413,236.181c0.826,0.826,1.652,0,3.303-0.826
		c-0.826,2.477-2.477,5.781-3.303,9.084C320.413,241.961,320.413,238.658,320.413,236.181L320.413,236.181z M313.806,215.535
		c0.826-0.826,0.826-2.477,0.826-3.303c0,0,0,0,0.826,0c0.826,0,0.826-0.826,1.652-2.477c0,3.303-0.826,7.432,0,9.91
		c0,0,0,0,0.826,0l-0.826,3.303C316.284,220.49,315.458,218.013,313.806,215.535z M319.587,244.439
		c-0.826-1.652-1.652-4.129-2.477-5.781c0.826,0,1.652,0,2.477-0.826C319.587,239.484,319.587,241.961,319.587,244.439z
		 M316.284,267.561L316.284,267.561C317.11,267.561,317.11,267.561,316.284,267.561C317.11,267.561,317.11,267.561,316.284,267.561
		C317.11,267.561,317.11,267.561,316.284,267.561c0,0.826,0,1.652-0.826,3.303C316.284,269.213,316.284,268.387,316.284,267.561z
		 M271.69,311.329c-0.826,0-1.652,0-2.477,0.826l2.477-3.303c0.826,0,1.652,0,1.652,0l0,0c0,0,0.826,0,0.826,0.826
		C274.168,308.852,273.342,310.503,271.69,311.329C272.516,311.329,272.516,311.329,271.69,311.329z M281.6,311.329L281.6,311.329
		L281.6,311.329c-0.826,0-1.652,0-1.652,0.826c0,0-0.826,0-0.826,0.826c-1.652-0.826-3.303-0.826-4.955-0.826h0.826L281.6,311.329z
		 M289.858,303.071L289.858,303.071c0.826-1.652,1.652-3.303,2.477-4.955c0,0.826,0,0.826,0.826,1.652
		c0,0.826,0.826,0.826,1.652,0.826C292.335,301.419,290.684,302.245,289.858,303.071z M300.594,294.813
		c1.652-3.303,1.652-9.084,1.652-11.561c0,1.652,0.826,2.477,1.652,3.303c0,0,0.826,0,0.826,0.826c0,1.652,0,2.477,0,4.129
		C303.071,292.335,302.245,293.161,300.594,294.813z M314.632,277.471C314.632,277.471,313.806,277.471,314.632,277.471
		c0-0.826,0.826-1.652,0.826-3.303l2.477-2.477l0,0c0,0,0.826,0,1.652,0C317.11,273.342,315.458,274.994,314.632,277.471z"/>
	<path style="fill:#67923D;" d="M317.935,222.968L317.935,222.968C317.935,222.968,317.935,223.794,317.935,222.968
		c0.826,0.826,1.652,0.826,1.652,0S318.761,222.142,317.935,222.968C317.935,222.142,317.935,222.142,317.935,222.968z"/>
	<circle style="fill:#67923D;" cx="322.065" cy="259.303" r="0.826"/>
	<circle style="fill:#67923D;" cx="307.2" cy="283.252" r="0.826"/>
	<circle style="fill:#67923D;" cx="312.155" cy="285.729" r="0.826"/>
	<circle style="fill:#67923D;" cx="280.774" cy="309.677" r="0.826"/>
	<circle style="fill:#67923D;" cx="275.819" cy="312.981" r="0.826"/>
	<path style="fill:#67923D;" d="M313.806,218.839C313.806,218.013,312.981,218.013,313.806,218.839
		c-1.652-0.826-1.652-0.826-1.652,0l0,0C312.155,218.839,312.155,219.665,313.806,218.839
		C312.981,219.665,313.806,218.839,313.806,218.839z"/>
</g>
<g>
	<path style="fill:#8C959D;" d="M289.032,216.361L289.032,216.361l-2.477-1.652l0,0l0,0l0.826-0.826l0,0c0,0,0,0-0.826-0.826
		c0,0,0,0-0.826,0l-0.826,0.826c-0.826,0-0.826,0.826-0.826,0.826c-4.129,4.129-7.432,7.432-11.561,11.561l0,0v-0.826l0,0
		c-9.91,9.084-18.994,18.168-28.903,28.077l-16.516,15.69c-0.826,0.826-3.303,2.477-4.955,3.303c-0.826,0-0.826,0.826-1.652,0.826
		l-0.826,1.652c-0.826,0-1.652,0-2.477,0c0.826,0.826,0.826,0.826,1.652,0.826l-0.826,1.652c0,0.826-1.652,2.477-1.652,3.303
		c-1.652,1.652-2.477,3.303-4.955,4.955c0,0.826-0.826,0-1.652,0.826c-1.652,0.826-2.477,2.477-4.129,3.303l-9.084,9.91
		c-0.826,0.826-0.826,0.826,0,1.652l4.955,6.606c0.826,0.826,1.652,1.652,2.477,0.826c2.477-4.129,8.258-9.91,9.91-14.865
		c1.652-2.477,3.303-8.258,4.129-9.084l0,0l0,0l0.826,0.826c0,0,0,0,0.826,0h0.826c0.826,0,0.826,0,0.826,0l0.826-0.826l0.826-0.826
		c0,0,0-0.826,0-1.652V281.6c0,0,0,0,0-0.826l-0.826-0.826c1.652-1.652,3.303-3.303,4.955-4.955c0,0,0,0,0.826-0.826l0,0
		c0,0,0,0,0.826-0.826l0.826-0.826c14.039-14.865,30.555-31.381,43.768-45.419l0,0l0.826-0.826l-0.826-0.826
		c2.477-2.477,4.955-5.781,7.432-8.258c-0.826-0.826,0,0-0.826-0.826c0.826-0.826,2.477-2.477,3.303-3.303l0,0c0,0,0,0,0.826,0
		l1.652,2.477c0.826,0.826,0.826,0.826,1.652,0l23.123-21.471L289.032,216.361z M223.794,281.6h0.826l0.826,0.826v0.826
		c0,0,0,0.826-0.826,0.826l0,0l-0.826,0.826h-0.826c0,0,0,0-0.826,0l0,0c0,0,0,0,0-0.826c0,0,0,0,0-0.826l0,0l0.826-0.826
		c0,0.826,0.826,1.652,1.652,1.652c0,0,0.826-0.826,0,0h-0.826C222.968,283.252,222.142,282.426,223.794,281.6
		C222.968,282.426,222.968,281.6,223.794,281.6L223.794,281.6z"/>
	<path style="fill:#8C959D;" d="M309.677,303.071l-8.258-10.736c-0.826-0.826-2.477-2.477-3.303-3.303c-0.826,0-0.826,0-1.652-0.826
		c-1.652-1.652-3.303-3.303-4.129-4.955l0,0c0,0-1.652-2.477-1.652-3.303l0,0l0,0l0,0l-0.826-1.652c0.826,0,1.652-0.826,1.652-0.826
		c-0.826,0-1.652,0.826-2.477,0l-0.826-1.652c0,0-0.826-0.826-1.652-0.826c-1.652-0.826-4.129-2.477-4.955-3.303l-15.69-16.516
		c-9.91-9.91-18.168-19.819-27.252-29.729l0,0l-0.826-0.826l0,0c-3.303-4.129-7.432-7.432-10.735-11.561
		c0-0.826,0-0.826-0.826-0.826l-0.826-0.826c0,0,0,0-0.826,0c0,0,0,0-0.826,0.826l0,0l0.826,0.826l0,0l0,0v1.652h-0.826
		l-22.297-20.645l22.297,22.297c0,0,0.826,0,1.652,0l2.477-2.477c0,0,0,0,0.826,0l0,0c0.826,0.826,1.652,2.477,3.303,3.303
		c-0.826,0.826,0,0-0.826,0.826c2.477,2.477,4.955,5.781,7.432,8.258l0,0l0.826,0.826l0,0c12.387,14.865,28.077,32.206,41.29,47.897
		l0.826,0.826c0,0,0,0.826,0.826,0.826c0,0,0,0,0.826,0.826c0.826,0.826,2.477,2.477,3.303,3.303
		c0.826,0.826,0.826,0.826,1.652,1.652c0,0-0.826,0-0.826,0.826c0,0,0,0-0.826,0.826c0,0,0,0,0,0.826c0,0.826,0,0.826,0,1.652
		c0,0,0,0.826,0.826,0.826l0.826,0.826c0,0,0.826,0,0.826,0.826h0.826c0,0,0,0,0.826,0l0.826-0.826l0,0
		c0.826,1.652,2.477,6.606,3.303,9.91c1.652,4.955,7.432,11.561,9.91,15.69c0,0.826,1.652,0,2.477-0.826l4.955-6.606
		C310.503,303.897,310.503,303.071,309.677,303.071z M284.903,284.077v-0.826c0,0,0-0.826,0.826-0.826h0.826l0.826,0.826
		c0,0,0,0.826-0.826,0.826h-0.826l0,0c0.826,0,1.652-0.826,1.652-1.652c0,0,0,0.826,0.826,0.826c0,0,0,0,0,0.826c0,0,0,0,0,0.826
		l0,0c0,0,0,0-0.826,0h-0.826l-0.826-0.826C285.729,284.077,284.903,284.903,284.903,284.077z"/>
</g>
<path style="fill:#FAB81C;" d="M289.858,302.245C289.858,302.245,289.858,301.419,289.858,302.245
	C289.858,301.419,289.858,301.419,289.858,302.245c0-0.826,0-1.652-0.826-1.652l0,0l0,0c0,0,0-0.826-0.826-0.826l0,0
	c0,0,0-0.826-0.826-0.826l0,0c0,0,0-0.826-0.826-0.826c0,0,0,0-0.826,0l0,0c-0.826-0.826-2.477-1.652-3.303-1.652l0,0
	c-1.652,0-2.477,0.826-4.129,1.652c-15.69-17.342-30.555-32.206-47.897-43.768c-2.477-1.652-8.258-4.129-10.735-4.129l0,0l0,0l0,0
	l0,0l0,0c2.477,1.652,5.781,3.303,8.258,4.955c2.477,1.652,4.955,3.303,7.432,5.781c4.955,4.129,9.91,8.258,14.865,12.387
	s9.084,9.084,13.213,13.213c4.129,4.129,8.258,9.084,11.561,13.213l0,0c0,0,0,0-0.826,0c-0.826,0-0.826,0-0.826,0.826
	c0,0.826,0,1.652,0.826,2.477c0.826,0.826,0.826,0.826,1.652,0.826c0.826,0,0.826-0.826,1.652-0.826l0,0l0,0l0,0
	c0,0.826,0.826,0.826,0.826,1.652l0,0l0,0l0.826,0.826l0,0l0,0c0.826,0.826,1.652,1.652,2.477,2.477l0,0l0,0l0.826,0.826l0,0l0,0
	c0.826,0.826,1.652,1.652,2.477,2.477c1.652,0,2.477-0.826,1.652-1.652l-0.826-0.826l0,0
	C289.858,306.374,290.684,304.723,289.858,302.245L289.858,302.245z M276.645,300.594
	C276.645,300.594,277.471,300.594,276.645,300.594C277.471,300.594,277.471,300.594,276.645,300.594L276.645,300.594z
	 M287.381,307.2L287.381,307.2L287.381,307.2L287.381,307.2L287.381,307.2L287.381,307.2L287.381,307.2
	c0-0.826-0.826-1.652-0.826-0.826l0,0l0,0l0,0l0,0l0,0c0-0.826-0.826-1.652-0.826-1.652l0,0l0,0l0,0l0,0l0,0l0,0
	c0-0.826,0-1.652-0.826-0.826l0,0l0,0l0,0l0,0c0-0.826,0-1.652-0.826-1.652c0-0.826,0-1.652-0.826-0.826l0,0l0,0l0,0
	c0-0.826,0-0.826,0-0.826c0.826-0.826,1.652-1.652,2.477-1.652c0.826-0.826,1.652,0,2.477,0l0,0c0,0,0,0.826,0.826,0.826l0,0l0,0
	l0,0c0,0,0,0.826,0.826,0.826l0,0l0,0c0,0,0,0.826,0.826,0.826l0,0l0,0l0,0v0.826l0,0c0,0,0,0.826,0.826,0.826l0,0l0,0
	C289.858,304.723,289.032,306.374,287.381,307.2z"/>
<path style="fill:#406325;" d="M203.974,211.406c4.955-1.652,14.039-11.561,14.039-13.213
	C206.452,201.497,201.497,208.929,203.974,211.406z"/>
<path style="fill:#67923D;" d="M203.974,211.406c-2.477-2.477,2.477-9.91,14.039-13.213
	C209.755,204.8,203.974,210.581,203.974,211.406L203.974,211.406z"/>
<path style="fill:#406325;" d="M311.329,215.535c-1.652-4.955-9.91-14.039-11.561-14.865
	C302.245,211.406,308.852,217.187,311.329,215.535z"/>
<path style="fill:#67923D;" d="M311.329,215.535c-2.477,2.477-9.084-3.303-11.561-14.865
	C305.548,208.929,310.503,214.71,311.329,215.535z"/>
<path style="fill:#FAB81C;" d="M293.161,251.871L293.161,251.871L293.161,251.871L293.161,251.871
	c-3.303,0-9.084,2.477-10.735,4.129c-18.168,9.91-33.858,23.948-50.374,40.465c-0.826-0.826-2.477-1.652-4.129-1.652l0,0
	c-0.826,0-2.477,0-3.303,1.652l0,0c0,0,0,0-0.826,0c0,0-0.826,0-0.826,0.826l0,0l-0.826,0.826l0,0l-0.826,0.826l0,0l0,0
	l-0.826,0.826l0,0v0.826l0,0c-0.826,2.477,0,4.129,0.826,5.781l0,0h-0.826c-0.826,0.826,0,2.477,1.652,2.477
	c0.826-0.826,1.652-1.652,2.477-1.652l0,0l0,0c0.826,0,0.826-0.826,1.652-0.826l0,0l0,0c0.826-0.826,1.652-1.652,2.477-1.652l0,0
	l0,0l0.826-0.826l0,0l0,0l0.826-0.826l0,0l0,0l0,0c0,0,0.826,0.826,1.652,0.826c0.826,0,0.826,0,1.652-0.826
	c0.826-0.826,1.652-1.652,0.826-2.477c0-0.826-0.826-0.826-0.826-0.826l0,0l0,0c4.129-4.129,8.258-9.084,12.387-13.213
	c4.955-4.129,9.084-8.258,14.039-12.387c4.955-4.129,9.91-8.258,15.69-11.561c2.477-1.652,4.955-3.303,8.258-4.955
	C287.381,254.348,289.858,252.697,293.161,251.871L293.161,251.871L293.161,251.871z M227.097,301.419L227.097,301.419
	L227.097,301.419L227.097,301.419L227.097,301.419L227.097,301.419c-0.826,0-1.652,0.826-0.826,0.826l0,0l0,0l0,0l0,0
	c-0.826,0-1.652,0.826-0.826,0.826l0,0l0,0l0,0c-0.826,0-1.652,0.826-0.826,0.826l0,0l0,0l0,0l0,0l0,0l0,0l0,0
	c-1.652-0.826-2.477-3.303-1.652-4.955l0,0l0,0l0.826-0.826l0,0v-0.826l0,0l0,0l0,0l0,0l0.826-0.826l0,0l0,0
	c0,0,0.826,0,0.826-0.826l0,0l0,0l0.826-0.826l0,0c0.826,0,1.652-0.826,2.477,0c0.826,0.826,1.652,1.652,2.477,2.477l-0.826,0.826
	l0,0l0,0l0,0l0,0l0,0l0,0l0,0c-0.826,0-0.826,0.826-0.826,0.826C227.097,299.768,226.271,300.594,227.097,301.419L227.097,301.419z
	 M233.703,298.942L233.703,298.942L233.703,298.942L233.703,298.942z"/>
<path style="fill:#F2DC70;" d="M282.426,256.826c0-1.652,0-4.129-0.826-5.781c0-1.652-0.826-3.303-1.652-4.955c0,0,0,0,0-0.826l0,0
	l0,0l0,0l0,0c-0.826-2.477-2.477-5.781-3.303-8.258l0,0l0,0l0,0c-0.826-2.477-2.477-4.955-4.129-7.432
	c-1.652-2.477-3.303-4.955-4.955-7.432c4.955-0.826,4.955-7.432,1.652-9.91c-9.91,0-22.297,0-32.206,0l0,0c-0.826,0-1.652,0-2.477,0
	h-2.477h-0.826H230.4c-0.826,0-1.652,0.826-1.652,0.826c-0.826,0.826-0.826,0.826-1.652,1.652c0,0.826-0.826,1.652-0.826,1.652
	c0,1.652,0,2.477,0,4.129c0,1.652,0.826,2.477,1.652,4.129l1.652,3.303c1.652,2.477,2.477,4.955,3.303,7.432
	c2.477,4.129,4.129,9.91,5.781,14.865v0.826c0,1.652,0.826,2.477,0.826,4.129c-1.652,0-5.781,0-7.432,0.826l0,0
	c0,0-4.129,0.826-4.129,5.781c0,0.826,0,1.652,0,1.652c0.826,5.781,5.781,5.781,5.781,5.781l0,0l0,0l0,0l10.735-0.826l10.735-0.826
	c3.303,0,7.432-0.826,10.735-0.826c1.652,0,3.303,0,4.955,0c0.826,0,1.652,0,2.477,0c0.826,0,1.652,0,2.477,0l0,0l0,0
	c0.826-0.826,1.652-0.826,2.477-1.652c0.826-0.826,0.826-1.652,1.652-2.477c0-0.826,0.826-1.652,0.826-3.303
	C282.426,258.477,282.426,257.652,282.426,256.826z M233.703,235.355L233.703,235.355L233.703,235.355c0,0.826,0,0.826,0,0.826l0,0
	V235.355z"/>
<g>
	<path style="fill:#34541F;" d="M261.781,322.065c4.129-8.258,8.258-15.69,13.213-23.948c-0.826-0.826-0.826-1.652-1.652-1.652
		C268.387,305.548,261.781,316.284,261.781,322.065z"/>
	<path style="fill:#34541F;" d="M293.161,237.832c-0.826-3.303-1.652-6.606-3.303-9.91c-1.652-4.129-4.955-8.258-9.084-12.387
		c-6.606-7.432-14.039-14.865-23.948-19.819l0,0l0,0l0,0l0,0l0,0l0,0l0,0l0,0l0,0l0,0l0,0l0,0l0,0l0,0l0,0l0,0l0,0l0,0h0.826l0,0
		h0.826h-0.826h0.826h-0.826h0.826h-0.826v-0.826h-0.826v-0.826H256l0,0l0,0h-0.826v-0.826h-0.826v-0.826h-0.826v-0.826h-0.826
		v-0.826l0,0v-0.826v0.826v-0.826l0,0v-0.826v0.826v-0.826v0.826v-0.826v0.826v-0.826v0.826v-0.826v0.826v-0.826v0.826v-0.826v0.826
		v-0.826v0.826v-0.826v0.826l0,0v0.826l0,0v0.826l0,0v0.826l0,0v0.826l0,0l0,0l0,0l0,0l0,0l0,0c0,0.826,0,0.826,0,1.652l0,0l0,0l0,0
		l0,0l0,0c-0.826,0-0.826,0.826-1.652,0.826c0.826,0,0.826,0,1.652,0c0,0,0,0,0.826,0v0.826c-0.826,1.652-2.477,3.303-2.477,5.781
		c0,0,0-0.826,0.826-0.826c-0.826,3.303,1.652,6.606,5.781,9.084c1.652,0.826,3.303,1.652,4.955,1.652l0,0c0,0,0.826,0,1.652,0
		h0.826c0,0.826,0,0.826-0.826,1.652c0.826,0,1.652-0.826,2.477-1.652l0,0c0,0.826-0.826,1.652-0.826,3.303
		c0-0.826,0.826-1.652,1.652-1.652c0,0.826,0,1.652-0.826,2.477c1.652,0,2.477-0.826,3.303-1.652c0,0.826,0,1.652,0.826,3.303
		c0-1.652,0-1.652,0.826-2.477c0,1.652,0.826,3.303,2.477,4.129c-1.652-4.129-2.477-4.955-1.652-5.781
		c0,0.826,1.652,2.477,1.652,3.303c0-0.826,0-2.477,0.826-3.303c0.826,1.652,0.826,2.477,0.826,4.129
		c0-0.826,0.826-1.652,0.826-2.477c14.865,14.865,18.168,34.684,1.652,55.329c5.781-4.129,7.432-9.91,10.735-14.865
		c-3.303,6.606-4.129,14.865-9.91,20.645c4.955-4.955,6.606-9.084,9.91-13.213c-3.303,9.084-8.258,18.994-14.865,28.903
		c0.826,1.652,2.477,2.477,3.303,4.129c0.826-1.652,1.652-3.303,3.303-4.955C287.381,279.123,298.942,262.606,293.161,237.832z"/>
	<path style="fill:#34541F;" d="M247.742,315.458c10.735-3.303,18.168-11.561,25.6-18.994l-0.826-0.826l-0.826-0.826
		C265.91,302.245,257.652,310.503,247.742,315.458z"/>
</g>
<g>
</g>
<g>
</g>
<g>
</g>
<g>
</g>
<g>
</g>
<g>
</g>
<g>
</g>
<g>
</g>
<g>
</g>
<g>
</g>
<g>
</g>
<g>
</g>
<g>
</g>
<g>
</g>
<g>
</g>
</svg>
