<?xml version="1.0" encoding="iso-8859-1"?>
<!-- Generator: Adobe Illustrator 19.0.0, SVG Export Plug-In . SVG Version: 6.00 Build 0)  -->
<svg version="1.1" id="Capa_1" xmlns="http://www.w3.org/2000/svg" xmlns:xlink="http://www.w3.org/1999/xlink" x="0px" y="0px"
	 viewBox="0 0 496 496" style="enable-background:new 0 0 496 496;" xml:space="preserve">
<path style="fill:#2B479D;" d="M496,369.6c0,27.2-21.6,46.4-48,46.4H48c-26.4,0-48-19.2-48-46.4V126.4C0,99.2,21.6,80,48,80h400
	c26.4,0,48,19.2,48,46.4V369.6z"/>
<path style="fill:#183887;" d="M48,80h400c26.4,0,48,19.2,48,46.4v243.2c0,27.2-25.6,46.4-52,46.4"/>
<g>
	<path style="fill:#0B2F77;" d="M48,80h400c26.4,0,48,19.2,48,46.4V216"/>
	<path style="fill:#0B2F77;" d="M496,368.8c0,29.6-21.6,47.2-48,47.2H48c-26.4,0-48-20.8-48-48"/>
</g>
<g>
	<polygon style="fill:#F8D12E;" points="247.2,124.8 251.2,136 263.2,136 253.6,142.4 256.8,154.4 247.2,146.4 237.6,153.6 
		240.8,142.4 231.2,136 243.2,136 	"/>
	<polygon style="fill:#F8D12E;" points="247.2,340.8 251.2,352 263.2,352 253.6,360 256.8,372 247.2,364.8 237.6,372 240.8,360 
		231.2,352 243.2,352 	"/>
	<polygon style="fill:#F8D12E;" points="307.2,140.8 311.2,152 323.2,152 313.6,160.8 316.8,172.8 307.2,165.6 297.6,172.8 
		300.8,160 291.2,152 303.2,152 	"/>
	<polygon style="fill:#F8D12E;" points="348,180.8 352,192 364,192 354.4,200.8 357.6,212.8 348,206.4 338.4,213.6 342.4,200.8 
		332,192 344,192 	"/>
	<polygon style="fill:#F8D12E;" points="348.8,284.8 352.8,296 364.8,296 355.2,304 359.2,315.2 348.8,308 339.2,316 343.2,303.2 
		332.8,296 345.6,296 	"/>
	<polygon style="fill:#F8D12E;" points="148,180.8 151.2,192 164,192 153.6,200.8 157.6,212.8 148,206.4 137.6,213.6 141.6,200.8 
		132,192 144,192 	"/>
	<polygon style="fill:#F8D12E;" points="357.6,228.8 361.6,240 373.6,240 364,248.8 367.2,261.6 357.6,254.4 348,262.4 351.2,248.8 
		341.6,240 353.6,240 	"/>
	<polygon style="fill:#F8D12E;" points="138.4,228.8 142.4,240 154.4,240 144.8,248.8 148,261.6 138.4,254.4 128.8,262.4 132,248.8 
		122.4,240 134.4,240 	"/>
	<polygon style="fill:#F8D12E;" points="146.4,284.8 150.4,296 162.4,296 152.8,304 156,315.2 146.4,308 136.8,316 140,303.2 
		130.4,296 142.4,296 	"/>
	<polygon style="fill:#F8D12E;" points="308.8,324.8 312.8,336 324.8,336 315.2,344.8 319.2,356.8 308.8,350.4 299.2,357.6 
		303.2,344.8 292.8,336 304.8,336 	"/>
	<polygon style="fill:#F8D12E;" points="188.8,140.8 192.8,152 204.8,152 195.2,160.8 199.2,172.8 188.8,165.6 179.2,172.8 
		183.2,160 172.8,152 185.6,152 	"/>
	<polygon style="fill:#F8D12E;" points="184.8,324.8 188.8,336 200.8,336 190.4,344 194.4,356.8 184.8,349.6 175.2,356.8 178.4,344 
		168.8,336 180.8,336 	"/>
</g>
<g>
</g>
<g>
</g>
<g>
</g>
<g>
</g>
<g>
</g>
<g>
</g>
<g>
</g>
<g>
</g>
<g>
</g>
<g>
</g>
<g>
</g>
<g>
</g>
<g>
</g>
<g>
</g>
<g>
</g>
</svg>
