<?xml version="1.0" encoding="iso-8859-1"?>
<!-- Generator: Adobe Illustrator 19.0.0, SVG Export Plug-In . SVG Version: 6.00 Build 0)  -->
<svg version="1.1" id="Capa_1" xmlns="http://www.w3.org/2000/svg" xmlns:xlink="http://www.w3.org/1999/xlink" x="0px" y="0px"
	 viewBox="0 0 496 496" style="enable-background:new 0 0 496 496;" xml:space="preserve">
<path style="fill:#DA121A;" d="M0,304.8v64.8c0,27.2,21.6,48.8,48,48.8h400c26.4,0,48-21.6,48-48.8v-64.8H0z"/>
<path style="fill:#078930;" d="M448,77.6H48c-26.4,0-48,21.6-48,48.8v64.8h496v-64.8C496,99.2,474.4,77.6,448,77.6z"/>
<rect y="189.6" style="fill:#FCDD09;" width="496" height="116"/>
<path style="fill:#C60A18;" d="M448,418.4c26.4,0,48-21.6,48-48.8v-64.8H315.2L448,418.4z"/>
<path style="fill:#057525;" d="M448,77.6H48l132.8,113.6H496v-64.8C496,99.2,474.4,77.6,448,77.6z"/>
<polygon style="fill:#E5C507;" points="316,306.4 496,306.4 496,189.6 180,189.6 "/>
<path style="fill:#03601B;" d="M448,77.6H48l370.4,113.6H496v-64.8C496,99.2,474.4,77.6,448,77.6z"/>
<polygon style="fill:#C9A909;" points="496,214.4 496,189.6 414.4,189.6 "/>
<path style="fill:#A50417;" d="M496,369.6c0,27.2-21.6,48.8-48,48.8H48c-26.4,0-48-21.6-48-48.8"/>
<circle style="fill:#0F47AF;" cx="248" cy="248" r="101.6"/>
<path style="fill:#092F6D;" d="M248,146.4c-31.2,0-58.4,13.6-76.8,36l8.8,7.2l0,0l136.8,116l8.8,7.2c15.2-17.6,24-40.8,24-65.6
	C349.6,192,304,146.4,248,146.4z"/>
<g>
	<polygon style="fill:#FCDD09;" points="240,272.8 245.6,268.8 195.2,232 184,232 218.4,257.6 200,313.6 209.6,306.4 224,261.6 	"/>
	<polygon style="fill:#FCDD09;" points="227.2,229.6 221.6,248 227.2,252 246.4,192.8 243.2,181.6 229.6,222.4 171.2,222.4 
		180,229.6 	"/>
	<polygon style="fill:#FCDD09;" points="269.6,232 262.4,232 281.6,291.2 290.4,298.4 277.6,257.6 324.8,222.4 313.6,222.4 
		275.2,250.4 	"/>
	<polygon style="fill:#FCDD09;" points="239.2,222.4 237.6,229.6 300,229.6 309.6,222.4 266.4,222.4 248,166.4 244.8,177.6 
		259.2,222.4 	"/>
	<polygon style="fill:#FCDD09;" points="253.6,274.4 269.6,263.2 267.2,256 216.8,292.8 212.8,304 248,278.4 296,313.6 292,302.4 	
		"/>
	
		<rect x="260.906" y="198.696" transform="matrix(0.5877 -0.8091 0.8091 0.5877 -45.4184 311.459)" style="fill:#FCDD09;" width="43.997" height="3.2"/>
	
		<rect x="302.316" y="244.387" transform="matrix(-0.3093 0.951 -0.951 -0.3093 651.2402 59.7653)" style="fill:#FCDD09;" width="3.2" height="44.001"/>
	
		<rect x="169.648" y="264.854" transform="matrix(-0.951 0.3092 -0.3092 -0.951 456.2922 460.5938)" style="fill:#FCDD09;" width="44" height="3.2"/>
	<rect x="246.4" y="284.8" style="fill:#FCDD09;" width="3.2" height="44"/>
	
		<rect x="191.362" y="198.438" transform="matrix(-0.5877 -0.8091 0.8091 -0.5877 176.905 490.2278)" style="fill:#FCDD09;" width="44.001" height="3.2"/>
</g>
<g>
</g>
<g>
</g>
<g>
</g>
<g>
</g>
<g>
</g>
<g>
</g>
<g>
</g>
<g>
</g>
<g>
</g>
<g>
</g>
<g>
</g>
<g>
</g>
<g>
</g>
<g>
</g>
<g>
</g>
</svg>
