<?xml version="1.0" encoding="iso-8859-1"?>
<!-- Generator: Adobe Illustrator 19.0.0, SVG Export Plug-In . SVG Version: 6.00 Build 0)  -->
<svg version="1.1" id="Capa_1" xmlns="http://www.w3.org/2000/svg" xmlns:xlink="http://www.w3.org/1999/xlink" x="0px" y="0px"
	 viewBox="0 0 496 496" style="enable-background:new 0 0 496 496;" xml:space="preserve">
<path style="fill:#359846;" d="M0,248v121.6C0,396.8,21.6,416,48,416h400c26.4,0,48-19.2,48-46.4V248H0z"/>
<path style="fill:#217F2A;" d="M248,248l197.6,168c26.4,0,50.4-19.2,50.4-46.4V248H248z"/>
<path style="fill:#3D91CF;" d="M448,80H48C21.6,80,0,99.2,0,126.4V248h496V126.4C496,99.2,474.4,80,448,80z"/>
<path style="fill:#167AB7;" d="M448,80H48l200,168h248V126.4C496,99.2,474.4,80,448,80z"/>
<path style="fill:#186B1E;" d="M496,368.8c0,29.6-21.6,47.2-48,47.2H48c-26.4,0-48-20.8-48-48"/>
<path style="fill:#0A6C9E;" d="M48,80h400c26.4,0,48,19.2,48,46.4V216"/>
<path style="fill:#F3F2F2;" d="M2.4,110.4c-1.6,4.8-2.4,10.4-2.4,16V248l0,0v121.6c0,5.6,0.8,11.2,2.4,16L140,248L2.4,110.4z"/>
<path style="fill:#FDFFFD;" d="M79.2,308.8L140,248L2.4,110.4c-1.6,4.8-2.4,10.4-2.4,16"/>
<polygon style="fill:#D32027;" points="60,211.2 69.6,240 100,240 75.2,257.6 84.8,285.6 60,268 36,285.6 44.8,257.6 20.8,240 
	51.2,240 "/>
<g>
</g>
<g>
</g>
<g>
</g>
<g>
</g>
<g>
</g>
<g>
</g>
<g>
</g>
<g>
</g>
<g>
</g>
<g>
</g>
<g>
</g>
<g>
</g>
<g>
</g>
<g>
</g>
<g>
</g>
</svg>
