<?xml version="1.0" encoding="iso-8859-1"?>
<!-- Generator: Adobe Illustrator 19.0.0, SVG Export Plug-In . SVG Version: 6.00 Build 0)  -->
<svg version="1.1" id="Capa_1" xmlns="http://www.w3.org/2000/svg" xmlns:xlink="http://www.w3.org/1999/xlink" x="0px" y="0px"
	 viewBox="0 0 496 496" style="enable-background:new 0 0 496 496;" xml:space="preserve">
<g>
	<path style="fill:#0F47AF;" d="M0,304.8v64.8c0,27.2,21.6,48.8,48,48.8h400c26.4,0,48-21.6,48-48.8v-64.8H0z"/>
	<path style="fill:#0F47AF;" d="M448,77.6H48c-26.4,0-48,21.6-48,48.8v64.8h496v-64.8C496,99.2,474.4,77.6,448,77.6z"/>
</g>
<rect y="189.6" style="fill:#FFFFFF;" width="496" height="116"/>
<g>
	<path style="fill:#0A429B;" d="M448,418.4c26.4,0,48-21.6,48-48.8v-64.8H315.2L448,418.4z"/>
	<path style="fill:#0A429B;" d="M448,77.6H48l132.8,113.6H496v-64.8C496,99.2,474.4,77.6,448,77.6z"/>
</g>
<polygon style="fill:#E2E2E2;" points="316,306.4 496,306.4 496,189.6 180,189.6 "/>
<path style="fill:#063C89;" d="M448,77.6H48l370.4,113.6H496v-64.8C496,99.2,474.4,77.6,448,77.6z"/>
<polygon style="fill:#BCBCBC;" points="496,214.4 496,189.6 414.4,189.6 "/>
<path style="fill:#063C89;" d="M496,369.6c0,27.2-21.6,48.8-48,48.8H48c-26.4,0-48-21.6-48-48.8"/>
<g transform="translate(16.13)">
	<g>
		<path style="fill:#0F47AF;" d="M216.91,274.4L216.91,274.4l2.4-0.8c0,0,0,0-0.8,0c1.6,0.8,4,2.4,7.2,3.2c4,0.8,4.8,0.8,5.6,0.8
			c0.8,0,1.6,0,5.6-0.8c3.2-0.8,5.6-2.4,6.4-3.2l0,0l2.4,0.8l0,0l0,0h0.8v-0.8v-0.8l0,0c-0.8-0.8-1.6-1.6-3.2-1.6
			c-1.6,0-0.8,0-2.4,0.8c-1.6,0.8-4,2.4-9.6,2.4l0,0c-4.8,0-8-1.6-9.6-2.4c-1.6-0.8-0.8-0.8-2.4-0.8c-1.6,0-3.2,0.8-3.2,1.6l0,0
			C216.11,273.6,216.11,273.6,216.91,274.4C216.11,273.6,216.11,274.4,216.91,274.4C216.11,274.4,216.91,274.4,216.91,274.4z
			 M244.11,273.6C244.91,273.6,244.91,273.6,244.11,273.6C244.91,273.6,244.91,273.6,244.11,273.6z M246.51,273.6L246.51,273.6h-1.6
			l0,0H246.51z M218.51,273.6L218.51,273.6h-2.4l0,0H218.51C217.71,273.6,217.71,273.6,218.51,273.6L218.51,273.6z"/>
		<g>
			<path style="fill:#338E1A;" d="M214.51,278.4L214.51,278.4c0,0.8,0.8,2.4,0.8,2.4L214.51,278.4L214.51,278.4
				C215.31,278.4,215.31,278.4,214.51,278.4c0.8-0.8,0-0.8,0-0.8V278.4L214.51,278.4z"/>
			<path style="fill:#338E1A;" d="M212.11,281.6L212.11,281.6c-0.8-0.8-0.8,0-0.8,0C211.31,282.4,211.31,282.4,212.11,281.6
				C212.11,282.4,212.11,282.4,212.11,281.6z"/>
			<circle style="fill:#338E1A;" cx="200.91" cy="272.8" r="0.8"/>
			<path style="fill:#338E1A;" d="M200.91,230.4C200.91,229.6,200.91,229.6,200.91,230.4c-0.8-0.8-0.8,0-0.8,0
				S200.11,230.4,200.91,230.4C200.11,230.4,200.11,230.4,200.91,230.4C200.11,230.4,200.11,231.2,200.91,230.4v0.8V230.4
				L200.91,230.4z"/>
			<path style="fill:#338E1A;" d="M212.11,281.6L212.11,281.6h2.4C214.51,281.6,212.91,281.6,212.11,281.6z"/>
			<path style="fill:#338E1A;" d="M200.11,230.4L200.11,230.4L200.11,230.4z"/>
			<path style="fill:#338E1A;" d="M199.31,260.8L199.31,260.8L199.31,260.8z"/>
			<path style="fill:#338E1A;" d="M251.31,281.6C250.51,281.6,250.51,281.6,251.31,281.6c-0.8,0.8,0,0.8,0,0.8
				S251.31,282.4,251.31,281.6L251.31,281.6z"/>
			<circle style="fill:#338E1A;" cx="261.71" cy="272.8" r="0.8"/>
			<path style="fill:#338E1A;" d="M247.31,280.8c0,0,0-1.6,0-2.4l0,0c0,0,0.8,0,0.8-0.8c0,0,0-0.8-0.8-0.8c0,0-0.8,0-0.8,0.8l0,0
				l0,0L247.31,280.8z"/>
			<path style="fill:#338E1A;" d="M248.11,281.6l2.4,0.8v-0.8C249.71,281.6,248.11,281.6,248.11,281.6z"/>
			<path style="fill:#338E1A;" d="M262.51,230.4L262.51,230.4C262.51,230.4,263.31,230.4,262.51,230.4c0.8-0.8,0.8-0.8,0-0.8
				C261.71,229.6,261.71,229.6,262.51,230.4C261.71,230.4,261.71,230.4,262.51,230.4C262.51,230.4,261.71,231.2,262.51,230.4
				L262.51,230.4C262.51,231.2,262.51,230.4,262.51,230.4z"/>
			<path style="fill:#338E1A;" d="M262.51,230.4L262.51,230.4L262.51,230.4z"/>
			<path style="fill:#338E1A;" d="M264.11,260.8L264.11,260.8L264.11,260.8z"/>
			<path style="fill:#338E1A;" d="M272.11,252.8c0,0-0.8,0-1.6,0.8h-0.8v-0.8c0-0.8,0-2.4,0-2.4s0,0.8-0.8,1.6
				c-0.8,0-1.6,0.8-1.6,0.8s-0.8,0-0.8,1.6c0,0.8,0,0.8-0.8,1.6l0,0c0-0.8,0-2.4,0.8-3.2c0-0.8,1.6-1.6,1.6-1.6l0,0l0,0
				c0,0,0.8,0,0.8-0.8c0,0,0-0.8-0.8-0.8c0,0-0.8,0-0.8,0.8l0,0h-1.6c0,0,0,0,0-0.8c0,0,0,0,0.8,0c1.6-0.8,2.4-1.6,3.2-2.4
				c0-0.8,0.8-0.8,0.8-1.6l0.8-1.6c0-0.8,0-2.4,0-2.4l-0.8,0.8l0,0v-0.8c0-0.8-0.8-2.4-0.8-2.4s-0.8,0.8-0.8,1.6
				c-0.8,0.8-0.8,0.8-0.8,1.6c0,0-0.8,0.8-0.8,1.6s0,0.8,0,1.6l0,0c0-0.8,0-2.4-0.8-3.2c0-0.8,0.8-1.6,0.8-1.6l0,0c0,0,0,0,0.8,0
				c0,0,0.8,0,0.8-0.8c0,0,0-0.8-0.8-0.8c0,0-0.8,0-0.8,0.8l0,0h-1.6c0,0,0,0,0-0.8l0,0c0,0,0-1.6,0.8-1.6c0.8-0.8,0.8-0.8,0.8-1.6
				s0-0.8,0-1.6s-1.6-2.4-1.6-2.4l-0.8,1.6c-0.8-0.8-1.6-1.6-2.4-1.6c0,0,0-0.8-0.8-0.8v-0.8h-0.8l0,0l0,0v-0.8c0-0.8,0-1.6,0-1.6
				c0-0.8-0.8-0.8-0.8-1.6s0-0.8-0.8-1.6c-0.8-0.8-0.8-0.8-0.8-0.8s0,0.8,0,1.6c0,0,0,0-0.8,0c0,0,0,0-0.8,0c0-0.8-0.8-0.8-0.8-0.8
				l0,0l0,0l0,0l0,0l0,0c0,0,0-0.8-0.8-0.8c0,0-0.8,0-0.8,0.8c0,0,0,0,0,0.8l0,0l0,0l0,0l0,0c0,0,0,0.8,0.8,0.8h-0.8
				c0,0,0,1.6,0,2.4l0,0c-0.8,0-1.6,0-1.6,0l0.8,0.8c0,0,0.8,0.8,0.8,1.6c0,0,0.8,0.8,1.6,0.8c0,0,1.6,0,1.6,0.8h0.8l0,0l0,0
				l-0.8,0.8l0,0c0,0,0-0.8-0.8-0.8c0,0-0.8,0-0.8,0.8c0,0,0,0.8,0.8,0.8h0.8c0,0,0.8,0,1.6,0l0,0c0,0.8,0,0.8,0,1.6l0,0l0,0
				c-0.8,0-1.6-0.8-1.6-0.8c0,0.8,0.8,2.4,0.8,2.4c0.8,0,0.8,0.8,0.8,0.8c0.8,0,1.6,1.6,1.6,1.6c3.2,0,4,0,4,0l0,0l0,0
				c0,0,0,0,0,0.8h-1.6l0,0c0,0,0-0.8-0.8-0.8c0,0-0.8,0-0.8,0.8c0,0,0,0.8,0.8,0.8l0,0l0,0c0,0,0.8,0.8,1.6,0.8
				c0,0.8,0,1.6,0.8,2.4l0,0c-0.8-0.8-0.8-2.4-2.4-3.2v0.8c0,0,0,0.8,0,1.6c-0.8,0-1.6-0.8-1.6-1.6c0,0,0,2.4,0,3.2
				c0.8,0.8,0.8,1.6,1.6,1.6c0.8,0,0.8,0.8,0.8,0.8h0.8l0,0c0,0,0,0,0,0.8c0,0,0,0,0,0.8l0,0h0.8l0,0c0,0,0-0.8-0.8-0.8
				c-0.8,0-0.8,0-0.8,0.8l0,0l0,0c0,0,0,0,0.8,0l0,0l0,0c0,0,1.6,0.8,1.6,1.6c0,0.8,0,2.4-0.8,4v-0.8c0-0.8,0-1.6,0-1.6
				c0-0.8-0.8-0.8-0.8-0.8c0-0.8-0.8-0.8-0.8-0.8c0-0.8-0.8-0.8-0.8-0.8c0,0.8,0,3.2,0,3.2s0,0,0,0.8h-0.8c-0.8,0.8,0,2.4,0,3.2
				c0,0,0,0.8,0.8,0.8v0.8c0,0,0.8,0,0.8,0.8l0,0c0,0.8,0,1.6,0,0.8l0,0l0,0l0,0V260v0.8h-1.6c0,0,0,0,0-0.8c0,0,0-0.8-0.8-0.8
				c0,0-0.8,0-0.8,0.8l0,0l0,0l0,0c0,0,0,0,0.8,0l0.8,1.6c0,0.8,0,0.8-0.8,1.6c0,0,0-0.8-0.8-0.8c-0.8-0.8-0.8-0.8-0.8-1.6
				c0-0.8-0.8-0.8-0.8-1.6c0,0,0,0.8,0,2.4c0,0.8,0,1.6,0,1.6v0.8c0-0.8,0-0.8,0-1.6v-0.8c0,0-0.8,1.6-1.6,1.6l-0.8,1.6
				c0,0,0,0.8,0,1.6c0,0,0,0.8,0,1.6c0,0.8,0.8,1.6,1.6,1.6v0.8c-0.8,0.8-0.8,1.6-1.6,1.6c0-0.8,0-2.4,0-2.4l0,0l0,0
				c0,0,0.8,0,0.8-0.8s0-0.8-0.8-0.8c0,0-0.8,0-0.8,0.8l0,0l0,0l0.8,2.4c-0.8,0.8-0.8,0.8-1.6,1.6l0,0c0,0,0.8-0.8,0-1.6
				c0-0.8,0-1.6-0.8-2.4c0-0.8-0.8-1.6-1.6-2.4c0,0-0.8,1.6-0.8,2.4s0,1.6-0.8,1.6c0,0,0,0,0,0.8c0,0,0,0,0-0.8s-1.6-3.2-1.6-3.2
				c0,0.8-0.8,2.4-0.8,3.2c0,0.8-0.8,1.6-0.8,2.4s-0.8,1.6-0.8,1.6c2.4,2.4,2.4,5.6,2.4,5.6l0,0c-0.8,0.8-2.4,1.6-3.2,1.6
				c0,0-0.8,0-0.8,0.8l0,0c1.6-1.6,1.6-2.4,1.6-2.4c0.8,0-0.8,0-1.6,0c0.8-0.8,0.8-1.6,1.6-2.4c0-0.8-2.4,0-2.4,0h-0.8
				c0-0.8,0.8-1.6,0.8-2.4c0,0-1.6,0-2.4,0.8c-0.8,0-1.6,0.8-2.4,1.6c-0.8,0.8-0.8,2.4-1.6,2.4c-0.8,0.8-0.8,1.6-0.8,1.6
				c0,0.8,0,0.8-0.8,1.6l-0.8,0.8c0-0.8,0-0.8,0-1.6c0,0,0,0,0-0.8l0,0c0-0.8,0-1.6-0.8-1.6c-0.8-0.8-2.4,0-3.2,0s-0.8,4-0.8,4l0,0
				l0,0c0,0,0,0-0.8,0l0,0l0,0l0,0l0,0c0,0-0.8-2.4-0.8-3.2c1.6-0.8,0-0.8-0.8-0.8s-1.6,0-1.6,0s-0.8,0-0.8,2.4c0,0.8,0,1.6,0,1.6
				l-0.8-0.8c0-0.8-0.8-0.8-0.8-1.6c0-0.8,0-0.8-0.8-1.6c0-0.8-0.8-2.4-1.6-2.4c-0.8-0.8-1.6-0.8-2.4-1.6c-0.8-0.8-2.4-0.8-2.4-0.8
				s0,1.6,0.8,2.4h-0.8c0,0-3.2-0.8-2.4,0s0.8,1.6,1.6,2.4c-0.8,0-1.6,0-1.6,0s0,0.8,1.6,2.4l0,0c0,0-0.8,0-0.8-0.8
				c-0.8-0.8-2.4-1.6-3.2-1.6l0,0c0,0,0.8-3.2,0-4c0,0-0.8-0.8-0.8-1.6c0-0.8-0.8-2.4-0.8-2.4c0-0.8-0.8-2.4-0.8-3.2
				c0,0-1.6,1.6-1.6,3.2c0,0.8,0,0.8,0,0.8V272c0,0-0.8-0.8-0.8-1.6c0-0.8-0.8-2.4-0.8-2.4c-0.8,0-0.8,1.6-1.6,2.4
				c0,0.8-0.8,1.6-0.8,2.4s0,1.6,0,1.6l0,0c-0.8-0.8-0.8-0.8-1.6-1.6l0.8-2.4l0,0l0,0c0,0,0-0.8-0.8-0.8c0,0-0.8,0-0.8,0.8
				s0,0.8,0.8,0.8l0,0l0,0c0,0,0,1.6,0,2.4c-0.8-0.8-0.8-0.8-1.6-1.6c0-0.8,0-0.8,0-0.8s0.8-1.6,1.6-1.6c0-0.8,0-0.8,0-1.6v-1.6
				c0,0,2.4-2.4,1.6-2.4c0,0-0.8-1.6-1.6-1.6v0.8c0,0,0,0.8,0,1.6c0-0.8,0-0.8,0-0.8c0-0.8,0-0.8,0-1.6c0-0.8,0-2.4,0-2.4
				c0,0.8-0.8,0.8-0.8,1.6c0,0.8,0,0.8-0.8,1.6c0,0.8,0,0.8,0,0.8c0-0.8,0-0.8-0.8-1.6c0-0.8,0.8-1.6,0.8-1.6s0,0,0.8,0l0,0l0,0l0,0
				c0,0,0-0.8-0.8-0.8c0,0-0.8,0-0.8,0.8c0,0,0,0,0,0.8h-1.6v-0.8v0.8l0,0l0,0l0,0v-0.8l0,0c0.8-0.8,0.8-0.8,0.8-0.8v-0.8l0.8-0.8
				c0-0.8,0.8-1.6,0-3.2c0,0,0,0-0.8,0v-0.8c0,0,0-2.4,0-3.2l-0.8,0.8c0,0.8-0.8,0.8-0.8,0.8c0,0.8-0.8,0.8-0.8,0.8
				c0,0.8-0.8,1.6,0,1.6c0,0.8,0,0.8,0,0.8c-0.8-1.6-0.8-3.2-0.8-4c0.8-0.8,1.6-0.8,1.6-1.6l0,0l0,0c0,0,0,0,0.8,0l0,0l0,0
				c0,0,0-0.8-0.8-0.8c0,0-0.8,0-0.8,0.8l0,0h-1.6l0,0c0,0,0,0,0-0.8c0,0,0,0,0-0.8l0,0h0.8c0,0,0,0,0.8-0.8c0.8,0,0.8-0.8,1.6-1.6
				s0-3.2,0-3.2s-0.8,0.8-1.6,1.6c0-0.8,0-0.8,0-1.6s0-0.8,0-0.8c-1.6,0.8-1.6,2.4-2.4,3.2l0,0c0-0.8,0-1.6,0-2.4
				c0.8,0,1.6-0.8,1.6-0.8l0,0l0,0c0,0,0.8,0,0.8-0.8c0,0,0-0.8-0.8-0.8c0,0-0.8,0-0.8,0.8l0,0h-1.6c0,0,0,0,0-0.8l0,0l0.8-0.8
				c0.8,0,1.6-1.6,1.6-1.6l0.8-0.8c0.8,0,0.8-1.6,0.8-2.4c0,0-1.6,0-1.6,0.8l0,0l0,0c0,0,0-0.8,0-1.6l0,0c0.8,0,1.6,0,1.6,0
				s0,0.8,0.8,0c0,0,0.8,0,0.8-0.8c0,0,0-0.8-0.8-0.8c0,0-0.8,0-0.8,0.8l0,0l4-1.6l0,0l0,0h0.8c0.8,0,1.6,0,1.6-0.8
				c0,0,0.8-0.8,1.6-0.8c0,0,0.8-0.8,0.8-1.6l0.8-0.8c0,0-0.8,0-1.6,0l0,0c0.8-0.8,0-2.4,0-2.4s0,0-0.8,0c0-0.8,0.8-0.8,0.8-0.8l0,0
				l0,0l0,0l0,0c0,0,0,0,0-0.8c0,0,0-0.8-0.8-0.8c0,0-0.8,0-0.8,0.8l0,0l0,0l0,0l0,0l0,0l-0.8,0.8h-0.8c0,0,0,0-0.8,0
				c0-0.8,0-1.6,0-1.6l-0.8,0.8c-0.8,0-0.8,0.8-0.8,1.6s-0.8,0.8-0.8,1.6v1.6c0,0.8,0,0.8,0,0.8l0,0l0,0h-0.8v0.8c0,0,0,0.8-0.8,0.8
				s-1.6,0.8-2.4,1.6c0-0.8-0.8-1.6-0.8-1.6c0,0.8-0.8,2.4-1.6,2.4c0,0.8,0,0.8,0,1.6s0,1.6,0.8,1.6c0.8,0.8,0,2.4,0.8,1.6l0,0l0,0
				c0,0,0,0,0,0.8h-1.6l0,0c0,0,0-0.8-0.8-0.8c0,0-0.8,0-0.8,0.8c0,0,0,0.8,0.8,0.8c0,0,0,0,0.8,0l0,0c0,0,0.8,0.8,0.8,1.6
				s0,1.6,0,2.4c0,0,0,0,0-0.8s-0.8-0.8-0.8-1.6c0,0-0.8-0.8-0.8-1.6s-0.8-1.6-0.8-1.6s-0.8,0.8-0.8,2.4v0.8l0,0
				c0-0.8-0.8-0.8-0.8-0.8v2.4c0,0.8,0,1.6,0.8,1.6c0,0,0,0.8,0.8,1.6c0,0.8,1.6,1.6,3.2,2.4h0.8c0,0,0,0,0,0.8h-1.6l0,0
				c0,0,0-0.8-0.8-0.8c0,0-0.8,0-0.8,0.8c0,0,0,0.8,0.8,0.8l0,0l0,0c0,0,1.6,0.8,1.6,1.6c0,0.8,0,2.4,0.8,3.2l0,0c0,0,0,0-0.8-1.6
				c0-0.8-0.8-0.8-0.8-1.6c0,0-0.8-0.8-1.6-0.8c-0.8,0-0.8-1.6-0.8-1.6s0,1.6,0,2.4s0,0.8,0,0.8h-0.8c-0.8,0-1.6-0.8-1.6-0.8
				l0.8,2.4c0,0.8,0.8,1.6,0.8,1.6s0.8,0.8,0.8,1.6c0.8,0.8,2.4,1.6,4,1.6c0.8,0,0.8,0,0.8,0c0,0.8,0,0.8,0,0.8h-0.8l0,0
				c0,0,0-0.8-0.8-0.8c0,0-0.8,0-0.8,0.8c0,0,0,0.8,0.8,0.8l0,0l0,0l0,0l0,0h0.8c0,0,0.8,0.8,1.6,0.8c0,0.8,0,0.8,0,1.6
				c-0.8-0.8-1.6-0.8-2.4-0.8s-3.2-0.8-3.2-0.8c0.8,0,0.8,1.6,1.6,2.4c-1.6,0-2.4,0-2.4,0s2.4,1.6,2.4,2.4s0.8,2.4,1.6,2.4
				c0,0,0.8,0.8,1.6,1.6c0.8,0.8,2.4,0,3.2,0s0.8,0,1.6,0.8c0,0,0,0,0.8,0.8c0,0-0.8,0-1.6,0c0,0,0,0,0,0.8l1.6-0.8l0.8,0.8
				c-0.8,0-0.8,0-0.8-0.8s0,1.6,0.8,2.4c-0.8,0-0.8,0-1.6-0.8c-0.8-0.8,0,1.6,0.8,2.4c1.6,0.8,0.8,1.6,1.6,1.6c-0.8,0-2.4,0.8-3.2,0
				c-0.8,0,0.8,0.8,1.6,0.8s0.8,0.8,2.4,1.6c1.6,0.8,2.4,0.8,3.2,0.8c0.8,0,0.8,0,1.6-0.8c0.8,0,1.6-0.8,3.2-1.6
				c1.6,0.8,2.4,1.6,4,2.4l0,0c0,0,0,0-0.8,0s-2.4,0.8-3.2,0c-0.8,0,0.8,0.8,0.8,1.6c-0.8,0-0.8,0-1.6,0h-1.6l0,0l0,0
				c-0.8,0,1.6,1.6,2.4,2.4h0.8c-0.8,0-1.6,0.8-1.6,0.8c-0.8,0,2.4,1.6,3.2,1.6c2.4,0,4.8,0.8,6.4,0c0.8-0.8,1.6-0.8,2.4-0.8
				s0.8-0.8,0.8-0.8s0.8-0.8,2.4-1.6h0.8h0.8c0,0,0,0-0.8,0.8c-1.6,0.8-3.2,0.8-3.2,0.8c-0.8,0.8-4,2.4-4,3.2h2.4
				c0,0,0.8-1.6,1.6-1.6c0,0,0.8-0.8,2.4-0.8c-1.6,2.4,0.8,4.8,0.8,4.8c-0.8-0.8,0-1.6,0-1.6l0.8,0.8c-1.6-2.4,0-4,0.8-4.8h0.8
				c0,0,0,0,0.8,0c2.4,2.4,2.4,2.4,3.2,2.4v0.8c0,1.6,0.8,3.2,1.6,4c0,0,0-0.8,0.8-0.8c0,0,0.8,1.6,1.6,1.6c0,0-0.8-0.8-0.8-1.6
				c0,0,0-1.6-0.8-2.4c0.8,0,0.8,0.8,0.8,0.8s0.8,1.6,1.6,1.6h2.4l0,0c-0.8-0.8-3.2-3.2-4-3.2c0,0-1.6-0.8-2.4-0.8l-0.8-0.8l0,0
				c0.8,0,0.8,0,1.6,0c0,0,0,0,0.8,0h0.8c-0.8,0-1.6,0.8-1.6,0.8l0,0c1.6,0.8,2.4,0.8,2.4,1.6l0.8,0.8c0.8,0,0.8,0.8,2.4,0.8
				c0.8,0.8,4,0,6.4,0c0.8,0,4-1.6,3.2-1.6c0,0-0.8,0-1.6-0.8h0.8c0.8,0,3.2-2.4,2.4-2.4l0,0l0,0h-1.6c-0.8,0-0.8,0-1.6,0
				c0.8-0.8,1.6-1.6,0.8-1.6s-2.4,0-3.2,0c0,0,0,0-0.8,0l0,0c1.6-0.8,2.4-1.6,4-2.4c1.6,0,2.4,0.8,3.2,1.6c0.8,0,1.6,0,1.6,0.8
				c0.8,0,2.4,0,3.2-0.8c1.6,0,0.8-0.8,2.4-1.6c0.8,0,2.4-1.6,1.6-0.8c-0.8,0-1.6,0-3.2,0c0,0,0,0,1.6-1.6c0.8-0.8,0.8-2.4,0.8-2.4
				s-0.8,0-1.6,0.8c0-0.8,0.8-2.4,0.8-2.4l-0.8,0.8l0.8-0.8l1.6,0.8V276c0,0-0.8,0-1.6,0c0,0,0-0.8,0.8-0.8c0.8,0,0.8-0.8,1.6-0.8
				c0.8,0,2.4,0,3.2,0c0.8-0.8,1.6-1.6,1.6-1.6s0.8-1.6,1.6-2.4c0-0.8,2.4-2.4,2.4-2.4s-1.6,0-2.4,0c0-0.8,0.8-2.4,1.6-2.4
				c0,0-2.4,0.8-3.2,0.8c-0.8,0-1.6,0-2.4,0.8c0-0.8,0-0.8,0-1.6c0.8,0,0.8-0.8,1.6-0.8l0,0l0,0l0,0l0,0l0,0c0,0,0.8,0,0.8-0.8
				c0,0,0-0.8-0.8-0.8c0,0-0.8,0-0.8,0.8l0,0h-0.8v-0.8h0.8c1.6,0,3.2-0.8,4-1.6c0.8-0.8,0.8-0.8,0.8-1.6l0.8-1.6
				C272.11,255.2,272.11,253.6,272.11,252.8z M196.91,244.8L196.91,244.8L196.91,244.8L196.91,244.8z M202.51,269.6
				C202.51,270.4,202.51,270.4,202.51,269.6C202.51,270.4,202.51,270.4,202.51,269.6C202.51,270.4,202.51,270.4,202.51,269.6z
				 M202.51,266.4v0.8l0,0l0,0C202.51,266.4,202.51,266.4,202.51,266.4z M211.31,279.2C211.31,279.2,211.31,280,211.31,279.2
				c0.8,0,0.8,0,0.8,0C211.31,280,211.31,280,211.31,279.2z M227.31,284.8L227.31,284.8c0,0,0.8,0,1.6,0
				C228.91,284.8,228.11,284.8,227.31,284.8z M223.31,285.6C223.31,285.6,224.11,285.6,223.31,285.6c1.6,0,1.6,0,2.4,0
				C224.91,285.6,224.11,285.6,223.31,285.6z M227.31,286.4L227.31,286.4h-0.8H227.31z M231.31,286.4L231.31,286.4L231.31,286.4
				L231.31,286.4L231.31,286.4z M235.31,282.4c0,0,0,0.8,0,1.6l0,0c0,0,0,0.8-0.8,0.8s-1.6,0-1.6,0.8l0,0c0,0,0,0,0.8-0.8
				c0-0.8,0.8-3.2,0.8-4h-0.8h0.8C234.51,281.6,235.31,282.4,235.31,282.4z M233.71,281.6L233.71,281.6l-0.8,4l0,0l0,0l0,0
				C232.91,284,233.71,281.6,233.71,281.6z M231.31,285.6L231.31,285.6L231.31,285.6L231.31,285.6L231.31,285.6
				C231.31,285.6,230.51,285.6,231.31,285.6c-1.6-0.8-2.4-0.8-2.4-1.6c0,0-0.8-2.4-0.8-3.2C229.71,283.2,231.31,285.6,231.31,285.6z
				 M227.31,280L227.31,280L227.31,280L227.31,280L227.31,280z M228.11,280.8C228.11,280.8,227.31,280.8,228.11,280.8
				C227.31,280.8,227.31,280.8,228.11,280.8z M227.31,280.8C227.31,280.8,226.51,280.8,227.31,280.8
				C226.51,280.8,226.51,280.8,227.31,280.8C226.51,280.8,227.31,280.8,227.31,280.8z M227.31,284c0-0.8,0-1.6,0-2.4
				C226.51,282.4,227.31,283.2,227.31,284z M238.51,285.6C239.31,285.6,239.31,285.6,238.51,285.6c0,0-0.8,0-1.6,0.8
				C237.71,285.6,238.51,285.6,238.51,285.6z M251.31,280C251.31,280,252.11,279.2,251.31,280L251.31,280L251.31,280z M260.11,270.4
				L260.11,270.4L260.11,270.4L260.11,270.4z M260.11,267.2L260.11,267.2v-0.8C260.11,266.4,260.11,266.4,260.11,267.2L260.11,267.2
				z"/>
		</g>
	</g>
	<g>
		<path style="fill:#0F47AF;" d="M228.91,223.2L228.91,223.2L228.91,223.2l4-3.2l0,0l0,0l0,0c0,0,0,0,0-0.8l0,0l0,0
			c0-0.8,0-3.2,0-3.2l0,0l-0.8-3.2l0,0l0,0l0,0l0,0l0,0l0.8-0.8l-0.8-0.8l0,0l0,0c0,0,0.8,0,0.8,0.8c0,0,0.8,0,0.8-0.8l-0.8-0.8l0,0
			c0,0,0,0,0-0.8c-0.8-0.8-0.8-2.4-0.8-2.4l0,0c0,0.8-0.8,2.4-0.8,2.4c0.8,0,0.8,0.8,0.8,0.8l0,0l-0.8-0.8l-0.8,0.8l0.8,0.8l0,0l0,0
			l-0.8,0.8c0,0,0,0.8,0.8,0.8c0,0.8-1.6,5.6-2.4,6.4C228.11,219.2,228.11,223.2,228.91,223.2L228.91,223.2z M231.31,211.2
			L231.31,211.2L231.31,211.2L231.31,211.2z M232.91,209.6C232.91,209.6,232.91,210.4,232.91,209.6
			C233.71,210.4,233.71,210.4,232.91,209.6C232.91,211.2,232.11,211.2,232.91,209.6c-0.8,0.8-0.8,0.8-0.8,0.8l0,0
			C232.11,210.4,232.91,209.6,232.91,209.6z M231.31,210.4L231.31,210.4L231.31,210.4L231.31,210.4
			C232.11,210.4,231.31,210.4,231.31,210.4z M229.71,210.4L229.71,210.4C229.71,210.4,229.71,209.6,229.71,210.4
			c0.8-0.8,0.8-0.8,1.6,0l0,0l0,0l0,0C230.51,211.2,229.71,211.2,229.71,210.4z M231.31,210.4L231.31,210.4L231.31,210.4z"/>
		<path style="fill:#0F47AF;" d="M208.91,256.8L208.91,256.8l4-6.4l0,0l1.6-3.2v-0.8l0,0v-0.8l-4.8-3.2l4.8,3.2l0.8-1.6l0,0l3.2-5.6
			l0,0l1.6-3.2l0,0l0,0l0,0l-12-12.8l0,0h0.8c0,0,0.8-0.8,0-0.8c0,0-0.8-0.8-0.8,0l-0.8,0.8l0,0l0,0v-1.6c-0.8,0-2.4-0.8-2.4-0.8
			c0.8,0.8,0.8,2.4,0.8,2.4s0.8,0,1.6,0h-0.8v0.8h0.8c0,0,0-0.8,0.8-0.8l0,0l0,0l0,0c0,0,0,0.8-0.8,0.8v0.8h0.8c0,2.4,0,4-0.8,6.4
			c0,0.8,0,0.8,0,1.6c0,3.2,0,4.8,0,7.2c0,0,0,0.8,0,1.6v0.8l-7.2-4.8l0,0l0,0h0.8V236h-0.8c0,0,0,0.8,0,1.6l0,0l0,0V236
			c-0.8,0-2.4-0.8-2.4-0.8c0.8,0.8,1.6,1.6,1.6,1.6s0.8,0,1.6,0c0,0-0.8,0-0.8,0.8v0.8h0.8v-0.8l0,0l0,0l0,0v0.8v0.8v0.8h0.8
			c0,2.4,0,5.6-0.8,7.2c0,3.2,0.8,4.8,0.8,7.2l0,0l0,0l0,0l0,0l0,0l0,0l0,0l0,0l0,0l0,0l0,0l0,0l0,0l0,0c0,0.8,0.8,2.4,0.8,3.2l0,0
			c0,0,0,0,0,0.8s0,0.8,0,1.6c0,0.8,0,0.8,0.8,2.4c0,0.8,0.8,0.8,0.8,1.6l0,0l0,0L208.91,256.8z M201.71,236L201.71,236
			c0.8,0,0.8,0,0.8,0c0,0.8,0,0.8-0.8,0.8l0,0l0,0C200.91,236.8,201.71,236,201.71,236z M200.91,238.4c0,0.8,0,0.8-0.8,0.8l0,0v-0.8
			C200.11,237.6,200.11,237.6,200.91,238.4C200.91,237.6,200.91,237.6,200.91,238.4C200.91,237.6,200.91,237.6,200.91,238.4
			C200.91,237.6,200.91,238.4,200.91,238.4z M212.11,244.8L212.11,244.8l-4.8-3.2l0,0L212.11,244.8L212.11,244.8z M214.51,228
			L214.51,228L214.51,228L214.51,228L214.51,228z M209.71,222.4L209.71,222.4l4,4.8L209.71,222.4z M209.71,222.4L209.71,222.4
			L209.71,222.4L209.71,222.4L209.71,222.4z M216.91,230.4l-1.6-1.6l5.6,6.4L216.91,230.4z M210.51,220.8
			C210.51,220.8,211.31,220.8,210.51,220.8C211.31,220.8,211.31,220.8,210.51,220.8c0.8,0.8,0,0.8,0,0.8l0,0l0,0
			C209.71,220.8,210.51,220.8,210.51,220.8z M209.71,222.4l-0.8,0.8l0,0v-0.8C208.11,221.6,208.91,221.6,209.71,222.4
			C209.71,221.6,209.71,222.4,209.71,222.4L209.71,222.4L209.71,222.4z M204.91,240l-3.2-2.4l0,0L204.91,240z"/>
		<path style="fill:#0F47AF;" d="M248.91,265.6h-8l0,0h-8l0,0h-0.8l0,0h-0.8h-0.8l0,0l0,0l0,0h-0.8l0,0h-8l0,0h-8l0,0h-7.2l0,0
			c0.8,0.8,1.6,0.8,2.4,1.6l0.8,0.8c0.8,0.8,2.4,0.8,3.2,1.6c0,0,0.8,0,0.8,0.8c0.8,0,2.4,0.8,3.2,0.8s1.6,0,2.4,0s1.6,0,2.4,0l0,0
			c0.8,0,0.8,0,0.8,0s0.8,0,1.6,0c0.8,0,0,0,0.8,0s1.6-0.8,2.4-0.8h0.8l0,0l0,0c0,0,0,0,0.8-0.8l0,0c0,0,0,0,0,0.8l0,0l0,0l0,0l0,0
			l0,0l0,0l0,0l0,0v0.8v0.8c0,0,0,0,0,0.8v0.8c0,0,0,0.8,0.8,0.8l0,0l0,0l0,0l0,0l0,0l0,0l0,0c0,0,0,0,0.8,0l0,0l0,0l0,0l0,0l0,0
			l0,0l0,0l0,0l0,0l0,0l0,0l0,0h0.8l0,0l0,0h0.8l0,0l0,0l0,0l0,0l0,0l0,0l0,0c0,0,0,0,0.8,0l0,0l0,0l0,0l0,0l0,0l0,0l0,0l0,0l0,0
			l0,0l0,0l0,0l0,0l0,0l0,0l0,0l0,0l0,0l0,0l0,0l0,0l0,0l0,0c0,0,0,0,0.8,0s0,0,0,0v-0.8c0,0,0,0,0-0.8V272v-0.8l0,0l0,0l0,0l0,0
			c0,0,0,0,0.8,0c0,0,0,0,0.8,0s1.6,0,2.4,0.8c0.8,0,0.8,0,0.8,0s0.8,0,1.6,0s0.8,0,1.6,0s1.6,0,2.4,0c0.8,0,1.6,0,2.4,0
			c0.8,0,2.4,0,3.2-0.8c0,0,0.8,0,0.8-0.8c0.8,0,2.4-0.8,3.2-1.6c0,0,0.8,0,0.8-0.8c0.8-0.8,1.6-0.8,2.4-1.6h-8V265.6z
			 M230.51,266.4L230.51,266.4L230.51,266.4L230.51,266.4z M232.91,267.2L232.91,267.2L232.91,267.2L232.91,267.2L232.91,267.2
			L232.91,267.2z M231.31,265.6L231.31,265.6C231.31,265.6,231.31,266.4,231.31,265.6C231.31,266.4,231.31,265.6,231.31,265.6
			L231.31,265.6z"/>
		<path style="fill:#0F47AF;" d="M261.71,236c0,0,0,0.8,0,1.6l0,0l0,0C261.71,236.8,261.71,236,261.71,236c-0.8,0-1.6,0-1.6,0v0.8
			c0.8,0,0.8,0,0.8,0l0,0l0,0l-7.2,4.8v-0.8c0-0.8,0-0.8,0-1.6c0-3.2,0-4.8,0-7.2s-0.8-4.8-0.8-7.2V224h0.8v-0.8c0,0,0-0.8-0.8-0.8
			l0,0l0,0l0,0c0,0,0,0.8,0.8,0.8h0.8v-0.8h-0.8c0,0,0.8,0,1.6,0c0,0,0-1.6,0.8-2.4c0,0-1.6,0.8-2.4,0.8c0,0,0,0.8,0,1.6l0,0l0,0
			c0-0.8,0-0.8-0.8-0.8h-0.8v0.8c0.8,0,0.8,0,0.8,0l0,0l-12,12.8l0,0l0,0l0,0l1.6,3.2l0,0l3.2,5.6l0,0l0.8,1.6l4.8-3.2l-4.8,3.2v0.8
			l0,0v0.8l1.6,3.2l0,0l4,6.4l0,0l4,7.2l0,0l0,0c0,0,0.8-0.8,0.8-1.6c0-0.8,0-0.8,0.8-2.4c0-0.8,0-0.8,0-1.6c0,0,0,0,0-0.8l0,0
			c0-0.8,0.8-2.4,0.8-3.2l0,0l0,0l0,0l0,0l0,0l0,0l0,0l0,0l0,0l0,0l0,0l0,0l0,0l0,0c0-2.4,0.8-4,0.8-7.2c0-2.4-0.8-4.8-0.8-7.2
			c0,0,0,0,0.8,0v-0.8v-0.8c0,0,0,0,0-0.8l0,0l0,0l0,0v0.8c0,0,0.8,0.8,0.8,0v-0.8l-0.8-0.8c0,0,0.8,0,1.6,0c0,0,0.8-1.6,1.6-1.6
			C264.91,235.2,263.31,236,261.71,236z M251.31,244.8L251.31,244.8L251.31,244.8l4.8-3.2l0,0L251.31,244.8z M252.91,222.4
			L252.91,222.4L252.91,222.4L252.91,222.4L252.91,222.4z M252.91,222.4L252.91,222.4l-4,4.8L252.91,222.4z M248.11,228L248.11,228
			L248.11,228L248.11,228L248.11,228z M254.51,222.4L254.51,222.4c0,0.8,0,0.8,0,0.8c-0.8,0-0.8,0-0.8-0.8l0,0l0,0l0,0
			C253.71,221.6,254.51,221.6,254.51,222.4z M252.11,221.6c-0.8,0-0.8,0-0.8-0.8l0,0h0.8C252.91,220.8,252.91,220.8,252.11,221.6
			C252.91,221.6,252.91,221.6,252.11,221.6C252.91,221.6,252.11,221.6,252.11,221.6z M247.31,228l-1.6,1.6l-4,4.8L247.31,228z
			 M261.71,238.4l-4,1.6L261.71,238.4C261.71,237.6,261.71,237.6,261.71,238.4z M260.11,236L260.11,236c0.8,0,0.8,0,0.8,0l0.8,0.8
			l0,0l0,0C260.91,236.8,260.11,236.8,260.11,236z M262.51,238.4C262.51,238.4,263.31,238.4,262.51,238.4c0,0.8,0,0.8,0,0.8
			c-0.8,0-0.8-0.8-0.8-0.8l0,0l0,0l0,0C262.51,237.6,262.51,237.6,262.51,238.4z"/>
	</g>
	<g>
		<polygon style="fill:#FFCC00;" points="231.31,218.4 203.31,265.6 259.31,265.6 		"/>
		<path style="fill:#FFCC00;" d="M208.91,288.8l0.8,3.2c-0.8,0-1.6,0-1.6,0.8c-0.8,0.8,0,2.4,0.8,2.4l1.6,0.8l2.4-5.6l-0.8-0.8
			l-0.8,2.4l0,0v-3.2L208.91,288.8z M209.71,292.8L209.71,292.8L209.71,292.8v1.6l0,0C208.91,294.4,208.91,294.4,209.71,292.8
			C208.91,292.8,209.71,292.8,209.71,292.8z"/>
		<polygon style="fill:#FFCC00;" points="204.11,288.8 205.71,289.6 206.51,288.8 204.91,287.2 205.71,286.4 208.11,288 
			204.91,293.6 202.51,291.2 202.51,290.4 204.11,292 204.11,292 204.91,290.4 203.31,289.6 		"/>
		<path style="fill:#FFCC00;" d="M203.31,284.8l-1.6,1.6h-0.8c-0.8-0.8-1.6-0.8-2.4,0s-0.8,1.6,0.8,3.2l1.6,0.8l4-4.8L203.31,284.8z
			 M200.11,286.4C200.11,286.4,200.91,286.4,200.11,286.4l0.8,0.8l-0.8,1.6l0,0C199.31,288,199.31,287.2,200.11,286.4L200.11,286.4z
			"/>
		<path style="fill:#FFCC00;" d="M196.11,286.4l-0.8-0.8l2.4-2.4c0.8-0.8,1.6-1.6,0.8-2.4c-0.8-0.8-1.6,0-2.4,0l-2.4,2.4l-0.8-0.8
			l2.4-2.4c0.8-0.8,2.4-1.6,3.2,0s0.8,2.4,0,3.2L196.11,286.4L196.11,286.4z"/>
		<path style="fill:#FFCC00;" d="M193.71,274.4h-0.8c-0.8,0.8-0.8,0.8-0.8,1.6c-0.8,0-0.8,0-1.6,0c-0.8,0.8-0.8,1.6,0,2.4l0.8,1.6
			l4.8-3.2l-0.8-1.6C194.51,275.2,194.51,274.4,193.71,274.4z M193.71,276c0,0,0.8,0,0.8,0.8l0,0l-1.6,0.8l0,0
			C192.91,276.8,192.91,276.8,193.71,276L193.71,276z M192.11,277.6L192.11,277.6L192.11,277.6l-0.8,1.6l0,0
			C191.31,278.4,190.51,278.4,192.11,277.6C191.31,277.6,191.31,277.6,192.11,277.6z"/>
		<polygon style="fill:#FFCC00;" points="190.51,270.4 192.11,270.4 192.91,272.8 188.11,275.2 187.31,274.4 192.11,272 192.11,272 
					"/>
		<polygon style="fill:#FFCC00;" points="190.51,268 190.51,268 191.31,268.8 185.71,271.2 184.91,270.4 		"/>
		<path style="fill:#FFCC00;" d="M184.91,263.2c0,0.8,0,0.8,0,1.6c0,0.8,1.6,1.6,2.4,0.8c0.8,0,1.6-1.6,1.6-2.4s-0.8-0.8-0.8-0.8
			l1.6-0.8c0,0,0.8,0.8,0.8,1.6c0.8,1.6-0.8,3.2-2.4,4c-1.6,0.8-3.2,0-4-1.6c0-0.8,0-0.8,0-1.6L184.91,263.2L184.91,263.2z"/>
		<path style="fill:#FFCC00;" d="M187.31,255.2l-5.6,3.2v0.8l6.4,1.6v-1.6h-1.6v-2.4l0.8-0.8V255.2z M185.71,257.6v1.6h-2.4l0,0
			L185.71,257.6z"/>
		<path style="fill:#FFCC00;" d="M184.11,244c-1.6,0-3.2,0.8-3.2,3.2v1.6l6.4,0.8V248C187.31,245.6,186.51,244,184.11,244
			L184.11,244z M184.11,245.6L184.11,245.6c1.6,0,2.4,0.8,2.4,2.4l0,0h-4l0,0C182.51,246.4,183.31,245.6,184.11,245.6z"/>
		<polygon style="fill:#FFCC00;" points="185.71,239.2 185.71,240.8 187.31,241.6 187.31,239.2 188.91,240 188.11,243.2 
			181.71,241.6 182.51,238.4 183.31,238.4 183.31,240.8 183.31,240.8 184.11,240.8 184.91,239.2 		"/>
		<polygon style="fill:#FFCC00;" points="188.11,232 187.31,233.6 188.91,234.4 189.71,232 191.31,232.8 189.71,236 184.11,233.6 
			184.91,230.4 186.51,230.4 185.71,232.8 185.71,232.8 186.51,232.8 187.31,231.2 		"/>
		<polygon style="fill:#FFCC00;" points="192.11,228 192.91,228.8 191.31,231.2 186.51,228 186.51,227.2 191.31,229.6 191.31,229.6 
					"/>
		<path style="fill:#FFCC00;" d="M192.91,220c0,0-0.8,0-0.8,0.8v0.8c0.8,0.8,1.6-1.6,4-0.8c0.8,0.8,0.8,1.6,0.8,3.2
			c-0.8,0.8-1.6,0.8-2.4,0.8V224c0.8,0,0.8,0,1.6,0v-0.8c-0.8,0-0.8,0-1.6,0c-0.8,0.8-1.6,0.8-2.4,0s-0.8-1.6,0-2.4
			c0-0.8,0.8-0.8,1.6-0.8H192.91L192.91,220z"/>
		<path style="fill:#FFCC00;" d="M195.31,214.4L195.31,214.4l2.4,6.4l0.8-0.8l-0.8-1.6l1.6-1.6l1.6,0.8l0.8-0.8L195.31,214.4z
			 M196.91,216l1.6,0.8l-0.8,0.8L196.91,216L196.91,216z"/>
		<polygon style="fill:#FFCC00;" points="204.11,213.6 204.91,214.4 202.51,216.8 199.31,212 200.11,211.2 203.31,215.2 
			203.31,215.2 		"/>
		<polygon style="fill:#FFCC00;" points="205.71,207.2 207.31,206.4 208.11,212.8 207.31,212.8 202.51,208.8 203.31,208.8 
			206.51,211.2 206.51,211.2 207.31,211.2 		"/>
		<path style="fill:#FFCC00;" d="M211.31,204l-0.8,0.8v6.4l0.8-0.8v-1.6l1.6-0.8l0.8,0.8l1.6-0.8L211.31,204z M211.31,205.6l1.6,1.6
			l-0.8,0.8L211.31,205.6L211.31,205.6z"/>
		<path style="fill:#FFCC00;" d="M218.51,201.6h-0.8l-1.6,0.8l0.8,5.6l1.6-0.8c1.6-0.8,2.4-2.4,2.4-4
			C220.91,202.4,219.31,201.6,218.51,201.6z M218.51,203.2c0.8,0,1.6,0.8,1.6,1.6s0,1.6-1.6,2.4l0,0l-1.6-4l0,0
			C217.71,203.2,217.71,203.2,218.51,203.2z"/>
		<path style="fill:#FFCC00;" d="M225.71,200C225.71,200,224.91,200,225.71,200c-2.4,0-3.2,1.6-3.2,4c0,1.6,1.6,3.2,3.2,2.4
			c1.6,0,3.2-1.6,2.4-3.2C228.11,201.6,227.31,200,225.71,200z M225.71,201.6c0.8,0,1.6,0.8,1.6,1.6s-0.8,1.6-1.6,2.4
			c-0.8,0-1.6-0.8-1.6-1.6C224.11,202.4,224.11,201.6,225.71,201.6z"/>
		<path style="fill:#FFCC00;" d="M230.51,200v6.4h1.6V204l0,0l1.6,2.4h1.6l-2.4-3.2c0.8,0,1.6-0.8,1.6-1.6c0-1.6-0.8-1.6-2.4-1.6
			L230.51,200L230.51,200z M232.11,200.8L232.11,200.8c0.8,0,1.6,0,0.8,0.8c0,0.8-0.8,0.8-0.8,0.8l0,0V200.8L232.11,200.8z"/>
		<polygon style="fill:#FFCC00;" points="244.91,204.8 242.51,204.8 242.51,206.4 244.11,206.4 244.11,207.2 240.91,206.4 
			242.51,200.8 245.71,201.6 245.71,202.4 243.31,202.4 243.31,202.4 243.31,203.2 244.91,204 		"/>
		<polygon style="fill:#FFCC00;" points="250.51,208 252.11,204 252.91,204 250.51,210.4 249.71,209.6 248.11,204.8 248.11,204.8 
			246.51,208.8 245.71,208 248.11,202.4 248.11,202.4 248.91,202.4 		"/>
		<polygon style="fill:#FFCC00;" points="257.71,212.8 256.91,213.6 254.51,212 257.71,207.2 258.51,207.2 256.11,212 256.11,212 		
			"/>
		<path style="fill:#FFCC00;" d="M263.31,210.4l-5.6,3.2l0.8,0.8l1.6-0.8l1.6,1.6l-0.8,1.6l0.8,0.8L263.31,210.4L263.31,210.4z
			 M262.51,212.8l-0.8,2.4l-0.8-0.8L262.51,212.8z"/>
		<path style="fill:#FFCC00;" d="M272.91,220l-6.4,1.6l0.8,0.8h1.6l1.6,1.6l-0.8,0.8l0.8,0.8L272.91,220L272.91,220L272.91,220z
			 M271.31,221.6l-1.6,1.6l-0.8-0.8L271.31,221.6z"/>
		<polygon style="fill:#FFCC00;" points="272.91,233.6 272.91,232 275.31,230.4 275.31,230.4 275.31,230.4 271.31,230.4 
			271.31,230.4 274.51,227.2 274.51,227.2 270.51,228 269.71,227.2 276.11,225.6 276.11,226.4 273.71,229.6 277.71,228.8 
			278.51,229.6 		"/>
		<polygon style="fill:#FFCC00;" points="276.91,236.8 276.11,235.2 274.51,235.2 275.31,237.6 274.51,237.6 273.71,234.4 
			279.31,232.8 280.11,236 279.31,236 278.51,234.4 278.51,234.4 277.71,234.4 277.71,236.8 		"/>
		<path style="fill:#FFCC00;" d="M280.91,238.4l-5.6,1.6v0.8l2.4-0.8l0,0l-2.4,2.4v1.6l2.4-2.4c0,0.8,0.8,0.8,1.6,0.8
			c1.6,0,1.6-1.6,1.6-2.4V238.4z M280.11,239.2L280.11,239.2c0,0.8,0,1.6-0.8,1.6c-0.8,0-0.8,0-0.8-0.8l0,0L280.11,239.2z"/>
		<polygon style="fill:#FFCC00;" points="276.11,245.6 276.11,245.6 276.11,244.8 281.71,244 282.51,245.6 		"/>
		<path style="fill:#FFCC00;" d="M280.91,252c0,0,0.8-0.8,0.8-1.6c0-0.8-0.8-1.6-2.4-1.6c-0.8,0-2.4,0.8-2.4,1.6
			c0,0.8,0,0.8,0.8,1.6h-1.6c0-0.8,0-0.8,0-1.6c0-1.6,1.6-3.2,3.2-3.2c1.6,0,3.2,1.6,3.2,3.2c0,0.8,0,0.8,0,1.6H280.91L280.91,252z"
			/>
		<path style="fill:#FFCC00;" d="M276.11,252.8v1.6l1.6,0.8v2.4h-1.6v1.6l6.4-1.6v-0.8L276.11,252.8z M278.51,255.2l1.6,0.8l0,0
			l-2.4,0.8L278.51,255.2z"/>
		<path style="fill:#FFCC00;" d="M276.91,270.4c0.8,0,0.8-0.8,0.8-0.8c0.8-0.8,0-2.4-1.6-2.4c-0.8,0-2.4,0-2.4,0.8s0,0.8,0,1.6
			l-0.8-0.8c0-0.8,0-0.8,0-1.6c0.8-1.6,2.4-2.4,4-1.6s2.4,2.4,1.6,4c0,0.8-0.8,0.8-0.8,0.8L276.91,270.4L276.91,270.4z"/>
		<polygon style="fill:#FFCC00;" points="272.91,274.4 273.71,272.8 272.11,272 271.31,273.6 270.51,272.8 272.11,270.4 
			276.91,272.8 275.31,276 274.51,275.2 275.31,273.6 275.31,273.6 274.51,272.8 273.71,274.4 		"/>
		<polygon style="fill:#FFCC00;" points="268.11,279.2 272.11,281.6 271.31,282.4 265.71,279.2 266.51,278.4 272.11,277.6 
			272.11,277.6 268.91,275.2 269.71,274.4 274.51,278.4 274.51,278.4 273.71,279.2 		"/>
		<polygon style="fill:#FFCC00;" points="268.11,284 268.91,283.2 269.71,284 267.31,286.4 266.51,286.4 267.31,284.8 263.31,281.6 
			263.31,281.6 264.11,280.8 		"/>
		<path style="fill:#FFCC00;" d="M261.71,283.2l-0.8,0.8l1.6,1.6l0,0l-2.4-0.8l-0.8,0.8l3.2,0.8c-0.8,0.8-0.8,1.6,0,2.4
			c0.8,0.8,1.6,0.8,2.4,0l1.6-0.8L261.71,283.2z M263.31,287.2l0.8,1.6l0,0c-0.8,0-0.8,0.8-1.6,0
			C262.51,288,262.51,287.2,263.31,287.2L263.31,287.2z"/>
		<path style="fill:#FFCC00;" d="M257.71,286.4l-0.8,0.8v1.6l-1.6,0.8l-0.8-0.8l-0.8,0.8l5.6,4l0.8-0.8L257.71,286.4L257.71,286.4z
			 M256.91,289.6l0.8,2.4l0,0l-1.6-1.6L256.91,289.6z"/>
		<polygon style="fill:#FFCC00;" points="249.71,292 248.91,291.2 252.11,290.4 254.51,296 253.71,296 251.31,292 251.31,292 		"/>
	</g>
</g>
<g>
</g>
<g>
</g>
<g>
</g>
<g>
</g>
<g>
</g>
<g>
</g>
<g>
</g>
<g>
</g>
<g>
</g>
<g>
</g>
<g>
</g>
<g>
</g>
<g>
</g>
<g>
</g>
<g>
</g>
</svg>
