<?xml version="1.0" encoding="iso-8859-1"?>
<!-- Generator: Adobe Illustrator 19.0.0, SVG Export Plug-In . SVG Version: 6.00 Build 0)  -->
<svg version="1.1" id="Capa_1" xmlns="http://www.w3.org/2000/svg" xmlns:xlink="http://www.w3.org/1999/xlink" x="0px" y="0px"
	 viewBox="0 0 496.8 496.8" style="enable-background:new 0 0 496.8 496.8;" xml:space="preserve">
<path style="fill:#D11F3E;" d="M0,332.4V370c0,25.6,18.4,45.6,43.2,48.8h410.4c24-2.4,43.2-23.2,43.2-48.8v-37.6H0z"/>
<path style="fill:#FCD73E;" d="M448,78H48C21.6,78,0,99.6,0,126.8V246h496V126.8C496,99.6,474.4,78,448,78z"/>
<path style="fill:#E5BF23;" d="M48,78h400c26.4,0,48,21.6,48,48.8V370c0,27.2-21.6,48.8-48,48.8"/>
<path style="fill:#BA0F34;" d="M448,418.8h5.6l0,0c3.2,0,5.6-0.8,8-1.6c0,0,0,0,0.8,0c2.4-0.8,4.8-1.6,7.2-3.2c0,0,0.8,0,0.8-0.8
	c2.4-1.6,4-2.4,6.4-4l0.8-0.8c1.6-1.6,4-3.2,5.6-4.8l0.8-0.8c1.6-1.6,3.2-4,4.8-6.4l0.8-0.8c1.6-2.4,2.4-4.8,3.2-7.2v-0.8
	c0.8-2.4,1.6-4.8,2.4-8v-0.8c0.8-2.4,0.8-5.6,0.8-8.8v-37.6H346.4L448,418.8z"/>
<path style="fill:#D3AD0D;" d="M48,78h400c26.4,0,48,21.6,48,48.8v88.8"/>
<path style="fill:#A50A33;" d="M496,370c0,27.2-21.6,48.8-48,48.8H48c-26.4,0-48-21.6-48-48.8"/>
<rect y="246" style="fill:#1D4F95;" width="496" height="86.4"/>
<polygon style="fill:#083A75;" points="346.4,332.4 496,332.4 496,246 245.6,246 "/>
<g>
	<path style="fill:#FFFFFF;" d="M177.6,315.6L177.6,315.6c0,0-1.6,0.8-3.2,0.8c0,0-1.6,4-3.2,5.6c1.6-1.6,4.8-2.4,5.6-2.4
		c0-0.8,0-2.4,0.8-3.2l0,0C177.6,316.4,177.6,316.4,177.6,315.6z"/>
	<path style="fill:#FFFFFF;" d="M193.6,333.2L193.6,333.2c0,0-1.6,0.8-3.2,0.8c0,0-1.6,4-3.2,5.6c1.6-1.6,4.8-2.4,5.6-2.4
		c0-0.8,0-2.4,0.8-3.2l0,0C194.4,334,194.4,333.2,193.6,333.2z"/>
	<path style="fill:#FFFFFF;" d="M320.8,316.4c-1.6,0-2.4-0.8-2.4-0.8l0,0l-0.8,0.8l0,0c0.8,0.8,0.8,1.6,0.8,3.2c0.8,0,4,0.8,5.6,2.4
		C322.4,320.4,320.8,316.4,320.8,316.4z"/>
	<path style="fill:#FFFFFF;" d="M304.8,334c-1.6,0-2.4-0.8-2.4-0.8l0,0l-0.8,0.8l0,0c0.8,0.8,0.8,1.6,0.8,3.2c0.8,0,4,1.6,5.6,2.4
		C305.6,338,304.8,334,304.8,334z"/>
	<path style="fill:#FFFFFF;" d="M217.6,205.2l-0.8,0.8C216.8,205.2,216.8,205.2,217.6,205.2z"/>
	<path style="fill:#FFFFFF;" d="M216,210L216,210L216,210z"/>
	<path style="fill:#FFFFFF;" d="M216.8,198.8C216.8,198.8,216.8,199.6,216.8,198.8C216.8,199.6,216.8,199.6,216.8,198.8z"/>
	<path style="fill:#FFFFFF;" d="M208,204.4C208,204.4,207.2,205.2,208,204.4C207.2,205.2,208,204.4,208,204.4z"/>
	<path style="fill:#FFFFFF;" d="M263.2,339.6C263.2,340.4,263.2,340.4,263.2,339.6C263.2,340.4,263.2,339.6,263.2,339.6z"/>
	<path style="fill:#FFFFFF;" d="M181.6,179.6c1.6,2.4,2.4,6.4,2.4,7.2c1.6,0,3.2,0,3.2,1.6l0,0l0.8-0.8l0,0c0,0-0.8-1.6-0.8-3.2
		C188,182.8,183.2,181.2,181.6,179.6z"/>
	<path style="fill:#FFFFFF;" d="M327.2,210c0,0-1.6,1.6-2.4,1.6c-1.6,0-2.4-0.8-2.4-1.6v-0.8c0,0,0,0,0-0.8c0.8-0.8,3.2-1.6,5.6-1.6
		c0-1.6,2.4-7.2,4.8-10.4c-2.4,3.2-10.4,5.6-10.4,5.6c0,2.4-0.8,4.8-1.6,4.8c0,0,0,0-0.8,0l0,0c-0.8-0.8-3.2-2.4-4-1.6
		c-0.8,0.8,0.8,3.2,1.6,4l0,0c0,0,0,0,0,0.8c-0.8,0-0.8,0-0.8,0v0.8c-0.8,0-0.8,0-1.6,0.8l0,0c0-0.8,0-2.4-1.6-3.2
		c0,0-1.6-0.8-3.2,0.8c0,0,0,0.8,0,1.6l0,0l0,0l0,0l0,0c-0.8,0-2.4,0-1.6,1.6l0.8,1.6c0,0,0.8-1.6,4-1.6l0,0c-2.4,0-4,2.4-4,2.4
		l0.8,0.8h0.8c-1.6,1.6-4.8,4.8-7.2,7.2c0-1.6,0-4,0-5.6h0.8c0-0.8,0-1.6,0-3.2c0.8,0,1.6,0,2.4,0c0-2.4,0-4.8-1.6-4.8
		c-0.8,0-0.8,0-0.8,0.8c0-0.8,0-0.8,0-1.6l0,0l0,0l0,0l0,0l0,0l0,0l0,0l0,0l0,0l0,0l0,0l0,0l0,0l0,0l0,0l0,0l0,0l0,0l0,0l0,0l0,0
		l0,0l0,0l0,0l0,0l0,0l0,0l0,0l0,0l0,0l0,0l0,0l0,0l0,0l0,0l0,0c0-1.6-0.8-4-0.8-4.8s-0.8-4.8-0.8-8c0-1.6-0.8-4-0.8-5.6l0.8-0.8
		c1.6,0.8,4,0.8,6.4,0c0,0,0,0,0.8,0l0,0c-2.4,0.8-4.8,0.8-6.4-0.8l0,0c0.8-0.8,2.4-1.6,3.2-1.6c0-0.8,1.6-4.8,2.4-7.2
		c-1.6,1.6-6.4,4-6.4,4c0,1.6-0.8,3.2-0.8,3.2l0,0l-0.8-0.8c-0.8-1.6-0.8-2.4-0.8-4l0,0c3.2,0.8,3.2,2.4,3.2,4
		c0-0.8-0.8-0.8-1.6-0.8c0,0-2.4-0.8-2.4,1.6v0.8c-0.8,0-1.6,0.8-0.8,1.6l0.8,1.6l0.8,0.8h0.8c-2.4,2.4-4.8,4.8-7.2,7.2
		c0,0,0,0,0-0.8c-0.8-1.6-1.6-3.2-2.4-4.8l0,0l0,0c0,0.8,0.8,0.8,0.8,1.6c0.8,1.6,0.8,3.2,1.6,4.8c-0.8,0.8-1.6,1.6-2.4,2.4
		c-0.8-2.4-2.4-4.8-3.2-6.4c-0.8-1.6-0.8-2.4-1.6-3.2l0,0c1.6,3.2,3.2,7.2,4,10.4l-0.8,0.8c-1.6-3.2-3.2-7.2-5.6-10.4l0,0
		c1.6,4,3.2,7.2,4.8,11.2c-0.8,0.8-0.8,0.8-1.6,1.6c-2.4-4.8-5.6-9.6-8-14.4l0,0c1.6,3.2,3.2,6.4,4.8,10.4c0.8,1.6,1.6,3.2,2.4,4.8
		l0,0c0,0,0,0-0.8,0.8l0,0c-1.6-3.2-3.2-6.4-5.6-9.6c-1.6-2.4-3.2-4.8-5.6-7.2l0,0l0,0l0,0l0,0c2.4,4,4.8,7.2,6.4,11.2l3.2,7.2l0,0
		c-0.8,0.8-0.8,0.8-1.6,1.6c-0.8-1.6-1.6-2.4-2.4-4c-1.6-2.4-4-4.8-5.6-7.2l0,0l0,0l0,0l0,0l0,0c2.4,4,4.8,8,7.2,12l0,0
		c-0.8,0.8-0.8,0.8-1.6,1.6c0-0.8-0.8-0.8-0.8-1.6c-0.8-0.8-0.8-1.6-1.6-1.6l0,0c0.8,0.8,1.6,2.4,2.4,4c-0.8,0.8-1.6,1.6-2.4,2.4
		c-4-6.4-8.8-12-13.6-15.2l0,0l0,0l-0.8-0.8l0,0c-0.8,0-2.4-1.6-4.8-2.4v-0.8l0,0c0,0-0.8-1.6-1.6-2.4c-0.8-0.8-1.6-0.8-2.4-0.8
		c-0.8-0.8-0.8-0.8-0.8-1.6c0,0,0-2.4,0-3.2v0.8v0.8l0,0c0,0,0.8,0,1.6-0.8c0.8-1.6,0.8-3.2,0.8-4l0.8,0.8c0,0,0.8-1.6,0.8-2.4l0,0
		c0,0,0-0.8,0-1.6l0,0c0,0,0-0.8,0-2.4c1.6,2.4,2.4,2.4,3.2,2.4c0.8,0,0-2.4,0-3.2c0.8,1.6,3.2,2.4,3.2,2.4c0.8,0,0.8-2.4,0.8-3.2
		c1.6,1.6,3.2,2.4,4,1.6c0.8,0,0-1.6,0-3.2c2.4,1.6,4,0.8,4,0c0,0-0.8-2.4-1.6-3.2c2.4,1.6,4.8,1.6,5.6,0.8c0.8,0-0.8-2.4-1.6-3.2
		c3.2,1.6,5.6,1.6,5.6,1.6c0-0.8-0.8-2.4-1.6-3.2c7.2,4.8,7.2,2.4,7.2,2.4l-1.6-2.4c3.2,0.8,5.6,1.6,6.4,0.8c0,0,0-0.8-0.8-1.6
		c5.6,1.6,7.2,0.8,7.2,0.8c0.8,0-0.8-1.6-1.6-2.4c3.2,0.8,4.8,1.6,4.8,1.6c4,0,3.2-0.8,0.8-2.4c4.8,1.6,8,1.6,7.2,1.6
		c0-0.8-2.4-2.4-4-3.2c3.2,1.6,5.6,2.4,7.2,2.4c3.2,0.8,1.6-0.8,1.6-0.8l-4-2.4c1.6,0.8,3.2,0.8,4,1.6c3.2,0.8,1.6-0.8,1.6-0.8
		l-5.6-3.2l0,0c2.4,1.6,9.6,3.2,9.6,3.2s-0.8-0.8-1.6-0.8l0,0c0.8,0.8,1.6,0.8,1.6,0.8s1.6,0.8,0,0c0,0,0,0-0.8,0
		c-0.8-0.8-2.4-1.6-4.8-3.2c-0.8,0-0.8-0.8-1.6-0.8c-2.4-0.8-13.6-6.4-15.2-7.2s-9.6-3.2-11.2-3.2c-2.4,0-12-1.6-20-2.4
		c-6.4-0.8-6.4,4-6.4,5.6v0.8c0,0-1.6,1.6-2.4,1.6c-0.8,0.8-1.6,0.8-1.6,0.8c-0.8,0-4.8,1.6-6.4,2.4c0,0-0.8-0.8-1.6-0.8
		c-1.6,0-4-0.8-8-0.8c-3.2,0-4.8,1.6-4.8,2.4h-0.8c0,0-3.2-2.4-4.8-3.2c0,0,0,0-0.8,0l0,0c0,0,0-1.6,0-3.2c0-0.8,0-1.6-0.8-1.6
		c0,0,0,0,0-0.8c0-1.6-0.8-4-3.2-4s-8.8,0-9.6,0s-4.8-1.6-11.2,0c-4,0.8-11.2,4-15.2,5.6c-0.8,0-1.6,0.8-2.4,0.8
		c-0.8,0.8-1.6,0.8-2.4,0.8c0,0,0,0,0.8,0c-8.8,4-16.8,9.6-16.8,9.6s0.8,0,2.4-0.8c0.8,0,1.6,0,3.2-0.8c0,0,0,0.8,2.4,0.8
		c0.8,0,1.6,0,3.2,0c-0.8,0-0.8,0.8-0.8,0.8c0,0.8,3.2,0,8.8-0.8c-1.6,0.8-2.4,1.6,1.6,2.4c0,0,2.4-0.8,5.6-1.6
		c-0.8,0.8-1.6,1.6-1.6,2.4c0.8,0,2.4,1.6,8-0.8c-0.8,0.8-2.4,1.6-1.6,2.4c0,0,3.2,0,6.4-1.6l-1.6,2.4c0,0,0.8,2.4,8-1.6
		c-0.8,1.6-2.4,3.2-1.6,3.2c0,0.8,2.4,0.8,5.6-0.8c-0.8,1.6-2.4,3.2-1.6,3.2c0.8,0.8,3.2,0.8,5.6-0.8c-0.8,1.6-1.6,3.2-1.6,3.2
		s2.4,1.6,4,0c-0.8,1.6-0.8,2.4,0,3.2c0.8,0,2.4,0,4-1.6c0,1.6,0,3.2,0,3.2c0.8,0,2.4-0.8,4-3.2c0,0.8,0,4,0,4.8
		c0.8,0,1.6,0.8,3.2-2.4c0,1.6,0,3.2,0,3.2h0.8c-1.6,1.6-2.4,4-3.2,5.6c-1.6,2.4-3.2,4.8-3.2,5.6c-0.8,1.6-1.6,2.4-0.8,2.4l0,0
		c-0.8,0.8-0.8,1.6-0.8,2.4c-0.8,2.4-2.4,4.8-1.6,5.6c-3.2,3.2-6.4,7.2-8.8,11.2c-0.8-0.8-1.6-1.6-2.4-2.4l-0.8-0.8
		c0.8-0.8,1.6-1.6,2.4-1.6c-0.8,0-1.6,0-3.2,0h-0.8c0,0,0,0-0.8-0.8c0.8-0.8,1.6-0.8,1.6-1.6h0.8v0.8l0,0l0.8,0.8l0,0
		c0.8,0,0.8,0,0.8-0.8c0,0,0,0,0-0.8l0,0c0.8-0.8-0.8-1.6-0.8-0.8c0,0-0.8,0,0,0.8l0,0h-0.8c0.8-0.8,1.6-1.6,3.2-2.4
		c-0.8,0-0.8,0-1.6,0.8c-0.8,0-1.6,0-2.4,0l0,0c1.6-1.6,4-1.6,5.6-1.6s2.4,0,3.2-0.8c0.8,0,2.4-0.8,3.2-1.6c-1.6,0-3.2-0.8-4-0.8
		l0,0l0,0c0.8-0.8-0.8-1.6-0.8-0.8h-0.8c0,0,0,0-0.8,0c0,0,0,0,0.8-0.8c0,0,0.8,0,0.8-0.8c2.4-0.8,5.6,0,7.2-1.6
		c-0.8,0-1.6,0.8-3.2,0.8c-0.8,0-1.6,0-2.4,0c1.6-0.8,2.4-2.4,3.2-4c-0.8,0.8-1.6,0.8-3.2,1.6c-0.8,0.8-1.6,1.6-1.6,2.4l0,0
		c0-0.8,0-2.4,0-3.2c-0.8,0.8-0.8,1.6-1.6,2.4c0,0.8,0,2.4-0.8,3.2l0,0c0,0,0,0-0.8,0l0,0c0,0,0,0,0-0.8l0,0c1.6,0,0-0.8,0,0
		c0,0-0.8,0,0,0.8v0.8l0,0c0,0,0,0,0.8,0.8l-0.8,0.8c-0.8,0.8-2.4,1.6-3.2,3.2l0,0H212l0,0l0,0c0-0.8,0.8-0.8,0.8-1.6
		s0.8-0.8,0.8-1.6c0.8,0,0.8-0.8,1.6-1.6s1.6-1.6,2.4-2.4c-1.6,0-2.4,0.8-3.2,0.8c-1.6,0-2.4,0.8-4,0.8c-1.6,0.8-1.6,2.4-3.2,3.2
		c0,0,0,0,0.8,0s0.8,0,1.6,0c-0.8,0.8-0.8,1.6-0.8,3.2l0,0c0,0,0,0-0.8,0l0,0c-0.8-0.8-0.8-0.8-1.6-1.6l0,0l0,0l0,0l0,0
		c0.8-0.8,0.8-1.6,0.8-3.2c0-0.8,0.8-1.6,0.8-1.6s4.8-0.8,6.4-7.2c0,0,0-2.4,0.8-2.4c0,0-4.8,4-6.4,4.8c-0.8,1.6-1.6,4-1.6,4.8l0,0
		c0-0.8,0-2.4,0-3.2c0,0-0.8-2.4,0-3.2c0,0-3.2,5.6-3.2,7.2v0.8c-0.8-0.8-1.6-1.6-2.4-2.4c0-0.8,0-2.4,0-3.2c0,0-0.8,0.8-0.8,2.4
		c-2.4-2.4-5.6-5.6-8-8h0.8l0.8-0.8l0.8-1.6c0.8-0.8,0-1.6-0.8-1.6c0-0.8,0-0.8,0-0.8c-0.8-2.4-2.4-1.6-2.4-1.6
		c-0.8,0-0.8,0-1.6,0.8c0-1.6,0-3.2-0.8-4l0,0c0,1.6,0,3.2-0.8,4c0,0.8-0.8,0.8-0.8,1.6s-0.8,0.8-0.8,0.8c-1.6,1.6-4,1.6-6.4,0.8
		l0,0c0,0,0,0,0.8,0c2.4,1.6,4.8,1.6,7.2,0l0.8,0.8c0,1.6-0.8,3.2-0.8,5.6c0,3.2,0,7.2-0.8,8c0,0.8-0.8,2.4-0.8,4.8l0,0l0,0l0,0l0,0
		l0,0l0,0l0,0l0,0l0,0l0,0l0,0l0,0l0,0l0,0l0,0l0,0l0,0l0,0l0,0l0,0l0,0l0,0l0,0l0,0l0,0l0,0l0,0l0,0l0,0l0,0l0,0l0,0l0,0l0,0l0,0
		l0,0c0,0.8,0,0.8,0,1.6c0-0.8-0.8-0.8-0.8-0.8c-1.6,0-1.6,2.4-1.6,4.8c0.8,0,1.6,0,2.4,0c0,0.8,0,1.6,0,3.2h0.8c0,1.6,0,4,0,5.6
		c-2.4-2.4-4.8-5.6-7.2-7.2h0.8c0,0,0.8,0,0.8-0.8l0.8-1.6c0.8-1.6-0.8-1.6-1.6-1.6c0,0,0,0-0.8,0c0.8,0,0.8-0.8,0.8-0.8
		s0-0.8-0.8-0.8c0.8,0.8,0.8,1.6,0.8,1.6c0-0.8,0-2.4,0-2.4c2.4-1.6,0-0.8,0-0.8c-0.8,0.8-1.6,1.6-1.6,2.4l-0.8-0.8v-0.8h-0.8
		l0.8-0.8l0,0c0.8-0.8,2.4-3.2,1.6-4c-0.8-0.8-3.2,1.6-4,1.6l0,0c0,0,0,0-0.8,0c0-0.8-1.6-3.2-1.6-4.8c0,0-8-2.4-10.4-5.6
		c2.4,3.2,4.8,8.8,4.8,10.4c1.6,0,4,0,5.6,1.6c0,0,0,0,0,0.8c0,0,0,0,0,0.8c0,0-1.6,0.8-2.4,1.6c-1.6,0-2.4-1.6-2.4-1.6l0,0
		c0,0.8,0,0.8,0,1.6c0,3.2,2.4,5.6,5.6,5.6c0.8,0,1.6,0,2.4-0.8l0,0c0,0-1.6-0.8-1.6-2.4c0-0.8,0.8-2.4,0.8-2.4h0.8l0,0l0,0
		c0,0.8,0,0.8,0,0.8h0.8c0,0.8,0,0.8,0.8,1.6s1.6,0.8,1.6,0.8c0,1.6-0.8,4-0.8,5.6c0,3.2-0.8,8.8-0.8,9.6s-0.8,5.6-0.8,7.2l0,0l0,0
		l0,0l0,0l0,0l0,0l0,0l0,0l0,0l0,0l0,0l0,0l0,0l0,0l0,0l0,0l0,0l0,0l0,0l0,0l0,0l0,0l0,0l0,0l0,0l0,0l0,0c-1.6,0-1.6,2.4-1.6,4.8
		l0,0l0,0h0.8h-0.8c0.8,0,1.6,0,2.4,0v0.8c0.8,0,0.8,0,1.6,0c0,14.4,0,29.6,0,40c0,4.8,1.6,14.4,5.6,21.6l-8.8,8.8v0.8l0.8,0.8h0.8
		l8.8-8c4,6.4,10.4,11.2,20.8,9.6L194.4,330v0.8l0.8,0.8h0.8l16.8-16.8c3.2-0.8,5.6-1.6,8.8-3.2c0,0.8,0.8,0.8,1.6,0.8h1.6l0,0h2.4
		l0,0l0,0l0,0h0.8c-3.2,4-7.2,10.4-7.2,12c0,2.4,0,4.8,6.4,4c0,0,2.4-0.8,5.6-0.8c0,0,0,0,0,0.8l0,0c0,0,0,0,0,0.8l0,0
		c0,0,0,0,0,0.8l0,0c0,0,0,0,0,0.8l0,0c-0.8,2.4-0.8,4.8-0.8,6.4l0,0l0,0l0,0l0,0l0,0l0,0l0,0l0,0l0,0l0,0l0,0l0,0
		c0,0.8,0.8,1.6,2.4,0.8c2.4,0,4-0.8,5.6-0.8c0.8,0,1.6,0,1.6,0c-0.8,0-0.8,0-1.6,0c0,2.4,0,4.8,0,6.4l0,0v0.8l0,0
		c0,1.6,1.6,1.6,3.2,1.6c1.6,0,5.6-2.4,5.6-2.4v-3.2v3.2c0,0,3.2,2.4,5.6,2.4c0.8,0,2.4,0,3.2-1.6l0,0v-0.8l0,0l0,0c0,0,0,0,0,0.8
		c0-1.6,0-4,0-6.4c1.6,0,3.2,0.8,5.6,0.8c1.6,0,2.4,0,2.4-0.8l0,0l0,0l0,0l0,0l0,0c0,0,0,0,0-0.8c0,0,0,0,0,0.8
		c0-1.6-0.8-5.6-1.6-8.8c2.4,0,4.8,0.8,4.8,0.8c6.4,0.8,6.4-1.6,6.4-4c0-1.6-4.8-8-7.2-12h1.6l0,0l0,0l0,0h2.4l0,0h0
		c0.8,0,0.8-0.8,1.6-1.6c3.2,1.6,6.4,2.4,9.6,3.2l16.8,16.8h0.8l0.8-0.8v-0.8l-14.4-14.4c10.4,0.8,16.8-4,20.8-9.6l8.8,8h0.8
		l0.8-0.8v-0.8l-8.8-8.8c4-8,5.6-17.6,5.6-21.6c0-9.6,0-24,0-37.6l0,0l0,0l0,0h0.8c0-0.8,0-1.6,0-2.4h2.4c0-2.4,0-4.8-1.6-4.8
		c-0.8,0-0.8,0.8-0.8,1.6l0,0c0-0.8,0.8-2.4,0.8-3.2v0.8l0,0l0,0l0,0l0,0l0,0l0,0l0,0l0,0l0,0l0,0l0,0l0,0c0,0,0,0.8,0.8,0.8l0,0
		l0,0l0,0l0,0l0,0l0,0l0,0l0,0l0,0l0,0l0,0l0,0l0,0l0,0l0,0l0,0l0,0l0,0l0,0l0,0l0,0l0,0l0,0l0,0l0,0l0,0l0,0l0,0l0,0l0,0l0,0l0,0
		c0-1.6-0.8-6.4-0.8-7.2s-0.8-5.6-0.8-9.6c0-2.4,0-4-0.8-5.6c0.8,0,1.6,0,2.4-0.8s0.8-0.8,0.8-1.6h0.8v-0.8l0,0l0,0c0,0,0,0,0.8,0
		c0.8,0.8,1.6,1.6,0.8,2.4c0,1.6-1.6,2.4-1.6,2.4l0,0c0.8,0,1.6,0.8,2.4,0.8c3.2,0,5.6-2.4,5.6-5.6
		C327.2,210.8,327.2,210.8,327.2,210L327.2,210z M219.2,200.4C219.2,200.4,219.2,199.6,219.2,200.4
		C219.2,199.6,219.2,200.4,219.2,200.4z M253.6,340.4L253.6,340.4L253.6,340.4L253.6,340.4z M262.4,175.6L262.4,175.6
		C261.6,175.6,262.4,175.6,262.4,175.6L262.4,175.6z M277.6,161.2C278.4,161.2,278.4,161.2,277.6,161.2L277.6,161.2
		C278.4,161.2,278.4,161.2,277.6,161.2z M252,186.8c0,0.8,0.8,1.6,0.8,1.6l0,0c0,0.8,0,2.4,0,2.4c0,0.8,0,1.6-0.8,1.6
		c0,0.8-0.8,0.8-1.6,0.8c-0.8,0-1.6,0-2.4,0.8v0.8l0,0h-0.8c0,0-0.8-0.8-1.6-0.8h-0.8c1.6-2.4,3.2-4.8,5.6-6.4
		C250.4,186.8,251.2,186.8,252,186.8C251.2,186.8,252,186.8,252,186.8z M267.2,152.4L267.2,152.4L267.2,152.4z M256.8,162.8
		L256.8,162.8L256.8,162.8L256.8,162.8z M225.6,157.2C225.6,158,225.6,158,225.6,157.2L225.6,157.2C225.6,158,225.6,158,225.6,157.2
		z M238.4,196.4C238.4,196.4,239.2,196.4,238.4,196.4C239.2,196.4,238.4,196.4,238.4,196.4L238.4,196.4z M239.2,296.4
		c-0.8,0-1.6-0.8-2.4-0.8C236.8,295.6,237.6,296.4,239.2,296.4L239.2,296.4z M235.2,294.8c0,0,0.8,0,0.8,0.8
		C236,295.6,236,295.6,235.2,294.8z M234.4,294.8L234.4,294.8L234.4,294.8z M232.8,294L232.8,294L232.8,294z M231.2,292.4
		C231.2,293.2,231.2,293.2,231.2,292.4C231.2,293.2,231.2,293.2,231.2,292.4z M225.6,288.4L225.6,288.4L225.6,288.4z M226.4,289.2
		C227.2,290,227.2,290,226.4,289.2C227.2,290,227.2,290,226.4,289.2z M228,290.8C228,290.8,228.8,290.8,228,290.8
		C228.8,290.8,228,290.8,228,290.8z M229.6,291.6L229.6,291.6L229.6,291.6z M224.8,287.6L224.8,287.6L224.8,287.6z M234.4,198
		L234.4,198c-0.8,0.8-0.8,0.8-0.8,0.8C233.6,198.8,234.4,198,234.4,198z M229.6,290c2.4,1.6,4.8,3.2,7.2,4
		c-7.2-3.2-13.6-9.6-18.4-17.6C220.8,282,224.8,286.8,229.6,290z M256.8,296.4L256.8,296.4L256.8,296.4L256.8,296.4z M209.6,242
		c-1.6-1.6,0,0-4-4l0,0l-0.8-0.8l-0.8-0.8l0,0l0.8,0.8L209.6,242L209.6,242z M198.4,230.8L198.4,230.8
		C198.4,230.8,197.6,230.8,198.4,230.8C197.6,230,197.6,230,198.4,230.8L198.4,230.8z M197.6,230L197.6,230L197.6,230L197.6,230
		L197.6,230z M197.6,230L197.6,230L197.6,230L197.6,230L197.6,230z M197.6,230L197.6,230L197.6,230L197.6,230L197.6,230z M196.8,230
		C196.8,229.2,196.8,229.2,196.8,230C196.8,229.2,196.8,229.2,196.8,230L196.8,230L196.8,230z M260.8,294.8
		c7.2-3.2,12.8-9.6,17.6-16.8C273.6,286,268,291.6,260.8,294.8z M257.6,296.4h0.8C258.4,295.6,257.6,296.4,257.6,296.4z
		 M259.2,295.6c0,0,0.8,0,0.8-0.8C260,294.8,260,295.6,259.2,295.6z M268.8,170L268.8,170L268.8,170L268.8,170z M272,158L272,158
		L272,158L272,158z M271.2,151.6L271.2,151.6L271.2,151.6L271.2,151.6L271.2,151.6z M288,153.2L288,153.2h0.8H288z M261.6,158.8
		c-0.8,0-0.8,0.8-1.6,1.6l0,0C260.8,160.4,260.8,159.6,261.6,158.8C261.6,159.6,261.6,158.8,261.6,158.8z M224.8,169.2L224.8,169.2
		L224.8,169.2L224.8,169.2z M251.2,194.8C251.2,194.8,252,194.8,251.2,194.8C252,194.8,252,194.8,251.2,194.8
		C252,194.8,252,194.8,251.2,194.8z M264.8,174.8L264.8,174.8L264.8,174.8L264.8,174.8L264.8,174.8z M267.2,174
		C268,174,268,174.8,267.2,174L267.2,174L267.2,174z M273.6,162.8C273.6,162,273.6,162,273.6,162.8C273.6,162,273.6,162,273.6,162.8
		L273.6,162.8z M216,160.4C216,160.4,215.2,160.4,216,160.4L216,160.4C215.2,160.4,216,160.4,216,160.4z M220,162L220,162L220,162
		L220,162z M226.4,173.2L226.4,173.2L226.4,173.2L226.4,173.2z M195.2,187.6L195.2,187.6L195.2,187.6L195.2,187.6z M191.2,188.4
		L191.2,188.4L191.2,188.4L191.2,188.4z M240,315.6L240,315.6L240,315.6c0,0.8-0.8,2.4-0.8,4c0,0,0,0,0-0.8
		C240,318,240,317.2,240,315.6z M315.2,212.4C314.4,212.4,314.4,212.4,315.2,212.4c-0.8-0.8-2.4-2.4-2.4-2.4
		C312.8,210,313.6,210.8,315.2,212.4z M314.4,212.4L314.4,212.4L314.4,212.4L314.4,212.4z M300,228.4L300,228.4l2.4-2.4
		C301.6,226.8,300.8,227.6,300,228.4z M305.6,207.6v-0.8l0,0V207.6L305.6,207.6z M304.8,188.4L304.8,188.4L304.8,188.4L304.8,188.4z
		 M305.6,188.4L305.6,188.4C304.8,188.4,304.8,188.4,305.6,188.4L305.6,188.4C304.8,188.4,304.8,188.4,305.6,188.4
		C304.8,188.4,304.8,188.4,305.6,188.4z M304.8,188.4L304.8,188.4L304.8,188.4c-0.8,0-3.2-1.6-3.2-1.6s0,0-0.8,0.8l0,0
		C300.8,186.8,301.6,186,304.8,188.4z M255.2,195.6c-0.8,0-0.8,0-1.6-0.8l0,0L255.2,195.6z M233.6,175.6
		C233.6,175.6,233.6,174.8,233.6,175.6L233.6,175.6L233.6,175.6z M237.6,180.4L237.6,180.4L237.6,180.4L237.6,180.4z M228,202
		L228,202L228,202L228,202z M194.4,186.8c-0.8,0-2.4,1.6-3.2,1.6l0,0l0,0C192.8,186.8,193.6,186.8,194.4,186.8z M190.4,188.4
		L190.4,188.4L190.4,188.4L190.4,188.4L190.4,188.4L190.4,188.4z M180.8,212.4L180.8,212.4C181.6,212.4,181.6,212.4,180.8,212.4
		C181.6,212.4,181.6,212.4,180.8,212.4z M183.2,210c0,0-1.6,1.6-2.4,2.4l0,0C182.4,210.8,183.2,210,183.2,210z M180,238.8
		C180,238.8,179.2,238.8,180,238.8c0,0.8,0,0.8,0,0.8s0,0-0.8,0l0,0l0,0l0,0C179.2,239.6,179.2,238.8,180,238.8
		C179.2,238.8,179.2,238.8,180,238.8C179.2,238.8,179.2,238.8,180,238.8C179.2,238.8,179.2,238.8,180,238.8
		C179.2,238.8,179.2,238.8,180,238.8C179.2,238.8,179.2,238.8,180,238.8L180,238.8L180,238.8L180,238.8L180,238.8
		C180,238,180,238,180,238.8C180,238,180,238,180,238.8C180,238,180,238,180,238.8C180,238,180,238,180,238.8
		C180,238,180,238,180,238.8C180,238,180,238,180,238.8c0-0.8,0-0.8,0-0.8l0,0l0,0l0,0l0,0l0,0v-0.8C180,237.2,180,238,180,238.8z
		 M241.6,342L241.6,342c0-0.8,0-0.8,0-0.8l0,0c0,0,0,0,0-0.8C241.6,340.4,241.6,341.2,241.6,342z M252,340.4L252,340.4
		c0,0.8,0,0.8,0,0.8C252,340.4,252,340.4,252,340.4z M252,341.2v0.8l0,0C252,342,252,341.2,252,341.2z M315.2,242L315.2,242
		L315.2,242c0-0.8,0-0.8,0-0.8C315.2,242,315.2,242,315.2,242z"/>
</g>
<g>
	<path style="fill:#D7DCE2;" d="M214.4,208.4l0.8,0.8l0,0c0.8,0,0.8,0,0.8-0.8c0,0,0,0,0-0.8l0,0c0.8-0.8-0.8-1.6-0.8-0.8
		c0,0-0.8,0,0,0.8C214.4,207.6,214.4,207.6,214.4,208.4L214.4,208.4L214.4,208.4z"/>
	<path style="fill:#D7DCE2;" d="M332,197.2c-2.4,3.2-10.4,5.6-10.4,5.6c0,2.4-0.8,4.8-1.6,4.8c0,0,0,0-0.8,0l0,0
		c-0.8-0.8-3.2-2.4-4-1.6c-0.8,0.8,0.8,3.2,1.6,4l0,0c0,0,0,0,0,0.8c-0.8,0-0.8,0-0.8,0v0.8c-0.8,0-0.8,0-1.6,0.8l0,0
		c0-0.8,0-2.4-1.6-3.2c0,0-1.6-0.8-3.2,0.8c0,0,0,0.8,0,1.6l0,0l0,0l0,0l0,0c-0.8,0-2.4,0-1.6,1.6l0.8,1.6c0,0,0.8-1.6,4-1.6
		c-2.4,0-4,2.4-4,2.4l0.8,0.8h0.8c-1.6,1.6-4.8,4.8-7.2,7.2c0-1.6,0-4,0-5.6h0.8c0-0.8,0-1.6,0-3.2c0.8,0,1.6,0,2.4,0
		c0-2.4,0-4.8-1.6-4.8c-0.8,0-0.8,0-0.8,0.8c0-0.8,0-0.8,0-1.6l0,0l0,0l0,0l0,0l0,0l0,0l0,0l0,0l0,0l0,0l0,0l0,0l0,0l0,0l0,0l0,0
		l0,0l0,0l0,0l0,0l0,0l0,0l0,0l0,0l0,0l0,0l0,0l0,0l0,0l0,0l0,0l0,0l0,0l0,0l0,0l0,0c0-1.6-0.8-4-0.8-4.8s-0.8-4.8-0.8-8
		c0-1.6-0.8-4-0.8-5.6l0.8-0.8c1.6,0.8,4,0.8,6.4,0c0,0,0,0,0.8,0l0,0c-2.4,0.8-4.8,0.8-6.4-0.8l0,0c0.8-0.8,2.4-1.6,3.2-1.6
		c0-0.8,1.6-4.8,2.4-7.2c-1.6,1.6-6.4,4-6.4,4c0,1.6-0.8,3.2-0.8,3.2l0,0l-0.8-0.8c-0.8-1.6-0.8-2.4-0.8-4l0,0c4,0,4,1.6,4,3.2
		c0-0.8-0.8-0.8-1.6-0.8c0,0-2.4-0.8-2.4,1.6v0.8c-0.8,0-1.6,0.8-0.8,1.6l0.8,1.6l0.8,0.8h0.8c-2.4,2.4-4.8,4.8-7.2,7.2
		c0,0,0,0,0-0.8c-0.8-1.6-1.6-3.2-2.4-4.8l0,0l0,0c0,0.8,0.8,0.8,0.8,1.6c0.8,1.6,0.8,3.2,1.6,4.8c-0.8,0.8-1.6,1.6-2.4,2.4
		c-0.8-2.4-2.4-4.8-3.2-6.4c-0.8-1.6-0.8-2.4-1.6-3.2l0,0c1.6,3.2,3.2,7.2,4,10.4l-0.8,0.8c-1.6-3.2-3.2-7.2-5.6-10.4l0,0
		c1.6,4,3.2,7.2,4.8,11.2c-0.8,0.8-0.8,0.8-1.6,1.6c-2.4-4.8-5.6-9.6-8-14.4l0,0c1.6,3.2,3.2,6.4,4.8,10.4c0.8,1.6,1.6,3.2,2.4,4.8
		l0,0c0,0,0,0-0.8,0.8l0,0c-1.6-3.2-3.2-6.4-5.6-9.6c-1.6-2.4-3.2-4.8-5.6-7.2l0,0l0,0l0,0l0,0c2.4,4,4.8,7.2,6.4,11.2l3.2,7.2l0,0
		c-0.8,0.8-0.8,0.8-1.6,1.6c-0.8-1.6-1.6-2.4-2.4-4c-1.6-2.4-4-4.8-5.6-7.2l0,0l0,0l0,0l0,0l0,0c2.4,4,4.8,8,7.2,12l0,0
		c-0.8,0.8-0.8,0.8-1.6,1.6c0-0.8-0.8-0.8-0.8-1.6c-0.8-0.8-0.8-1.6-1.6-1.6l0,0c0.8,0.8,1.6,2.4,2.4,4c-0.8,0.8-1.6,1.6-2.4,2.4
		c-4-6.4-8.8-12-13.6-15.2l0,0l0,0l-0.8-0.8l0,0c-0.8,0-2.4-1.6-4.8-2.4v-0.8l0,0c0,0-0.8-1.6-1.6-2.4c-0.8-0.8-1.6-0.8-2.4-0.8
		c-0.8-0.8-0.8-0.8-0.8-1.6c0,0,0-2.4,0-3.2v0.8v0.8l0,0c0,0,0.8,0,1.6-0.8c0.8-1.6,0.8-3.2,0.8-4l0.8,0.8c0,0,0.8-1.6,0.8-2.4l0,0
		c0,0,0-0.8,0-1.6l0,0c0,0,0-0.8,0-2.4c1.6,2.4,2.4,2.4,3.2,2.4c0.8,0,0-2.4,0-3.2c0.8,1.6,3.2,2.4,3.2,2.4c0.8,0,0.8-2.4,0.8-3.2
		c1.6,1.6,3.2,2.4,4,1.6c0.8,0,0-1.6,0-3.2c2.4,1.6,4,0.8,4,0c0,0-0.8-2.4-1.6-3.2c2.4,1.6,4.8,1.6,5.6,0.8c0.8,0-0.8-2.4-1.6-3.2
		c3.2,1.6,5.6,1.6,5.6,1.6c0-0.8-0.8-2.4-1.6-3.2c7.2,4.8,7.2,2.4,7.2,2.4l-1.6-2.4c3.2,0.8,5.6,1.6,6.4,0.8c0,0,0-0.8-0.8-1.6
		c5.6,1.6,7.2,0.8,7.2,0.8c0.8,0-0.8-1.6-1.6-2.4c3.2,0.8,4.8,1.6,4.8,1.6c4,0,3.2-0.8,0.8-2.4c4.8,1.6,8,1.6,7.2,1.6
		c0-0.8-2.4-2.4-4-3.2c3.2,1.6,5.6,2.4,7.2,2.4c3.2,0.8,1.6-0.8,1.6-0.8l-4-2.4c1.6,0.8,3.2,0.8,4,1.6c3.2,0.8,1.6-0.8,1.6-0.8
		l-5.6-3.2l0,0c2.4,1.6,9.6,3.2,9.6,3.2s-0.8-0.8-1.6-0.8l0,0c0.8,0.8,1.6,0.8,1.6,0.8s1.6,0.8,0,0c0,0,0,0-0.8,0
		c-0.8-0.8-2.4-1.6-4.8-3.2c-0.8,0-0.8-0.8-1.6-0.8c-2.4-0.8-13.6-6.4-15.2-7.2s-9.6-3.2-11.2-3.2c-2.4,0-12-1.6-20-2.4
		c-6.4-0.8-6.4,4-6.4,5.6v0.8c0,0-1.6,1.6-2.4,1.6c-0.8,0.8-1.6,0.8-1.6,0.8c-0.8,0-4.8,1.6-6.4,2.4c0,0-0.8-0.8-1.6-0.8
		c-1.6,0-4-0.8-8-0.8c-3.2,0-4.8,1.6-4.8,2.4h-0.8c0,0-3.2-2.4-4.8-3.2c0,0,0,0-0.8,0l0,0c0,0,0-1.6,0-3.2c0-0.8,0-1.6-0.8-1.6
		c0,0,0,0,0-0.8c0-1.6-0.8-4-3.2-4s-8.8,0-9.6,0s-4.8-1.6-11.2,0c-4,0.8-11.2,4-15.2,5.6c-0.8,0-1.6,0.8-2.4,0.8
		c-0.8,0.8-1.6,0.8-2.4,0.8c0,0,0,0,0.8,0c-8.8,4-16.8,9.6-16.8,9.6s0.8,0,2.4-0.8c0.8,0,1.6,0,3.2-0.8c0,0,0,0.8,2.4,0.8
		c0.8,0,1.6,0,3.2,0c-0.8,0-0.8,0.8-0.8,0.8c0,0.8,3.2,0,8.8-0.8c-1.6,0.8-2.4,1.6,1.6,2.4c0,0,2.4-0.8,5.6-1.6
		c-0.8,0.8-1.6,1.6-1.6,2.4c0.8,0,2.4,1.6,8-0.8c-0.8,0.8-2.4,1.6-1.6,2.4c0,0,3.2,0,6.4-1.6l-1.6,2.4c0,0,0.8,2.4,8-1.6
		c-0.8,1.6-2.4,3.2-1.6,3.2c0,0.8,2.4,0.8,5.6-0.8c-0.8,1.6-2.4,3.2-1.6,3.2c0.8,0.8,3.2,0.8,5.6-0.8c-0.8,1.6-1.6,3.2-1.6,3.2
		s2.4,1.6,4,0c-0.8,1.6-0.8,2.4,0,3.2c0.8,0,2.4,0,4-1.6c0,1.6,0,3.2,0,3.2c0.8,0,2.4-0.8,4-3.2c0,0.8,0,4,0,4.8
		c0.8,0,1.6,0.8,3.2-2.4c0,1.6,0,3.2,0,3.2h0.8c-1.6,1.6-2.4,4-3.2,5.6c-1.6,2.4-3.2,4.8-3.2,5.6c-0.8,1.6-1.6,2.4-0.8,2.4l0,0
		c-0.8,0.8-0.8,1.6-0.8,2.4c-0.8,2.4-2.4,4.8-1.6,5.6c-3.2,3.2-6.4,7.2-8.8,11.2c-0.8-0.8-1.6-1.6-2.4-2.4l-0.8-0.8
		c0.8-0.8,1.6-1.6,2.4-1.6c-0.8,0-1.6,0-3.2,0h-0.8c0,0,0,0-0.8-0.8c0.8-0.8,1.6-0.8,1.6-1.6h0.8H212c0.8-0.8,1.6-1.6,3.2-2.4
		c-0.8,0-0.8,0-1.6,0.8c-0.8,0-1.6,0-2.4,0l0,0c1.6-1.6,4-1.6,5.6-1.6s2.4,0,3.2-0.8c0.8,0,2.4-0.8,3.2-1.6c-1.6,0-3.2-0.8-4-0.8
		l0,0l0,0c0.8-0.8-0.8-1.6-0.8-0.8h-0.8c0,0,0,0-0.8,0c0,0,0,0,0.8-0.8c0,0,0.8,0,0.8-0.8c2.4-0.8,5.6,0,7.2-1.6
		c-0.8,0-1.6,0.8-3.2,0.8c-0.8,0-1.6,0-2.4,0c1.6-0.8,2.4-2.4,3.2-4c-0.8,0.8-1.6,0.8-3.2,1.6c-0.8,0.8-1.6,1.6-1.6,2.4l0,0
		c0-0.8,0-2.4,0-3.2c-0.8,0.8-0.8,1.6-1.6,2.4c0,0.8,0,2.4-0.8,3.2l0,0c0,0,0,0-0.8,0l0,0c0,0,0,0,0-0.8l0,0c2.4,0,0.8-0.8,0.8,0
		c0,0-0.8,0,0,0.8v0.8l0,0c0,0,0,0,0.8,0.8l-0.8,0.8c-0.8,0.8-2.4,1.6-3.2,3.2l0,0H212l0,0l0,0c0-0.8,0.8-0.8,0.8-1.6
		s0.8-0.8,0.8-1.6c0.8,0,0.8-0.8,1.6-1.6s1.6-1.6,2.4-2.4c-1.6,0-2.4,0.8-3.2,0.8c-1.6,0-2.4,0.8-4,0.8c-1.6,0.8-1.6,2.4-3.2,3.2
		c0,0,0,0,0.8,0s0.8,0,1.6,0c-0.8,0.8-0.8,1.6-0.8,3.2l0,0c0,0,0,0-0.8,0l0,0c-0.8-0.8-0.8-0.8-1.6-1.6l0,0l0,0l0,0l0,0
		c0.8-0.8,0.8-1.6,0.8-3.2c0-0.8,0.8-1.6,0.8-1.6s4.8-0.8,6.4-7.2c0,0,0-2.4,0.8-2.4c0,0-4.8,4-6.4,4.8c-0.8,1.6-1.6,4-1.6,4.8l0,0
		c0-0.8,0-2.4,0-3.2c0,0-0.8-2.4,0-3.2c0,0-3.2,5.6-3.2,7.2v0.8c-0.8-0.8-1.6-1.6-2.4-2.4c0-0.8,0-2.4,0-3.2c0,0-0.8,0.8-0.8,2.4
		c-2.4-2.4-5.6-5.6-8-8h0.8l0.8-0.8l0.8-1.6c0.8-0.8,0-1.6-0.8-1.6c0-0.8,0-0.8,0-0.8c-0.8-2.4-2.4-1.6-2.4-1.6
		c-0.8,0-0.8,0-1.6,0.8c0-1.6,0-3.2-0.8-4l0,0c0,1.6,0,3.2-0.8,4c0,0.8-0.8,0.8-0.8,1.6s-0.8,0.8-0.8,0.8c-1.6,1.6-4,1.6-6.4,0.8
		l0,0c0,0,0,0,0.8,0c2.4,1.6,4.8,1.6,7.2,0l0.8,0.8c0,1.6-0.8,3.2-0.8,5.6c0,0.8,0,1.6,0,3.2l122.4,104c3.2-7.2,4-14.4,4-17.6
		c0-9.6,0-24,0-37.6l0,0l0,0l0,0h0.8c0-0.8,0-1.6,0-2.4h2.4c0-2.4,0-4.8-1.6-4.8c-0.8,0-0.8,0.8-0.8,1.6l0,0c0-0.8,0.8-2.4,0.8-3.2
		v0.8l0,0l0,0l0,0l0,0l0,0l0,0l0,0l0,0l0,0l0,0l0,0l0,0c0,0,0,0.8,0.8,0.8l0,0l0,0l0,0l0,0l0,0l0,0l0,0l0,0l0,0l0,0l0,0l0,0l0,0l0,0
		l0,0l0,0l0,0l0,0l0,0l0,0l0,0l0,0l0,0l0,0l0,0l0,0l0,0l0,0l0,0l0,0l0,0l0,0c0-1.6-0.8-6.4-0.8-7.2s-0.8-5.6-0.8-9.6
		c0-2.4,0-4-0.8-5.6c0.8,0,1.6,0,2.4-0.8s0.8-0.8,0.8-1.6h0.8v-0.8l0,0l0,0c0,0,0,0,0.8,0c0.8,0.8,1.6,1.6,0.8,2.4
		c0,1.6-1.6,2.4-1.6,2.4l0,0c0.8,0,1.6,0.8,2.4,0.8c3.2,0,5.6-2.4,5.6-5.6c0-0.8,0-0.8,0-1.6l0,0c0,0-1.6,1.6-2.4,1.6
		c-1.6,0-2.4-0.8-2.4-1.6v-0.8c0,0,0,0,0-0.8c0.8-0.8,3.2-1.6,5.6-1.6C327.2,206,329.6,200.4,332,197.2z M305.6,206.8v0.8l0,0V206.8
		L305.6,206.8z M288.8,153.2H288l0,0C288,152.4,288,153.2,288.8,153.2z M278.4,161.2L278.4,161.2L278.4,161.2L278.4,161.2z
		 M274.4,162.8L274.4,162.8C273.6,162,273.6,162,274.4,162.8C273.6,162,273.6,162,274.4,162.8z M271.2,151.6L271.2,151.6
		L271.2,151.6L271.2,151.6L271.2,151.6z M268.8,170L268.8,170L268.8,170L268.8,170z M267.2,174C268,174,268,174.8,267.2,174
		L267.2,174L267.2,174z M264.8,174.8L264.8,174.8L264.8,174.8L264.8,174.8L264.8,174.8z M262.4,175.6L262.4,175.6L262.4,175.6
		C261.6,175.6,262.4,175.6,262.4,175.6z M260.8,159.6C261.6,159.6,261.6,158.8,260.8,159.6c0,0,0,0-0.8,0.8
		C260.8,160.4,260.8,160.4,260.8,159.6C260.8,160.4,260.8,159.6,260.8,159.6z M256.8,162C256.8,162.8,256.8,162.8,256.8,162
		C256.8,162.8,256.8,162.8,256.8,162C256.8,162.8,256.8,162.8,256.8,162z M215.2,161.2L215.2,161.2
		C215.2,160.4,216,160.4,215.2,161.2C216,160.4,215.2,160.4,215.2,161.2z M220,162L220,162L220,162L220,162z M224.8,169.2
		L224.8,169.2L224.8,169.2L224.8,169.2z M225.6,158L225.6,158L225.6,158L225.6,158z M226.4,173.2L226.4,173.2L226.4,173.2
		L226.4,173.2z M233.6,175.6C233.6,175.6,233.6,174.8,233.6,175.6L233.6,175.6L233.6,175.6z M195.2,187.6L195.2,187.6L195.2,187.6
		L195.2,187.6z M190.4,188.4L190.4,188.4L190.4,188.4L190.4,188.4L190.4,188.4L190.4,188.4z M191.2,188.4L191.2,188.4L191.2,188.4
		L191.2,188.4z M191.2,188.4L191.2,188.4c1.6-1.6,2.4-1.6,3.2-1.6C193.6,186.8,192,188.4,191.2,188.4L191.2,188.4z M228,202L228,202
		L228,202L228,202z M234.4,198C233.6,198.8,233.6,198.8,234.4,198C233.6,198.8,234.4,198,234.4,198L234.4,198z M237.6,180.4
		L237.6,180.4L237.6,180.4L237.6,180.4z M238.4,196.4L238.4,196.4C238.4,196.4,239.2,196.4,238.4,196.4
		C239.2,196.4,238.4,196.4,238.4,196.4z M251.2,194.8C251.2,194.8,252,194.8,251.2,194.8C252,194.8,252,194.8,251.2,194.8
		C252,194.8,252,194.8,251.2,194.8z M252,192.4c0,0.8-0.8,0.8-1.6,0.8c-0.8,0-1.6,0-2.4,0.8v0.8l0,0h-0.8c0,0-0.8-0.8-1.6-0.8h-0.8
		c1.6-2.4,3.2-4.8,5.6-6.4l0.8-0.8c0,0,0,0,0,0.8s0.8,1.6,0.8,1.6l0,0c0,0.8,0,2.4,0,2.4C252.8,191.6,252,192.4,252,192.4z
		 M253.6,195.6L253.6,195.6c0,0,0.8,0,1.6,0.8C255.2,195.6,254.4,195.6,253.6,195.6z M300,228.4L300,228.4l2.4-2.4
		C301.6,226.8,300.8,227.6,300,228.4z M304.8,188.4L304.8,188.4c-0.8,0-3.2-1.6-3.2-1.6s0,0-0.8,0.8l0,0
		C300.8,186.8,301.6,186,304.8,188.4L304.8,188.4z M304.8,188.4L304.8,188.4L304.8,188.4L304.8,188.4z M304.8,188.4L304.8,188.4
		L304.8,188.4L304.8,188.4L304.8,188.4L304.8,188.4z M314.4,212.4L314.4,212.4L314.4,212.4L314.4,212.4z M314.4,212.4
		c-0.8-0.8-2.4-2.4-2.4-2.4C312.8,210,313.6,210.8,314.4,212.4L314.4,212.4z M315.2,241.2v0.8C315.2,242,315.2,242,315.2,241.2
		C315.2,242,315.2,242,315.2,241.2L315.2,241.2z"/>
</g>
<g>
</g>
<g>
</g>
<g>
</g>
<g>
</g>
<g>
</g>
<g>
</g>
<g>
</g>
<g>
</g>
<g>
</g>
<g>
</g>
<g>
</g>
<g>
</g>
<g>
</g>
<g>
</g>
<g>
</g>
</svg>
