<?xml version="1.0" encoding="iso-8859-1"?>
<!-- Generator: Adobe Illustrator 19.0.0, SVG Export Plug-In . SVG Version: 6.00 Build 0)  -->
<svg version="1.1" id="Capa_1" xmlns="http://www.w3.org/2000/svg" xmlns:xlink="http://www.w3.org/1999/xlink" x="0px" y="0px"
	 viewBox="0 0 496 496" style="enable-background:new 0 0 496 496;" xml:space="preserve">
<rect x="160" y="80" style="fill:#DB2727;" width="176" height="336"/>
<path style="fill:#359846;" d="M160,80H48C21.6,80,0,99.2,0,126.4v243.2C0,396.8,21.6,416,48,416h112V80z"/>
<path style="fill:#F8D12E;" d="M448,80H336v336h112c26.4,0,48-19.2,48-46.4V126.4C496,99.2,474.4,80,448,80z"/>
<path style="fill:#EDC107;" d="M448,80H336v240.8L446.4,416c26.4,0,49.6-19.2,49.6-46.4V126.4C496,99.2,474.4,80,448,80z"/>
<polygon style="fill:#C61717;" points="336,320.8 336,80 160,80 160,175.2 "/>
<polygon style="fill:#247F31;" points="160,80 48,80 160,175.2 "/>
<path style="fill:#DDB305;" d="M336,416h112c26.4,0,48-16,48-48H336V416z"/>
<rect x="160" y="368" style="fill:#AF0B0B;" width="176" height="48"/>
<path style="fill:#166820;" d="M0,368c0,32,21.6,48,48,48h112v-48H0z"/>
<path style="fill:#DDB305;" d="M448,80H336v84.8l160,49.6v-88C496,99.2,474.4,80,448,80z"/>
<polygon style="fill:#AF0B0B;" points="336,164.8 336,80 160,80 160,112.8 "/>
<polygon style="fill:#166820;" points="160,80 48,80 160,112.8 "/>
<polygon style="fill:#F8D12E;" points="248,184.8 263.2,232 312.8,232 272.8,261.6 288,308.8 248,280 208,309.6 223.2,261.6 
	183.2,232 232.8,232 "/>
<polygon style="fill:#EDC107;" points="263.2,232 248,184.8 232.8,232 231.2,232 276,270.4 272.8,261.6 312.8,232 "/>
<g>
</g>
<g>
</g>
<g>
</g>
<g>
</g>
<g>
</g>
<g>
</g>
<g>
</g>
<g>
</g>
<g>
</g>
<g>
</g>
<g>
</g>
<g>
</g>
<g>
</g>
<g>
</g>
<g>
</g>
</svg>
