<?xml version="1.0" encoding="iso-8859-1"?>
<!-- Generator: Adobe Illustrator 19.0.0, SVG Export Plug-In . SVG Version: 6.00 Build 0)  -->
<svg version="1.1" id="Capa_1" xmlns="http://www.w3.org/2000/svg" xmlns:xlink="http://www.w3.org/1999/xlink" x="0px" y="0px"
	 viewBox="0 0 496 496" style="enable-background:new 0 0 496 496;" xml:space="preserve">
<path style="fill:#007FFF;" d="M448,77.6H48c-26.4,0-48,21.6-48,48.8v243.2c0,27.2,21.6,48.8,48,48.8h400c26.4,0,48-21.6,48-48.8
	V126.4C496,99.2,474.4,77.6,448,77.6z"/>
<path style="fill:#0A64E5;" d="M48,77.6h400c26.4,0,48,21.6,48,48.8v243.2c0,27.2-21.6,48.8-48,48.8"/>
<g>
	<path style="fill:#095ACE;" d="M496,369.6c0,27.2-21.6,48.8-48,48.8H48c-26.4,0-48-21.6-48-48.8"/>
	<path style="fill:#095ACE;" d="M48,77.6h400c26.4,0,48,21.6,48,48.8v88.8"/>
</g>
<g>
	<path style="fill:#F7D618;" d="M448,77.6h-12L0,339.2v30.4c0,27.2,21.6,48.8,48,48.8h12l436-261.6v-30.4
		C496,99.2,474.4,77.6,448,77.6z"/>
	<polygon style="fill:#F7D618;" points="75.2,175.2 63.2,213.6 94.4,189.6 125.6,213.6 113.6,175.2 144.8,151.2 106.4,151.2 
		94.4,112.8 82.4,151.2 44,151.2 	"/>
</g>
<path style="fill:#CE1021;" d="M0,369.6c0,21.6,13.6,39.2,32,46.4l464-278.4v-11.2c0-21.6-13.6-39.2-32-46.4L0,358.4V369.6z"/>
<path style="fill:#7F091D;" d="M0.8,378.4c0,2.4,0.8,4.8,1.6,6.4v0.8c0.8,2.4,1.6,4,2.4,5.6v0.8c0.8,2.4,2.4,4,3.2,5.6
	c0,0,0,0.8,0.8,0.8c2.4,4,6.4,7.2,9.6,10.4l0,0c4,3.2,8,5.6,12.8,7.2l0,0l76.8-46.4H0c0,2.4,0,4.8,0.8,7.2
	C0.8,377.6,0.8,377.6,0.8,378.4z"/>
<path style="fill:#9E081A;" d="M495.2,119.2c0-0.8,0-0.8,0-1.6c0-2.4-0.8-4.8-1.6-6.4v-0.8c-0.8-2.4-1.6-4-2.4-5.6V104
	c-0.8-2.4-2.4-4-3.2-5.6c0,0,0,0-0.8-0.8c-2.4-4-6.4-7.2-9.6-10.4l0,0c-4-3.2-8-5.6-12.8-7.2l0,0L221.6,225.6l52.8,44.8L496,137.6
	v-11.2C496,124,496,121.6,495.2,119.2z"/>
<path style="fill:#7F091D;" d="M495.2,119.2c0-0.8,0-0.8,0-1.6c0-2.4-0.8-4.8-1.6-6.4l0,0c0,0,0,0,0-0.8c-0.8-2.4-1.6-4-2.4-5.6l0,0
	c0,0,0,0,0-0.8c-0.8-2.4-2.4-4-3.2-5.6c0,0,0,0-0.8-0.8c-2.4-4-6.4-7.2-9.6-10.4l0,0l0,0c-4-3.2-8-4.8-12.8-7.2l0,0l-138.4,82.4
	l84.8,25.6l84.8-50.4v-11.2C496,124,496,121.6,495.2,119.2z"/>
<g>
</g>
<g>
</g>
<g>
</g>
<g>
</g>
<g>
</g>
<g>
</g>
<g>
</g>
<g>
</g>
<g>
</g>
<g>
</g>
<g>
</g>
<g>
</g>
<g>
</g>
<g>
</g>
<g>
</g>
</svg>
