<?xml version="1.0" encoding="iso-8859-1"?>
<!-- Generator: Adobe Illustrator 19.0.0, SVG Export Plug-In . SVG Version: 6.00 Build 0)  -->
<svg version="1.1" id="Capa_1" xmlns="http://www.w3.org/2000/svg" xmlns:xlink="http://www.w3.org/1999/xlink" x="0px" y="0px"
	 viewBox="0 0 496 496" style="enable-background:new 0 0 496 496;" xml:space="preserve">
<path style="fill:#003893;" d="M496,369.6c0,27.2-21.6,48.8-48,48.8H48c-26.4,0-48-21.6-48-48.8V126.4c0-27.2,21.6-48.8,48-48.8h400
	c26.4,0,48,21.6,48,48.8V369.6z"/>
<path style="fill:#01357F;" d="M48,77.6h400c26.4,0,48,21.6,48,48.8v243.2c0,27.2-21.6,48.8-48,48.8"/>
<g>
	<path style="fill:#03326B;" d="M48,77.6h400c26.4,0,48,21.6,48,48.8v88.8"/>
	<path style="fill:#03326B;" d="M496,369.6c0,27.2-21.6,48.8-48,48.8H48c-26.4,0-48-21.6-48-48.8"/>
</g>
<rect y="260" style="fill:#FFFFFF;" width="496" height="77.6"/>
<polygon style="fill:#C1C8D1;" points="352.8,336.8 496,336.8 496,260 261.6,260 "/>
<rect y="285.6" style="fill:#CE1126;" width="496" height="24.8"/>
<g>
	<polygon style="fill:#FFCC00;" points="122.4,209.6 119.2,220 108,220 116.8,226.4 113.6,236.8 122.4,230.4 131.2,236.8 128,226.4 
		136.8,220 125.6,220 	"/>
	<polygon style="fill:#FFCC00;" points="160.8,240.8 157.6,251.2 166.4,244.8 175.2,251.2 172,240.8 180.8,234.4 169.6,234.4 
		166.4,224 163.2,234.4 152,234.4 	"/>
	<polygon style="fill:#FFCC00;" points="190.4,272 179.2,272 188,278.4 184.8,288.8 193.6,282.4 202.4,288.8 199.2,278.4 208,272 
		196.8,272 193.6,261.6 	"/>
	<polygon style="fill:#FFCC00;" points="196.8,318.4 193.6,308 190.4,318.4 179.2,318.4 188,324.8 184.8,335.2 193.6,328.8 
		202.4,335.2 199.2,324.8 208,318.4 	"/>
	<polygon style="fill:#FFCC00;" points="170.4,356 166.4,345.6 163.2,356 152,356 161.6,362.4 157.6,372.8 166.4,366.4 175.2,372.8 
		172,362.4 180.8,356 	"/>
	<polygon style="fill:#FFCC00;" points="125.6,370.4 122.4,360 119.2,370.4 108,370.4 116.8,376.8 113.6,387.2 122.4,380.8 
		131.2,387.2 128,376.8 136.8,370.4 	"/>
	<polygon style="fill:#FFCC00;" points="81.6,356 77.6,345.6 74.4,356 63.2,356 72.8,362.4 68.8,372.8 77.6,366.4 86.4,372.8 
		83.2,362.4 92,356 	"/>
	<polygon style="fill:#FFCC00;" points="56.8,324.8 65.6,317.6 54.4,317.6 51.2,308 48,317.6 36.8,317.6 45.6,324.8 42.4,334.4 
		51.2,328 60,334.4 	"/>
	<polygon style="fill:#FFCC00;" points="46.4,278.4 42.4,288.8 51.2,282.4 60,288.8 56.8,278.4 65.6,272 55.2,272 51.2,261.6 
		48,272 36.8,272 	"/>
	<polygon style="fill:#FFCC00;" points="78.4,224 75.2,234.4 64,234.4 72.8,240.8 69.6,251.2 78.4,244.8 87.2,251.2 84,240.8 
		92.8,234.4 81.6,234.4 	"/>
</g>
<g>
</g>
<g>
</g>
<g>
</g>
<g>
</g>
<g>
</g>
<g>
</g>
<g>
</g>
<g>
</g>
<g>
</g>
<g>
</g>
<g>
</g>
<g>
</g>
<g>
</g>
<g>
</g>
<g>
</g>
</svg>
