<?xml version="1.0" encoding="iso-8859-1"?>
<!-- Generator: Adobe Illustrator 19.0.0, SVG Export Plug-In . SVG Version: 6.00 Build 0)  -->
<svg version="1.1" id="Capa_1" xmlns="http://www.w3.org/2000/svg" xmlns:xlink="http://www.w3.org/1999/xlink" x="0px" y="0px"
	 viewBox="0 0 496 496" style="enable-background:new 0 0 496 496;" xml:space="preserve">
<rect x="162.4" y="77.6" style="fill:#CE1126;" width="170.4" height="340.8"/>
<path style="fill:#007A5E;" d="M162.4,77.6H48c-26.4,0-48,21.6-48,48.8v243.2c0,27.2,21.6,48.8,48,48.8h115.2V77.6H162.4z"/>
<path style="fill:#FCD116;" d="M448,77.6H333.6v340.8H448c26.4,0,48-21.6,48-48.8V126.4C496,99.2,474.4,77.6,448,77.6z"/>
<path style="fill:#E5BC0E;" d="M448,77.6H333.6v243.2L448,418.4c26.4,0,48-21.6,48-48.8V126.4C496,99.2,474.4,77.6,448,77.6z"/>
<polygon style="fill:#BA0C25;" points="333.6,320.8 333.6,77.6 162.4,77.6 162.4,175.2 "/>
<polygon style="fill:#03664C;" points="162.4,77.6 48,77.6 162.4,175.2 "/>
<path style="fill:#CCA609;" d="M333.6,418.4H448c26.4,0,48-21.6,48-48.8H333.6V418.4z"/>
<rect x="162.4" y="369.6" style="fill:#A80920;" width="170.4" height="48.8"/>
<path style="fill:#03513A;" d="M0,369.6c0,27.2,21.6,48.8,48,48.8h115.2v-48.8H0z"/>
<path style="fill:#CCA609;" d="M448,77.6H333.6v87.2L496,214.4v-88C496,99.2,474.4,77.6,448,77.6z"/>
<polygon style="fill:#A80920;" points="333.6,164.8 333.6,77.6 162.4,77.6 162.4,112.8 "/>
<polygon style="fill:#03513A;" points="162.4,77.6 48,77.6 162.4,112.8 "/>
<polygon style="fill:#FCD116;" points="264,257.6 290.4,238.4 258.4,238.4 248,207.2 237.6,238.4 205.6,238.4 232,257.6 
	221.6,288.8 248,269.6 274.4,288.8 "/>
<g>
</g>
<g>
</g>
<g>
</g>
<g>
</g>
<g>
</g>
<g>
</g>
<g>
</g>
<g>
</g>
<g>
</g>
<g>
</g>
<g>
</g>
<g>
</g>
<g>
</g>
<g>
</g>
<g>
</g>
</svg>
