<?xml version="1.0" encoding="iso-8859-1"?>
<!-- Generator: Adobe Illustrator 19.0.0, SVG Export Plug-In . SVG Version: 6.00 Build 0)  -->
<svg version="1.1" id="Capa_1" xmlns="http://www.w3.org/2000/svg" xmlns:xlink="http://www.w3.org/1999/xlink" x="0px" y="0px"
	 viewBox="0 0 496 496" style="enable-background:new 0 0 496 496;" xml:space="preserve">
<g>
	<path style="fill:#75ABDC;" d="M0,304v65.6C0,396.8,21.6,416,48,416h400c26.4,0,48-19.2,48-46.4V304H0z"/>
	<path style="fill:#75ABDC;" d="M448,80H48C21.6,80,0,99.2,0,126.4V192h496v-65.6C496,99.2,474.4,80,448,80z"/>
</g>
<rect y="192" style="fill:#333333;" width="496" height="112"/>
<g>
	<path style="fill:#5D99C6;" d="M446.4,416c26.4,0,49.6-19.2,49.6-46.4V304H315.2L446.4,416z"/>
	<path style="fill:#5D99C6;" d="M448,80H48l132.8,112H496v-65.6C496,99.2,474.4,80,448,80z"/>
</g>
<polygon points="316,304 496,304 496,192 180,192 "/>
<path style="fill:#498AB2;" d="M448,80H48l370.4,112H496v-65.6C496,99.2,474.4,80,448,80z"/>
<polygon style="fill:#063A59;" points="496,214.4 496,192 414.4,192 "/>
<path style="fill:#498AB2;" d="M496,368.8c0,28.8-21.6,47.2-48,47.2H48c-26.4,0-48-20.8-48-48"/>
<rect y="184" style="fill:#DFEAF4;" width="496" height="8"/>
<polygon style="fill:#99AAB5;" points="180.8,192 496,192 496,184 169.6,184 "/>
<rect y="304" style="fill:#DFEAF4;" width="496" height="8"/>
<polygon style="fill:#99AAB5;" points="315.2,304 326.4,312 496,312 496,304 "/>
<g>
</g>
<g>
</g>
<g>
</g>
<g>
</g>
<g>
</g>
<g>
</g>
<g>
</g>
<g>
</g>
<g>
</g>
<g>
</g>
<g>
</g>
<g>
</g>
<g>
</g>
<g>
</g>
<g>
</g>
</svg>
