<?xml version="1.0" encoding="iso-8859-1"?>
<!-- Generator: Adobe Illustrator 19.0.0, SVG Export Plug-In . SVG Version: 6.00 Build 0)  -->
<svg version="1.1" id="Capa_1" xmlns="http://www.w3.org/2000/svg" xmlns:xlink="http://www.w3.org/1999/xlink" x="0px" y="0px"
	 viewBox="0 0 496 496" style="enable-background:new 0 0 496 496;" xml:space="preserve">
<path style="fill:#EFB22D;" d="M496,369.6c0,27.2-21.6,48.8-48,48.8H48c-26.4,0-48-21.6-48-48.8V126.4c0-27.2,21.6-48.8,48-48.8h400
	c26.4,0,48,21.6,48,48.8V369.6z"/>
<path style="fill:#E23D28;" d="M48,418.4h400c26.4,0,48-21.6,48-48.8V126.4c0-13.6-5.6-25.6-13.6-34.4l-468,312
	C22.4,412.8,34.4,418.4,48,418.4z"/>
<path style="fill:#E59900;" d="M48,77.6h400c26.4,0,48,21.6,48,48.8v243.2c0,27.2-21.6,48.8-48,48.8"/>
<path style="fill:#D62113;" d="M496,121.6c0-0.8,0-2.4-0.8-3.2c0-0.8,0-0.8,0-1.6c0-1.6-0.8-2.4-0.8-4c0,0,0,0,0-0.8
	c-2.4-7.2-6.4-14.4-12-20L248,248l200,170.4c26.4,0,48-21.6,48-48.8V126.4C496,124.8,496,123.2,496,121.6z"/>
<path style="fill:#D38905;" d="M48,77.6h400c26.4,0,48,21.6,48,48.8v88.8"/>
<path style="fill:#C1120A;" d="M495.2,120c0-0.8,0-1.6,0-1.6c0-0.8,0-0.8,0-1.6c0-0.8-0.8-2.4-0.8-3.2v-0.8l0,0
	c-0.8-1.6-0.8-3.2-1.6-4.8c0-0.8,0-0.8-0.8-1.6c-0.8-1.6-1.6-2.4-1.6-4c0-0.8-0.8-0.8-0.8-1.6c-0.8-0.8-1.6-2.4-2.4-3.2l-0.8-0.8
	c-0.8-1.6-2.4-2.4-3.2-4l-123.2,80l136,41.6v-88C496,124,496,121.6,495.2,120z"/>
<path style="fill:#B50808;" d="M496,369.6c0,27.2-21.6,48.8-48,48.8H48c-26.4,0-48-21.6-48-48.8"/>
<path style="fill:#D38905;" d="M65.6,369.6H0c0,13.6,5.6,25.6,13.6,34.4L65.6,369.6z"/>
<g>
	<path style="fill:#B50808;" d="M13.6,404c0.8,0.8,2.4,2.4,3.2,3.2C16,406.4,15.2,404.8,13.6,404z"/>
	<path style="fill:#B50808;" d="M48,418.4c-1.6,0-3.2,0-4.8,0C44.8,418.4,46.4,418.4,48,418.4z"/>
	<path style="fill:#B50808;" d="M20.8,410.4c-1.6-0.8-2.4-1.6-4-2.4C18.4,408,20,408.8,20.8,410.4z"/>
	<path style="fill:#B50808;" d="M36.8,417.6c-1.6,0-2.4-0.8-4-0.8C34.4,416.8,36,416.8,36.8,417.6z"/>
	<path style="fill:#B50808;" d="M41.6,418.4c-1.6,0-2.4,0-4-0.8C39.2,417.6,40.8,417.6,41.6,418.4z"/>
	<path style="fill:#B50808;" d="M32.8,416c-1.6-0.8-2.4-0.8-4-1.6C30.4,415.2,31.2,416,32.8,416z"/>
	<path style="fill:#B50808;" d="M28.8,414.4c-1.6-0.8-2.4-0.8-4-1.6C26.4,413.6,27.2,413.6,28.8,414.4z"/>
	<path style="fill:#B50808;" d="M24.8,412.8c-1.6-0.8-2.4-1.6-4-2.4C22.4,411.2,23.2,412,24.8,412.8z"/>
</g>
<path style="fill:#FFFFFF;" d="M244.8,282.4c-3.2,0-6.4,1.6-8,4l0,0c-0.8,0.8-1.6,1.6-1.6,3.2c0,0.8,0,1.6,0,2.4
	c0,5.6,4.8,9.6,9.6,9.6s9.6-4.8,9.6-9.6S249.6,282.4,244.8,282.4z"/>
<path style="fill:#FFFDEB;" d="M396,168c-8,2.4-12-4-20.8,1.6c-2.4,1.6-4,0.8-6.4,0.8c1.6-0.8,3.2-2.4,4.8-4c3.2-4,11.2-1.6,12-8
	c-5.6,4-12-1.6-15.2,3.2c-0.8,0.8-1.6,1.6-3.2,2.4c1.6-8,4.8-7.2,4.8-12.8c-0.8-8.8,8-9.6,6.4-14.4c0,2.4-4,4.8-5.6,5.6
	c-4.8,4-0.8,7.2-6.4,12c-5.6,5.6-1.6,7.2-4.8,12c-1.6,0-2.4,0-4,0.8c-0.8-1.6-2.4-1.6-5.6,0c-2.4-1.6-4.8-3.2-8-2.4l0,0
	c-0.8-4-4-6.4-7.2-5.6c-0.8,0-1.6,0.8-1.6,1.6c-4-3.2-8.8-4-12.8-1.6c-4-5.6-10.4-4-13.6-7.2c-4.8-4.8-17.6-9.6-22.4-6.4
	c5.6,0,9.6,1.6,12.8,4l-0.8,0.8c-3.2-1.6-5.6-2.4-8-1.6c3.2,0,4.8,1.6,6.4,3.2c-0.8,0.8-0.8,2.4-0.8,3.2c-7.2-5.6-15.2-6.4-18.4-3.2
	c-4-0.8-8.8-0.8-9.6,2.4c5.6-2.4,10.4,0,13.6,1.6c-0.8,0-1.6,0.8-2.4,1.6c-3.2-0.8-6.4-0.8-8,1.6c1.6-0.8,4-0.8,6.4,0
	c-0.8,1.6-0.8,3.2-0.8,5.6c-12.8-4.8-21.6-3.2-23.2,1.6c-2.4,5.6,5.6,8.8,7.2,4.8c-1.6,0.8-6.4-0.8-4-4c2.4-3.2,14.4-0.8,26.4,4.8
	c-0.8,0-0.8,0-1.6,0.8c-4.8-2.4-12.8,0.8-14.4-4.8c-0.8,2.4,0,4,1.6,4.8c-4.8,0-9.6,1.6-12.8,4.8c-8.8,0-14.4,0.8-15.2,5.6
	c6.4-5.6,17.6-0.8,22.4-2.4h0.8l0,0c-0.8,1.6-0.8,2.4-0.8,3.2c-0.8,0-1.6,0.8-2.4,2.4c-0.8,1.6-0.8,3.2,0,4
	c-0.8,0.8-1.6,1.6-1.6,3.2c0,0.8,0,0.8,0,1.6c-3.2,0.8-7.2,4-9.6,10.4c2.4-2.4,5.6-4,8.8-4.8c-0.8,0.8-0.8,2.4-0.8,3.2
	c-0.8,4-6.4,5.6-3.2,12c0.8-4,3.2-6.4,5.6-6.4c1.6,0,3.2,0,4.8-0.8c-0.8,1.6,0,4,0.8,5.6s3.2,2.4,4.8,1.6c-0.8,1.6-0.8,4.8,0.8,6.4
	c0.8,0.8,1.6,1.6,2.4,1.6c0,0.8-0.8,0.8-0.8,1.6c-1.6,3.2-7.2-0.8-8.8,3.2c2.4-0.8,4.8,0.8,6.4,1.6c1.6,0.8,4.8,1.6,6.4,0.8
	c0,0.8,0,1.6,0,2.4c0,0.8,0.8,2.4,1.6,3.2c-0.8,0-2.4,0-3.2,0c-2.4,0.8-6.4,0-7.2-2.4c-0.8,1.6,0,4,3.2,4.8c1.6,0.8,2.4,1.6,1.6,2.4
	l0,0c0-0.8-1.6-1.6-2.4-2.4c-0.8,0-2.4,0-2.4,0.8l0,0c0-1.6-0.8-4-4-4.8c-3.2-0.8-4.8,0-5.6,0.8l0,0c0.8-0.8,0-3.2-2.4-4
	c-1.6-0.8-3.2,0-4,0.8c0-1.6-0.8-2.4-1.6-3.2c-3.2-1.6-1.6-5.6-4-6.4c-1.6-0.8-4-2.4-4-3.2c-0.8,1.6,0,3.2,0.8,4.8
	c0.8,0.8,0.8,1.6,0,3.2c-0.8-0.8-1.6-0.8-2.4-1.6c-1.6,0-2.4,0-3.2,0.8c0-0.8-1.6-1.6-3.2-2.4c-1.6,0-2.4,0-3.2,1.6
	c-0.8-0.8-1.6-1.6-3.2-1.6c-1.6,0-2.4,0.8-3.2,1.6c-0.8-2.4-2.4-4-4.8-4.8c-2.4-0.8-5.6-0.8-6.4-3.2c-0.8,2.4,0.8,4,3.2,4.8
	c1.6,0.8,0.8,2.4,0.8,4c-1.6-3.2-4-3.2-5.6-2.4c-1.6,0.8-3.2,3.2-2.4,5.6l0,0c-1.6-1.6-4.8-1.6-6.4,0c-0.8,0.8-1.6,2.4-0.8,4
	c-3.2-2.4-6.4-2.4-8-0.8c-4,3.2-8,1.6-8,4.8c2.4-1.6,4.8,0,6.4,0c0.8,0,1.6,0,2.4,0.8c-0.8,0.8-0.8,1.6-0.8,2.4
	c-0.8,0.8-1.6,3.2,0,4.8c-2.4,0-4.8,1.6-4.8,4c0,1.6,0,4,0.8,4.8c-5.6,1.6-9.6,8.8-16,7.2c2.4,4,9.6,0,12,0.8h0.8
	c-1.6,0.8-1.6,2.4-2.4,5.6c0,1.6,0,3.2,0.8,4c-2.4,0.8-4,4.8-4,6.4c-4,0.8-5.6,4.8-8.8,3.2c0.8,1.6,3.2,2.4,5.6,3.2
	c-1.6,0.8-3.2,3.2-5.6,2.4c0,1.6,0.8,2.4,2.4,4c-3.2,0-5.6,1.6-8,0c0,0.8,0,2.4,1.6,4c-4.8-1.6-12-1.6-12.8,0.8
	c2.4,0,4.8,0.8,4.8,2.4c-4-2.4-9.6,1.6-12.8-0.8c-8-5.6-9.6-0.8-14.4-3.2c-4-2.4-8,0-8,1.6c4-3.2,7.2,3.2,11.2,2.4
	c8-1.6,11.2,3.2,16,4c-4-0.8-8.8-0.8-13.6,2.4c-5.6,3.2-13.6,0.8-14.4,4.8c3.2-1.6,7.2,0.8,10.4-0.8c3.2-1.6,6.4-2.4,8-1.6
	c-5.6,6.4-10.4,2.4-16,7.2c-4,3.2-8.8,1.6-12,4.8c-3.2,3.2-4.8,4.8-8,4.8c4.8,3.2,10.4-4,14.4-4c4,0,7.2-0.8,10.4-3.2
	c-2.4,6.4-10.4,3.2-17.6,10.4c-4,4.8-7.2,8.8-14.4,9.6c3.2,4,12.8-4.8,20-4.8c9.6,0,10.4-8,15.2-8c4.8,0.8,7.2-5.6,11.2-5.6
	s5.6-7.2,8.8-5.6c-4,1.6-4,8-9.6,9.6c5.6,2.4,8-5.6,15.2-6.4c0.8,0,1.6,0,2.4-0.8c-4.8,7.2-9.6,4-10.4,9.6
	c6.4-4.8,11.2-1.6,15.2-6.4c5.6-8,10.4-6.4,12.8-12c1.6-4.8,8.8-6.4,12.8-9.6c1.6,0,2.4,0,3.2,0c0.8,0.8,2.4,0.8,4,0
	c0,0.8,0,1.6,0,2.4l0,0l0,0c0,1.6,0,2.4-0.8,4l0,0c-1.6-0.8-4.8-0.8-5.6,0c-2.4,0-1.6,0,0,0.8c1.6,0,4,3.2,0,3.2
	c-1.6,0-0.8,4-4.8,4.8c1.6,1.6,5.6,0.8,7.2-1.6c0,1.6,1.6,3.2,0.8,5.6c2.4,0,1.6-5.6,4.8-5.6l0,0c-1.6,0.8-0.8,4,2.4,3.2l0,0
	c-1.6,0.8-0.8,3.2,1.6,2.4c-1.6,0.8-1.6,1.6,0,3.2c-0.8,1.6-1.6,2.4-0.8,4c-7.2,0.8-9.6,6.4-8,12c0,1.6,2.4,4,3.2,6.4
	c0-3.2,0.8-5.6,2.4-7.2l0,0l0,0c0.8-0.8,1.6-1.6,3.2-2.4l0,0l0,0c1.6-0.8,4-1.6,5.6-1.6c0.8,0.8,4.8,3.2,8,3.2c0,0.8,0.8,2.4,1.6,4
	c0,0.8,0,1.6-0.8,2.4c-1.6-4-4.8-4.8-8-4.8c-6.4,0-11.2,4.8-11.2,11.2s4.8,11.2,11.2,11.2s11.2-4.8,11.2-11.2c0-2.4-0.8-4-1.6-5.6
	c1.6,0,2.4-1.6,2.4-3.2c1.6-1.6,1.6-4.8,0.8-6.4c0.8-2.4-0.8-5.6-3.2-7.2c1.6,0.8,2.4,0,4-0.8c0.8,1.6,2.4,2.4,4,2.4
	c0,2.4,3.2,2.4,3.2,4.8c0,1.6,0,3.2,0,4.8c2.4-3.2,3.2-7.2,0.8-11.2c0-4-1.6-7.2-5.6-6.4c-1.6-2.4-5.6-1.6-6.4,0
	c-0.8-0.8-3.2-1.6-4.8-1.6c0.8-3.2-0.8-4.8-2.4-4.8c0-2.4-1.6-4.8-4-5.6c-0.8-2.4-0.8-4.8-0.8-6.4l0,0l0,0c0-0.8,0-2.4,0.8-3.2l0,0
	l0,0c0-1.6,0.8-2.4,0.8-4l0,0l0,0l0,0c1.6,1.6,4.8,1.6,5.6,0.8c0.8,3.2,4.8,3.2,6.4,4.8c1.6,1.6,7.2,1.6,8.8,0.8
	c-1.6,0-3.2-0.8-5.6-2.4c-2.4-1.6-0.8-5.6-3.2-7.2c1.6-1.6,1.6-4,1.6-4.8c1.6-0.8,2.4-2.4,2.4-3.2c2.4,0,4.8-1.6,5.6-2.4
	c1.6,1.6,4.8,0,6.4,1.6c0-4.8-4-7.2-7.2-5.6c-1.6-0.8-4.8,0-5.6,0.8c-0.8-0.8-3.2,0.8-4.8,1.6c1.6-0.8,1.6-3.2,0.8-4
	c1.6-0.8,2.4-2.4,3.2-3.2c1.6,0,4.8-0.8,5.6-0.8c-1.6-2.4-4.8-3.2-8.8-3.2c-3.2,0-4.8,2.4-5.6,4.8c-1.6,0.8-2.4,5.6-1.6,6.4
	c-0.8,0-2.4,0.8-2.4,1.6c-0.8,0-1.6-0.8-2.4-0.8c-0.8-1.6-0.8-2.4-1.6-4v-0.8c-0.8-1.6,0-3.2,0.8-4.8c0.8-2.4,0.8-3.2,0-4
	c0.8,0,0.8-0.8,0.8-1.6c0-1.6,0-2.4,0-3.2c0.8,0,1.6-0.8,1.6-1.6c0-0.8,0.8-0.8,0-1.6c0.8,0,1.6,0,2.4-0.8c0.8-0.8,1.6-2.4,1.6-3.2
	c0.8,0.8,2.4,0.8,4,0s1.6-1.6,2.4-2.4c0.8,0.8,1.6,0.8,3.2,0.8c1.6,0,2.4-0.8,3.2-1.6c0.8,1.6,3.2,2.4,8,1.6
	c1.6,0.8,3.2,1.6,5.6,1.6c1.6,1.6,4,2.4,7.2,2.4c1.6,0.8,3.2,1.6,6.4,1.6c0.8,0,1.6,0,2.4,0c1.6,1.6,4,2.4,8,2.4c0.8,0,1.6,0,2.4,0
	c0.8,0.8,1.6,0.8,2.4,0.8c1.6,0,2.4,0,3.2-0.8c0.8,0.8,2.4,0.8,4,0.8c-0.8,1.6-1.6,4,0,5.6l0,0c-3.2-1.6-4.8,1.6-6.4,0s-4-1.6-4.8,0
	c3.2,0,1.6,2.4,8,3.2c-6.4,0.8-4.8,7.2-8.8,7.2c4,4,6.4-4,10.4-2.4c-0.8,0,1.6,2.4,0,6.4c2.4,0,4-3.2,4-4.8h0.8c0,2.4,3.2,4,5.6,3.2
	c0,2.4,4,4,5.6,3.2c0.8,2.4,6.4,3.2,7.2,1.6c0,0.8,1.6,2.4,3.2,2.4l0,0c0,0,0,0,0.8,0c1.6,0,3.2,0,4,0c0,0,0,0,0.8,0
	c1.6-0.8,3.2,0,4,0.8l0,0l0,0c1.6,0.8,2.4,2.4,4,1.6c-3.2,2.4-3.2,5.6-0.8,8c0,3.2,2.4,6.4,5.6,7.2c0.8,4,7.2,4.8,10.4,4
	c-6.4-2.4-3.2-5.6-7.2-6.4c0.8-1.6,1.6-4.8-1.6-6.4c1.6-1.6,4-5.6,3.2-7.2c2.4,0,4.8-2.4,5.6-4.8c1.6,1.6,5.6,0.8,7.2-0.8
	c0.8,1.6,2.4,1.6,4.8,0.8c0.8,1.6,3.2,1.6,4,4c-1.6-0.8-4-1.6-5.6-1.6c-7.2,0-12.8,5.6-12.8,12.8s5.6,12.8,12.8,12.8
	c7.2,0,12.8-5.6,12.8-12.8c0-4.8-2.4-8.8-6.4-11.2c1.6-3.2,0-7.2-2.4-8.8c-0.8-2.4-3.2-3.2-4.8-2.4c-0.8-0.8-4-0.8-5.6,0
	c0-0.8-0.8-0.8-2.4,0c1.6-0.8,3.2-2.4,2.4-4.8c4,0.8,4-4.8,8.8-3.2c-2.4-3.2-8-3.2-10.4-0.8c-3.2-0.8-6.4,1.6-5.6,5.6
	c-2.4-0.8-4.8,0.8-4.8,3.2c-1.6-0.8-3.2,0-4.8,2.4c-1.6-2.4-4-2.4-5.6-2.4c-2.4-2.4-4-3.2-7.2-1.6c-0.8-0.8-3.2-0.8-4-0.8
	c-0.8-1.6-3.2-3.2-5.6-3.2c0-0.8,0-1.6,0-2.4l0,0l0,0c0-3.2,1.6-4,2.4-5.6c3.2-3.2,2.4-4,4.8-8s4.8-8,5.6-12.8l0,0l0,0
	c0.8-2.4,0.8-4,0.8-6.4l0,0l0,0c0-1.6,0-3.2,0-4.8c1.6-0.8,3.2-1.6,4.8-2.4l0,0l0,0c1.6,0,3.2,0,4.8,0.8c0.8,2.4,0,5.6-3.2,6.4
	c2.4,1.6,4.8,0,6.4-2.4c-2.4,5.6-0.8,10.4,3.2,11.2c-1.6-4,2.4-5.6,0.8-8c2.4,0.8,4.8,4.8,4.8,6.4c3.2-3.2-1.6-7.2-1.6-10.4
	c3.2,0,6.4,0,8.8-1.6s4-3.2,5.6-4l0,0l0,0c0.8-0.8,2.4-0.8,3.2-1.6l0,0l0,0c0.8,0,0.8,0,1.6,0c1.6,2.4,4,4,6.4,4
	c0.8,0.8,4,1.6,5.6,1.6c2.4,0.8,5.6,0,7.2-2.4c3.2,0.8,7.2-2.4,8-6.4c4-0.8,4-4.8,1.6-7.2c-1.6,0-0.8-6.4-6.4-6.4
	c0.8-0.8,0.8-2.4,0.8-4c0-4-1.6-7.2-4.8-8.8c6.4-1.6,17.6-3.2,17.6,4.8c3.2-4-0.8-8-9.6-8.8c0-4-4-7.2-7.2-4.8c2.4,0,4.8,4.8,0,7.2
	c0.8-4-2.4-7.2-6.4-5.6c2.4,0.8,4.8,4.8,0,6.4c-0.8,0-1.6,0-3.2,0.8c-0.8,0-0.8,0-1.6,0c0-4.8,5.6-8.8,1.6-14.4c1.6,0,1.6-1.6,0-2.4
	l0,0c2.4,0.8,3.2-0.8,0.8-2.4c1.6,0.8,3.2,0,2.4-0.8c4,0,11.2-2.4,14.4-4.8C381.6,168.8,393.6,172.8,396,168z M293.6,191.2
	L293.6,191.2L293.6,191.2L293.6,191.2z M294.4,188c0,0,0-0.8,0.8-0.8c2.4,0.8,4.8,1.6,7.2,1.6c-1.6,1.6-3.2,1.6-5.6,1.6
	C296.8,189.6,296,188.8,294.4,188z M293.6,196c0-0.8,0-1.6,0-2.4c0.8,0,1.6,0,2.4,0c1.6,1.6,2.4,4,4,5.6c-0.8,0-0.8,0.8-2.4,1.6
	C296.8,198.4,295.2,196.8,293.6,196z M303.2,198.4c-1.6-1.6-2.4-2.4-3.2-4c2.4,0,4.8,0,9.6-0.8C306.4,193.6,308,197.6,303.2,198.4z
	 M340.8,196c-2.4-0.8-3.2-3.2-5.6-3.2c-0.8,0-2.4-1.6-3.2-2.4c4,0.8,8,2.4,11.2,3.2C342.4,194.4,341.6,195.2,340.8,196z
	 M330.4,187.2L330.4,187.2c1.6-4,4.8-5.6,8-5.6c0.8,1.6,0.8,3.2,0.8,4.8c1.6-0.8,3.2-2.4,4-4c0.8,0,2.4,0.8,3.2,1.6
	c0.8,1.6,0,3.2-1.6,4c1.6,0,4,0,5.6-1.6h0.8c-1.6,1.6-0.8,4-4.8,5.6h-0.8C340.8,190.4,334.4,188,330.4,187.2z M349.6,192
	c0,0.8,0,0.8,0,2.4c0,0,0,0-0.8,0c0,0-0.8,0-0.8-0.8C348.8,192.8,349.6,192.8,349.6,192z M364.8,171.2h0.8
	C364.8,171.2,364.8,171.2,364.8,171.2L364.8,171.2z M300,150.4c2.4,2.4,4.8,4,7.2,5.6c1.6,0.8,3.2,1.6,4.8,3.2
	c-1.6,0.8-3.2,0.8-4,0.8C306.4,156,303.2,153.6,300,150.4C300,151.2,300,150.4,300,150.4z M300.8,155.2c2.4,1.6,2.4,3.2,4,4
	c-2.4,0-4-0.8-5.6-0.8c-0.8-2.4-0.8-4-0.8-5.6C299.2,153.6,300,154.4,300.8,155.2z M278.4,152c4-1.6,8.8,0,14.4,6.4
	c-4.8-3.2-8-3.2-12-4.8C280,152.8,279.2,152,278.4,152z M285.6,156.8c3.2,0.8,5.6,3.2,6.4,4.8l0,0c-2.4-1.6-5.6-2.4-9.6-4
	C283.2,157.6,284.8,156.8,285.6,156.8z M281.6,159.2c2.4,0.8,4.8,2.4,7.2,4c-1.6,0-2.4,0.8-3.2,1.6
	C284,163.2,281.6,161.6,281.6,159.2z M360,222.4c-0.8-1.6-4-3.2-6.4-4c0-0.8,0-1.6,0-2.4c-0.8-1.6-1.6-4-1.6-6.4
	c-1.6,1.6-3.2,4.8-4,6.4c-3.2-1.6-9.6,0.8-12.8,1.6c-0.8,0-2.4,0-4,0l0,0l0,0c-4.8,0-11.2-1.6-12.8-4c-2.4-2.4-7.2-4-12-5.6
	c-0.8,0-1.6-0.8-2.4-0.8l0,0l0,0c-2.4-1.6-3.2-4-4.8-6.4c1.6,0,3.2,0.8,4.8,0.8c0.8,0,0.8,0.8,1.6,0.8c7.2,2.4,7.2,8.8,12.8,7.2
	c-5.6-1.6-4.8-7.2-10.4-8.8c-0.8,0-1.6-0.8-1.6-0.8c2.4-3.2,6.4-4,9.6-3.2c4,0.8,6.4,0.8,8.8,0c4.8,0.8,8,3.2,11.2,7.2
	c0,0.8,0.8,0.8,1.6,1.6c-2.4,0.8-3.2,4.8-5.6,4.8c3.2,1.6,5.6,0.8,7.2-1.6c-0.8,2.4,0,4.8,2.4,5.6c-1.6-2.4,0.8-4,2.4-5.6
	c0.8,1.6,3.2,2.4,2.4,4.8c3.2-0.8,4-6.4,0.8-8c1.6-1.6,1.6-3.2,0.8-4.8c-0.8-1.6-2.4-3.2-4-3.2c0.8-0.8,2.4-1.6,3.2-2.4
	c1.6,0.8,2.4,1.6,4,1.6l0,0c0,0,0,0,0,0.8c0.8,2.4,1.6,6.4,0,10.4c3.2-2.4,3.2-6.4,3.2-9.6c0.8,0,2.4,0.8,3.2,0.8
	c-2.4,1.6-4,4.8-4,8c0,5.6,4.8,10.4,9.6,10.4c0,1.6,0,2.4,1.6,3.2C362.4,220.8,361.6,221.6,360,222.4z M373.6,219.2
	c-1.6,0-4,0.8-4.8,3.2c0-1.6,0-2.4-0.8-3.2c0-0.8-0.8-1.6-1.6-2.4c1.6-0.8,4-2.4,4.8-4C372.8,214.4,372,217.6,373.6,219.2z
	 M352.8,196c0-0.8,0-1.6,0.8-2.4c0.8-1.6,2.4-3.2,3.2-5.6c-0.8,2.4-0.8,5.6,0,8C356,196.8,354.4,196,352.8,196z"/>
<path style="fill:#EDDABC;" d="M375.2,169.6c-2.4,1.6-4,0.8-6.4,0.8c1.6-0.8,3.2-2.4,4.8-4c3.2-4,11.2-1.6,12-8
	c-5.6,4-12-1.6-15.2,3.2c-0.8,0.8-1.6,1.6-3.2,2.4c1.6-8,4.8-7.2,4.8-12.8c-0.8-8.8,8-9.6,6.4-14.4c0,2.4-4,4.8-5.6,5.6
	c-4.8,4-0.8,7.2-6.4,12c-5.6,5.6-1.6,7.2-4.8,12c-1.6,0-2.4,0-4,0.8c-0.8-1.6-2.4-1.6-5.6,0c-2.4-1.6-4.8-3.2-8-2.4l0,0
	c-0.8-4-4-6.4-7.2-5.6c-0.8,0-1.6,0.8-1.6,1.6c-4-3.2-8.8-4-12.8-1.6c-4-5.6-10.4-4-13.6-7.2c-4.8-4.8-17.6-9.6-22.4-6.4
	c5.6,0,9.6,1.6,12.8,4l-0.8,0.8c-3.2-1.6-5.6-2.4-8-1.6c3.2,0,4.8,1.6,6.4,3.2c-0.8,0.8-0.8,2.4-0.8,3.2c-7.2-5.6-15.2-6.4-18.4-3.2
	c-4-0.8-8.8-0.8-9.6,2.4c5.6-2.4,10.4,0,13.6,1.6c-0.8,0-1.6,0.8-2.4,1.6c-3.2-0.8-6.4-0.8-8,1.6c1.6-0.8,4-0.8,6.4,0
	c-0.8,1.6-0.8,3.2-0.8,5.6c-12.8-4.8-21.6-3.2-23.2,1.6c-2.4,5.6,5.6,8.8,7.2,4.8c-1.6,0.8-6.4-0.8-4-4c2.4-3.2,14.4-0.8,26.4,4.8
	c-0.8,0-0.8,0-1.6,0.8c-4.8-2.4-12.8,0.8-14.4-4.8c-0.8,2.4,0,4,1.6,4.8c-4.8,0-9.6,1.6-12.8,4.8c-8.8,0-14.4,0.8-15.2,5.6
	c6.4-5.6,17.6-0.8,22.4-2.4h0.8l0,0c-0.8,1.6-0.8,2.4-0.8,3.2c-0.8,0-1.6,0.8-2.4,2.4c-0.8,1.6-0.8,3.2,0,4
	c-0.8,0.8-1.6,1.6-1.6,3.2c0,0.8,0,0.8,0,1.6c-3.2,0.8-7.2,4-9.6,10.4c2.4-2.4,5.6-4,8.8-4.8c-0.8,0.8-0.8,2.4-0.8,3.2
	c-0.8,4-6.4,5.6-3.2,12c0.8-4,3.2-6.4,5.6-6.4c1.6,0,3.2,0,4.8-0.8c-0.8,1.6,0,4,0.8,5.6s3.2,2.4,4.8,1.6c-0.8,1.6-0.8,4.8,0.8,6.4
	c0.8,0.8,1.6,1.6,2.4,1.6c0,0.8-0.8,0.8-0.8,1.6c-1.6,3.2-7.2-0.8-8.8,3.2c2.4-0.8,4.8,0.8,6.4,1.6c1.6,0.8,4.8,1.6,6.4,0.8
	c0,0.8,0,1.6,0,2.4c0,0.8,0.8,2.4,1.6,3.2c-0.8,0-2.4,0-3.2,0c-2.4,0.8-6.4,0-7.2-2.4c-0.8,1.6,0,4,3.2,4.8c1.6,0.8,2.4,1.6,1.6,2.4
	l0,0c0-0.8-1.6-1.6-2.4-2.4c-0.8,0-2.4,0-2.4,0.8l0,0c0-1.6-0.8-4-4-4.8c-3.2-0.8-4.8,0-5.6,0.8l0,0c0.8-0.8,0-3.2-2.4-4
	c-1.6-0.8-3.2,0-4,0.8c0-1.6-0.8-2.4-1.6-3.2c-3.2-1.6-1.6-5.6-4-6.4c-1.6-0.8-4-2.4-4-3.2c-0.8,1.6,0,3.2,0.8,4.8
	c0.8,0.8,0.8,1.6,0,3.2c-0.8-0.8-1.6-0.8-2.4-1.6c-1.6,0-2.4,0-3.2,0.8c0-0.8-1.6-1.6-3.2-2.4c-1.6,0-2.4,0-3.2,1.6
	c-0.8-0.8-1.6-1.6-3.2-1.6c-1.6,0-2.4,0.8-3.2,1.6c-0.8-2.4-2.4-4-4.8-4.8c-2.4-0.8-5.6-0.8-6.4-3.2c0,0.8,0,1.6,0,2.4l48.8,41.6
	c1.6,0,2.4,0.8,4.8,0.8c0.8,0,1.6,0,2.4,0c0.8,0.8,1.6,0.8,2.4,0.8c1.6,0,2.4,0,3.2-0.8c0.8,0.8,2.4,0.8,4,0.8c-0.8,1.6-1.6,4,0,5.6
	l0,0c-3.2-1.6-4.8,1.6-6.4,0c-0.8-0.8-1.6-0.8-2.4-0.8l4.8,4h0.8h-0.8l6.4,5.6l0,0l0,0l4,3.2c0.8,0,0.8,0,1.6,0c0,2.4,4,4,5.6,3.2
	c0.8,2.4,6.4,3.2,7.2,1.6c0,0.8,1.6,2.4,3.2,2.4l0,0c0,0,0,0,0.8,0c1.6,0,3.2,0,4,0c0,0,0,0,0.8,0c1.6-0.8,3.2,0,4,0.8l0,0l0,0
	c1.6,0.8,2.4,2.4,4,1.6c-3.2,2.4-3.2,5.6-0.8,8c0,3.2,2.4,6.4,5.6,7.2c0.8,4,7.2,4.8,10.4,4c-6.4-2.4-3.2-5.6-7.2-6.4
	c0.8-1.6,1.6-4.8-1.6-6.4c1.6-1.6,4-5.6,3.2-7.2c2.4,0,4.8-2.4,5.6-4.8c1.6,1.6,5.6,0.8,7.2-0.8c0.8,1.6,2.4,1.6,4.8,0.8
	c0.8,1.6,3.2,1.6,4,4c-1.6-0.8-4-1.6-5.6-1.6c-7.2,0-12.8,5.6-12.8,12.8s5.6,12.8,12.8,12.8c7.2,0,12.8-5.6,12.8-12.8
	c0-4.8-2.4-8.8-6.4-11.2c1.6-3.2,0-7.2-2.4-8.8c-0.8-2.4-3.2-3.2-4.8-2.4c-0.8-0.8-4-0.8-5.6,0c0-0.8-0.8-0.8-2.4,0
	c1.6-0.8,3.2-2.4,2.4-4.8c4,0.8,4-4.8,8.8-3.2c-2.4-3.2-8-3.2-10.4-0.8c-3.2-0.8-6.4,1.6-5.6,5.6c-2.4-0.8-4.8,0.8-4.8,3.2
	c-1.6-0.8-3.2,0-4.8,2.4c-1.6-2.4-4-2.4-5.6-2.4c-2.4-2.4-4-3.2-7.2-1.6c-0.8-0.8-3.2-0.8-4-0.8c-0.8-1.6-3.2-3.2-5.6-3.2
	c0-0.8,0-1.6,0-2.4l0,0l0,0c0-3.2,1.6-4,2.4-5.6c3.2-3.2,2.4-4,4.8-8s4.8-8,5.6-12.8l0,0l0,0c0.8-2.4,0.8-4,0.8-6.4l0,0l0,0
	c0-1.6,0-3.2,0-4.8c1.6-0.8,3.2-1.6,4.8-2.4l0,0l0,0c1.6,0,3.2,0,4.8,0.8c0.8,2.4,0,5.6-3.2,6.4c2.4,1.6,4.8,0,6.4-2.4
	c-2.4,5.6-0.8,10.4,3.2,11.2c-1.6-4,2.4-5.6,0.8-8c2.4,0.8,4.8,4.8,4.8,6.4c3.2-3.2-1.6-7.2-1.6-10.4c3.2,0,6.4,0,8.8-1.6
	s4-3.2,5.6-4l0,0l0,0c0.8-0.8,2.4-0.8,3.2-1.6l0,0c0.8,0,0.8,0,1.6,0c1.6,2.4,4,4,6.4,4c0.8,0.8,4,1.6,5.6,1.6
	c2.4,0.8,5.6,0,7.2-2.4c3.2,0.8,7.2-2.4,8-6.4c4-0.8,4-4.8,1.6-7.2c-1.6,0-0.8-6.4-6.4-6.4c0.8-0.8,0.8-2.4,0.8-4
	c0-4-1.6-7.2-4.8-8.8c6.4-1.6,17.6-3.2,17.6,4.8c3.2-4-0.8-8-9.6-8.8c0-4-4-7.2-7.2-4.8c2.4,0,4.8,4.8,0,7.2c0.8-4-2.4-7.2-6.4-5.6
	c2.4,0.8,4.8,4.8,0,6.4c-0.8,0-1.6,0-3.2,0.8c-0.8,0-0.8,0-1.6,0c0-4.8,5.6-8.8,1.6-14.4c1.6,0,1.6-1.6,0-2.4l0,0
	c2.4,0.8,3.2-0.8,0.8-2.4c1.6,0.8,3.2,0,2.4-0.8c4,0,11.2-2.4,14.4-4.8c5.6-4,17.6,0.8,19.2-4.8C388,170.4,384,164,375.2,169.6z
	 M372,212c0.8,2.4,0,4.8,2.4,6.4c-1.6,0-4,0.8-4.8,3.2c0-1.6,0-2.4-0.8-3.2c0-0.8-0.8-1.6-1.6-2.4C368.8,215.2,370.4,214.4,372,212z
	 M353.6,193.6c0.8-1.6,2.4-3.2,3.2-5.6c-0.8,2.4-0.8,5.6,0,8c-1.6,0-2.4-0.8-4-0.8C352.8,195.2,353.6,194.4,353.6,193.6z
	 M330.4,187.2c1.6-4,4.8-5.6,8-5.6c0.8,1.6,0.8,3.2,0.8,4.8c1.6-0.8,3.2-2.4,4-4c0.8,0,2.4,0.8,3.2,1.6c0.8,1.6,0,3.2-1.6,4
	c1.6,0,4,0,5.6-1.6h0.8c-1.6,1.6-0.8,4-4.8,5.6h-0.8C340.8,190.4,334.4,188,330.4,187.2L330.4,187.2z M349.6,192c0,0.8,0,0.8,0,2.4
	c0,0,0,0-0.8,0c0,0-0.8,0-0.8-0.8C348.8,192.8,349.6,192.8,349.6,192z M343.2,193.6c-0.8,0.8-1.6,1.6-2.4,2.4
	c-2.4-0.8-3.2-3.2-5.6-3.2c-0.8,0-2.4-1.6-3.2-2.4C336,191.2,340,192.8,343.2,193.6z M300,150.4c2.4,2.4,4.8,4,7.2,5.6
	c1.6,0.8,3.2,1.6,4.8,3.2c-1.6,0.8-3.2,0.8-4,0.8C306.4,156,303.2,153.6,300,150.4C300,151.2,300,150.4,300,150.4z M309.6,192.8
	c-3.2,0.8-1.6,4.8-6.4,5.6c-1.6-1.6-2.4-2.4-3.2-4C302.4,194.4,304.8,194.4,309.6,192.8z M298.4,153.6c0.8,0.8,1.6,1.6,2.4,1.6
	c2.4,1.6,2.4,3.2,4,4c-2.4,0-4-0.8-5.6-0.8C298.4,156.8,298.4,155.2,298.4,153.6z M295.2,187.2c2.4,0.8,4.8,1.6,7.2,1.6
	c-1.6,1.6-3.2,1.6-5.6,1.6c-0.8-0.8-1.6-1.6-3.2-2.4C295.2,188,295.2,188,295.2,187.2z M293.6,191.2L293.6,191.2L293.6,191.2
	L293.6,191.2z M286.4,165.6c-2.4-1.6-4.8-4-4.8-5.6c2.4,0.8,4.8,2.4,7.2,4C288,164,287.2,164.8,286.4,165.6z M292,161.6
	c-2.4-1.6-5.6-2.4-9.6-4c0.8-0.8,1.6-0.8,3.2-1.6C288.8,157.6,291.2,160,292,161.6C292.8,161.6,292,161.6,292,161.6z M280.8,152.8
	c-0.8,0-1.6-0.8-2.4-0.8c4-1.6,8.8,0,14.4,6.4C288,154.4,284.8,155.2,280.8,152.8z M293.6,196c0-0.8,0-1.6,0-2.4c0.8,0,1.6,0,2.4,0
	c1.6,1.6,2.4,4,4,5.6c-0.8,0-0.8,0.8-2.4,1.6C296.8,198.4,295.2,196.8,293.6,196z M362.4,216.8c0,1.6,0,2.4,1.6,3.2
	c-1.6,0-2.4,0.8-3.2,1.6c-0.8-1.6-4-3.2-6.4-4c0-0.8,0-1.6,0-2.4c-0.8-1.6-1.6-4-1.6-6.4c-1.6,1.6-3.2,4.8-4,6.4
	c-3.2-1.6-9.6,0.8-12.8,1.6c-0.8,0-2.4,0-4,0l0,0l0,0c-4.8,0-11.2-1.6-12.8-4c-2.4-2.4-7.2-4-12-5.6c-0.8,0-1.6-0.8-2.4-0.8
	c-2.4-1.6-3.2-4-4.8-6.4c1.6,0,3.2,0.8,4.8,0.8c0.8,0,0.8,0.8,1.6,0.8c7.2,2.4,7.2,8.8,12.8,7.2c-5.6-1.6-4.8-7.2-10.4-8.8
	c-0.8,0-1.6-0.8-1.6-0.8c2.4-3.2,6.4-4,9.6-3.2c4,0.8,6.4,0.8,8.8,0c4.8,0.8,8,3.2,11.2,7.2c0,0.8,0.8,0.8,1.6,1.6
	c-2.4,0.8-3.2,4.8-5.6,4.8c3.2,1.6,5.6,0.8,7.2-1.6c-0.8,2.4,0,4.8,2.4,5.6c-1.6-2.4,0.8-4,2.4-5.6c0.8,1.6,3.2,2.4,2.4,4.8
	c3.2-0.8,4-6.4,0.8-8c1.6-1.6,1.6-3.2,0.8-4.8c-0.8-1.6-2.4-3.2-4-3.2c0.8-0.8,2.4-1.6,3.2-2.4c1.6,0.8,2.4,1.6,4,1.6l0,0
	c0,0,0,0,0,0.8c0.8,2.4,1.6,6.4,0,10.4c3.2-2.4,3.2-6.4,3.2-9.6c0.8,0,2.4,0.8,3.2,0.8c-2.4,1.6-4,4.8-4,8
	C352.8,212,356.8,216.8,362.4,216.8z M364.8,171.2L364.8,171.2c0.8-0.8,0.8-0.8,0.8-0.8C364.8,171.2,364.8,171.2,364.8,171.2z"/>
<g>
</g>
<g>
</g>
<g>
</g>
<g>
</g>
<g>
</g>
<g>
</g>
<g>
</g>
<g>
</g>
<g>
</g>
<g>
</g>
<g>
</g>
<g>
</g>
<g>
</g>
<g>
</g>
<g>
</g>
</svg>
