<?xml version="1.0" encoding="iso-8859-1"?>
<!-- Generator: Adobe Illustrator 19.0.0, SVG Export Plug-In . SVG Version: 6.00 Build 0)  -->
<svg version="1.1" id="Capa_1" xmlns="http://www.w3.org/2000/svg" xmlns:xlink="http://www.w3.org/1999/xlink" x="0px" y="0px"
	 viewBox="0 0 496 496" style="enable-background:new 0 0 496 496;" xml:space="preserve">
<path style="fill:#002395;" d="M496,369.55c0,27.2-21.6,46.4-48,46.4H48c-26.4,0-48-19.2-48-46.4v-243.2c0-27.2,21.6-46.4,48-46.4
	h400c26.4,0,48,19.2,48,46.4V369.55z"/>
<path style="fill:#FCAE00;" d="M48,79.95h400c26.4,0,48,19.2,48,46.4v243.2c0,27.2-25.6,46.4-52,46.4"/>
<path style="fill:#F99300;" d="M48,79.95h400c26.4,0,48,19.2,48,46.4v89.6"/>
<path style="fill:#01195B;" d="M496,368.75c0,27.2-21.6,47.2-48,47.2H48c-26.4,0-48-20.8-48-48"/>
<path style="fill:#FECB00;" d="M48,79.95l396,336c26.4,0,52-19.2,52-46.4v-14.4L218.4,79.95H48z"/>
<path style="fill:#F99300;" d="M444,415.95c28,1.6,52-16,52-48H387.2L444,415.95z"/>
<polygon style="fill:#FCAE00;" points="218.4,79.95 48,79.95 292.8,154.35 "/>
<g>
	<polygon style="fill:#FFFFFF;" points="49.6,143.15 65.6,152.75 58.4,135.95 72.8,123.95 54.4,124.75 47.2,107.15 42.4,125.55 
		24,127.15 40,136.75 35.2,155.15 	"/>
	<polygon style="fill:#FFFFFF;" points="85.6,174.35 101.6,184.75 94.4,167.15 108.8,155.15 90.4,156.75 83.2,139.15 78.4,157.55 
		60,158.35 76,168.75 71.2,186.35 	"/>
	<polygon style="fill:#FFFFFF;" points="121.6,206.35 137.6,215.95 130.4,198.35 144.8,186.35 126.4,187.95 119.2,170.35 
		114.4,188.75 96,190.35 112,199.95 107.2,218.35 	"/>
	<polygon style="fill:#FFFFFF;" points="157.6,237.55 173.6,247.15 166.4,230.35 180.8,218.35 162.4,219.15 155.2,202.35 
		151.2,219.95 132,221.55 148,231.15 143.2,249.55 	"/>
	<polygon style="fill:#FFFFFF;" points="194.4,268.75 209.6,279.15 203.2,261.55 217.6,249.55 198.4,251.15 191.2,233.55 
		187.2,251.95 168,252.75 184,263.15 180,280.75 	"/>
	<polygon style="fill:#FFFFFF;" points="230.4,300.75 246.4,310.35 239.2,293.55 253.6,280.75 234.4,282.35 228,264.75 
		223.2,283.15 204.8,284.75 220,294.35 216,312.75 	"/>
	<polygon style="fill:#FFFFFF;" points="266.4,331.95 282.4,342.35 275.2,324.75 289.6,312.75 271.2,313.55 264,296.75 
		259.2,314.35 240.8,315.95 256.8,326.35 252,343.95 	"/>
	<polygon style="fill:#FFFFFF;" points="302.4,363.95 318.4,373.55 311.2,355.95 325.6,343.95 307.2,345.55 300,327.95 
		295.2,346.35 276.8,347.15 292.8,357.55 288,375.95 	"/>
	<polygon style="fill:#FFFFFF;" points="347.2,387.95 361.6,375.95 343.2,376.75 336,359.95 332,377.55 312.8,379.15 328.8,388.75 
		324,407.15 338.4,395.15 354.4,404.75 	"/>
</g>
<g>
</g>
<g>
</g>
<g>
</g>
<g>
</g>
<g>
</g>
<g>
</g>
<g>
</g>
<g>
</g>
<g>
</g>
<g>
</g>
<g>
</g>
<g>
</g>
<g>
</g>
<g>
</g>
<g>
</g>
</svg>
