<?xml version="1.0" encoding="iso-8859-1"?>
<!-- Generator: Adobe Illustrator 19.0.0, SVG Export Plug-In . SVG Version: 6.00 Build 0)  -->
<svg version="1.1" id="Capa_1" xmlns="http://www.w3.org/2000/svg" xmlns:xlink="http://www.w3.org/1999/xlink" x="0px" y="0px"
	 viewBox="0 0 496 496" style="enable-background:new 0 0 496 496;" xml:space="preserve">
<path style="fill:#3D3D3D;" d="M0,248v121.6c0,27.2,21.6,48.8,48,48.8h400c26.4,0,48-21.6,48-48.8V248H0z"/>
<path style="fill:#232021;" d="M248,248l200,170.4c26.4,0,48-21.6,48-48.8V248H248z"/>
<path style="fill:#CE1126;" d="M448,77.6H48c-26.4,0-48,21.6-48,48.8V248h496V126.4C496,99.2,474.4,77.6,448,77.6z"/>
<path style="fill:#B70B25;" d="M448,77.6H48L248,248h248V126.4C496,99.2,474.4,77.6,448,77.6z"/>
<path d="M496,369.6c0,27.2-21.6,48.8-48,48.8H48c-26.4,0-48-21.6-48-48.8"/>
<path style="fill:#9B0421;" d="M48,77.6h400c26.4,0,48,21.6,48,48.8v88.8"/>
<polygon style="fill:#E29610;" points="202.4,228 222.4,213.6 242.4,228 235.2,204 255.2,189.6 230.4,189.6 222.4,165.6 
	214.4,189.6 189.6,189.6 209.6,204 "/>
<g>
	<path style="fill:#F9D523;" d="M329.6,344.8c-3.2-4.8-6.4-8-11.2-12.8c-4.8-4-11.2-8.8-16-13.6l-9.6,11.2c0,0.8,0,1.6,0,1.6
		c10.4,1.6,13.6,5.6,17.6,8.8c5.6,5.6,8,12.8,11.2,15.2C328.8,359.2,333.6,351.2,329.6,344.8z"/>
	<path style="fill:#F9D523;" d="M291.2,305.6c2.4-2.4,5.6-5.6,8-8l-5.6-4.8c4-4.8,7.2-9.6,9.6-15.2l6.4,3.2c3.2-5.6,5.6-12,7.2-17.6
		l-7.2-2.4c1.6-5.6,3.2-11.2,3.2-17.6l7.2,0.8c0.8-6.4,0.8-12.8,0-19.2l-7.2,0.8c-0.8-6.4-1.6-12-3.2-17.6l7.2-2.4
		c-1.6-6.4-4-12-7.2-17.6l-7.2,4c-3.2-5.6-6.4-10.4-9.6-14.4l6.4-4.8c-4-4.8-8.8-9.6-13.6-13.6L280,164c-4.8-4-9.6-7.2-15.2-9.6
		l4-7.2c-5.6-3.2-12-5.6-17.6-7.2l-2.4,8c-5.6-1.6-11.2-2.4-16.8-3.2l-1.6,16.8c37.6,4,66.4,35.2,66.4,73.6
		c0,22.4-10.4,43.2-26.4,56.8L256,280.8l-4,2.4c-31.2-23.2-62.4-49.6-63.2-61.6c-15.2,29.6,4,47.2,16.8,54.4
		c10.4,6.4,20,11.2,28.8,16.8l-4.8,2.4l16,9.6c-7.2,2.4-16,4-24,4c-17.6,0-33.6-6.4-46.4-16.8L164,305.6c4.8,4,9.6,7.2,14.4,9.6
		l-2.4,6.4c5.6,3.2,12,5.6,17.6,7.2l2.4-7.2c5.6,1.6,11.2,3.2,17.6,4l-0.8,7.2c6.4,0.8,12.8,0.8,19.2,0l-0.8-7.2
		c6.4-0.8,12-1.6,17.6-3.2l2.4,7.2c3.2-0.8,6.4-2.4,8.8-3.2l1.6,6.4l29.6-2.4l12.8-15.2L291.2,305.6z"/>
</g>
<path style="fill:#E29610;" d="M313.6,225.6c-0.8-6.4-1.6-12-3.2-17.6l7.2-2.4c-1.6-6.4-4-12-7.2-17.6l-7.2,4
	c-3.2-5.6-6.4-10.4-9.6-14.4l6.4-4.8c-4-4.8-8.8-9.6-13.6-13.6L280,164c-4.8-4-9.6-7.2-15.2-9.6l4-7.2c-5.6-3.2-12-5.6-17.6-7.2
	l-2.4,8c-5.6-1.6-11.2-2.4-16.8-3.2l-1.6,16.8c37.6,4,66.4,35.2,66.4,73.6c0,16-5.6,31.2-13.6,43.2l12.8,11.2
	c2.4-3.2,4.8-7.2,7.2-11.2l6.4,3.2c3.2-5.6,5.6-12,7.2-17.6l-7.2-2.4c1.6-5.6,3.2-11.2,3.2-17.6l7.2,0.8c0.8-6.4,0.8-12.8,0-19.2
	L313.6,225.6z"/>
<g>
</g>
<g>
</g>
<g>
</g>
<g>
</g>
<g>
</g>
<g>
</g>
<g>
</g>
<g>
</g>
<g>
</g>
<g>
</g>
<g>
</g>
<g>
</g>
<g>
</g>
<g>
</g>
<g>
</g>
</svg>
