<?xml version="1.0" encoding="iso-8859-1"?>
<!-- Generator: Adobe Illustrator 19.0.0, SVG Export Plug-In . SVG Version: 6.00 Build 0)  -->
<svg version="1.1" id="Capa_1" xmlns="http://www.w3.org/2000/svg" xmlns:xlink="http://www.w3.org/1999/xlink" x="0px" y="0px"
	 viewBox="0 0 496 496" style="enable-background:new 0 0 496 496;" xml:space="preserve">
<rect x="162.4" y="77.6" style="fill:#BF0000;" width="170.4" height="340.8"/>
<path style="fill:#424242;" d="M162.4,77.6H48c-26.4,0-48,21.6-48,48.8v243.2c0,27.2,21.6,48.8,48,48.8h115.2V77.6H162.4z"/>
<path style="fill:#009900;" d="M448,77.6H333.6v340.8H448c26.4,0,48-21.6,48-48.8V126.4C496,99.2,474.4,77.6,448,77.6z"/>
<path style="fill:#038903;" d="M448,77.6H333.6v243.2L448,418.4c26.4,0,48-21.6,48-48.8V126.4C496,99.2,474.4,77.6,448,77.6z"/>
<polygon style="fill:#A50404;" points="333.6,320.8 333.6,77.6 162.4,77.6 162.4,175.2 "/>
<polygon style="fill:#2D2C2B;" points="162.4,77.6 48,77.6 162.4,175.2 "/>
<path style="fill:#057705;" d="M333.6,418.4H448c26.4,0,48-21.6,48-48.8H333.6V418.4z"/>
<rect x="162.4" y="369.6" style="fill:#890404;" width="170.4" height="48.8"/>
<path d="M0,369.6c0,27.2,21.6,48.8,48,48.8h115.2v-48.8H0z"/>
<path style="fill:#057705;" d="M448,77.6H333.6v87.2L496,214.4v-88C496,99.2,474.4,77.6,448,77.6z"/>
<polygon style="fill:#890404;" points="333.6,164.8 333.6,77.6 162.4,77.6 162.4,112.8 "/>
<polygon points="162.4,77.6 48,77.6 162.4,112.8 "/>
<g>
	<path style="fill:#DFEFDF;" d="M269.6,268h-6.4l0,0c0,2.4-0.8,4.8-2.4,6.4h12.8C271.2,273.6,269.6,270.4,269.6,268z"/>
	<polygon style="fill:#DFEFDF;" points="225.6,235.2 270.4,235.2 273.6,231.2 262.4,231.2 256.8,228.8 239.2,228.8 233.6,231.2 
		222.4,231.2 	"/>
	<path style="fill:#DFEFDF;" d="M240,226.4h15.2c2.4-0.8,2.4-4.8,2.4-6.4c0-5.6-4-8.8-8-8.8c-0.8,0-1.6-0.8-1.6-0.8
		c0-1.6,0-2.4,0-2.4s0,0.8-0.8,1.6c0,0.8-0.8,0.8-1.6,0.8c-4.8,0-8,4-8,8.8C237.6,223.2,238.4,224.8,240,226.4z"/>
	<polygon style="fill:#DFEFDF;" points="275.2,276.8 220.8,276.8 215.2,281.6 280.8,281.6 	"/>
	<path style="fill:#DFEFDF;" d="M259.2,268.8v-3.2l-1.6-0.8v-3.2l-3.2-1.6v-3.2L252,256v-3.2l-3.2-0.8l-1.6-0.8v-1.6H236V248
		c0-5.6,7.2-10.4,12-10.4c5.6,0,12,4.8,12,10.4v5.6h0.8V248c0-4.8-5.6-10.4-12-10.4h20.8v-0.8h-43.2v0.8h20.8c-3.2,0-12,4-12,10.4
		v19.2h4v3.2h-5.6c-0.8,0-1.6-0.8-1.6-2.4h-5.6c0,2.4-1.6,4.8-4,7.2H240v-4.8h4.8l0.8,4h4l-1.6-4h4l2.4,4h5.6l-4-4h6.4L259.2,268.8z
		 M239.2,263.2L239.2,263.2v-6.4h2.4v6.4h0.8l0.8,3.2h-4V263.2z M247.2,270.4H244l-0.8-3.2h2.4l-0.8-4h1.6V252l1.6,0.8v3.2l2.4,0.8
		v2.4l3.2,1.6v3.2l1.6,1.6v3.2l-5.6-4.8h-2.4l2.4,3.2h-2.4L247.2,270.4z M251.2,270.4l-2.4-3.2h3.2l3.2,3.2H251.2z"/>
	<rect x="260" y="256" style="fill:#DFEFDF;" width="0.8" height="5.6"/>
	<path style="fill:#DFEFDF;" d="M215.2,248.8c0.8-0.8,3.2-2.4,4-3.2l7.2,12v3.2h6.4v-6.4h-6.4v1.6l-12-20.8l0.8-0.8
		c0-0.8-0.8-1.6-1.6-1.6s-1.6,0.8-1.6,1.6s0.8,1.6,1.6,1.6c0,0,0,0,0.8,0v0.8c-0.8,0-2.4,3.2-4.8,4.8l0,0v0.8v0.8v0.8
		c0,0,0,0.8,0.8,0.8l0,0c0.8,0,0.8,0.8,1.6,0.8c0,0,0.8,0,0.8,0.8l0,0L215.2,248.8C214.4,249.6,214.4,249.6,215.2,248.8
		C214.4,249.6,214.4,249.6,215.2,248.8C214.4,248.8,214.4,248.8,215.2,248.8z"/>
	<path style="fill:#DFEFDF;" d="M212,256.8c0-0.8-0.8-0.8-0.8-1.6c0,0,0,0-0.8-0.8s-0.8-0.8-1.6-1.6H208h-0.8l0,0h-0.8h0.8l-2.4-2.4
		v0.8c0,0.8,0,1.6,0,2.4s-0.8,3.2-0.8,3.2c1.6,1.6,4,4,4.8,5.6C211.2,263.2,212,259.2,212,256.8L212,256.8z M207.2,252.8
		C207.2,252.8,206.4,252.8,207.2,252.8L207.2,252.8L207.2,252.8z"/>
	<rect x="226.4" y="216" style="fill:#DFEFDF;" width="5.6" height="1.6"/>
	<rect x="226.4" y="218.4" style="fill:#DFEFDF;" width="5.6" height="10.4"/>
	<path style="fill:#DFEFDF;" d="M226.4,214.4h6.4c0-2.4-1.6-4-3.2-4S226.4,212.8,226.4,214.4z"/>
	<rect x="226.4" y="252" style="fill:#DFEFDF;" width="6.4" height="1.6"/>
	<rect x="226.4" y="263.2" style="fill:#DFEFDF;" width="6.4" height="4"/>
	<polygon style="fill:#DFEFDF;" points="227.2,250.4 232.8,250.4 233.6,248 226.4,248 	"/>
	<path style="fill:#DFEFDF;" d="M238.4,238.4h-4v4.8C235.2,241.6,236.8,240,238.4,238.4z"/>
	<path style="fill:#DFEFDF;" d="M227.2,240c0,1.6,0,3.2,0,5.6c0,0.8,0.8,0.8,0.8,0c0-1.6,0-3.2,0-4s1.6-0.8,1.6,0c0,1.6,0,3.2,0,4.8
		c0,0.8,1.6,0.8,1.6,0c0-1.6,0-4,0-5.6C232,238.4,227.2,238.4,227.2,240z"/>
	<path style="fill:#DFEFDF;" d="M204,200c-2.4,2.4-4,4-3.2,6.4C203.2,207.2,204.8,204.8,204,200z"/>
	<path style="fill:#DFEFDF;" d="M199.2,209.6c1.6-1.6,0.8-8,0-12C198.4,200.8,197.6,208.8,199.2,209.6z"/>
	<path style="fill:#DFEFDF;" d="M200,210.4c3.2,0.8,6.4-2.4,7.2-6.4C204,207.2,200,207.2,200,210.4z"/>
	<path style="fill:#DFEFDF;" d="M197.6,214.4c1.6-0.8,0-8.8-0.8-12.8C196,205.6,194.4,213.6,197.6,214.4z"/>
	<path style="fill:#DFEFDF;" d="M198.4,214.4c3.2,0.8,4.8-2.4,4.8-4C201.6,212,198.4,211.2,198.4,214.4z"/>
	<path style="fill:#DFEFDF;" d="M195.2,218.4c2.4-0.8-0.8-10.4-0.8-13.6C193.6,208,192,217.6,195.2,218.4z"/>
	<path style="fill:#DFEFDF;" d="M196,217.6c2.4,0.8,4.8-0.8,5.6-3.2C200,216,196.8,214.4,196,217.6z"/>
	<path style="fill:#DFEFDF;" d="M192.8,222.4c2.4-1.6-0.8-8-1.6-14.4C192,214.4,190.4,222.4,192.8,222.4z"/>
	<path style="fill:#DFEFDF;" d="M193.6,221.6c1.6,0.8,4.8-0.8,5.6-3.2C196.8,220,194.4,218.4,193.6,221.6z"/>
	<path style="fill:#DFEFDF;" d="M213.6,204.8c-3.2,1.6-4.8,3.2-4,5.6C212,210.4,213.6,208,213.6,204.8z"/>
	<path style="fill:#DFEFDF;" d="M208,214.4c4,0.8,4.8-2.4,8-6.4C212,210.4,208,211.2,208,214.4z"/>
	<path style="fill:#DFEFDF;" d="M206.4,213.6c2.4-2.4,0.8-4,1.6-8C206.4,208,204.8,211.2,206.4,213.6z"/>
	<path style="fill:#DFEFDF;" d="M212,213.6c-1.6,1.6-6.4,1.6-5.6,4C210.4,218.4,211.2,215.2,212,213.6z"/>
	<path style="fill:#DFEFDF;" d="M204.8,217.6c1.6-1.6-0.8-4,0-8C203.2,212.8,202.4,217.6,204.8,217.6z"/>
	<path style="fill:#DFEFDF;" d="M202.4,221.6c2.4-2.4-0.8-4.8,0-8C201.6,216,199.2,220.8,202.4,221.6z"/>
	<path style="fill:#DFEFDF;" d="M203.2,221.6c1.6,2.4,4.8-0.8,5.6-4C206.4,220,204,219.2,203.2,221.6z"/>
	<path style="fill:#DFEFDF;" d="M196,237.6L196,237.6L196,237.6z"/>
	<path style="fill:#DFEFDF;" d="M205.6,225.6c0.8-0.8,0-2.4-0.8-1.6c-0.8,0.8-2.4,2.4-2.4,2.4c-0.8,0,0-1.6,0-2.4
		c0-0.8-0.8-0.8-1.6-0.8c-0.8,0.8-1.6,2.4-1.6,4s-0.8-2.4-1.6-3.2s-1.6,0.8-0.8,0.8c1.6,3.2-0.8,9.6,0,12.8
		C198.4,230.4,201.6,228.8,205.6,225.6z"/>
	<path style="fill:#DFEFDF;" d="M200.8,294.4c6.4-0.8,8-2.4,12.8-4.8c0.8,0,0.8-0.8,1.6-0.8c0.8,1.6,1.6,2.4,2.4,1.6
		c0.8-0.8,0.8-1.6,0-2.4c0.8,0,0.8,0,1.6,0c0,2.4-0.8,4,0.8,4.8c1.6,0,1.6-2.4,0-4.8c0.8,0,1.6,0,2.4,0.8c1.6,0.8,2.4,0.8,0.8-0.8
		c-0.8-0.8-1.6-2.4-3.2-3.2c-2.4-1.6-6.4-2.4-9.6-2.4c-4.8,0.8-8.8,4-13.6,4.8c-2.4,0.8-4.8,0.8-8,0l0,0c-0.8,0-0.8,0-0.8,0.8
		C192.8,293.6,194.4,295.2,200.8,294.4z"/>
	<path style="fill:#DFEFDF;" d="M224.8,299.2c0.8,0,1.6-0.8,1.6-1.6l0,0c0.8,0,1.6,1.6,1.6,0.8c0.8-1.6,0-3.2-0.8-3.2
		s-0.8,0.8-1.6,1.6c0-1.6-0.8-3.2-1.6-4.8C225.6,295.2,223.2,298.4,224.8,299.2z"/>
	<path style="fill:#DFEFDF;" d="M224,299.2c0-2.4-4-0.8-8-2.4C217.6,298.4,224,301.6,224,299.2z"/>
	<path style="fill:#DFEFDF;" d="M213.6,293.6c1.6,1.6,7.2,4,7.2,1.6C220.8,293.6,217.6,295.2,213.6,293.6z"/>
	<path style="fill:#DFEFDF;" d="M221.6,296c2.4,0.8,1.6-4.8,0-7.2C222.4,292,220,295.2,221.6,296z"/>
	<path style="fill:#DFEFDF;" d="M212.8,290.4c1.6,2.4,6.4,4,5.6,1.6C218.4,290.4,216,292,212.8,290.4z"/>
	<path style="fill:#DFEFDF;" d="M203.2,297.6c0-2.4-4.8-1.6-8.8-2.4C196,296.8,203.2,300,203.2,297.6z"/>
	<path style="fill:#DFEFDF;" d="M203.2,293.6c0,1.6,2.4,5.6,4,4C208.8,297.6,205.6,294.4,203.2,293.6z"/>
	<path style="fill:#DFEFDF;" d="M207.2,300c0-1.6-3.2,0-9.6-0.8C200,300.8,208,302.4,207.2,300z"/>
	<path style="fill:#DFEFDF;" d="M211.2,301.6c-0.8-1.6-4.8,0-8.8,0C204.8,303.2,212,304,211.2,301.6z"/>
	<path style="fill:#DFEFDF;" d="M214.4,303.2c-0.8-1.6-4.8,0.8-9.6,0.8C208.8,304.8,215.2,304.8,214.4,303.2z"/>
	<path style="fill:#DFEFDF;" d="M211.2,300c1.6-1.6-0.8-3.2-4-5.6C208.8,297.6,208.8,301.6,211.2,300z"/>
	<path style="fill:#DFEFDF;" d="M209.6,294.4c1.6,3.2,3.2,8.8,4.8,7.2C216.8,300,212.8,297.6,209.6,294.4z"/>
	<path style="fill:#DFEFDF;" d="M220.8,303.2c1.6-1.6-5.6-6.4-8-9.6C214.4,297.6,219.2,305.6,220.8,303.2z"/>
	<path style="fill:#DFEFDF;" d="M208,272.8c0,3.2-3.2,4.8-1.6,6.4C208.8,279.2,209.6,276,208,272.8z"/>
	<path style="fill:#DFEFDF;" d="M208.8,281.6c2.4,0.8,2.4-2.4,1.6-5.6C210.4,280,207.2,280.8,208.8,281.6z"/>
	<path style="fill:#DFEFDF;" d="M208,282.4c0.8-1.6-3.2-1.6-6.4-4.8C202.4,280,207.2,284.8,208,282.4z"/>
	<path style="fill:#DFEFDF;" d="M205.6,278.4c0.8-1.6-4.8-4-8-6.4C199.2,274.4,204.8,280.8,205.6,278.4z"/>
	<path style="fill:#DFEFDF;" d="M204.8,274.4c0.8-1.6-6.4-4-8.8-7.2C196.8,270.4,203.2,277.6,204.8,274.4z"/>
	<path style="fill:#DFEFDF;" d="M200.8,270.4c0.8-0.8-0.8-1.6-3.2-4C196.8,268,199.2,271.2,200.8,270.4z"/>
	<path style="fill:#DFEFDF;" d="M211.2,282.4c1.6,0.8,2.4-1.6,0.8-4C211.2,280.8,210.4,280.8,211.2,282.4z"/>
	<path style="fill:#DFEFDF;" d="M184.8,266.4c0.8-1.6-5.6-4-8-7.2C177.6,261.6,182.4,268,184.8,266.4z"/>
	<path style="fill:#DFEFDF;" d="M187.2,269.6c0.8-2.4-4.8-3.2-7.2-4.8C180.8,267.2,185.6,271.2,187.2,269.6z"/>
	<path style="fill:#DFEFDF;" d="M189.6,272.8c0.8-2.4-5.6-2.4-8.8-4.8C182.4,270.4,188.8,275.2,189.6,272.8z"/>
	<path style="fill:#DFEFDF;" d="M188,275.2c0.8-1.6-4.8-2.4-8-5.6C181.6,272.8,187.2,277.6,188,275.2z"/>
	<path style="fill:#DFEFDF;" d="M188,269.6c2.4,0,0.8-3.2,0-5.6c4,0.8,9.6,2.4,12.8,3.2h0.8c0,3.2,0.8,5.6,3.2,5.6
		c2.4-0.8,0-2.4-2.4-4.8c1.6,0.8,3.2,1.6,4.8,3.2c-0.8,2.4-2.4,3.2-0.8,4.8c1.6,0.8,3.2-3.2,1.6-6.4v0.8c-0.8-2.4-0.8-4-1.6-6.4
		s-3.2-4.8-5.6-4.8c1.6-0.8,2.4-4,2.4-4.8c-1.6,0-4,2.4-4,4.8c-4.8,0-10.4-0.8-14.4-2.4c-2.4-0.8-4-2.4-5.6-4l0,0c0,0-0.8,0-0.8,0.8
		s1.6,7.2,4.8,9.6c0.8,0,1.6,0.8,2.4,0.8c0,1.6-0.8,2.4,0.8,3.2c0.8-0.8,0.8-1.6,0.8-2.4h0.8C187.2,266.4,186.4,268.8,188,269.6z"/>
	<path style="fill:#DFEFDF;" d="M189.6,264.8c0,4-1.6,6.4,0,7.2C192,272,191.2,268.8,189.6,264.8z"/>
	<path style="fill:#DFEFDF;" d="M188.8,278.4c0.8-1.6-4.8-2.4-8-5.6C182.4,275.2,188,280.8,188.8,278.4z"/>
	<path style="fill:#DFEFDF;" d="M192.8,282.4c0.8-2.4-5.6-2.4-9.6-4.8C185.6,279.2,192,284.8,192.8,282.4z"/>
	<path style="fill:#DFEFDF;" d="M196.8,285.6c0.8-2.4-5.6-1.6-9.6-4.8C188.8,284,195.2,288.8,196.8,285.6z"/>
	<path style="fill:#DFEFDF;" d="M190.4,277.6c1.6,0.8,2.4-4,1.6-8C192,273.6,188,276,190.4,277.6z"/>
	<path style="fill:#DFEFDF;" d="M193.6,281.6c2.4,0.8,1.6-4.8,0-8.8C192.8,276,191.2,280,193.6,281.6z"/>
	<path style="fill:#DFEFDF;" d="M196.8,284.8c2.4,0,0.8-4.8-1.6-7.2C196,280.8,195.2,284.8,196.8,284.8z"/>
	<path style="fill:#DFEFDF;" d="M192.8,287.2c0-0.8-3.2-2.4-5.6-2.4C190.4,286.4,192,288.8,192.8,287.2z"/>
	<path style="fill:#DFEFDF;" d="M191.2,246.4c2.4-1.6,0.8-4.8,0-8C190.4,240.8,188.8,244.8,191.2,246.4z"/>
	<path style="fill:#DFEFDF;" d="M191.2,250.4c0.8-3.2-1.6-4-3.2-8C188.8,245.6,188,249.6,191.2,250.4z"/>
	<path style="fill:#DFEFDF;" d="M192,249.6c3.2,0,2.4-3.2,3.2-6.4C193.6,245.6,192,246.4,192,249.6z"/>
	<path style="fill:#DFEFDF;" d="M192,253.6c0-3.2-1.6-2.4-4-5.6C188,252,189.6,253.6,192,253.6z"/>
	<path style="fill:#DFEFDF;" d="M195.2,248c-0.8,2.4-3.2,3.2-2.4,5.6C195.2,253.6,195.2,250.4,195.2,248z"/>
	<path style="fill:#DFEFDF;" d="M188,252c0,2.4,1.6,5.6,4,4.8C192.8,254.4,189.6,253.6,188,252z"/>
	<path style="fill:#DFEFDF;" d="M195.2,252c-0.8,2.4-4,3.2-3.2,5.6C196,257.6,196,255.2,195.2,252z"/>
	<path style="fill:#DFEFDF;" d="M183.2,234.4c1.6-1.6,0-4.8,0-8C182.4,229.6,180.8,233.6,183.2,234.4z"/>
	<path style="fill:#DFEFDF;" d="M183.2,238.4c0.8-3.2-3.2-4.8-4-8.8C179.2,232,180,238.4,183.2,238.4z"/>
	<path style="fill:#DFEFDF;" d="M184,238.4c2.4-0.8,1.6-4,2.4-5.6C184.8,235.2,183.2,235.2,184,238.4z"/>
	<path style="fill:#DFEFDF;" d="M183.2,242.4c0-4-4-5.6-5.6-9.6C178.4,235.2,180,242.4,183.2,242.4z"/>
	<path style="fill:#DFEFDF;" d="M184,242.4c3.2-0.8,2.4-2.4,2.4-5.6C185.6,239.2,183.2,239.2,184,242.4z"/>
	<path style="fill:#DFEFDF;" d="M183.2,246.4c0.8-2.4-4-6.4-6.4-9.6C180,241.6,180,247.2,183.2,246.4z"/>
	<path style="fill:#DFEFDF;" d="M184,246.4c2.4,0,3.2-4,3.2-5.6C186.4,242.4,183.2,244,184,246.4z"/>
	<path style="fill:#DFEFDF;" d="M183.2,250.4c0.8-2.4-2.4-3.2-5.6-8.8C179.2,246.4,180.8,251.2,183.2,250.4z"/>
	<path style="fill:#DFEFDF;" d="M184,249.6c3.2,0.8,3.2-1.6,3.2-5.6C186.4,247.2,183.2,248,184,249.6z"/>
	<path style="fill:#DFEFDF;" d="M184,255.2c0.8-3.2-3.2-4-5.6-8C180.8,251.2,181.6,255.2,184,255.2z"/>
	<path style="fill:#DFEFDF;" d="M184.8,254.4c3.2,0.8,3.2-1.6,3.2-5.6C186.4,251.2,183.2,252,184.8,254.4z"/>
	<path style="fill:#DFEFDF;" d="M193.6,222.4c-2.4,0.8-3.2,2.4-3.2,4.8C192,228,194.4,225.6,193.6,222.4z"/>
	<path style="fill:#DFEFDF;" d="M184,225.6c0,0.8,1.6,0.8,0.8,0c0-0.8,0-1.6,0-2.4c0.8-0.8,0-3.2,0-3.2c0-0.8-1.6,0-0.8,0
		c0.8,0.8,0.8,2.4,0,3.2C184,223.2,184,224.8,184,225.6z"/>
	<path style="fill:#DFEFDF;" d="M201.6,238.4c0.8-0.8,2.4-2.4,2.4-4c0-0.8,0.8-4,1.6-4.8s0-1.6-0.8-0.8s-1.6,3.2-1.6,4.8
		s-1.6,2.4-2.4,3.2C200,238.4,200.8,239.2,201.6,238.4z"/>
	<path style="fill:#DFEFDF;" d="M199.2,236c0.8-0.8,0-2.4,1.6-4c0.8-0.8,1.6-2.4,2.4-3.2c0.8-0.8,0-1.6-0.8-0.8s-2.4,1.6-3.2,3.2
		c-0.8,0.8-0.8,2.4-1.6,3.2C197.6,236.8,199.2,237.6,199.2,236z"/>
	<path style="fill:#DFEFDF;" d="M188,230.4c0-2.4-1.6-4.8-0.8-8c0.8-1.6,0.8-4.8,0-6.4c0-1.6-1.6-0.8-0.8,0.8s0,4.8-0.8,5.6
		c-0.8,4,0.8,6.4,0.8,8C187.2,232,188.8,232.8,188,230.4z"/>
	<path style="fill:#DFEFDF;" d="M189.6,221.6c0,1.6,0.8,1.6,0.8,0.8c0-1.6,0-4,0-5.6c0-0.8,0-3.2,0-4.8c0.8-0.8-0.8-1.6-0.8-0.8
		s-0.8,4,0,5.6C189.6,219.2,189.6,220,189.6,221.6z"/>
	<path style="fill:#DFEFDF;" d="M178.4,251.2C179.2,252,180,251.2,178.4,251.2c0-1.6,0-1.6,0-2.4c-0.8-0.8-0.8-1.6-0.8-2.4
		c-0.8-0.8-1.6,0-0.8,0.8s0.8,1.6,0.8,1.6C178.4,249.6,177.6,250.4,178.4,251.2z"/>
	<path style="fill:#DFEFDF;" d="M199.2,280.8c-0.8-1.6-1.6-3.2-1.6-5.6c0-1.6-1.6-4-3.2-4.8c0.8,1.6,2.4,3.2,2.4,5.6
		C196.8,278.4,197.6,280.8,199.2,280.8z"/>
	<path style="fill:#DFEFDF;" d="M202.4,284c-0.8-2.4-0.8-2.4-0.8-4s-1.6-2.4-3.2-4.8c0,2.4,1.6,3.2,1.6,5.6
		C200.8,284,200.8,284,202.4,284z"/>
	<path style="fill:#DFEFDF;" d="M242.4,300.8c0-0.8-1.6-1.6-3.2-3.2C240,298.4,240.8,300.8,242.4,300.8z"/>
	<path style="fill:#DFEFDF;" d="M247.2,300.8c0-1.6-3.2-1.6-5.6-2.4C244,300,244.8,300.8,247.2,300.8z"/>
	<path style="fill:#DFEFDF;" d="M228.8,288c1.6,2.4,2.4,4,2.4,6.4c0.8,2.4,2.4,4,4,5.6c-1.6-2.4-2.4-4-3.2-6.4
		C232.8,291.2,231.2,289.6,228.8,288z"/>
	<path style="fill:#DFEFDF;" d="M239.2,300c-1.6-2.4-1.6-4-2.4-6.4c-0.8-2.4-2.4-4-4.8-6.4c1.6,2.4,3.2,4,3.2,6.4
		C236,296.8,236.8,299.2,239.2,300z"/>
	<path style="fill:#DFEFDF;" d="M240,296c0.8,0,1.6-0.8,1.6-0.8s0.8,0,0.8-0.8s0-0.8,0-1.6l-0.8-0.8c-0.8,0-1.6,0-2.4,0.8l-0.8,0.8
		c0,0.8,0,0.8,0,1.6C239.2,296,240,296,240,296z"/>
	<path style="fill:#DFEFDF;" d="M244.8,292c-0.8,0-0.8,0-0.8,0.8s0,0.8,0,1.6c0,0.8,0,0.8,0,0.8c0.8,0,1.6,0,1.6,0.8
		c0.8,0,0.8,0,0.8-0.8s0-0.8,0-1.6c0-0.8,0-0.8-0.8-0.8C245.6,292.8,245.6,292,244.8,292z"/>
	<path style="fill:#DFEFDF;" d="M285.6,262.4c0.8-0.8,3.2-4,4.8-5.6c0.8-0.8,0-2.4-0.8-3.2c0-0.8,0-1.6,0-2.4c0,0,0,0,0-0.8
		l-1.6,2.4h0.8H288l0,0h-0.8c0,0,0,0-0.8,0s-0.8,0.8-1.6,1.6c0,0,0,0-0.8,0.8s-0.8,0.8-0.8,1.6l0,0
		C284,259.2,284.8,263.2,285.6,262.4z M289.6,252.8C289.6,252.8,288.8,252.8,289.6,252.8C288.8,252.8,288.8,252.8,289.6,252.8
		C288.8,252.8,288.8,252.8,289.6,252.8z"/>
	<path style="fill:#DFEFDF;" d="M284,246.4L284,246.4c0.8,0,0.8-0.8,0.8-0.8c0.8,0,0.8-0.8,1.6-0.8l0,0c0,0,0-0.8,0.8-0.8
		c0,0,0-0.8,0.8-0.8v-0.8v-0.8l0,0c-3.2-2.4-4-4.8-4.8-4.8V236c0,0,0,0,0.8,0s1.6-0.8,1.6-1.6s-0.8-1.6-1.6-1.6s-1.6,0.8-1.6,1.6
		s0,0.8,0.8,0.8l-12,20.8v-1.6h-6.4v6.4h6.4v-3.2l7.2-12c0.8,0.8,3.2,1.6,4,3.2c0,0,0,0,0.8,0.8l0,0l0,0L284,246.4z"/>
	<rect x="264" y="216" style="fill:#DFEFDF;" width="5.6" height="1.6"/>
	<rect x="264" y="218.4" style="fill:#DFEFDF;" width="5.6" height="10.4"/>
	<path style="fill:#DFEFDF;" d="M266.4,210.4c-1.6,0-3.2,2.4-3.2,4h6.4C269.6,212.8,268,210.4,266.4,210.4z"/>
	<rect x="263.2" y="252" style="fill:#DFEFDF;" width="6.4" height="1.6"/>
	<rect x="263.2" y="263.2" style="fill:#DFEFDF;" width="6.4" height="4"/>
	<polygon style="fill:#DFEFDF;" points="262.4,248 263.2,250.4 268.8,250.4 269.6,248 	"/>
	<path style="fill:#DFEFDF;" d="M261.6,243.2v-4.8h-4C259.2,240,260.8,241.6,261.6,243.2z"/>
	<path style="fill:#DFEFDF;" d="M267.2,245.6c0,0.8,0.8,0.8,0.8,0c0-1.6,0-4,0-5.6s-4-1.6-4,0s0,4,0,5.6c0,0.8,1.6,0.8,1.6,0
		c0-1.6,0-3.2,0-4.8c0-0.8,1.6-0.8,1.6,0C267.2,242.4,267.2,244,267.2,245.6z"/>
	<path style="fill:#DFEFDF;" d="M295.2,206.4c0.8-2.4-0.8-4-3.2-6.4C291.2,204.8,292.8,207.2,295.2,206.4z"/>
	<path style="fill:#DFEFDF;" d="M296.8,197.6c-0.8,4-1.6,10.4,0,12C298.4,208.8,297.6,200.8,296.8,197.6z"/>
	<path style="fill:#DFEFDF;" d="M288.8,203.2c0.8,4,4,8,7.2,6.4C296,207.2,292,207.2,288.8,203.2z"/>
	<path style="fill:#DFEFDF;" d="M298.4,214.4c2.4-0.8,0.8-8.8,0.8-12.8C298.4,205.6,296.8,213.6,298.4,214.4z"/>
	<path style="fill:#DFEFDF;" d="M292.8,210.4c0,1.6,1.6,4,4.8,4C297.6,211.2,294.4,212,292.8,210.4z"/>
	<path style="fill:#DFEFDF;" d="M300.8,218.4c2.4-0.8,0.8-9.6,1.6-13.6C301.6,208,299.2,216.8,300.8,218.4z"/>
	<path style="fill:#DFEFDF;" d="M294.4,214.4c0,2.4,3.2,4,5.6,3.2C299.2,214.4,296,216,294.4,214.4z"/>
	<path style="fill:#DFEFDF;" d="M303.2,222.4c2.4,0,1.6-7.2,1.6-14.4C303.2,214.4,300.8,220,303.2,222.4z"/>
	<path style="fill:#DFEFDF;" d="M296.8,218.4c0.8,3.2,4,4,5.6,3.2C301.6,218.4,299.2,220,296.8,218.4z"/>
	<path style="fill:#DFEFDF;" d="M286.4,209.6c0.8-2.4-1.6-4-4-5.6C282.4,208,284,210.4,286.4,209.6z"/>
	<path style="fill:#DFEFDF;" d="M288,214.4c0-3.2-4-3.2-8-6.4C283.2,212,284,214.4,288,214.4z"/>
	<path style="fill:#DFEFDF;" d="M289.6,213.6c2.4-2.4,0-5.6-1.6-8C288,209.6,286.4,211.2,289.6,213.6z"/>
	<path style="fill:#DFEFDF;" d="M284,213.6c0.8,1.6,1.6,5.6,5.6,4C290.4,215.2,286.4,214.4,284,213.6z"/>
	<path style="fill:#DFEFDF;" d="M291.2,217.6c3.2,0,1.6-5.6,0-8C291.2,213.6,288.8,216,291.2,217.6z"/>
	<path style="fill:#DFEFDF;" d="M293.6,221.6c3.2-1.6,0.8-5.6,0-8C293.6,216.8,291.2,219.2,293.6,221.6z"/>
	<path style="fill:#DFEFDF;" d="M292.8,221.6c-0.8-2.4-3.2-1.6-5.6-4C287.2,220.8,291.2,224,292.8,221.6z"/>
	<path style="fill:#DFEFDF;" d="M300,224.8c0-0.8-0.8-1.6-0.8-0.8c-0.8,0.8-1.6,4.8-1.6,3.2s-0.8-4-1.6-4c-0.8,0-1.6-0.8-1.6,0.8
		c0,0.8,0.8,2.4,0,2.4s-1.6-1.6-2.4-2.4c-0.8-0.8-1.6,0-0.8,1.6c4,3.2,7.2,4.8,9.6,12C300.8,233.6,297.6,228,300,224.8z"/>
	<path style="fill:#DFEFDF;" d="M307.2,288c-2.4,0.8-5.6,0.8-8,0c-4.8-0.8-8.8-4-13.6-4.8c-3.2-0.8-7.2,0-9.6,2.4
		c-0.8,0.8-2.4,2.4-3.2,3.2c-0.8,0.8,0,0.8,0.8,0.8s1.6,0,2.4-0.8c-0.8,2.4-1.6,4.8,0,4.8s0.8-1.6,0.8-4.8c0.8,0,0.8,0,1.6,0
		c-0.8,0.8-0.8,1.6,0,2.4s1.6-0.8,2.4-1.6c0.8,0,0.8,0.8,1.6,0.8c4.8,2.4,6.4,4,12.8,4.8C301.6,295.2,303.2,293.6,307.2,288
		C308,287.2,307.2,287.2,307.2,288z"/>
	<path style="fill:#DFEFDF;" d="M272,299.2c0,2.4,6.4,0,8-2.4C276,298.4,272.8,296.8,272,299.2z"/>
	<path style="fill:#DFEFDF;" d="M275.2,295.2c0,2.4,5.6,0,7.2-1.6C278.4,295.2,275.2,293.6,275.2,295.2z"/>
	<path style="fill:#DFEFDF;" d="M274.4,296c1.6-0.8-0.8-3.2,0-7.2C272,290.4,272,296,274.4,296z"/>
	<path style="fill:#DFEFDF;" d="M277.6,292c0,2.4,4,0.8,5.6-1.6C280,292,277.6,290.4,277.6,292z"/>
	<path style="fill:#DFEFDF;" d="M292.8,297.6c0,2.4,6.4,0,8.8-2.4C297.6,296,293.6,295.2,292.8,297.6z"/>
	<path style="fill:#DFEFDF;" d="M288.8,298.4c1.6,0.8,3.2-2.4,4-4C290.4,294.4,287.2,297.6,288.8,298.4z"/>
	<path style="fill:#DFEFDF;" d="M288.8,300c0,2.4,7.2,0.8,9.6-0.8C291.2,300,288.8,298.4,288.8,300z"/>
	<path style="fill:#DFEFDF;" d="M284.8,301.6c-0.8,2.4,6.4,1.6,8.8,0C289.6,301.6,285.6,300,284.8,301.6z"/>
	<path style="fill:#DFEFDF;" d="M281.6,303.2c-0.8,1.6,5.6,1.6,9.6,0.8C286.4,304,282.4,301.6,281.6,303.2z"/>
	<path style="fill:#DFEFDF;" d="M284.8,300c2.4,1.6,2.4-2.4,4-5.6C285.6,296.8,283.2,299.2,284.8,300z"/>
	<path style="fill:#DFEFDF;" d="M280.8,301.6c1.6,1.6,3.2-4,4.8-7.2C283.2,297.6,279.2,300,280.8,301.6z"/>
	<path style="fill:#DFEFDF;" d="M275.2,303.2c1.6,1.6,6.4-5.6,8-9.6C280.8,296.8,274.4,301.6,275.2,303.2z"/>
	<path style="fill:#DFEFDF;" d="M319.2,252c0-0.8-0.8-1.6-0.8-0.8c-1.6,1.6-3.2,3.2-5.6,4c-4,1.6-9.6,2.4-14.4,2.4
		c0-2.4-2.4-4.8-4-4.8c0,0.8,0,4,2.4,4.8c-2.4,0-4.8,2.4-5.6,4.8c-0.8,2.4-1.6,4-1.6,6.4V268c-1.6,4,0,8,1.6,6.4s0-2.4-0.8-4.8
		c1.6-1.6,3.2-2.4,4.8-3.2c-2.4,3.2-4.8,4.8-2.4,4.8s3.2-2.4,3.2-5.6h0.8c3.2-0.8,8.8-1.6,12.8-3.2c-0.8,3.2-3.2,5.6,0,5.6
		c1.6,0,0.8-2.4,0.8-5.6h0.8c0,0.8,0,1.6,0.8,2.4c1.6-0.8,1.6-1.6,0.8-3.2c1.6-0.8,2.4-0.8,2.4-0.8
		C316.8,259.2,318.4,253.6,319.2,252z"/>
	<path style="fill:#DFEFDF;" d="M288.8,279.2c1.6-0.8-1.6-3.2-1.6-6.4C286.4,276,287.2,279.2,288.8,279.2z"/>
	<path style="fill:#DFEFDF;" d="M287.2,281.6c1.6-0.8-1.6-1.6-1.6-5.6C284.8,279.2,285.6,283.2,287.2,281.6z"/>
	<path style="fill:#DFEFDF;" d="M294.4,277.6c-2.4,3.2-6.4,2.4-6.4,4.8C288.8,284.8,293.6,280,294.4,277.6z"/>
	<path style="fill:#DFEFDF;" d="M290.4,278.4c0.8,2.4,6.4-4,8-6.4C295.2,274.4,289.6,276.8,290.4,278.4z"/>
	<path style="fill:#DFEFDF;" d="M291.2,274.4c0.8,2.4,7.2-4.8,8.8-7.2C297.6,270.4,291.2,272.8,291.2,274.4z"/>
	<path style="fill:#DFEFDF;" d="M299.2,266.4c-2.4,2.4-4,3.2-3.2,4C296.8,271.2,299.2,268,299.2,266.4z"/>
	<path style="fill:#DFEFDF;" d="M284.8,282.4c0.8-0.8,0-1.6-0.8-4C282.4,280,283.2,283.2,284.8,282.4z"/>
	<path style="fill:#DFEFDF;" d="M311.2,266.4c2.4,1.6,6.4-4.8,8-7.2C316.8,261.6,311.2,264.8,311.2,266.4z"/>
	<path style="fill:#DFEFDF;" d="M308.8,269.6c1.6,1.6,5.6-2.4,7.2-4.8C314.4,267.2,308.8,267.2,308.8,269.6z"/>
	<path style="fill:#DFEFDF;" d="M315.2,268c-3.2,2.4-8.8,2.4-8.8,4.8C307.2,275.2,313.6,270.4,315.2,268z"/>
	<path style="fill:#DFEFDF;" d="M308,275.2c0.8,1.6,6.4-3.2,8-5.6C312,272.8,307.2,273.6,308,275.2z"/>
	<path style="fill:#DFEFDF;" d="M306.4,264.8c-1.6,4-2.4,6.4,0,7.2C308,271.2,305.6,268.8,306.4,264.8z"/>
	<path style="fill:#DFEFDF;" d="M307.2,278.4c0.8,2.4,7.2-3.2,8-5.6C312,275.2,306.4,276.8,307.2,278.4z"/>
	<path style="fill:#DFEFDF;" d="M303.2,282.4c0.8,2.4,7.2-2.4,9.6-4.8C308.8,280,303.2,280,303.2,282.4z"/>
	<path style="fill:#DFEFDF;" d="M299.2,285.6c0.8,3.2,8-1.6,9.6-4.8C304.8,284.8,299.2,283.2,299.2,285.6z"/>
	<path style="fill:#DFEFDF;" d="M305.6,277.6c2.4-0.8-1.6-4-1.6-8C303.2,272.8,304,278.4,305.6,277.6z"/>
	<path style="fill:#DFEFDF;" d="M302.4,281.6c2.4-1.6,0.8-4.8,0-8.8C301.6,276,300.8,281.6,302.4,281.6z"/>
	<path style="fill:#DFEFDF;" d="M299.2,284.8c2.4-0.8,0.8-4,1.6-7.2C298.4,280,296.8,285.6,299.2,284.8z"/>
	<path style="fill:#DFEFDF;" d="M303.2,287.2c0.8,1.6,2.4-0.8,5.6-2.4C305.6,284.8,303.2,286.4,303.2,287.2z"/>
	<path style="fill:#DFEFDF;" d="M304.8,238.4c-0.8,3.2-2.4,6.4,0,8C307.2,244.8,305.6,240.8,304.8,238.4z"/>
	<path style="fill:#DFEFDF;" d="M304.8,250.4c3.2-0.8,3.2-4.8,3.2-8C306.4,246.4,304,247.2,304.8,250.4z"/>
	<path style="fill:#DFEFDF;" d="M304,249.6c0-3.2-1.6-4-3.2-6.4C301.6,246.4,301.6,249.6,304,249.6z"/>
	<path style="fill:#DFEFDF;" d="M304,253.6c2.4,0,3.2-2.4,4-5.6C305.6,251.2,304,250.4,304,253.6z"/>
	<path style="fill:#DFEFDF;" d="M300.8,248c0,2.4-0.8,5.6,2.4,5.6C304,251.2,301.6,250.4,300.8,248z"/>
	<path style="fill:#DFEFDF;" d="M304,256.8c2.4,0.8,4-3.2,4-4.8C306.4,253.6,303.2,254.4,304,256.8z"/>
	<path style="fill:#DFEFDF;" d="M303.2,257.6c0.8-1.6-2.4-3.2-3.2-5.6C300,255.2,300,257.6,303.2,257.6z"/>
	<path style="fill:#DFEFDF;" d="M312.8,234.4c2.4-1.6,0.8-4.8,0-8C312.8,229.6,311.2,232.8,312.8,234.4z"/>
	<path style="fill:#DFEFDF;" d="M312.8,238.4c3.2,0,4-6.4,4-8.8C316,232.8,312,235.2,312.8,238.4z"/>
	<path style="fill:#DFEFDF;" d="M312,238.4c0.8-3.2-0.8-3.2-2.4-5.6C310.4,234.4,309.6,236.8,312,238.4z"/>
	<path style="fill:#DFEFDF;" d="M312.8,242.4c3.2,0,5.6-7.2,5.6-9.6C316.8,236.8,312,238.4,312.8,242.4z"/>
	<path style="fill:#DFEFDF;" d="M312,242.4c0.8-3.2-1.6-2.4-2.4-5.6C309.6,239.2,308.8,241.6,312,242.4z"/>
	<path style="fill:#DFEFDF;" d="M312.8,246.4c4,0.8,3.2-4.8,6.4-9.6C316.8,240,312,244,312.8,246.4z"/>
	<path style="fill:#DFEFDF;" d="M312,246.4c0.8-2.4-2.4-4-3.2-5.6C308.8,242.4,308.8,246.4,312,246.4z"/>
	<path style="fill:#DFEFDF;" d="M312.8,250.4c2.4,0,4-4,5.6-8.8C315.2,248,311.2,248,312.8,250.4z"/>
	<path style="fill:#DFEFDF;" d="M312,249.6c0.8-1.6-2.4-3.2-3.2-5.6C308.8,248,308.8,250.4,312,249.6z"/>
	<path style="fill:#DFEFDF;" d="M312,255.2c2.4,0.8,3.2-4,5.6-8C315.2,251.2,311.2,252,312,255.2z"/>
	<path style="fill:#DFEFDF;" d="M311.2,254.4c0.8-2.4-2.4-3.2-3.2-5.6C308,252,308.8,255.2,311.2,254.4z"/>
	<path style="fill:#DFEFDF;" d="M302.4,222.4c-0.8,3.2,1.6,5.6,3.2,4.8C305.6,224.8,304.8,223.2,302.4,222.4z"/>
	<path style="fill:#DFEFDF;" d="M311.2,225.6c0,1.6,0.8,0.8,0.8,0s0-2.4,0-3.2s0-2.4,0-3.2c0.8-0.8-0.8-0.8-0.8,0s-0.8,2.4,0,3.2
		C311.2,223.2,311.2,224,311.2,225.6z"/>
	<path style="fill:#DFEFDF;" d="M291.2,228.8c-0.8-0.8-1.6,0-0.8,0.8c0.8,0.8,1.6,3.2,1.6,4.8s1.6,2.4,2.4,4
		c0.8,0.8,2.4,0.8,0.8-0.8c-0.8-1.6-2.4-2.4-2.4-3.2C292.8,232,292,229.6,291.2,228.8z"/>
	<path style="fill:#DFEFDF;" d="M297.6,235.2c-0.8-1.6-0.8-2.4-1.6-3.2c-0.8-1.6-2.4-2.4-3.2-3.2c-0.8-0.8-1.6,0-0.8,0.8
		c0.8,0.8,2.4,2.4,2.4,3.2c0.8,1.6,0.8,3.2,1.6,4C296.8,237.6,298.4,236.8,297.6,235.2z"/>
	<path style="fill:#DFEFDF;" d="M308.8,230.4c0-2.4,2.4-4,0.8-8c0-1.6-0.8-4-0.8-5.6c0.8-1.6-0.8-2.4-0.8-0.8c0,1.6,0,4.8,0,6.4
		c0.8,3.2-0.8,5.6-0.8,8C307.2,232.8,308.8,232,308.8,230.4z"/>
	<path style="fill:#DFEFDF;" d="M305.6,222.4c0,1.6,1.6,1.6,0.8-0.8c0-1.6,0-3.2,0-4c0.8-1.6,0-4.8,0-5.6c0-1.6-1.6-0.8-0.8,0.8
		c0.8,0.8,0.8,3.2,0,4.8C304.8,218.4,304.8,220.8,305.6,222.4z"/>
	<path style="fill:#DFEFDF;" d="M318.4,246.4c-0.8,0.8-0.8,1.6-0.8,2.4c-0.8,0.8,0,0.8-0.8,1.6c-0.8,0.8,0,1.6,0.8,0.8
		c0.8-0.8,0.8-1.6,0.8-2.4C319.2,248,319.2,247.2,318.4,246.4C320,246.4,319.2,245.6,318.4,246.4z"/>
	<path style="fill:#DFEFDF;" d="M298.4,275.2c0,2.4-0.8,4-1.6,5.6c1.6-0.8,2.4-3.2,2.4-5.6s1.6-3.2,2.4-5.6
		C300,271.2,298.4,273.6,298.4,275.2z"/>
	<path style="fill:#DFEFDF;" d="M296,280.8c0-2.4,2.4-4,1.6-5.6l0,0c-1.6,2.4-3.2,3.2-3.2,4.8c0,2.4,0,2.4-0.8,4
		C295.2,284,295.2,284,296,280.8z"/>
	<path style="fill:#DFEFDF;" d="M256.8,297.6c-1.6,1.6-3.2,2.4-3.2,3.2C255.2,300.8,256,298.4,256.8,297.6z"/>
	<path style="fill:#DFEFDF;" d="M254.4,297.6c-3.2,1.6-5.6,0.8-5.6,2.4C251.2,300.8,252,300,254.4,297.6z"/>
	<path style="fill:#DFEFDF;" d="M264,294.4c0.8-2.4,1.6-4,2.4-6.4c-2.4,1.6-3.2,3.2-4,5.6s-1.6,4-3.2,6.4
		C262.4,298.4,263.2,296.8,264,294.4z"/>
	<path style="fill:#DFEFDF;" d="M260.8,294.4c0.8-2.4,1.6-4,3.2-6.4c-2.4,1.6-4,4-4.8,6.4s-0.8,4-2.4,6.4
		C259.2,299.2,260,296.8,260.8,294.4z"/>
	<path style="fill:#DFEFDF;" d="M256.8,295.2c0,0,0-0.8,0-1.6c0-0.8,0-0.8-0.8-0.8s-1.6-0.8-2.4-0.8s-0.8,0-0.8,0.8s0,0.8,0,1.6
		c0,0.8,0,0.8,0.8,0.8s1.6,0,1.6,0.8C256,296,256.8,296,256.8,295.2z"/>
	<path style="fill:#DFEFDF;" d="M249.6,292.8l-0.8,0.8c0,0.8,0,1.6,0,1.6c0,0.8,0.8,0.8,0.8,0.8c0.8,0,1.6-0.8,1.6-0.8s0,0,0-0.8
		s0-0.8,0-1.6c0,0,0-0.8-0.8-0.8C250.4,292,250.4,292.8,249.6,292.8z"/>
	<path style="fill:#DFEFDF;" d="M224,196c-1.6,0-2.4-3.2-3.2-3.2c-0.8,0.8,0,2.4,0.8,3.2s4,0.8,5.6,0s2.4-2.4,2.4-4.8
		c0-0.8-0.8-2.4-0.8-3.2c1.6-0.8,2.4-2.4,3.2-4c0-0.8,0.8-2.4,1.6-2.4s2.4,1.6,3.2,0c0.8-0.8,2.4,0.8,2.4,0c0.8-0.8,0-1.6,0-2.4
		c0-0.8-0.8-0.8-0.8,0s0,0.8,0,1.6h-0.8c0,0,0-0.8-0.8-0.8H236c-0.8,0.8-0.8,1.6-1.6,0.8s-0.8-2.4-1.6,0c0,0.8-1.6,1.6-2.4,1.6
		c-0.8,0-0.8-2.4-2.4-1.6c-0.8,0-0.8,2.4-0.8,2.4c0,0.8,3.2,0,3.2,0.8c0,1.6-1.6,2.4-2.4,3.2c-0.8-2.4-2.4-4-2.4-4.8
		c0-1.6-1.6-1.6-1.6,0s1.6,4,2.4,6.4c-0.8,0.8-1.6,0.8-2.4,1.6c-0.8,0.8,0,1.6,0.8,0.8s1.6-0.8,2.4-1.6c0.8,1.6,0.8,2.4,0.8,3.2
		C228.8,193.6,226.4,196,224,196z M228.8,181.6V180c0,0,0.8,0.8,0.8,1.6C229.6,182.4,228.8,182.4,228.8,181.6z"/>
	<path style="fill:#DFEFDF;" d="M232,188.8c-0.8,0,0,1.6,0.8,1.6C232.8,189.6,232,188,232,188.8z"/>
	<path style="fill:#DFEFDF;" d="M232.8,186.4c0.8-0.8,2.4-1.6,3.2-2.4c0,0,0-0.8-0.8-0.8C234.4,184,232.8,184.8,232.8,186.4
		C232,185.6,232.8,186.4,232.8,186.4z"/>
	<path style="fill:#DFEFDF;" d="M243.2,178.4c0.8,0,1.6-0.8,1.6-1.6V176C244,176.8,243.2,177.6,243.2,178.4L243.2,178.4
		C242.4,178.4,243.2,178.4,243.2,178.4z"/>
	<path style="fill:#DFEFDF;" d="M246.4,178.4c0.8-0.8,2.4-1.6,2.4-2.4c0,0-0.8-0.8-0.8,0C247.2,176,246.4,177.6,246.4,178.4
		C246.4,178.4,246.4,179.2,246.4,178.4z"/>
	<path style="fill:#DFEFDF;" d="M244.8,180c-0.8,0.8-0.8,0.8-1.6,0.8v0.8c0.8,0,0.8,0,1.6,0C245.6,180.8,244.8,179.2,244.8,180z"/>
	<path style="fill:#DFEFDF;" d="M239.2,184c-0.8-0.8-2.4,0-1.6,0.8c0.8,0.8,0.8,1.6,0,1.6c-0.8,0.8-0.8,1.6-1.6,2.4
		c0-0.8,0-2.4,0-3.2s-0.8-0.8-0.8,0s0,2.4,0,4c-0.8,0.8-1.6,1.6-2.4,2.4c-0.8,0.8,0,1.6,0,1.6c0.8-0.8,1.6-1.6,2.4-3.2l0,0
		c4,0.8,6.4-3.2,7.2-2.4c0.8,0,1.6,2.4,2.4,3.2c1.6,0.8,1.6,0,1.6-0.8c-0.8-0.8-0.8-1.6-1.6-2.4c0.8-0.8,1.6-2.4,2.4-2.4
		c1.6,0,2.4,0,4-0.8c1.6,0,1.6-1.6,0-1.6c-2.4,0-6.4,0-6.4-0.8s2.4-2.4,3.2-2.4c1.6,0,2.4-1.6,1.6-3.2c-0.8-0.8-2.4,0-2.4,0
		c0,0.8,1.6,0,1.6,0.8s-0.8,0.8-1.6,0.8s-3.2,2.4-4,3.2c0,0.8-0.8,1.6,0,1.6s3.2,0,2.4,0.8c-0.8,0-1.6,1.6-2.4,2.4
		c-1.6-2.4-2.4-4.8-3.2-7.2c0-0.8-1.6-0.8-0.8,0.8s2.4,4.8,2.4,6.4c-0.8,1.6-4,3.2-4.8,3.2H236C238.4,187.2,240,184.8,239.2,184z"/>
	<path style="fill:#DFEFDF;" d="M254.4,180.8c0.8,0,0.8-0.8,0.8-1.6s0-0.8-0.8-0.8C254.4,179.2,253.6,179.2,254.4,180.8
		C253.6,180,253.6,180.8,254.4,180.8z"/>
	<path style="fill:#DFEFDF;" d="M258.4,179.2c0.8,0,0.8-1.6,0-1.6C257.6,178.4,258.4,180,258.4,179.2z"/>
	<path style="fill:#DFEFDF;" d="M258.4,183.2c0.8,0,1.6,0,1.6-0.8s-0.8-1.6-0.8-1.6c0,0.8,0,1.6-0.8,1.6
		C258.4,181.6,258.4,181.6,258.4,183.2c-0.8,0-0.8-0.8-0.8-1.6h-0.8C256.8,183.2,257.6,183.2,258.4,183.2z"/>
	<path style="fill:#DFEFDF;" d="M254.4,186.4c-0.8,1.6-2.4,4.8-4,4.8c-0.8,0-0.8-2.4-0.8-3.2l0,0c0-0.8-0.8-0.8-0.8,0.8
		c-0.8,1.6,0.8,4,1.6,4.8c0.8,0,2.4-4,3.2-4c0.8,0-0.8,4,2.4,4c0.8,0,1.6-1.6,2.4-1.6s1.6,0.8,2.4,0.8s2.4-0.8,2.4-3.2
		c0-0.8,0.8-2.4,0.8-4c-0.8-1.6-2.4-1.6-1.6-0.8c0.8,1.6,0,3.2,0,4.8c0,2.4-2.4,0.8-2.4,0.8c0-1.6,0-4,0-5.6c0-0.8-0.8-0.8-0.8,0
		c0,1.6,0,4,0,4.8s-2.4,1.6-2.4,0.8c-0.8-0.8-0.8-4,0-5.6C255.2,185.6,254.4,185.6,254.4,186.4z"/>
	<path style="fill:#DFEFDF;" d="M262.4,181.6L262.4,181.6c1.6,0.8,2.4,2.4,4,4.8c0,0-1.6,5.6-1.6,6.4c0,1.6,0.8,1.6,0.8,0.8
		c0.8-2.4,0.8-3.2,1.6-6.4c0,0,1.6,4,1.6,4.8c0,0,1.6,0.8,0.8,0c-0.8-2.4-1.6-4-2.4-6.4l1.6-4.8c0-1.6-0.8-1.6-0.8-0.8
		c0,1.6,0,4-0.8,4s-2.4-4-3.2-5.6C263.2,178.4,261.6,180.8,262.4,181.6z"/>
	<path style="fill:#DFEFDF;" d="M264.8,194.4L264.8,194.4c0,0-0.8,0.8,0.8,0.8c2.4,0.8,4.8,0,5.6-2.4c0.8-3.2,1.6-5.6,2.4-6.4
		c0.8-1.6,1.6-0.8,0.8-3.2c-0.8-1.6-0.8-0.8-1.6,0c-0.8,1.6-2.4,8-2.4,8.8C270.4,193.6,268,194.4,264.8,194.4z"/>
	<path style="fill:#DFEFDF;" d="M270.4,186.4c0.8,0,1.6,0,1.6-0.8s-0.8-0.8-0.8-0.8c0,0.8-0.8,0.8-0.8,0s-0.8,0-0.8,0.8
		C269.6,185.6,269.6,186.4,270.4,186.4z"/>
	<path style="fill:#DFEFDF;" d="M271.2,183.2c0.8,0,1.6,0,2.4-0.8v-0.8c-0.8,0-2.4,0-2.4,0.8C270.4,182.4,270.4,183.2,271.2,183.2z"
		/>
	<path style="fill:#DFEFDF;" d="M274.4,194.4c0.8-0.8,4.8-8.8,4.8-9.6c0.8-1.6-0.8-1.6-1.6,0C277.6,184.8,274.4,192.8,274.4,194.4
		C272.8,194.4,273.6,195.2,274.4,194.4z"/>
	<path style="fill:#DFEFDF;" d="M279.2,190.4c0,0-0.8,0-0.8,0.8s0.8,0.8,0.8,0.8C280,190.4,278.4,191.2,279.2,190.4z"/>
	<path style="fill:#DFEFDF;" d="M276.8,193.6L276.8,193.6c0,0-0.8,0.8,0,0.8s2.4,0,3.2,0c0,0,0.8-0.8,0-0.8S277.6,193.6,276.8,193.6
		z"/>
	<path style="fill:#DFEFDF;" d="M208,199.2h-1.6c0,0,0,1.6,0.8,1.6S208.8,199.2,208,199.2z"/>
	<path style="fill:#DFEFDF;" d="M211.2,204c0.8-0.8-0.8-4,0-4.8c0,0,2.4,2.4,3.2,2.4c2.4,0,1.6-4,4-3.2c1.6,0,1.6-1.6,1.6-3.2
		c0-0.8-2.4-3.2-3.2-3.2c-0.8-0.8-1.6,0.8-0.8,1.6s2.4,2.4,2.4,3.2s-0.8,1.6-1.6,0.8s-2.4-3.2-3.2-4c0,0-0.8,0-0.8,0.8
		c0.8,0.8,2.4,2.4,2.4,3.2s-0.8,2.4-1.6,2.4s-2.4-2.4-3.2-3.2c0-0.8-0.8-0.8-1.6,0c0,0.8,0,3.2,0,4c0,1.6-0.8,1.6-0.8,0.8
		c0,0-1.6,0.8-0.8,1.6C209.6,204.8,211.2,204.8,211.2,204z"/>
	<path style="fill:#DFEFDF;" d="M207.2,195.2c0,0-0.8,0.8-1.6,0.8l0.8,0.8c0,0,1.6-1.6,1.6-2.4c0-0.8-2.4-1.6-2.4-0.8
		C205.6,194.4,208,195.2,207.2,195.2z"/>
	<path style="fill:#DFEFDF;" d="M210.4,191.2c0-0.8-0.8-0.8-0.8-0.8S210.4,192,210.4,191.2z"/>
	<path style="fill:#DFEFDF;" d="M210.4,192.8l-0.8,0.8c0.8,0,2.4,0.8,1.6-0.8c0-0.8,2.4,0,1.6-1.6c0-0.8-0.8-1.6-1.6-1.6l-0.8,0.8
		c0,0,1.6,0.8,0.8,1.6s-0.8,0-1.6,0C211.2,192,211.2,192.8,210.4,192.8C211.2,192.8,210.4,192.8,210.4,192.8z"/>
	<path style="fill:#DFEFDF;" d="M214.4,187.2c0,0,0.8-0.8,0.8-1.6v-0.8C214.4,185.6,213.6,186.4,214.4,187.2
		C213.6,187.2,214.4,187.2,214.4,187.2z"/>
	<path style="fill:#DFEFDF;" d="M222.4,193.6c0.8,0.8,1.6,0,0.8-0.8c-0.8-1.6-4.8-7.2-4.8-8c-0.8-1.6-1.6-0.8-1.6,0
		C219.2,188,220.8,191.2,222.4,193.6z"/>
	<path style="fill:#DFEFDF;" d="M220.8,185.6c0.8-0.8,2.4-2.4,1.6-3.2c0-0.8-0.8-0.8-1.6-0.8c-0.8,0.8,0.8,0.8,0,0.8
		C221.6,183.2,220.8,184,220.8,185.6C220.8,184.8,220.8,185.6,220.8,185.6z"/>
	<path style="fill:#DFEFDF;" d="M284,192c-1.6,3.2-3.2,6.4-4.8,7.2c-1.6,1.6-1.6-1.6-1.6-2.4c0-0.8-0.8-1.6-1.6-0.8
		c-0.8,0.8-1.6,0.8-3.2,0.8c-0.8,0-0.8,0-1.6-0.8l0,0c0-0.8-0.8-1.6-0.8,0c0,3.2,4,2.4,5.6,0.8c0.8-0.8,0,3.2,1.6,4
		c0.8,0,2.4-0.8,3.2-1.6c1.6-1.6,2.4-4,3.2-5.6c0,0.8,0.8,2.4,0.8,3.2c-0.8,1.6-1.6,3.2-1.6,4s0.8,1.6,0.8,0.8s0.8-1.6,1.6-3.2
		c0,1.6,0,2.4,0,3.2l0.8-0.8c0-1.6,0-2.4-0.8-4c0.8-1.6,2.4-3.2,3.2-4c1.6-0.8,0-3.2,0-2.4s-1.6,3.2-2.4,4.8c0-0.8,0-2.4-0.8-3.2
		c0.8-0.8,0.8-1.6,1.6-2.4c0.8-0.8-0.8-1.6-0.8-0.8s-0.8,0.8-0.8,1.6c-0.8-1.6-0.8-3.2-1.6-4c-0.8-0.8-1.6,0.8-0.8,1.6
		C282.4,188.8,283.2,190.4,284,192z"/>
	<path style="fill:#DFEFDF;" d="M280.8,201.6c-0.8,0-0.8,0.8-0.8,0.8c0.8,0.8,2.4,0.8,4,0.8c4-0.8,4.8-5.6,8-8.8
		c1.6-1.6,0-5.6-0.8-2.4c-0.8,3.2-3.2,6.4-5.6,8.8C284,203.2,281.6,202.4,280.8,201.6z"/>
	<path style="fill:#DFEFDF;" d="M244.8,206.4c0-0.8,0-1.6,0-3.2c0,0,0.8,0,0.8-0.8v-0.8c-0.8,0-0.8,0-1.6,0s0,0.8,0,0.8
		c0.8,0,0,1.6,0,3.2C244,207.2,244.8,207.2,244.8,206.4z"/>
	<path style="fill:#DFEFDF;" d="M244.8,200c-1.6,0.8-2.4,1.6-3.2,2.4c0,0-0.8,1.6-0.8,2.4c-0.8,0-0.8-0.8-1.6-0.8s-0.8,1.6-2.4,1.6
		c-0.8,0,0.8,0.8,0.8,0.8c0.8,0,0.8-0.8,1.6-1.6s0.8,0.8,0.8,0.8s0.8,0,1.6-0.8c0-0.8,0-1.6,0.8-1.6c0.8-1.6,2.4-1.6,3.2-2.4
		C245.6,200.8,245.6,200,244.8,200z"/>
	<path style="fill:#DFEFDF;" d="M252,205.6c-0.8,0-0.8-0.8-0.8-0.8c-1.6-0.8-1.6,0-1.6,0c-0.8,0-0.8,1.6-0.8,1.6
		c0.8,0,0.8,0,1.6-0.8c0-0.8,0,2.4,1.6,1.6c0.8-0.8,2.4,0,3.2-0.8c0.8-0.8,0.8-0.8,0-2.4c0,0-0.8,0-0.8,0.8s-0.8,1.6-0.8,0.8V204
		c0,0,0,0-0.8,0C252.8,204,252.8,205.6,252,205.6z"/>
	<path style="fill:#DFEFDF;" d="M257.6,201.6c-0.8,0.8-0.8,0.8-1.6,0.8c-0.8,0,0,0.8,0,0.8c0,0.8,0,1.6,0,2.4h0.8c0-0.8,0-2.4,0-3.2
		S257.6,202.4,257.6,201.6C258.4,202.4,258.4,201.6,257.6,201.6z"/>
	<path style="fill:#DFEFDF;" d="M252.8,200.8L252.8,200.8c-0.8,0.8-0.8,0.8-0.8,1.6h0.8C252.8,202.4,253.6,200.8,252.8,200.8z"/>
	<path style="fill:#DFEFDF;" d="M237.6,200c2.4-1.6,5.6-1.6,9.6-1.6s7.2,0.8,9.6,1.6l0,0l7.2-3.2l-6.4,3.2l3.2-2.4l-4.8,1.6l3.2-4
		l-5.6,3.2l1.6-3.2l-3.2,2.4l0.8-4l-3.2,4v-3.2l-1.6,3.2l0-4l0,0l-0.8,4l-1.6-3.2v3.2l-3.2-4l0.8,4L240,196l1.6,3.2L236,196l3.2,4
		l-4-2.4L237.6,200l-7.2-3.2L237.6,200z"/>
	<path style="fill:#DFEFDF;" d="M240.8,288.8c0,0,0,0.8,0,1.6l0,0C241.6,289.6,241.6,288.8,240.8,288.8c0.8-0.8,0.8-1.6,0.8-1.6
		v-0.8v-0.8c0,0,0-0.8-0.8-0.8l-0.8,1.6c0,0.8,0.8,0.8,0.8,0.8s0,0.8,0.8,0.8C240.8,288,240.8,288.8,240.8,288.8z"/>
	<path style="fill:#DFEFDF;" d="M246.4,284L246.4,284c0,0.8-0.8,0.8-0.8,0.8h-0.8L244,284l-0.8,1.6c0,0.8,0.8,0.8,0.8,1.6
		c0,0,0,0.8,0.8,0.8c0,0.8,0,0.8,0,0.8v0.8v0.8l0,0v-0.8v-0.8V288v-0.8c0.8,0,0.8,0,0.8-0.8v-0.8C246.4,284.8,246.4,284.8,246.4,284
		C246.4,284.8,246.4,284.8,246.4,284z"/>
	<path style="fill:#DFEFDF;" d="M250.4,286.4c0-0.8,0-1.6,0-1.6V284c0,0,0,0-0.8,0s-0.8,0-0.8,0.8s-0.8,0.8-0.8,1.6v0.8h0.8h0.8
		c0,0.8,0,0.8,0,1.6v0.8c0,0,0,0.8,0.8,0.8v-1.6l-0.8-0.8C250.4,288,250.4,287.2,250.4,286.4z M249.6,286.4
		C248.8,286.4,248.8,286.4,249.6,286.4C248.8,285.6,248.8,285.6,249.6,286.4C248.8,285.6,248.8,285.6,249.6,286.4
		C249.6,285.6,249.6,285.6,249.6,286.4L249.6,286.4z"/>
	<path style="fill:#DFEFDF;" d="M253.6,288.8c0-0.8,0.8-1.6,0.8-2.4c0,1.6,0.8,2.4,0.8,3.2c0,0.8,0.8,0.8,0.8,1.6v-1.6
		c0-0.8-0.8-0.8-0.8-0.8s-0.8-0.8-0.8-1.6c0-0.8,0-0.8-0.8-1.6l0,0c0,0.8,0,1.6,0,1.6c0,0.8,0,0.8-0.8,1.6c0,0,0,0.8-0.8,0.8v1.6
		c0,0,0.8,0,0.8-0.8C252.8,289.6,252.8,288.8,253.6,288.8z"/>
	<path style="fill:#DFEFDF;" d="M264.8,305.6C264,305.6,264,305.6,264.8,305.6C264,305.6,264,305.6,264.8,305.6c0,0.8,0,0.8,0,0.8
		S264.8,306.4,264.8,305.6C264.8,306.4,264.8,306.4,264.8,305.6c0.8,0.8,0.8,0,0.8,0C265.6,305.6,264.8,305.6,264.8,305.6
		L264.8,305.6z"/>
	<path style="fill:#DFEFDF;" d="M277.6,305.6c1.6,0.8,5.6,0.8,7.2,0c-4-0.8-7.2-3.2-8-1.6v0.8c-0.8-0.8-1.6-1.6-2.4-2.4
		c0.8-0.8,1.6-0.8,2.4-1.6c-1.6,0-3.2,0-4,0c-0.8-0.8-0.8-0.8-1.6-1.6c-0.8-0.8-0.8-0.8-2.4-0.8l0.8-0.8l0,0c0,0.8,0.8,1.6,1.6,1.6
		c1.6-0.8-0.8-4,0-7.2c-0.8,0.8-1.6,3.2-1.6,4.8c0-0.8-0.8-0.8-1.6-1.6c-0.8,0-1.6,1.6-0.8,3.2l0,0h-0.8c-5.6,2.4-12.8,4.8-20,4.8
		c-6.4,0-15.2-3.2-19.2-4.8l0,0c-0.8-0.8-2.4,0-3.2,0.8l-0.8,0.8c-1.6,0-3.2,0-4.8,0c0.8,0.8,1.6,1.6,2.4,1.6
		c-0.8,0.8-1.6,1.6-3.2,2.4v-0.8c-0.8-1.6-4,0.8-8,1.6c1.6,0.8,5.6,0.8,7.2,0c-0.8,0.8-2.4,1.6-3.2,2.4c-1.6-1.6-8-1.6-13.6-4.8
		c0.8,2.4,8,5.6,12,6.4c-0.8,0.8,0,2.4,3.2,4c0,0,4,1.6,6.4,1.6c0.8,0,0.8,1.6,0.8,1.6c-0.8,0.8,0,0.8-0.8,1.6
		c-0.8,0.8,0,1.6,0.8,0.8c3.2-2.4,7.2-0.8,12,0.8c0.8,0,3.2,0,3.2-1.6s0.8-2.4,1.6-2.4c1.6,0,11.2,0.8,13.6,0c1.6,0,1.6,2.4,2.4,3.2
		c0.8,0.8,3.2,0.8,4.8,0c3.2-1.6,8-1.6,9.6,0c0.8,0.8,1.6,0,0.8-0.8c1.6,0.8,1.6,0,1.6-0.8c-0.8-1.6,0-1.6,0.8-1.6
		c7.2-0.8,10.4-3.2,9.6-5.6c3.2,0,11.2-4,12-6.4c-5.6,3.2-12,3.2-13.6,4.8C279.2,307.2,278.4,306.4,277.6,305.6z M261.6,301.6h2.4
		v1.6h-2.4V301.6z M257.6,304h2.4v1.6h-2.4V304z M239.2,305.6l0.8,0.8l0.8-0.8l1.6,0.8l-1.6,0.8l-0.8-0.8l-0.8,0.8l-1.6-0.8
		L239.2,305.6z M232,304.8l1.6,1.6l-1.6,0.8l-1.6-1.6L232,304.8z M232,310.4c0,0.8-0.8,0.8-0.8,0.8s-0.8,0-1.6,0.8
		c-0.8,0-0.8,0-1.6,0s-1.6,0-2.4-0.8c-1.6-0.8-2.4-0.8-2.4-1.6c-0.8-0.8-0.8-0.8,0-1.6c0-0.8,0.8-0.8,1.6-0.8s1.6-0.8,3.2-0.8l0,0
		c-0.8,0-1.6,0.8-2.4,0.8l-0.8,0.8v0.8c0,0.8,0.8,0.8,2.4,0.8c0.8,0,1.6,0.8,2.4,0.8C231.2,311.2,231.2,310.4,232,310.4
		c-0.8-0.8,0-0.8,0-0.8s0-0.8,0-1.6l1.6-0.8c0,0.8,0,0.8,0,0.8s0,0.8-0.8,0.8L232,310.4z M251.2,312.8L251.2,312.8
		c-0.8,0-1.6,0-1.6,0c-0.8,0-0.8,0-1.6,0h-0.8c0,0-0.8,0-1.6,0H244h-0.8c0,0,0,0-0.8-0.8l-0.8,0.8c0,0-0.8,0-1.6,0h-1.6l0,0L236,312
		l0,0l0,0h-0.8l0,0l0,0l0,0c-0.8,0-0.8-0.8-0.8-0.8c0-0.8,0-0.8,0.8-2.4l0.8-1.6v-0.8c0,0,0,0,0-0.8l1.6-0.8v0.8c0,0,0,0.8-0.8,1.6
		L236,308c-0.8,0.8-0.8,1.6-0.8,1.6v0.8h0.8l4,0.8v-0.8c0,0,0,0-0.8-0.8l1.6-1.6l0.8,0.8c0,0,0,0.8,0,1.6c0.8,0,0.8,0,1.6,0
		s0.8-0.8,0.8-1.6h0.8c0,0,0,0,0,0.8c0,0,0,0,0,0.8c0,0,0,0,0,0.8h0.8h0.8c0.8,0,1.6,0,1.6,0l0.8-0.8l0,0l0,0l0,0l0,0l0,0v0.8h0.8
		l0,0l0,0h0.8l0,0c0,0,0,0,0-0.8l0,0l0,0l0.8-0.8v0.8v0.8l0,0h3.2c0,0,0-0.8-0.8-0.8c0,0,0,0-0.8-0.8l0.8-1.6c0.8,0,0.8,0.8,0.8,0.8
		s0.8,0.8,0.8,1.6v1.6L251.2,312.8z M264.8,309.6L264.8,309.6L264.8,309.6H264c-0.8,0-0.8,0-1.6,0h-0.8l-0.8,0.8H260l0,0l0,0l0,0
		h-0.8l0,0l0,0c-0.8,0-1.6,0-1.6,0c-0.8,0-0.8-0.8-1.6-1.6l-0.8-1.6c0,0,0-0.8-0.8-0.8l0,0v0.8l-2.4-0.8l0.8-1.6h1.6V304
		c0.8,0,0.8,0.8,0.8,0.8s0.8,0.8,0.8,1.6v0.8c0,0.8,0.8,1.6,0.8,1.6h0.8h0.8l0,0c0.8,0,0.8,0,0.8,0s0,0,0.8,0h-0.8c0,0,0,0-0.8,0
		l0,0l0,0l0,0c0-0.8-0.8-0.8,0-1.6c0,0,0.8-0.8,1.6-0.8c0.8,0,1.6,0,1.6,0c0.8,0,0.8,0,0.8,0.8c0,0,0,0,0,0.8v0.8c0,0,0,0,0.8,0
		c0,0,0,0,0.8,0l0,0l0,0l4.8-1.6c0,0,0-0.8-0.8-0.8c0,0,0,0-0.8-0.8v0.8c0,0-0.8,0-0.8,0.8c-0.8,0-0.8,0-1.6,0c-0.8,0-0.8,0-0.8-0.8
		s-0.8-0.8-0.8-1.6c0-0.8,0-0.8,0.8-1.6c0.8,0,1.6,0,2.4,0.8s1.6,0.8,2.4,1.6l1.6,2.4L264.8,309.6z M270.4,308
		c0-0.8-0.8-0.8-0.8-0.8l-0.8-0.8l-0.8-0.8c-0.8,0-0.8-0.8-1.6-1.6c0,0,0,0-0.8,0c0,0,0,0,0-0.8v-0.8l1.6,1.6
		c0.8,0.8,1.6,0.8,1.6,1.6l0.8,0.8l0.8,0.8C271.2,307.2,271.2,308,270.4,308L270.4,308z"/>
</g>
<g>
</g>
<g>
</g>
<g>
</g>
<g>
</g>
<g>
</g>
<g>
</g>
<g>
</g>
<g>
</g>
<g>
</g>
<g>
</g>
<g>
</g>
<g>
</g>
<g>
</g>
<g>
</g>
<g>
</g>
</svg>
