<?xml version="1.0" encoding="UTF-8" standalone="no"?>
<!-- Created with Sodipodi ("http://www.sodipodi.com/") -->
<svg xmlns:inkscape="http://www.inkscape.org/namespaces/inkscape" xmlns:rdf="http://www.w3.org/1999/02/22-rdf-syntax-ns#" xmlns="http://www.w3.org/2000/svg" xmlns:cc="http://creativecommons.org/ns#" xmlns:dc="http://purl.org/dc/elements/1.1/" xmlns:sodipodi="http://sodipodi.sourceforge.net/DTD/sodipodi-0.dtd" xmlns:svg="http://www.w3.org/2000/svg" xmlns:ns1="http://sozi.baierouge.fr" id="svg722" inkscape:version="0.48.3.1 r9886" viewBox="0 0 744.09 496.06" sodipodi:version="0.33pre" version="1.1" sodipodi:docname="_svgclean2.svg" xmlns:xlink="http://www.w3.org/1999/xlink">
  <sodipodi:namedview id="base" inkscape:window-width="674" inkscape:window-x="0" inkscape:window-y="0" snaptogrid="false" inkscape:window-maximized="0" inkscape:zoom="0.22425739" inkscape:window-height="645" showgrid="true" inkscape:current-layer="svg722" inkscape:cx="372.04724" inkscape:cy="-30.121102" borderlayer="top" showborder="true"/>
  <rect id="rect740" style="fill-rule:evenodd;stroke-width:1pt;fill:#ffffff" height="496.06" width="744.09" y="0.000023" x="0"/>
  <rect id="rect726" style="fill-rule:evenodd;stroke-width:1pt;fill:#df0000" height="496.06" width="167.74" y="0" x="288.18"/>
  <rect id="rect727" style="fill-rule:evenodd;stroke-width:1pt;fill:#00319c" height="167.74" width="744.09" y="164.16" x="0"/>
  <path id="path663" inkscape:connector-curvature="0" sodipodi:nodetypes="ccccccccccc" style="fill-rule:evenodd;fill:#ffffff" d="m320.35 270.32-14.61-10.79-14.54 10.4 5.77-16.48-14.62-10.76 17.56-0.12 6.15-16.22 5.59 16.33 17.74-0.17-14.06 10.95 5.02 16.86z"/>
  <path id="path712" inkscape:connector-curvature="0" sodipodi:nodetypes="ccccccccccc" style="fill-rule:evenodd;fill:#ffffff" d="m451.96 270.32-14.62-10.79-14.54 10.4 5.77-16.48-14.61-10.76 17.56-0.12 6.15-16.22 5.59 16.33 17.74-0.17-14.07 10.95 5.03 16.86z"/>
  <path id="path713" inkscape:connector-curvature="0" sodipodi:nodetypes="ccccccccccc" style="fill-rule:evenodd;fill:#ffffff" d="m386.99 221.46-14.62-10.8-14.54 10.41 5.77-16.49-14.61-10.75 17.56-0.13 6.15-16.22 5.59 16.33 17.74-0.17-14.07 10.96 5.03 16.86z"/>
  <path id="path714" inkscape:connector-curvature="0" sodipodi:nodetypes="ccccccccccc" style="fill-rule:evenodd;fill:#ffffff" d="m386.99 221.46-14.62-10.8-14.54 10.41 5.77-16.49-14.61-10.75 17.56-0.13 6.15-16.22 5.59 16.33 17.74-0.17-14.07 10.96 5.03 16.86z"/>
  <path id="path719" inkscape:connector-curvature="0" sodipodi:nodetypes="ccccccccccc" style="fill-rule:evenodd;fill:#ffffff" d="m386.99 320.4-14.62-10.79-14.54 10.41 5.77-16.49-14.61-10.75 17.56-0.13 6.15-16.22 5.59 16.33 17.74-0.17-14.07 10.95 5.03 16.86z"/>
  <metadata id="metadata12">
    <rdf:RDF>
      <cc:Work>
        <dc:format>image/svg+xml</dc:format>
        <dc:type rdf:resource="http://purl.org/dc/dcmitype/StillImage"/>
        <cc:license rdf:resource="http://creativecommons.org/licenses/publicdomain/"/>
        <dc:publisher>
          <cc:Agent rdf:about="http://openclipart.org/">
            <dc:title>Openclipart</dc:title>
          </cc:Agent>
        </dc:publisher>
      </cc:Work>
      <cc:License rdf:about="http://creativecommons.org/licenses/publicdomain/">
        <cc:permits rdf:resource="http://creativecommons.org/ns#Reproduction"/>
        <cc:permits rdf:resource="http://creativecommons.org/ns#Distribution"/>
        <cc:permits rdf:resource="http://creativecommons.org/ns#DerivativeWorks"/>
      </cc:License>
    </rdf:RDF>
  </metadata>
</svg>
