<?xml version="1.0"?>
<svg xmlns="http://www.w3.org/2000/svg" xmlns:xlink="http://www.w3.org/1999/xlink" xmlns:svgjs="http://svgjs.com/svgjs" version="1.1" width="512" height="512" x="0" y="0" viewBox="0 0 512 512" style="enable-background:new 0 0 512 512" xml:space="preserve" class=""><g>
<path xmlns="http://www.w3.org/2000/svg" style="" d="M81.275,472.398c12.221-16.433,22.501-36.807,30.635-60.694  c-54.717-43.711-86.98-110.196-86.98-180.635C24.93,103.657,128.588,0,256,0c127.413,0,231.07,103.657,231.07,231.069  c0,127.413-103.657,231.07-231.07,231.07c-16.548,0-33.023-1.762-49.105-5.245c-36.749,28.425-76.118,45.52-97.135,53.426  C86.688,519.004,66.576,492.158,81.275,472.398z" fill="#feca57" data-original="#feca57" class=""/>
<path xmlns="http://www.w3.org/2000/svg" style="" d="M256,39.401c-105.686,0-191.668,85.982-191.668,191.668c0,62.478,30.608,121.212,81.875,157.112  c6.925,4.849,9.984,13.577,7.602,21.688c-4.755,16.195-10.366,31.238-16.793,45.048c16.681-8.792,35.189-20.234,52.527-34.595  c4.892-4.052,11.432-5.495,17.577-3.881c15.889,4.177,32.334,6.296,48.88,6.296c105.686,0,191.669-85.982,191.669-191.669  S361.686,39.401,256,39.401z" fill="#f4b537" data-original="#f4b537" class=""/>
<path xmlns="http://www.w3.org/2000/svg" style="" d="M137.016,454.918c8.82-4.648,18.151-10.046,27.549-16.216c3.606-9.154,6.892-18.77,9.846-28.833  c2.382-8.111-0.677-16.839-7.602-21.688c-51.267-35.9-81.875-94.634-81.875-157.113c0-102.23,80.452-186.018,181.367-191.389  C262.89,39.497,259.456,39.4,256,39.4c-105.686,0-191.668,85.982-191.668,191.668c0,62.478,30.608,121.212,81.875,157.113  c6.925,4.849,9.984,13.577,7.602,21.688C149.053,426.064,143.443,441.108,137.016,454.918z" fill="#e59d1f" data-original="#e59d1f"/>
<path xmlns="http://www.w3.org/2000/svg" style="" d="M101.828,472.398c11.195-15.053,20.761-33.414,28.541-54.752c1.277-3.502,0.21-7.425-2.639-9.827  c-51.839-43.71-82.246-108.367-82.246-176.75c0-123.967,98.132-225.432,220.792-230.829C262.868,0.09,259.444,0,256,0  C128.588,0,24.93,103.657,24.93,231.069c0,70.439,32.262,136.924,86.979,180.635c-8.134,23.887-18.413,44.261-30.635,60.694  c-14.084,18.932,3.835,47.33,30.09,37.313C97.428,503.325,92.129,485.437,101.828,472.398z" fill="#f4b537" data-original="#f4b537" class=""/>
<g xmlns="http://www.w3.org/2000/svg">
	<path style="" d="M251.955,303.831c-14.328,0-25.986,11.802-25.986,26.31c0,14.507,11.657,26.31,25.986,26.31   c14.261,0,26.31-12.049,26.31-26.31C278.265,315.879,266.216,303.831,251.955,303.831z" fill="#e4eaf8" data-original="#e4eaf8" class=""/>
	<path style="" d="M256.174,114.568c-44.523,0-65.267,26.741-65.267,44.814c0,12.872,10.712,19.818,20.791,19.818   c18.687,0,10.958-24.997,43.502-24.997c13.49,0,27.904,5.454,27.904,20.762c0,31.385-50.644,28.16-50.644,86.029   c0,17.244,4.837,23.064,19.168,23.064c16.916,0,20.467-7.952,20.467-14.623c0-16.041,0.001-25.725,17.673-39.543   C356.1,178.301,325.552,114.568,256.174,114.568z" fill="#e4eaf8" data-original="#e4eaf8" class=""/>
</g>
<g xmlns="http://www.w3.org/2000/svg">
	<path style="" d="M246.571,330.141c0-10.793,6.454-20.084,15.658-24.137c-3.175-1.393-6.652-2.173-10.274-2.173   c-14.329,0-25.986,11.802-25.986,26.31c0,14.507,11.657,26.311,25.986,26.311c3.622,0,7.099-0.78,10.274-2.173   C253.025,350.225,246.571,340.933,246.571,330.141z" fill="#000000" data-original="#d8dce5" class=""/>
	<path style="" d="M266.647,115.072c-48.52-4.692-75.739,22.721-75.739,44.31c0,17.764,20.791,24.271,29.978,16.699   C199.004,163.048,216.175,120.048,266.647,115.072z" fill="#000000" data-original="#d8dce5" class=""/>
	<path style="" d="M253.064,260.993c0-57.844,50.644-54.517,50.644-86.029c0-19.784-24.195-23.008-38.468-19.673   c9.751,2.249,17.866,8.187,17.866,19.673c0,31.386-50.644,28.159-50.644,86.029c0,17.244,4.837,23.064,19.168,23.064   c4.441,0,7.952-0.552,10.729-1.481C255.581,279.922,253.064,273.429,253.064,260.993z" fill="#000000" data-original="#d8dce5" class=""/>
</g>
<g xmlns="http://www.w3.org/2000/svg">
</g>
<g xmlns="http://www.w3.org/2000/svg">
</g>
<g xmlns="http://www.w3.org/2000/svg">
</g>
<g xmlns="http://www.w3.org/2000/svg">
</g>
<g xmlns="http://www.w3.org/2000/svg">
</g>
<g xmlns="http://www.w3.org/2000/svg">
</g>
<g xmlns="http://www.w3.org/2000/svg">
</g>
<g xmlns="http://www.w3.org/2000/svg">
</g>
<g xmlns="http://www.w3.org/2000/svg">
</g>
<g xmlns="http://www.w3.org/2000/svg">
</g>
<g xmlns="http://www.w3.org/2000/svg">
</g>
<g xmlns="http://www.w3.org/2000/svg">
</g>
<g xmlns="http://www.w3.org/2000/svg">
</g>
<g xmlns="http://www.w3.org/2000/svg">
</g>
<g xmlns="http://www.w3.org/2000/svg">
</g>
</g></svg>
