<svg width="54" height="54" viewBox="0 0 54 54" fill="none" xmlns="http://www.w3.org/2000/svg">
<path d="M26.5 26.5001H32.1864C33.1854 26.4985 34.1742 26.3006 35.0962 25.9179C36.0182 25.5352 36.8554 24.9751 37.5597 24.2697C38.264 23.5644 38.8217 22.7275 39.2008 21.8072C39.5798 20.8869 39.7728 19.9011 39.7687 18.9064V7.50048C39.7687 3.35807 36.3964 0 32.2365 0H20.7822C16.6223 0 13.25 3.35807 13.25 7.50048V13.2004H7.53222C3.37228 13.2004 0 16.5584 0 20.7008V32.2C0 36.3424 3.37228 39.7004 7.53222 39.7004H13.3248V34.0006C13.3248 33.013 13.5207 32.0351 13.9012 31.1231C14.2816 30.211 14.8392 29.3828 15.542 28.6859C16.2447 27.989 17.0787 27.4372 17.9962 27.0621C18.9136 26.687 19.8965 26.496 20.8882 26.5001H26.5Z" fill="#FECA26"/>
<path d="M13.2124 12.629H26.5247" stroke="white" stroke-width="1.8" stroke-linejoin="round"/>
<path d="M18.9492 5.6749C18.7581 5.86015 18.6269 6.09793 18.5723 6.35784C18.5177 6.61774 18.5421 6.88797 18.6425 7.13396C18.7429 7.37995 18.9147 7.59053 19.136 7.73879C19.3572 7.88705 19.6178 7.96624 19.8845 7.96624C20.1511 7.96624 20.4117 7.88705 20.6329 7.73879C20.8542 7.59053 21.026 7.37995 21.1264 7.13396C21.2268 6.88797 21.2512 6.61774 21.1966 6.35784C21.142 6.09793 21.0108 5.86015 20.8197 5.6749C20.5694 5.43216 20.2338 5.29633 19.8845 5.29633C19.5351 5.29633 19.1995 5.43216 18.9492 5.6749Z" fill="white"/>
<path d="M32.2367 45.363C32.0457 45.5483 31.9144 45.786 31.8598 46.0459C31.8052 46.3058 31.8297 46.5761 31.9301 46.8221C32.0305 47.0681 32.2023 47.2786 32.4235 47.4269C32.6447 47.5751 32.9053 47.6543 33.172 47.6543C33.4386 47.6543 33.6993 47.5751 33.9205 47.4269C34.1417 47.2786 34.3135 47.0681 34.4139 46.8221C34.5143 46.5761 34.5388 46.3058 34.4842 46.0459C34.4295 45.786 34.2983 45.5483 34.1073 45.363C33.857 45.1203 33.5214 44.9844 33.172 44.9844C32.8226 44.9844 32.487 45.1203 32.2367 45.363Z" fill="white"/>
<path d="M39.7313 39.6817V45.425C39.7313 49.5674 36.359 52.9255 32.199 52.9255L19.9591 52.9999C15.8002 53 12.7761 49.6472 12.7761 45.4996V39.7003" fill="#3951A4"/>
<path d="M39.7313 39.6817V45.425C39.7313 49.5674 36.359 52.9255 32.199 52.9255L19.9591 52.9999C15.8002 53 12.7761 49.6472 12.7761 45.4996V39.7003" stroke="white" stroke-width="1.8" stroke-linejoin="round"/>
<path d="M12.7977 39.727V34.036C12.7977 29.9314 16.1178 26.6039 20.2133 26.6039L32.2637 26.5302C36.3582 26.53 39.3355 29.8524 39.3355 33.9621V39.7085" fill="#3951A4"/>
<path d="M39.7686 13.1817H45.4678C49.6253 13.1817 52.9966 16.5359 53 20.6761V32.1812C53 36.3236 49.6277 39.6817 45.4678 39.6817H26.5374" fill="#3951A4"/>
<path d="M39.7686 13.1817H45.4678C49.6253 13.1817 52.9966 16.5359 53 20.6761V32.1812C53 36.3236 49.6277 39.6817 45.4678 39.6817H26.5374" stroke="white" stroke-width="1.8" stroke-linejoin="round"/>
<path d="M32.2378 44.9897C32.0468 45.175 31.9155 45.4128 31.8609 45.6727C31.8063 45.9326 31.8308 46.2028 31.9312 46.4488C32.0316 46.6948 32.2034 46.9054 32.4246 47.0536C32.6458 47.2019 32.9064 47.2811 33.1731 47.2811C33.4397 47.2811 33.7004 47.2019 33.9216 47.0536C34.1428 46.9054 34.3146 46.6948 34.415 46.4488C34.5154 46.2028 34.5399 45.9326 34.4853 45.6727C34.4306 45.4128 34.2994 45.175 34.1084 44.9897C33.8581 44.747 33.5225 44.6111 33.1731 44.6111C32.8237 44.6111 32.4881 44.747 32.2378 44.9897Z" fill="white"/>
</svg>
