<svg id="Capa_1" enable-background="new 0 0 791.454 791.454" height="512" viewBox="0 0 791.454 791.454" width="512" xmlns="http://www.w3.org/2000/svg"><g><g id="Vrstva_x0020_1_3_"><path clip-rule="evenodd" d="m202.63 0h264.877l224.149 233.97v454.364c0 56.904-45.927 103.12-102.831 103.12h-386.195c-56.615 0-102.831-46.216-102.831-103.12v-585.503c-.001-56.615 46.216-102.831 102.831-102.831z" fill="#008bf5" fill-rule="evenodd"/><g fill="#fff"><path clip-rule="evenodd" d="m467.218 0v231.948h224.438z" fill-rule="evenodd" opacity=".302"/><path d="m486.282 402.66c-49.971-49.971-130.85-49.971-180.821 0s-49.971 130.85 0 180.821 130.85 49.971 180.821 0c49.683-49.971 49.683-130.85 0-180.821zm-160.024 179.665c-7.51-5.488-14.154-12.132-19.642-19.642 16.753-12.71 33.796-25.13 50.549-37.84 2.311 3.177 3.755 4.622 6.932 6.932-12.709 16.755-25.129 33.797-37.839 50.55zm95.61-63.258c-14.443 14.443-37.84 14.443-51.993 0-14.443-14.443-14.443-37.551 0-51.993 14.154-14.154 37.551-14.154 51.993 0 14.154 14.442 14.154 37.55 0 51.993zm12.421-57.771c-2.311-3.177-3.755-4.333-6.644-6.644 12.421-17.042 25.13-33.796 37.551-50.838 7.51 5.488 14.154 12.421 19.931 19.931-17.042 12.421-33.796 25.131-50.838 37.551z"/></g></g></g></svg>