<svg id="Capa_1" enable-background="new 0 0 791.454 791.454" height="512" viewBox="0 0 791.454 791.454" width="512" xmlns="http://www.w3.org/2000/svg"><g><g id="Vrstva_x0020_1_8_"><path clip-rule="evenodd" d="m202.8 0h264.71l224.217 233.922v454.459c0 56.891-46.182 103.073-103.073 103.073h-385.854c-56.891 0-103.073-46.182-103.073-103.073v-585.308c0-56.891 46.182-103.073 103.073-103.073z" fill="#60a313" fill-rule="evenodd"/><g fill="#fff"><path clip-rule="evenodd" d="m467.176 0v231.914h224.552z" fill-rule="evenodd" opacity=".302"/><path d="m300.518 598.025c-4.685 0-8.701-.669-12.382-2.343-4.016-1.339-7.362-3.681-10.374-6.693s-5.354-6.358-7.028-10.374c-1.339-3.681-2.008-7.697-2.008-12.382v-43.17c0-4.685-1.339-8.032-3.681-10.374-2.677-2.008-6.358-3.347-11.713-3.347h-2.343v-33.465h2.343c5.354 0 9.036-1.004 11.713-3.347 2.343-2.343 3.681-5.689 3.681-10.374v-43.17c0-4.35.669-8.701 2.008-12.382 1.673-3.681 4.016-7.362 7.028-10.374s6.358-5.354 10.374-6.693c3.681-1.673 7.697-2.343 12.382-2.343h17.067v32.461h-5.689c-3.012 0-5.02.669-6.358 2.008-1.339 1.673-2.008 4.016-2.008 7.362v40.493c0 3.347-.669 6.693-1.339 9.37-1.004 2.677-2.343 5.02-4.016 7.028-1.673 1.673-3.681 3.347-6.024 5.02l-3.347 1.673 3.347 1.673c2.343 1.673 4.35 3.347 6.024 5.02 3.681 3.681 5.354 9.37 5.354 16.398v40.828c0 3.012.669 5.689 2.008 7.028s3.347 2.343 6.358 2.343h5.689v32.127zm190.418 0h-17.067v-32.127h5.689c2.677 0 5.02-1.004 6.358-2.343 1.339-1.339 2.008-4.016 2.008-7.028v-40.827c0-3.346.335-6.693 1.339-9.37.669-2.677 2.008-5.02 3.681-7.028 1.673-1.673 3.681-3.347 6.358-5.02l3.012-1.673-3.012-1.673c-2.343-1.673-4.35-3.347-6.024-5.02-2.008-2.008-3.347-4.35-4.016-7.028-1.004-2.677-1.339-6.024-1.339-9.37v-40.493c0-3.347-.669-5.689-2.008-7.362-1.339-1.339-3.681-2.008-6.358-2.008h-5.689v-32.461h17.067c4.35 0 8.701.669 12.382 2.343 4.016 1.339 7.362 3.681 10.374 6.693s5.354 6.358 6.693 10.374c1.673 3.681 2.343 8.032 2.343 12.382v43.17c0 4.685 1.339 8.032 3.681 10.374 2.343 2.343 6.358 3.347 11.713 3.347h2.343v33.465h-2.343c-5.354 0-9.37 1.339-11.713 3.347-2.343 2.343-3.681 5.689-3.681 10.374v43.17c0 9.036-3.012 16.733-9.036 22.756-3.012 3.012-6.358 5.354-10.374 6.693-3.68 1.674-8.031 2.343-12.381 2.343zm-103.743-146.243h36.477v37.481h-38.82v-37.481zm-20.079 138.881 15.394-63.584h43.505c-11.378 22.087-22.422 44.174-33.465 66.596h-26.103z"/></g></g></g></svg>