<svg id="Capa_1" enable-background="new 0 0 791.454 791.454" height="512" viewBox="0 0 791.454 791.454" width="512" xmlns="http://www.w3.org/2000/svg"><g><g id="Vrstva_x0020_1_22_"><path clip-rule="evenodd" d="m202.718 0h264.814l224.164 233.873v454.622c0 56.868-46.092 102.959-102.959 102.959h-386.019c-56.868 0-102.959-46.092-102.959-102.959v-585.536c0-56.867 46.091-102.959 102.959-102.959z" fill="#f60" fill-rule="evenodd"/><g fill="#fff"><path clip-rule="evenodd" d="m467.212 0v231.952h224.484z" fill-rule="evenodd" opacity=".302"/><path d="m256.172 553.954c-14.404 0-27.1-4.374-37.876-13.23s-16.644-19.738-17.604-32.648l31.368-9.176c.747 7.042 3.521 12.91 8.642 17.604 5.015 4.588 10.669 6.935 17.071 6.935 5.335 0 9.602-1.174 12.91-3.521 3.201-2.347 4.908-5.335 4.908-9.176 0-3.094-1.387-5.761-3.948-8.002-2.561-2.134-5.975-3.948-10.029-5.228-4.161-1.387-8.856-2.774-13.87-4.161-5.121-1.28-10.243-3.094-15.257-5.228-5.015-2.241-9.602-4.801-13.763-7.789-4.161-2.987-7.575-7.148-10.136-12.59-2.561-5.335-3.841-11.63-3.841-18.885 0-11.63 5.015-21.445 14.937-29.234 10.029-7.789 22.086-11.736 36.276-11.736 13.977 0 26.247 3.414 36.596 10.243 10.456 6.722 16.964 15.684 19.525 26.673l-32.648 13.657c-1.494-6.082-4.268-10.989-8.429-14.51-4.054-3.628-9.069-5.441-15.044-5.441-4.588 0-8.215.854-10.883 2.774-2.667 1.814-4.054 4.268-4.054 7.362s1.814 5.548 5.335 7.362c3.521 1.921 7.895 3.308 13.123 4.268 5.228.854 10.989 2.347 17.071 4.374 6.188 2.027 11.843 4.481 17.071 7.575 5.228 2.987 9.602 7.682 13.123 14.084 3.521 6.508 5.335 14.297 5.335 23.366 0 13.23-5.121 23.899-15.364 32.115-10.351 8.108-23.794 12.163-40.545 12.163zm108.507-1.6-50.359-142.863h37.129l30.408 98.798 30.834-98.798h36.916l-50.359 142.863zm155.986 1.6c-19.738 0-36.489-6.402-50.359-19.098-13.763-12.803-20.699-30.728-20.699-53.88 0-15.684 3.521-29.127 10.669-40.437 7.042-11.31 16.004-19.525 26.993-24.753s23.046-7.895 36.383-7.895c18.565 0 33.715 4.374 45.451 13.123 11.736 8.856 18.992 21.125 21.766 36.916l-35.956 7.255c-1.494-8.002-5.121-14.404-10.883-19.098-5.761-4.801-12.697-7.148-20.699-7.148-11.203 0-20.165 3.734-27.1 11.31-6.828 7.575-10.349 17.818-10.349 30.728s3.414 23.153 10.243 30.728c6.828 7.469 15.684 11.31 26.567 11.31 8.322 0 15.257-1.92 21.019-5.868 5.655-3.841 9.069-8.962 10.136-15.15h-35.209v-28.597h68.924v78.953h-33.288v-12.59c-2.774 4.268-7.362 7.789-13.443 10.349s-12.804 3.842-20.166 3.842z"/></g></g></g></svg>