<svg id="Capa_1" enable-background="new 0 0 791.454 791.454" height="512" viewBox="0 0 791.454 791.454" width="512" xmlns="http://www.w3.org/2000/svg"><g><g id="Vrstva_x0020_1_24_"><path clip-rule="evenodd" d="m202.808 0h264.609l224.265 233.758v454.661c0 56.956-46.079 103.035-102.838 103.035h-386.036c-56.956 0-103.035-46.079-103.035-103.035v-585.384c-.001-56.956 46.078-103.035 103.035-103.035z" fill="#0e1e31" fill-rule="evenodd"/><g fill="#fff"><path clip-rule="evenodd" d="m467.219 0v231.978h224.463z" fill-rule="evenodd" opacity=".302"/><path d="m258.775 553.939v-112.528h-41.135v-31.049h118.857v31.049h-41.135v112.528zm124.196 0v-112.528h-41.135v-31.049h118.857v31.049h-41.135v112.528zm88.599 0v-143.577h102.244v31.049h-65.46v23.138h52.408v31.049h-52.408v58.341z"/></g></g></g></svg>