<svg id="Capa_1" enable-background="new 0 0 791.454 791.454" height="512" viewBox="0 0 791.454 791.454" width="512" xmlns="http://www.w3.org/2000/svg"><g><g id="Vrstva_x0020_1_26_"><path clip-rule="evenodd" d="m202.718 0h264.814l224.164 233.873v454.622c0 56.868-46.092 102.959-102.959 102.959h-386.019c-56.868 0-102.959-46.092-102.959-102.959v-585.536c0-56.867 46.091-102.959 102.959-102.959z" fill="#eb3023" fill-rule="evenodd"/><g fill="#fff"><path clip-rule="evenodd" d="m467.212 0v231.952h224.484z" fill-rule="evenodd" opacity=".302"/><path d="m414.398 440.005h33.929v63.376c0 7.042 3.521 10.669 10.669 10.669 5.121 0 9.282-3.201 12.483-9.496 3.308-6.295 5.015-14.83 5.015-25.82 0-21.125-7.042-37.556-20.912-49.293-13.977-11.736-32.222-17.604-54.734-17.604-25.5 0-46.198 7.362-62.096 22.192-15.791 14.724-23.686 33.929-23.686 57.615 0 24.54 7.789 44.491 23.473 59.749 15.684 15.364 36.062 22.939 61.136 22.939 22.832 0 45.665-6.188 68.604-18.778l11.736 35.209c-28.807 12.056-56.441 18.031-83.008 18.031-33.715 0-61.776-11.096-84.075-33.288-22.299-22.299-33.395-50.253-33.395-83.861 0-32.755 11.523-60.069 34.569-81.727 23.046-21.659 51.853-32.435 86.742-32.435 31.795 0 58.255 9.602 79.38 28.807s31.688 43.318 31.688 72.445c0 21.339-5.121 38.09-15.364 50.253-10.349 12.27-23.793 18.351-40.33 18.351-16.964 0-28.594-5.655-34.889-16.964-6.402 9.709-16.964 14.51-31.688 14.51-14.937 0-26.994-4.801-35.956-14.404-9.069-9.496-13.55-22.512-13.55-38.837 0-16.431 4.374-29.341 13.017-38.943s20.272-14.297 34.782-14.297c11.523 0 20.272 3.201 26.46 9.816zm-35.208 69.351c4.054 4.588 9.176 6.828 15.577 6.828 6.402 0 11.523-2.241 15.471-6.722 3.841-4.374 5.868-10.349 5.868-17.818s-2.027-13.443-5.868-17.925c-3.948-4.481-9.069-6.722-15.471-6.722s-11.523 2.347-15.577 6.828c-3.948 4.588-5.975 10.563-5.975 17.818 0 7.257 2.027 13.232 5.975 17.713z"/></g></g></g></svg>