<svg width="512" height="512" viewBox="0 0 512 512" fill="none" xmlns="http://www.w3.org/2000/svg">
<path d="M131.14 0H302.451L447.465 151.295V445.395C447.465 482.183 417.648 512 380.86 512H131.14C94.3519 512 64.5352 482.183 64.5352 445.395V66.6053C64.5352 29.8174 94.3519 0 131.14 0V0Z" fill="#0255D1"/>
<path opacity="0.302" fill-rule="evenodd" clip-rule="evenodd" d="M302.244 0V150.052H447.465L302.244 0Z" fill="white"/>
<path d="M216.906 280.336C227.766 280.336 235.891 282.699 241.281 287.426C246.711 292.152 249.426 298.871 249.426 307.582C249.426 311.488 248.859 315.238 247.727 318.832C246.633 322.426 244.816 325.629 242.277 328.441C239.777 331.254 236.438 333.48 232.258 335.121C228.117 336.762 223 337.582 216.906 337.582H210.402V366H187.258V280.336H216.906ZM216.379 299.027H210.402V318.715H214.973C216.965 318.715 218.82 318.383 220.539 317.719C222.258 317.016 223.625 315.902 224.641 314.379C225.695 312.816 226.223 310.746 226.223 308.168C226.223 305.473 225.422 303.285 223.82 301.605C222.219 299.887 219.738 299.027 216.379 299.027ZM293.664 312.094L308.43 280.336H333.508L305.324 332.543V366H282.004V333.246L253.82 280.336H279.016L293.664 312.094Z" fill="white"/>
</svg>
