<svg width="512" height="512" viewBox="0 0 512 512" fill="none" xmlns="http://www.w3.org/2000/svg">
<path d="M131.14 0H302.451L447.465 151.295V445.395C447.465 482.183 417.648 512 380.86 512H131.14C94.3519 512 64.5352 482.183 64.5352 445.395V66.6053C64.5352 29.8174 94.3519 0 131.14 0V0Z" fill="#FFAFF2"/>
<path opacity="0.302" fill-rule="evenodd" clip-rule="evenodd" d="M302.244 0V150.052H447.465L302.244 0Z" fill="white"/>
<path d="M308.887 263.114C294.626 248.853 275.667 241 255.501 241C235.334 241 216.374 248.853 202.114 263.114C187.853 277.373 180 296.333 180 316.499C180 336.666 187.853 355.626 202.114 369.886C216.374 384.147 235.334 392 255.501 392C275.667 392 294.626 384.147 308.886 369.886C323.147 355.626 331 336.666 331 316.499C331 296.333 323.147 277.374 308.887 263.114ZM305.509 366.509C292.151 379.867 274.392 387.223 255.501 387.223C236.61 387.223 218.849 379.867 205.491 366.509C192.133 353.15 184.776 335.39 184.776 316.499C184.776 297.609 192.133 279.849 205.491 266.491C218.849 253.133 236.61 245.777 255.501 245.777C274.391 245.777 292.151 253.133 305.509 266.491C318.867 279.849 326.223 297.609 326.223 316.499C326.224 335.389 318.867 353.15 305.509 366.509Z" fill="white"/>
<path d="M255.501 253.715C220.882 253.715 192.718 281.879 192.718 316.499C192.718 351.118 220.882 379.282 255.501 379.282C290.12 379.282 318.285 351.118 318.285 316.499C318.285 281.879 290.12 253.715 255.501 253.715ZM255.501 374.506C223.516 374.506 197.494 348.484 197.494 316.499C197.494 284.513 223.516 258.491 255.501 258.491C287.487 258.491 313.509 284.513 313.509 316.498C313.509 348.484 287.487 374.506 255.501 374.506Z" fill="white"/>
<path d="M246.977 306.385L229.932 340.479L264.023 323.434L281.072 289.34L246.977 306.385ZM240.612 329.799L249.412 312.197L258.212 320.999L240.612 329.799ZM261.589 317.622L252.789 308.82L270.391 300.02L261.589 317.622Z" fill="white"/>
</svg>
