<?xml version="1.0" encoding="iso-8859-1"?>
<!-- Generator: Adobe Illustrator 19.0.0, SVG Export Plug-In . SVG Version: 6.00 Build 0)  -->
<svg version="1.1" id="Capa_1" xmlns="http://www.w3.org/2000/svg" xmlns:xlink="http://www.w3.org/1999/xlink" x="0px" y="0px"
	 viewBox="0 0 496 496" style="enable-background:new 0 0 496 496;" xml:space="preserve">
<path style="fill:#F5F8FC;" d="M496,369.6c0,27.2-21.6,48.8-48,48.8H48c-26.4,0-48-21.6-48-48.8V126.4c0-27.2,21.6-48.8,48-48.8h400
	c26.4,0,48,21.6,48,48.8V369.6z"/>
<path style="fill:#E2ECF7;" d="M48,77.6h400c26.4,0,48,21.6,48,48.8v243.2c0,27.2-21.6,48.8-48,48.8"/>
<g>
	<path style="fill:#D4E5F4;" d="M48,77.6h400c26.4,0,48,21.6,48,48.8v88.8"/>
	<path style="fill:#D4E5F4;" d="M496,369.6c0,27.2-21.6,48.8-48,48.8H48c-26.4,0-48-21.6-48-48.8"/>
</g>
<g>
	<g>
		<path style="fill:#2A505B;" d="M316,164.8c16,4,11.2,16,20,16c11.2,0,20.8-13.6,20.8-20.8c0-12.8-12.8-24.8-24.8-24.8
			c-8,0-21.6,9.6-21.6,23.2C310.4,160.8,312,163.2,316,164.8z"/>
		<path style="fill:#2A505B;" d="M248,203.2c-11.2,0-21.6,12.8-21.6,24c0,10.4,4.8,17.6,12.8,17.6c8.8,0,22.4-22.4,22.4-23.2
			C261.6,209.6,254.4,203.2,248,203.2z"/>
		<path style="fill:#2A505B;" d="M308,254.4c8,0,14.4-8,14.4-18.4c0-13.6-9.6-24.8-18.4-24.8c-6.4,0-12.8,5.6-16,16v0.8
			c4.8,6.4,4.8,7.2,8,15.2C299.2,250.4,302.4,254.4,308,254.4z"/>
	</g>
	<g>
		<path style="fill:#426B7C;" d="M254.4,262.4c0,2.4,1.6,3.2,7.2,5.6c6.4,2.4,4,6.4,7.2,6.4c2.4,0,1.6-4,8.8-4.8c6.4-0.8,8-1.6,8-4
			c0-3.2-4-8-24-8C256.8,257.6,254.4,259.2,254.4,262.4z"/>
		<path style="fill:#426B7C;" d="M349.6,210.4c0,41.6-20,60.8-50.4,60.8c-12,0-5.6,11.2-17.6,11.2c-4.8,0-8-5.6-13.6-5.6
			c-3.2,0-6.4,1.6-10.4,1.6c-12,0-9.6-13.6-13.6-15.2c-16.8-7.2-17.6-7.2-20.8-8.8c-12.8-8.8-18.4-20.8-18.4-38.4
			c0-17.6,7.2-40.8,18.4-51.2c3.2,2.4,5.6,3.2,7.2,3.2c4,0,5.6-6.4,16-9.6c12-4,12-4,12-10.4c0-16.8-9.6-25.6-20-25.6
			c-13.6,0-27.2,11.2-27.2,22.4c0,5.6,3.2,11.2,7.2,16c-24,14.4-37.6,36.8-37.6,64.8c0,9.6,1.6,12.8,1.6,19.2c0,8-3.2,12.8-3.2,20
			c0,4,1.6,11.2,4,16c-22.4-16.8-35.2-38.4-35.2-64c0-24.8,12-44.8,32.8-59.2l1.6-0.8c-28.8,12-48,41.6-48,78.4
			c0,19.2,5.6,31.2,5.6,36.8c0,2.4-0.8,7.2-0.8,14.4c0,12,9.6,33.6,17.6,44c6.4,8,16,12.8,28,12.8c8.8,0,15.2-3.2,15.2-8
			c0-3.2-4.8-11.2-4.8-29.6l16,30.4c15.2,28.8,26.4,37.6,52,37.6c10.4,0,17.6-3.2,17.6-8.8c0-4-8.8-15.2-8.8-44.8
			c0-13.6,3.2-20.8,10.4-20.8c5.6,0,8,4.8,8,15.2c0,16-4,32.8-4,37.6c0,6.4,4.8,10.4,13.6,10.4c16,0,30.4-9.6,38.4-24
			c11.2-21.6,20-63.2,20-84C357.6,236.8,353.6,219.2,349.6,210.4z M269.6,291.2c-7.2,0-13.6-4-14.4-9.6c9.6,2.4,17.6,3.2,26.4,3.2
			C279.2,288.8,275.2,291.2,269.6,291.2z"/>
	</g>
	<g>
		<path style="fill:#2A505B;" d="M298.4,271.2c-8.8,0-8,6.4-12,9.6l55.2,47.2c9.6-22.4,15.2-56.8,15.2-75.2c0-16.8-4-34.4-8.8-42.4
			C349.6,252,329.6,271.2,298.4,271.2z"/>
		<path style="fill:#2A505B;" d="M186.4,196l17.6,15.2c1.6-16.8,8-36.8,17.6-45.6c3.2,2.4,5.6,3.2,7.2,3.2c4,0,5.6-6.4,16-9.6
			c12-4,12-4,12-10.4c0-16.8-9.6-25.6-20-25.6c-13.6,0-27.2,11.2-27.2,22.4c0,5.6,3.2,11.2,7.2,16C204,169.6,192.8,181.6,186.4,196z
			"/>
		<path style="fill:#2A505B;" d="M161.6,174.4c4.8-6.4,11.2-12.8,18.4-17.6l1.6-0.8c-8.8,4-16.8,8.8-24,16L161.6,174.4z"/>
	</g>
	<g>
		<path style="fill:#426B7C;" d="M353.6,349.6c-4,0-8,3.2-8,7.2s3.2,8,8,8c4,0,8-3.2,8-8C361.6,353.6,358.4,349.6,353.6,349.6z
			 M353.6,363.2c-3.2,0-6.4-2.4-6.4-6.4c0-3.2,3.2-6.4,6.4-6.4c3.2,0,6.4,2.4,6.4,6.4C360,360.8,357.6,363.2,353.6,363.2z"/>
		<path style="fill:#426B7C;" d="M357.6,355.2c0-0.8,0-1.6-0.8-1.6s-1.6-0.8-2.4-0.8h-4v8.8h1.6v-4h1.6l2.4,4h1.6l-2.4-4
			C356.8,357.6,357.6,356.8,357.6,355.2z M353.6,356.8H352v-2.4h2.4c0.8,0,2.4,0,2.4,1.6C356.8,356.8,355.2,356.8,353.6,356.8z"/>
	</g>
</g>
<g>
</g>
<g>
</g>
<g>
</g>
<g>
</g>
<g>
</g>
<g>
</g>
<g>
</g>
<g>
</g>
<g>
</g>
<g>
</g>
<g>
</g>
<g>
</g>
<g>
</g>
<g>
</g>
<g>
</g>
</svg>
