<?xml version="1.0" encoding="iso-8859-1"?>
<!-- Generator: Adobe Illustrator 19.0.0, SVG Export Plug-In . SVG Version: 6.00 Build 0)  -->
<svg version="1.1" id="Capa_1" xmlns="http://www.w3.org/2000/svg" xmlns:xlink="http://www.w3.org/1999/xlink" x="0px" y="0px"
	 viewBox="0 0 496 496" style="enable-background:new 0 0 496 496;" xml:space="preserve">
<path style="fill:#CE1126;" d="M496,369.6c0,27.2-21.6,48.8-48,48.8H48c-26.4,0-48-21.6-48-48.8V126.4c0-27.2,21.6-48.8,48-48.8h400
	c26.4,0,48,21.6,48,48.8V369.6z"/>
<path style="fill:#B70B25;" d="M48,77.6h400c26.4,0,48,21.6,48,48.8v243.2c0,27.2-21.6,48.8-48,48.8"/>
<path style="fill:#A00422;" d="M48,77.6h400c26.4,0,48,21.6,48,48.8v88.8"/>
<g>
	<path style="fill:#FCD116;" d="M320,220c-4-4-10.4-5.6-16.8-6.4l13.6-5.6l-14.4-0.8c4-4.8,8-11.2,13.6-12c-4.8-3.2-12-1.6-18.4,0
		l10.4-9.6l-13.6,4c2.4-5.6,4-13.6,8.8-16c-5.6-0.8-12,2.4-17.6,6.4l6.4-12.8l-11.2,8.8c0-6.4-0.8-14.4,3.2-18.4
		c-5.6,0.8-10.4,6.4-14.4,12l1.6-14.4l-7.2,12c-1.6-6.4-5.6-12.8-4-17.6c-4.8,3.2-7.2,9.6-9.6,16l-2.4-14.4l-3.2,13.6
		c-4-4.8-9.6-10.4-9.6-16c-3.2,4.8-3.2,12-3.2,18.4l-8-12l1.6,14.4c-5.6-3.2-12.8-6.4-14.4-11.2c-1.6,5.6,0.8,12,3.2,18.4l-11.2-8.8
		l6.4,12.8c-6.4-1.6-14.4-1.6-17.6-5.6c0,5.6,4.8,11.2,8.8,16l-13.6-4l10.4,9.6c-6.4,0.8-13.6,3.2-18.4,0c1.6,5.6,8,8.8,13.6,12
		L180,208l13.6,5.6c-5.6,3.2-12,8-16.8,6.4c4,4,10.4,5.6,16.8,6.4L180,232h31.2c4.8,15.2,19.2,26.4,36.8,26.4
		c16.8,0,31.2-11.2,36.8-26.4H316l-13.6-5.6C308,223.2,314.4,218.4,320,220z"/>
	<path style="fill:#FCD116;" d="M256,119.2c1.6-2.4,3.2-4,4.8-5.6l8.8-2.4c17.6-2.4,37.6-9.6,48-15.2c-14.4,1.6-28,4-42.4,4
		c-20.8,0-25.6,8-32.8,15.2c-3.2-6.4-8.8-9.6-16.8-10.4c-9.6-1.6-32.8-2.4-47.2-7.2c6.4,6.4,20,9.6,29.6,11.2c0.8,0,1.6,0,1.6,0
		l24.8,8.8c0,0,0.8,0,0.8,0.8h3.2l0,0l0,0h-7.2c-7.2-4.8-12-4-15.2-0.8h-10.4c-1.6,0.8,0.8,4,3.2,4h10.4
		c4.8,6.4,14.4,10.4,23.2,10.4c6.4,0,12.8-2.4,20-5.6h18.4c0-0.8-1.6-2.4-3.2-3.2c-3.2-0.8-5.6,0-8.8,0c4.8-1.6,10.4-4,16-4.8
		L256,119.2z"/>
</g>
<path style="fill:#C10000;" d="M496,369.6c0,27.2-21.6,48.8-48,48.8H48c-26.4,0-48-21.6-48-48.8"/>
<path style="fill:#003F87;" d="M496,369.6V228.8H0v140.8c0,27.2,21.6,48.8,48,48.8h400C474.4,418.4,496,396.8,496,369.6z"/>
<path style="fill:#032E51;" d="M448,418.4c26.4,0,48-21.6,48-48.8V228.8H225.6L448,418.4z"/>
<path style="fill:#FFFFFF;" d="M496,328.8c-26.4,1.6-52.8,17.6-79.2,17.6c-28,0-56-18.4-84-18.4s-56,18.4-84,18.4S192,328,164,328
	s-56,18.4-84,18.4c-26.4,0-52.8-16-79.2-17.6v30.4c26.4,1.6,52.8,17.6,79.2,17.6c28,0,56-18.4,84-18.4s56,18.4,84,18.4
	s56-18.4,84-18.4s56,18.4,84,18.4c26.4,0,52.8-16,79.2-17.6v-30.4H496z"/>
<path style="fill:#CFDBE5;" d="M343.2,328.8l52,44.8c7.2,1.6,14.4,3.2,20.8,3.2c26.4,0,52.8-16,79.2-17.6v-30.4
	c-26.4,1.6-52.8,17.6-79.2,17.6C392,346.4,368,332.8,343.2,328.8z"/>
<path style="fill:#FFFFFF;" d="M496,208c-26.4,1.6-52.8,17.6-79.2,17.6c-28,0-56-18.4-84-18.4s-56,18.4-84,18.4S192,208,164,208
	s-56,18.4-84,18.4c-26.4,0-52.8-16-79.2-17.6v30.4c25.6,0.8,52,16.8,78.4,16.8c28,0,56-18.4,84-18.4s56,18.4,84,18.4
	s56-18.4,84-18.4s56,18.4,84,18.4c26.4,0,52.8-16,79.2-17.6V208H496z"/>
<path style="fill:#CFDBE5;" d="M332,208c-28,0-56,18.4-84,18.4c-11.2,0-22.4-3.2-33.6-6.4l41.6,36c25.6-3.2,50.4-17.6,76-17.6
	c28,0,56,18.4,84,18.4c26.4,0,52.8-16,79.2-17.6V208c-26.4,1.6-52.8,17.6-79.2,17.6C388.8,225.6,360,208,332,208z"/>
<path style="fill:#FFFFFF;" d="M496,268c-26.4,1.6-52.8,17.6-79.2,17.6c-28,0-56-18.4-84-18.4s-56,18.4-84,18.4s-56-18.4-84-18.4
	s-56,18.4-84,18.4c-26.4,0-52.8-16-79.2-17.6v30.4C28,300,54.4,316,80.8,316c28,0,56-18.4,84-18.4s56,18.4,84,18.4s56-18.4,84-18.4
	s56,18.4,84,18.4c26.4,0,52.8-16,79.2-17.6V268z"/>
<path style="fill:#CFDBE5;" d="M332,268c-16,0-32,5.6-48,11.2l26.4,22.4c7.2-1.6,14.4-3.2,21.6-3.2c28,0,56,18.4,84,18.4
	c26.4,0,52.8-16,79.2-17.6v-30.4c-26.4,1.6-52.8,17.6-79.2,17.6C388.8,286.4,360,268,332,268z"/>
<g>
</g>
<g>
</g>
<g>
</g>
<g>
</g>
<g>
</g>
<g>
</g>
<g>
</g>
<g>
</g>
<g>
</g>
<g>
</g>
<g>
</g>
<g>
</g>
<g>
</g>
<g>
</g>
<g>
</g>
</svg>
