<?xml version="1.0" encoding="iso-8859-1"?>
<!-- Generator: Adobe Illustrator 19.0.0, SVG Export Plug-In . SVG Version: 6.00 Build 0)  -->
<svg version="1.1" id="Capa_1" xmlns="http://www.w3.org/2000/svg" xmlns:xlink="http://www.w3.org/1999/xlink" x="0px" y="0px"
	 viewBox="0 0 496 496" style="enable-background:new 0 0 496 496;" xml:space="preserve">
<path style="fill:#DC241F;" d="M496,369.6c0,27.2-21.6,46.4-48,46.4H48c-26.4,0-48-19.2-48-46.4V126.4C0,99.2,21.6,80,48,80h400
	c26.4,0,48,19.2,48,46.4V369.6z"/>
<path style="fill:#CC1111;" d="M48,80h400c26.4,0,48,19.2,48,46.4v243.2c0,27.2-25.6,46.4-52,46.4"/>
<g>
	<path style="fill:#B70000;" d="M496,368.8c0,29.6-21.6,47.2-48,47.2H48c-26.4,0-48-20.8-48-48"/>
	<path style="fill:#B70000;" d="M48,80h400c26.4,0,48,19.2,48,46.4V216"/>
</g>
<path style="fill:#FCD943;" d="M0,126.4v243.2C0,396.8,21.6,416,48,416h13.6l295.2-168L61.6,80H48C21.6,80,0,99.2,0,126.4z"/>
<g>
	<path style="fill:#F9B443;" d="M0,368c0,32,21.6,48,48,48h13.6l84-48H0z"/>
	<polygon style="fill:#F9B443;" points="356.8,248 61.6,80 48,80 290.4,285.6 	"/>
</g>
<path style="fill:#333232;" d="M22.4,86.4C8,95.2,0,109.6,0,126.4v243.2c0,16.8,59.2-6.4,72,2.4l164.8-124L22.4,86.4z"/>
<path d="M20.8,409.6L20.8,409.6l56-41.6H0c0,0,0,4.8,0,6.4C0.8,375.2,1.6,398.4,20.8,409.6z"/>
<polygon style="fill:#FFFFFF;" points="92.8,265.6 136,272.8 105.6,241.6 125.6,203.2 86.4,222.4 55.2,191.2 62.4,234.4 22.4,254.4 
	66.4,261.6 72.8,304.8 "/>
<g>
</g>
<g>
</g>
<g>
</g>
<g>
</g>
<g>
</g>
<g>
</g>
<g>
</g>
<g>
</g>
<g>
</g>
<g>
</g>
<g>
</g>
<g>
</g>
<g>
</g>
<g>
</g>
<g>
</g>
</svg>
