<?xml version="1.0" encoding="iso-8859-1"?>
<!-- Generator: Adobe Illustrator 19.0.0, SVG Export Plug-In . SVG Version: 6.00 Build 0)  -->
<svg version="1.1" id="Capa_1" xmlns="http://www.w3.org/2000/svg" xmlns:xlink="http://www.w3.org/1999/xlink" x="0px" y="0px"
	 viewBox="0 0 496 496" style="enable-background:new 0 0 496 496;" xml:space="preserve">
<path style="fill:#009543;" d="M0,248v121.6c0,27.2,21.6,48.8,48,48.8h400c26.4,0,48-21.6,48-48.8V248H0z"/>
<path style="fill:#007A34;" d="M248,248l200,170.4c26.4,0,48-21.6,48-48.8V248H248z"/>
<path style="fill:#D21034;" d="M448,77.6H48c-26.4,0-48,21.6-48,48.8V248h496V126.4C496,99.2,474.4,77.6,448,77.6z"/>
<path style="fill:#C10830;" d="M448,77.6H48L248,248h248V126.4C496,99.2,474.4,77.6,448,77.6z"/>
<path style="fill:#035E28;" d="M496,369.6c0,27.2-21.6,48.8-48,48.8H48c-26.4,0-48-21.6-48-48.8"/>
<path style="fill:#A5042E;" d="M48,77.6h400c26.4,0,48,21.6,48,48.8v88.8"/>
<path d="M236.8,220.8L6.4,101.6c-4,7.2-6.4,15.2-6.4,24V248l0,0v121.6c0,8.8,2.4,16.8,6.4,24l230.4-118.4H496V248l0,0v-27.2H236.8z"
	/>
<path style="fill:#FDCE12;" d="M232,240L0,120.8c0,1.6,0,4,0,5.6v12L212.8,248L0,357.6v12c0,1.6,0,4,0,5.6L232,256h264v-8l0,0v-8
	H232z"/>
<polygon style="fill:#D1800B;" points="248,248 257.6,256 496,256 496,248 496,248 496,240 238.4,240 "/>
<g>
	<path style="fill:#FDCE12;" d="M64.8,196.8c-10.4,0-42.4,7.2-42.4,40.8s31.2,36.8,37.6,36.8s29.6-5.6,27.2-30.4
		c0,7.2-8,22.4-24.8,22.4s-27.2-12.8-27.2-24.8c0-12,10.4-28.8,28-28.8s31.2,16,31.2,32s-12.8,36-32.8,36c0,0,0,12,0,19.2
		c16.8,0,48.8-12.8,48.8-53.6S75.2,196.8,64.8,196.8z"/>
	<path style="fill:#FDCE12;" d="M71.2,250.4c0,1.6,6.4,3.2,6.4,3.2c0.8,1.6,1.6,2.4,1.6,2.4l0.8-0.8c-0.8-0.8-1.6-2.4-2.4-3.2
		c0-0.8,2.4-4.8,0-7.2s-1.6,4.8-0.8,5.6c0-0.8-0.8-0.8-0.8-1.6c0-0.8,1.6-6.4,0-7.2c-1.6-1.6-0.8,5.6-0.8,5.6l-0.8-0.8
		c0,0,0,0,0-0.8c0,0,0.8-5.6-0.8-7.2c-1.6-0.8-0.8,5.6-0.8,5.6l0,0c0-0.8-0.8-0.8-0.8-1.6s0.8-5.6-0.8-7.2c-1.6-1.6,0,4.8,0,5.6
		c-0.8-0.8-0.8-0.8-1.6-1.6c0-0.8,0.8-4.8-0.8-6.4H68h-0.8c0,0,0,0,0-0.8c1.6,0,4-0.8,4-1.6c0.8-1.6-4.8,0-4.8,0l1.6-0.8
		c0,0,4.8,0,5.6-0.8c0.8-1.6-4,0-4.8,0l0,0l0.8-0.8c0,0,5.6,0,5.6-0.8c0.8-1.6-4,0-4.8,0c0,0,0,0,0.8,0l0.8-0.8c0,0,8-0.8,7.2-2.4
		c-0.8-1.6-5.6,1.6-5.6,1.6l1.6-0.8c0,0,4-2.4,3.2-3.2s-3.2,3.2-3.2,3.2l0,0c0,0-0.8,0.8-1.6,0.8c0.8-0.8,3.2-4,1.6-3.2
		c-1.6,0-3.2,4-3.2,4.8l-0.8,0.8c0.8-0.8,3.2-4.8,1.6-4s-3.2,4.8-3.2,5.6l-0.8,0.8c0.8-0.8,2.4-4.8,0.8-4s-2.4,4.8-2.4,5.6l-0.8,0.8
		c0-0.8,2.4-5.6,0.8-4.8s-2.4,5.6-2.4,6.4c0,0,0,0-0.8,0.8v-0.8c0.8-1.6,0.8-3.2,0-2.4c0,0-0.8,0-0.8,0.8c0,0,0,0-0.8-0.8
		s-0.8,0.8,0,2.4v0.8c0,0,0,0-0.8-0.8c0-0.8-0.8-5.6-2.4-6.4c-1.6-0.8,0,4,0.8,4.8c-0.8,0-0.8-0.8-0.8-0.8c0-0.8-0.8-4.8-2.4-5.6
		s0.8,3.2,0.8,4l-0.8-0.8c0-0.8-1.6-4.8-3.2-5.6c-1.6-0.8,0.8,3.2,1.6,4l-0.8-0.8c0-0.8-1.6-4-3.2-4.8c-1.6,0,0.8,3.2,1.6,3.2
		c-0.8,0-0.8-0.8-1.6-0.8l0,0c0,0-2.4-4.8-3.2-3.2s3.2,3.2,3.2,3.2l1.6,0.8c0,0-5.6-2.4-5.6-1.6c-0.8,1.6,7.2,2.4,7.2,2.4l0.8,0.8
		c0,0,0,0,0.8,0c0,0-5.6-1.6-4.8,0c0,2.4,4.8,2.4,4.8,2.4l0.8,0.8l0,0c0,0-5.6-1.6-4.8,0s5.6,0.8,5.6,0.8l1.6,0.8c0,0-4.8-1.6-4.8,0
		c0.8,0.8,2.4,1.6,4,1.6c0,0,0,0,0,0.8h-0.8c0,0,0-0.8-0.8,0c-1.6,0.8-0.8,5.6-0.8,6.4c0.8,0.8,0,0.8,0,1.6c0,0,1.6-6.4,0-5.6
		c-1.6,1.6-0.8,6.4-0.8,7.2s-0.8,0.8-0.8,1.6l0,0c0,0,0.8-6.4-0.8-5.6c-1.6,0.8-0.8,7.2-0.8,7.2s0,0,0,0.8l-1.6,0
		c0,0,0.8-7.2-0.8-5.6c-1.6,0.8,0,6.4,0,7.2c0,0.8-0.8,0.8-0.8,1.6c0-0.8,0.8-8-0.8-5.6c-2.4,2.4,0,6.4,0,7.2
		c-0.8,0.8-1.6,2.4-1.6,3.2l0,0c0,0,0-0.8,1.6-2.4c0.8,0,6.4-1.6,6.4-3.2s-5.6,1.6-5.6,1.6l0.8-0.8c0,0,5.6-1.6,6.4-3.2
		s-4.8,1.6-5.6,1.6c0,0,0,0,0-0.8L52,248c0,0,5.6-1.6,6.4-3.2c0.8-1.6-4,0.8-4.8,1.6l0.8-0.8l0,0c0,0,5.6-1.6,6.4-3.2
		c0.8-3.2-4.8,0.8-4.8,0.8l1.6-2.4c0,0,3.2,0,5.6-1.6c1.6,1.6,5.6,1.6,5.6,1.6l1.6,2.4c0,0-5.6-3.2-4.8-1.6c0.8,1.6,6.4,3.2,6.4,3.2
		l0,0l0.8,0.8c-0.8-0.8-4.8-2.4-4.8-1.6c0.8,1.6,6.4,3.2,6.4,3.2l0.8,0.8c0,0,0,0,0,0.8c-0.8,0-6.4-3.2-5.6-1.6
		c0.8,1.6,6.4,3.2,6.4,3.2l0.8,0.8C76.8,252,71.2,248.8,71.2,250.4z M60.8,236.8L60.8,236.8L60.8,236.8L60.8,236.8z M63.2,235.2
		L63.2,235.2L63.2,235.2L63.2,235.2L63.2,235.2z M65.6,236.8L65.6,236.8L65.6,236.8L65.6,236.8z M67.2,235.2c0,1.6,0.8,3.2,0.8,4
		c0-0.8-0.8-0.8-0.8-1.6C67.2,237.6,67.2,236.8,67.2,235.2C67.2,236,67.2,235.2,67.2,235.2z M64.8,235.2L64.8,235.2
		c-0.8,0-0.8,0-0.8-0.8C64.8,234.4,64.8,234.4,64.8,235.2C64.8,234.4,64.8,234.4,64.8,235.2z M61.6,234.4
		C61.6,234.4,62.4,234.4,61.6,234.4c0.8,0,0.8,0.8,0.8,0.8C61.6,235.2,61.6,235.2,61.6,234.4L61.6,234.4z M59.2,235.2
		C59.2,235.2,59.2,236,59.2,235.2c0.8,1.6,0.8,2.4,0.8,2.4s-0.8,0.8-0.8,1.6C58.4,239.2,59.2,236.8,59.2,235.2z M64,237.6
		c0,0,0,0-0.8,0s-0.8,0-0.8,0c-0.8,0-2.4,0.8-2.4,0.8s0-0.8,0.8-0.8l0.8-0.8c0,0,0.8,0,2.4,0s2.4,0,2.4,0l0.8,0.8c0,0,0,0.8,0.8,0.8
		C66.4,238.4,65.6,238.4,64,237.6z"/>
</g>
<g>
</g>
<g>
</g>
<g>
</g>
<g>
</g>
<g>
</g>
<g>
</g>
<g>
</g>
<g>
</g>
<g>
</g>
<g>
</g>
<g>
</g>
<g>
</g>
<g>
</g>
<g>
</g>
<g>
</g>
</svg>
