<?xml version="1.0" encoding="iso-8859-1"?>
<!-- Generator: Adobe Illustrator 19.0.0, SVG Export Plug-In . SVG Version: 6.00 Build 0)  -->
<svg version="1.1" id="Capa_1" xmlns="http://www.w3.org/2000/svg" xmlns:xlink="http://www.w3.org/1999/xlink" x="0px" y="0px"
	 viewBox="0 0 496 496" style="enable-background:new 0 0 496 496;" xml:space="preserve">
<path style="fill:#8D2029;" d="M496,369.6c0,27.2-21.6,48.8-48,48.8H48c-26.4,0-48-21.6-48-48.8V126.4c0-27.2,21.6-48.8,48-48.8h400
	c26.4,0,48,21.6,48,48.8V369.6z"/>
<path style="fill:#72111D;" d="M48,77.6h400c26.4,0,48,21.6,48,48.8v243.2c0,27.2-21.6,48.8-48,48.8L48,77.6z"/>
<g>
	<path style="fill:#600521;" d="M48,77.6h400c26.4,0,48,21.6,48,48.8v88.8L48,77.6z"/>
	<path style="fill:#600521;" d="M496,369.6c0,27.2-21.6,48.8-48,48.8H48c-26.4,0-48-21.6-48-48.8"/>
</g>
<path style="fill:#FFB700;" d="M68,351.2c0,0-4,8.8-8.8,12C52,368,38.4,368,32,373.6c-7.2,7.2,0.8,16.8,0.8,17.6L32,396
	c0,0,4.8,0,7.2,0c3.2,0.8,4,3.2,9.6,2.4c14.4-0.8,13.6-13.6,14.4-24.8c0.8-4,2.4-8.8,3.2-13.6C67.2,356.8,68,351.2,68,351.2z"/>
<path style="fill:#EA8D13;" d="M39.2,369.6c-3.2,0.8-5.6,2.4-7.2,4c-7.2,7.2,0.8,16.8,0.8,17.6L32,396c0,0,4.8,0,7.2,0
	c3.2,0.8,4,3.2,9.6,2.4c14.4-0.8,13.6-13.6,14.4-24.8c0-1.6,0.8-3.2,0.8-4H39.2z"/>
<path style="fill:#FFB700;" d="M429.4,360c0.8,4.8,2.4,9.6,3.2,13.6c0.8,11.2,0,24,14.4,24.8c5.6,0.8,6.4-1.6,9.6-2.4
	c2.4,0,7.2,0,7.2,0l-0.8-4.8c0-0.8,8-10.4,0.8-17.6c-6.4-5.6-20-5.6-27.2-10.4c-4.8-3.2-8.8-12-8.8-12S428.6,356.8,429.4,360z"/>
<path style="fill:#EA8D13;" d="M431.8,369.6c0,0.8,0.8,2.4,0.8,4c0.8,11.2,0,24,14.4,24.8c5.6,0.8,6.4-1.6,9.6-2.4
	c2.4,0,7.2,0,7.2,0l-0.8-4.8c0-0.8,8-10.4,0.8-17.6c-1.6-1.6-4-3.2-7.2-4H431.8z"/>
<path style="fill:#FFB700;" d="M348.8,186.4c5.6,5.6,9.6,7.2,15.2,7.2c7.2,0,11.2-6.4,8-12c-1.6-3.2-5.6-4-8-0.8
	c-0.8,1.6-1.6,2.4-0.8,4c0,1.6,0,1.6-1.6,1.6c-2.4,0-5.6-2.4-12.8-8.8c-10.4-8.8-24-16.8-32.8-19.2c-6.4-1.6-19.2-2.4-24.8-1.6
	c-6.4,1.6-14.4,4.8-18.4,8.8c-7.2,7.2-8,16.8,0,25.6l2.4,2.4l-3.2,3.2c-2.4,3.2-1.6,7.2,0.8,10.4c0.8,1.6,2.4,2.4,2.4,2.4
	s0.8-0.8,0.8-2.4c0-3.2,1.6-4.8,3.2-5.6c1.6-0.8,3.2,0,11.2,3.2c8.8,3.2,24,4,39.2,0.8c8-1.6,16.8-1.6,20.8,0
	c7.2,3.2,8.8,11.2,4,16.8c-2.4,2.4-4.8,4-12,5.6c-5.6,1.6-7.2,1.6-20,1.6c-11.2,0-15.2,0-20,0.8c-4.8,0.8-8,0.8-22.4,0.8l-16.8,0.8
	l0,0c0,0,0,0-0.8,0h-0.8l-0.8-0.8c-0.8-0.8-1.6-1.6-3.2-1.6h-0.8v-0.8c0.8,0,0.8,0,1.6,0h2.4l-1.6-2.4c-0.8-1.6-1.6-3.2-1.6-5.6
	c0-0.8,0-1.6-0.8-2.4c0-0.8,0-1.6,0-2.4c1.6,0.8,3.2,2.4,4.8,3.2c0.8,0.8,0.8-1.6-0.8-4.8c-0.8-0.8-0.8-3.2-0.8-4l0,0
	c0-0.8,0-1.6,0-2.4c0.8,0.8,1.6,0.8,1.6,0.8s0.8-4.8,0.8-11.2c0-11.2,0-14.4-3.2-17.6l-1.6-1.6l2.4-2.4c3.2-3.2,4-5.6,4.8-8.8
	l0.8-2.4l-2.4,2.4c-2.4,1.6-3.2,2.4-5.6,2.4s-3.2,0-4.8-2.4c-1.6-2.4-5.6-4-8.8-4.8c-1.6,0-1.6,0-1.6,0.8c0,0.8-0.8,2.4-1.6,4
	l-0.8,1.6l-3.2-3.2c-1.6-1.6-4-3.2-5.6-4c-4-0.8-4.8-0.8-4.8,2.4c0,4.8-2.4,5.6-5.6,2.4c-3.2-2.4-4.8-3.2-10.4-2.4l-4,0.8l0.8,1.6
	c0.8,1.6,0.8,2.4-0.8,4c-2.4,3.2-4.8,4-9.6,4c-1.6,0-4.8,0.8-5.6,0.8c-0.8,0.8-4,0.8-5.6,1.6c-2.4,0-4.8,0.8-4.8,0.8
	c-0.8,0-0.8,0-0.8-2.4c0.8-3.2-1.6-6.4-5.6-6.4c-4.8,0-7.2,4.8-5.6,10.4c0,0.8,0.8,3.2,0.8,4c0,0.8,2.4,4,5.6,6.4
	c2.4,2.4,4.8,5.6,5.6,6.4s1.6,1.6,3.2,2.4l2.4,1.6v-2.4c0-2.4,0-3.2,1.6-1.6c0.8,0.8,1.6,1.6,3.2,2.4c1.6,0.8,1.6,0.8,1.6,0
	c0-0.8,0-1.6,0.8-3.2l0.8-1.6l1.6,2.4c0.8,1.6,3.2,4.8,5.6,7.2c4,4.8,7.2,10.4,5.6,12c-0.8,0.8-1.6,0.8-4.8,0
	c-2.4-0.8-5.6-0.8-6.4-0.8c-2.4,0-2.4,0-0.8-1.6c1.6-1.6,1.6-2.4-1.6-2.4c-4,0-12.8-1.6-16-3.2c-3.2-1.6-4-0.8-4.8,2.4
	c-4,2.4-4.8,4.8-4.8,6.4l-0.8,3.2h4c1.6,0,4.8-0.8,5.6-0.8s2.4-0.8,2.4,0c0,0,0,1.6-0.8,2.4l-2.4,2.4l2.4-0.8c1.6,0,3.2-0.8,4-1.6
	c1.6-0.8,1.6-0.8,3.2,1.6c1.6,3.2,3.2,2.4,3.2,0c0-3.2,1.6-2.4,3.2,1.6c1.6,4,4,5.6,4,3.2c0-0.8,0.8-2.4,2.4-3.2
	c2.4-1.6,4-0.8,4.8,1.6s-1.6,4.8-8,8.8c-12.8,8-20,18.4-22.4,32c-0.8,4,0,8.8,0.8,12.8c0,0.8,0,1.6-0.8,2.4
	c-1.6-2.4-4.8-5.6-11.2-12l-11.2-11.2l0,0l-0.8-0.8l0,0c7.2-3.2,7.2-10.4,0.8-12.8c-2.4-0.8-4.8,0-5.6,1.6l0,0c0,0,0,0-0.8,0
	c0,0,0-0.8,0.8-0.8c1.6-1.6,1.6-4,1.6-25.6c0.8-38.4,3.2-67.2,7.2-73.6c1.6-2.4,1.6-2.4-2.4,0c-4.8,3.2-8.8,8-12,14.4
	c-6.4,12-8.8,28-8.8,62.4c0,19.2,0,21.6,1.6,24c0,0,0,0.8,0.8,0.8H132c-0.8-1.6-2.4-2.4-5.6-1.6c-6.4,1.6-6.4,9.6,0,12.8
	c0.8,0.8,2.4,0.8,4,1.6c-1.6,1.6-2.4,5.6-2.4,9.6c0,3.2,0.8,6.4,1.6,8c0.8,5.6,2.4,8.8,4,8.8c0,1.6-1.6,1.6-3.2,0
	c-1.6-0.8-4,0-4,1.6s1.6,2.4,4.8,2.4c2.4,0,2.4,1.6,0,4.8l-1.6,1.6l1.6,1.6c2.4,3.2,1.6,8,0,10.4l-1.6,1.6l-0.8-1.6
	c-1.6-2.4-4-1.6-4,0s0,2.4,1.6,4c1.6,0.8,3.2,1.6,4,1.6c2.4,0,2.4,1.6,0,4l-1.6,1.6l3.2,0.8c1.6,0,3.2,0.8,3.2,0.8
	c0,1.6,2.4,5.6,2.4,5.6s1.6-0.8,1.6-1.6c0.8-0.8,0.8-2.4,0.8-3.2c0-1.6,0.8-1.6,3.2-1.6l3.2-0.8l-2.4-1.6c-2.4-2.4-2.4-4-0.8-4
	c2.4,0,6.4-2.4,6.4-4c0-0.8,0-1.6,0-2.4c-1.6-1.6-3.2-1.6-4,0s-1.6,1.6-3.2,0c-2.4-2.4-2.4-8,0-11.2c1.6-1.6,1.6-1.6,0-3.2
	s-3.2-4.8-2.4-5.6c0,0,1.6,0,3.2,0.8c1.6,0.8,2.4,0.8,3.2,0c1.6-1.6,0.8-2.4-0.8-3.2c1.6-0.8,3.2-1.6,4-3.2c1.6,1.6,1.6,1.6,1.6,8
	c0,5.6,0,7.2,1.6,8c0.8,0.8,1.6,0.8,1.6,0s1.6-2.4,4-2.4c0.8,0,3.2,2.4,6.4,5.6s6.4,5.6,7.2,5.6s1.6,0,2.4,0c0,0,1.6,0,3.2-0.8
	c2.4-0.8,7.2-4.8,8.8-7.2c0.8-0.8,0.8-0.8,1.6-1.6c5.6,4,14.4,8.8,13.6,7.2l0,0c0.8,0,0.8,0.8,1.6,0.8c0.8,2.4,1.6,5.6,2.4,8
	c4.8,13.6,4,19.2-2.4,23.2c-2.4,1.6-3.2,1.6-8.8,1.6c-6.4,0-7.2,0-8.8,1.6s-4,6.4-4,8.8c0,1.6,1.6,0.8,4-0.8l2.4-1.6l0.8,1.6
	c1.6,1.6,4.8,1.6,8,0l1.6-1.6l1.6,1.6c2.4,1.6,6.4,1.6,8.8,0c1.6-1.6,1.6-1.6,3.2,0c0.8,0.8,2.4,1.6,4.8,1.6
	c3.2,0.8,3.2,0.8,4.8-2.4c1.6-2.4,1.6-3.2,1.6-5.6c0-1.6-0.8-4-0.8-5.6c0-2.4,0-2.4,4-4c2.4-0.8,4.8-1.6,5.6-2.4
	c1.6-0.8,5.6-5.6,5.6-7.2c0,0-1.6-0.8-4-0.8c-8-0.8-9.6-5.6-4-13.6c1.6-2.4,3.2-4.8,4-7.2c0.8-0.8,1.6-0.8,1.6-1.6l-0.8,0.8l2.4-0.8
	c0.8,0,8-3.2,14.4-6.4c18.4-8.8,24.8-10.4,37.6-9.6l0,0c0,0,0,0,0,0.8h-2.4v4c0,4.8,2.4,8.8,8,16.8c7.2,8.8,7.2,9.6,7.2,21.6v9.6
	l-1.6,1.6c-1.6,1.6-2.4,1.6-8,2.4c-5.6,0-6.4,0.8-8,2.4c-2.4,1.6-2.4,3.2-3.2,5.6c0,1.6,0,1.6,0.8,1.6s2.4-0.8,4-1.6l2.4-1.6
	l1.6,1.6c2.4,2.4,4.8,2.4,7.2,0c0.8-0.8,1.6-1.6,1.6-1.6s0.8,0.8,0.8,1.6c0.8,0.8,1.6,1.6,4,1.6s3.2,0,4-1.6l0.8-1.6l2.4,1.6
	c7.2,4.8,10.4,0,7.2-9.6c-1.6-4.8-0.8-7.2,4-13.6c2.4-2.4,4-5.6,4-6.4c0-1.6-0.8-1.6-3.2-1.6c-2.4,0-3.2,0-4.8-1.6
	c-2.4-2.4-2.4-5.6,0.8-8.8l0.8-0.8c0.8-0.8,1.6-1.6,2.4-1.6c0.8,0.8,1.6,0.8,2.4,1.6c14.4,8.8,15.2,9.6,15.2,20
	c0.8,10.4,0,11.2-8,12.8c-7.2,1.6-11.2,4.8-12,8.8c-0.8,2.4,0.8,2.4,4,0l2.4-1.6l0.8,1.6c1.6,2.4,4.8,2.4,7.2,0l1.6-1.6l2.4,1.6
	c3.2,2.4,7.2,1.6,8.8-1.6c0-0.8,0.8-0.8,2.4,0.8c2.4,1.6,8,3.2,8.8,1.6c0-0.8,0-2.4-0.8-3.2c-3.2-4.8-4.8-8-4.8-10.4
	c0-4,0.8-5.6,5.6-8.8c5.6-4,7.2-8.8,3.2-8.8c-2.4,0-4.8-2.4-6.4-5.6c-3.2-7.2-2.4-16,2.4-29.6c4.8-14.4,5.6-16.8,5.6-25.6
	c0-7.2,0-8.8-1.6-12.8c-0.8-2.4-3.2-6.4-4.8-8l-3.2-4l4-3.2c11.2-9.6,8.8-24-4.8-30.4c-4-1.6-4.8-1.6-12-1.6c-4,0-11.2,0.8-14.4,1.6
	c-4,0.8-10.4,1.6-14.4,1.6c-7.2,0-8,0-11.2-1.6s-3.2-2.4-4-5.6c0-0.8-0.8-1.6-0.8-1.6c-0.8,0-5.6,3.2-6.4,5.6c0,0.8-0.8,0.8-1.6,0
	c-0.8-0.8-1.6-2.4-1.6-4c-0.8-3.2,0-5.6,4-8l3.2-1.6l-1.6-0.8c-4-2.4-10.4-0.8-12,3.2c-0.8,0.8-1.6,1.6-1.6,1.6s-1.6-0.8-2.4-2.4
	c-4.8-4.8-3.2-12,3.2-13.6c3.2-0.8,6.4,0,7.2,2.4c0.8,3.2,4-0.8,3.2-5.6c0-2.4,0-3.2,1.6-3.2c2.4,0,8,3.2,10.4,6.4
	c2.4,3.2,1.6,8,0,12l-1.6,3.2l2.4-0.8c3.2-0.8,6.4-2.4,8-5.6c1.6-2.4,1.6-8,0-10.4s-1.6-3.2,0.8-2.4c4,1.6,5.6,3.2,7.2,6.4
	c1.6,2.4,1.6,3.2,0.8,6.4c-0.8,1.6-1.6,4-2.4,4.8c-1.6,1.6-1.6,1.6,0,1.6s5.6-1.6,7.2-3.2c0.8-0.8,1.6-2.4,2.4-4l0.8-2.4l0.8,1.6
	c1.6,3.2,4.8,5.6,8,7.2c4,1.6,5.6,1.6,3.2,0c-1.6-0.8-4-8.8-3.2-9.6C337.6,176.8,342.4,180.8,348.8,186.4z M206.4,222.4L206.4,222.4
	L206.4,222.4C206.4,223.2,206.4,223.2,206.4,222.4z M260,194.4C260,193.6,260,193.6,260,194.4c0-0.8,0-0.8,0-0.8
	C261.6,195.2,261.6,195.2,260,194.4z M258.4,172L258.4,172L258.4,172z M202.4,232C203.2,232,203.2,232,202.4,232
	C203.2,232.8,202.4,232.8,202.4,232C202.4,232.8,202.4,232,202.4,232z"/>
<path style="fill:#EA8D13;" d="M149.6,164.1l-8.3-7c2.8-4.6,6.1-8.1,9.9-10.7c4-2.4,4-2.4,2.4,0C152,149,150.6,155.2,149.6,164.1z
	 M352,335.2c0,0.5,0.1,1,0.2,1.6l-13-11.1c0-9.7-1.1-10.7-15.2-19.3c-0.8-0.8-1.6-0.8-2.4-1.6c-0.8,0-1.6,0.8-2.4,1.6l-0.8,0.8
	c-0.1,0.1-0.3,0.3-0.4,0.4l-110.4-94.1c-0.3-2.4-2.9-6.6-6-10.4c-2.4-2.4-4.8-5.6-5.6-7.2l-1.6-2.4l-0.8,1.6
	c-0.8,1.6-0.8,2.4-0.8,3.2c0,0.8,0,0.8-1.6,0c-1.6-0.8-2.4-1.6-3.2-2.4c-1-1-1.4-1.1-1.5-0.4l-17.4-14.8c-0.2-0.6-0.3-1.2-0.3-1.6
	c-1.6-5.6,0.8-10.4,5.6-10.4c4,0,6.4,3.2,5.6,6.4c0,2.4,0,2.4,0.8,2.4c0,0,2.4-0.8,4.8-0.8c1.6-0.8,4.8-0.8,5.6-1.6
	c0.8,0,4-0.8,5.6-0.8c4.8,0,7.2-0.8,9.6-4c1.6-1.6,1.6-2.4,0.8-4l-0.8-1.6l4-0.8c5.6-0.8,7.2,0,10.4,2.4c3.2,3.2,5.6,2.4,5.6-2.4
	c0-3.2,0.8-3.2,4.8-2.4c1.6,0.8,4,2.4,5.6,4l3.2,3.2l0.8-1.6c0.8-1.6,1.6-3.2,1.6-4c0-0.8,0-0.8,1.6-0.8c3.2,0.8,7.2,2.4,8.8,4.8
	c1.6,2.4,2.4,2.4,4.8,2.4s3.2-0.8,5.6-2.4l2.4-2.4l-0.8,2.4c-0.8,3.2-1.6,5.6-4.8,8.8l-2.4,2.4l1.6,1.6c3.2,3.2,3.2,6.4,3.2,17.6
	c0,6.4-0.8,11.2-0.8,11.2s-0.8,0-1.6-0.8c0,0.8,0,1.6,0,2.4c0,0.8,0,3.2,0.8,4c1.6,3.2,1.6,5.6,0.8,4.8c-1.6-0.8-3.2-2.4-4.8-3.2
	c0,0.8,0,1.6,0,2.4c0.8,0.8,0.8,1.6,0.8,2.4c0,2.4,0.8,4,1.6,5.6l1.6,2.4h-2.4c-0.8,0-0.8,0-1.6,0v0.8h0.8c1.6,0,2.4,0.8,3.2,1.6
	l0.8,0.8h0.8c0.8,0,0.8,0,0.8,0l16.8-0.8c14.4,0,17.6,0,22.4-0.8c4.8-0.8,8.8-0.8,20-0.8c12.8,0,14.4,0,20-1.6
	c7.2-1.6,9.6-3.2,12-5.6c4.8-5.6,3.2-13.6-4-16.8c-4-1.6-12.8-1.6-20.8,0c-15.2,3.2-30.4,2.4-39.2-0.8c-8-3.2-9.6-4-11.2-3.2
	c-1.6,0.8-3.2,2.4-3.2,5.6c0,1.6-0.8,2.4-0.8,2.4s-1.6-0.8-2.4-2.4c-2.4-3.2-3.2-7.2-0.8-10.4l3.2-3.2l-2.4-2.4
	c-8-8.8-7.2-18.4,0-25.6c4-4,12-7.2,18.4-8.8c5.6-0.8,18.4,0,24.8,1.6c8.8,2.4,22.4,10.4,32.8,19.2c7.2,6.4,10.4,8.8,12.8,8.8
	c1.6,0,1.6,0,1.6-1.6c-0.8-1.6,0-2.4,0.8-4c2.4-3.2,6.4-2.4,8,0.8c3.2,5.6-0.8,12-8,12c-5.6,0-9.6-1.6-15.2-7.2
	c-6.4-5.6-11.2-9.6-13.6-10.4c-0.8,0.8,1.6,8.8,3.2,9.6c2.4,1.6,0.8,1.6-3.2,0c-3.2-1.6-6.4-4-8-7.2l-0.8-1.6l-0.8,2.4
	c-0.8,1.6-1.6,3.2-2.4,4c-1.6,1.6-5.6,3.2-7.2,3.2s-1.6,0,0-1.6c0.8-0.8,1.6-3.2,2.4-4.8c0.8-3.2,0.8-4-0.8-6.4
	c-1.6-3.2-3.2-4.8-7.2-6.4c-2.4-0.8-2.4,0-0.8,2.4s1.6,8,0,10.4c-1.6,3.2-4.8,4.8-8,5.6l-2.4,0.8l1.6-3.2c1.6-4,2.4-8.8,0-12
	c-2.4-3.2-8-6.4-10.4-6.4c-1.6,0-1.6,0.8-1.6,3.2c0.8,4.8-2.4,8.8-3.2,5.6c-0.8-2.4-4-3.2-7.2-2.4c-6.4,1.6-8,8.8-3.2,13.6
	c0.8,1.6,2.4,2.4,2.4,2.4s0.8-0.8,1.6-1.6c1.6-4,8-5.6,12-3.2l1.6,0.8l-3.2,1.6c-4,2.4-4.8,4.8-4,8c0,1.6,0.8,3.2,1.6,4
	c0.8,0.8,1.6,0.8,1.6,0c0.8-2.4,5.6-5.6,6.4-5.6c0,0,0.8,0.8,0.8,1.6c0.8,3.2,0.8,4,4,5.6s4,1.6,11.2,1.6c4,0,10.4-0.8,14.4-1.6
	c3.2-0.8,10.4-1.6,14.4-1.6c7.2,0,8,0,12,1.6c13.6,6.4,16,20.8,4.8,30.4l-4,3.2l3.2,4c1.6,1.6,4,5.6,4.8,8c1.6,4,1.6,5.6,1.6,12.8
	c0,8.8-0.8,11.2-5.6,25.6c-4.8,13.6-5.6,22.4-2.4,29.6c1.6,3.2,4,5.6,6.4,5.6c4,0,2.4,4.8-3.2,8.8C352.8,329.6,352,331.2,352,335.2z
	 M260,194.4c1.6,0.8,1.6,0.8,0-0.8c0,0,0,0,0,0.2C260,193.8,260,194,260,194.4z"/>
<g>
</g>
<g>
</g>
<g>
</g>
<g>
</g>
<g>
</g>
<g>
</g>
<g>
</g>
<g>
</g>
<g>
</g>
<g>
</g>
<g>
</g>
<g>
</g>
<g>
</g>
<g>
</g>
<g>
</g>
</svg>
