<?xml version="1.0" encoding="iso-8859-1"?>
<!-- Generator: Adobe Illustrator 19.0.0, SVG Export Plug-In . SVG Version: 6.00 Build 0)  -->
<svg version="1.1" id="Capa_1" xmlns="http://www.w3.org/2000/svg" xmlns:xlink="http://www.w3.org/1999/xlink" x="0px" y="0px"
	 viewBox="0 0 496.8 496.8" style="enable-background:new 0 0 496.8 496.8;" xml:space="preserve">
<path style="fill:#FFFFFF;" d="M496,370c0,27.2-21.6,48.8-48,48.8H48c-26.4,0-48-21.6-48-48.8V126.8C0,99.6,21.6,78,48,78h400
	c26.4,0,48,21.6,48,48.8V370z"/>
<path style="fill:#E4EEEF;" d="M48,78h400c26.4,0,48,21.6,48,48.8V370c0,27.2-21.6,48.8-48,48.8"/>
<path style="fill:#DAE7E8;" d="M48,78h400c26.4,0,48,21.6,48,48.8v88.8"/>
<path style="fill:#002766;" d="M181.6,153.2H496v-26.4c0-4-0.8-8-1.6-11.2H181.6V153.2z"/>
<rect x="181.6" y="191.6" style="fill:#0038A8;" width="314.4" height="38.4"/>
<polygon style="fill:#002766;" points="181.6,191.6 225.6,229.2 496,229.2 496,191.6 "/>
<rect y="267.6" style="fill:#0038A8;" width="496" height="38.4"/>
<polygon style="fill:#002766;" points="315.2,305.2 496,305.2 496,267.6 270.4,267.6 "/>
<path style="fill:#0038A8;" d="M0,343.6v27.2c0,4,0.8,8,1.6,11.2h493.6c0.8-4,1.6-7.2,1.6-11.2v-27.2H0z"/>
<path style="fill:#002766;" d="M404,381.2h90.4l0,0c0-1.6,0.8-3.2,0.8-4.8l0,0c0-1.6,0-4,0-5.6v-27.2h-136L404,381.2z"/>
<path style="fill:#F4CF19;" d="M125.6,182.8l34.4-6.4l-48-8.8l0,0l0,0l0,0h0.8H112h0.8L124,170c12.8-5.6,16-11.2,19.2-14.4l11.2-4.8
	c-15.2-7.2-14.4,5.6-34.4,6.4l20-28.8l-40,27.2l0,0l0,0l0,0h0.8v0.8c0,0,0-0.8,0.8-0.8l9.6-6.4c5.6-12.8,4-19.2,3.2-24l4.8-11.2
	c-16,5.6-6.4,14.4-20,28.8l-6.4-34.4l-8.8,48l0,0v-0.8l2.4-11.2c-5.6-12.8-11.2-16-14.4-19.2l-8-12.8c-7.2,15.2,5.6,14.4,6.4,34.4
	l-28.8-20l27.2,40l0,0l0,0l0,0V166h0.8c0,0-0.8,0-0.8-0.8l-6.4-9.6c-12.8-5.6-19.2-4-24-3.2l-11.2-4.8c5.6,16,14.4,6.4,28.8,20
	l-34.4,8.8l48,8.8l0,0l0,0l0,0h-0.8h0.8h-0.8l-11.2-2.4c-12.8,5.6-16,11.2-19.2,14.4L27.2,202c15.2,7.2,14.4-5.6,34.4-6.4l-20,28.8
	l40-27.2l0,0l0,0l0,0h-0.8v-0.8c0,0,0,0.8-0.8,0.8l-8,8c-5.6,12.8-4,19.2-3.2,24L64,240.4c16-5.6,6.4-14.4,20-28.8l6.4,34.4l8.8-48
	l0,0l0,0l0,0v0.8V198v0.8L96.8,210c5.6,12.8,11.2,16,14.4,19.2l4.8,11.2c7.2-15.2-5.6-14.4-6.4-34.4l28.8,20l-27.2-40l0,0l0,0l0,0
	v0.8h-0.8c0,0,0.8,0,0.8,0.8l6.4,9.6c12.8,5.6,19.2,4,24,3.2l11.2,4.8C148.8,186.8,140,196.4,125.6,182.8z M81.6,154.8L81.6,154.8
	L81.6,154.8L81.6,154.8L81.6,154.8z"/>
<g>
</g>
<g>
</g>
<g>
</g>
<g>
</g>
<g>
</g>
<g>
</g>
<g>
</g>
<g>
</g>
<g>
</g>
<g>
</g>
<g>
</g>
<g>
</g>
<g>
</g>
<g>
</g>
<g>
</g>
</svg>
