<?xml version="1.0" encoding="iso-8859-1"?>
<!-- Generator: Adobe Illustrator 19.0.0, SVG Export Plug-In . SVG Version: 6.00 Build 0)  -->
<svg version="1.1" id="Capa_1" xmlns="http://www.w3.org/2000/svg" xmlns:xlink="http://www.w3.org/1999/xlink" x="0px" y="0px"
	 viewBox="0 0 496 496" style="enable-background:new 0 0 496 496;" xml:space="preserve">
<path style="fill:#FFFFFF;" d="M496,369.6c0,27.2-21.6,46.4-48,46.4H48c-26.4,0-48-19.2-48-46.4V126.4C0,99.2,21.6,80,48,80h400
	c26.4,0,48,19.2,48,46.4V369.6z"/>
<path style="fill:#E9F3F4;" d="M448,80H48l400,336c26.4,0,48-19.2,48-46.4V126.4C496,99.2,474.4,80,448,80z"/>
<g>
	<path style="fill:#D9ECED;" d="M496,368.8c0,27.2-21.6,47.2-48,47.2H48c-26.4,0-48-20.8-48-48L496,368.8z"/>
	<path style="fill:#D9ECED;" d="M48,80h400c26.4,0,48,19.2,48,46.4V216L48,80z"/>
</g>
<g transform="matrix(0.5547 -0.83205 0.83205 0.5547 0 0)">
	<circle style="fill:#C60C30;" cx="-68.981" cy="344.106" r="72"/>
	<path style="fill:#A0052A;" d="M3.019,344.106c0-36.8-28-67.2-63.2-71.2l-17.6,142.4c2.4,0,5.6,0.8,8.8,0.8
		C-29.781,415.306,3.019,383.306,3.019,344.106z"/>
	<path style="fill:#003478;" d="M-68.981,272.106c-20,0-36,16-36,36s16,36,36,36s36,16,36,36s-16,36-36,36c-40,0-72-32-72-72
		S-108.181,272.106-68.981,272.106"/>
	<path style="fill:#022D5B;" d="M-32.981,380.106c0-20-16-36-36-36l0,0l-8.8,71.2c2.4,0,5.6,0.8,8.8,0.8
		C-48.981,416.106-32.981,400.106-32.981,380.106z"/>
</g>
<g>
	<polygon style="fill:#5B5B5B;" points="124.445,117.961 82.162,181.675 91.442,187.868 133.725,124.154 	"/>
	<polygon style="fill:#5B5B5B;" points="140.56,128.963 98.278,192.677 107.557,198.87 149.84,135.156 	"/>
	<polygon style="fill:#5B5B5B;" points="156.366,139.345 114.083,203.059 123.363,209.252 165.645,145.538 	"/>
	<polygon style="fill:#5B5B5B;" points="82.826,301.628 125.665,364.968 134.923,358.742 92.083,295.401 	"/>
	<path style="fill:#5B5B5B;" d="M127.564,313.387l-19.176-28.705l-9.257,6.226l19.326,28.574
		C119.429,318.888,127.288,313.565,127.564,313.387z"/>
	<path style="fill:#5B5B5B;" d="M131.225,318.423c-0.114,0.084-8.43,5.649-9.268,6.218l20.014,29.609l9.257-6.226L131.225,318.423z"
		/>
	<polygon style="fill:#5B5B5B;" points="114.744,280.241 157.584,343.582 166.841,337.355 124.002,274.015 	"/>
</g>
<path d="M339.195,303.16l19.176-28.705l9.257,6.226l-19.326,28.574C347.33,308.661,339.471,303.338,339.195,303.16z"/>
<path d="M335.534,308.196c0.114,0.084,8.43,5.649,9.268,6.218l-20.014,29.609l-9.257-6.226L335.534,308.196z"/>
<path d="M355.465,313.852l19.176-28.705l9.257,6.226l-19.326,28.574C363.6,319.353,355.742,314.03,355.465,313.852z"/>
<path d="M351.804,318.888c0.114,0.084,8.43,5.649,9.268,6.218l-20.014,29.609l-9.257-6.226L351.804,318.888z"/>
<path d="M370.806,324.079l19.176-28.705l9.257,6.226l-19.326,28.574C378.941,329.58,371.082,324.257,370.806,324.079z"/>
<path d="M367.145,329.115c0.114,0.084,8.43,5.649,9.268,6.218L356.4,364.941l-9.257-6.226L367.145,329.115z"/>
<path d="M376.041,146.5l-19.176-28.705l-9.257,6.226l19.326,28.574C367.906,152.001,375.764,146.678,376.041,146.5z"/>
<path d="M379.702,151.537c-0.114,0.084-8.43,5.649-9.268,6.218l20.014,29.609l9.257-6.226L379.702,151.537z"/>
<polygon points="340.594,128.488 331.337,134.714 374.177,198.055 383.434,191.828 "/>
<path d="M344.43,167.419l-19.176-28.705l-9.257,6.226l19.326,28.574C336.295,172.92,344.153,167.597,344.43,167.419z"/>
<path d="M348.091,172.455c-0.114,0.084-8.43,5.649-9.268,6.218l20.014,29.609l9.257-6.226L348.091,172.455z"/>
<g>
</g>
<g>
</g>
<g>
</g>
<g>
</g>
<g>
</g>
<g>
</g>
<g>
</g>
<g>
</g>
<g>
</g>
<g>
</g>
<g>
</g>
<g>
</g>
<g>
</g>
<g>
</g>
<g>
</g>
</svg>
