<?xml version="1.0" encoding="iso-8859-1"?>
<!-- Generator: Adobe Illustrator 19.0.0, SVG Export Plug-In . SVG Version: 6.00 Build 0)  -->
<svg version="1.1" id="Capa_1" xmlns="http://www.w3.org/2000/svg" xmlns:xlink="http://www.w3.org/1999/xlink" x="0px" y="0px"
	 viewBox="0 0 496 496" style="enable-background:new 0 0 496 496;" xml:space="preserve">
<circle style="fill:#FFFFFF;" cx="248" cy="248" r="52.8"/>
<path d="M249.6,208L249.6,208l0.8-0.8L249.6,208z"/>
<path style="fill:#FFFFFF;" d="M234.4,283.2v4c3.2-1.6,8-2.4,9.6-2.4c0-1.6-0.8-4.8-0.8-7.2c-1.6,0-3.2,0-5.6-0.8
	c0,0-0.8,1.6-0.8,2.4C236.8,280.8,236.8,282.4,234.4,283.2z M275.2,268.8c0,1.6-0.8,2.4-1.6,4c0.8-0.8,1.6-2.4,2.4-4H275.2z
	 M262.4,266.4c0,0.8,0.8,1.6,0.8,1.6c0.8,0.8,0.8,1.6,1.6,3.2c0.8,0,0.8-0.8,0.8-0.8l0,0l-1.6-3.2c0,0,0,0,0-0.8
	C263.2,266.4,263.2,266.4,262.4,266.4z M248.8,258.4h1.6l0.8,3.2c0,1.6,0.8,4.8,0.8,8c0.8,0,2.4,0,3.2,0c-1.6-2.4-2.4-4.8-2.4-7.2
	v-1.6l1.6-1.6c1.6-1.6,4-1.6,6.4-0.8l4-3.2c2.4,2.4,4,4.8,5.6,6.4l4-1.6c0.8,1.6,1.6,4.8,0.8,8l0.8,0.8c0.8-1.6,1.6-3.2,1.6-5.6
	c0.8-6.4-3.2-10.4-10.4-13.6l-1.6-0.8V248c-2.4-0.8-6.4-3.2-15.2-7.2l-4-0.8l0,0l-2.4,0.8l-3.2-4.8c0-0.8-0.8-5.6,0-11.2l-0.8,0.8
	c0,0-7.2,7.2-8,14.4c0,1.6,0,3.2,0.8,4.8l3.2,4c1.6,1.6,4.8,4.8,7.2,5.6h0.8l0.8,0.8C247.2,256.8,248.8,257.6,248.8,258.4z
	 M242.4,216.8l-0.8,4.8c0.8-1.6,1.6-2.4,2.4-4c3.2-2.4,3.2-4.8,4-5.6v-0.8l-3.2-1.6l3.2-4.8l3.2,2.4v-0.8l0,0l-0.8-1.6
	c-0.8-0.8-2.4-0.8-3.2-1.6v3.2h-4l-2.4,1.6l0.8,0.8l2.4,1.6c-0.8,0.8-0.8,1.6-0.8,1.6l0.8,0.8h1.6v2.4l1.6,2.4L242.4,216.8z"/>
<path d="M496,369.6c0,27.2-21.6,48.8-48,48.8H48c-26.4,0-48-21.6-48-48.8V126.4c0-27.2,21.6-48.8,48-48.8h400
	c26.4,0,48,21.6,48,48.8V369.6z"/>
<path style="fill:#E70013;" d="M496,369.6v-8H0v8c0,24.8,18.4,45.6,42.4,48h411.2C477.6,415.2,496,395.2,496,369.6z"/>
<rect y="304.8" style="fill:#FCDC04;" width="496" height="56.8"/>
<rect y="191.2" style="fill:#E70013;" width="496" height="56.8"/>
<rect y="134.4" style="fill:#FCDC04;" width="496" height="56.8"/>
<polygon style="fill:#DBBC07;" points="381.6,361.6 496,361.6 496,304.8 314.4,304.8 "/>
<polygon style="fill:#D30B0B;" points="248,248 496,248 496,191.2 181.6,191.2 "/>
<polygon style="fill:#DBBC07;" points="181.6,191.2 496,191.2 496,134.4 114.4,134.4 "/>
<polygon style="fill:#C10000;" points="496,214.4 496,191.2 419.2,191.2 "/>
<polygon style="fill:#C1A20A;" points="419.2,191.2 496,191.2 496,134.4 233.6,134.4 "/>
<path style="fill:#C10000;" d="M496,369.6c0,27.2-21.6,48.8-48,48.8H48c-26.4,0-48-21.6-48-48.8"/>
<circle style="fill:#FFFFFF;" cx="248" cy="248" r="70.4"/>
<path style="fill:#BFBCAC;" d="M248,177.6c39.2,0,70.4,32,70.4,70.4c0,39.2-32,70.4-70.4,70.4"/>
<path d="M275.2,245.6c0-0.8-0.8-0.8-0.8-0.8C272,244,252,234.4,248,232c-1.6-0.8-3.2-0.8-4-0.8l0,0c0,0-3.2-13.6,3.2-20
	c7.2-5.6,6.4-12,6.4-12l0,0c0.8,0,7.2-1.6,7.2-1.6c-0.8-3.2-1.6-5.6-4.8-8.8l0,0c-4.8-6.4-14.4-5.6-14.4-5.6l-1.6,8l0,0
	c0,0,0.8-8.8,0.8-9.6c-4.8,0-8,1.6-9.6,3.2l4.8,8.8l0,0l0,0c-4,4.8-1.6,8-1.6,8s-10.4,3.2-10.4,4.8c0,0,0,0,0,0.8l0,0l0,0
	c1.6,0.8,11.2-0.8,11.2-0.8l0,0l0,0c-0.8,0.8-5.6,5.6-0.8,7.2l0,0v0.8c0,0-23.2,20.8-5.6,39.2l0.8-0.8c0,0,6.4,8,12.8,9.6
	c4.8,4.8,5.6,5.6,5.6,5.6c0,0.8,0.8,9.6,0,12c-1.6-0.8-16.8-0.8-19.2,0s-10.4,0-8,13.6c1.6-3.2,3.2-6.4,3.2-6.4s0,4.8,1.6,6.4
	c0-4.8,1.6-8,1.6-8s0.8,5.6,1.6,6.4s0.8-8.8,8-8c6.4,0.8,11.2,0.8,11.2,0.8s2.4,19.2,1.6,20.8c-4.8-0.8-16,0.8-16.8,3.2
	c6.4,0,9.6,0,9.6,0s-5.6,4.8-4,8c0,0,8.8-10.4,25.6-8c-2.4-4-11.2-4-11.2-4s-2.4-19.2-0.8-20.8c2.4-0.8,10.4,0,10.4,0
	c0.8,0,3.2-3.2,1.6-4.8c-1.6-1.6-6.4-9.6-4-10.4c1.6-1.6,12,0.8,12,0.8l-5.6-7.2c5.6,4.8,8,11.2,8,11.2s0-0.8,0-2.4
	c0.8,2.4,0.8,4.8-0.8,7.2c5.6-4,4-10.4,4-10.4s4.8,12-6.4,18.4c1.6,0.8,1.6,0.8,1.6,0.8l-0.8-0.8c0,0-0.8,1.6,6.4-2.4
	c-2.4,1.6-2.4,3.2-2.4,3.2s0.8,1.6,5.6-2.4c-4,4-4.8,6.4-4.8,6.4C287.2,289.6,308.8,257.6,275.2,245.6z"/>
<g>
</g>
<g>
</g>
<g>
</g>
<g>
</g>
<g>
</g>
<g>
</g>
<g>
</g>
<g>
</g>
<g>
</g>
<g>
</g>
<g>
</g>
<g>
</g>
<g>
</g>
<g>
</g>
<g>
</g>
</svg>
