<?xml version="1.0" encoding="iso-8859-1"?>
<!-- Generator: Adobe Illustrator 19.0.0, SVG Export Plug-In . SVG Version: 6.00 Build 0)  -->
<svg version="1.1" id="Capa_1" xmlns="http://www.w3.org/2000/svg" xmlns:xlink="http://www.w3.org/1999/xlink" x="0px" y="0px"
	 viewBox="0 0 496 496" style="enable-background:new 0 0 496 496;" xml:space="preserve">
<path style="fill:#006600;" d="M0,304.8v64.8c0,27.2,21.6,48.8,48,48.8h400c26.4,0,48-21.6,48-48.8v-64.8H0z"/>
<path style="fill:#004C00;" d="M448,418.4c26.4,0,48-21.6,48-48.8v-64.8H315.2L448,418.4z"/>
<path style="fill:#CC0000;" d="M448,77.6H48c-26.4,0-48,21.6-48,48.8v64.8h496v-64.8C496,99.2,474.4,77.6,448,77.6z"/>
<path style="fill:#B20808;" d="M448,77.6H48l132.8,113.6H496v-64.8C496,99.2,474.4,77.6,448,77.6z"/>
<path style="fill:#960202;" d="M448,77.6H48l370.4,113.6H496v-64.8C496,99.2,474.4,77.6,448,77.6z"/>
<polygon style="fill:#FFFFFF;" points="0,140.8 0,189.6 0,191.2 0,304.8 0,306.4 0,355.2 496,355.2 496,306.4 496,304.8 496,191.2 
	496,189.6 496,140.8 "/>
<polygon style="fill:#EBF2F7;" points="180,189.6 180,189.6 316,306.4 373.6,355.2 496,355.2 496,306.4 496,304.8 496,191.2 
	496,189.6 496,140.8 122.4,140.8 "/>
<g>
	<path style="fill:#F8C300;" d="M290.4,279.2c-4,4-8.8,5.6-14.4,6.4c-12.8,0.8-24.8-8.8-25.6-21.6v-18.4c0-4,4-8,8-7.2
		c2.4,0,4.8,1.6,6.4,4c3.2-9.6-2.4-20-12-23.2s-20,2.4-23.2,12c-1.6,4-1.6,8,0,11.2c2.4-4,7.2-4.8,10.4-2.4c2.4,1.6,4,4,4,6.4V264
		c-0.8,12.8-12.8,22.4-25.6,21.6c-5.6-0.8-10.4-2.4-14.4-6.4c-4.8,12.8-19.2,18.4-32,13.6c-1.6-0.8-4-1.6-5.6-3.2
		c2.4,22.4,36,18.4,39.2-4C216,304,240,299.2,246.4,276l0,0c7.2,23.2,30.4,28,40.8,9.6c2.4,22.4,36.8,26.4,39.2,4
		c-1.6,0.8-3.2,2.4-5.6,3.2C310.4,297.6,296,292,290.4,279.2z M248,239.2c-2.4-4.8-8-7.2-13.6-5.6c0.8-5.6,5.6-10.4,11.2-11.2
		c7.2-0.8,14.4,4,15.2,11.2C256,232,250.4,234.4,248,239.2z"/>
	<path style="fill:#F8C300;" d="M222.4,304c0,0-2.4-1.6-7.2-0.8c-0.8-3.2-3.2-6.4-5.6-7.2c-1.6,2.4-3.2,6.4-2.4,8.8
		c-3.2,0.8-7.2,3.2-7.2,3.2C208,316,217.6,314.4,222.4,304z"/>
	<path style="fill:#F8C300;" d="M259.2,303.2c0,0-2.4-1.6-7.2-1.6c0-3.2-2.4-6.4-4-8c-2.4,1.6-4,5.6-4,8c-4,0-7.2,1.6-7.2,1.6
		C243.2,312.8,252.8,312.8,259.2,303.2z"/>
	<path style="fill:#F8C300;" d="M296,308c0,0-1.6-2.4-6.4-3.2c0-3.2-1.6-7.2-3.2-8.8c-2.4,1.6-4.8,4.8-5.6,8c-4-0.8-7.2,0.8-7.2,0.8
		C279.2,315.2,288.8,316,296,308z"/>
	<path style="fill:#F8C300;" d="M185.6,321.6l3.2,11.2c38.4-11.2,79.2-11.2,117.6,0l3.2-11.2C269.6,309.6,226.4,309.6,185.6,321.6z"
		/>
	<polygon style="fill:#F8C300;" points="239.2,191.2 248,184.8 256.8,191.2 253.6,180.8 263.2,173.6 251.2,173.6 248,163.2 
		244.8,173.6 232.8,173.6 242.4,180.8 	"/>
	<polygon style="fill:#F8C300;" points="195.2,203.2 204,196.8 213.6,203.2 210.4,192 219.2,185.6 208,185.6 204,175.2 200.8,185.6 
		189.6,185.6 198.4,192 	"/>
	<polygon style="fill:#F8C300;" points="163.2,235.2 172,228.8 181.6,235.2 178.4,224 187.2,217.6 176,217.6 172,207.2 168.8,217.6 
		157.6,217.6 166.4,224 	"/>
	<polygon style="fill:#F8C300;" points="166.4,268 175.2,261.6 164,261.6 160.8,250.4 156.8,261.6 145.6,261.6 155.2,268 
		151.2,278.4 160.8,272 169.6,278.4 	"/>
	<polygon style="fill:#F8C300;" points="282.4,203.2 292,196.8 300.8,203.2 297.6,192 306.4,185.6 295.2,185.6 292,175.2 288,185.6 
		276.8,185.6 285.6,192 	"/>
	<polygon style="fill:#F8C300;" points="314.4,235.2 324,228.8 332.8,235.2 329.6,224 338.4,217.6 327.2,217.6 324,207.2 320,217.6 
		308.8,217.6 317.6,224 	"/>
	<polygon style="fill:#F8C300;" points="350.4,261.6 339.2,261.6 335.2,250.4 332,261.6 320.8,261.6 329.6,268 326.4,278.4 
		335.2,272 344.8,278.4 340.8,268 	"/>
</g>
<g>
</g>
<g>
</g>
<g>
</g>
<g>
</g>
<g>
</g>
<g>
</g>
<g>
</g>
<g>
</g>
<g>
</g>
<g>
</g>
<g>
</g>
<g>
</g>
<g>
</g>
<g>
</g>
<g>
</g>
</svg>
