<?xml version="1.0" encoding="iso-8859-1"?>
<!-- Generator: Adobe Illustrator 19.0.0, SVG Export Plug-In . SVG Version: 6.00 Build 0)  -->
<svg version="1.1" id="Capa_1" xmlns="http://www.w3.org/2000/svg" xmlns:xlink="http://www.w3.org/1999/xlink" x="0px" y="0px"
	 viewBox="0 0 496.8 496.8" style="enable-background:new 0 0 496.8 496.8;" xml:space="preserve">
<path style="fill:#E03736;" d="M496,248.4L496,248.4V130L206.4,416.4H448c26.4,0,48-19.2,48-46.4V248.4z"/>
<path style="fill:#383838;" d="M496,126.8c0-27.2-21.6-46.4-48-46.4H284.8L0,362v8c0,27.2,21.6,46.4,48,46.4h164l284-281.6V126.8z"
	/>
<path style="fill:#359846;" d="M289.6,80.4H48c-26.4,0-48,19.2-48,46.4v121.6l0,0v118.4L289.6,80.4z"/>
<path style="fill:#C92020;" d="M444,415.6c26.4,0,52-18.4,52-45.6V248.4l0,0V130L317.6,307.6L444,415.6z"/>
<path style="fill:#242624;" d="M448,80.4H284.8l-109.6,108l72.8,60.8l72,61.6l175.2-176v-8C496,99.6,474.4,80.4,448,80.4z"/>
<polygon style="fill:#238431;" points="289.6,80.4 48,80.4 178.4,191.6 "/>
<path style="fill:#AA1111;" d="M496,369.2c0,29.6-21.6,47.2-48,47.2H48c-26.4,0-48-20.8-48-48"/>
<path d="M0,368.4c0,32,21.6,48,48,48h164l48.8-48H0z"/>
<path style="fill:#AA1111;" d="M48,80.4h400c26.4,0,48,19.2,48,46.4v89.6"/>
<path d="M448,80.4H284.8L228,135.6L435.2,198l61.6-63.2v-8C496,99.6,474.4,80.4,448,80.4z"/>
<polygon style="fill:#12751D;" points="289.6,80.4 48,80.4 232.8,137.2 "/>
<g>
	<polygon style="fill:#FCD73E;" points="292,80.4 289.6,80.4 284.8,80.4 259.2,80.4 0,337.2 0,362 0,366.8 0,370 	"/>
	<polygon style="fill:#FCD73E;" points="496,134.8 496,132.4 209.6,416.4 211.2,416.4 242.4,416.4 496,165.2 	"/>
</g>
<polygon style="fill:#F3F2F2;" points="153.6,278.8 180.8,293.2 202.4,271.6 197.6,301.2 224.8,315.6 195.2,320.4 190.4,350 
	176,322.8 146.4,327.6 168,306 "/>
<polygon style="fill:#B2B2B2;" points="278.4,154 305.6,168.4 327.2,146.8 322.4,176.4 349.6,190.8 320,195.6 315.2,225.2 
	300.8,198 271.2,202.8 292.8,181.2 "/>
<g>
</g>
<g>
</g>
<g>
</g>
<g>
</g>
<g>
</g>
<g>
</g>
<g>
</g>
<g>
</g>
<g>
</g>
<g>
</g>
<g>
</g>
<g>
</g>
<g>
</g>
<g>
</g>
<g>
</g>
</svg>
