<?xml version="1.0" encoding="iso-8859-1"?>
<!-- Generator: Adobe Illustrator 19.0.0, SVG Export Plug-In . SVG Version: 6.00 Build 0)  -->
<svg version="1.1" id="Capa_1" xmlns="http://www.w3.org/2000/svg" xmlns:xlink="http://www.w3.org/1999/xlink" x="0px" y="0px"
	 viewBox="0 0 496 496" style="enable-background:new 0 0 496 496;" xml:space="preserve">
<path style="fill:#007A3D;" d="M0,304v65.6C0,396.8,21.6,416,48,416h400c26.4,0,48-19.2,48-46.4V304H0z"/>
<path style="fill:#3A3A3A;" d="M448,80H48C21.6,80,0,99.2,0,126.4V192h496v-65.6C496,99.2,474.4,80,448,80z"/>
<rect y="192" style="fill:#F3F4F5;" width="496" height="112"/>
<path style="fill:#01662C;" d="M446.4,416c26.4,0,49.6-19.2,49.6-46.4V304H315.2L446.4,416z"/>
<path style="fill:#151515;" d="M448,80H48l132,112h316v-65.6C496,99.2,474.4,80,448,80z"/>
<polygon style="fill:#D3D9DD;" points="315.2,304 496,304 496,192 180,192 "/>
<path d="M448,80H48l367.2,112H496v-65.6C496,99.2,474.4,80,448,80z"/>
<polygon style="fill:#B8C5CC;" points="496,214.4 496,192 414.4,192 "/>
<path style="fill:#025624;" d="M496,368.8c0,30.4-21.6,47.2-48,47.2H48c-26.4,0-48-20.8-48-48"/>
<polygon style="fill:#AA1717;" points="168,248 0,140.8 0,189.6 0,191.2 0,304.8 0,306.4 0,354.4 "/>
<polyline style="fill:#CD2029;" points="0,192 0,191.2 0,304.8 0,306.4 0,354.4 168,248 "/>
<g>
</g>
<g>
</g>
<g>
</g>
<g>
</g>
<g>
</g>
<g>
</g>
<g>
</g>
<g>
</g>
<g>
</g>
<g>
</g>
<g>
</g>
<g>
</g>
<g>
</g>
<g>
</g>
<g>
</g>
</svg>
