<?xml version="1.0" encoding="iso-8859-1"?>
<!-- Generator: Adobe Illustrator 19.0.0, SVG Export Plug-In . SVG Version: 6.00 Build 0)  -->
<svg version="1.1" id="Capa_1" xmlns="http://www.w3.org/2000/svg" xmlns:xlink="http://www.w3.org/1999/xlink" x="0px" y="0px"
	 viewBox="0 0 496 496" style="enable-background:new 0 0 496 496;" xml:space="preserve">
<rect x="149.73" y="77.6" style="fill:#015197;" width="195.73" height="340.8"/>
<g>
	<path style="fill:#C4272F;" d="M162.4,77.6H48c-26.4,0-48,21.6-48,48.8v243.2c0,27.2,21.6,48.8,48,48.8h115.2V77.6H162.4z"/>
	<path style="fill:#C4272F;" d="M448,77.6H333.6v340.8H448c26.4,0,48-21.6,48-48.8V126.4C496,99.2,474.4,77.6,448,77.6z"/>
</g>
<path style="fill:#B21424;" d="M448,77.6H333.6v243.2L448,418.4c26.4,0,48-21.6,48-48.8V126.4C496,99.2,474.4,77.6,448,77.6z"/>
<polygon style="fill:#05497C;" points="333.6,320.8 333.6,77.6 162.4,77.6 162.4,175.2 "/>
<polygon style="fill:#B21424;" points="162.4,77.6 48,77.6 162.4,175.2 "/>
<rect x="162.4" y="369.6" style="fill:#004068;" width="172.4" height="48.8"/>
<g>
	<path style="fill:#A00A20;" d="M333.6,418.4H448c26.4,0,48-21.6,48-48.8H333.6V418.4z"/>
	<path style="fill:#A00A20;" d="M0,369.6c0,27.2,21.6,48.8,48,48.8h115.2v-48.8H0z"/>
	<path style="fill:#A00A20;" d="M448,77.6H333.6v87.2L496,214.4v-88C496,99.2,474.4,77.6,448,77.6z"/>
</g>
<polygon style="fill:#004068;" points="333.6,164.8 333.6,77.6 162.4,77.6 162.4,112.8 "/>
<polygon style="fill:#A00A20;" points="162.4,77.6 48,77.6 162.4,112.8 "/>
<g>
	<path style="fill:#F9CF02;" d="M81.6,227.2c-11.2,0-20.8-6.4-24.8-16.8c0,0,0,0,0,0.8c0,13.6,11.2,24.8,24.8,24.8
		s24.8-11.2,24.8-24.8c0,0,0,0,0-0.8C102.4,220.8,92.8,227.2,81.6,227.2z"/>
	<circle style="fill:#F9CF02;" cx="81.6" cy="204.8" r="18.4"/>
	<path style="fill:#F9CF02;" d="M81.6,181.6c6.4,0,11.2-4.8,11.2-11.2c0-4.8-3.2-4.8-3.2-7.2c0-1.6,1.6-4-1.6-7.2
		c1.6,3.2-0.8,3.2-0.8,6.4s0.8,3.2,0.8,4.8s-0.8,2.4-2.4,2.4s-2.4-0.8-2.4-2.4c0-2.4,2.4-4.8,2.4-8s-0.8-4.8-2.4-7.2
		c-1.6-3.2-4.8-4.8-2.4-7.2c-3.2,0.8-1.6,5.6-1.6,8.8s-2.4,4.8-2.4,8s1.6,4,1.6,6.4c0,1.6-0.8,2.4-2.4,2.4s-2.4-0.8-2.4-2.4
		c0-2.4,0.8-2.4,0.8-4.8c0-3.2-3.2-3.2-0.8-6.4c-3.2,3.2-1.6,4.8-1.6,7.2c0,1.6-3.2,2.4-3.2,7.2C69.6,176.8,75.2,181.6,81.6,181.6z"
		/>
</g>
<path style="fill:#F7A706;" d="M89.6,163.2c0-1.6,1.6-4-1.6-7.2c1.6,3.2-0.8,3.2-0.8,6.4s0.8,3.2,0.8,4.8s-0.8,2.4-2.4,2.4
	s-2.4-0.8-2.4-2.4c0-2.4,2.4-4.8,2.4-8s-0.8-4.8-2.4-7.2c-0.486-0.973-1.12-1.797-1.7-2.541v32.137c0.034,0,0.066,0.005,0.1,0.005
	c6.4,0,11.2-4.8,11.2-11.2C92.8,165.6,89.6,165.6,89.6,163.2z"/>
<g>
	<rect x="31.2" y="240.8" style="fill:#F9CF02;" width="23.2" height="110.4"/>
	<rect x="108.8" y="240.8" style="fill:#F9CF02;" width="23.2" height="110.4"/>
	<rect x="58.4" y="259.2" style="fill:#F9CF02;" width="45.6" height="8.8"/>
	<rect x="58.4" y="323.2" style="fill:#F9CF02;" width="45.6" height="8.8"/>
	<polygon style="fill:#F9CF02;" points="81.6,255.2 104,240.8 58.4,240.8 	"/>
	<polygon style="fill:#F9CF02;" points="81.6,351.2 104,336.8 58.4,336.8 	"/>
	<path style="fill:#F9CF02;" d="M81.6,294.4c5.6,0,10.4-4.8,10.4-10.4s-4.8-10.4-10.4-10.4c-12.8,0-23.2,10.4-23.2,23.2
		c0,8.8,4.8,16,12,20c-1.6-2.4-2.4-4.8-2.4-8C68,300.8,73.6,294.4,81.6,294.4z M81.6,279.2c2.4,0,4.8,2.4,4.8,4.8s-2.4,4.8-4.8,4.8
		s-4.8-2.4-4.8-4.8C76.8,281.6,79.2,279.2,81.6,279.2z"/>
</g>
<path style="fill:#F7A706;" d="M81.6,273.6l-23.2,23.2c0,8.8,4.8,16,12,20c-1.6-2.4-2.4-4.8-2.4-8c0-8,5.6-14.4,13.6-14.4
	c5.6,0,10.4-4.8,10.4-10.4C92,278.4,87.2,273.6,81.6,273.6z M81.6,288.8c-2.4,0-4.8-2.4-4.8-4.8s2.4-4.8,4.8-4.8s4.8,2.4,4.8,4.8
	S84,288.8,81.6,288.8z"/>
<path style="fill:#F9CF02;" d="M92,276c1.6,2.4,2.4,4.8,2.4,8c0,7.2-6.4,13.6-13.6,13.6c-5.6,0-10.4,4.8-10.4,10.4
	s4.8,10.4,10.4,10.4c12.8,0,23.2-10.4,23.2-23.2C104,287.2,99.2,280,92,276z M81.6,312.8c-2.4,0-4.8-2.4-4.8-4.8s2.4-4.8,4.8-4.8
	s4.8,2.4,4.8,4.8S84,312.8,81.6,312.8z"/>
<g>
	<path style="fill:#F7A706;" d="M92,276c1.6,2.4,2.4,4.8,2.4,8c0,7.2-6.4,13.6-13.6,13.6c-5.6,0-10.4,4.8-10.4,10.4
		s4.8,10.4,10.4,10.4l23.2-23.2C104,287.2,99.2,280,92,276z M81.6,312.8c-2.4,0-4.8-2.4-4.8-4.8s2.4-4.8,4.8-4.8s4.8,2.4,4.8,4.8
		S84,312.8,81.6,312.8z"/>
	<path style="fill:#F7A706;" d="M81.662,235.988c13.6,0,24.8-11.2,24.8-24.8c0,0,0,0,0-0.8c-4,9.6-13.6,16.8-24.8,16.8V235.988z"/>
	<path style="fill:#F7A706;" d="M81.6,223.2c10.4,0,18.4-8,18.4-18.4s-8-18.4-18.4-18.4V223.2z"/>
	<polygon style="fill:#F7A706;" points="31.2,351.2 54.4,351.2 54.4,240.8 47.2,240.8 	"/>
	<polygon style="fill:#F7A706;" points="124,240.8 108.8,351.2 132,351.2 132,240.8 	"/>
	<rect x="81.6" y="259.2" style="fill:#F7A706;" width="22.4" height="8.8"/>
	<rect x="81.6" y="323.2" style="fill:#F7A706;" width="22.4" height="8.8"/>
	<polygon style="fill:#F7A706;" points="81.6,255.2 104,240.8 69.6,240.8 	"/>
	<polygon style="fill:#F7A706;" points="81.6,351.2 104,336.8 74.4,336.8 	"/>
</g>
<g>
</g>
<g>
</g>
<g>
</g>
<g>
</g>
<g>
</g>
<g>
</g>
<g>
</g>
<g>
</g>
<g>
</g>
<g>
</g>
<g>
</g>
<g>
</g>
<g>
</g>
<g>
</g>
<g>
</g>
</svg>
