<?xml version="1.0" encoding="iso-8859-1"?>
<!-- Generator: Adobe Illustrator 19.0.0, SVG Export Plug-In . SVG Version: 6.00 Build 0)  -->
<svg version="1.1" id="Capa_1" xmlns="http://www.w3.org/2000/svg" xmlns:xlink="http://www.w3.org/1999/xlink" x="0px" y="0px"
	 viewBox="0 0 496.8 496.8" style="enable-background:new 0 0 496.8 496.8;" xml:space="preserve">
<path style="fill:#E03736;" d="M496,248.4L496,248.4V130L206.4,416.4H448c26.4,0,48-19.2,48-46.4V248.4z"/>
<path style="fill:#F8D12E;" d="M496,126.8c0-27.2-21.6-46.4-48-46.4H284.8L0,362v8c0,27.2,21.6,46.4,48,46.4h164l284-281.6V126.8z"
	/>
<path style="fill:#5C9A5C;" d="M289.6,80.4H48c-26.4,0-48,19.2-48,46.4v121.6l0,0v118.4L289.6,80.4z"/>
<path style="fill:#18B4EA;" d="M448,80.4H48L248,250l0,0l196.8,166.4c26.4,0,51.2-19.2,51.2-46.4V248.4l0,0V126.8
	C496,99.6,474.4,80.4,448,80.4z"/>
<path style="fill:#C92020;" d="M443.2,416.4c26.4,0,52.8-19.2,52.8-46.4V248.4l0,0V130L317.6,309.2L443.2,416.4z"/>
<path style="fill:#E2B80A;" d="M448,80.4H284.8L176,188.4l73.6,62.4l69.6,59.2L496,134.8v-8C496,99.6,474.4,80.4,448,80.4z"/>
<polygon style="fill:#448744;" points="289.6,80.4 48,80.4 178.4,190.8 "/>
<path style="fill:#AA1111;" d="M496,369.2c0,29.6-21.6,47.2-48,47.2H48c-26.4,0-48-20.8-48-47.2"/>
<path style="fill:#C9A305;" d="M0,368.4c0,32,21.6,48,48,48h164l48.8-48H0z"/>
<path style="fill:#AA1111;" d="M48,80.4h400c26.4,0,48,19.2,48,46.4v89.6"/>
<path style="fill:#C9A305;" d="M448,80.4H284.8l-56,55.2l204.8,61.6l63.2-63.2v-8C496,99.6,474.4,80.4,448,80.4z"/>
<polygon style="fill:#337033;" points="289.6,80.4 48,80.4 232.8,137.2 "/>
<g>
</g>
<g>
</g>
<g>
</g>
<g>
</g>
<g>
</g>
<g>
</g>
<g>
</g>
<g>
</g>
<g>
</g>
<g>
</g>
<g>
</g>
<g>
</g>
<g>
</g>
<g>
</g>
<g>
</g>
</svg>
