<?xml version="1.0" encoding="iso-8859-1"?>
<!-- Generator: Adobe Illustrator 19.0.0, SVG Export Plug-In . SVG Version: 6.00 Build 0)  -->
<svg version="1.1" id="Capa_1" xmlns="http://www.w3.org/2000/svg" xmlns:xlink="http://www.w3.org/1999/xlink" x="0px" y="0px"
	 viewBox="0 0 496 496" style="enable-background:new 0 0 496 496;" xml:space="preserve">
<path style="fill:#3D3D3D;" d="M496,369.6c0,27.2-21.6,48.8-48,48.8H48c-26.4,0-48-21.6-48-48.8V126.4c0-27.2,21.6-48.8,48-48.8h400
	c26.4,0,48,21.6,48,48.8V369.6z"/>
<path style="fill:#B20820;" d="M48,77.6h400c26.4,0,48,21.6,48,48.8v243.2c0,27.2-21.6,48.8-48,48.8"/>
<path style="fill:#96051D;" d="M48,77.6h400c26.4,0,48,21.6,48,48.8v88.8"/>
<path d="M496,369.6c0,27.2-21.6,48.8-48,48.8H48c-26.4,0-48-21.6-48-48.8"/>
<path style="fill:#CE1126;" d="M48,77.6l400,340.8c26.4,0,48-21.6,48-48.8v-14.4L218.4,77.6H48z"/>
<path style="fill:#96051D;" d="M448,418.4c26.4,0,48-21.6,48-48.8H391.2L448,418.4z"/>
<polygon style="fill:#B20820;" points="218.4,77.6 48,77.6 292.8,152.8 "/>
<path style="fill:#FCD116;" d="M323.2,182.4c-4,5.6-13.6-5.6-25.6-5.6c-11.2,0-20,11.2-23.2,15.2c-3.2,4-14.4,24-14.4,26.4
	s6.4-6.4,8.8-7.2c0,3.2-2.4,6.4-1.6,7.2c0.8,0.8,8.8-5.6,11.2-6.4c0.8,1.6-1.6,4-0.8,6.4c0.8,0.8,5.6-4.8,8-6.4
	c0.8,2.4-2.4,6.4-0.8,8.8c1.6,0,8.8-8,11.2-8.8c2.4-0.8-1.6,8,0,8.8c2.4-1.6,8.8-8.8,11.2-10.4c2.4-0.8,0,9.6,0.8,9.6
	c2.4-1.6,9.6-11.2,10.4-12.8c0.8-1.6-0.8,14.4,6.4,22.4c7.2,8,19.2,17.6,20,17.6c1.6-2.4-0.8-8,0.8-8c3.2,4,9.6,8.8,11.2,8.8
	s-0.8-5.6,0.8-5.6c4,4,15.2,17.6,36.8,24c-1.6-4-4.8-8-4.8-9.6c1.6,0,6.4,2.4,7.2,2.4c0.8,0-10.4-14.4-9.6-16.8c2.4,0,4,1.6,4.8,0
	c-1.6-1.6-11.2-13.6-11.2-16s3.2,0.8,4,0s-4-10.4-3.2-12s11.2,6.4,14.4,6.4c2.4,0,0.8-9.6,1.6-9.6c1.6-0.8,10.4,4.8,12,4.8
	s1.6-4,2.4-4c0.8,0.8,21.6,21.6,14.4,46.4c-6.4,20-21.6,29.6-42.4,21.6c1.6,1.6,12.8,11.2,24.8,8s27.2-12.8,25.6-36.8
	s-9.6-27.2-11.2-31.2s1.6,0.8,4.8,1.6c2.4,0.8-0.8-4.8-1.6-8c-0.8-2.4,8,5.6,10.4,6.4s-4.8-20-7.2-21.6c-2.4-1.6,2.4,0.8,4,0.8
	s-13.6-22.4-16.8-22.4c-3.2,0,2.4-1.6,4-1.6S404,160,400.8,160s6.4-4,8-4s-21.6-12-42.4,0c-1.6-0.8,9.6-8.8,10.4-12c0-0.8-4-2.4-4-4
	c0-0.8,5.6-4,6.4-6.4c-1.6-1.6-4-1.6-5.6-1.6c0-1.6,4.8-6.4,4.8-8c0-0.8-4-1.6-5.6-0.8c-0.8,0.8,2.4-4.8,1.6-6.4c-0.8-0.8-2.4,0-4,0
	s6.4-10.4,4.8-12s-21.6,10.4-29.6,24c-7.2,13.6-1.6,24.8-2.4,28.8s-2.4,8.8-5.6,8.8s-10.4-4.8-12.8-7.2c-2.4-2.4-3.2-4-6.4-4.8
	c-3.2-0.8-11.2,1.6-14.4,2.4c-3.2,0-14.4-2.4-15.2-1.6c-0.8,0.8,11.2,4.8,13.6,6.4s3.2,3.2,4.8,4.8
	C310.4,169.6,328.8,175.2,323.2,182.4z M393.6,216.8c5.6,5.6,44.8,32,44.8,64s-28.8,31.2-36.8,29.6c8.8,8,44,6.4,44-29.6
	c0-32-44.8-64-50.4-66.4S388,211.2,393.6,216.8z"/>
<g>
	<path style="fill:#F9B419;" d="M416.8,177.6c-3.2,0,2.4-1.6,4-1.6s-16.8-15.2-20-15.2s6.4-4,8-4s-21.6-12-42.4,0
		c-1.6-0.8,9.6-8.8,10.4-12c0-0.8-4-2.4-4-4c0-0.8,5.6-4,6.4-6.4c-1.6-1.6-4-1.6-5.6-1.6c0-1.6,4.8-6.4,4.8-8c0-0.8-4-1.6-5.6-0.8
		c-0.8,0.8,2.4-4.8,1.6-6.4c-0.8-0.8-2.4,0-4,0s6.4-10.4,4.8-12s-21.6,10.4-29.6,24c-7.2,13.6-1.6,24.8-2.4,28.8
		c-0.8,3.2-1.6,5.6-2.4,7.2l90.4,27.2C426.4,188,419.2,177.6,416.8,177.6z"/>
	<path style="fill:#F9B419;" d="M325.6,161.6c-2.4-2.4-3.2-4-6.4-4.8c-2.4-0.8-5.6,0-8.8,0.8l16,4.8
		C325.6,162.4,325.6,162.4,325.6,161.6z"/>
</g>
<g>
	<path style="fill:#FFE67B;" d="M269.6,211.2c0,3.2-2.4,6.4-1.6,7.2s8.8-5.6,11.2-6.4c0.8,1.6-1.6,4-0.8,6.4c0.8,0.8,5.6-4.8,8-6.4
		c0.8,2.4-2.4,6.4-0.8,8.8c1.6,0,8.8-8,11.2-8.8s-1.6,8,0,8.8c2.4-1.6,8.8-8.8,11.2-10.4c2.4-0.8,0,9.6,0.8,9.6
		c2.4-1.6,9.6-11.2,10.4-12.8s-0.8,14.4,6.4,22.4c7.2,8,19.2,17.6,20,17.6c1.6-2.4-0.8-8,0.8-8c3.2,4,9.6,8.8,11.2,8.8
		s-0.8-5.6,0.8-5.6c4,4,15.2,17.6,36.8,24c-1.6-4-4.8-8-4.8-9.6c1.6,0,6.4,2.4,7.2,2.4c0.8,0-4.8-7.2-8-12l-66.4-66.4l0,0
		c-4,5.6-13.6-5.6-25.6-5.6c-11.2,0-20,11.2-23.2,15.2c-3.2,4-14.4,24-14.4,26.4C260.8,220.8,267.2,212,269.6,211.2z"/>
	<path style="fill:#FFE67B;" d="M304,164c2.4,1.6,3.2,3.2,4.8,4.8c0,0,0.8,0,0.8,0.8l-10.4-10.4c-4-0.8-8.8-1.6-8.8-0.8
		C289.6,158.4,300.8,162.4,304,164z"/>
	<path style="fill:#FFE67B;" d="M408.8,288c4.8-1.6,8.8-3.2,13.6-6.4l-5.6-5.6c-8,7.2-19.2,9.6-32.8,4
		C384.8,282.4,396.8,291.2,408.8,288z"/>
	<path style="fill:#FFE67B;" d="M436,295.2c-7.2,16.8-27.2,16-33.6,15.2c7.2,5.6,28.8,6.4,39.2-10.4L436,295.2z"/>
</g>
<g>
	<polygon style="fill:#FFFFFF;" points="113.2,180.8 118,196.8 134,196.8 121.2,206.4 126,220.8 113.2,212 101.2,220.8 106,206.4 
		93.2,196.8 108.4,196.8 	"/>
	<polygon style="fill:#FFFFFF;" points="126.4,331.2 131.2,346.4 147.2,346.4 134.4,356 139.2,371.2 126.4,361.6 114.4,371.2 
		119.2,356 106.4,346.4 121.6,346.4 	"/>
	<polygon style="fill:#FFFFFF;" points="148,298.4 150.4,305.6 157.6,305.6 152,310.4 154.4,318.4 148,313.6 141.6,318.4 144,310.4 
		137.6,305.6 145.6,305.6 	"/>
</g>
<g transform="translate(-87.58 -104.5)">
	<polygon style="fill:#FFFFFF;" points="265.2,350.9 270,366.1 286,366.1 273.2,375.7 278,390.9 265.2,381.3 253.2,390.9 258,375.7 
		245.2,366.1 260.4,366.1 	"/>
</g>
<g transform="translate(-88 112.5)">
	<polygon style="fill:#FFFFFF;" points="151.6,135.5 156.4,150.7 171.6,150.7 159.6,160.3 164.4,175.5 151.6,165.9 139.6,174.7 
		144.4,160.3 131.6,150.7 146.8,150.7 	"/>
</g>
<g>
</g>
<g>
</g>
<g>
</g>
<g>
</g>
<g>
</g>
<g>
</g>
<g>
</g>
<g>
</g>
<g>
</g>
<g>
</g>
<g>
</g>
<g>
</g>
<g>
</g>
<g>
</g>
<g>
</g>
</svg>
