<?xml version="1.0" encoding="iso-8859-1"?>
<!-- Generator: Adobe Illustrator 19.0.0, SVG Export Plug-In . SVG Version: 6.00 Build 0)  -->
<svg version="1.1" id="Capa_1" xmlns="http://www.w3.org/2000/svg" xmlns:xlink="http://www.w3.org/1999/xlink" x="0px" y="0px"
	 viewBox="0 0 496 496" style="enable-background:new 0 0 496 496;" xml:space="preserve">
<path style="fill:#DB2727;" d="M496,369.6c0,27.2-21.6,48.8-48,48.8H48c-26.4,0-48-21.6-48-48.8V126.4c0-27.2,21.6-48.8,48-48.8h400
	c26.4,0,48,21.6,48,48.8V369.6z"/>
<path id="SVGCleanerId_0" style="fill:#C41E1E;" d="M48,77.6h400c26.4,0,48,21.6,48,48.8v243.2c0,27.2-21.6,48.8-48,48.8"/>
<path id="SVGCleanerId_1" style="fill:#AF1515;" d="M48,77.6h400c26.4,0,48,21.6,48,48.8v88.8"/>
<path id="SVGCleanerId_2" style="fill:#AF1515;" d="M496,369.6c0,27.2-21.6,48.8-48,48.8H48c-26.4,0-48-21.6-48-48.8"/>
<g>
	<path id="SVGCleanerId_0_1_" style="fill:#C41E1E;" d="M48,77.6h400c26.4,0,48,21.6,48,48.8v243.2c0,27.2-21.6,48.8-48,48.8"/>
</g>
<g>
	<path id="SVGCleanerId_1_1_" style="fill:#AF1515;" d="M48,77.6h400c26.4,0,48,21.6,48,48.8v88.8"/>
</g>
<g>
	<path id="SVGCleanerId_2_1_" style="fill:#AF1515;" d="M496,369.6c0,27.2-21.6,48.8-48,48.8H48c-26.4,0-48-21.6-48-48.8"/>
</g>
<circle style="fill:#FDE500;" cx="248" cy="248" r="82.4"/>
<path style="fill:#FCBA00;" d="M248,165.6c-25.6,0-48,11.2-63.2,28.8l125.6,107.2c12-14.4,20-32.8,20-53.6
	C330.4,202.4,293.6,165.6,248,165.6z"/>
<path style="fill:#FDE73D;" d="M142.4,291.2L0,360.8v8.8c0,20.8,12.8,38.4,30.4,45.6l129.6-96l11.2-6.4c-7.2-8-12-17.6-16-28
	L142.4,291.2z"/>
<path style="fill:#FCBA00;" d="M0.8,378.4c0,2.4,0.8,4,1.6,6.4l0,0c0.8,2.4,1.6,4,2.4,5.6c0,0,0,0.8,0.8,0.8c0.8,1.6,2.4,4,3.2,5.6
	l0,0c1.6,1.6,2.4,3.2,4,4.8c0,0,0,0,0.8,0.8c2.4,4,6.4,7.2,10.4,9.6l0,0c2.4,0.8,4,2.4,6.4,3.2l0,0l60.8-45.6H0c0,2.4,0,4.8,0.8,6.4
	C0.8,376.8,0.8,377.6,0.8,378.4z"/>
<path style="fill:#FDE73D;" d="M210.4,418.4h75.2L272,345.6c-8,1.6-16,3.2-24,3.2s-16.8-0.8-24-3.2L210.4,418.4z"/>
<g>
	<polygon style="fill:#FCBA00;" points="219.2,369.6 210.4,418.4 285.6,418.4 276.8,369.6 	"/>
	<path style="fill:#FCBA00;" d="M496,369.6v-8.8l-142.4-69.6l-11.2-7.2c-4,10.4-9.6,19.2-16,28l11.2,6.4l129.6,96
		C483.2,408,496,390.4,496,369.6z"/>
</g>
<path style="fill:#F99900;" d="M465.6,415.2c2.4-0.8,4-1.6,6.4-3.2l0,0c4-2.4,7.2-5.6,10.4-8.8c0,0,0,0,0.8-0.8
	c1.6-1.6,3.2-3.2,4-4.8l0,0c1.6-1.6,2.4-4,3.2-5.6c0,0,0-0.8,0.8-0.8c0.8-1.6,1.6-4,2.4-5.6l0,0c0.8-2.4,0.8-4,1.6-6.4
	c0-0.8,0-0.8,0-1.6c0-2.4,0.8-4.8,0.8-6.4h-91.2L465.6,415.2z"/>
<g>
	<path style="fill:#FCBA00;" d="M496,218.4l-134.4,12.8h-14.4c0.8,5.6,1.6,11.2,1.6,16.8c0,4.8,0,10.4-0.8,15.2h13.6L496,276V218.4z
		"/>
	<path style="fill:#FCBA00;" d="M496,126.4c0-21.6-13.6-39.2-32-45.6l-127.2,94.4l-12,7.2c7.2,8,12.8,17.6,16.8,27.2l12-7.2
		L496,132.8V126.4z"/>
	<path style="fill:#FCBA00;" d="M211.2,77.6l12.8,72.8c8-1.6,16-3.2,24-3.2s16,0.8,24,3.2l12.8-72.8
		C284.8,77.6,211.2,77.6,211.2,77.6z"/>
</g>
<g>
	<path style="fill:#FDE73D;" d="M32,80c-18.4,6.4-32,24.8-32,45.6v6.4l142.4,69.6l12,7.2c4-10.4,9.6-19.2,16.8-27.2l-12-7.2L32,80z"
		/>
	<path style="fill:#FDE73D;" d="M134.4,231.2L0,218.4V276l134.4-12.8H148c-0.8-4.8-0.8-9.6-0.8-15.2s0.8-11.2,1.6-16.8H134.4z"/>
</g>
<g>
</g>
<g>
</g>
<g>
</g>
<g>
</g>
<g>
</g>
<g>
</g>
<g>
</g>
<g>
</g>
<g>
</g>
<g>
</g>
<g>
</g>
<g>
</g>
<g>
</g>
<g>
</g>
<g>
</g>
</svg>
