<?xml version="1.0" encoding="iso-8859-1"?>
<!-- Generator: Adobe Illustrator 19.0.0, SVG Export Plug-In . SVG Version: 6.00 Build 0)  -->
<svg version="1.1" id="Capa_1" xmlns="http://www.w3.org/2000/svg" xmlns:xlink="http://www.w3.org/1999/xlink" x="0px" y="0px"
	 viewBox="0 0 496 496" style="enable-background:new 0 0 496 496;" xml:space="preserve">
<path style="fill:#FFFFFF;" d="M496,369.6c0,27.2-21.6,48.8-48,48.8H48c-26.4,0-48-21.6-48-48.8V126.4c0-27.2,21.6-48.8,48-48.8h400
	c26.4,0,48,21.6,48,48.8V369.6z"/>
<path style="fill:#E9F3F4;" d="M48,77.6h400c26.4,0,48,21.6,48,48.8v243.2c0,27.2-21.6,48.8-48,48.8L48,77.6z"/>
<g>
	<path style="fill:#D9ECED;" d="M0,369.6c0,27.2,21.6,48.8,48,48.8h400c26.4,0,48-21.6,48-48.8H0z"/>
	<path style="fill:#D9ECED;" d="M448,77.6H48l448,137.6v-88.8C496,99.2,474.4,77.6,448,77.6z"/>
</g>
<path style="fill:#D21034;" d="M448,77.6H248V248h248V126.4C496,99.2,474.4,77.6,448,77.6z"/>
<path style="fill:#A50A2C;" d="M448,77.6H248v61.6l248,76v-88.8C496,99.2,474.4,77.6,448,77.6z"/>
<path style="fill:#005293;" d="M0,369.6c0,27.2,21.6,48.8,48,48.8h200V248H0V369.6z"/>
<path style="fill:#114568;" d="M0,369.6c0,27.2,21.6,48.8,48,48.8h200v-48.8H0z"/>
<polygon style="fill:#D21034;" points="392,342.4 416.8,324.8 386.4,324.8 376.8,295.2 367.2,324.8 336,324.8 360.8,342.4 
	351.2,372 376.8,354.4 401.6,372 "/>
<polygon style="fill:#005293;" points="137.5,172.4 162.3,154.8 131.9,154.8 122.3,125.2 112.7,154.8 81.5,154.8 106.3,172.4 
	96.7,202 122.3,184.4 147.1,202 "/>
<g>
	<polygon style="fill:#114568;" points="138.6,154.8 149.4,164 162.3,154.8 	"/>
	<polygon style="fill:#114568;" points="122.3,125.2 118.3,137.5 129.3,146.9 	"/>
</g>
<polygon style="fill:#A50A2C;" points="386.4,324.8 376.8,295.2 367.2,324.8 337.6,324.8 350.4,335.2 360.8,342.4 360.8,344 
	374.4,355.2 376.8,354.4 401.6,372 392,342.4 416.8,324.8 "/>
<g>
</g>
<g>
</g>
<g>
</g>
<g>
</g>
<g>
</g>
<g>
</g>
<g>
</g>
<g>
</g>
<g>
</g>
<g>
</g>
<g>
</g>
<g>
</g>
<g>
</g>
<g>
</g>
<g>
</g>
</svg>
