<?xml version="1.0" encoding="iso-8859-1"?>
<!-- Generator: Adobe Illustrator 19.0.0, SVG Export Plug-In . SVG Version: 6.00 Build 0)  -->
<svg version="1.1" id="Capa_1" xmlns="http://www.w3.org/2000/svg" xmlns:xlink="http://www.w3.org/1999/xlink" x="0px" y="0px"
	 viewBox="0 0 496 496" style="enable-background:new 0 0 496 496;" xml:space="preserve">
<path style="fill:#002B7F;" d="M496,369.6c0,27.2-21.6,46.4-48,46.4H48c-26.4,0-48-19.2-48-46.4V126.4C0,99.2,21.6,80,48,80h400
	c26.4,0,48,19.2,48,46.4V369.6z"/>
<path style="fill:#032760;" d="M48,80h400c26.4,0,48,19.2,48,46.4v243.2c0,27.2-25.6,46.4-52,46.4"/>
<g>
	<path style="fill:#031D42;" d="M48,80h400c26.4,0,48,19.2,48,46.4V216"/>
	<path style="fill:#031D42;" d="M496,368.8c0,29.6-21.6,47.2-48,47.2H48c-26.4,0-48-20.8-48-48"/>
</g>
<rect y="232" style="fill:#FFC61E;" width="496" height="32"/>
<polygon style="fill:#DDA20E;" points="265.6,264 496,264 496,232 227.2,232 "/>
<path style="fill:#FFFFFF;" d="M99.2,380.8l-6.4-24l-17.6,17.6l7.2-24l-24,7.2L76,340l-24-6.4l24-6.4l-17.6-17.6l24,7.2l-7.2-24
	l17.6,17.6l6.4-24l6.4,24l17.6-17.6l-7.2,24l24-7.2L121.6,328l24,6.4l-24,6.4l18.4,17.6l-24-7.2l7.2,24l-17.6-17.6L99.2,380.8z"/>
<g>
</g>
<g>
</g>
<g>
</g>
<g>
</g>
<g>
</g>
<g>
</g>
<g>
</g>
<g>
</g>
<g>
</g>
<g>
</g>
<g>
</g>
<g>
</g>
<g>
</g>
<g>
</g>
<g>
</g>
</svg>
