<?xml version="1.0" encoding="iso-8859-1"?>
<!-- Generator: Adobe Illustrator 19.0.0, SVG Export Plug-In . SVG Version: 6.00 Build 0)  -->
<svg version="1.1" id="Capa_1" xmlns="http://www.w3.org/2000/svg" xmlns:xlink="http://www.w3.org/1999/xlink" x="0px" y="0px"
	 viewBox="0 0 496 496" style="enable-background:new 0 0 496 496;" xml:space="preserve">
<g>
	<path style="fill:#CE1126;" d="M0,304v65.6C0,396.8,21.6,416,48,416h400c26.4,0,48-19.2,48-46.4V304H0z"/>
	<path style="fill:#CE1126;" d="M448,80H48C21.6,80,0,99.2,0,126.4V192h496v-65.6C496,99.2,474.4,80,448,80z"/>
</g>
<rect y="192" style="fill:#002868;" width="496" height="112"/>
<g>
	<path style="fill:#B70620;" d="M446.4,416c26.4,0,49.6-19.2,49.6-46.4V304H315.2L446.4,416z"/>
	<path style="fill:#B70620;" d="M448,80H48l132,112h316v-65.6C496,99.2,474.4,80,448,80z"/>
</g>
<polygon style="fill:#001E49;" points="315.2,304 496,304 496,192 180,192 "/>
<path style="fill:#9E001E;" d="M448,80H48l367.2,112H496v-65.6C496,99.2,474.4,80,448,80z"/>
<polygon style="fill:#001126;" points="496,214.4 496,192 414.4,192 "/>
<path style="fill:#9E001E;" d="M496,368.8c0,30.4-21.6,47.2-48,47.2H48c-26.4,0-48-20.8-48-48"/>
<circle style="fill:#EDF7F7;" cx="248" cy="248" r="42.4"/>
<path style="fill:#CAE0DF;" d="M248,205.6c-14.4,0-25.6,6.4-32.8,16l65.6,54.4c6.4-7.2,10.4-16.8,10.4-28
	C290.4,224.8,271.2,205.6,248,205.6z"/>
<g>
</g>
<g>
</g>
<g>
</g>
<g>
</g>
<g>
</g>
<g>
</g>
<g>
</g>
<g>
</g>
<g>
</g>
<g>
</g>
<g>
</g>
<g>
</g>
<g>
</g>
<g>
</g>
<g>
</g>
</svg>
