<?xml version="1.0" encoding="iso-8859-1"?>
<!-- Generator: Adobe Illustrator 19.0.0, SVG Export Plug-In . SVG Version: 6.00 Build 0)  -->
<svg version="1.1" id="Capa_1" xmlns="http://www.w3.org/2000/svg" xmlns:xlink="http://www.w3.org/1999/xlink" x="0px" y="0px"
	 viewBox="0 0 496 496" style="enable-background:new 0 0 496 496;" xml:space="preserve">
<path style="fill:#E70013;" d="M496,369.6c0,27.2-21.6,48.8-48,48.8H48c-26.4,0-48-21.6-48-48.8V126.4c0-27.2,21.6-48.8,48-48.8h400
	c26.4,0,48,21.6,48,48.8V369.6z"/>
<path style="fill:#D30B0B;" d="M48,77.6h400c26.4,0,48,21.6,48,48.8v243.2c0,27.2-21.6,48.8-48,48.8"/>
<g>
	<path style="fill:#C10000;" d="M48,77.6h400c26.4,0,48,21.6,48,48.8v88.8"/>
	<path style="fill:#C10000;" d="M496,369.6c0,27.2-21.6,48.8-48,48.8H48c-26.4,0-48-21.6-48-48.8"/>
</g>
<g>
	<path style="fill:#3A3939;" d="M134.4,229.6H23.2l47.2-87.2c6.4-12,21.6-21.6,33.6-21.6h88.8L134.4,229.6 M134.4,229.6h87.2
		l-46.4,84.8H88L134.4,229.6z M282.4,229.6h-60.8l30.4-56c4-7.2,14.4-13.6,22.4-13.6H336l-31.2,56
		C300.8,223.2,290.4,229.6,282.4,229.6z M364.8,120h32.8L380,152c-2.4,4-8,8-12,8h-32.8l17.6-32C355.2,123.2,360,120,364.8,120z
		 M187.2,376h-46.4l33.6-61.6h60.8l-25.6,46.4C205.6,369.6,195.2,376,187.2,376z"/>
	<path style="fill:#3A3939;" d="M104.8,120.8h88.8l-59.2,108.8 M134.4,229.6H23.2 M134.4,229.6h87.2l-46.4,84.8H88L134.4,229.6z
		 M282.4,229.6h-60.8l30.4-56c4-7.2,14.4-13.6,22.4-13.6H336l-31.2,56C300.8,223.2,290.4,229.6,282.4,229.6z M364.8,120h32.8
		L380,152c-2.4,4-8,8-12,8h-32.8l17.6-32C355.2,123.2,360,120,364.8,120z M187.2,376h-46.4l33.6-61.6h60.8l-25.6,46.4
		C205.6,369.6,195.2,376,187.2,376z"/>
	<path style="fill:#3A3939;" d="M193.6,120.8l-59.2,108.8 M134.4,229.6H23.2 M134.4,229.6h87.2l-46.4,84.8H88L134.4,229.6z
		 M282.4,229.6h-60.8l30.4-56c4-7.2,14.4-13.6,22.4-13.6H336l-31.2,56C300.8,223.2,290.4,229.6,282.4,229.6z M364.8,120h32.8
		L380,152c-2.4,4-8,8-12,8h-32.8l17.6-32C355.2,123.2,360,120,364.8,120z M187.2,376h-46.4l33.6-61.6h60.8l-25.6,46.4
		C205.6,369.6,195.2,376,187.2,376z"/>
</g>
<path style="fill:#FFFFFF;" d="M310.4,240.8c4.8,0,8,1.6,10.4,4.8c1.6,3.2,1.6,7.2-0.8,12l-15.2,28c-2.4,4.8-7.2,8.8-12,12
	s-10.4,4.8-15.2,4.8c-4.8,0-8.8-1.6-10.4-4.8c-1.6-3.2-1.6-7.2,0.8-12l15.2-28c2.4-4.8,7.2-8.8,12-12
	C300,242.4,305.6,240.8,310.4,240.8 M307.2,254.4c-0.8-0.8-1.6-1.6-3.2-1.6s-3.2,0.8-4.8,1.6c-1.6,0.8-2.4,1.6-3.2,3.2l-15.2,28
	c-0.8,1.6-0.8,2.4,0,3.2c0.8,0.8,1.6,1.6,3.2,1.6s3.2-0.8,4.8-1.6c1.6-0.8,2.4-1.6,3.2-3.2l15.2-28C308,256.8,308,255.2,307.2,254.4
	z M378.4,240.8c4.8,0,8,1.6,9.6,4.8c1.6,3.2,1.6,7.2-0.8,12l-15.2,28c-2.4,4.8-7.2,8.8-12,12s-10.4,4.8-15.2,4.8
	c-4.8,0-8-1.6-10.4-4.8c-1.6-3.2-1.6-7.2,0.8-12l15.2-28c2.4-4.8,7.2-8.8,12-12C368,242.4,373.6,240.8,378.4,240.8z M375.2,254.4
	c-0.8-0.8-1.6-1.6-3.2-1.6s-3.2,0.8-4.8,1.6c-1.6,0.8-2.4,1.6-3.2,3.2l-15.2,28c-0.8,1.6-0.8,2.4,0,3.2c0.8,0.8,1.6,1.6,3.2,1.6
	s3.2-0.8,4.8-1.6c1.6-0.8,2.4-1.6,3.2-3.2l15.2-28C375.2,256.8,375.2,255.2,375.2,254.4z M412.8,264.8l4-7.2c0.8-1.6,0.8-2.4,0-3.2
	c-0.8-0.8-1.6-1.6-3.2-1.6s-3.2,0.8-4.8,1.6c-1.6,0.8-2.4,1.6-3.2,3.2l-15.2,28c-0.8,1.6-0.8,2.4,0,3.2c0.8,0.8,1.6,1.6,3.2,1.6
	s3.2-0.8,4.8-1.6c1.6-0.8,2.4-1.6,3.2-3.2l1.6-3.2h-5.6l6.4-12h18.4l-8.8,15.2c-2.4,4.8-7.2,8.8-12,12s-10.4,4.8-15.2,4.8
	c-4.8,0-8.8-1.6-10.4-4.8c-1.6-3.2-1.6-7.2,0.8-12l15.2-28c2.4-4.8,7.2-8.8,12-12c4.8-3.2,10.4-4.8,15.2-4.8c4.8,0,8,1.6,10.4,4.8
	c1.6,3.2,1.6,7.2-0.8,12l-4,7.2H412.8z M409.6,302.4l24.8-44.8c2.4-4.8,7.2-8.8,12-12c4.8-3.2,10.4-4.8,15.2-4.8
	c4.8,0,8,1.6,10.4,4.8c1.6,3.2,1.6,7.2-0.8,12l-4,8c-2.4,4.8-7.2,8.8-12,12s-10.4,4.8-15.2,4.8h-5.6l-6.4,12c-2.4,4-9.6,8-13.6,8
	H409.6z M446.4,257.6l-6.4,12.8h5.6c1.6,0,3.2-0.8,4.8-1.6c1.6-0.8,2.4-1.6,3.2-3.2l4-8c0.8-1.6,0.8-2.4,0-3.2
	c-0.8-0.8-1.6-1.6-3.2-1.6s-3.2,0.8-4.8,1.6C448,255.2,447.2,256.8,446.4,257.6z M323.2,302.4C321.6,302.4,323.2,302.4,323.2,302.4
	c-5.6,0-10.4-0.8-12.8-3.2c-3.2-2.4-4-7.2,0-13.6l0,0l0,0l0,0l26.4-48c2.4-4.8,8.8-6.4,12-6.4h4l-4.8,9.6h9.6l-6.4,12h-9.6
	L324,285.6l0,0l0,0c-0.8,1.6-0.8,2.4,0,3.2c0.8,0.8,4,1.6,6.4,1.6c1.6,0,0,0,0.8,0L323.2,302.4L323.2,302.4z M195.2,302.4l25.6-46.4
	c2.4-4,6.4-8,11.2-11.2c4.8-2.4,9.6-4.8,13.6-4.8h24c4.8,0,7.2,1.6,8.8,4.8c1.6,3.2,1.6,6.4-0.8,11.2l-20.8,38.4
	c-2.4,4-9.6,8-13.6,8H240l25.6-46.4c0.8-0.8,0.8-1.6,0-2.4c0-0.8-0.8-0.8-2.4-0.8h-5.6l-23.2,41.6c-2.4,4-9.6,8-13.6,8h-3.2
	l27.2-49.6h-5.6c-0.8,0-2.4,0-3.2,0.8s-1.6,1.6-2.4,2.4l-20.8,38.4c-2.4,4-9.6,8-13.6,8H195.2z"/>
<g>
	<path style="fill:#DAEAF2;" d="M356.8,269.6H344l-8,16c-2.4,4.8-3.2,8.8-0.8,12c1.6,3.2,4.8,4.8,10.4,4.8c4.8,0,10.4-1.6,15.2-4.8
		c4.8-3.2,9.6-7.2,12-12l8.8-15.2H368l-8.8,15.2c-0.8,1.6-1.6,2.4-3.2,3.2c-1.6,0.8-3.2,1.6-4.8,1.6c-1.6,0-2.4-0.8-3.2-1.6
		c-0.8-0.8,0-1.6,0-3.2L356.8,269.6z"/>
	<path style="fill:#DAEAF2;" d="M399.2,269.6h-12.8l-8.8,15.2c-2.4,4.8-3.2,8.8-0.8,12c1.6,3.2,4.8,4.8,10.4,4.8
		c4.8,0,10.4-1.6,15.2-4.8c4.8-3.2,9.6-7.2,12-12l8.8-15.2h-18.4l-6.4,12h5.6l-1.6,3.2c-0.8,1.6-1.6,2.4-3.2,3.2
		c-1.6,0.8-3.2,1.6-4.8,1.6c-1.6,0-2.4-0.8-3.2-1.6c-0.8-0.8,0-1.6,0-3.2L399.2,269.6z"/>
	<path style="fill:#DAEAF2;" d="M288.8,269.6H276l-8.8,15.2c-2.4,4.8-3.2,8.8-0.8,12c1.6,3.2,4.8,4.8,10.4,4.8
		c4.8,0,10.4-1.6,15.2-4.8c4.8-3.2,9.6-7.2,12-12l8.8-15.2H300l-8.8,15.2c-0.8,1.6-1.6,2.4-3.2,3.2c-1.6,0.8-3.2,1.6-4.8,1.6
		c-1.6,0-2.4-0.8-3.2-1.6c-0.8-0.8-0.8-1.6,0-3.2L288.8,269.6z"/>
	<path style="fill:#DAEAF2;" d="M212,295.2l13.6-24.8h-12.8l-17.6,32.8h3.2C202.4,302.4,210.4,299.2,212,295.2z"/>
	<path style="fill:#DAEAF2;" d="M240,302.4h3.2c4,0,11.2-4,13.6-8l13.6-24.8h-12.8L240,302.4z"/>
	<path style="fill:#DAEAF2;" d="M323.2,285.6L323.2,285.6l8.8-15.2h-12.8l-8.8,15.2l0,0l0,0l0,0c-3.2,6.4-3.2,11.2,0,13.6
		c2.4,2.4,7.2,3.2,12,3.2c0.8,0-0.8,0,0.8,0l6.4-12c-0.8,0,0.8,0-0.8,0c-3.2,0-5.6,0-6.4-1.6C322.4,288,321.6,287.2,323.2,285.6
		L323.2,285.6z"/>
	<path style="fill:#DAEAF2;" d="M447.2,269.6c-0.8,0-0.8,0-1.6,0H440l0,0h-12.8l-17.6,32.8h3.2c4,0,11.2-4,13.6-8l6.4-12h5.6
		c4.8,0,10.4-1.6,15.2-4.8c3.2-2.4,6.4-4.8,8.8-8H447.2z"/>
	<path style="fill:#DAEAF2;" d="M217.6,302.4h3.2c4,0,11.2-4,13.6-8l13.6-24.8h-12.8L217.6,302.4z"/>
</g>
<g>
	<polygon style="fill:#1E1917;" points="89.6,314.4 175.2,314.4 220,231.2 	"/>
	<path style="fill:#1E1917;" d="M141.6,376H188c8,0,18.4-6.4,22.4-14.4l25.6-46.4h-60.8L141.6,376z"/>
	<path style="fill:#1E1917;" d="M336,157.6l-0.8,1.6H368c4,0,9.6-3.2,12-8l17.6-32H396L336,157.6z"/>
	<path style="fill:#1E1917;" d="M223.2,229.6h59.2c8,0,18.4-6.4,22.4-13.6l30.4-56.8h-1.6L223.2,229.6z"/>
</g>
<g>
</g>
<g>
</g>
<g>
</g>
<g>
</g>
<g>
</g>
<g>
</g>
<g>
</g>
<g>
</g>
<g>
</g>
<g>
</g>
<g>
</g>
<g>
</g>
<g>
</g>
<g>
</g>
<g>
</g>
</svg>
