<?xml version="1.0" encoding="iso-8859-1"?>
<!-- Generator: Adobe Illustrator 19.0.0, SVG Export Plug-In . SVG Version: 6.00 Build 0)  -->
<svg version="1.1" id="Capa_1" xmlns="http://www.w3.org/2000/svg" xmlns:xlink="http://www.w3.org/1999/xlink" x="0px" y="0px"
	 viewBox="0 0 496 496" style="enable-background:new 0 0 496 496;" xml:space="preserve">
<path style="fill:#E8112D;" d="M496,369.6c0,27.2-21.6,48.8-48,48.8H48c-26.4,0-48-21.6-48-48.8V126.4c0-27.2,21.6-48.8,48-48.8h400
	c26.4,0,48,21.6,48,48.8V369.6z"/>
<path style="fill:#D6092C;" d="M48,77.6h400c26.4,0,48,21.6,48,48.8v243.2c0,27.2-21.6,48.8-48,48.8"/>
<g>
	<path style="fill:#C4003D;" d="M48,77.6h400c26.4,0,48,21.6,48,48.8v88.8"/>
	<path style="fill:#C4003D;" d="M496,369.6c0,27.2-21.6,48.8-48,48.8H48c-26.4,0-48-21.6-48-48.8"/>
</g>
<path style="fill:#FFEF00;" d="M372,248c-16,4-33.6-8.8-48-6.4c0,0,0,0,0-0.8c14.4-7.2,38.4,0.8,46.4-12.8
	c-15.2,6.4-34.4-3.2-48.8,1.6v-0.8c12.8-8.8,37.6-4.8,44-20c-13.6,8.8-34.4,2.4-47.2,8.8v-0.8c11.2-10.4,36-11.2,40-26.4
	c-12,10.4-33.6,7.2-45.6,16c0,0,0,0,0-0.8c9.6-12,33.6-16,35.2-32c-10.4,12.8-32,12.8-42.4,23.2c0,0,0,0-0.8-0.8
	c8-13.6,31.2-21.6,30.4-37.6c-8,13.6-28.8,17.6-38.4,29.6c0,0,0,0-0.8-0.8c5.6-14.4,27.2-25.6,24-41.6
	c-6.4,15.2-25.6,21.6-32.8,34.4c0,0-0.8,0-0.8-0.8c3.2-15.2,22.4-29.6,16.8-44.8c-4,16-22.4,25.6-27.2,39.2h-0.8
	c0.8-15.2,17.6-32.8,9.6-46.4c-0.8,16-17.6,28.8-20.8,43.2h-0.8c-1.6-15.2,12-35.2,2.4-47.2c1.6,16-13.6,31.2-13.6,45.6h-0.8
	c-4-15.2,6.4-36.8-4.8-47.2c4,16-8,32.8-6.4,47.2h-0.8c-6.4-14.4,0.8-37.6-12-45.6c6.4,15.2-3.2,33.6,1.6,48H228
	c-8-13.6-4.8-36.8-19.2-43.2c8.8,13.6,2.4,33.6,8.8,47.2h-0.8c-10.4-12-10.4-36-25.6-40c10.4,12,7.2,32.8,16,44.8c0,0-0.8,0-0.8,0.8
	c-12-9.6-16-33.6-32-35.2c12.8,10.4,12.8,31.2,23.2,42.4c0,0,0,0-0.8,0.8C184,182.4,176,159.2,160,160c14.4,8.8,17.6,29.6,29.6,38.4
	c0,0,0,0-0.8,0.8c-14.4-5.6-26.4-27.2-41.6-24c15.2,6.4,21.6,26.4,35.2,32.8c0,0,0,0,0,0.8c-15.2-3.2-30.4-23.2-44.8-16.8
	c16,4,25.6,23.2,40,27.2c0,0,0,0,0,0.8c-16-0.8-33.6-17.6-47.2-9.6c16.8,0.8,28.8,18.4,44,20.8c0,0,0,0,0,0.8
	c-16,2.4-36-12.8-48-2.4c16.8-1.6,32,14.4,47.2,13.6c0,0,0,0,0,0.8c-15.2,4.8-37.6-6.4-48,5.6c16-4,33.6,8.8,48.8,6.4c0,0,0,0,0,0.8
	C160,264,136,256,127.2,269.6c15.2-6.4,34.4,4,48.8-1.6c0,0,0,0,0,0.8c-12.8,9.6-38.4,5.6-44.8,20c14.4-8.8,35.2-1.6,48-9.6l0,0
	c-11.2,11.2-36.8,11.2-40.8,27.2c12.8-11.2,34.4-7.2,46.4-16.8l0,0c-9.6,12.8-34.4,16.8-36,33.6c11.2-12.8,32.8-12.8,43.2-24l0,0
	c-8,12.8-32.8,20-32,36.8c8.8-14.4,31.2-17.6,39.2-30.4l0,0c-4.8,15.2-28,27.2-24.8,43.2c6.4-16,28-22.4,33.6-36.8l0,0
	c-1.6,16-23.2,31.2-17.6,46.4c4-16.8,24-26.4,28-41.6l0,0c0.8,16-18.4,34.4-9.6,48.8c0.8-16.8,20-29.6,20.8-45.6l0,0
	c3.2,16-12.8,36.8-2.4,49.6c-1.6-16.8,15.2-32.8,13.6-48l0,0c5.6,15.2-6.4,38.4,5.6,49.6c-4-16.8,9.6-34.4,5.6-49.6l0,0
	c8,14.4-0.8,39.2,13.6,48c-6.4-16,4-35.2-1.6-49.6l0,0c9.6,12.8,5.6,38.4,20.8,45.6c-8.8-14.4-1.6-35.2-9.6-48.8l0,0
	c12,11.2,11.2,37.6,27.2,41.6c-11.2-12.8-7.2-34.4-16.8-46.4l0,0c13.6,8.8,16.8,35.2,33.6,36.8c-12.8-11.2-12.8-32.8-24-43.2l0,0
	c14.4,7.2,22.4,32,38.4,31.2c-14.4-8.8-17.6-30.4-30.4-39.2l0,0c15.2,4.8,27.2,28,43.2,24c-15.2-6.4-22.4-27.2-36-33.6l0,0
	c16,2.4,31.2,23.2,46.4,17.6c-16-4-25.6-23.2-40.8-27.2l0,0c16,0,33.6,18.4,48,9.6c-16.8-0.8-29.6-19.2-44-20.8c0,0,0,0,0-0.8
	c16-2.4,36,12.8,48.8,2.4c-16.8,1.6-32-14.4-47.2-13.6c0,0,0,0,0-0.8C339.2,248.8,361.6,260,372,248z M297.6,296.8
	c-13.6,13.6-31.2,20.8-49.6,20.8v2.4v-2.4c-39.2,0-70.4-32-70.4-70.4c0-19.2,7.2-36.8,20.8-49.6C211.2,184,229.6,176,248,176
	c39.2,0,70.4,32,70.4,70.4C318.4,265.6,311.2,283.2,297.6,296.8z"/>
<g>
	<path style="fill:#FFCE00;" d="M372,248c-16,4-33.6-8.8-48-6.4c0,0,0,0,0-0.8c14.4-7.2,38.4,0.8,46.4-12.8
		c-15.2,6.4-34.4-3.2-48.8,1.6v-0.8c12.8-8.8,37.6-4.8,44-20c-13.6,8.8-34.4,2.4-47.2,8.8v-0.8c11.2-10.4,36-11.2,40-26.4
		c-12,10.4-33.6,7.2-45.6,16c0,0,0,0,0-0.8c9.6-12,33.6-16,35.2-32c-10.4,12.8-32,12.8-42.4,23.2c0,0,0,0-0.8-0.8
		c8-13.6,31.2-21.6,30.4-37.6c-8,13.6-28.8,17.6-38.4,29.6c0,0,0,0-0.8-0.8c5.6-14.4,27.2-25.6,24-41.6
		c-6.4,15.2-25.6,21.6-32.8,34.4c0,0-0.8,0-0.8-0.8c3.2-15.2,22.4-29.6,16.8-44.8c-4,16-22.4,25.6-27.2,39.2h-0.8
		c0.8-15.2,17.6-32.8,9.6-46.4c-0.8,16-17.6,28.8-20.8,43.2h-0.8c-1.6-15.2,12-35.2,2.4-47.2c1.6,16-13.6,31.2-13.6,45.6h-0.8
		c-4-15.2,6.4-36.8-4.8-47.2c4,16-8,32.8-6.4,47.2h-0.8c-6.4-14.4,0.8-37.6-12-45.6c6.4,15.2-3.2,33.6,1.6,48H228
		c-8-13.6-4.8-36.8-19.2-43.2c8.8,13.6,2.4,33.6,8.8,47.2h-0.8c-10.4-12-10.4-36-25.6-40c10.4,12,7.2,32.8,16,44.8
		c0,0-0.8,0-0.8,0.8c-12-9.6-16-33.6-32-35.2c12.8,10.4,12.8,31.2,23.2,42.4c0,0,0,0-0.8,0.8C184,182.4,176,159.2,160,160
		c13.6,8,17.6,28,28.8,37.6l4.8,4c1.6-1.6,3.2-3.2,4-4.8c13.6-12.8,32-20.8,50.4-20.8c39.2,0,70.4,32,70.4,70.4
		c0,17.6-6.4,33.6-17.6,46.4l4,4l0,0c15.2,4.8,27.2,28,43.2,24c-15.2-6.4-22.4-27.2-36-33.6l0,0c16,2.4,31.2,23.2,46.4,17.6
		c-16-4-25.6-23.2-40.8-27.2l0,0c16,0,33.6,18.4,48,9.6c-16.8-0.8-29.6-19.2-44-20.8c0,0,0,0,0-0.8c16-2.4,36,12.8,48.8,2.4
		c-16.8,1.6-32-14.4-47.2-13.6c0,0,0,0,0-0.8C339.2,248.8,361.6,260,372,248z"/>
	<path style="fill:#FFCE00;" d="M271.2,220c12.8,11.2,23.2,25.6,28.8,42.4c2.4-5.6,3.2-12,3.2-19.2c0-11.2-3.2-21.6-8.8-30.4
		C286.4,214.4,278.4,216.8,271.2,220z"/>
	<path style="fill:#FFCE00;" d="M244.8,225.6c0.8,0.8,2.4,1.6,3.2,2.4c0.8-0.8,2.4-1.6,3.2-2.4c-0.8-0.8-2.4-1.6-3.2-2.4
		C247.2,224,245.6,224.8,244.8,225.6z"/>
	<path style="fill:#FFCE00;" d="M253.6,220c0.8,0.8,2.4,1.6,3.2,2.4c1.6-0.8,2.4-1.6,4-2.4c-0.8-0.8-2.4-1.6-3.2-2.4
		C256,218.4,254.4,219.2,253.6,220z"/>
</g>
<g>
	<path style="fill:#FFEF00;" d="M243.2,232c-0.8-0.8-2.4-1.6-3.2-2.4c-16,14.4-26.4,34.4-27.2,57.6c1.6,1.6,3.2,2.4,4.8,4
		C218.4,268,228,247.2,243.2,232z"/>
	<path style="fill:#FFEF00;" d="M235.2,225.6c-1.6-0.8-2.4-1.6-4-2.4c-15.2,12.8-25.6,30.4-29.6,50.4c1.6,2.4,2.4,4,4,5.6
		C208.8,258.4,219.2,239.2,235.2,225.6z"/>
</g>
<g>
	<path style="fill:#FFCE00;" d="M258.4,211.2c8.8-4,18.4-6.4,28.8-6.4c-0.8-0.8-1.6-1.6-2.4-2.4c-10.4,0.8-20.8,2.4-30.4,6.4
		C256,209.6,256.8,210.4,258.4,211.2z"/>
	<path style="fill:#FFCE00;" d="M241.6,208.8c-9.6-4-20-6.4-30.4-6.4c-0.8,0.8-1.6,1.6-2.4,2.4c10.4,0.8,20,2.4,28.8,6.4
		C239.2,210.4,240,209.6,241.6,208.8z"/>
</g>
<path style="fill:#FFEF00;" d="M256,229.6c-0.8,0.8-2.4,1.6-3.2,2.4c15.2,14.4,25.6,35.2,25.6,58.4c1.6-0.8,3.2-2.4,4.8-4
	C281.6,264,271.2,244,256,229.6z"/>
<path style="fill:#FFCE00;" d="M256,229.6c-0.8,0.8-2.4,1.6-3.2,2.4c11.2,10.4,19.2,24,23.2,39.2l6.4,5.6
	C278.4,258.4,268.8,241.6,256,229.6z"/>
<path style="fill:#FFEF00;" d="M224.8,292c0,0.8,0,1.6,0,2.4c7.2,3.2,14.4,4.8,23.2,4.8c8.8,0,16-1.6,23.2-4.8c0-0.8,0-1.6,0-2.4
	c0-21.6-8.8-41.6-23.2-56C233.6,250.4,224.8,270.4,224.8,292z"/>
<g>
	<path style="fill:#FFCE00;" d="M280.8,198.4C272,192,260.8,188,248,188c-12,0-23.2,4-32.8,10.4c11.2,0.8,22.4,3.2,32.8,7.2
		C258.4,201.6,268.8,199.2,280.8,198.4z"/>
	<path style="fill:#FFCE00;" d="M232,214.4c-8-3.2-17.6-5.6-27.2-6.4c-0.8,0.8-1.6,1.6-1.6,2.4c8.8,0.8,17.6,3.2,25.6,6.4
		C230.4,216,231.2,215.2,232,214.4z"/>
</g>
<path style="fill:#FFEF00;" d="M224.8,220c-7.2-3.2-15.2-5.6-23.2-6.4c-5.6,8.8-8.8,19.2-8.8,30.4c0,6.4,0.8,12.8,3.2,19.2
	C201.6,246.4,212,231.2,224.8,220z"/>
<g>
	<path style="fill:#FFCE00;" d="M235.2,220c1.6,0.8,2.4,1.6,4,2.4c0.8-0.8,2.4-1.6,3.2-2.4c-1.6-0.8-2.4-1.6-4-2.4
		C237.6,218.4,236.8,219.2,235.2,220z"/>
	<path style="fill:#FFCE00;" d="M264.8,223.2c-1.6,0.8-2.4,1.6-4,2.4c15.2,13.6,26.4,32.8,29.6,53.6c1.6-1.6,3.2-4,4-5.6
		C290.4,253.6,280,236,264.8,223.2z"/>
	<path style="fill:#FFCE00;" d="M267.2,216.8c8-3.2,16.8-5.6,25.6-6.4c-0.8-0.8-0.8-1.6-1.6-2.4c-9.6,0.8-18.4,2.4-27.2,6.4
		C264.8,215.2,265.6,216,267.2,216.8z"/>
	<path style="fill:#FFCE00;" d="M248,212c-1.6,0.8-2.4,1.6-4,2.4c1.6,0.8,2.4,1.6,4,2.4c1.6-0.8,2.4-1.6,4-2.4
		C250.4,213.6,249.6,212.8,248,212z"/>
</g>
<g>
</g>
<g>
</g>
<g>
</g>
<g>
</g>
<g>
</g>
<g>
</g>
<g>
</g>
<g>
</g>
<g>
</g>
<g>
</g>
<g>
</g>
<g>
</g>
<g>
</g>
<g>
</g>
<g>
</g>
</svg>
