<?xml version="1.0" encoding="iso-8859-1"?>
<!-- Generator: Adobe Illustrator 19.0.0, SVG Export Plug-In . SVG Version: 6.00 Build 0)  -->
<svg version="1.1" id="Capa_1" xmlns="http://www.w3.org/2000/svg" xmlns:xlink="http://www.w3.org/1999/xlink" x="0px" y="0px"
	 viewBox="0 0 496 496" style="enable-background:new 0 0 496 496;" xml:space="preserve">
<path style="fill:#00AFCA;" d="M496,368.8c0,27.2-21.6,48.8-48,48.8H48c-26.4,0-48-21.6-48-48.8V125.6c0-27.2,21.6-48.8,48-48.8h400
	c26.4,0,48,21.6,48,48.8V368.8z"/>
<path style="fill:#049BAF;" d="M48,76.8h400c26.4,0,48,21.6,48,48.8v243.2c0,27.2-21.6,48.8-48,48.8"/>
<g>
	<path style="fill:#058DA3;" d="M48,76.8h400c26.4,0,48,21.6,48,48.8v88.8"/>
	<path style="fill:#058DA3;" d="M496,368.8c0,27.2-21.6,48.8-48,48.8H48c-26.4,0-48-21.6-48-48.8"/>
</g>
<g>
	<path style="fill:#FCA110;" d="M311.2,155.2c3.2,0.8,4.8-1.6,5.6-4c0.8-3.2-0.8-20-0.8-20s-8,15.2-8.8,18.4
		C307.2,152,308,154.4,311.2,155.2z"/>
	<path style="fill:#FCA110;" d="M324,159.2c3.2,1.6,4.8,0,6.4-2.4c1.6-3.2,3.2-20,3.2-20s-10.4,12.8-12,16
		C320,155.2,320.8,157.6,324,159.2z"/>
	<path style="fill:#FCA110;" d="M335.2,164.8c3.2,1.6,4.8,0.8,6.4-1.6c1.6-3.2,7.2-19.2,7.2-19.2s-12.8,11.2-14.4,13.6
		C332,160.8,332,163.2,335.2,164.8z"/>
	<path style="fill:#FCA110;" d="M344.8,172.8c2.4,2.4,4.8,1.6,6.4,0c2.4-2.4,10.4-16.8,10.4-16.8s-14.4,8-16.8,10.4
		C343.2,168,342.4,170.4,344.8,172.8z"/>
	<path style="fill:#FCA110;" d="M352.8,183.2c1.6,2.4,4,2.4,6.4,1.6c3.2-1.6,13.6-14.4,13.6-14.4s-16,4.8-19.2,7.2
		C352,177.6,351.2,180,352.8,183.2z"/>
	<path style="fill:#FCA110;" d="M359.2,194.4c1.6,3.2,4,3.2,6.4,2.4c3.2-1.6,16-12,16-12s-16.8,1.6-20,3.2
		C359.2,188.8,357.6,191.2,359.2,194.4z"/>
	<path style="fill:#FCA110;" d="M366.4,200.8c-2.4,0.8-4,2.4-4,5.6c0.8,3.2,3.2,4,5.6,4c3.2-0.8,18.4-8.8,18.4-8.8
		S369.6,200,366.4,200.8z"/>
	<path style="fill:#FCA110;" d="M368.8,214.4c-2.4,0-4.8,1.6-4.8,4.8c0,3.2,2.4,4.8,4.8,4.8c3.2,0,19.2-4.8,19.2-4.8
		S372,214.4,368.8,214.4z"/>
	<path style="fill:#FCA110;" d="M368,228c-2.4-0.8-4.8,0-5.6,4c-0.8,3.2,1.6,4.8,4,5.6c3.2,0.8,20-0.8,20-0.8S371.2,228.8,368,228z"
		/>
	<path style="fill:#FCA110;" d="M364.8,241.6c-2.4-0.8-4.8-0.8-6.4,2.4c-1.6,3.2,0,4.8,2.4,6.4c3.2,1.6,20,3.2,20,3.2
		S368,242.4,364.8,241.6z"/>
	<path style="fill:#FCA110;" d="M359.2,253.6c-2.4-1.6-4.8-1.6-6.4,1.6s-0.8,4.8,1.6,6.4c3.2,1.6,19.2,7.2,19.2,7.2
		S362.4,256,359.2,253.6z"/>
	<path style="fill:#FCA110;" d="M351.2,264.8c-1.6-1.6-4-2.4-6.4,0s-1.6,4.8,0,6.4c2.4,2.4,16.8,10.4,16.8,10.4
		S353.6,267.2,351.2,264.8z"/>
	<path style="fill:#FCA110;" d="M348.8,292.8c0,0-4.8-16-7.2-19.2c-1.6-2.4-4-3.2-6.4-1.6c-3.2,1.6-2.4,4-1.6,6.4
		C335.2,282.4,348.8,292.8,348.8,292.8z"/>
	<path style="fill:#FCA110;" d="M332.8,301.6c0,0-1.6-16.8-3.2-20c-0.8-2.4-3.2-4-6.4-2.4c-3.2,1.6-3.2,4-2.4,6.4
		C322.4,288,332.8,301.6,332.8,301.6z"/>
</g>
<g>
	<path style="fill:#FEC50C;" d="M264,279.2c1.6-2.4,1.6-4.8-1.6-6.4s-4.8-0.8-6.4,1.6c-1.6,3.2-7.2,19.2-7.2,19.2
		S262.4,282.4,264,279.2z"/>
	<path style="fill:#FEC50C;" d="M252.8,264.8c-2.4-2.4-4.8-1.6-6.4,0c-2.4,2.4-10.4,16.8-10.4,16.8s14.4-8,16.8-10.4
		C254.4,269.6,255.2,267.2,252.8,264.8z"/>
	<path style="fill:#FEC50C;" d="M244.8,255.2c-1.6-2.4-4-2.4-6.4-1.6c-3.2,1.6-13.6,14.4-13.6,14.4s16-4.8,19.2-7.2
		C245.6,260,246.4,257.6,244.8,255.2z"/>
	<path style="fill:#FEC50C;" d="M239.2,244c-1.6-3.2-4-3.2-6.4-2.4c-3.2,1.6-16,12-16,12s16.8-1.6,20-3.2
		C238.4,248.8,240,247.2,239.2,244z"/>
	<path style="fill:#FEC50C;" d="M235.2,232c-0.8-3.2-3.2-4-5.6-4c-3.2,0.8-18.4,8-18.4,8s16.8,1.6,20,0.8
		C233.6,236.8,236,235.2,235.2,232z"/>
	<path style="fill:#FEC50C;" d="M233.6,219.2c0-3.2-2.4-4.8-4.8-4.8c-3.2,0-19.2,4.8-19.2,4.8s16,4.8,19.2,4.8
		S233.6,222.4,233.6,219.2z"/>
</g>
<g>
	<path style="fill:#FCA110;" d="M235.2,206.4c0.8-3.2-0.8-4.8-4-5.6c-3.2-0.8-20,0.8-20,0.8s15.2,8,18.4,8.8
		C232,210.4,234.4,209.6,235.2,206.4z"/>
	<path style="fill:#FCA110;" d="M239.2,194.4c1.6-3.2,0-4.8-2.4-6.4c-3.2-1.6-20-3.2-20-3.2s12.8,10.4,16,12
		C235.2,197.6,237.6,197.6,239.2,194.4z"/>
	<path style="fill:#FCA110;" d="M238.4,184c2.4,1.6,4.8,1.6,6.4-1.6c1.6-3.2,0.8-4.8-1.6-6.4c-3.2-1.6-19.2-7.2-19.2-7.2
		S235.2,182.4,238.4,184z"/>
	<path style="fill:#FCA110;" d="M252.8,172.8c2.4-2.4,1.6-4.8,0-6.4C250.4,164,236,156,236,156s8,14.4,10.4,16.8
		C248,174.4,250.4,175.2,252.8,172.8z"/>
	<circle style="fill:#FCA110;" cx="298.4" cy="219.2" r="56.8"/>
	<path style="fill:#FCA110;" d="M299.2,154.4c3.2,0,4.8-2.4,4.8-4.8c0-3.2-4.8-19.2-4.8-19.2s-4.8,16-4.8,19.2
		C294.4,152,295.2,154.4,299.2,154.4z"/>
	<path style="fill:#FCA110;" d="M311.2,282.4c-3.2,0.8-4,3.2-4,5.6c0.8,3.2,8.8,18.4,8.8,18.4s1.6-16.8,0.8-20
		C316.8,284,315.2,281.6,311.2,282.4z"/>
</g>
<g>
	<path style="fill:#FEC50C;" d="M294.4,288.8c0,3.2,4.8,19.2,4.8,19.2s4.8-16,4.8-19.2c0-2.4-1.6-4.8-4.8-4.8
		C295.2,284,294.4,286.4,294.4,288.8z"/>
	<path style="fill:#FEC50C;" d="M280.8,286.4c-0.8,3.2,0.8,20,0.8,20s8-15.2,8.8-18.4c0.8-2.4,0-4.8-4-5.6
		C283.2,281.6,280.8,284,280.8,286.4z"/>
	<path style="fill:#FEC50C;" d="M274.4,279.2c-3.2-1.6-4.8,0-6.4,2.4c-1.6,3.2-3.2,20-3.2,20s10.4-12.8,12-16
		C277.6,282.4,276.8,280,274.4,279.2z"/>
</g>
<g>
	<path style="fill:#FCA110;" d="M262.4,164.8c3.2-1.6,2.4-4,1.6-6.4c-1.6-3.2-14.4-13.6-14.4-13.6s4.8,16,7.2,19.2
		C257.6,165.6,260,167.2,262.4,164.8z"/>
	<path style="fill:#FCA110;" d="M274.4,159.2c3.2-1.6,3.2-4,2.4-6.4c-1.6-3.2-12-16-12-16s1.6,16.8,3.2,20
		C268.8,158.4,271.2,160,274.4,159.2z"/>
	<path style="fill:#FCA110;" d="M286.4,155.2c3.2-0.8,4-3.2,4-5.6c-0.8-3.2-8.8-18.4-8.8-18.4s-1.6,16.8-0.8,20
		C280.8,154.4,283.2,156,286.4,155.2z"/>
</g>
<g>
	<polygon style="fill:#FEC50C;" points="257.6,315.2 257.6,316 258.4,316 259.2,316.8 260,316.8 261.6,317.6 263.2,317.6 
		266.4,317.6 269.6,318.4 272.8,318.4 276,318.4 277.6,318.4 279.2,319.2 280.8,319.2 282.4,320 283.2,320 284.8,320.8 285.6,321.6 
		287.2,322.4 287.2,322.4 288,321.6 288,320.8 288.8,319.2 289.6,317.6 290.4,316 287.2,315.2 284,315.2 280.8,315.2 276.8,314.4 
		273.6,313.6 270.4,312.8 267.2,312 264,311.2 260.8,309.6 257.6,308.8 254.4,307.2 251.2,305.6 248.8,304.8 247.2,303.2 
		244.8,302.4 243.2,300.8 240,299.2 237.6,296.8 235.2,294.4 232,292 229.6,289.6 227.2,287.2 224.8,284.8 223.2,281.6 221.6,280 
		220.8,278.4 219.2,276.8 218.4,275.2 217.6,273.6 216,272 215.2,269.6 214.4,268 212.8,265.6 212,263.2 211.2,260 210.4,257.6 
		209.6,255.2 208.8,252.8 208,249.6 207.2,246.4 206.4,246.4 205.6,246.4 204.8,246.4 204.8,246.4 204,246.4 204,246.4 204,246.4 
		204,247.2 203.2,248 203.2,248.8 203.2,249.6 203.2,251.2 203.2,252.8 203.2,254.4 204,256.8 204,258.4 204,260.8 204.8,264 
		204,262.4 203.2,260.8 202.4,260 202.4,258.4 200.8,255.2 200,252 199.2,248.8 198.4,245.6 197.6,242.4 196.8,240 196.8,239.2 
		196.8,239.2 196.8,239.2 196,239.2 196,239.2 195.2,239.2 194.4,239.2 193.6,239.2 193.6,240 193.6,240 192.8,240 192.8,240.8 
		192.8,241.6 192.8,242.4 192.8,243.2 192.8,244 192.8,245.6 192.8,248 192.8,249.6 193.6,252 194.4,253.6 195.2,256 196,257.6 
		196.8,260 197.6,261.6 198.4,264 200,267.2 201.6,270.4 200,269.6 199.2,268 197.6,266.4 196.8,265.6 194.4,262.4 192.8,259.2 
		191.2,256.8 189.6,254.4 188.8,253.6 188,253.6 187.2,252.8 187.2,252.8 187.2,252.8 186.4,252.8 185.6,252.8 184.8,252.8 
		184,252.8 184,252.8 183.2,253.6 183.2,253.6 183.2,253.6 183.2,254.4 183.2,255.2 183.2,255.2 184,256.8 184.8,258.4 185.6,260 
		186.4,261.6 188,263.2 188.8,265.6 190.4,268 192,269.6 195.2,273.6 197.6,276.8 198.4,278.4 200,279.2 200.8,280 201.6,280.8 
		200,280 199.2,279.2 198.4,279.2 196.8,278.4 195.2,276 192.8,274.4 190.4,272 188.8,270.4 186.4,268 184.8,266.4 184.8,266.4 
		184,265.6 184,265.6 183.2,265.6 182.4,265.6 182.4,265.6 181.6,265.6 181.6,266.4 181.6,266.4 180.8,266.4 180.8,267.2 
		180.8,267.2 180.8,268 180.8,268 182.4,269.6 183.2,271.2 184,272.8 185.6,274.4 188,276.8 191.2,280 193.6,282.4 196.8,285.6 
		199.2,287.2 201.6,288.8 200.8,289.6 200,289.6 199.2,288.8 198.4,288.8 197.6,288.8 196.8,288 196,288 195.2,287.2 193.6,286.4 
		192,285.6 191.2,285.6 190.4,284.8 189.6,284.8 188.8,284.8 188.8,285.6 189.6,286.4 189.6,286.4 189.6,287.2 190.4,288 
		190.4,288.8 191.2,288.8 192,289.6 192.8,291.2 194.4,292 196,292.8 197.6,294.4 199.2,295.2 200.8,296 203.2,296.8 204.8,297.6 
		207.2,299.2 209.6,300 209.6,300 208.8,300 208,300 205.6,300 203.2,300 201.6,300 200,300 199.2,300 198.4,300 198.4,300 
		198.4,300 198.4,300.8 199.2,301.6 200,302.4 201.6,302.4 202.4,303.2 203.2,303.2 204,303.2 205.6,304 207.2,304 209.6,304 
		210.4,304.8 211.2,304.8 212,304.8 212.8,304.8 212.8,305.6 212,305.6 212,305.6 211.2,306.4 209.6,306.4 208,306.4 207.2,307.2 
		205.6,307.2 204.8,307.2 204.8,307.2 204.8,308 204.8,308 205.6,308 205.6,308 206.4,308.8 208,308.8 211.2,309.6 216,310.4 
		214.4,311.2 212,312 211.2,312 210.4,312 209.6,312.8 209.6,312.8 209.6,312.8 209.6,312.8 209.6,312.8 210.4,313.6 211.2,313.6 
		211.2,313.6 212.8,314.4 215.2,315.2 218.4,315.2 221.6,316 220,316.8 218.4,316.8 217.6,317.6 216.8,317.6 216,317.6 216,318.4 
		217.6,318.4 219.2,319.2 221.6,320 223.2,320.8 228,323.2 232,324.8 234.4,325.6 236.8,326.4 239.2,327.2 241.6,328 244.8,328.8 
		247.2,328.8 250.4,329.6 252.8,329.6 251.2,329.6 249.6,328.8 248,328.8 246.4,328 241.6,326.4 236.8,324.8 232.8,323.2 
		228.8,321.6 226.4,320.8 225.6,320 224,319.2 223.2,318.4 224,317.6 225.6,316.8 226.4,316 228,315.2 226.4,315.2 225.6,315.2 
		224,315.2 222.4,314.4 221.6,313.6 220,313.6 219.2,312.8 218.4,312 221.6,309.6 220.8,309.6 220,308.8 219.2,308.8 218.4,308.8 
		216.8,308 215.2,307.2 215.2,307.2 215.2,306.4 215.2,306.4 215.2,305.6 216,305.6 216,304.8 216.8,304.8 216.8,304 216.8,304 
		216.8,304 216.8,304 216.8,304 216,303.2 216,303.2 215.2,303.2 214.4,303.2 214.4,303.2 214.4,302.4 213.6,302.4 213.6,302.4 
		213.6,301.6 213.6,301.6 213.6,300.8 213.6,300.8 214.4,300 214.4,300 214.4,299.2 214.4,299.2 213.6,299.2 213.6,299.2 
		213.6,299.2 212.8,299.2 212,298.4 210.4,298.4 209.6,297.6 208,296.8 207.2,296 205.6,295.2 204.8,294.4 204,293.6 204.8,293.6 
		206.4,293.6 208,293.6 208.8,293.6 208,292.8 207.2,292 205.6,290.4 204.8,289.6 204,288.8 203.2,288 202.4,286.4 201.6,285.6 
		205.6,285.6 206.4,285.6 206.4,284.8 206.4,284 206.4,284 205.6,283.2 205.6,281.6 204.8,280 204,278.4 203.2,277.6 202.4,276 
		201.6,275.2 202.4,275.2 203.2,275.2 204,275.2 204.8,275.2 205.6,275.2 205.6,276 206.4,276 206.4,276 207.2,275.2 207.2,274.4 
		207.2,273.6 207.2,273.6 208,273.6 209.6,274.4 210.4,275.2 212,276.8 212.8,277.6 215.2,280 216.8,281.6 220.8,286.4 224,290.4 
		225.6,292.8 227.2,294.4 228,295.2 228.8,296.8 230.4,297.6 231.2,298.4 232,299.2 233.6,299.2 234.4,300 236,300.8 236.8,301.6 
		238.4,301.6 240,302.4 241.6,302.4 242.4,303.2 243.2,303.2 244,304 244.8,304.8 246.4,306.4 248.8,308 251.2,310.4 252.8,312.8 
		254.4,313.6 255.2,314.4 256,315.2 	"/>
	<path style="fill:#FEC50C;" d="M277.6,349.6h6.4h6.4h5.6h4.8h1.6h1.6l0,0l0,0l0,0l0,0h-0.8h-1.6h-8h-2.4h-1.6h-0.8H288h-0.8
		l-0.8-0.8l-0.8,0.8h-0.8H284h-4h-0.8h-0.8H277.6l0.8-0.8l0.8-0.8l0.8-0.8l0.8-0.8h-1.6h-1.6l0.8-0.8l1.6-0.8l1.6-0.8l0.8-0.8h-1.6
		h-1.6l-1.6,0.8H276l-1.6,0.8l-1.6,0.8h-1.6h-1.6c0,0.8,0,1.6,0,2.4c0,0,0,0.8-0.8,0.8l0,0l0,0c0,0,0-0.8-0.8-0.8s-0.8,0-0.8,0.8
		l0,0c-0.8,0.8-2.4,0.8-4,0c-0.8,0-1.6,0-2.4,0s-1.6-0.8-2.4-0.8l-1.6,0.8l-1.6,0.8l-0.8,0.8l-0.8,0.8l-0.8,0.8v0.8v0.8v0.8v0.8v0.8
		v0.8v0.8v0.8v0.8v-0.8v-0.8l0.8-0.8h0.8h0.8h0.8h0.8h0.8l2.4-5.6v0.8h0.8h0.8h0.8h0.8l0.8-0.8h2.4h2.4h2.4h3.2L277.6,349.6z"/>
	<polygon style="fill:#FEC50C;" points="424.8,257.6 424.8,257.6 424.8,257.6 424,256.8 424,256.8 424,256.8 423.2,256.8 423.2,256 
		421.6,256 421.6,256.8 420.8,256.8 420.8,256.8 420,256.8 418.4,259.2 416,261.6 413.6,264 411.2,266.4 408,268.8 405.6,271.2 
		404,272 403.2,272.8 401.6,273.6 400.8,273.6 401.6,272.8 402.4,272 404,271.2 404.8,269.6 408,265.6 412,260.8 413.6,258.4 
		415.2,256 416.8,253.6 418.4,251.2 420,248.8 420.8,247.2 421.6,245.6 422.4,244 422.4,243.2 422.4,242.4 422.4,242.4 421.6,241.6 
		421.6,241.6 421.6,240.8 420.8,240.8 420.8,240.8 420,240.8 418.4,240.8 417.6,240.8 417.6,240.8 416.8,240.8 416.8,241.6 
		416,242.4 415.2,243.2 412.8,245.6 411.2,248.8 408.8,252 406.4,256 404.8,257.6 403.2,259.2 401.6,260.8 400,261.6 402.4,258.4 
		404,253.6 405.6,252 406.4,249.6 407.2,247.2 408,244.8 408.8,242.4 409.6,240 410.4,237.6 410.4,235.2 411.2,232.8 411.2,230.4 
		411.2,229.6 411.2,228 410.4,227.2 410.4,226.4 410.4,225.6 410.4,225.6 409.6,225.6 409.6,224.8 408.8,224.8 408,224.8 
		407.2,224.8 406.4,224.8 406.4,224.8 406.4,224.8 406.4,224.8 405.6,225.6 404.8,228.8 404,232.8 403.2,236.8 401.6,240 400.8,244 
		399.2,247.2 399.2,248.8 398.4,250.4 397.6,252 396,253.6 396.8,250.4 397.6,248 397.6,244.8 398.4,242.4 398.4,240.8 398.4,238.4 
		398.4,237.6 398.4,236 397.6,235.2 397.6,233.6 397.6,233.6 396.8,233.6 396.8,232.8 396.8,232.8 396,232.8 396,232.8 396,232.8 
		395.2,232.8 394.4,232.8 393.6,233.6 392.8,236.8 392,240.8 391.2,243.2 390.4,246.4 388.8,249.6 388,252.8 386.4,256 384.8,259.2 
		384,261.6 383.2,263.2 381.6,265.6 380.8,267.2 379.2,269.6 377.6,271.2 376,273.6 375.2,275.2 372,278.4 369.6,281.6 366.4,284.8 
		364,288 360.8,290.4 357.6,292.8 354.4,296 351.2,298.4 348.8,299.2 346.4,300.8 344,302.4 341.6,304 337.6,305.6 333.6,307.2 
		329.6,308.8 325.6,310.4 322.4,311.2 319.2,312 316,312.8 312,313.6 308.8,314.4 305.6,314.4 302.4,315.2 298.4,315.2 298.4,315.2 
		297.6,316 297.6,316 296.8,316.8 295.2,317.6 293.6,319.2 292,320.8 290.4,323.2 288,325.6 285.6,328 284.8,328.8 283.2,330.4 
		281.6,331.2 280.8,332 279.2,332.8 278.4,333.6 276.8,334.4 276,335.2 273.6,336 270.4,336.8 268,337.6 265.6,339.2 264.8,339.2 
		264,340 263.2,340 262.4,340.8 261.6,341.6 260.8,341.6 260.8,342.4 260.8,343.2 260.8,344 260.8,344 263.2,345.6 263.2,344.8 
		264.8,344 265.6,343.2 266.4,343.2 269.6,341.6 272.8,340 273.6,340 275.2,339.2 276,338.4 277.6,337.6 280,336 282.4,334.4 
		284.8,332.8 287.2,331.2 288.8,330.4 289.6,328.8 291.2,328 292.8,326.4 293.6,325.6 294.4,325.6 295.2,324.8 296,324 297.6,323.2 
		299.2,323.2 301.6,322.4 304.8,321.6 307.2,320.8 310.4,320.8 314.4,320 318.4,319.2 322.4,319.2 326.4,318.4 327.2,318.4 
		328.8,317.6 330.4,317.6 331.2,316.8 332.8,315.2 334.4,312.8 336,312 337.6,310.4 340,308.8 341.6,307.2 344.8,305.6 348.8,304 
		352,301.6 356,300 359.2,298.4 362.4,296.8 364.8,296 366.4,294.4 367.2,292.8 368,291.2 368.8,289.6 370.4,288 371.2,286.4 
		372.8,284.8 375.2,282.4 376.8,280.8 379.2,278.4 380.8,276.8 382.4,276 383.2,275.2 384.8,274.4 385.6,274.4 387.2,273.6 
		388,272.8 389.6,272.8 390.4,272.8 392,272 392.8,272 394.4,272 396,272.8 395.2,273.6 395.2,275.2 394.4,276.8 394.4,277.6 
		393.6,279.2 392.8,280.8 391.2,282.4 389.6,284 391.2,284 392,283.2 392.8,283.2 393.6,283.2 394.4,282.4 395.2,282.4 396,282.4 
		396.8,282.4 396.8,283.2 396.8,284 396.8,284.8 396.8,285.6 396.8,285.6 396,286.4 395.2,287.2 395.2,288 392.8,289.6 390.4,292 
		392,292 392.8,292.8 394.4,292.8 396,292.8 394.4,294.4 392.8,295.2 391.2,296 389.6,296.8 388,298.4 385.6,299.2 384,300 
		382.4,301.6 383.2,301.6 384,302.4 384.8,302.4 385.6,302.4 385.6,302.4 385.6,302.4 384,304 380.8,304.8 380,305.6 378.4,306.4 
		377.6,306.4 377.6,307.2 377.6,307.2 377.6,308 377.6,308 377.6,308.8 377.6,308.8 378.4,308.8 378.4,309.6 377.6,309.6 
		377.6,310.4 376.8,310.4 376,311.2 375.2,312 373.6,312 372,312.8 371.2,312.8 370.4,313.6 372.8,315.2 372,316 371.2,316.8 
		370.4,316.8 369.6,317.6 368.8,317.6 366.4,317.6 366.4,318.4 367.2,320 367.2,320.8 367.2,321.6 365.6,323.2 363.2,324.8 
		360.8,326.4 357.6,328 356,328.8 354.4,329.6 352.8,330.4 351.2,331.2 348.8,332 347.2,332 344.8,332.8 342.4,332.8 346.4,332.8 
		349.6,332.8 353.6,332.8 356,332.8 359.2,332 361.6,331.2 364,330.4 366.4,329.6 368.8,328 372,326.4 375.2,324.8 377.6,323.2 
		376,322.4 374.4,321.6 373.6,320.8 372.8,320.8 372,320 370.4,320 371.2,319.2 372.8,318.4 373.6,318.4 375.2,317.6 377.6,317.6 
		380.8,316.8 383.2,316.8 384.8,316.8 385.6,316 386.4,316 387.2,316 387.2,315.2 387.2,315.2 387.2,315.2 386.4,315.2 386.4,314.4 
		384.8,314.4 383.2,314.4 382.4,314.4 380.8,314.4 379.2,313.6 378.4,313.6 381.6,312.8 384,312 387.2,311.2 388.8,311.2 
		391.2,310.4 392.8,309.6 393.6,309.6 393.6,308.8 394.4,308.8 395.2,308 394.4,308 394.4,308 394.4,308 393.6,308 392,308 
		390.4,308 388.8,307.2 387.2,307.2 385.6,307.2 384.8,307.2 385.6,306.4 386.4,306.4 388.8,305.6 391.2,304.8 393.6,304.8 
		395.2,304 397.6,303.2 399.2,302.4 400.8,301.6 401.6,300.8 401.6,300.8 401.6,300 402.4,300 402.4,300 402.4,299.2 401.6,299.2 
		401.6,299.2 398.4,299.2 396.8,299.2 395.2,299.2 394.4,299.2 394.4,299.2 393.6,298.4 398.4,296 402.4,292.8 405.6,291.2 
		408.8,288.8 410.4,287.2 411.2,286.4 412.8,285.6 413.6,284 414.4,283.2 414.4,281.6 415.2,280.8 415.2,279.2 414.4,279.2 
		413.6,279.2 412.8,279.2 412,280 409.6,280.8 408,282.4 407.2,282.4 406.4,283.2 404.8,283.2 404,284 403.2,284 402.4,284 
		401.6,284 400.8,284 403.2,281.6 406.4,279.2 409.6,276.8 412.8,272.8 416,269.6 419.2,266.4 420.8,264 422.4,262.4 423.2,260.8 
		424.8,259.2 424.8,258.4 424.8,258.4 	"/>
</g>
<polygon style="fill:#FCA110;" points="424.8,257.6 424.8,257.6 424,256.8 424,256.8 424,256.8 423.2,256.8 423.2,256 421.6,256 
	421.6,256.8 420.8,256.8 420.8,256.8 420,256.8 418.4,259.2 416,261.6 413.6,264 411.2,266.4 408,268.8 405.6,271.2 404,272 
	403.2,272.8 401.6,273.6 400.8,273.6 401.6,272.8 402.4,272 404,271.2 404.8,269.6 408,265.6 412,260.8 413.6,258.4 415.2,256 
	416.8,253.6 418.4,251.2 420,248.8 420.8,247.2 421.6,245.6 422.4,244 422.4,243.2 422.4,242.4 422.4,242.4 421.6,241.6 
	421.6,241.6 421.6,240.8 420.8,240.8 420.8,240.8 420,240.8 418.4,240.8 417.6,240.8 417.6,240.8 416.8,240.8 416.8,241.6 
	416,242.4 415.2,243.2 412.8,245.6 411.2,248.8 408.8,252 406.4,256 404.8,257.6 403.2,259.2 401.6,260.8 400,261.6 402.4,258.4 
	404,253.6 405.6,252 406.4,249.6 407.2,247.2 408,244.8 408.8,242.4 409.6,240 410.4,237.6 410.4,235.2 411.2,232.8 411.2,230.4 
	411.2,229.6 411.2,228 410.4,227.2 410.4,226.4 410.4,225.6 410.4,225.6 409.6,225.6 409.6,224.8 408.8,224.8 408,224.8 
	407.2,224.8 406.4,224.8 406.4,224.8 406.4,224.8 406.4,224.8 405.6,225.6 404.8,228.8 404,232.8 403.2,236.8 401.6,240 400.8,244 
	399.2,247.2 399.2,248.8 398.4,250.4 397.6,252 396,253.6 396.8,250.4 397.6,248 397.6,244.8 398.4,242.4 398.4,240.8 398.4,238.4 
	398.4,237.6 398.4,236 397.6,235.2 397.6,233.6 397.6,233.6 396.8,233.6 396.8,232.8 396.8,232.8 396,232.8 396,232.8 396,232.8 
	395.2,232.8 394.4,232.8 393.6,233.6 392.8,236.8 392,240.8 391.2,243.2 390.4,246.4 388.8,249.6 388,252.8 386.4,256 384.8,259.2 
	384,261.6 383.2,263.2 381.6,265.6 380.8,267.2 379.2,269.6 377.6,271.2 376,273.6 375.2,275.2 372,278.4 369.6,281.6 366.4,284.8 
	364,288 360.8,290.4 357.6,292.8 354.4,296 351.2,298.4 348.8,299.2 346.4,300.8 344,302.4 341.6,304 337.6,305.6 333.6,307.2 
	329.6,308.8 325.6,310.4 323.2,311.2 330.4,317.6 331.2,316.8 332.8,315.2 334.4,312.8 336,312 337.6,310.4 340,308.8 341.6,307.2 
	344.8,305.6 348.8,304 352,301.6 356,300 359.2,298.4 362.4,296.8 364.8,296 366.4,294.4 367.2,292.8 368,291.2 368.8,289.6 
	370.4,288 371.2,286.4 372.8,284.8 375.2,282.4 376.8,280.8 379.2,278.4 380.8,276.8 382.4,276 383.2,275.2 384.8,274.4 
	385.6,274.4 387.2,273.6 388,272.8 389.6,272.8 390.4,272.8 392,272 392.8,272 394.4,272 396,272.8 395.2,273.6 395.2,275.2 
	394.4,276.8 394.4,277.6 393.6,279.2 392.8,280.8 391.2,282.4 389.6,284 391.2,284 392,283.2 392.8,283.2 393.6,283.2 394.4,282.4 
	395.2,282.4 396,282.4 396.8,282.4 396.8,283.2 396.8,284 396.8,284.8 396.8,285.6 396.8,285.6 396,286.4 395.2,287.2 395.2,288 
	392.8,289.6 390.4,292 392,292 392.8,292.8 394.4,292.8 396,292.8 394.4,294.4 392.8,295.2 391.2,296 389.6,296.8 388,298.4 
	385.6,299.2 384,300 382.4,301.6 383.2,301.6 384,302.4 384.8,302.4 385.6,302.4 385.6,302.4 385.6,302.4 384,304 380.8,304.8 
	380,305.6 378.4,306.4 377.6,306.4 377.6,307.2 377.6,307.2 377.6,308 377.6,308 377.6,308.8 377.6,308.8 378.4,308.8 378.4,309.6 
	377.6,309.6 377.6,310.4 376.8,310.4 376,311.2 375.2,312 373.6,312 372,312.8 371.2,312.8 370.4,313.6 372.8,315.2 372,316 
	371.2,316.8 370.4,316.8 369.6,317.6 368.8,317.6 366.4,317.6 366.4,318.4 367.2,320 367.2,320.8 367.2,321.6 365.6,323.2 
	363.2,324.8 360.8,326.4 357.6,328 356,328.8 354.4,329.6 352.8,330.4 351.2,331.2 348.8,332 348,332 348.8,332.8 349.6,332.8 
	353.6,332.8 356,332.8 359.2,332 361.6,331.2 364,330.4 366.4,329.6 368.8,328 372,326.4 375.2,324.8 377.6,323.2 376,322.4 
	374.4,321.6 373.6,320.8 372.8,320.8 372,320 370.4,320 371.2,319.2 372.8,318.4 373.6,318.4 375.2,317.6 377.6,317.6 380.8,316.8 
	383.2,316.8 384.8,316.8 385.6,316 386.4,316 387.2,316 387.2,315.2 387.2,315.2 387.2,315.2 386.4,315.2 386.4,314.4 384.8,314.4 
	383.2,314.4 382.4,314.4 380.8,314.4 379.2,313.6 378.4,313.6 381.6,312.8 384,312 387.2,311.2 388.8,311.2 391.2,310.4 
	392.8,309.6 393.6,309.6 393.6,308.8 394.4,308.8 395.2,308 394.4,308 394.4,308 394.4,308 393.6,308 392,308 390.4,308 
	388.8,307.2 387.2,307.2 385.6,307.2 384.8,307.2 385.6,306.4 386.4,306.4 388.8,305.6 391.2,304.8 393.6,304.8 395.2,304 
	397.6,303.2 399.2,302.4 400.8,301.6 401.6,300.8 401.6,300.8 401.6,300 402.4,300 402.4,300 402.4,299.2 401.6,299.2 401.6,299.2 
	398.4,299.2 396.8,299.2 395.2,299.2 394.4,299.2 394.4,299.2 393.6,298.4 398.4,296 402.4,292.8 405.6,291.2 408.8,288.8 
	410.4,287.2 411.2,286.4 412.8,285.6 413.6,284 414.4,283.2 414.4,281.6 415.2,280.8 415.2,279.2 414.4,279.2 413.6,279.2 
	412.8,279.2 412,280 409.6,280.8 408,282.4 407.2,282.4 406.4,283.2 404.8,283.2 404,284 403.2,284 402.4,284 401.6,284 400.8,284 
	403.2,281.6 406.4,279.2 409.6,276.8 412.8,272.8 416,269.6 419.2,266.4 420.8,264 422.4,262.4 423.2,260.8 424.8,259.2 
	424.8,258.4 424.8,258.4 "/>
<g>
	<polygon style="fill:#FEC50C;" points="356,341.6 351.2,341.6 346.4,340.8 341.6,340.8 337.6,340 335.2,340 332.8,340.8 
		331.2,340.8 329.6,340.8 329.6,341.6 329.6,342.4 329.6,342.4 329.6,343.2 328.8,343.2 328.8,344 328,344 328,344.8 326.4,344.8 
		325.6,344.8 324.8,345.6 326.4,347.2 324.8,348.8 324,349.6 322.4,350.4 321.6,351.2 320,352 318.4,352 316.8,352.8 314.4,352.8 
		312.8,352.8 310.4,352.8 308.8,353.6 306.4,353.6 298.4,353.6 294.4,353.6 290.4,353.6 288,353.6 286.4,354.4 284.8,354.4 
		283.2,355.2 281.6,355.2 280,356 278.4,356.8 276.8,357.6 276.8,358.4 276,359.2 276,360 275.2,360 274.4,360.8 274.4,361.6 
		274.4,362.4 273.6,363.2 274.4,364 275.2,364 276,364 276.8,363.2 277.6,363.2 278.4,363.2 279.2,362.4 280,362.4 283.2,360 
		286.4,358.4 285.6,362.4 286.4,363.2 286.4,363.2 286.4,364 286.4,364 286.4,364 286.4,364.8 287.2,364.8 287.2,364.8 288,364.8 
		288.8,364 289.6,364 289.6,363.2 291.2,361.6 292.8,360 293.6,359.2 294.4,357.6 295.2,358.4 295.2,359.2 295.2,360 295.2,360.8 
		295.2,362.4 294.4,363.2 294.4,364 295.2,364 295.2,364.8 295.2,364.8 296,364.8 296.8,364.8 296.8,364.8 297.6,364 298.4,364 
		299.2,363.2 300,362.4 300.8,360.8 302.4,360 303.2,359.2 303.2,358.4 304,358.4 304,358.4 304.8,357.6 304,363.2 304,363.2 
		304,363.2 304.8,364 304.8,364 305.6,364 306.4,364 307.2,364 308,364 308.8,363.2 309.6,363.2 312.8,358.4 312.8,358.4 
		312.8,358.4 312.8,358.4 313.6,359.2 313.6,360 313.6,360.8 314.4,361.6 314.4,362.4 315.2,362.4 315.2,363.2 316,363.2 316,363.2 
		316.8,363.2 317.6,362.4 317.6,362.4 318.4,361.6 319.2,361.6 319.2,360.8 320.8,359.2 321.6,357.6 323.2,359.2 324,360.8 
		324.8,360.8 325.6,361.6 325.6,360.8 326.4,360.8 327.2,360.8 327.2,360.8 328,360 328,360 328.8,359.2 329.6,358.4 330.4,357.6 
		331.2,356 332,355.2 332.8,355.2 332.8,356 332.8,356.8 332.8,357.6 332.8,357.6 333.6,357.6 333.6,358.4 334.4,358.4 335.2,359.2 
		335.2,359.2 336,358.4 336,358.4 336.8,357.6 337.6,357.6 337.6,356.8 339.2,354.4 340,352 340.8,352 340.8,352 341.6,352.8 
		341.6,352.8 343.2,353.6 344,354.4 344,354.4 344.8,354.4 345.6,355.2 345.6,355.2 346.4,355.2 347.2,355.2 348,355.2 348.8,354.4 
		348.8,354.4 348.8,353.6 349.6,353.6 349.6,352.8 349.6,352 350.4,351.2 350.4,348.8 350.4,346.4 351.2,347.2 352,348 353.6,348.8 
		354.4,349.6 356,349.6 356.8,349.6 357.6,349.6 359.2,349.6 360,349.6 361.6,348.8 362.4,348 363.2,347.2 363.2,347.2 364,346.4 
		364,346.4 364,345.6 364.8,344.8 364.8,344 364.8,342.4 360,342.4 	"/>
	<path style="fill:#FEC50C;" d="M86.4,197.6c1.6-3.2,2.4-4.8,2.4-8.8c0-5.6-4-9.6-10.4-10.4c7.2,0,10.4-4.8,10.4-10.4
		c0-3.2-0.8-5.6-2.4-8.8c0,0-12-25.6-16.8-35.2c-0.8-1.6-0.8-2.4-0.8-4.8c0-3.2,3.2-5.6,6.4-5.6c3.2,0,6.4,2.4,6.4,5.6
		c0,4-2.4,5.6-4,5.6c-2.4,0-3.2-0.8-3.2-3.2c0-1.6,0.8-1.6,1.6-1.6c2.4,0,1.6,3.2,1.6,3.2c0.8,0,1.6-1.6,1.6-2.4
		c0.8,0,1.6-0.8,2.4-1.6c-0.8-0.8-1.6-0.8-2.4-0.8c0.8-1.6,0-2.4-1.6-3.2c0,0.8,0,1.6,0,1.6c-2.4-0.8-5.6,0-5.6,4c0,4,2.4,7.2,8,6.4
		c-1.6,0.8-1.6,1.6-1.6,3.2c0.8,0,1.6-0.8,1.6-0.8c-0.8,0.8-1.6,1.6-1.6,4c0.8-0.8,1.6-1.6,3.2-0.8c-1.6,4,0.8,8.8,6.4,10.4
		c-2.4-2.4-3.2-5.6-3.2-8c0-8.8,2.4-10.4,2.4-16.8c0-2.4-1.6-5.6-4-7.2c1.6-0.8,3.2-1.6,3.2-2.4c-1.6-1.6-2.4-2.4-4-2.4
		c2.4-0.8,4.8-4,4.8-8c0-6.4-2.4-8.8-2.4-16c0-4,3.2-8.8,3.2-8.8c-5.6,0.8-8,5.6-7.2,9.6c-0.8,0-1.6,0-2.4-0.8c-0.8,0.8,0,2.4,0.8,4
		c-0.8,0-1.6,0-2.4,0c0,0.8,0.8,2.4,2.4,4c-4.8-1.6-8,2.4-8,5.6c0,2.4,1.6,4.8,4,4.8c0.8,0,1.6,0,2.4-0.8c0,0.8,0,1.6,0,2.4
		c1.6,0,2.4-0.8,1.6-3.2c0.8,0,1.6-0.8,2.4-0.8c-0.8-0.8-1.6-0.8-2.4-0.8c0.8-1.6,0-2.4-1.6-3.2c0,0,0.8,3.2-1.6,3.2
		c-0.8,0-1.6,0-1.6-1.6c0-0.8,0.8-3.2,3.2-2.4c2.4,0,4,1.6,4,5.6c0,3.2-3.2,5.6-6.4,5.6c-3.2,0-5.6-1.6-5.6-5.6
		C69.6,94.4,76,84,76,80c0-3.2-2.4-4.8-5.6-4.8c-1.6,0-3.2,0.8-4.8,1.6c-0.8-0.8-2.4-1.6-4.8-1.6s-5.6,1.6-5.6,4.8
		c0,4,6.4,14.4,6.4,19.2c0,3.2-2.4,5.6-5.6,5.6c-4,0-6.4-1.6-6.4-5.6s1.6-5.6,4-5.6s3.2,1.6,3.2,2.4c0,1.6-0.8,1.6-1.6,1.6
		c-2.4,0-1.6-3.2-1.6-3.2C52,95.2,51.2,96,52,97.6c-0.8,0-1.6,0-2.4,0.8c0.8,0.8,1.6,0.8,2.4,0.8c-0.8,1.6,0,2.4,1.6,3.2
		c0-0.8-0.8-1.6,0-2.4c0.8,0,1.6,0.8,2.4,0.8c1.6,0,4-1.6,4-4.8c0-4-3.2-7.2-8-5.6c1.6-0.8,2.4-2.4,2.4-4c-0.8,0-1.6,0.8-2.4,0
		c0.8-0.8,1.6-2.4,0.8-4c-0.8,0.8-1.6,0.8-2.4,0.8c1.6-4-1.6-9.6-7.2-9.6c0,0,3.2,4.8,3.2,8.8c0,7.2-2.4,9.6-2.4,16
		c0,4,2.4,6.4,4.8,8c-2.4,0-3.2,0.8-4,2.4c0.8,0.8,1.6,2.4,3.2,2.4c-2.4,1.6-4,4.8-4,7.2c0,6.4,2.4,8,2.4,16.8c0,2.4-0.8,5.6-3.2,8
		c6.4-1.6,8-6.4,6.4-10.4c1.6-0.8,2.4,0,3.2,0.8c0-2.4-0.8-3.2-1.6-4c0,0,0.8,0,1.6,0.8c0-1.6-0.8-2.4-1.6-3.2c4.8,0.8,8-2.4,8-6.4
		s-3.2-4.8-5.6-4c0-0.8,0-0.8,0-1.6c-1.6,0-2.4,0.8-1.6,3.2c-0.8,0-1.6,0.8-2.4,0.8c0.8,0.8,1.6,0.8,2.4,1.6c-0.8,1.6,0,2.4,1.6,2.4
		c0,0-0.8-3.2,1.6-3.2c0.8,0,1.6,0.8,1.6,1.6c0,1.6-0.8,3.2-3.2,3.2c-2.4,0-4-1.6-4-5.6c0-3.2,3.2-5.6,6.4-5.6s6.4,2.4,6.4,5.6
		c0,2.4,0,3.2-0.8,4.8c-4.8,9.6-16.8,35.2-16.8,35.2c-1.6,3.2-2.4,4.8-2.4,8.8c0,5.6,4,9.6,10.4,10.4c-7.2,0-10.4,4.8-10.4,10.4
		c0,3.2,0.8,5.6,2.4,8.8c0,0,12,25.6,16.8,35.2c0.8,1.6,0.8,2.4,0.8,4.8c0,3.2-3.2,5.6-6.4,5.6c-3.2,0-6.4-2.4-6.4-5.6
		c0-4,2.4-5.6,4-5.6c2.4,0,3.2,0.8,3.2,3.2c0,1.6-0.8,1.6-1.6,1.6c-2.4,0-1.6-3.2-1.6-3.2c-0.8,0-1.6,1.6-1.6,2.4
		c-0.8,0-1.6,0.8-2.4,1.6c0.8,0.8,1.6,0.8,2.4,0.8c-0.8,1.6,0,2.4,1.6,3.2c0-0.8,0-1.6,0-1.6c2.4,0.8,5.6,0,5.6-4s-2.4-7.2-8-6.4
		c1.6-0.8,1.6-1.6,1.6-3.2c-0.8,0-1.6,0.8-1.6,0.8c0.8-0.8,1.6-1.6,1.6-4c-0.8,0.8-1.6,1.6-3.2,0.8c1.6-4-0.8-8.8-6.4-10.4
		c2.4,2.4,3.2,5.6,3.2,8c0,8.8-2.4,10.4-2.4,16.8c0,2.4,1.6,5.6,4,7.2c-1.6,0.8-3.2,1.6-3.2,2.4c0.8,0.8,1.6,2.4,3.2,2.4
		c-2.4,1.6-4,4.8-4,7.2c0,6.4,2.4,8,2.4,16.8c0,2.4-0.8,5.6-3.2,8c6.4-1.6,8-6.4,6.4-10.4c1.6-0.8,2.4,0,3.2,0.8
		c0-2.4-0.8-3.2-1.6-4c0,0,0.8,0,1.6,0.8c0-1.6-0.8-2.4-1.6-3.2c4.8,0.8,8-2.4,8-6.4s-3.2-4.8-5.6-4c0-0.8,0-0.8,0-1.6
		c-1.6,0-2.4,0.8-1.6,3.2c-0.8,0-1.6,0.8-2.4,0.8c0.8,0.8,1.6,0.8,2.4,1.6c-0.8,1.6,0,2.4,1.6,2.4c0,0-0.8-3.2,1.6-3.2
		c0.8,0,1.6,0.8,1.6,1.6c0,1.6-0.8,3.2-3.2,3.2c-2.4,0-4-1.6-4-5.6c0-3.2,3.2-5.6,6.4-5.6s6.4,2.4,6.4,5.6c0,2.4,0,3.2-0.8,4.8
		c-4.8,9.6-16.8,35.2-16.8,35.2c-1.6,3.2-2.4,4.8-2.4,8.8c0,5.6,4,9.6,10.4,10.4c-7.2,0-10.4,4.8-10.4,10.4c0,3.2,0.8,5.6,2.4,8.8
		c0,0,12,25.6,16.8,35.2c0.8,1.6,0.8,2.4,0.8,4.8c0,3.2-3.2,5.6-6.4,5.6c-3.2,0-6.4-2.4-6.4-5.6c0-4,2.4-5.6,4-5.6
		c2.4,0,3.2,0.8,3.2,3.2c0,1.6-0.8,1.6-1.6,1.6c-2.4,0-1.6-3.2-1.6-3.2c-0.8,0-1.6,1.6-1.6,2.4c-0.8,0-1.6,0.8-2.4,1.6
		c0.8,0.8,1.6,0.8,2.4,0.8c-0.8,1.6,0,2.4,1.6,3.2c0-0.8,0-1.6,0-1.6c2.4,0.8,5.6,0,5.6-4s-2.4-7.2-8-6.4c1.6-0.8,1.6-1.6,1.6-3.2
		c-0.8,0-1.6,0.8-1.6,0.8c0.8-0.8,1.6-1.6,1.6-4c-0.8,0.8-1.6,1.6-3.2,0.8c1.6-4-0.8-8.8-6.4-10.4c2.4,2.4,3.2,5.6,3.2,8
		c0,8.8-2.4,10.4-2.4,16.8c0,2.4,1.6,5.6,4,7.2c-1.6,0.8-3.2,1.6-3.2,2.4c1.6,1.6,2.4,2.4,4,2.4c-2.4,0.8-4.8,4-4.8,8
		c0,6.4,2.4,8.8,2.4,16c0,4-3.2,8.8-3.2,8.8c5.6-0.8,8-5.6,7.2-9.6c0.8,0,1.6,0,2.4,0.8c0-0.8,0-2.4-0.8-4c0.8,0,1.6,0,2.4,0
		c0-0.8-0.8-2.4-2.4-4c4.8,1.6,8-2.4,8-5.6c0-2.4-1.6-4.8-4-4.8c-0.8,0-1.6,0-2.4,0.8c0-0.8,0-1.6,0-2.4c-1.6,0-2.4,0.8-1.6,3.2
		c-0.8,0-1.6,0.8-2.4,0.8c0.8,0.8,1.6,0.8,2.4,0.8c-0.8,1.6,0,2.4,1.6,3.2c0,0-0.8-3.2,1.6-3.2c0.8,0,1.6,0,1.6,1.6
		c0,0.8-0.8,3.2-3.2,2.4c-2.4,0-4-1.6-4-5.6c0-3.2,3.2-5.6,6.4-5.6s5.6,1.6,5.6,5.6c0,4.8-6.4,15.2-6.4,19.2c0,3.2,2.4,4.8,5.6,4.8
		c1.6,0,3.2-0.8,4.8-1.6c0.8,0.8,2.4,1.6,4.8,1.6s5.6-1.6,5.6-4.8c0-4-6.4-14.4-6.4-19.2c0-3.2,2.4-5.6,5.6-5.6c4,0,6.4,1.6,6.4,5.6
		s-1.6,5.6-4,5.6s-3.2-1.6-3.2-2.4c0-1.6,0.8-1.6,1.6-1.6c2.4,0,1.6,3.2,1.6,3.2c1.6-0.8,2.4-1.6,1.6-3.2c0.8,0,1.6,0,2.4-0.8
		c-0.8-0.8-1.6-0.8-2.4-0.8c0.8-1.6,0-2.4-1.6-3.2c0,0.8,0.8,1.6,0,2.4c-0.8,0-1.6-0.8-2.4-0.8c-1.6,0-4,1.6-4,4.8
		c0,4,3.2,7.2,8,5.6c-1.6,0.8-2.4,2.4-2.4,4c0.8,0,1.6-0.8,2.4,0c-0.8,0.8-1.6,2.4-0.8,4c0.8-0.8,1.6-0.8,2.4-0.8
		c-1.6,4,0.8,9.6,7.2,9.6c0,0-3.2-4.8-3.2-8.8c0-7.2,2.4-9.6,2.4-16c0-4-2.4-6.4-4.8-8c2.4,0,3.2-0.8,4-2.4
		c-0.8-0.8-1.6-2.4-3.2-2.4c2.4-1.6,4-4.8,4-7.2c0-6.4-2.4-8-2.4-16.8c0-2.4,0.8-5.6,3.2-8c-6.4,1.6-8,6.4-6.4,10.4
		c-1.6,0.8-2.4,0-3.2-0.8c0,2.4,0.8,3.2,1.6,4c0,0-0.8,0-1.6-0.8c0,1.6,0.8,2.4,1.6,3.2c-4.8-0.8-8,2.4-8,6.4s3.2,4.8,5.6,4
		c0,0.8,0,0.8,0,1.6c1.6,0,2.4-0.8,1.6-3.2c0.8,0,1.6-0.8,2.4-0.8c-0.8-0.8-1.6-0.8-2.4-1.6c0.8-1.6,0-2.4-1.6-2.4
		c0,0,0.8,3.2-1.6,3.2c-0.8,0-1.6-0.8-1.6-1.6c0-1.6,0.8-3.2,3.2-3.2c2.4,0,4,1.6,4,5.6c0,3.2-3.2,5.6-6.4,5.6
		c-3.2,0-6.4-2.4-6.4-5.6c0-2.4,0-3.2,0.8-4.8c4.8-9.6,16.8-35.2,16.8-35.2c1.6-3.2,2.4-4.8,2.4-8.8c0-5.6-4-9.6-10.4-10.4
		c7.2,0,10.4-4.8,10.4-10.4c0-3.2-0.8-5.6-2.4-8.8c0,0-12-25.6-16.8-35.2c-0.8-1.6-0.8-2.4-0.8-4.8c0-3.2,3.2-5.6,6.4-5.6
		c3.2,0,6.4,2.4,6.4,5.6c0,4-2.4,5.6-4,5.6c-2.4,0-3.2-0.8-3.2-3.2c0-1.6,0.8-1.6,1.6-1.6c2.4,0,1.6,3.2,1.6,3.2
		c0.8,0,1.6-1.6,1.6-2.4c0.8,0,1.6-0.8,2.4-1.6c-0.8-0.8-1.6-0.8-2.4-0.8c0.8-1.6,0-2.4-1.6-3.2c0,0.8,0,1.6,0,1.6
		c-2.4-0.8-5.6,0.8-5.6,4c0,4,2.4,7.2,8,6.4c-1.6,0.8-1.6,1.6-1.6,3.2c0.8,0,1.6-0.8,1.6-0.8c-0.8,0.8-1.6,1.6-1.6,4
		c0.8-0.8,1.6-1.6,3.2-0.8c-1.6,4,0.8,8.8,6.4,10.4c-2.4-2.4-3.2-5.6-3.2-8c0-8.8,2.4-10.4,2.4-16.8c0-2.4-1.6-5.6-4-7.2
		c1.6-0.8,3.2-1.6,3.2-2.4c-0.8-0.8-1.6-2.4-3.2-2.4c2.4-1.6,4-4.8,4-7.2c0-6.4-2.4-8-2.4-16.8c0-2.4,0.8-5.6,3.2-8
		c-6.4,1.6-8,6.4-6.4,10.4c-1.6,0.8-2.4,0-3.2-0.8c0,2.4,0.8,3.2,1.6,4c0,0-0.8,0-1.6-0.8c0,1.6,0.8,2.4,1.6,3.2
		c-4.8-0.8-8,2.4-8,6.4s3.2,4.8,5.6,4c0,0.8,0,0.8,0,1.6c1.6,0,2.4-0.8,1.6-3.2c0.8,0,1.6-0.8,2.4-0.8c-0.8-0.8-1.6-0.8-2.4-1.6
		c0.8-1.6,0-2.4-1.6-2.4c0,0,0.8,3.2-1.6,3.2c-0.8,0-1.6-0.8-1.6-1.6c0-1.6,0.8-3.2,3.2-3.2c2.4,0,4,1.6,4,5.6
		c0,3.2-3.2,5.6-6.4,5.6c-3.2,0-6.4-2.4-6.4-5.6c0-2.4,0-3.2,0.8-4.8C74.4,223.2,86.4,197.6,86.4,197.6z M65.6,187.2
		c-1.6-4.8-6.4-7.2-10.4-8c4-0.8,8.8-3.2,10.4-8c1.6,4.8,6.4,7.2,10.4,8C72,180,67.2,182.4,65.6,187.2z M60.8,82.4
		c1.6-1.6,4.8,1.6,4.8,1.6l0,0l0,0c0,0,4-3.2,4.8-1.6C72,84,68,92,65.6,96.8C63.2,91.2,59.2,84,60.8,82.4z M58.4,111.2h-0.8
		c3.2-0.8,6.4-2.4,8-4.8c1.6,2.4,4,4,8,4.8h-0.8c-4,0.8-6.4,3.2-7.2,4.8C64.8,114.4,62.4,112,58.4,111.2z M47.2,168.8
		c0-1.6,0.8-3.2,1.6-4.8c3.2-7.2,14.4-31.2,17.6-36.8C68.8,132,80,156,84,164c0.8,1.6,0.8,3.2,0.8,4.8c0,4.8-4,6.4-6.4,6.4
		c-3.2,0-5.6-2.4-5.6-4.8c0-1.6,0.8-2.4,2.4-2.4c3.2,0,3.2,2.4,2.4,4.8c2.4-0.8,3.2-2.4,3.2-4c0.8,0,2.4-0.8,3.2-1.6
		c-0.8-0.8-1.6-1.6-3.2-1.6c0.8-2.4-0.8-4-3.2-4c0.8,1.6,0.8,4-2.4,4c-2.4,0-4,0.8-5.6,1.6c0-2.4,0-10.4,0-10.4c0-3.2,4-3.2,7.2-2.4
		c-0.8-3.2-3.2-5.6-8-4.8c0.8-0.8,2.4-1.6,2.4-4c0-3.2-2.4-6.4-4-7.2c-1.6,0.8-4,4-4,7.2c0,2.4,1.6,3.2,2.4,4
		c-4.8-0.8-7.2,1.6-8,4.8c2.4-0.8,7.2-0.8,7.2,2.4c0,0,0,8,0,10.4c-0.8-1.6-3.2-1.6-5.6-1.6c-3.2,0-3.2-2.4-2.4-4
		c-1.6,0.8-3.2,1.6-3.2,4c-1.6,0-2.4,0.8-3.2,1.6c-0.8-0.8,0,0,1.6,0c0,1.6,0.8,3.2,3.2,4c-0.8-1.6-1.6-4,1.6-4
		c1.6,0,2.4,0.8,2.4,2.4c0,2.4-3.2,4.8-5.6,4.8C51.2,175.2,47.2,173.6,47.2,168.8z M65.6,307.2c1.6,4.8,6.4,7.2,10.4,8
		c-4,0.8-8.8,3.2-10.4,8c-1.6-4.8-6.4-7.2-10.4-8C59.2,314.4,64,312,65.6,307.2z M70.4,412c-1.6,1.6-4.8-1.6-4.8-1.6s-4,3.2-4.8,1.6
		c-1.6-1.6,2.4-9.6,4.8-14.4C67.2,403.2,72,410.4,70.4,412z M72,383.2h0.8c-3.2,0.8-6.4,2.4-8,4.8c-1.6-2.4-4-4-8-4.8h0.8
		c4-0.8,6.4-3.2,7.2-4.8C66.4,380,68.8,382.4,72,383.2z M84,325.6c0,1.6-0.8,3.2-0.8,4.8c-3.2,7.2-15.2,31.2-17.6,36.8
		c-2.4-4.8-13.6-28.8-17.6-36.8c-0.8-1.6-1.6-3.2-1.6-4.8c0-4.8,4-6.4,6.4-6.4c3.2,0,5.6,2.4,5.6,4.8c0,1.6-0.8,2.4-2.4,2.4
		c-3.2,0-3.2-2.4-2.4-4.8c-2.4,0.8-3.2,2.4-3.2,4c-0.8,0-2.4,0.8-3.2,1.6c0.8,0.8,1.6,1.6,3.2,1.6c-0.8,2.4,0.8,4,3.2,4
		c-0.8-1.6-0.8-4,2.4-4c2.4,0,4-0.8,5.6-1.6c0,2.4,0,10.4,0,10.4c0,3.2-4,3.2-7.2,2.4c0.8,3.2,3.2,5.6,8,4.8c-0.8,0.8-2.4,1.6-2.4,4
		c0,3.2,2.4,6.4,4,7.2c1.6-0.8,4-4,4-7.2c0-2.4-1.6-3.2-2.4-4c4.8,0.8,7.2-1.6,8-4.8c-2.4,0.8-7.2,0.8-7.2-2.4c0,0,0-8,0-10.4
		c0.8,1.6,3.2,1.6,5.6,1.6c3.2,0,3.2,2.4,2.4,4c1.6-0.8,3.2-1.6,3.2-4c1.6,0,2.4-0.8,3.2-1.6c0,0.8-0.8,0-1.6,0c0-1.6-0.8-3.2-3.2-4
		c0.8,1.6,0.8,4.8-2.4,4.8c-1.6,0-2.4-0.8-2.4-2.4c0-2.4,3.2-4.8,5.6-4.8C79.2,319.2,84,320.8,84,325.6z M82.4,299.2
		c0.8,1.6,0.8,3.2,0.8,4.8c0,4.8-4,6.4-6.4,6.4c-3.2,0-5.6-2.4-5.6-4.8c0-1.6,0.8-2.4,2.4-2.4c3.2,0,3.2,2.4,2.4,4.8
		c2.4-0.8,3.2-2.4,3.2-4c0.8,0,2.4-0.8,3.2-1.6c-0.8-0.8-1.6-1.6-3.2-1.6c0.8-2.4-0.8-4-3.2-4c0.8,1.6,0.8,4-2.4,4
		c-2.4,0-4,0.8-5.6,1.6c0-2.4,0-10.4,0-10.4c0-3.2,4-3.2,7.2-2.4c-0.8-3.2-3.2-5.6-8-4.8c0.8-0.8,2.4-1.6,2.4-4c0-3.2-2.4-6.4-4-7.2
		c-1.6,0.8-4,4-4,7.2c0,2.4,1.6,3.2,2.4,4c-4.8-0.8-7.2,1.6-8,4.8c2.4-0.8,7.2-0.8,7.2,2.4c0,0,0,8,0,10.4c-0.8-1.6-3.2-1.6-5.6-1.6
		c-3.2,0-3.2-2.4-2.4-4c-1.6,0.8-3.2,1.6-3.2,4c-1.6,0-2.4,0.8-3.2,1.6c0.8,0,1.6,0.8,3.2,0.8c0,1.6,0.8,3.2,3.2,4
		c-0.8-1.6-1.6-4,1.6-4c1.6,0,2.4,0.8,2.4,2.4c0,2.4-3.2,4.8-5.6,4.8s-6.4-1.6-6.4-6.4c0-1.6,0.8-3.2,1.6-4.8
		C52,292,63.2,268,66.4,262.4C68,268,79.2,292,82.4,299.2z M72,247.2C72,247.2,72.8,247.2,72,247.2C72.8,247.2,72,247.2,72,247.2
		c-4,0.8-6.4,3.2-7.2,4.8c-0.8-1.6-3.2-4-7.2-4.8c0,0,0,0-0.8,0c0,0,0,0,0.8,0c4-0.8,6.4-3.2,7.2-4.8C66.4,244,68.8,246.4,72,247.2z
		 M65.6,231.2c-2.4-4.8-13.6-28.8-17.6-36.8c-0.8-1.6-1.6-3.2-1.6-4.8c0-4.8,4-6.4,6.4-6.4c3.2,0,5.6,2.4,5.6,4.8
		c0,1.6-0.8,2.4-2.4,2.4c-3.2,0-3.2-2.4-2.4-4.8c-2.4,0.8-3.2,2.4-3.2,4c-0.8,0-2.4,0.8-3.2,1.6c0.8,0.8,1.6,1.6,3.2,1.6
		c-0.8,2.4,0.8,4,3.2,4c-0.8-1.6-0.8-4,2.4-4c2.4,0,4-0.8,5.6-1.6c0,2.4,0,10.4,0,10.4c0,3.2-4,3.2-7.2,2.4c0.8,3.2,3.2,5.6,8,4.8
		c-0.8,0.8-2.4,1.6-2.4,4c0,3.2,2.4,6.4,4,7.2c1.6-0.8,4-4,4-7.2c0-2.4-1.6-3.2-2.4-4c4.8,0.8,7.2-1.6,8-4.8
		c-2.4,0.8-7.2,0.8-7.2-2.4c0,0,0-8,0-10.4c0.8,1.6,3.2,1.6,5.6,1.6c3.2,0,3.2,2.4,2.4,4c1.6-0.8,3.2-1.6,3.2-4
		c1.6,0,2.4-0.8,3.2-1.6c0,0.8-0.8,0-1.6,0c0-1.6-0.8-3.2-3.2-4c0.8,1.6,0.8,4.8-2.4,4.8c-1.6,0-2.4-0.8-2.4-2.4
		c0-2.4,3.2-4.8,5.6-4.8s6.4,1.6,6.4,6.4c0,1.6-0.8,3.2-0.8,4.8C79.2,202.4,68,226.4,65.6,231.2z"/>
</g>
<g>
	<path style="fill:#FCA110;" d="M71.2,368.8c0,0.8-0.8,1.6-0.8,2.4c0,4,3.2,4.8,5.6,4c0,0.8,0,0.8,0,1.6c1.6,0,2.4-0.8,1.6-3.2
		c0.8,0,1.6-0.8,2.4-0.8c-0.8-0.8-1.6-0.8-2.4-1.6c0.8-1.6,0-2.4-1.6-2.4c0,0,0.8,3.2-1.6,3.2c-0.8,0-1.6-0.8-1.6-1.6
		c0-0.8,0-0.8,0.8-1.6H71.2z"/>
	<path style="fill:#FCA110;" d="M85.6,392.8c0-4-2.4-6.4-4.8-8c2.4,0,3.2-0.8,4-2.4c-0.8-0.8-1.6-2.4-3.2-2.4c2.4-1.6,4-4.8,4-7.2
		c0-1.6,0-3.2-0.8-4h-5.6c0.8,0.8,1.6,2.4,1.6,4c0,3.2-3.2,5.6-6.4,5.6c-3.2,0-6.4-2.4-6.4-5.6c0-1.6,0-3.2,0.8-4.8h-8
		c0.8,0.8,0.8,2.4,0.8,4.8c0,3.2-3.2,5.6-6.4,5.6c-3.2,0-6.4-2.4-6.4-5.6c0-2.4,0.8-3.2,1.6-4h-4.8c0,1.6-0.8,2.4-0.8,4
		c0,2.4,1.6,5.6,4,7.2c-1.6,0.8-3.2,1.6-3.2,2.4c1.6,1.6,2.4,2.4,4,2.4c-2.4,0.8-4.8,4-4.8,8c0,6.4,2.4,8.8,2.4,16
		c0,3.2-2.4,8-3.2,8.8l0,0c5.6-0.8,8-5.6,6.4-9.6c0.8,0,1.6,0,2.4,0.8c0-0.8,0-2.4-0.8-4c0.8,0,1.6,0,2.4,0c0-0.8-0.8-2.4-2.4-4
		c4.8,1.6,8-2.4,8-5.6c0-2.4-1.6-4.8-4-4.8c-0.8,0-1.6,0-2.4,0.8c0-0.8,0-1.6,0-2.4c-1.6,0-2.4,0.8-1.6,3.2c-0.8,0-1.6,0.8-2.4,0.8
		c0.8,0.8,1.6,0.8,2.4,0.8c-0.8,1.6,0,2.4,1.6,3.2c0,0-0.8-3.2,1.6-3.2c0.8,0,1.6,0,1.6,1.6c0,0.8-0.8,3.2-3.2,2.4
		c-2.4,0-4-1.6-4-5.6c0-3.2,3.2-5.6,6.4-5.6s5.6,1.6,5.6,5.6c0,4.8-6.4,15.2-6.4,19.2c0,3.2,2.4,4.8,5.6,4.8c1.6,0,3.2-0.8,4.8-1.6
		c0.8,0.8,2.4,1.6,4.8,1.6s5.6-1.6,5.6-4.8c0-4-6.4-14.4-6.4-19.2c0-3.2,2.4-5.6,5.6-5.6c4,0,6.4,1.6,6.4,5.6s-1.6,5.6-4,5.6
		s-3.2-1.6-3.2-2.4c0-1.6,0.8-1.6,1.6-1.6c2.4,0,1.6,3.2,1.6,3.2c1.6-0.8,2.4-1.6,1.6-3.2c0.8,0,1.6,0,2.4-0.8
		c-0.8-0.8-1.6-0.8-2.4-0.8c0.8-1.6,0-2.4-1.6-3.2c0,0.8,0.8,1.6,0,2.4c-0.8,0-1.6-0.8-2.4-0.8c-1.6,0-4,1.6-4,4.8
		c0,4,3.2,7.2,8,5.6c-1.6,0.8-2.4,2.4-2.4,4c0.8,0,1.6-0.8,2.4,0c-0.8,0.8-1.6,2.4-0.8,4c0.8-0.8,1.6-0.8,2.4-0.8
		c-1.6,4,0.8,9.6,7.2,9.6c0,0-3.2-4.8-3.2-8.8C83.2,401.6,85.6,399.2,85.6,392.8z M70.4,412c-1.6,1.6-4.8-1.6-4.8-1.6
		s-4,3.2-4.8,1.6c-1.6-1.6,2.4-9.6,4.8-14.4C67.2,403.2,72,410.4,70.4,412z M65.6,388c-1.6-2.4-4-4-8-4.8h0.8c4-0.8,6.4-3.2,7.2-4.8
		c0.8,1.6,3.2,4,7.2,4.8h0.8C69.6,384,67.2,385.6,65.6,388z"/>
	<path style="fill:#FCA110;" d="M57.6,370.4c0,1.6-0.8,1.6-1.6,1.6c-2.4,0-1.6-3.2-1.6-3.2c-0.8,0-1.6,1.6-1.6,2.4
		c-0.8,0-1.6,0.8-2.4,1.6c0.8,0.8,1.6,0.8,2.4,0.8c-0.8,1.6,0,2.4,1.6,3.2c0-0.8,0-1.6,0-1.6c2.4,0.8,5.6,0,5.6-4
		c0-0.8,0-1.6-0.8-2.4h-2.4C57.6,369.6,57.6,369.6,57.6,370.4z"/>
</g>
<g>
</g>
<g>
</g>
<g>
</g>
<g>
</g>
<g>
</g>
<g>
</g>
<g>
</g>
<g>
</g>
<g>
</g>
<g>
</g>
<g>
</g>
<g>
</g>
<g>
</g>
<g>
</g>
<g>
</g>
</svg>
