<?xml version="1.0" encoding="iso-8859-1"?>
<!-- Generator: Adobe Illustrator 19.0.0, SVG Export Plug-In . SVG Version: 6.00 Build 0)  -->
<svg version="1.1" id="Capa_1" xmlns="http://www.w3.org/2000/svg" xmlns:xlink="http://www.w3.org/1999/xlink" x="0px" y="0px"
	 viewBox="0 0 496 496" style="enable-background:new 0 0 496 496;" xml:space="preserve">
<path style="fill:#C1272D;" d="M496,369.6c0,27.2-21.6,48.8-48,48.8H48c-26.4,0-48-21.6-48-48.8V126.4c0-27.2,21.6-48.8,48-48.8h400
	c26.4,0,48,21.6,48,48.8V369.6z"/>
<path style="fill:#AD141F;" d="M48,77.6h400c26.4,0,48,21.6,48,48.8v243.2c0,27.2-21.6,48.8-48,48.8"/>
<g>
	<path style="fill:#990D1D;" d="M48,77.6h400c26.4,0,48,21.6,48,48.8v88.8"/>
	<path style="fill:#990D1D;" d="M496,369.6c0,27.2-21.6,48.8-48,48.8H48c-26.4,0-48-21.6-48-48.8"/>
</g>
<path id="SVGCleanerId_0" style="fill:#006233;" d="M339.2,227.2h-69.6L248,160.8l-21.6,66.4h-69.6l56,40.8L192,335.2
	c14.4-10.4,40.8-29.6,56-40.8l56.8,40.8l-21.6-66.4L339.2,227.2z M248,206.4l7.2,20.8h-13.6L248,206.4z M200,241.6h22.4l-4,12.8
	L200,241.6z M218.4,298.4l6.4-20.8l11.2,8L218.4,298.4z M229.6,263.2l7.2-21.6h22.4l7.2,21.6L248,276.8L229.6,263.2z M260,285.6
	L260,285.6l11.2-8l6.4,20.8L260,285.6z M274.4,241.6H296l-17.6,12.8L274.4,241.6z"/>
<g>
	<path id="SVGCleanerId_0_1_" style="fill:#006233;" d="M339.2,227.2h-69.6L248,160.8l-21.6,66.4h-69.6l56,40.8L192,335.2
		c14.4-10.4,40.8-29.6,56-40.8l56.8,40.8l-21.6-66.4L339.2,227.2z M248,206.4l7.2,20.8h-13.6L248,206.4z M200,241.6h22.4l-4,12.8
		L200,241.6z M218.4,298.4l6.4-20.8l11.2,8L218.4,298.4z M229.6,263.2l7.2-21.6h22.4l7.2,21.6L248,276.8L229.6,263.2z M260,285.6
		L260,285.6l11.2-8l6.4,20.8L260,285.6z M274.4,241.6H296l-17.6,12.8L274.4,241.6z"/>
</g>
<path style="fill:#044223;" d="M269.6,227.2L248,160.8l-21.6,66.4H224l16.8,14.4H260l7.2,21.6l0,0l20.8,17.6l-4-12.8l56-40.8
	L269.6,227.2L269.6,227.2z M240.8,227.2l6.4-20.8l7.2,20.8H240.8z M278.4,254.4l-4-12.8H296L278.4,254.4z"/>
<g>
</g>
<g>
</g>
<g>
</g>
<g>
</g>
<g>
</g>
<g>
</g>
<g>
</g>
<g>
</g>
<g>
</g>
<g>
</g>
<g>
</g>
<g>
</g>
<g>
</g>
<g>
</g>
<g>
</g>
</svg>
