<?xml version="1.0" encoding="iso-8859-1"?>
<!-- Generator: Adobe Illustrator 19.0.0, SVG Export Plug-In . SVG Version: 6.00 Build 0)  -->
<svg version="1.1" id="Capa_1" xmlns="http://www.w3.org/2000/svg" xmlns:xlink="http://www.w3.org/1999/xlink" x="0px" y="0px"
	 viewBox="0 0 496.3 496.3" style="enable-background:new 0 0 496.3 496.3;" xml:space="preserve">
<path style="fill:#339E35;" d="M0,305.55v64.2c0,27.2,21.6,48.8,48,48.8h400c26.4,0,48.3-21.6,48.3-48.8v-64.2L0,305.55L0,305.55z"
	/>
<path id="SVGCleanerId_0" style="fill:#444444;" d="M448,77.75H48c-26.4,0-48,21.6-48,48.8v63.9h496.3v-63.9
	C496.3,99.35,474.4,77.75,448,77.75z"/>
<g>
	<path id="SVGCleanerId_0_1_" style="fill:#444444;" d="M448,77.75H48c-26.4,0-48,21.6-48,48.8v63.9h496.3v-63.9
		C496.3,99.35,474.4,77.75,448,77.75z"/>
</g>
<rect y="190.45" style="fill:#CE1126;" width="496.3" height="115.1"/>
<path style="fill:#288928;" d="M448,418.55c26.4,0,48.3-21.6,48.3-48.8v-64.2H315.2L448,418.55z"/>
<path style="fill:#282626;" d="M448,77.75H48l132.5,112.7h315.7v-64.7C496.3,98.55,474.4,77.75,448,77.75z"/>
<polygon style="fill:#B50B24;" points="316,305.55 496.3,305.55 496.3,190.45 180.5,190.45 "/>
<path d="M448,77.75H48l368.2,112.7h80v-64.3C496.3,98.95,474.4,77.75,448,77.75z"/>
<polygon style="fill:#A00724;" points="496.3,214.55 496.3,190.45 416.2,190.45 "/>
<path style="fill:#1F771F;" d="M496.3,369.75c0,27.2-21.9,48.8-48.3,48.8H48c-26.4,0-48-21.6-48-48.8"/>
<g>
	<path style="fill:#CE1126;" d="M170.4,140.15c6.4,5.6,10.4,7.2,20.8,13.6c-8-9.6-11.2-12.9-16.8-17.6c-2.6-2.4-5.8-4.2-7.2-2.4
		C166,135.25,168,138.55,170.4,140.15z"/>
	<path style="fill:#CE1126;" d="M211.2,136.95c-4-11.2-5.6-15.2-9.6-22.4c-1.6-3.2-3.8-5.5-6.2-4.1c-2.1,1.2-1,4.9,0.6,7.3
		C200,124.95,203.2,128.15,211.2,136.95z"/>
	<path style="fill:#CE1126;" d="M156,149.85c-0.8,1.6,1.8,3.7,4.8,5.5c7.2,4,11.2,5.6,22.4,9.6c-9.6-8-12-10.4-19.2-14.4
		C160.3,148.05,157.2,147.45,156,149.85z"/>
	<path style="fill:#CE1126;" d="M199.2,144.95c-6.4-10.4-8-14.4-13.6-20.8c-2.4-2.6-4.9-4.9-6.9-2.9c-1.8,1.9,0.9,4.8,2.9,6.9
		C187.2,134.55,190.4,136.95,199.2,144.95z"/>
	<path style="fill:#CE1126;" d="M148.8,164.95c-0.5,2.5,2.4,4,5.6,5.6c8,3.2,12,3.2,24,5.6c-10.4-6.4-14.4-8.8-21.6-11.2
		C153,163.45,149.6,163.35,148.8,164.95z"/>
	<path style="fill:#CE1126;" d="M347.2,164.95c-0.9-2.4-4-1.6-7.2-0.8c-8,3.2-11.2,5.6-21.6,11.2c12-2.4,16-2.4,24-5.6
		C345.4,168.65,347.8,166.65,347.2,164.95z"/>
	<path style="fill:#CE1126;" d="M339.2,148.95c-0.8-1.6-4.8-0.8-7.2,0.8c-7.2,4-10.4,7.2-19.2,14.4c11.2-4,15.3-5.4,22.5-9.4
		C337.9,153.15,340.1,150.65,339.2,148.95z"/>
	<path style="fill:#CE1126;" d="M304.8,152.95c10.4-6.4,14.4-8,20.8-13.6c2.3-2,3.4-4,3.1-5.4c-0.1-0.5-0.5-0.9-1-1.1
		c-1.7-0.6-4,1.1-6.1,2.5C315.2,140.95,312.8,144.15,304.8,152.95z"/>
	<path style="fill:#CE1126;" d="M248,135.35c-28.8,0-53.6,18.4-62.4,44h124.8C301.6,153.75,276.8,135.35,248,135.35z"/>
	<path style="fill:#CE1126;" d="M222.4,131.35c-2.4-12-2.5-15.8-5.5-24.1c-1.2-3.3-2.7-5.5-4.9-4.7c-2.6,0.8-2,4-0.8,7.2
		C214.4,117.75,216.8,120.95,222.4,131.35z"/>
	<path style="fill:#CE1126;" d="M299.2,117.75c2.3-3.7,3.1-6.3,1.6-7.2c-2.7-1.7-4.6,1.3-6.4,4c-4,7.2-5.6,11.2-9.6,22.4
		C292.8,127.35,294.8,124.85,299.2,117.75z"/>
	<path style="fill:#CE1126;" d="M313.6,127.35c2.4-2.4,3.7-5.2,2.4-6.4c-1.6-1.6-4.8,0.8-6.4,3.2c-5.6,6.4-8,9.6-13.6,20
		C305.6,136.15,308.8,133.75,313.6,127.35z"/>
	<path style="fill:#CE1126;" d="M284,102.55c-2.4-0.8-4,2.4-5.6,5.6c-3.2,8-3.2,12-5.6,24c6.4-10.4,8.8-14.4,11.2-21.6
		C285.6,106.55,285.6,103.35,284,102.55z"/>
	<path style="fill:#CE1126;" d="M235.2,128.15c0-12,0-16-0.8-24.8c-0.3-3.2-1.4-6-4.2-5.7c-2.6,0.5-3,4.1-2.3,7.3
		C229.6,112.95,231.2,116.95,235.2,128.15z"/>
	<path style="fill:#CE1126;" d="M268.8,105.75c0.6-3.8-0.1-7.6-2.1-7.9c-2.4-0.4-4,3.2-4.3,6.3c-1.6,8-0.8,12-0.8,24.8
		C265.6,117.75,267.2,113.75,268.8,105.75z"/>
	<path style="fill:#CE1126;" d="M251.2,102.55c0-3.2-0.8-6.4-3.2-6.4c-2.4,0-3.2,3.2-3.2,6.4c0,8,0.8,12,3.2,24
		C250.4,114.55,251.2,110.55,251.2,102.55z"/>
</g>
<g>
</g>
<g>
</g>
<g>
</g>
<g>
</g>
<g>
</g>
<g>
</g>
<g>
</g>
<g>
</g>
<g>
</g>
<g>
</g>
<g>
</g>
<g>
</g>
<g>
</g>
<g>
</g>
<g>
</g>
</svg>
