<?xml version="1.0" encoding="iso-8859-1"?>
<!-- Generator: Adobe Illustrator 19.0.0, SVG Export Plug-In . SVG Version: 6.00 Build 0)  -->
<svg version="1.1" id="Capa_1" xmlns="http://www.w3.org/2000/svg" xmlns:xlink="http://www.w3.org/1999/xlink" x="0px" y="0px"
	 viewBox="0 0 496 496" style="enable-background:new 0 0 496 496;" xml:space="preserve">
<path style="fill:#14A755;" d="M496,369.6c0,27.2-21.6,46.4-48,46.4H48c-26.4,0-48-19.2-48-46.4V126.4C0,99.2,21.6,80,48,80h400
	c26.4,0,48,19.2,48,46.4V369.6z"/>
<path style="fill:#0C8E41;" d="M48,80h400c26.4,0,48,19.2,48,46.4v243.2c0,27.2-25.6,46.4-52,46.4"/>
<g>
	<path style="fill:#037F35;" d="M496,368.8c0,28.8-21.6,47.2-48,47.2H48c-26.4,0-48-20.8-48-48"/>
	<path style="fill:#037F35;" d="M48,80h400c26.4,0,48,19.2,48,46.4V216"/>
</g>
<path style="fill:#FCD943;" d="M0,126.4v243.2C0,396.8,21.6,416,48,416h13.6l295.2-168L61.6,80H48C21.6,80,0,99.2,0,126.4z"/>
<g>
	<path style="fill:#F9B443;" d="M0,368c0,32,21.6,48,48,48h13.6l84-48H0z"/>
	<polygon style="fill:#F9B443;" points="356.8,248 61.6,80 48,80 290.4,285.6 	"/>
</g>
<path style="fill:#CD2029;" d="M22.4,86.4C8,94.4,0,109.6,0,126.4v243.2c0,16.8,8.8,31.2,21.6,40L236.8,248L22.4,86.4z"/>
<path style="fill:#B51222;" d="M21.6,409.6L21.6,409.6L76.8,368H0c0,0,0,4.8,0,6.4C0.8,375.2,2.4,400.8,21.6,409.6z"/>
<g>
</g>
<g>
</g>
<g>
</g>
<g>
</g>
<g>
</g>
<g>
</g>
<g>
</g>
<g>
</g>
<g>
</g>
<g>
</g>
<g>
</g>
<g>
</g>
<g>
</g>
<g>
</g>
<g>
</g>
</svg>
