<?xml version="1.0" encoding="iso-8859-1"?>
<!-- Generator: Adobe Illustrator 19.0.0, SVG Export Plug-In . SVG Version: 6.00 Build 0)  -->
<svg version="1.1" id="Capa_1" xmlns="http://www.w3.org/2000/svg" xmlns:xlink="http://www.w3.org/1999/xlink" x="0px" y="0px"
	 viewBox="0 0 512 512" style="enable-background:new 0 0 512 512;" xml:space="preserve">
<path style="fill:#68BFE5;" d="M512,381.537c0,28.077-22.297,50.374-49.548,50.374H49.548C22.297,431.912,0,409.615,0,381.537
	V130.492c0-28.077,22.297-50.374,49.548-50.374h412.903c27.252,0,49.548,22.297,49.548,50.374L512,381.537L512,381.537z"/>
<path style="fill:#192760;" d="M49.548,80.118h412.903c27.252,0,49.548,22.297,49.548,50.374v251.045
	c0,28.077-22.297,50.374-49.548,50.374L49.548,80.118z"/>
<path style="fill:#41AFD6;" d="M49.548,80.118h412.903c27.252,0,49.548,22.297,49.548,50.374v251.045
	c0,28.077-22.297,50.374-49.548,50.374L49.548,80.118z"/>
<g>
	<path style="fill:#05A3CE;" d="M512,381.537c0,28.077-22.297,50.374-49.548,50.374H49.548C22.297,431.912,0,409.615,0,381.537H512z
		"/>
	<path style="fill:#05A3CE;" d="M49.548,80.118h412.903c27.252,0,49.548,22.297,49.548,50.374v91.665L49.548,80.118z"/>
</g>
<path style="fill:#273375;" d="M270,80.118H49.548C22.297,80.118,0,102.415,0,130.492V266h270V80.118z"/>
<polygon style="fill:#192760;" points="270.125,271.258 270.125,80.118 45.664,80.486 "/>
<g>
	<polygon style="fill:#101F4F;" points="270,147 196.703,125.922 242.787,80.118 270.125,80.118 	"/>
	<polygon style="fill:#101F4F;" points="177.164,119.315 216.361,80.118 153.6,80.118 153.6,112.077 	"/>
</g>
<polygon style="fill:#192760;" points="118.09,142.054 118.09,80.118 56.155,80.118 "/>
<polygon style="fill:#101F4F;" points="118.09,80.118 56.155,80.118 62.084,86.047 118.09,102.678 "/>
<path style="fill:#FFFFFF;" d="M270.039,163.671v-9.179H168.413l74.374-74.374h-26.426L153.6,142.879V80.118h-35.51v61.935
	L56.155,80.118h-6.606c-5.781,0-11.665,1.032-17.445,3.2l71.881,71.174H0.172v1.6v6.503v1.076v17.918v9.179v0.008H105.6
	L28.903,266.75h26.426l62.761-62.761v62.761h35.51v-61.935l61.935,61.935h28.49l-77.316-75.974h103.226v-0.008h0.103v-9.179h-0.103
	v-17.918H270.039L270.039,163.671z"/>
<polygon style="fill:#D9ECED;" points="270.039,163.671 270.039,154.492 168.413,154.492 242.787,80.118 216.361,80.118 
	153.6,142.879 153.6,80.118 118.09,80.118 118.09,142.054 166.71,190.776 269.935,190.776 269.935,190.768 270.039,190.768 
	270.039,181.589 269.935,181.589 269.935,163.671 "/>
<path style="fill:#FFFFFF;" d="M40.465,80.944c0.516-0.103,1.135-0.723,1.652-0.826C41.6,80.221,41.084,80.841,40.465,80.944z"/>
<g>
	<polygon style="fill:#D9ECED;" points="186.942,238.157 215.535,266.75 229.574,266.75 200.671,238.157 	"/>
	<polygon style="fill:#D9ECED;" points="70.916,238.157 42.839,266.75 55.329,266.75 83.923,238.157 	"/>
	<polygon style="fill:#D9ECED;" points="237.006,266.75 244.026,266.75 214.916,238.157 208.413,238.157 	"/>
	<rect x="144.52" y="238.16" style="fill:#D9ECED;" width="9.08" height="28.594"/>
	<rect x="118.09" y="238.16" style="fill:#D9ECED;" width="7.432" height="28.594"/>
	<polygon style="fill:#D9ECED;" points="57.806,238.157 28.903,266.75 34.581,266.75 62.658,238.157 	"/>
</g>
<g>
	<path style="fill:#E51D35;" d="M42.219,80.118c0.413,0,0.826,0.103,1.342,0C43.148,80.221,42.632,80.015,42.219,80.118z"/>
	<polygon style="fill:#E51D35;" points="144.689,163.671 144.689,163.525 144.689,154.492 144.689,80.118 125.523,80.118 
		125.523,154.492 125.523,163.421 125.523,163.671 0.172,163.671 0.172,181.589 118.09,181.589 125.523,181.589 125.523,182.415 
		125.523,190.768 125.523,266.75 144.516,266.75 144.516,190.768 144.516,182.415 144.516,181.589 269.935,181.589 269.935,163.671 
			"/>
	<path style="fill:#E51D35;" d="M109.161,154.492h8.929L43.561,80.118c-2.477,0.413-4.542,0.929-7.019,1.755L109.161,154.492z"/>
	<polygon style="fill:#E51D35;" points="152.94,190.768 229.574,266.75 237.006,266.75 161.024,190.768 	"/>
	<polygon style="fill:#E51D35;" points="34.581,266.75 42.839,266.75 117.334,190.768 109.09,190.768 	"/>
</g>
<g>
	<path style="fill:#AF0026;" d="M236.473,80.118c0,0-7.554,0.009-8.749,0l-74.529,74.374h8.929L236.473,80.118z"/>
	<polygon style="fill:#AF0026;" points="144.689,163.671 144.689,161.22 144.689,91.86 144.689,89.408 144.689,82.57 
		144.689,80.118 125.523,80.118 125.523,82.57 125.523,89.408 125.523,91.86 125.523,144.841 125.523,147.292 125.523,149.388 
		144.689,168.937 157.092,181.589 269.935,181.589 269.935,163.671 	"/>
	<polygon style="fill:#AF0026;" points="62.658,238.157 34.581,266.75 42.839,266.75 70.916,238.157 	"/>
	<rect x="125.52" y="238.16" style="fill:#AF0026;" width="18.994" height="28.594"/>
	<polygon style="fill:#AF0026;" points="200.671,238.157 229.574,266.75 237.006,266.75 208.413,238.157 	"/>
</g>
<path style="fill:#F9D10B;" d="M345.6,208.794v105.267c0,9.114,4.096,16.589,9.933,24.064c5.734,6.656,14.029,12.39,21.504,17.408
	c15.667,9.114,31.334,14.95,31.334,14.95s15.667-5.018,31.334-14.95c7.475-5.018,15.667-10.752,21.504-17.408
	c5.734-6.656,9.933-14.95,9.933-24.064V208.794H345.6z"/>
<path style="fill:#FFFFFF;" d="M346.829,210.125v104.038c0,33.894,61.542,54.477,61.542,54.477s61.542-19.866,61.542-54.477V210.125
	H346.829z"/>
<path style="fill:#D21034;" d="M469.914,250.675v-40.448H346.829v40.448h52.838V294.4h-52.838v16.486h52.838v54.477
	c4.506,1.946,7.68,2.97,8.499,3.277l2.765-0.819c1.331-0.512,3.072-1.126,5.222-2.048v-54.886h53.658V294.4h-53.658v-43.725
	L469.914,250.675L469.914,250.675z"/>
<ellipse style="fill:#F5F5F5;" cx="362.09" cy="235.83" rx="6.758" ry="7.27"/>
<g>
	<path style="fill:#F9D10B;" d="M375.091,225.997c-2.15-1.331-6.042-4.71-7.68-4.096c-1.536,0.614-1.946,1.741-4.096,1.946
		s-5.53,2.458-4.096,4.915c1.843,3.277,7.578,0.717,7.987-0.819c0,0,1.434,0.205,2.56-0.102c0,0,2.355,3.584,5.325,3.277
		c2.97-0.205,4.301-4.096,3.686-4.096S375.091,225.997,375.091,225.997z"/>
	<path style="fill:#F9D10B;" d="M384.102,241.459c-0.512,0.922-4.198,4.403-10.445,5.939c-1.434,0.307-1.126,2.15-2.56,1.229
		c-1.434-0.922-5.222-1.536-8.602-1.741c-3.379-0.205-3.789-3.584-3.174-4.813c0.717-1.536,6.246-2.56,7.168-0.614
		c1.024,1.946,1.741,1.536,4.096,2.048c1.536,0.307,1.536,1.126,1.536,1.126s2.765-2.97,5.12-3.891
		c2.355-0.922,4.403-2.765,4.813-2.765s2.56,0.614,2.56,0.614L384.102,241.459z"/>
	<path style="fill:#F9D10B;" d="M393.114,231.117c3.584,1.434,14.131,0.922,25.498-2.97c11.366-3.891,14.541-4.608,20.07-2.458
		s7.885-4.71,4.301-5.939c-5.734-1.843-23.347,9.216-36.147,2.97c0,0-0.41,1.638,0,2.458c0,0-9.318,0.307-7.066-9.933
		c0,0,0.614,3.789,5.018,3.379c8.294-0.819,9.523,5.427,27.034-0.41c9.728-3.277,17.306-1.638,17.408,3.482
		c0.102,6.144-7.782,7.578-7.782,7.578s3.072,6.758,9.216,3.789c6.144-2.97,6.554,2.15,7.066,3.891
		c0.512,1.741,1.536,3.482,2.97,3.584c0,0,1.024,3.174,0.614,3.584c-0.41,0.41-2.97,3.891-5.53,3.891s-8.09,0-8.09,0
		s-1.434-3.891,1.331-3.994c2.867-0.102,6.246-0.307,5.837-1.946c-0.41-1.638-2.662-2.355-2.56-4.198c0,0-6.554,5.12-10.65-0.922
		l-0.102,2.867c0,0-4.915-1.024-6.758-5.222c0,0,0.512,4.813-3.789,4.096c0,0,0.819,1.434,2.355,2.355
		c1.434,1.024-0.102,3.174-2.867,4.915c-2.867,1.843-11.469,7.066-15.462,1.741c-3.994-5.325,0.819-8.499,2.048-8.09
		c1.229,0.307,4.608,6.042,6.963,5.222c2.355-0.717,3.482-3.277,1.536-4.915c-1.946-1.536-3.379-3.072-2.15-4.608
		c1.741-2.15,7.987-1.536,7.68-2.97c-0.205-1.434-6.042-1.024-9.83,3.072c-3.789,4.096-20.275,13.517-26.829,7.578
		C387.891,236.851,393.114,231.117,393.114,231.117z"/>
</g>
<path style="fill:#FFBE11;" d="M391.066,228.454c0,0,5.018,5.222,13.312,6.963c0,0-1.536,2.56-6.042,1.843
	c0,0,1.843,1.638,2.97,4.506c0,0-2.867,0.717-5.325-0.819c0,0,0.307,2.253,1.536,4.096c0,0-3.379,0-6.144-2.662l-1.126,3.482
	c0,0-1.946-1.434-3.174-4.096c0,0-2.253,1.946-4.608,1.946c0,0,0.819-2.662,0.819-4.096c0,0-3.277,2.15-5.939,1.331
	c0,0,0.102-3.686,1.024-4.71c0,0-2.15,0.307-3.482-0.512c0,0,0.819-2.048,1.229-3.277c0,0-2.253,0.102-3.686-1.331
	c0,0,4.403-1.843,5.325-3.584L391.066,228.454z"/>
<path style="fill:#FFA111;" d="M382.976,213.811c1.024,0.614,2.56,1.843,3.174,3.994c0,0,1.843-2.765,4.915-3.277
	c0,0,1.331,1.638,1.024,5.939c0,0,3.379-1.024,5.222,0.922c0,0-3.686,0.922-5.325,4.096c0,0-0.614,3.379,0.512,5.325
	c0,0-1.229,0.205-2.56-0.41c0,0-0.614,3.277,0,4.403c0,0-1.843-0.205-2.765-2.253c0,0-1.434,2.355-1.331,3.891
	c0,0-1.946-1.229-2.048-3.072c0,0-1.331,2.765-2.867,2.97c0,0-0.205-3.891-0.819-5.325c0,0-1.229,1.434-2.867,1.434
	c0,0,0-2.97,1.331-4.403c0,0-2.253,0.717-3.482-1.946c0,0,3.789,1.126,4.71-1.331c0.922-2.458,1.229-3.174,2.458-4.506
	C383.59,218.829,382.976,213.811,382.976,213.811z"/>
<path style="fill:#F9D10B;" d="M391.066,225.075c0,0-4.608,9.523-8.909,6.656c-4.608-3.174,1.126-10.547,1.843-11.366
	C384,220.365,387.482,221.286,391.066,225.075z"/>
<g>
	<path style="fill:#B46446;" d="M365.568,278.528l0.205,0.819c1.024,0.205,1.741,0.512,1.741,0.512l-2.15,2.355
		c0,0,2.458,1.024,2.97,4.301c0.41,2.253,1.434,2.765,2.048,2.355s1.024-1.024,0.307-3.482c-0.819-3.174-3.072-6.246-3.072-6.246
		l0,0c-0.307-0.512-0.102-0.41-0.614-1.024C366.387,278.016,365.568,278.528,365.568,278.528z"/>
	<path style="fill:#B46446;" d="M375.398,274.33c-0.102,2.765-0.717,9.318-0.819,10.752c-0.205,1.638,1.741,2.048,2.355,1.536
		c1.331-0.819,0.41-7.68,0.41-9.933l0,0C376.832,275.866,376.115,275.046,375.398,274.33z"/>
	<path style="fill:#B46446;" d="M382.566,282.112l-2.15,5.734c0.614,1.331,2.048,1.638,2.355,0.922
		c0.307-0.717,1.741-5.734,1.741-5.734l0,0C384.205,283.136,382.566,282.112,382.566,282.112L382.566,282.112z"/>
</g>
<g>
	<path style="fill:#00A651;" d="M391.987,266.445c2.458-1.434,3.994,2.765,3.994,2.765c0-4.915-1.536-6.451-5.427-4.608
		c-1.126,0.614-2.048,1.741-2.662,3.174c-1.229-3.686-3.584-4.915-5.018-5.325c2.765-1.229,6.554-2.15,6.861-2.458
		c0,0-6.042,0.307-6.963,0.307s-5.427,3.277-6.246,8.192c-0.41-2.56-1.638-4.608-3.072-5.734c0,0,0,0,0.102,0c0,0-0.102,0-0.205,0
		c-0.41-0.307-0.819-0.512-1.229-0.614c-2.867-0.819-5.632-2.048-5.632-2.048c0.205,1.331,1.024,2.15,2.355,2.97
		c-1.946,0.819-3.891,2.662-4.301,6.963c0-0.819-0.102-1.638-0.205-2.56c-0.307-4.301-5.53-5.632-7.782-3.174
		c-2.355,2.458,1.126,5.53,1.126,5.53c0-2.458,0.717-3.789,1.843-3.891c1.126-0.102,1.434,1.126,2.458,5.018
		c0.102,0.512,0.205,0.922,0.41,1.434c-0.717-0.307-1.434-0.512-2.253-0.614c-4.506-0.307-2.048,6.656-2.048,6.656
		c0.614-4.71,2.97-4.71,5.222-3.379c0.512,1.331,1.229,2.355,2.253,3.482l0,0c0,0,0,0.41,0.205,0.819l0,0
		c-2.458-0.512-6.758-0.512-6.144,5.12c0,0,1.434-3.789,5.734-2.355l0,0l2.15-2.355c0,0,0.205-0.41,0.102-0.819l0,0
		c0,0-0.614-1.843-1.843-3.686c-0.614-2.355-0.922-7.475,5.12-11.162c0.307,0.205,0.717,0.41,1.024,0.614
		c2.253,1.229,3.277,4.506,3.584,6.451c-0.102-0.102-0.307-0.205-0.41-0.205c-3.174-1.229-4.915-0.512-5.427,0.922
		c-0.614,1.434,1.024,3.072,1.638,5.53c0.614,2.15,0.512,4.71,0.512,4.71c1.536-1.536,1.946-4.915,1.434-9.523
		c0,0,1.126,0.717,2.15,1.843c0.717,0.717,1.434,1.536,1.843,2.355l0,0c0,0,0.205-1.024,0.102-2.15
		c0.307-0.819,0.922-1.843,1.946-2.458c0,0,3.482,2.458,3.277,5.734c0,0,0.922-4.506-1.024-6.246
		c-1.126-1.126-2.458-1.638-3.482-1.638c0.41-1.741,1.434-5.53,3.379-6.758c3.072,1.126,4.813,4.813,5.632,6.963
		c-0.512,1.638-0.717,3.277-0.819,4.301c-2.355,2.355-3.789,7.68-3.789,7.68l0,0c0,0,1.638,0.922,1.946,0.922l0,0
		c0,0,1.126-3.379,2.458-3.277c1.331,0.102,2.97,2.253,2.97,3.584c0,0,2.048-4.096-0.41-5.632c-0.922-0.614-1.638-0.819-2.15-0.819
		l1.741-2.048c2.867,0.512,4.915,3.277,4.915,3.277c0.102-4.915-2.15-5.837-4.403-5.427
		C390.042,270.848,390.963,267.059,391.987,266.445z"/>
	<path style="fill:#00A651;" d="M441.856,258.048L441.856,258.048L441.856,258.048z"/>
</g>
<path style="fill:#B46446;" d="M442.061,270.746c0,4.608,0,14.643,0,15.462s-3.277,3.686-3.277,3.686h8.704
	c0,0-2.765-3.277-2.765-3.686c0-0.41,0.614-14.234,0.614-14.234L442.061,270.746z"/>
<g>
	<path style="fill:#00A651;" d="M442.573,272.384c-2.048-0.205-7.782,4.608-9.523,11.776c0,0-5.12-8.294,7.68-15.155
		c0,0-5.632-1.638-14.234,7.27c-0.512,0.512-0.922-13.517,14.643-9.83c0,0-5.939-8.602-18.022-1.843c0,0,8.09-14.438,19.968-1.536
		c0,0,0.102-11.162,0.205-10.035c0.102,1.126,0.922,6.349,0.922,6.349l2.355-4.096l-1.843,8.294c0,0,10.65-14.131,19.661,0.614
		c0,0-11.674-4.813-17.203,0.614c0,0,11.981-3.277,10.957,10.65c0,0-4.71-8.192-12.39-7.168c0,0,9.011,4.198,6.144,15.36
		C451.789,283.648,446.362,272.691,442.573,272.384z"/>
	<path style="fill:#00A651;" d="M367.514,324.301c-0.41-0.614-1.024-0.922-1.638-0.922c0.205-0.819,0.41-1.229,0.307-1.741
		c0.205,0,0.41,0.102,0.512,0.102l0.102-0.717c-0.717-0.102-1.434-0.41-2.253-0.922c0.512-0.41,0.819-1.024,0.819-1.843
		s-0.41-1.536-0.922-1.946c-0.512,0.41-0.922,1.126-0.922,1.946c0,0.614,0.307,1.126,0.614,1.536
		c-0.307-0.205-0.614-0.41-0.922-0.717c-0.102-0.512-0.307-1.024-0.717-1.434c-0.614-0.614-1.434-0.819-2.15-0.614
		c-0.102,0.717,0.205,1.434,0.819,2.048c0.512,0.41,1.024,0.614,1.638,0.614c0.102,0.102,0.307,0.205,0.41,0.307
		c-0.41,0-0.819,0-1.229,0.102c-0.819,0.307-1.331,0.922-1.536,1.536c0.614,0.41,1.434,0.512,2.15,0.205
		c0.717-0.307,1.126-0.819,1.434-1.331c0.512,0.307,1.024,0.512,1.536,0.717h-0.102c0,0.512,0,0.717-0.205,1.536
		c-0.512-0.307-1.229-0.512-2.048-0.307s-1.434,0.819-1.638,1.434c0.512,0.41,1.331,0.614,2.15,0.307
		c0.614-0.205,1.024-0.614,1.331-1.024c-0.102,0.307-0.205,0.717-0.41,1.024c-0.512,0.205-0.922,0.614-1.229,1.126
		c-0.41,0.819-0.307,1.638,0,2.15c0.717-0.102,1.331-0.614,1.741-1.331c0.307-0.614,0.307-1.229,0.102-1.741
		c0.102-0.102,0.102-0.307,0.205-0.512c0.102,0.41,0.205,0.717,0.512,1.126c0.512,0.717,1.229,1.024,1.946,1.024
		C368.23,325.837,368.026,325.018,367.514,324.301z"/>
</g>
<g>
	<path style="fill:#C9C5C1;" d="M363.622,322.15c2.867,0,6.758-0.102,6.656,2.765s-3.379,12.8,4.096,15.77
		c6.451,2.56,7.987,2.662,8.294,2.56c0,0,0.102,0,0.102,0.102l3.277,7.578l0.102,0.102l7.885-2.867c0.102,0,0.102-0.102,0-0.205
		l-7.68-6.144c0,0,0,0,0-0.102c-0.102-0.41-0.717-4.301-2.56-7.066v-0.102c0.614-0.307,4.608-2.458,6.246-4.403
		c0.102-0.102,0-0.205-0.102-0.205l-2.867-0.205c-0.102,0-0.102-0.102-0.102-0.205c0.922-0.614,4.403-3.072,6.144-5.734
		l-2.355,0.205c0,0,2.458-2.458,3.277-5.53c0-0.102-0.102-0.205-0.205-0.102c-0.922,0.922-4.608,4.096-8.397,4.71
		c-0.102,0-0.102-0.102-0.102-0.102c0.307-0.819,1.741-4.608,2.253-6.451c0-0.102-0.102-0.102-0.102-0.102
		c-0.717,0.512-3.482,2.15-5.53,2.867c-2.355,0.922-5.939,1.024-4.403,8.294c0,0.102-0.102,0.205-0.205,0.102
		c-0.512-0.512-2.048-2.15-3.072-5.018c-1.229-3.584-1.638-4.915-3.379-4.915c-2.56,0-3.686,2.15-3.789,2.458l0,0L363.622,322.15z"
		/>
	<path style="fill:#C9C5C1;" d="M445.747,321.229c0.922-1.229,2.867-5.222,4.506-4.198c1.638,1.024,3.891,3.482,5.222,2.355
		c1.331-1.126,1.434-2.662-0.614-3.379s-4.301-1.843-5.734-1.434c-1.434,0.512-5.734,4.915-5.734,4.915L445.747,321.229z"/>
</g>
<path style="fill:#F9D10B;" d="M433.562,324.608c-0.102-1.843,1.126-9.626,6.042-8.602c2.662,0.512,3.994,3.379,7.475,4.71
	c3.686,1.434,6.042,2.253,5.325,4.71c-0.717,2.458-2.048,5.325-5.12,6.042C444.211,332.083,433.562,324.608,433.562,324.608z"/>
<g>
	<path style="fill:#00A651;" d="M430.285,331.059c-1.024,0.205-4.915,5.837-0.307,11.571c0,0,5.632,2.253,10.138-1.229
		s1.126-5.325,1.126-5.325L430.285,331.059z"/>
	<path style="fill:#00A651;" d="M430.694,332.288c-0.512-0.717-0.41-1.229-0.41-1.229s-0.205-8.09,3.174-8.294
		s15.565,7.885,15.565,9.216s-3.891,5.222-7.168,5.939C438.477,338.739,430.694,332.288,430.694,332.288z"/>
</g>
<path style="fill:#C9C5C1;" d="M422.4,351.846c0,0,10.752-4.813,8.704-8.704c-1.434-2.867-4.71-1.024-5.222,1.126
	C425.267,347.034,423.117,350.72,422.4,351.846z"/>
<g>
</g>
<g>
</g>
<g>
</g>
<g>
</g>
<g>
</g>
<g>
</g>
<g>
</g>
<g>
</g>
<g>
</g>
<g>
</g>
<g>
</g>
<g>
</g>
<g>
</g>
<g>
</g>
<g>
</g>
</svg>
