<?xml version="1.0" encoding="iso-8859-1"?>
<!-- Generator: Adobe Illustrator 19.0.0, SVG Export Plug-In . SVG Version: 6.00 Build 0)  -->
<svg version="1.1" id="Capa_1" xmlns="http://www.w3.org/2000/svg" xmlns:xlink="http://www.w3.org/1999/xlink" x="0px" y="0px"
	 viewBox="0 0 496 496" style="enable-background:new 0 0 496 496;" xml:space="preserve">
<path style="fill:#0089E5;" d="M496,369.6c0,27.2-21.6,48.8-48,48.8H48c-26.4,0-48-21.6-48-48.8V126.4c0-27.2,21.6-48.8,48-48.8h400
	c26.4,0,48,21.6,48,48.8V369.6z"/>
<path style="fill:#0579C9;" d="M48,77.6h400c26.4,0,48,21.6,48,48.8v243.2c0,27.2-21.6,48.8-48,48.8"/>
<g>
	<path style="fill:#046BB7;" d="M48,77.6h400c26.4,0,48,21.6,48,48.8v88.8"/>
	<path style="fill:#046BB7;" d="M496,369.6c0,27.2-21.6,48.8-48,48.8H48c-26.4,0-48-21.6-48-48.8"/>
</g>
<g>
	<polygon style="fill:#FFFFFF;" points="51.2,183.2 51.2,312.8 92,312.8 92,265.6 120,265.6 131.2,237.6 92,237.6 92,211.2 
		140,211.2 150.4,183.2 	"/>
	<polygon style="fill:#FFFFFF;" points="163.2,183.2 162.4,312.8 203.2,312.8 203.2,183.2 	"/>
</g>
<path style="fill:#DAEAF2;" d="M360.8,270.4l15.2-53.6l16,53.6H360.8z M398.4,183.2h-41.6L310.4,312h39.2l4.8-17.6H400l5.6,17.6h40
	L398.4,183.2z"/>
<polygon style="fill:#FFFFFF;" points="231.2,183.2 231.2,312.8 272,312.8 272,265.6 300,265.6 311.2,237.6 272,237.6 272,211.2 
	319.2,211.2 330.4,183.2 "/>
<g>
	<path style="fill:#DAEAF2;" d="M421.6,192h1.6h0.8h0.8c0,0,0,0,0.8-0.8v-0.8v-0.8c0,0,0,0-0.8-0.8H424h-0.8h-1.6V192z M420,187.2h4
		c1.6,0,2.4,0,3.2,0.8c0.8,0.8,0.8,1.6,0.8,2.4c0,0.8,0,1.6-0.8,2.4s-0.8,0.8-2.4,0.8l3.2,4.8h-1.6l-2.4-4.8h-0.8v4.8h-1.6v-11.2
		H420z M423.2,200c0.8,0,1.6,0,2.4-0.8c0.8,0,1.6-0.8,2.4-1.6c0.8-0.8,0.8-1.6,1.6-2.4c0-0.8,0.8-1.6,0.8-3.2c0-0.8,0-2.4-0.8-3.2
		c0-0.8-0.8-1.6-1.6-2.4c-0.8-0.8-1.6-0.8-2.4-1.6c-0.8,0-1.6-0.8-2.4-0.8s-1.6,0-2.4,0.8c-0.8,0-1.6,0.8-2.4,1.6
		c-0.8,0.8-0.8,1.6-1.6,2.4c0,0.8-0.8,1.6-0.8,3.2c0,0.8,0,2.4,0.8,3.2c0,0.8,0.8,1.6,1.6,2.4c0.8,0.8,1.6,0.8,2.4,1.6
		C421.6,200,422.4,200,423.2,200 M423.2,201.6c-1.6,0-2.4,0-3.2-0.8c-0.8-0.8-2.4-0.8-3.2-1.6c-0.8-0.8-1.6-1.6-1.6-3.2
		c-0.8-0.8-0.8-2.4-0.8-3.2c0-1.6,0-2.4,0.8-3.2c0.8-0.8,0.8-2.4,1.6-3.2c0.8-0.8,1.6-1.6,3.2-1.6c0.8-0.8,2.4-0.8,3.2-0.8
		c1.6,0,2.4,0,3.2,0.8c0.8,0.8,2.4,0.8,3.2,1.6c0.8,0.8,1.6,1.6,1.6,3.2c0.8,0.8,0.8,2.4,0.8,3.2c0,1.6,0,2.4-0.8,3.2
		c-0.8,0.8-0.8,2.4-1.6,3.2c-0.8,0.8-1.6,1.6-3.2,1.6C425.6,201.6,424.8,201.6,423.2,201.6"/>
	<polygon style="fill:#DAEAF2;" points="231.2,244 231.2,312.8 272,312.8 272,265.6 300,265.6 311.2,237.6 272,237.6 272,211.2 
		319.2,211.2 330.4,183.2 291.2,183.2 	"/>
	<polygon style="fill:#DAEAF2;" points="162.4,312 162.4,312.8 203.2,312.8 203.2,272 	"/>
</g>
<g>
</g>
<g>
</g>
<g>
</g>
<g>
</g>
<g>
</g>
<g>
</g>
<g>
</g>
<g>
</g>
<g>
</g>
<g>
</g>
<g>
</g>
<g>
</g>
<g>
</g>
<g>
</g>
<g>
</g>
</svg>
