<?xml version="1.0" encoding="iso-8859-1"?>
<!-- Generator: Adobe Illustrator 19.0.0, SVG Export Plug-In . SVG Version: 6.00 Build 0)  -->
<svg version="1.1" id="Capa_1" xmlns="http://www.w3.org/2000/svg" xmlns:xlink="http://www.w3.org/1999/xlink" x="0px" y="0px"
	 viewBox="0 0 496 496" style="enable-background:new 0 0 496 496;" xml:space="preserve">
<path style="fill:#FFFFFF;" d="M496,369.6c0,27.2-21.6,48.8-48,48.8H48c-26.4,0-48-21.6-48-48.8V126.4c0-27.2,21.6-48.8,48-48.8h400
	c26.4,0,48,21.6,48,48.8V369.6z"/>
<path style="fill:#E9F3F4;" d="M48,77.6h400c26.4,0,48,21.6,48,48.8v243.2c0,27.2-21.6,48.8-48,48.8"/>
<g>
	<path style="fill:#D9ECED;" d="M496,369.6c0,27.2-21.6,48.8-48,48.8H48c-26.4,0-48-21.6-48-48.8"/>
	<path style="fill:#D9ECED;" d="M48,77.6h400c26.4,0,48,21.6,48,48.8v88.8"/>
</g>
<path style="fill:#2F4712;" d="M261.6,376.8L261.6,376.8L261.6,376.8c-0.8-0.8-0.8-0.8-1.6-1.6c-0.8-0.8-1.6-2.4-3.2-4
	c-1.6-2.4-4-4.8-4-4.8l-0.8-0.8l-0.8,0.8c0,0.8-1.6,2.4-4,4.8c-0.8,1.6-2.4,2.4-3.2,4c-0.8,0.8-0.8,0.8-0.8,0.8l0,0l0,0l0,0h-1.6
	l0.8-0.8h0.8l0,0c0,0,0-0.8-0.8-0.8c-0.8-0.8-1.6-1.6-1.6-1.6c-1.6-0.8-2.4-2.4-2.4-2.4l0,0l8.8-6.4l-4-1.6l1.6-2.4l6.4,3.2l6.4-3.2
	l1.6,2.4l-4,1.6l8.8,6.4l0,0c0,0-1.6,0.8-2.4,2.4c-0.8,0.8-1.6,1.6-1.6,1.6C262.4,376,262.4,376,261.6,376.8
	C262.4,376,262.4,376.8,261.6,376.8L261.6,376.8h1.6H261.6L261.6,376.8L261.6,376.8z M278.4,366.4c-7.2,0-12-3.2-12-3.2
	c6.4-3.2,11.2-4,15.2-4l0,0c4,0,5.6,0.8,7.2,2.4c1.6,0.8,1.6,1.6,1.6,1.6l0,0C287.2,365.6,283.2,366.4,278.4,366.4L278.4,366.4z
	 M228,366.4c-4,0-8.8-0.8-12.8-3.2l0,0l0,0c0,0,0.8-0.8,1.6-1.6c1.6-0.8,3.2-1.6,7.2-2.4l0,0c4,0,9.6,1.6,15.2,4
	C239.2,363.2,234.4,366.4,228,366.4L228,366.4L228,366.4z M297.6,362.4c-0.8,0-1.6,0-1.6-0.8s0-0.8,0-1.6c0.8-1.6,1.6-2.4,3.2-2.4
	l0,0l0,0h0.8l0,0c0,0,0,1.6,0,2.4s-0.8,1.6-0.8,1.6C298.4,362.4,298.4,362.4,297.6,362.4L297.6,362.4z M208.8,362.4
	c-0.8,0-1.6,0-2.4-0.8c-0.8-0.8-0.8-0.8-0.8-1.6c0-1.6,0-2.4,0-2.4h0.8l0,0c1.6,0,3.2,1.6,3.2,2.4s0,1.6,0,1.6
	C210.4,361.6,209.6,362.4,208.8,362.4L208.8,362.4z M264,358.4c7.2-13.6,15.2-15.2,17.6-15.2c0.8,0,1.6,0,1.6,0l0,0
	c0,0,0.8,3.2-1.6,6.4C280,352.8,275.2,356.8,264,358.4L264,358.4L264,358.4z M242.4,358.4c-11.2-1.6-16-5.6-17.6-8.8
	c-2.4-3.2-1.6-6.4-1.6-6.4l0,0l0,0c0,0,0.8,0,1.6,0C227.2,343.2,235.2,344.8,242.4,358.4L242.4,358.4L242.4,358.4L242.4,358.4z
	 M287.2,356c-2.4,0-4.8,0-7.2-0.8l0,0l0,0c5.6-5.6,11.2-7.2,15.2-7.2h0.8c3.2,0,4.8,0.8,4.8,0.8s0,0.8,0,1.6c0,0.8-0.8,1.6-2.4,2.4
	C295.2,355.2,292,356,287.2,356L287.2,356L287.2,356z M219.2,356c-4.8,0-8-0.8-10.4-2.4c-1.6-0.8-2.4-1.6-2.4-2.4s0-0.8,0-1.6
	c0,0,2.4-0.8,4.8-0.8h0.8c4,0,9.6,0.8,15.2,7.2l0,0l0,0C224,356,221.6,356,219.2,356L219.2,356z M309.6,355.2
	c-2.4,0-4.8-0.8-5.6-1.6c-0.8,0-0.8-0.8-0.8-1.6c0-0.8,0.8-0.8,1.6-1.6c2.4-1.6,5.6-2.4,10.4-2.4h0.8h0.8c5.6,0,9.6,1.6,9.6,1.6l0,0
	l0,0C321.6,353.6,315.2,355.2,309.6,355.2L309.6,355.2L309.6,355.2z M196,355.2c-4.8,0-12-1.6-16-5.6l0,0l0,0c0,0,4.8-0.8,9.6-1.6
	h0.8c4.8,0,8,0.8,10.4,2.4c0.8,0.8,1.6,1.6,1.6,1.6c0,0.8,0,0.8-0.8,1.6C201.6,355.2,199.2,355.2,196,355.2L196,355.2L196,355.2z
	 M326.4,347.2c-0.8,0-0.8,0-0.8-0.8s0-0.8,0-1.6c0-0.8,0.8-1.6,0.8-1.6s0.8-0.8,1.6-0.8h0.8c0,0,0,1.6,0,2.4s0,1.6-0.8,1.6
	C327.2,347.2,326.4,347.2,326.4,347.2L326.4,347.2z M180,347.2c-0.8,0-0.8,0-1.6-0.8c0,0-0.8-0.8-0.8-1.6c0-0.8,0-2.4,0-2.4l0,0h0.8
	l0,0c0.8,0,1.6,0.8,1.6,0.8c0.8,0.8,0.8,0.8,0.8,1.6c0,0.8,0,1.6,0,1.6C180.8,346.4,180.8,347.2,180,347.2L180,347.2z M288.8,346.4
	c-0.8,0-1.6,0-1.6-0.8s0-0.8,0-1.6c0.8-1.6,1.6-2.4,3.2-2.4l0,0l0,0h0.8l0,0c0,0,0,1.6,0,2.4s-0.8,1.6-0.8,1.6
	S289.6,346.4,288.8,346.4L288.8,346.4z M217.6,346.4c-0.8,0-1.6,0-2.4-0.8c-0.8-0.8-0.8-0.8-0.8-1.6c0-1.6,0-2.4,0-2.4h0.8l0,0
	c1.6,0,3.2,1.6,3.2,2.4s0,1.6,0,1.6C219.2,345.6,218.4,346.4,217.6,346.4L217.6,346.4z M199.2,345.6c-10.4,0-15.2-3.2-17.6-5.6
	c-1.6-1.6-2.4-2.4-2.4-3.2c0-0.8-0.8-1.6-0.8-1.6l0,0c0,0,0.8,0,2.4,0l0,0C184,334.4,191.2,336,199.2,345.6L199.2,345.6L199.2,345.6
	z M307.2,345.6c8-9.6,14.4-11.2,17.6-11.2l0,0l0,0c1.6,0,2.4,0,2.4,0l0,0c0,0,0,0.8-0.8,1.6c-0.8,0.8-1.6,2.4-2.4,3.2
	C322.4,342.4,316.8,344.8,307.2,345.6L307.2,345.6L307.2,345.6z M210.4,344.8c-8-1.6-12.8-4.8-15.2-7.2c-2.4-3.2-3.2-5.6-3.2-5.6
	s0.8,0,2.4,0l0,0l0,0C199.2,331.2,206.4,332.8,210.4,344.8L210.4,344.8L210.4,344.8z M296,344.8c4-11.2,11.2-13.6,15.2-13.6l0,0l0,0
	c1.6,0,2.4,0,2.4,0l0,0c0,0-0.8,2.4-3.2,5.6C308.8,340,304,343.2,296,344.8L296,344.8z M337.6,340.8c-4.8,0-8-0.8-8-0.8l0,0l0,0
	c0,0,3.2-4.8,10.4-6.4c1.6,0,4-0.8,5.6-0.8c0,0,0,0,0.8,0c4,0,6.4,0.8,6.4,0.8l0,0c0,0,0,0,0,0.8c0,0,0,0.8-0.8,1.6
	c-0.8,0.8-2.4,2.4-7.2,4C342.4,340,340,340.8,337.6,340.8L337.6,340.8z M168.8,340.8c-2.4,0-5.6,0-8-0.8c-4-0.8-6.4-2.4-7.2-4
	c-0.8-0.8-0.8-1.6-0.8-1.6v-0.8l0,0c0,0,3.2-0.8,6.4-0.8c0,0,0,0,0.8,0c1.6,0,4,0,5.6,0.8c6.4,1.6,10.4,6.4,10.4,6.4l0,0l0,0
	C176.8,340,173.6,340.8,168.8,340.8L168.8,340.8z M318.4,333.6c-0.8,0-1.6,0-1.6-0.8s0-0.8,0-1.6c0.8-1.6,1.6-2.4,3.2-2.4l0,0l0,0
	h0.8l0,0c0,0,0,1.6,0,2.4s-0.8,1.6-0.8,1.6C320,333.6,319.2,333.6,318.4,333.6L318.4,333.6z M187.2,333.6c-0.8,0-1.6,0-2.4-0.8
	c-0.8-0.8-0.8-0.8-0.8-1.6c0-1.6,0-2.4,0-2.4h0.8l0,0c1.6,0,3.2,1.6,3.2,2.4s0,1.6,0,1.6C188.8,333.6,188,333.6,187.2,333.6
	L187.2,333.6z M173.6,332c0,0-4-0.8-8-3.2c-3.2-2.4-8-6.4-8.8-12l0,0l0,0c0,0,0,0,0.8,0l0,0c0.8,0,3.2,0,5.6,2.4
	C167.2,321.6,170.4,325.6,173.6,332L173.6,332z M332.8,332c2.4-6.4,5.6-10.4,8.8-12.8c2.4-1.6,4-2.4,5.6-2.4l0,0l0,0
	c0.8,0,0.8,0,0.8,0l0,0c-0.8,5.6-4.8,9.6-8.8,12C336.8,331.2,332.8,332,332.8,332L332.8,332z M182.4,331.2c0,0-2.4-0.8-6.4-4
	c-3.2-2.4-7.2-7.2-10.4-15.2c0,0,0.8,0,1.6-0.8l0,0l0,0c1.6,0,4,0.8,6.4,3.2C177.6,319.2,180,324,182.4,331.2L182.4,331.2
	L182.4,331.2L182.4,331.2z M324,331.2c2.4-7.2,4.8-12.8,8-16c2.4-2.4,4.8-3.2,6.4-3.2l0,0l0,0c0.8,0,1.6,0.8,1.6,0.8
	c-3.2,7.2-7.2,12-10.4,15.2C326.4,330.4,324,331.2,324,331.2L324,331.2L324,331.2L324,331.2z M347.2,331.2c-0.8,0-1.6,0-2.4-0.8
	s0-1.6,0-1.6c0.8-1.6,2.4-2.4,4.8-2.4l0,0c0.8,0,0.8,0,1.6,0l0,0c0,0,0,0.8,0,2.4C352,328.8,350.4,331.2,347.2,331.2L347.2,331.2z
	 M158.4,331.2c-3.2,0-4-1.6-4.8-2.4s0-2.4,0-2.4l0,0c0.8,0,0.8,0,1.6,0l0,0c2.4,0,4,1.6,4.8,2.4c0,0,0.8,0.8,0,1.6
	C160.8,330.4,160,331.2,158.4,331.2L158.4,331.2z M354.4,322.4c-1.6,0-3.2,0-3.2,0l0,0c0,0,0-2.4,2.4-4.8c1.6-2.4,5.6-4.8,14.4-4.8
	l0,0l0,0c0,0,0,1.6-0.8,4c-0.8,1.6-2.4,4-4.8,4.8C358.4,322.4,356,322.4,354.4,322.4L354.4,322.4z M152,322.4c-1.6,0-4,0-7.2-0.8
	c-2.4-0.8-4-3.2-4.8-4.8c-0.8-2.4-0.8-4-0.8-4l0,0c8.8,0,12.8,2.4,14.4,4.8c1.6,2.4,2.4,4,2.4,4.8l0,0
	C155.2,322.4,153.6,322.4,152,322.4L152,322.4z M345.6,313.6c0,0-0.8-4.8-0.8-9.6s4.8-6.4,5.6-6.4l0,0c0,0,0,1.6-0.8,4
	c0,1.6-0.8,4-0.8,5.6s-0.8,3.2-1.6,4.8C346.4,312,345.6,313.6,345.6,313.6L345.6,313.6L345.6,313.6L345.6,313.6z M160.8,313.6
	c0,0-0.8-1.6-1.6-2.4c-0.8-1.6-1.6-3.2-1.6-4.8c0-1.6,0-4-0.8-5.6c0-1.6-0.8-3.2-0.8-4l0,0c0,0,5.6,1.6,5.6,6.4
	S160.8,313.6,160.8,313.6L160.8,313.6L160.8,313.6L160.8,313.6z M352,312.8L352,312.8L352,312.8c-0.8-0.8-0.8-0.8,0-1.6
	c0-0.8,0.8-2.4,1.6-4c0.8-2.4,2.4-5.6,2.4-5.6l0,0c0,0,2.4-2.4,4.8-4.8c1.6-1.6,3.2-2.4,4-3.2c1.6-0.8,3.2-1.6,4-1.6l0,0h0.8l0,0
	l0,0c0,0,0,2.4,0,4.8c0,3.2-0.8,5.6-2.4,7.2s-4,4-7.2,5.6C356.8,311.2,353.6,312.8,352,312.8L352,312.8L352,312.8z M154.4,312.8
	C154.4,312.8,153.6,312.8,154.4,312.8c-1.6,0-4-1.6-7.2-3.2s-5.6-4-7.2-5.6c-1.6-1.6-2.4-4-2.4-7.2c0-2.4,0-4,0-4.8h0.8
	c0.8,0,2.4,0.8,4,1.6c1.6,0.8,2.4,2.4,4,3.2c2.4,2.4,4.8,4.8,4.8,4.8l0,0c0,0,1.6,3.2,2.4,5.6c0.8,1.6,0.8,2.4,1.6,4
	C154.4,312,154.4,312,154.4,312.8L154.4,312.8L154.4,312.8L154.4,312.8z"/>
<path style="fill:#FFAD2D;" d="M430.4,119.2l-1.6,0.8H428h-1.6l-1.6,0.8l-3.2,2.4l0,0h-0.8l-0.8-0.8h-0.8v1.6l-0.8,0.8l-0.8,0.8
	h-2.4l-2.4,0.8l-2.4-0.8l-1.6,0.8l-2.4,2.4l-1.6,0.8H404h-1.6h-0.8l-0.8,0.8h-2.4l-0.8,0.8l-0.8,2.4l-0.8,0.8h-0.8h-0.8h-0.8v1.6
	l-0.8,0.8H392l-0.8,0.8l-0.8,0.8h-1.6l0,0l-1.6,0.8h-2.4l-0.8,1.6l0,0h-0.8l-0.8,0.8l0,0h-0.8l-0.8,0.8l-0.8-0.8l-0.8,0.8h-0.8
	l-2.4-1.6l-0.8-0.8h-0.8v1.6l0,0l-0.8,0.8L372,144l0,0l-1.6,2.4l-3.2,3.2l-2.4,1.6l-2.4,0.8l-1.6,1.6L356,156l-8,4h-1.6H344l-4,1.6
	l-3.2,0.8l0,0H336l-4.8,1.6h-2.4l-1.6,0.8H324h-2.4H320l-3.2,1.6l-4.8,2.4l-1.6,1.6L308,172l-4,0.8v-1.6l0,0h-0.8h-0.8H300h-1.6
	h-0.8l0,0l-4.8,1.6l-5.6,0.8l-2.4,0.8h-2.4h-1.6h-2.4h-0.8l0,0h-7.2h-3.2h-1.6l-2.4-0.8l-4-0.8h-0.8L256,172l-0.8,0.8h-0.8l-1.6-0.8
	H252l-1.6,0.8h-0.8H248h-1.6l-0.8-0.8l-6.4,0.8l-1.6-0.8l-5.6-1.6h-0.8l-0.8,0.8l-1.6,0.8h-1.6h-1.6l-2.4-0.8l-2.4-0.8H220h-1.6
	h-0.8l-3.2-1.6l-4.8-3.2l-3.2-1.6h-0.8v0.8l0.8,1.6v1.6v1.6v0.8v0.8l0.8,1.6l0.8,1.6v3.2v3.2l-0.8,5.6v0.8l-0.8,3.2l-0.8,2.4
	l-2.4,7.2l-0.8,0.8l-1.6,0.8l-3.2,2.4l-2.4,1.6h-0.8H192h-1.6l-1.6-0.8l-1.6-0.8l-2.4-1.6l-2.4-0.8L180,200l-0.8-0.8h-1.6l-0.8,0.8
	l0,0H176l0,0l0,0h-2.4l-2.4-0.8h-0.8h-1.6l-1.6,0.8l0,0l-0.8,0.8l-0.8-0.8h-0.8h-1.6l0,0h-0.8h-0.8h-0.8H160h-0.8l0,0h-0.8l0,0l0,0
	l0,0h-0.8h-0.8l-0.8-0.8h-0.8h-0.8h-0.8v1.6v0.8l-1.6,0.8l-1.6,0.8l-0.8,1.6l-2.4,5.6l-1.6,2.4l-0.8,0.8l-1.6,1.6l-1.6,0.8l-3.2,2.4
	l-3.2,0.8l-2.4,0.8h-1.6h-2.4l-2.4-0.8l-2.4-1.6l-2.4-2.4l-1.6-0.8h-0.8l0,0l-0.8-0.8h-0.8v0.8v0.8v0.8l-0.8,4l0,0v1.6l3.2,4
	l0.8,2.4l0,0l0.8,0.8l0.8,0.8l0,0l0.8,3.2l-0.8,1.6v0.8l-0.8,0.8v0.8l2.4,3.2l0.8,1.6l-0.8,1.6l-0.8,0.8l0,0v0.8l0.8,0.8l1.6,1.6
	l0.8,2.4l0.8,0.8h0.8h0.8h0.8l0.8,0.8h0.8h0.8l0.8,0.8v2.4l0.8,3.2v1.6l0,0l0.8,1.6v0.8v2.4l0.8,0.8h0.8h0.8l0.8,0.8l1.6,1.6h1.6
	h0.8l4,3.2l0.8,0.8l0,0h0.8l0.8,0.8l0.8-0.8l0,0h1.6h0.8l0.8,0.8h1.6l3.2,0.8h1.6l2.4,1.6l0.8,0.8l0.8,0.8l0.8,0.8l1.6,0.8h1.6h0.8
	h0.8l0,0l0,0l0,0l3.2,1.6l1.6,0.8l1.6,0.8l1.6,0.8h0.8l1.6-0.8h1.6h0.8h0.8l1.6-0.8v-0.8l0.8-0.8l4-0.8h0.8l3.2,2.4l1.6,0.8l1.6-0.8
	l4,0.8l0.8,0.8l0.8,1.6l0,0h1.6l-0.8,0.8l1.6,1.6l1.6,2.4l0,0l0.8,3.2l0.8,0.8l0.8,1.6v0.8l-0.8,0.8l0,0l0,0v0.8l0,0h0.8h0.8h1.6
	h0.8l1.6-0.8l0.8-0.8l1.6,0.8h1.6h0.8l1.6,0.8h0.8l0,0v-0.8v-0.8l-0.8-0.8l-1.6-1.6l-0.8-0.8l-0.8-1.6V288v-1.6v-1.6l0.8-0.8v-1.6
	l0,0l0,0l0.8-0.8l2.4-1.6l2.4-2.4l2.4-1.6l2.4-0.8l0,0l0,0l5.6-1.6l0,0l2.4-0.8l16,0.8h0.8l0,0l0.8-1.6l0,0l0,0l1.6-0.8h0.8l2.4,0.8
	h0.8l1.6-0.8h0.8l2.4-0.8h1.6h0.8l2.4-1.6l2.4-0.8h0.8l0,0l2.4-1.6l1.6-1.6l1.6-0.8l1.6-0.8h4l0.8-1.6h1.6l0.8-0.8l1.6-0.8l0.8-1.6
	l0.8-0.8l0.8-0.8h3.2l4,0.8h0.8l0.8-3.2l0.8-0.8l2.4-3.2v-1.6V248l0.8-1.6v-3.2V240l1.6-4l1.6-1.6l2.4-1.6l0.8-0.8h1.6l0,0l0,0l0,0
	h5.6h1.6h1.6l4.8,0.8l0,0l1.6,0.8l1.6,1.6l1.6,1.6l0,0l1.6,0.8l0,0h0.8l1.6-0.8l0.8-0.8l1.6-0.8l0,0l0.8-1.6l0,0l0,0l0,0l0,0v-0.8
	l3.2-0.8h3.2l0,0l0,0l0.8-0.8h0.8l2.4,0.8h1.6l0.8,0.8h0.8h1.6l1.6,1.6h0.8l4,2.4l0,0l0,0l0,0h0.8h0.8l0,0l0,0l0.8,0.8h0.8l0.8-0.8
	V236l0,0h-1.6l1.6-4l0.8-1.6L360,228l0,0l0,0l-0.8-0.8l-3.2-4.8l-4-3.2l0,0l-1.6-0.8l0,0h-0.8l-2.4-2.4l-1.6-1.6v-0.8v-0.8l-0.8-1.6
	l-0.8-1.6l-1.6-1.6l0,0l-2.4-3.2l-0.8-0.8h-0.8h-1.6l0,0l0,0l0,0l0.8-0.8h0.8v-0.8l-1.6-4l0,0v-1.6l0.8-5.6v-0.8l1.6-4l0.8-0.8
	l1.6-2.4l0.8-1.6l0.8-0.8l0,0l1.6-0.8h1.6h1.6l2.4,0.8h2.4h0.8h0.8l1.6-0.8l0.8-0.8l0.8-0.8l0.8-3.2v-0.8l0.8-0.8l3.2-4l2.4-2.4
	l5.6-4l3.2-1.6l1.6-0.8l12.8-5.6l3.2-3.2l1.6-1.6l3.2-2.4l4-1.6l3.2-2.4l0.8-0.8l0.8-2.4h0.8l0.8-1.6l0,0l2.4-1.6l0,0l9.6-4.8h1.6
	l0.8-0.8l3.2-0.8h0.8h0.8l0.8-0.8l0,0V128l0.8-0.8v-1.6v-0.8V124L430.4,119.2L430.4,119.2L430.4,119.2z"/>
<path style="fill:#E88705;" d="M428.8,120L428.8,120h-2.4l-1.6,0.8l-3.2,2.4l0,0h-0.8l-0.8-0.8h-0.8v1.6l-0.8,0.8l-0.8,0.8h-2.4
	l-2.4,0.8l-2.4-0.8l-1.6,0.8l-2.4,2.4l-1.6,0.8H404h-1.6h-0.8l-0.8,0.8h-2.4l-0.8,0.8l-0.8,2.4l-0.8,0.8h-0.8h-0.8h-0.8v1.6
	l-0.8,0.8H392l-0.8,0.8l-0.8,0.8h-1.6l0,0l-1.6,0.8h-2.4l-0.8,1.6l0,0h-0.8l-0.8,0.8l0,0h-0.8l-0.8,0.8l-0.8-0.8l-0.8,0.8h-0.8
	l-2.4-1.6l-0.8-0.8h-0.8v1.6l0,0l-0.8,0.8L372,144l0,0l-1.6,2.4l-3.2,3.2l-2.4,1.6l-2.4,0.8l-1.6,1.6L356,156l-8,4h-1.6H344l-4,1.6
	l-3.2,0.8l0,0H336l-4.8,1.6h-2.4l-1.6,0.8H324h-2.4H320l-3.2,1.6l-4.8,2.4l-1.6,1.6L308,172l-4,0.8v-1.6l0,0h-0.8h-0.8H300h-1.6
	h-0.8l0,0l-4.8,1.6l-5.6,0.8l-2.4,0.8h-2.4h-1.6h-2.4h-0.8l0,0h-7.2h-3.2h-1.6l-2.4-0.8l-4-0.8h-0.8L256,172l-0.8,0.8h-0.8l-1.6-0.8
	H252l-1.6,0.8h-0.8H248h-1.6l-0.8-0.8l-6.4,0.8l-1.6-0.8l-5.6-1.6h-0.8l-0.8,0.8l-1.6,0.8h-1.6h-1.6l-2.4-0.8l-2.4-0.8H220h-1.6
	h-0.8l-3.2-1.6l-4.8-3.2l-3.2-1.6h-0.8v0.8l0.8,1.6v1.6v1.6v0.8v0.8l0.8,1.6l0.8,1.6v3.2v3.2l-0.8,5.6v0.8l-0.8,3.2l0,0L288,260l0,0
	l0.8-1.6l0.8-0.8l0.8-0.8h3.2l4,0.8h0.8l0.8-3.2l0.8-0.8l2.4-3.2v-1.6V248l0.8-1.6v-3.2V240l1.6-4l1.6-1.6l2.4-1.6l0.8-0.8h1.6l0,0
	l0,0h5.6h1.6h1.6l4.8,0.8l0,0l1.6,0.8l1.6,1.6l1.6,1.6l0,0l1.6,0.8l0,0h0.8l1.6-0.8l0.8-0.8l1.6-0.8l0,0l0.8-1.6l0,0l0,0l0,0l0,0
	v-0.8l3.2-0.8h3.2l0,0l0,0l0.8-0.8h0.8l2.4,0.8h1.6l0.8,0.8h0.8h1.6l1.6,1.6h0.8l4,2.4l0,0l0,0l0,0h0.8h0.8l0,0l0,0l0.8,0.8h0.8
	l0.8-0.8V236l0,0h-1.6l0-4l0.8-1.6L360,228l0,0l0,0l-0.8-0.8l-3.2-4.8l-4-3.2l-1.6-0.8l0,0h-0.8l-2.4-2.4l-1.6-1.6v-0.8v-0.8
	l-0.8-1.6l-0.8-1.6l-1.6-1.6l0,0l-2.4-3.2l-0.8-0.8h-0.8h-1.6l0,0l0,0l0,0l0.8-0.8h0.8v-0.8l-1.6-4l0,0v-1.6l0.8-5.6v-0.8l1.6-4
	l0.8-0.8l1.6-2.4l0.8-1.6l0.8-0.8l0,0l1.6-0.8h1.6h1.6l2.4,0.8h2.4h0.8h0.8l1.6-0.8l0.8-0.8l0.8-0.8l0.8-3.2v-0.8l0.8-0.8l3.2-4
	l2.4-2.4l5.6-4l3.2-1.6l1.6-0.8l12.8-5.6l3.2-3.2l1.6-1.6l3.2-2.4l4-1.6l3.2-2.4l0.8-0.8l0.8-2.4h0.8l0.8-1.6l0,0l2.4-1.6l0,0
	l9.6-4.8h1.6l0.8-0.8l3.2-0.8h0.8h0.8l0.8-0.8l0,0V128l0.8-0.8v-1.6L428.8,120h0.8l0.8-0.8l0,0L428.8,120z"/>
<polygon style="fill:#E56B07;" points="368,165.6 373.6,160.8 376.8,159.2 377.6,158.4 391.2,152.8 394.4,149.6 396,148 
	399.2,145.6 402.4,144 405.6,141.6 406.4,140.8 407.2,138.4 408,137.6 408.8,136.8 408.8,136 411.2,134.4 412,134.4 421.6,129.6 
	423.2,129.6 424,128.8 426.4,128 427.2,128 428,127.2 428,126.4 428,126.4 428.8,123.2 428.8,122.4 429.6,120.8 429.6,120.8 
	430.4,120 431.2,119.2 430.4,119.2 428.8,120 428.8,120 426.4,120 424.8,120.8 422.4,123.2 421.6,123.2 420.8,123.2 420,123.2 
	419.2,123.2 419.2,124 418.4,125.6 417.6,125.6 415.2,125.6 413.6,127.2 410.4,126.4 409.6,126.4 406.4,128.8 405.6,129.6 
	404.8,129.6 403.2,129.6 402.4,129.6 401.6,131.2 399.2,131.2 398.4,131.2 397.6,133.6 396,135.2 396,135.2 395.2,134.4 
	394.4,135.2 394.4,136 393.6,136.8 392,136.8 391.2,138.4 390.4,138.4 388.8,138.4 388.8,138.4 387.2,139.2 384.8,139.2 384,140.8 
	383.2,140.8 383.2,140.8 382.4,141.6 381.6,141.6 380.8,141.6 380,141.6 379.2,141.6 378.4,141.6 377.6,141.6 376,140.8 
	375.2,140.8 374.4,140.8 374.4,142.4 374.4,142.4 373.6,143.2 372,144 372,144 370.4,146.4 367.2,149.6 364.8,151.2 362.4,152 
	360.8,152.8 355.2,155.2 348,159.2 346.4,160 344,160 344,160 366.4,167.2 "/>
<path style="fill:#E88705;" d="M430.4,119.2L430.4,119.2L430.4,119.2z"/>
<g>
</g>
<g>
</g>
<g>
</g>
<g>
</g>
<g>
</g>
<g>
</g>
<g>
</g>
<g>
</g>
<g>
</g>
<g>
</g>
<g>
</g>
<g>
</g>
<g>
</g>
<g>
</g>
<g>
</g>
</svg>
