<?xml version="1.0" encoding="iso-8859-1"?>
<!-- Generator: Adobe Illustrator 19.0.0, SVG Export Plug-In . SVG Version: 6.00 Build 0)  -->
<svg version="1.1" id="Capa_1" xmlns="http://www.w3.org/2000/svg" xmlns:xlink="http://www.w3.org/1999/xlink" x="0px" y="0px"
	 viewBox="0 0 496 496" style="enable-background:new 0 0 496 496;" xml:space="preserve">
<path style="fill:#214183;" d="M0,304v65.6C0,396.8,21.6,416,48,416h400c26.4,0,48-19.2,48-46.4V304H0z"/>
<path style="fill:#12326D;" d="M446.4,416c26.4,0,49.6-19.2,49.6-46.4V304H315.2L446.4,416z"/>
<path style="fill:#214183;" d="M448,80H48C21.6,80,0,99.2,0,126.4V192h496v-65.6C496,99.2,474.4,80,448,80z"/>
<path style="fill:#12326D;" d="M448,80H48l130.4,112H496v-65.6C496,99.2,474.4,80,448,80z"/>
<path style="fill:#092656;" d="M448,80H48l370.4,112H496v-65.6C496,99.2,474.4,80,448,80z"/>
<polygon style="fill:#F3F4F5;" points="0,144 0,189.6 0,191.2 0,304.8 0,306.4 0,352 496,352 496,306.4 496,304.8 496,191.2 
	496,189.6 496,144 "/>
<polygon style="fill:#D3DDE5;" points="176,191.2 176,190.4 314.4,304.8 371.2,352 496,352 496,306.4 496,304.8 496,191.2 
	496,189.6 496,144 122.4,144 "/>
<polygon style="fill:#C1D1DB;" points="417.6,192 496,192 496,189.6 496,144 259.2,144 "/>
<rect y="160" style="fill:#D71F37;" width="496" height="176"/>
<polygon style="fill:#AD092C;" points="140.8,160 176,190.4 176,190.4 314.4,305.6 352.8,336 496,336 496,306.4 496,304.8 
	496,191.2 496,189.6 496,160 "/>
<path style="fill:#092656;" d="M496,368.8c0,29.6-21.6,47.2-48,47.2H48c-26.4,0-48-20.8-48-48"/>
<path style="fill:#FFFFFF;" d="M108,185.6c-32,0-58.4,26.4-58.4,58.4S76,302.4,108,302.4s58.4-26.4,58.4-58.4S140,185.6,108,185.6z
	 M140.8,289.6l-33.6-24l-33.6,24l12.8-40l-32-25.6h40.8l12.8-39.2l12.8,39.2h40.8L128,249.6L140.8,289.6z"/>
<g>
</g>
<g>
</g>
<g>
</g>
<g>
</g>
<g>
</g>
<g>
</g>
<g>
</g>
<g>
</g>
<g>
</g>
<g>
</g>
<g>
</g>
<g>
</g>
<g>
</g>
<g>
</g>
<g>
</g>
</svg>
