<?xml version="1.0" encoding="iso-8859-1"?>
<!-- Generator: Adobe Illustrator 19.0.0, SVG Export Plug-In . SVG Version: 6.00 Build 0)  -->
<svg version="1.1" id="Capa_1" xmlns="http://www.w3.org/2000/svg" xmlns:xlink="http://www.w3.org/1999/xlink" x="0px" y="0px"
	 viewBox="0 0 497.3 497.3" style="enable-background:new 0 0 497.3 497.3;" xml:space="preserve">
<path style="fill:#002D62;" d="M268,269.45v149.6h180.3c26.4,0,49-21.6,49-48.8v-100.8H268z"/>
<path style="fill:#CE1126;" d="M239.2,269.45H0v100.8c0,27.2,21.6,48.8,48,48.8h191.2V269.45z"/>
<g>
	<path style="fill:#002D62;" d="M247.2,78.25H48c-26.4,0-48,21.6-48,48.8v123.2h247.2V78.25z"/>
	<path style="fill:#002D62;" d="M448,78.25H260v172h237.3v-123.2C497.3,99.85,474.4,78.25,448,78.25z"/>
</g>
<path style="fill:#B50922;" d="M448,78.25H48l400.3,340.8c26.4,0,49-21.6,49-48.8v-243.2C497.3,99.85,474.4,78.25,448,78.25z"/>
<g>
	<path style="fill:#002549;" d="M448.3,419.05c26.1,0,49-21.6,49-48.8v-100.8h-225L448.3,419.05z"/>
	<polygon style="fill:#002549;" points="247.2,78.25 48,78.25 247.2,247.85 	"/>
</g>
<path style="fill:#910519;" d="M448,78.25H48l449.3,137.6v-88.8C497.3,99.85,474.4,78.25,448,78.25z"/>
<g>
	<polygon style="fill:#00101E;" points="247.2,78.25 48,78.25 247.2,139.05 	"/>
	<path style="fill:#00101E;" d="M0,370.25c0,27.2,21.6,48.8,48,48.8h400.3c26.4,0,49-21.6,49-48.8H0z"/>
</g>
<path style="fill:#910519;" d="M0,370.25c0,27.2,21.6,48.8,48,48.8h191.2v-48.8H0z"/>
<polygon style="fill:#FFFFFF;" points="293.3,203.95 293.3,78.25 205.3,78.25 205.3,203.95 0,203.95 0,291.95 205.3,291.95 
	205.3,418.25 293.3,418.25 293.3,291.95 497.3,291.95 497.3,262.25 497.3,233.55 497.3,203.95 "/>
<g>
	<polygon style="fill:#D3D3D3;" points="205.3,370.25 205.3,419.05 233.6,419.05 262.4,419.05 293.3,419.05 293.3,370.25 	"/>
	<polygon style="fill:#D3D3D3;" points="293.3,78.25 262.4,78.25 233.6,78.25 205.3,78.25 205.3,203.95 195.6,203.95 298.8,291.95 
		497.3,291.95 497.3,203.95 293.3,203.95 	"/>
</g>
<path style="fill:#CE1126;" d="M242.4,269.45c2.4,0,3.2,0,4.8,1.6c0,0,0.6,0.5,0.8,0.8c0.2-0.2,0.8-0.8,0.8-0.8
	c1.6-1.6,2.4-1.6,4.8-1.6c0.8,0,4.2,0,7.2,0c3.1,0,5.6-3.5,5.6-6.6l0,0c0-0.8,0-0.6,0-2.2v-29.6c0-1.6,0-0.6,0-1.6l0,0l4-4l0.8-0.8
	H268h-0.8h-0.8h-13.6h-1.6h-6.4h-1.6h-13.6h-0.8H228h-3.2l0.8,0.8l2.9,2.9c0.4,0.9,0.7,1.8,1.1,2.7v29.6v2.2c0,3.1,2.5,6.6,5.6,6.6
	L242.4,269.45L242.4,269.45z"/>
<g>
	<path style="fill:#002D62;" d="M208.8,227.05l0.8-0.8c0.8-0.8,2.4-1.6,3.2-1.6c2.4-1.2,6.4-1.7,9.5-3.1c1.6-0.7,2.6-2.4,2.5-4.1
		l0,0c1.6-0.8,2.4-0.8,4.8-1.6c5.6-1.6,7.6,0,10-0.8c0.2,0,0.3,0,0.5-0.1c0.8-0.3,1.1-1.3,0.8-2.1l-0.4-1.8H252c0,1.6-1.6,3.2,1.6,4
		c2.4,0.8,7.2-0.8,12,0.8l4.8,1.6c0,0-0.6,2.5,2.2,4.2c1.2,0.7,2.7,1.4,3.4,1.4c4.8,1.6,5.6,1.6,9.6,4c0-0.8-2.4-3.2-2.4-4h4.8
		c-0.8-1.6-3.2-2.4-4.8-3.2l-5.6-2.4c0,0,0,0,0-0.8s0.8-1.6,0-2.4c-0.8-1.6-4.8-3.3-7.2-4c-3.1-0.7-12.8-2.4-12.8-2.4
		s0.4-0.8,0.1-1.9c-0.3-0.8-0.9-1.4-1.7-1.7c-1.2-0.4-2.8-0.8-4.3-0.9c-5.4-0.4-7.9-0.4-12.6,0c-1.6,0.1-3.1,0.4-3.9,1.2
		s-0.8,1.6-0.8,3.2l0,0c-5.6,0-12,1.6-16.8,4c-2.4,1.6-3.2,1.6-1.6,4c0,0-2.4,0.8-3.2,0.8s-7.2,3.2-8,4l5.5,0.4
		C210.4,223.15,209.6,226.25,208.8,227.05z"/>
	<path style="fill:#002D62;" d="M218.3,282.45c-3.6-2.1-10.7-6.2-14.3-13.6l-0.1-0.2h-0.2c-1.2-0.2-4.6-0.1-8.4-2.2
		c-1.2-0.7-2.5-2.2-3.6-3.1c1.8-1.8,7.8-2.3,10.8,2.1l0,0c-0.9-2.4-1.2-4.9-1.1-7.5v-0.1l-3.2,0.9c0,0-2.4,0.6-5.5-1.1
		c-0.8-0.4-1.5-1-2.2-1.6c0.6-1,3.3-4.2,7.9-1.6c0.6,0.3,1.1,0.7,1.7,1.2l0.8,0.7l-1.6-7l-0.1-0.1c0,0-2.1-1.4-2.5-4
		c-0.4-2.1,0.4-4.5,2.2-7.1c1.1,0.8,5,4.2,1.4,10.5l-0.1,0.1v0.1c0,0.1,0.2,3.1,1.2,5.7l0.5,1.3l0.2-1.4c0.6-3.6,2-7.5,4-11.5
		l0.1-0.2l-0.1-0.2c-3.9-5.2-1-10.4-0.1-11.8c1.5,1.8,2.3,3.7,2.5,5.7v0.7l0.6-0.4c0.6-0.5,1.2-0.9,1.9-1.2l0.3-0.1l-0.1-0.3
		c-1.5-5.2,2.1-8.4,3.3-9.3c1.4,3.8,0,6.6-1.4,8.3l-0.7,0.8l1-0.2c2.1-0.4,3.9-0.1,4.7,0.1c-2.5,4.9-6.7,5.8-9.7,5.7h-0.2l-0.1,0.2
		c-0.7,1.1-1.3,2.3-1.8,3.3l0.6,0.4c2.7-2.8,6.2-1.5,7.3-1c-2.7,4.7-5.5,6.4-7.9,5.1c-0.4-0.2-0.7-0.5-1-0.8l-0.4-0.4l-0.2,0.5
		c-0.7,1.7-1.2,3.4-1.6,5l-0.3,1.2l0.9-0.9c2.1-2,4.9-1.1,5.9-0.7c-2.2,3.9-4.5,5.3-6.5,4.2l-0.5-0.3l-0.1,0.5
		c-0.2,1.9-0.1,3.8,0.2,5.6l0.4,2.6l0,0c0.3-0.9,0.9-1.6,1.6-2.1c2-1.2,4.1-1.3,5.7-0.4c0.5,0.3,0.9,0.6,1.2,0.8
		c-2.8,2.9-5.4,4.2-6.8,4.8l-0.4,0.2l0.2,0.4c0.8,1.5,1.7,3,2.9,4.3l0.5,0.6l0.2-0.7c1.4-5.6,4.5-6.3,4.6-6.3
		c0.4-0.1,1.7-0.3,2.4,0.1c0.9,0.5,0.3,2-0.3,3.1c-1.7,3-3.8,4.2-5.2,4.6l-0.6,0.2l0.4,0.4c3.2,3.2,6.9,5.3,9,6.5L218.3,282.45z"/>
	<path style="fill:#002D62;" d="M277,282.45c3.6-2.1,10.7-6.2,14.3-13.6l0.1-0.2h0.2c1.2-0.2,4.6-0.1,8.4-2.2
		c1.2-0.7,2.5-2.2,3.6-3.1c-1.8-1.8-7.8-2.3-10.8,2.1l0,0c0.9-2.4,1.2-4.9,1.1-7.5v-0.1l3.2,0.9c0,0,2.4,0.6,5.5-1.1
		c0.8-0.4,1.5-1,2.2-1.6c-0.6-1-3.3-4.2-7.9-1.6c-0.6,0.3-1.1,0.7-1.7,1.2l-0.8,0.7l1.6-7l0.1-0.1c0,0,2.1-1.4,2.5-4
		c0.4-2.1-0.4-4.5-2.2-7.1c-1.1,0.8-5,4.2-1.4,10.5l0.1,0.1v0.1c0,0.1-0.2,3.1-1.2,5.7l-0.5,1.3l-0.2-1.4c-0.6-3.6-2-7.5-4-11.5
		l-0.1-0.2l0.1-0.2c3.9-5.2,1-10.4,0.1-11.8c-1.5,1.8-2.3,3.7-2.5,5.7v0.7l-0.6-0.4c-0.6-0.5-1.2-0.9-1.9-1.2l-0.3-0.1l0.1-0.3
		c1.5-5.2-2.1-8.4-3.3-9.3c-1.4,3.8,0,6.6,1.4,8.3l0.7,0.8l-1-0.2c-2.1-0.4-3.9-0.1-4.7,0.1c2.5,4.9,6.7,5.8,9.7,5.7h0.2l0.1,0.2
		c0.7,1.1,1.3,2.3,1.8,3.3l-0.6,0.4c-2.7-2.8-6.2-1.5-7.3-1c2.7,4.7,5.5,6.4,7.9,5.1c0.4-0.2,0.7-0.5,1-0.8l0.4-0.4l0.2,0.5
		c0.7,1.7,1.2,3.4,1.6,5l0.3,1.2l-0.9-0.9c-2.1-2-4.9-1.1-5.9-0.7c2.2,3.9,4.5,5.3,6.5,4.2l0.5-0.3l0.1,0.5c0.2,1.9,0.1,3.8-0.2,5.6
		l-0.4,2.6l0,0c-0.3-0.9-0.9-1.6-1.6-2.1c-2-1.2-4.1-1.3-5.7-0.4c-0.5,0.3-0.9,0.6-1.2,0.8c2.8,2.9,5.4,4.2,6.8,4.8l0.4,0.2
		l-0.2,0.4c-0.8,1.5-1.7,3-2.9,4.3l-0.5,0.6l-0.2-0.7c-1.4-5.6-4.5-6.3-4.6-6.3c-0.4-0.1-1.7-0.3-2.4,0.1c-0.9,0.5-0.3,2,0.3,3.1
		c1.7,3,3.8,4.2,5.2,4.6l0.6,0.2l-0.4,0.4c-3.2,3.2-6.9,5.3-9,6.5L277,282.45z"/>
	<path style="fill:#002D62;" d="M285.7,272.65c-0.9,0-1.7,0.1-2.4,0.8c0.5-1.6,1.1-3.2,1.6-4.8c-1.3,1.3-2,2.7-3.4,4
		c-1.1,1-1.4,2.4-2.4,3.3c-0.9,0.9-0.4,0.4-1.4,0.1c-2.3-0.7-4.7,4.2-5.6,5.6c-0.9,1.3-0.9,1-2.4,0.6c-1.5-0.8-3.3-0.8-4.8-1.6
		c0.3-0.3-3.3-1.2-4.7-1.2c-1.1,0-2-0.2-2.8-0.5c0.1,0.6,0.1,1.1,0.3,1.7c-3.8-1-7.7-1.3-11.6-1.4l0,0c0,0,0,0-0.1,0c0,0,0,0-0.1,0
		l0,0c-3.9,0.1-7.8,0.4-11.6,1.4c0.1-0.6,0.2-1.1,0.3-1.7c-0.8,0.3-1.8,0.5-2.8,0.5c-1.4,0-5,0.9-4.7,1.2c-1.5,0.8-3.3,0.8-4.8,1.6
		c-1.6,0.4-1.3,1-2.4-0.6c-1-1.4-3.3-6.3-5.6-5.6c-1,0.3-0.5,0.8-1.4-0.1s-1.3-2.4-2.4-3.3c-1.4-1.3-2.1-2.7-3.4-4
		c0.5,1.6,1.1,3.2,1.6,4.8c-0.7-0.7-1.5-0.8-2.4-0.8s-1.5-0.8-2.4-0.8c1.7,1.7,2.9,3.5,4,5.6c0.9,2.8,3,4.5,5,6.3
		c0.7,0.6,1,1.7,2.2,1.1c1.1-0.5,1.6,1.2,2.3,2c1.7,1.9,3.6,4.1,6.2,4.4c1.9,0.2,6.5-0.7,7-3c0.2-0.8-0.2-1.6-0.3-2.4
		s1.5-0.9,2.2-1.1c0.9-0.3,5.2-2,5.7-0.2c0.4,1.2-3.1,2.4-4,2.4c0.5,0.3,1.1,0.5,1.6,0.8c-0.3,0.5-0.5,1.1-0.8,1.6
		c1.3,0,3.1-0.7,4-1.6c0,0.8,0.5,0.5,0.8,0.8c-1,0.5-1.9,1-2.9,1.4c-2.1,1-0.1,2.3,1.5,1.4c1.8-1,3.9-1.8,5.6-3.1
		c0.4-0.3,1.2-0.6,1.9-0.7c0.7,0.1,1.5,0.4,1.9,0.7c1.6,1.3,3.8,2.1,5.6,3.1c1.6,0.9,3.5-0.4,1.5-1.4c-1-0.5-1.9-1-2.9-1.4
		c0.3-0.3,0.8,0,0.8-0.8c0.9,0.9,2.7,1.6,4,1.6c-0.3-0.5-0.5-1.1-0.8-1.6c0.5-0.3,1.1-0.5,1.6-0.8c-0.9,0-4.4-1.2-4-2.4
		c0.5-1.8,4.8-0.1,5.7,0.2c0.7,0.2,2.3,0.3,2.2,1.1c-0.1,0.8-0.5,1.6-0.3,2.4c0.5,2.2,5.1,3.2,7,3c2.6-0.3,4.6-2.5,6.2-4.4
		c0.7-0.8,1.1-2.5,2.3-2c1.2,0.6,1.6-0.5,2.2-1.1c2.1-1.8,4.1-3.5,5-6.3c1.1-2.1,2.3-3.9,4-5.6
		C287.2,271.85,286.6,272.65,285.7,272.65z"/>
</g>
<g>
</g>
<g>
</g>
<g>
</g>
<g>
</g>
<g>
</g>
<g>
</g>
<g>
</g>
<g>
</g>
<g>
</g>
<g>
</g>
<g>
</g>
<g>
</g>
<g>
</g>
<g>
</g>
<g>
</g>
</svg>
