<?xml version="1.0" encoding="iso-8859-1"?>
<!-- Generator: Adobe Illustrator 19.0.0, SVG Export Plug-In . SVG Version: 6.00 Build 0)  -->
<svg version="1.1" id="Capa_1" xmlns="http://www.w3.org/2000/svg" xmlns:xlink="http://www.w3.org/1999/xlink" x="0px" y="0px"
	 viewBox="0 0 496 496" style="enable-background:new 0 0 496 496;" xml:space="preserve">
<path style="fill:#214183;" d="M0,304v65.6C0,396.8,21.6,416,48,416h400c26.4,0,48-19.2,48-46.4V304H0z"/>
<path style="fill:#12326D;" d="M446.4,416c26.4,0,49.6-19.2,49.6-46.4V304H315.2L446.4,416z"/>
<path style="fill:#214183;" d="M448,80H48C21.6,80,0,99.2,0,126.4V192h496v-65.6C496,99.2,474.4,80,448,80z"/>
<path style="fill:#12326D;" d="M448,80H48l128.8,112H496v-65.6C496,99.2,474.4,80,448,80z"/>
<path style="fill:#092656;" d="M448,80H48l367.2,112H496v-65.6C496,99.2,474.4,80,448,80z"/>
<polygon style="fill:#F3F4F5;" points="0,144 0,189.6 0,191.2 0,304.8 0,306.4 0,352 496,352 496,306.4 496,304.8 496,191.2 
	496,189.6 496,144 "/>
<polygon style="fill:#D3DDE5;" points="176,191.2 176,191.2 314.4,304.8 371.2,352 496,352 496,306.4 496,304.8 496,191.2 
	496,189.6 496,144 122.4,144 "/>
<polygon style="fill:#C1D1DB;" points="414.4,192 496,192 496,189.6 496,144 255.2,144 "/>
<rect y="192" style="fill:#D71F37;" width="496" height="112"/>
<polygon style="fill:#C1102D;" points="312.8,304 496,304 496,192 176.8,192 "/>
<polygon style="fill:#A00826;" points="496,214.4 496,192 414.4,192 "/>
<path style="fill:#092656;" d="M496,368.8c0,28.8-21.6,47.2-48,47.2H48c-26.4,0-48-20.8-48-48"/>
<g>
</g>
<g>
</g>
<g>
</g>
<g>
</g>
<g>
</g>
<g>
</g>
<g>
</g>
<g>
</g>
<g>
</g>
<g>
</g>
<g>
</g>
<g>
</g>
<g>
</g>
<g>
</g>
<g>
</g>
</svg>
