<?xml version="1.0" encoding="iso-8859-1"?>
<!-- Generator: Adobe Illustrator 19.0.0, SVG Export Plug-In . SVG Version: 6.00 Build 0)  -->
<svg version="1.1" id="Capa_1" xmlns="http://www.w3.org/2000/svg" xmlns:xlink="http://www.w3.org/1999/xlink" x="0px" y="0px"
	 viewBox="0 0 496 496" style="enable-background:new 0 0 496 496;" xml:space="preserve">
<path style="fill:#006B3F;" d="M496,369.6c0,27.2-21.6,48.8-48,48.8H48c-26.4,0-48-21.6-48-48.8V126.4c0-27.2,21.6-48.8,48-48.8h400
	c26.4,0,48,21.6,48,48.8V369.6z"/>
<path style="fill:#025934;" d="M48,77.6h400c26.4,0,48,21.6,48,48.8v243.2c0,27.2-21.6,48.8-48,48.8"/>
<g>
	<path style="fill:#024929;" d="M48,77.6h400c26.4,0,48,21.6,48,48.8v88.8"/>
	<path style="fill:#024929;" d="M496,369.6c0,27.2-21.6,48.8-48,48.8H48c-26.4,0-48-21.6-48-48.8"/>
</g>
<rect y="262.4" style="fill:#FFFFFF;" width="496" height="28.8"/>
<rect y="233.6" width="496" height="28.8"/>
<g>
	<rect y="204" style="fill:#FCD116;" width="496" height="28.8"/>
	<rect x="204" y="77.6" style="fill:#FCD116;" width="28.8" height="340.8"/>
</g>
<rect x="233.6" y="77.6" width="28.8" height="340.8"/>
<rect x="262.4" y="77.6" style="fill:#FFFFFF;" width="28.8" height="340.8"/>
<path style="fill:#D41C30;" d="M348,248c0.8,55.2-44,100-99.2,100.8s-100-44-100.8-99.2c0-0.8,0-0.8,0-1.6
	c-0.8-55.2,44-100,99.2-100.8c55.2-0.8,100,44,100.8,99.2C348,247.2,348,247.2,348,248z"/>
<g>
	<path style="fill:#006B3F;" d="M244.8,168.8l3.2-8.8l3.2,8.8h9.6l-8,5.6c0,0,4,10.4,3.2,10.4l-8.8-6.4c0,0-8.8,5.6-8,5.6
		s3.2-9.6,3.2-9.6l-7.2-5.6H244.8z"/>
	<path style="fill:#006B3F;" d="M251.2,327.2L248,336l-3.2-8.8h-9.6l8-5.6c0,0-4-10.4-3.2-10.4l8.8,6.4c0,0,8.8-5.6,8-5.6
		s-3.2,9.6-3.2,9.6l7.2,5.6H251.2z"/>
	<path style="fill:#006B3F;" d="M294.4,192l-3.2,8.8L288,192h-9.6l8-5.6c0,0-4-10.4-3.2-10.4l8.8,6.4c0,0,8.8-5.6,8-5.6l-3.2,9.6
		l7.2,5.6H294.4z"/>
	<path style="fill:#006B3F;" d="M322.4,273.6l-3.2,8.8l-3.2-8.8h-9.6l8-5.6c0,0-4-10.4-3.2-10.4l8.8,6.4c0,0,8.8-5.6,8-5.6l-3.2,9.6
		l7.2,5.6H322.4z"/>
	<path style="fill:#006B3F;" d="M180,276l-3.2,8.8l-3.2-8.8H164l8-5.6l-4-10.4l8.8,6.4c0,0,8.8-5.6,8-5.6s-3.2,9.6-3.2,9.6l7.2,5.6
		H180z"/>
	<path style="fill:#006B3F;" d="M205.6,192.8l-3.2,8.8l-2.4-8.8h-9.6l8-5.6c0,0-4-10.4-3.2-10.4l8.8,6.4c0,0,8.8-5.6,8-5.6l-3.2,9.6
		l7.2,5.6H205.6z"/>
	<path style="fill:#006B3F;" d="M172.8,222.4l3.2-8.8l3.2,8.8h9.6l-8,5.6c0,0,4,10.4,3.2,10.4l-8.8-6.4c0,0-8.8,5.6-8,5.6l3.2-9.6
		l-7.2-5.6H172.8z"/>
	<path style="fill:#006B3F;" d="M200.8,304.8l3.2-8.8l3.2,8.8h9.6l-8,5.6c0,0,4,10.4,3.2,10.4l-8.8-6.4c0,0-8.8,5.6-8,5.6
		s3.2-9.6,3.2-9.6l-7.2-5.6H200.8z"/>
	<path style="fill:#006B3F;" d="M315.2,220.8l3.2-8.8l3.2,8.8h9.6l-8,5.6c0,0,4,10.4,3.2,10.4l-8.8-6.4c0,0-8.8,5.6-8,5.6
		s3.2-9.6,3.2-9.6l-7.2-5.6H315.2z"/>
	<path style="fill:#006B3F;" d="M289.6,304l3.2-8.8l3.2,8.8h9.6l-8,5.6c0,0,4,10.4,3.2,10.4l-8.8-6.4c0,0-8.8,5.6-8,5.6l3.2-9.6
		L280,304H289.6z"/>
</g>
<g>
	<polygon style="fill:#009543;" points="180.8,226.4 181.6,226.4 181.6,226.4 	"/>
	<polygon style="fill:#009543;" points="266.4,286.4 267.2,286.4 267.2,286.4 	"/>
	<polygon style="fill:#009543;" points="312,268 311.2,268 311.2,268 	"/>
	<path style="fill:#009543;" d="M231.2,199.2L231.2,199.2L231.2,199.2z"/>
</g>
<path d="M276.8,290.4c0.8-3.2,0.8-6.4,0-10.4c0-2.4,0-4.8-0.8-8c1.6-5.6,0-16-4.8-28c-3.2-6.4-6.4-12.8-9.6-16.8
	c3.2,1.6,8,2.4,11.2-1.6c-1.6,0-3.2-0.8-4.8-2.4c1.6-0.8,2.4-1.6,4-3.2c-1.6,0-3.2-0.8-4.8-2.4c0.8-0.8,2.4-1.6,3.2-2.4
	c-1.6,0-4-1.6-6.4-3.2c0.8-0.8,1.6-1.6,3.2-2.4c-1.6,0-4-1.6-6.4-3.2c1.6,0.8,3.2,0.8,5.6,0c-4.8-1.6-12-9.6-16-12
	c-4.8-2.4-11.2-1.6-14.4,0.8c-1.6,1.6-2.4,3.2-3.2,5.6c-0.8,0-0.8,0-1.6,0.8c-3.2,0.8-5.6,4-2.4,11.2c0-1.6,0.8-2.4,1.6-3.2
	c0.8,0.8,2.4,0.8,4,0.8c0.8,0,1.6-0.8,1.6-0.8s0.8,0,0.8,0.8c-0.8,0.8-0.8,0.8-0.8,1.6l0,0c-0.8,0.8-1.6,1.6-1.6,2.4l0,0
	c-0.8,0.8-0.8,1.6-0.8,2.4l0,0c-2.4,4.8-5.6,12.8-4.8,26.4c0.8,11.2,5.6,20,11.2,25.6c0,0.8,0.8,1.6,0.8,2.4s0,2.4,0,4
	c0,3.2,1.6,6.4,3.2,5.6l0,0c0,2.4,0.8,4,1.6,4.8c-1.6,0.8-2.4,1.6-3.2,3.2c-5.6,0-9.6,0-10.4,0c-1.6,0-0.8-1.6-1.6-4
	c-0.8-1.6-4.8-2.4-7.2-1.6c-2.4,1.6,0,4-5.6,4c0,0,2.4,5.6,4,6.4c0.8,0.8,9.6,0.8,20,0.8c2.4,3.2,6.4,4.8,8,3.2
	c1.6,0.8,3.2,0.8,3.2,0c1.6,0.8,2.4,0.8,3.2,0c0.8,0,2.4,0.8,3.2,0c0.8,2.4,2.4,3.2,3.2,3.2l0,0c0.8,3.2,2.4,4.8,3.2,4.8
	c0.8,0,1.6-1.6,2.4-4.8l0,0c1.6,0,3.2-3.2,4-8c0.8,0,0.8,0,0.8,0c1.6-0.8,1.6-4,0-5.6l0,0c0-1.6,0-3.2,0-5.6
	C275.2,286.4,276,288.8,276.8,290.4z M250.4,284.8c0,0.8,0,0.8,0.8,1.6l0,0h-0.8C250.4,285.6,250.4,285.6,250.4,284.8z M259.2,296.8
	L259.2,296.8L259.2,296.8L259.2,296.8z"/>
<g>
</g>
<g>
</g>
<g>
</g>
<g>
</g>
<g>
</g>
<g>
</g>
<g>
</g>
<g>
</g>
<g>
</g>
<g>
</g>
<g>
</g>
<g>
</g>
<g>
</g>
<g>
</g>
<g>
</g>
</svg>
