<?xml version="1.0" encoding="iso-8859-1"?>
<!-- Generator: Adobe Illustrator 19.0.0, SVG Export Plug-In . SVG Version: 6.00 Build 0)  -->
<svg version="1.1" id="Capa_1" xmlns="http://www.w3.org/2000/svg" xmlns:xlink="http://www.w3.org/1999/xlink" x="0px" y="0px"
	 viewBox="0 0 496.8 496.8" style="enable-background:new 0 0 496.8 496.8;" xml:space="preserve">
<path style="fill:#D11F3E;" d="M0,336.4V370c0,25.6,18.4,46.4,43.2,46.4h410.4c24,0,43.2-20.8,43.2-46.4v-33.6H0z"/>
<path style="fill:#FCD73E;" d="M448,80.4H48c-26.4,0-48,19.2-48,46.4v121.6h496V126.8C496,99.6,474.4,80.4,448,80.4z"/>
<path style="fill:#E5BF23;" d="M48,80.4h400c26.4,0,48,19.2,48,46.4V370c0,27.2-24.8,46.4-51.2,46.4"/>
<path style="fill:#BA0F34;" d="M448,416.4h5.6l0,0c3.2,0,6.4-1.6,9.6-2.4l0,0c0,0,3.2-0.8,4.8-1.6c0,0,1.6-0.8,2.4-0.8
	c2.4-1.6,4-2.4,6.4-4l0,0c1.6-1.6,4.8-4,7.2-5.6l0,0c1.6-1.6,3.2-3.2,4.8-5.6l0,0c1.6-2.4,4-5.6,4.8-8v-0.8c0.8-2.4,1.6-4.8,2.4-8
	v-0.8c0-2.4,0-5.6,0-8.8v-33.6H346.4L448,416.4z"/>
<path style="fill:#D3AD0D;" d="M48,80.4h400c26.4,0,48,19.2,48,46.4v89.6"/>
<path style="fill:#A50A33;" d="M496,369.2c0,29.6-18.4,47.2-44.8,47.2H48c-26.4,0-48-20.8-48-48"/>
<rect y="248.4" style="fill:#1D4F95;" width="496" height="88"/>
<polygon style="fill:#083A75;" points="346.4,336.4 496,336.4 496,248.4 245.6,248.4 "/>
<g>
</g>
<g>
</g>
<g>
</g>
<g>
</g>
<g>
</g>
<g>
</g>
<g>
</g>
<g>
</g>
<g>
</g>
<g>
</g>
<g>
</g>
<g>
</g>
<g>
</g>
<g>
</g>
<g>
</g>
</svg>
