<?xml version="1.0" encoding="iso-8859-1"?>
<!-- Generator: Adobe Illustrator 19.0.0, SVG Export Plug-In . SVG Version: 6.00 Build 0)  -->
<svg version="1.1" id="Capa_1" xmlns="http://www.w3.org/2000/svg" xmlns:xlink="http://www.w3.org/1999/xlink" x="0px" y="0px"
	 viewBox="0 0 496.089 496.089" style="enable-background:new 0 0 496.089 496.089;" xml:space="preserve">
<path style="fill:#FFFFFF;" d="M496,369.249c0,27.2-20.3,46.8-48,48.8H48c-26.4,0-48-21.6-48-48.8v-243.2c0-27.2,23.6-48.5,45.9-48
	h408.5c26.4,0,42.6,21.1,41.6,48V369.249z"/>
<path style="fill:#E9F3F4;" d="M454.4,78.049H45.9l402.1,340c27.4-1.8,48-21.6,48-48.8v-243.2
	C496.8,98.949,480.8,78.049,454.4,78.049z"/>
<path style="fill:#D9ECED;" d="M454.4,78.049H45.9l450.1,136.8v-88.8C497.2,99.749,480.8,78.049,454.4,78.049z"/>
<path style="fill:#002A8F;" d="M0,126.049v20h496v-20c0.8-25.2-13.3-47.4-41.6-48H45.9C20.6,78.449,0,101.249,0,126.049z"/>
<path style="fill:#062A72;" d="M454.4,78.049H45.9l80.4,68H496v-20.8C496.8,116.149,492.9,79.249,454.4,78.049z"/>
<path style="fill:#032151;" d="M45.9,78.049l223.7,68H496v-19.2C496,124.449,45.9,78.049,45.9,78.049z"/>
<rect y="213.249" style="fill:#002A8F;" width="496" height="68.8"/>
<polygon style="fill:#062A72;" points="287.2,282.049 496,282.049 496,213.249 205.8,213.249 "/>
<path style="fill:#002A8F;" d="M0,349.249v20c0,24.8,18.4,45.6,41.6,48.8H448c29.7-2.1,48-24,48-48.8v-20H0z"/>
<path style="fill:#062A72;" d="M448,418.049L448,418.049c46.6-4.2,48-44.1,48-48.8v-20H366.6L448,418.049z"/>
<path style="fill:#E73B36;" d="M0,122.849c0,0.8,0,2.4,0,3.2v243.2c0,0.8,0,2.4,0,3.2l182.4-124.8L0,122.849z"/>
<path style="fill:#CF142B;" d="M0,215.649c0,0.8,0,26.4,0,27.2v127.2c0,0.8,0,2.4,0,3.2l182.4-125.6L0,215.649z"/>
<polygon style="fill:#FFFFFF;" points="70.4,212.449 79.2,239.649 107.2,239.649 84,255.649 92.8,282.849 70.4,266.049 
	47.2,282.849 56,255.649 32.8,239.649 61.6,239.649 "/>
<g>
</g>
<g>
</g>
<g>
</g>
<g>
</g>
<g>
</g>
<g>
</g>
<g>
</g>
<g>
</g>
<g>
</g>
<g>
</g>
<g>
</g>
<g>
</g>
<g>
</g>
<g>
</g>
<g>
</g>
</svg>
