<?xml version="1.0" encoding="iso-8859-1"?>
<!-- Generator: Adobe Illustrator 19.0.0, SVG Export Plug-In . SVG Version: 6.00 Build 0)  -->
<svg version="1.1" id="Capa_1" xmlns="http://www.w3.org/2000/svg" xmlns:xlink="http://www.w3.org/1999/xlink" x="0px" y="0px"
	 viewBox="0 0 496 496" style="enable-background:new 0 0 496 496;" xml:space="preserve">
<path style="fill:#DC3027;" d="M496,369.6c0,27.2-21.6,46.4-48,46.4H48c-26.4,0-48-19.2-48-46.4V126.4C0,99.2,21.6,80,48,80h400
	c26.4,0,48,19.2,48,46.4V369.6z"/>
<path style="fill:#CE2420;" d="M48,80h400c26.4,0,48,19.2,48,46.4v243.2c0,27.2-25.6,46.4-52,46.4"/>
<g>
	<path style="fill:#B50808;" d="M48,80h400c26.4,0,48,19.2,48,46.4V216"/>
	<path style="fill:#B50808;" d="M496,368.8c0,29.6-21.6,47.2-48,47.2H48c-26.4,0-48-20.8-48-48"/>
</g>
<polygon style="fill:#F8D12E;" points="86.4,130.4 98.4,168 137.6,168 106.4,190.4 118.4,227.2 86.4,204 55.2,226.4 67.2,190.4 
	35.2,168 74.4,168 "/>
<polygon style="fill:#F7B92F;" points="177.6,108 174.4,120.8 185.6,128.8 172,128.8 168,142.4 163.2,128.8 149.6,129.6 
	160.8,121.6 156,108.8 167.2,116 "/>
<polygon style="fill:#F8D12E;" points="177.6,224.8 174.4,237.6 185.6,245.6 172,246.4 168,259.2 163.2,246.4 149.6,246.4 
	160.8,238.4 156,225.6 167.2,232.8 "/>
<polygon style="fill:#F7B92F;" points="211.2,143.2 207.2,156.8 218.4,164 204.8,164.8 200.8,177.6 196.8,164.8 183.2,165.6 
	193.6,156.8 188.8,144 200,152 "/>
<polygon style="fill:#F8D12E;" points="211.2,191.2 207.2,204 218.4,212 204.8,212 200.8,225.6 196.8,212.8 183.2,212.8 
	193.6,204.8 188.8,192 200,199.2 "/>
<g>
</g>
<g>
</g>
<g>
</g>
<g>
</g>
<g>
</g>
<g>
</g>
<g>
</g>
<g>
</g>
<g>
</g>
<g>
</g>
<g>
</g>
<g>
</g>
<g>
</g>
<g>
</g>
<g>
</g>
</svg>
