<?xml version="1.0" encoding="iso-8859-1"?>
<!-- Generator: Adobe Illustrator 19.0.0, SVG Export Plug-In . SVG Version: 6.00 Build 0)  -->
<svg version="1.1" id="Capa_1" xmlns="http://www.w3.org/2000/svg" xmlns:xlink="http://www.w3.org/1999/xlink" x="0px" y="0px"
	 viewBox="0 0 496 496" style="enable-background:new 0 0 496 496;" xml:space="preserve">
<path style="fill:#009543;" d="M448,77.6H48c-26.4,0-48,21.6-48,48.8v243.2c0,27.2,21.6,48.8,48,48.8h400c26.4,0,48-21.6,48-48.8
	V126.4C496,99.2,474.4,77.6,448,77.6z"/>
<path style="fill:#02632A;" d="M496,369.6c0,27.2-21.6,48.8-48,48.8H48c-26.4,0-48-21.6-48-48.8"/>
<path style="fill:#017734;" d="M48,77.6h400c26.4,0,48,21.6,48,48.8v243.2c0,27.2-21.6,48.8-48,48.8"/>
<path style="fill:#02632A;" d="M48,77.6h400c26.4,0,48,21.6,48,48.8v88.8"/>
<path style="fill:#FBDE4A;" d="M448,77.6H328.8l-320,320c8.8,12.8,23.2,20.8,39.2,20.8h400c26.4,0,48-21.6,48-48.8V126.4
	C496,99.2,474.4,77.6,448,77.6z"/>
<path style="fill:#EAC011;" d="M8.8,397.6c0.8,1.6,2.4,3.2,3.2,4c0,0,0,0,0.8,0.8s2.4,2.4,3.2,3.2c0,0,0,0,0.8,0.8
	c1.6,0.8,2.4,2.4,4,3.2l0,0c1.6,0.8,3.2,2.4,4.8,3.2l0,0c1.6,0.8,3.2,1.6,4.8,2.4c0.8,0,0.8,0,1.6,0.8c0.8,0,1.6,0,3.2,0.8
	c0.8,0,0.8,0,1.6,0.8c1.6,0,2.4,0.8,4,0.8c0.8,0,0.8,0,1.6,0c1.6,0,4,0,5.6,0h400c26.4,0,48-21.6,48-48.8H36.8L8.8,397.6z"/>
<path style="fill:#F9D230;" d="M448,77.6H328.8L200,207.2l248,211.2c26.4,0,48-21.6,48-48.8V126.4C496,99.2,474.4,77.6,448,77.6z"/>
<path style="fill:#EAC011;" d="M448,77.6H328.8l-65.6,65.6L496,214.4v-88C496,99.2,474.4,77.6,448,77.6z"/>
<path style="fill:#DC241F;" d="M448,418.4c26.4,0,48-21.6,48-48.8V126.4c0-10.4-3.2-20-8.8-28l-320,320H448z"/>
<path style="fill:#BC0D0D;" d="M495.2,119.2c0-0.8,0-0.8,0-1.6c0-2.4-0.8-4.8-1.6-6.4l0,0c-0.8-2.4-1.6-4-2.4-6.4c0,0,0,0,0-0.8
	c-0.8-2.4-2.4-4-3.2-6.4l0,0L296,288.8l152,129.6c26.4,0,48-21.6,48-48.8V126.4C496,124,496,121.6,495.2,119.2z"/>
<g>
	<path style="fill:#9E0808;" d="M495.2,119.2c0-0.8,0-0.8,0-1.6c0-2.4-0.8-4.8-1.6-6.4l0,0l0,0c-0.8-2.4-1.6-4-2.4-6.4
		c0,0,0,0,0-0.8c-0.8-2.4-2.4-4-3.2-6.4l0,0l0,0l-88,88l96,29.6v-88.8C496,124,496,121.6,495.2,119.2z"/>
	<path style="fill:#9E0808;" d="M167.2,418.4H448c26.4,0,48-21.6,48-48.8H216L167.2,418.4z"/>
</g>
<g>
</g>
<g>
</g>
<g>
</g>
<g>
</g>
<g>
</g>
<g>
</g>
<g>
</g>
<g>
</g>
<g>
</g>
<g>
</g>
<g>
</g>
<g>
</g>
<g>
</g>
<g>
</g>
<g>
</g>
</svg>
