<?xml version="1.0" encoding="iso-8859-1"?>
<!-- Generator: Adobe Illustrator 19.0.0, SVG Export Plug-In . SVG Version: 6.00 Build 0)  -->
<svg version="1.1" id="Capa_1" xmlns="http://www.w3.org/2000/svg" xmlns:xlink="http://www.w3.org/1999/xlink" x="0px" y="0px"
	 viewBox="0 0 496 496" style="enable-background:new 0 0 496 496;" xml:space="preserve">
<g>
	<path style="fill:#032EA1;" d="M0,304.8v64.8c0,27.2,21.6,48.8,48,48.8h400c26.4,0,48-21.6,48-48.8v-64.8H0z"/>
	<path style="fill:#032EA1;" d="M448,77.6H48c-26.4,0-48,21.6-48,48.8v64.8h496v-64.8C496,99.2,474.4,77.6,448,77.6z"/>
</g>
<rect y="189.6" style="fill:#E00025;" width="496" height="116"/>
<g>
	<path style="fill:#042A7F;" d="M448,418.4c26.4,0,48-21.6,48-48.8v-64.8H315.2L448,418.4z"/>
	<path style="fill:#042A7F;" d="M448,77.6H48l132.8,113.6H496v-64.8C496,99.2,474.4,77.6,448,77.6z"/>
</g>
<polygon style="fill:#B50030;" points="316,306.4 496,306.4 496,189.6 180,189.6 "/>
<path style="fill:#002566;" d="M448,77.6H48l370.4,113.6H496v-64.8C496,99.2,474.4,77.6,448,77.6z"/>
<polygon style="fill:#8C002B;" points="496,214.4 496,189.6 414.4,189.6 "/>
<path style="fill:#002566;" d="M496,369.6c0,27.2-21.6,48.8-48,48.8H48c-26.4,0-48-21.6-48-48.8"/>
<g>
	<path style="fill:#FFFFFF;" d="M249.6,200c0,0,0-2.4-1.6-2.4s-1.6,2.4-1.6,2.4H249.6z"/>
	<path style="fill:#FFFFFF;" d="M321.6,290.4v-7.2h-24l0,0h20v-6.4h-4V272h-16l0,0H312v-4h-3.2c-0.8-0.8-2.4-1.6-2.4-3.2l0,0v-12
		c0.8-1.6,1.6-3.2,2.4-3.2v-11.2c-1.6,0-2.4,1.6-2.4,1.6l0,0v-4.8c-0.8,0-0.8,0-1.6,0v9.6l0,0v-6.4h-2.4l0,0h2.4v-1.6h-2.4v-5.6
		c-0.8,0-0.8,2.4-2.4,2.4c-0.8,0-0.8-0.8,0-1.6s0.8-1.6,0-4c-0.8,1.6-1.6,1.6-1.6,0.8c0.8-1.6,1.6-1.6,0.8-4c0,2.4-1.6,2.4-1.6,0.8
		c0-1.6,0.8-1.6,0-4c-0.8,2.4-1.6,2.4-1.6,0.8c0-2.4,0-4-2.4-4.8c0,0,0-1.6-0.8-1.6s-0.8,1.6-0.8,1.6c-2.4,0.8-2.4,3.2-2.4,4.8
		s-0.8,1.6-1.6-0.8c-0.8,1.6,0,2.4,0,4s-0.8,1.6-1.6-0.8c-0.8,2.4,0,2.4,0.8,4c0,0.8-0.8,0.8-1.6-0.8c-0.8,1.6,0,3.2,0,4
		c0.8,0.8,0.8,1.6,0,1.6c-1.6,0-1.6-2.4-2.4-2.4v9.6h-0.8H280V240c0,0-0.8,0-1.6,0v0.8H264V232c-1.6,0.8-1.6,1.6-1.6,1.6v7.2l0,0
		v-5.6h-1.6c0,0-0.8,0-0.8-1.6s0.8-2.4,1.6-2.4V228c0,0-3.2,0-3.2,4v-3.2c-0.8,0-0.8,0.8-0.8,4h-2.4l0,0h1.6v-3.2
		c0-1.6,1.6-1.6,1.6-3.2c0,0,0-1.6,0-2.4c-0.8,2.4-1.6,1.6-1.6,0.8s0.8-1.6,2.4-4c0.8-0.8,0-2.4-0.8-3.2c0,1.6-0.8,2.4-1.6,2.4
		c-0.8,0-0.8,0-0.8-1.6c0-0.8,0.8-1.6,0.8-3.2c0.8-1.6,0-2.4-0.8-3.2c0,1.6,0,2.4-0.8,2.4c-1.6-0.8,0-3.2,0-3.2
		c0-0.8-0.8-2.4-0.8-2.4c-0.8,1.6-0.8,1.6-1.6,1.6c-0.8,0-0.8-1.6,0-2.4c0.8-0.8,0.8-1.6,0-1.6c-0.8,1.6-1.6,0.8-1.6,0l0.8-2.4
		h-10.4l0.8,2.4c0,0.8-0.8,0.8-1.6,0c-0.8,0.8-0.8,1.6,0,1.6c0.8,0.8,0.8,1.6,0,2.4c-0.8,0-0.8,0-1.6-1.6c0,0-0.8,1.6-0.8,2.4
		c0,0.8,1.6,3.2,0,3.2c-0.8,0-0.8-0.8-0.8-2.4c-0.8,0.8-0.8,1.6-0.8,3.2c0,0.8,0.8,1.6,0.8,3.2c0,0.8-0.8,1.6-0.8,1.6
		c-0.8,0-0.8-0.8-1.6-2.4c-0.8,0.8-0.8,3.2-0.8,3.2c1.6,2.4,2.4,3.2,2.4,4s-0.8,1.6-1.6-0.8c-0.8,0.8,0,2.4,0,2.4
		c0,1.6,1.6,1.6,1.6,3.2v3.2h1.6l0,0H236c0-3.2,0-4-0.8-4v3.2c0-3.2-3.2-3.2-3.2-3.2v3.2c0.8,0,1.6,0.8,1.6,2.4s-0.8,1.6-0.8,1.6
		h-1.6v5.6l0,0v-7.2c0,0,0-1.6-1.6-1.6v8.8h-14.4V240c0,0-0.8,0-1.6,0v0.8H212h-1.6v-9.6c-0.8,0-0.8,2.4-2.4,2.4
		c-0.8,0-0.8-0.8,0-1.6s0.8-1.6,0-4c-0.8,1.6-1.6,1.6-1.6,0.8c0.8-1.6,1.6-1.6,0.8-4c0,2.4-1.6,2.4-1.6,0.8c0-1.6,0.8-1.6,0-4
		c-0.8,2.4-1.6,2.4-1.6,0.8c0-2.4,0-4-2.4-4.8c0,0,0-1.6-0.8-1.6s-0.8,1.6-0.8,1.6c-2.4,0.8-2.4,3.2-2.4,4.8s-0.8,1.6-1.6-0.8
		c-0.8,1.6,0,2.4,0,4s-0.8,1.6-1.6-0.8c-0.8,2.4,0,2.4,0.8,4c0,0.8-0.8,0.8-1.6-0.8c-0.8,1.6,0,3.2,0,4c0.8,0.8,0.8,1.6,0,1.6
		c-1.6,0-1.6-2.4-2.4-2.4v5.6h-2.4l0,0V236c-0.8,0-0.8,0-1.6,0v4c0,0-0.8-1.6-2.4-1.6v0.8v11.2c0.8,0,2.4,1.6,2.4,3.2v12
		c0,1.6-1.6,2.4-2.4,3.2H184v3.2h13.6l0,0h-16v4.8h-4v6.4h20l0,0h-24v7.2h-4v7.2h156v-7.2H321.6z M304.8,264.8L304.8,264.8
		L304.8,264.8L304.8,264.8z M302.4,247.2L302.4,247.2v0.8V247.2z M299.2,248h4l0,0h-0.8H299.2L299.2,248z M193.6,238.4h-2.4l0,0l0,0
		l0,0H193.6L193.6,238.4z M196.8,248.8h-3.2l0,0l0,0H196.8L196.8,248.8z M208.8,248h4l0,0l0,0l0,0l0,0l0,0H212H208.8L208.8,248z
		 M208,272h35.2l0,0H208L208,272z M243.2,283.2H208l0,0H243.2L243.2,283.2z M244,232.8L244,232.8L244,232.8L244,232.8L244,232.8z
		 M252,232.8L252,232.8L252,232.8L252,232.8L252,232.8z M284,248L284,248h3.2l0,0H284L284,248C283.2,248.8,283.2,248,284,248
		L284,248z M288,283.2h-36l0,0H288L288,283.2z M288,272h-36l0,0H288L288,272z"/>
	<polygon style="fill:#FFFFFF;" points="252.8,205.6 252.8,203.2 243.2,203.2 243.2,205.6 	"/>
	<polygon style="fill:#FFFFFF;" points="252,203.2 252,201.6 244,201.6 244,203.2 	"/>
	<polygon style="fill:#FFFFFF;" points="250.4,201.6 250.4,200 245.6,200 245.6,201.6 	"/>
</g>
<g>
	<path style="fill:#CECECE;" d="M231.2,232v2.4l1.6,1.6v-1.6C232.8,233.6,232.8,232,231.2,232z"/>
	<path style="fill:#CECECE;" d="M321.6,283.2h-24l0,0h20v-6.4h-4V272h-16l0,0H312v-4h-3.2c-0.8-0.8-2.4-1.6-2.4-3.2l0,0v-12
		c0.8-1.6,1.6-3.2,2.4-3.2v-11.2c-1.6,0-2.4,1.6-2.4,1.6l0,0v-4.8c-0.8,0-0.8,0-1.6,0v9.6l0,0v-6.4h-2.4l0,0h2.4v-1.6h-2.4v-5.6
		c-0.8,0-0.8,2.4-2.4,2.4c-0.8,0-0.8-0.8,0-1.6s0.8-1.6,0-4c-0.8,1.6-1.6,1.6-1.6,0.8c0.8-1.6,1.6-1.6,0.8-4c0,2.4-1.6,2.4-1.6,0.8
		c0-1.6,0.8-1.6,0-4c-0.8,2.4-1.6,2.4-1.6,0.8c0-2.4,0-4-2.4-4.8c0,0,0-1.6-0.8-1.6s-0.8,1.6-0.8,1.6c-2.4,0.8-2.4,3.2-2.4,4.8
		s-0.8,1.6-1.6-0.8c-0.8,1.6,0,2.4,0,4s-0.8,1.6-1.6-0.8c-0.8,2.4,0,2.4,0.8,4c0,0.8-0.8,0.8-1.6-0.8c-0.8,1.6,0,3.2,0,4
		c0.8,0.8,0.8,1.6,0,1.6c-1.6,0-1.6-2.4-2.4-2.4v9.6h-0.8H280V240c0,0-0.8,0-1.6,0v0.8H264V232c-1.6,0.8-1.6,1.6-1.6,1.6v7.2l0,0
		v-5.6h-1.6c0,0-0.8,0-0.8-1.6s0.8-2.4,1.6-2.4V228c0,0-3.2,0-3.2,4v-3.2c-0.8,0-0.8,0.8-0.8,4h-0.8v-3.2c0-1.6,1.6-1.6,1.6-3.2
		c0,0,0-1.6,0-2.4c-0.8,2.4-1.6,1.6-1.6,0.8s0.8-1.6,2.4-4c0.8-0.8,0-2.4-0.8-3.2c0,1.6-0.8,2.4-1.6,2.4c-0.8,0-0.8,0-0.8-1.6
		c0-0.8,0.8-1.6,0.8-3.2c0.8-1.6,0-2.4-0.8-3.2c0,1.6,0,2.4-0.8,2.4c-1.6-0.8,0-3.2,0-3.2c0-0.8-0.8-2.4-0.8-2.4
		c-0.8,1.6-0.8,1.6-1.6,1.6c-0.8,0-0.8-1.6,0-2.4c0.8-0.8,0.8-1.6,0-1.6c-0.8,1.6-1.6,0.8-1.6,0l0.8-2.4h-10.4l0.8,2.4
		c0,0.8-0.8,0.8-1.6,0c-0.8,0.8-0.8,1.6,0,1.6c0.8,0.8,0.8,1.6,0,2.4c-0.8,0-0.8,0-1.6-1.6c0,0-0.8,1.6-0.8,2.4c0,0.8,1.6,3.2,0,3.2
		c-0.8,0-0.8-0.8-0.8-2.4c-0.8,0.8-0.8,1.6-0.8,3.2c0,0.8,0.8,1.6,0.8,3.2c0,0.8-0.8,1.6-0.8,1.6c-0.8,0-0.8-0.8-1.6-2.4
		c-0.8,0.8-0.8,3.2-0.8,3.2c1.6,2.4,2.4,3.2,2.4,4s-0.8,1.6-1.6-0.8c-0.8,0.8,0,2.4,0,2.4c0,1.6,1.6,1.6,1.6,3.2v3.2H236
		c0-3.2,0-4-0.8-4v3.2c0-3.2-3.2-3.2-3.2-3.2v3.2c0.8,0,1.6,0.8,1.6,2.4s-0.8,1.6-0.8,1.6h-1.6l0,0l42.4,36.8H288l0,0h-12l31.2,26.4
		h19.2V292h-4v-8.8H321.6z M302.4,247.2L302.4,247.2v0.8V247.2z M299.2,248h4l0,0h-0.8H299.2L299.2,248z M287.2,248.8H284h-0.8l0,0
		l0,0l0,0H287.2L287.2,248.8z"/>
	<path style="fill:#CECECE;" d="M248,197.6c-1.6,0-1.6,2.4-1.6,2.4h2.4C249.6,200,249.6,197.6,248,197.6z"/>
	<polygon style="fill:#CECECE;" points="243.2,203.2 243.2,205.6 252.8,205.6 252.8,203.2 	"/>
	<polygon style="fill:#CECECE;" points="252,203.2 252,201.6 244,201.6 244,203.2 	"/>
	<polygon style="fill:#CECECE;" points="250.4,201.6 250.4,200 245.6,200 245.6,201.6 	"/>
</g>
<g>
</g>
<g>
</g>
<g>
</g>
<g>
</g>
<g>
</g>
<g>
</g>
<g>
</g>
<g>
</g>
<g>
</g>
<g>
</g>
<g>
</g>
<g>
</g>
<g>
</g>
<g>
</g>
<g>
</g>
</svg>
