<?xml version="1.0" encoding="iso-8859-1"?>
<!-- Generator: Adobe Illustrator 19.0.0, SVG Export Plug-In . SVG Version: 6.00 Build 0)  -->
<svg version="1.1" id="Capa_1" xmlns="http://www.w3.org/2000/svg" xmlns:xlink="http://www.w3.org/1999/xlink" x="0px" y="0px"
	 viewBox="0 0 496 496" style="enable-background:new 0 0 496 496;" xml:space="preserve">
<path id="SVGCleanerId_0" style="fill:#3A75C4;" d="M0,334.8V370c0,27.2,21.6,48.8,48,48.8h400c26.4,0,48-21.6,48-48.8v-35.2H0z"/>
<path style="fill:#FFC61E;" d="M448,77.2H48C21.6,77.2,0,98.8,0,126v35.2h496V126C496,98.8,474.4,77.2,448,77.2z"/>
<rect x="0" y="160.4" style="fill:#FFFFFF;" width="496" height="88"/>
<rect x="0" y="247.6" style="fill:#CE1126;" width="496" height="88"/>
<g>
	<path id="SVGCleanerId_0_1_" style="fill:#3A75C4;" d="M0,334.8V370c0,27.2,21.6,48.8,48,48.8h400c26.4,0,48-21.6,48-48.8v-35.2H0z
		"/>
</g>
<path style="fill:#2B6BB2;" d="M448,418c26.4,0,48-21.6,48-48.8V334H350.4L448,418z"/>
<path style="fill:#E8BB00;" d="M448,77.2H48l98.4,84H496V126C496,98.8,474.4,77.2,448,77.2z"/>
<polygon style="fill:#EAE9E5;" points="248,247.6 496,247.6 496,160.4 145.6,160.4 "/>
<polygon style="fill:#B20922;" points="350.4,334.8 496,334.8 496,247.6 248,247.6 "/>
<path style="fill:#D1AA02;" d="M448,77.2H48l272.8,84H496V126C496,98.8,474.4,77.2,448,77.2z"/>
<polygon style="fill:#DBD9D2;" points="496,214 496,160.4 318.4,160.4 "/>
<path style="fill:#2268A8;" d="M496,369.2c0,27.2-21.6,48.8-48,48.8H48c-26.4,0-48-21.6-48-48.8"/>
<path style="fill:#3D8E33;" d="M232,247.6L2.4,110C0.8,114.8,0,120.4,0,126v34.4v0.8v86.4l0,0V334v0.8v34.4c0,5.6,0.8,10.4,2.4,16
	L232,247.6z"/>
<g>
	<path style="fill:#FFFFFF;" d="M44,247.6c0-29.6,20.8-54.4,48.8-60.8c-4.8-0.8-8.8-1.6-13.6-1.6c-35.2,0-63.2,28-63.2,62.4
		S44,310,78.4,310c4.8,0,9.6-0.8,13.6-1.6C64.8,302,44,277.2,44,247.6z"/>
	<polygon style="fill:#FFFFFF;" points="90.4,199.6 81.6,199.6 88.8,204.4 85.6,212.4 92.8,207.6 99.2,212.4 96.8,204.4 104,199.6 
		95.2,199.6 92.8,191.6 	"/>
	<polygon style="fill:#FFFFFF;" points="92.8,221.2 90.4,229.2 81.6,229.2 88.8,234 85.6,242 92.8,237.2 99.2,242 96.8,234 
		104,229.2 95.2,229.2 	"/>
	<polygon style="fill:#FFFFFF;" points="92.8,250.8 90.4,258.8 81.6,258.8 88.8,263.6 85.6,271.6 92.8,266.8 99.2,271.6 96.8,263.6 
		104,258.8 95.2,258.8 	"/>
	<polygon style="fill:#FFFFFF;" points="95.2,289.2 92.8,280.4 90.4,289.2 81.6,289.2 88.8,294 85.6,302 92.8,297.2 99.2,302 
		96.8,294 104,289.2 	"/>
</g>
<g>
</g>
<g>
</g>
<g>
</g>
<g>
</g>
<g>
</g>
<g>
</g>
<g>
</g>
<g>
</g>
<g>
</g>
<g>
</g>
<g>
</g>
<g>
</g>
<g>
</g>
<g>
</g>
<g>
</g>
</svg>
