<?xml version="1.0" encoding="iso-8859-1"?>
<!-- Generator: Adobe Illustrator 19.0.0, SVG Export Plug-In . SVG Version: 6.00 Build 0)  -->
<svg version="1.1" id="Capa_1" xmlns="http://www.w3.org/2000/svg" xmlns:xlink="http://www.w3.org/1999/xlink" x="0px" y="0px"
	 viewBox="0 0 496 496" style="enable-background:new 0 0 496 496;" xml:space="preserve">
<path style="fill:#F7E017;" d="M496,369.6c0,27.2-21.6,48.8-48,48.8H48c-26.4,0-48-21.6-48-48.8V126.4c0-27.2,21.6-48.8,48-48.8h400
	c26.4,0,48,21.6,48,48.8V369.6z"/>
<path style="fill:#E5C505;" d="M48,77.6h400c26.4,0,48,21.6,48,48.8v243.2c0,27.2-21.6,48.8-48,48.8"/>
<g>
	<path style="fill:#E5BA05;" d="M496,369.6c0,27.2-21.6,48.8-48,48.8H48c-26.4,0-48-21.6-48-48.8"/>
	<path style="fill:#E5BA05;" d="M48,77.6h400c26.4,0,48,21.6,48,48.8v88.8L48,77.6z"/>
</g>
<path style="fill:#3A3A3A;" d="M0,201.6v75.2L494.9,380c0.8-4,1.1-7.2,1.1-10.4v-64.8L0,201.6z"/>
<path d="M372,354.4L494.9,380c0.8-3.2,1.1-7.2,1.1-10.4v-64.8L256.7,255L372,354.4z"/>
<path style="fill:#FFFFFF;" d="M496,304.8V220L0.9,116.8C0.3,120,0,123.2,0,126.4v75.2L496,304.8z"/>
<polygon style="fill:#D8D8D8;" points="256.7,255 496,304.8 496,220 124,142.4 "/>
<path style="fill:#840019;" d="M252.181,174.901c0.022-6.414,0.05-12.829,0.059-19.243c0.001-0.746,0.194-1.564-0.422-2.183
	c-0.573-0.575-1.211-1.227-0.284-1.869c1.048-0.726,2.309-0.936,3.569-0.527c0.697,0.226,1.589,0.315,1.69,1.291
	c0.086,0.828-0.922,0.898-1.23,1.65c3.854,2.003,7.722,4.014,11.859,6.164c-2.396,1.623-5.124,1.582-7.431,2.989
	c1.658,2.268,3.286,4.494,4.914,6.721c-0.086,0.138-0.171,0.276-0.257,0.414c-3.021-1.448-6.043-2.897-9.404-4.508
	c0,3.534,0,6.659,0,9.784c0.333,1.679-0.863,1.712-1.902,1.585C252.013,177.005,251.607,176.15,252.181,174.901z"/>
<path style="fill:#CF0821;" d="M189.605,315.394c2.862-6.65,7.561-7.722,13.054-3.058c3.197,2.715,6.018,5.885,9.668,8.057
	c5.34,2.549,10.12,6.092,15.647,8.362c11.671,4.795,23.677,5.705,35.999,3.808c1.703-0.262,3.428-0.155,5.106-0.54
	c8.419-1.623,15.802-5.582,22.898-10.179c3.951-2.56,7.405-5.743,10.967-8.794c3.445-2.95,7.104-3.382,9.89-1.268
	c3.15,2.39,3.733,6.052,1.666,10.31c-0.234,0.483-0.721,0.918-0.438,1.629c1.272,0.418,2.363-0.416,3.521-0.688
	c2.549-0.599,4.961-0.323,7.247,0.852c3.374,1.734,4.276,4.27,2.425,7.575c-1.111,1.983-0.941,2.9,1.383,3.156
	c1.625,0.179,2.94,0.961,3.718,2.39c0.781,1.433,1.651,3.215,0.569,4.563c-0.824,1.026-2.236-0.326-3.353-0.655
	c-5.229-1.538-10.409-2.384-15.515,0.404c-3.663,0.65-6.227,3.154-8.94,5.366c-2.396,1.953-4.96,3.108-8.14,2.668
	c-3.905-0.541-5.018-1.766-5.015-5.785c0-0.473,0-0.945,0-1.643c-3.223,1.038-5.376,3.818-8.61,4.392l-0.173-0.224l0.204,0.196
	c-4.445,2.804-9.509,3.824-14.528,4.84c-14.512,2.938-28.875,2.875-42.911-2.55c-3.744-1.447-7.155-3.53-10.732-5.804
	c-0.147,0.669-0.263,1.005-0.289,1.348c-0.377,4.897-3.363,7.092-8.184,5.974c-3.257-0.755-5.867-2.669-8.48-4.646
	c-4.642-3.511-9.59-6.29-15.717-6.094c-2.843,0.091-5.493,0.794-7.974,2.084c-1.763,0.916-2.214,0.31-2.094-1.413
	c0.222-3.186,2.473-4.604,5.031-5.64c1.427-0.578,1.901-1.102,1.19-2.719c-1.597-3.633-0.338-6.306,3.353-7.741
	c2.234-0.868,3.05-0.833,10.599,0.527C191.048,321.437,189.002,318.787,189.605,315.394z"/>
<path style="fill:#CE0921;" d="M151.249,307.34c-0.394-2.726,1.175-2.883,3.127-2.279c1.991,0.616,3.892,1.54,5.899,2.078
	c4.377,1.173,8.672,0.394,12.908-0.882c0.818-0.246,1.615-0.583,2.448-0.757c0.815-0.171,1.819-0.46,2.282,0.533
	c0.496,1.064-0.239,1.848-1.047,2.377c-1.858,1.217-4.005,1.702-6.134,2.198c-0.447,0.104-0.964,0.012-1.224,0.532
	C163.134,311.256,156.786,311.248,151.249,307.34z"/>
<g>
	<path style="fill:#CF0821;" d="M195.16,244.759c-1.225,0.784-0.854,2.043-0.847,3.129c0.182,31.485,23.101,54.363,48.398,59.723
		c21.936,4.648,55.242-9.046,64.694-38.342c0.115-0.356,0.102-0.754,0.149-1.133c4.401-14.104,4.029-28.044-1.436-41.808
		c-0.304-0.766-0.633-1.522-1.223-2.932c2.12,1.419,3.183,2.853,4.202,4.294c8.291,11.722,11.535,24.835,10.717,39.062
		c-0.077,1.333-0.072,2.671-0.107,4.007c-1.455,9.61-4.018,18.858-9.019,27.294c-10.666,17.993-26,29.196-46.943,32.223
		c-0.405,0.927-1.244,1.1-2.116,1.22c-16.398,2.274-31.517-1.305-45.53-9.948c-0.25-0.154-0.4-0.404-0.55-0.648
		c0.081-1.267-1.072-1.48-1.791-2.001c-8.385-6.069-14.815-13.799-19.58-22.95c-0.611-1.174-1.405-2.292-1.398-3.705
		c1.317,0.013,1.995,0.984,2.734,1.847c0.758,0.884,1.63,1.617,2.72,2.032c1.555,0.592,2.442-0.077,2.545-1.638
		c0.095-1.44-0.699-3.286,1.824-3.325c2.07-0.033,3.876,1.646,4.2,3.818c0.032,0.216-0.144,0.527,0.254,0.593
		c0.128-2.652-3.664-5.596-5.941-4.604c-1.123,0.489-0.876,1.572-1.008,2.482c-0.134,0.921,0.038,2.071-1.09,2.431
		c-1.121,0.358-1.995-0.367-2.776-1.099c-3.575-3.348-3.581-8.81-0.016-11.416c-2.207,1.216-3.367,3.249-3.251,5.774
		c0.047,1.031,0.456,2.078-0.207,3.058c-3.142-5.037-4.277-10.762-5.307-16.447c-1.964-10.843-1.603-21.651,1.369-32.316
		c2.979-8.564,6.017-13.931,10.23-17.65c-1.722,4.943-3.367,9.372-3.971,14.051C194.88,241.45,194.001,243.139,195.16,244.759z"/>
	<path style="fill:#CF0821;" d="M310.586,208.343c-6.453,1.174-12.524,0.164-18.348-2.842c-3.077-1.588-5.81-3.681-8.738-5.48
		c-9.134-5.612-19.819-5.207-27.429,1.261v-10.199c-1.66,2.017-3.093,1.824-4.767,0.563v10.461
		c-5.668-6.001-12.304-6.602-19.381-5.343c-4.434,0.789-8.256,2.918-11.847,5.53c-6.603,4.802-13.724,7.956-22.151,6.97
		c-1.506-0.176-3.016-0.316-4.594-0.479c2.132,6.835,8.214,10.026,14.672,7.638c3.486-1.289,6.807-3.018,10.256-4.415
		c1.543-0.625,3.181-1.421,5.432-0.346c-2.891,0.887-5.419,1.351-7.713,2.509c-3.24,1.636-6.468,3.372-10.018,4.206
		c-2.497,0.586-1.824,1.682-0.7,2.874c1.478,1.568,3.435,2.014,5.518,1.88c2.157-0.139,4.017-1.122,5.819-2.224
		c1.088-0.492,2.141-1.059,3.183-1.63c-0.919,0.608-1.786,1.329-2.548,2.25c-0.419,0.376-0.869,0.723-1.249,1.135
		c-0.67,0.727-2.376,0.885-2.017,2.043c0.41,1.322,1.705,2.237,3.181,2.578c0.456,0.105,0.944,0.063,1.414,0.117
		c3.641,0.415,6.314-1.545,8.937-3.631c0.832-0.411,1.613-0.901,2.372-1.414c-0.668,0.548-1.273,1.187-1.725,2.025
		c-0.613,0.597-1.258,1.164-1.83,1.797c-0.703,0.777-2.293,1.025-1.745,2.582c0.496,1.407,1.722,2.052,3.077,2.286
		c0.916,0.158,1.914,0.117,2.831-0.06c3.304-0.636,5.983-2.423,8.358-4.737c2.228-2.171,4.482-4.316,6.725-6.472
		c-0.234,2.135-2.475,3.253-2.329,5.368c0.246,3.552,3.117,1.723,4.858,2.17c0.252,0.921-0.485,1.417-0.795,2.079
		c-1.198,2.559-0.48,5.19,1.731,6.877c0.995,0.76,1.541,0.734,2.187-0.392c1.203-2.096,2.65-2.431,4.112-0.223
		c0.892,1.347,1.731,1.079,2.765,0.167c1.996-1.76,2.43-4.017,1.168-6.447c-0.342-0.658-1.027-1.166-0.924-2.027
		c5.567-0.236,5.567-0.236,3.01-7.068c1.531,1.165,2.917,2.507,4.297,3.854c2.68,2.616,5.405,5.179,9.139,6.233
		c1.956,0.552,3.959,0.892,5.849-0.189c2.029-1.161,2.119-2.414,0.397-3.916c-0.983-0.858-1.951-1.734-2.923-2.605
		c-2.152-1.58-4.371-2.667-6.971-3.371c-1.335-0.361-0.768-2.433,0.571-2.071c2.876,0.778,8.301,4.978,7.958,5.44
		c0.981,0.727,1.964,1.451,2.984,2.118c2.39,1.562,4.962,1.899,7.609,0.71c2.726-1.224,2.86-2.436,0.568-4.389
		c-0.675-0.77-1.409-1.433-2.171-2.034c0.891,0.576,1.815,1.093,2.864,1.386c4.346,1.677,7.945,1.343,9.859-0.965
		c1.055-1.272,1.696-2.264-0.804-2.806c-6.016-1.306-11.049-5.224-17.093-6.586c2.889-0.572,5.372,0.567,7.852,1.656
		c2.62,1.151,5.099,2.623,7.901,3.353c6.46,1.685,12.37-1.709,13.573-7.834C312.053,207.83,311.296,208.214,310.586,208.343z
		 M222.344,217.903c1.599-0.819,3.208-1.516,4.903-1.821C225.679,216.669,223.983,217.19,222.344,217.903z M231.458,221.249
		c1.076-0.763,2.133-1.499,3.244-2.042C233.763,219.989,232.592,220.571,231.458,221.249z M284.824,217.681
		c0.397,0.181,0.776,0.394,1.149,0.617c-1.976-1.082-4.042-1.838-5.967-2.478C281.262,216.134,283.04,216.867,284.824,217.681z"/>
</g>
<path style="fill:#840019;" d="M290.821,222.094c-4.298-2.757-8.526-5.659-13.614-6.846c5.563,0.194,10.179,2.615,14.308,6.198
	c4.346,1.677,7.945,1.343,9.859-0.965c1.055-1.272,1.696-2.264-0.804-2.806c-6.016-1.306-11.049-5.224-17.093-6.586
	c2.889-0.572,5.372,0.567,7.852,1.656c2.62,1.151,5.099,2.623,7.901,3.353c6.46,1.685,12.37-1.709,13.573-7.834
	c-0.751-0.434-1.508-0.05-2.217,0.079c-6.453,1.174-12.524,0.164-18.348-2.842c-3.077-1.588-5.81-3.681-8.738-5.48
	c-9.134-5.612-19.819-5.207-27.429,1.261c0-3.341,0-6.418,0-10.199c-1.66,2.017-3.093,1.824-4.767,0.563c0,3.576,0,6.694,0,10.461
	c-5.668-6.001-12.304-6.602-19.381-5.343c-4.434,0.789-8.256,2.918-11.847,5.53c-5.325,3.872-10.987,6.669-17.397,7.091l7.32,6.237
	c2.771-1.154,5.476-2.487,8.261-3.615c1.543-0.625,3.181-1.421,5.432-0.346c-2.891,0.887-5.419,1.351-7.713,2.509
	c-1.614,0.815-3.224,1.654-4.873,2.395l5.259,4.481c0.078-0.047,0.156-0.092,0.233-0.139c3.689-3.145,7.836-5.219,12.839-5.344
	c-4.288,1.565-8.417,3.424-12.204,5.963c-0.049,0.044-0.101,0.087-0.151,0.131l5.913,5.038c1.615-0.698,3.07-1.786,4.505-2.927
	c2.474-2.559,5.349-4.478,9.019-5.191c-2.791,1.934-5.581,3.868-8.372,5.802c-0.613,0.597-1.258,1.164-1.83,1.797
	c-0.561,0.62-1.671,0.914-1.823,1.795l3.679,3.135c0.765,0.07,1.562,0.022,2.308-0.121c3.304-0.636,5.983-2.423,8.358-4.737
	c2.228-2.171,4.482-4.316,6.725-6.472c-0.234,2.135-2.475,3.253-2.329,5.368c0.246,3.552,3.117,1.723,4.858,2.17
	c0.252,0.921-0.485,1.417-0.795,2.079c-1.198,2.559-0.48,5.19,1.731,6.877c0.995,0.76,1.541,0.734,2.187-0.392
	c1.203-2.096,2.65-2.431,4.112-0.223c0.892,1.347,1.731,1.079,2.765,0.167c1.996-1.76,2.43-4.017,1.168-6.447
	c-0.342-0.658-1.027-1.166-0.924-2.027c5.567-0.236,5.567-0.236,3.01-7.068c1.531,1.165,2.917,2.507,4.297,3.854
	c2.68,2.616,5.405,5.179,9.139,6.233c1.956,0.552,3.959,0.892,5.849-0.189c2.029-1.161,2.119-2.414,0.397-3.916
	c-1.149-1.003-2.278-2.029-3.417-3.044c-2.23-1.393-4.459-2.785-6.689-4.178c3.165-0.282,5.169,1.812,7.333,3.58l0,0l0,0
	c1.461,1.056,2.884,2.169,4.392,3.154c2.39,1.562,4.962,1.899,7.609,0.71C292.979,225.259,293.114,224.047,290.821,222.094z"/>
<g>
	<path style="fill:#CF0821;" d="M333.352,295.203c-1.438-0.842-1.616-2.168-1.578-3.691c0.151-6.087,0.582-12.172,0.272-18.266
		c0.073-5.046,0.294-10.096,0.166-15.138c-0.078-3.073,1.035-5.432,3.352-7.167c4.456-3.338,8.394-7.164,11.746-11.602
		c0.171-0.227,0.366-0.441,0.576-0.634c0.965-0.885,2.123-1.485,3.38-0.993c1.368,0.536,0.369,1.859,0.621,2.791
		c-0.187,0.841-0.666,1.568-0.916,2.386c-0.408,0.929-1.024,1.736-1.503,2.623c-0.7,1.227-1.2,2.532-1.521,3.906
		c-0.256,1.413-0.88,2.733-1.088,4.184c0.859-0.045,1.017-0.9,1.573-1.256c0.847-0.791,1.774-1.491,2.623-2.282
		c0.221-0.145,0.458-0.256,0.707-0.342c1.593-0.298,2.756-1.406,4.088-2.188c0.733-0.437,1.363-0.976,1.721-1.779
		c0.405-0.791,0.413-1.657,0.478-2.513c0.036-0.398,0.123-0.783,0.258-1.159c1.044-2.378,2.35-4.599,3.978-6.625
		c0.928-1.168,0.109-2.51,0.37-3.748c0.21-0.994,0.345-2.002,1.131-2.751c0.786-1.604,1.539-4.401,3.114-3.949
		c2.108,0.605,0.895,3.321,0.732,5.076c-0.471,5.044-1.384,10.024-2.634,14.947c-1.095,4.31-3.236,7.925-6.547,10.87
		c-0.429,0.381-0.787,0.864-1.263,1.167c-7.455,4.747-8.468,11.93-7.549,19.853c-0.05,4.913-0.114,9.827-0.133,14.742
		c-0.004,1.139,0.078,2.249-1.204,2.811c-3.431,3.306-7.467,3.591-11.806,2.367C335.39,296.413,334.058,296.404,333.352,295.203z"/>
	<path style="fill:#CF0821;" d="M157.407,294.644c-1.523-0.669-1.138-2.032-1.147-3.228c-0.052-7.356-0.106-14.712-0.119-22.068
		c-0.007-3.644-1.072-6.92-4.09-9.026c-9.286-6.483-12.482-15.973-13.571-26.586c-0.029-0.284-0.098-0.564-0.148-0.845
		c-0.164-1.897-0.353-3.791-0.479-5.691c-0.056-0.85-0.172-1.992,0.707-2.307c1.096-0.393,1.592,0.805,2.101,1.531
		c0.539,0.768,0.861,1.687,1.279,2.541c0.458,0.439,0.607,1.005,0.666,1.607c0.087,1.249-0.071,2.526,0.416,3.73
		c0.326,1.475,1.562,2.426,2.172,3.736c1.548,2.134,1.906,4.771,3,7.098c0.145,0.218,0.263,0.449,0.364,0.69
		c0.642,1.997,2.524,2.466,4.094,3.316c2.226,1.093,4.168,2.568,6.062,4.668c0.153-1.312-0.387-2.186-0.626-3.107
		c-0.331-1.475-0.728-2.927-1.415-4.284c-0.736-1.554-1.789-2.925-2.52-4.484c-0.675-1.44-0.949-2.84-0.051-4.278
		c1.906-0.347,3.342,0.388,4.491,1.883c3.284,4.272,7.058,8.025,11.423,11.226c2.412,1.769,3.537,4.221,3.535,7.424
		c-0.006,11.005,0.234,22.01,0.415,33.014c0.026,1.587,0.032,3.089-1.571,4c-0.858,0.927-2.029,1.245-3.167,1.632
		C164.922,298.079,160.914,297.707,157.407,294.644z"/>
	<path style="fill:#CF0821;" d="M260.881,258.399c-0.38,2.328-0.043,4.826-1.438,6.915c-1.49,2.232-2.37,2.161-3.982-0.181
		c-1.973-2.867-2.644-2.874-4.736-0.048c-1.582,2.137-3.016,2.001-4.167-0.631c-1.274-2.914-0.788-5.981-0.259-9.002
		c0.452-1.253,0.836-2.538,1.372-3.754c2.153-4.886,1.535-9.275-2.217-13.157c-0.316-0.327-0.556-0.727-0.981-1.294
		c2.979-0.928,4.568,0.982,6.294,2.499c1.14-0.712,0.736-1.901,1.061-2.819c0.232-0.654,0.583-1.372,1.282-1.39
		c0.75-0.019,1.149,0.779,1.178,1.411c0.169,3.698,1.527,2.813,3.318,0.967c0.428-0.441,1.158-0.689,1.79-0.807
		c0.705-0.131,1.607-0.37,2.051,0.483c0.39,0.751-0.305,1.229-0.733,1.697c-3.194,3.497-3.605,7.465-1.846,11.693
		C259.867,253.384,260.257,255.915,260.881,258.399z"/>
</g>
<path style="fill:#CE0821;" d="M142.493,234.582c-0.936-1.213-0.518-2.619-0.564-3.958c0.439-0.078,0.692,0.124,0.803,0.537
	c0.182-0.247-0.028-0.459-0.11-0.638c-0.336-0.73,0.255-1.48-0.086-2.196c-0.016-1.027-0.948-2.486,0.711-2.832
	c1.35-0.282,1.787,1.095,2.185,2.161c0.23,0.615,0.41,1.248,0.613,1.874c1.22,1.368,1.15,3.075,1.251,4.736
	c-0.027,0.93,0.503,1.582,1.078,2.233c0.88,0.996,1.765,2.049,2.226,3.273c1.21,3.213,2.631,6.139,5.919,7.836
	c1.296,0.668,1.674,2.225,1.825,3.687c-0.343,1.124-1.023,0.818-1.732,0.411c-1.29-0.741-2.483-1.643-3.818-2.31
	c-1.593-1.178-3.937-1.442-4.588-3.767l0.034,0.054c-1.107-2.519-1.652-5.271-3.168-7.619
	C144.408,236.759,143.339,235.754,142.493,234.582z"/>
<path style="fill:#D00B24;" d="M351.677,250.288l-0.237-0.06c-1.113,0.615-2.053,1.527-3.295,1.921
	c-1.216-0.442-0.618-1.417-0.651-2.207c0.409-1.063,1.101-1.941,1.831-2.795c3.227-1.111,4.603-3.72,5.449-6.757
	c0.878-1.586,1.905-3.071,3.034-4.486c1.39-1.906,0.092-4.619,1.919-6.39c0.195-0.628,0.359-1.267,0.59-1.88
	c0.401-1.063,0.842-2.437,2.2-2.143c1.647,0.358,0.691,1.828,0.72,2.851c-0.271,2.296-0.399,4.604-0.554,6.909
	c-1.615,2.204-3.443,4.29-4.001,7.093c0.007,0.313,0.014,0.626,0.021,0.939c-0.788,0.614-0.459,1.658-0.922,2.399
	c-0.461,0.804-1.091,1.444-1.873,1.937C354.522,248.549,353.063,249.362,351.677,250.288z"/>
<path style="fill:#CE0C24;" d="M151.133,235.831c0.057,1.418,0.906,2.443,1.725,3.484c1.129,2.255,3.14,4.138,2.938,6.957
	c-2.077,0.053-3.366-0.88-3.843-2.951c-0.772-3.353-3.292-5.732-4.886-8.631c-0.581-2.102-0.218-4.279-0.516-6.403
	c0.058-1.763,0.68-2.365,2.154-0.994c0.989,0.92,1.411,2.191,1.924,3.396c1.334,1.221,1.309,2.755,1.006,4.354
	C151.509,235.33,151.341,235.593,151.133,235.831z"/>
<path style="fill:#D10F27;" d="M352.271,240.46c0.729-1.052,1.521-2.07,1.845-3.345c0.055-2.186-0.989-4.54,0.986-6.431
	c0.529-1.197,0.938-2.478,1.933-3.393c1.435-1.32,2.129-0.885,2.131,0.981c-0.113,2.523-0.121,5.059-1.017,7.474
	c-1.268,1.329-2.231,2.877-3.136,4.464c-0.269,0.49-0.593,1.003-0.674,1.524c-0.433,2.773-2.106,4.408-4.644,5.313
	c-1.186-0.058-0.898-0.695-0.536-1.361c0.565-0.854,1.229-1.647,1.668-2.585C351.233,242.179,351.5,241.182,352.271,240.46z"/>
<path style="fill:#D0122A;" d="M151.133,235.831c-0.03-0.113-0.036-0.228-0.02-0.344c0.653-1.832,0.057-3.681,0.072-5.522
	c0.112-0.901-1.167-2.17,0.394-2.641c1.361-0.411,1.583,1.006,1.969,1.895c0.984,2.268,1.207,4.708,1.487,7.129
	C153.619,237.052,152.327,236.807,151.133,235.831z"/>
<path style="fill:#D21930;" d="M353.626,236.482c-1.706,0.94-2.819,0.371-2.738-1.499c0.084-1.958,0.437-3.947,1.296-5.767
	c0.417-0.882,0.612-2.316,1.987-1.901c1.571,0.474,0.278,1.755,0.408,2.659C354.06,232.114,354.972,234.463,353.626,236.482z"/>
<path style="fill:#F9E4E6;" d="M290.821,222.094c-4.298-2.757-8.526-5.659-13.614-6.846c5.563,0.194,10.179,2.615,14.308,6.198
	C291.283,221.662,291.052,221.878,290.821,222.094z"/>
<path style="fill:#F8E1E4;" d="M216.596,220.906c3.689-3.145,7.836-5.219,12.839-5.344c-4.288,1.565-8.417,3.424-12.204,5.963
	C217.02,221.319,216.808,221.113,216.596,220.906z"/>
<path style="fill:#F8DFE2;" d="M227.498,223.768c2.474-2.559,5.349-4.478,9.019-5.191c-2.79,1.934-5.581,3.868-8.372,5.802
	C227.93,224.175,227.714,223.971,227.498,223.768z"/>
<path style="fill:#F7D8DB;" d="M362.2,235.461c0.586-2.338-0.364-4.899,1.036-7.119c0.184,0.206,0.367,0.413,0.551,0.619
	c-0.956,2.212,0.772,4.85-1.099,6.916C362.227,236.088,362.069,235.944,362.2,235.461z"/>
<path style="fill:#F5D1D5;" d="M357.677,235.934c1.314-2.395,0.207-5.261,1.489-7.662c0.186,0.414,0.373,0.828,0.559,1.242
	c-0.112,1.672-0.267,3.343-0.321,5.016c-0.031,0.966-0.402,1.593-1.311,1.902C357.872,236.336,357.737,236.167,357.677,235.934z"/>
<path style="fill:#F2C3C8;" d="M142.536,228.326c0.765,1.701,1.261,3.419,0.448,5.609c-1.119-1.123-0.346-2.46-1.055-3.311
	c0.003-0.554,0.006-1.107,0.009-1.66C142.138,228.751,142.337,228.539,142.536,228.326z"/>
<path style="fill:#FCF5F6;" d="M353.626,236.482c0.64-2.122-0.233-4.465,0.954-6.507c0.174,0.236,0.348,0.473,0.522,0.709
	c-0.662,2.092,0.298,4.434-0.986,6.43C353.953,236.904,353.79,236.693,353.626,236.482z"/>
<path style="fill:#F8ECEE;" d="M146.551,228.285c1,2.049,0.637,4.263,0.781,6.416c-0.289,0.292-0.57,0.405-0.827-0.036
	c-0.153-1.712-0.307-3.424-0.46-5.136C146.213,229.114,146.382,228.7,146.551,228.285z"/>
<path style="fill:#F2EAEB;" d="M151.186,229.965c0.639,1.849,1.396,3.7-0.073,5.521c-0.161-1.6-0.323-3.2-0.485-4.8
	C150.814,230.446,151,230.206,151.186,229.965z"/>
<path style="fill:#FDF9F9;" d="M352.271,240.46c0.158,1.17-0.603,1.976-1.135,2.873c-0.506,0.079-0.844,0.01-0.551-0.621
	c0.248-0.846,0.293-1.812,1.303-2.208C352.014,240.482,352.142,240.467,352.271,240.46z"/>
<path style="fill:#F6DF0F;" d="M215.549,320.899c1.456,0.203,2.691,0.921,3.947,1.628c12.096,6.813,24.993,9.953,38.891,8.346
	c1.785-0.206,3.65,0.282,5.358-0.6c1.434,1.627,3.59,1.055,5.331,1.75c-7.666,2.7-15.648,2.75-23.529,2.008
	c-11.65-1.096-22.23-5.438-31.737-12.302c-0.536-0.387-0.99-0.888-1.483-1.336C213.4,320.562,214.475,320.73,215.549,320.899z"/>
<g>
	<path style="fill:#CE0821;" d="M340.629,311.182c-3.877-0.05-7.407-0.731-10.771-2.213c-1.187-0.523-2.503-1.317-2.077-2.682
		c0.519-1.666,2.087-0.927,3.177-0.527c6.843,2.509,13.577,2.73,20.242-0.621c1.15-0.578,2.577-0.807,3.249,0.638
		c0.648,1.392-0.638,2.054-1.613,2.599C348.98,310.53,344.754,311.104,340.629,311.182z"/>
	<path style="fill:#CE0821;" d="M340.539,306.068c-3.118,0.233-6.216-0.643-9.15-2.134c-1.138-0.578-2.283-1.503-1.616-2.9
		c0.716-1.501,2.006-0.53,2.992-0.131c5.797,2.346,11.495,2.533,17.068-0.656c0.986-0.564,2.038-0.932,2.796,0.176
		c0.857,1.251,0.049,2.144-0.98,2.843C348.358,305.505,344.66,306.192,340.539,306.068z"/>
</g>
<path style="fill:#CC0820;" d="M348.373,295.303c0.927-0.235,1.89-0.591,2.516,0.535c0.604,1.086-0.1,1.789-0.778,2.48
	c-3.751,3.817-13.908,4.138-17.882,0.564c-0.734-0.66-1.374-1.422-1.047-2.475c0.367-1.18,1.401-0.636,2.192-0.69
	c0.779,0.249,1.549,0.527,2.359,0.671C340.158,298.479,344.263,296.86,348.373,295.303z"/>
<path style="fill:#110001;" d="M348.373,295.303c-4.112,3.194-8.555,3.299-13.211,1.413c0.012-1.071,0.639-0.689,1.184-0.501
	c4.239,1.164,8.161,0.15,11.956-1.737C348.326,294.753,348.35,295.028,348.373,295.303z"/>
<path style="fill:#280003;" d="M336.346,296.215c-0.395,0.167-0.789,0.334-1.184,0.501c-0.646-0.243-1.391-0.311-1.788-1
	c-0.016-0.171-0.024-0.342-0.022-0.513C334.35,295.54,335.348,295.878,336.346,296.215z"/>
<path style="fill:#CE0821;" d="M164.936,306.069c-4.04,0.091-7.54-0.634-10.685-2.693c-1.005-0.658-1.965-1.481-1.229-2.793
	c0.757-1.35,1.905-0.898,2.976-0.29c5.59,3.173,11.289,2.927,17.073,0.575c1.005-0.409,2.313-1.314,2.946,0.246
	c0.565,1.392-0.591,2.301-1.74,2.872C171.237,305.499,168.035,306.342,164.936,306.069z"/>
<path style="fill:#CC0820;" d="M172.375,295.717c0.792,0.05,1.812-0.484,2.194,0.691c0.302,0.926-0.221,1.644-0.844,2.281
	c-3.733,3.818-14.753,3.471-18.3-0.574c-0.587-0.67-1.108-1.344-0.569-2.285c0.641-1.118,1.595-0.762,2.521-0.525
	c1.226,0.245,2.345,0.795,3.486,1.267c3.089,1.277,6.128,0.953,9.157-0.191C170.839,296.283,171.521,295.696,172.375,295.717z"/>
<path style="fill:#F5D910;" d="M192.768,292.194c-0.25-1.962-0.975-3.877-0.217-5.912c1.036-2.782,2.862-3.945,6.493-3.47
	c-2.75,0.954-4.715,2.08-4.761,4.919c-0.043,2.627,0.664,4.91,2.639,6.692c0.607,0.548,1.263,1.46,2.174,1.023
	c0.813-0.39,0.368-1.361,0.332-2.082c-0.157-3.195,0.406-3.644,3.568-3.008c1.567,0.315,2.836,1.083,3.966,2.147
	c2.399,2.257,2.079,3.417-1.701,4.752c2.317-3.122,0.507-4.472-1.953-5.403c-1.257-0.476-2.399-0.395-1.94,1.508
	c0.317,1.31,0.79,2.615-0.786,3.525c-1.594,0.92-2.83-0.059-3.904-0.885c-1.422-1.092-2.609-2.489-3.898-3.757
	C192.781,292.243,192.768,292.194,192.768,292.194z"/>
<path style="fill:#110001;" d="M170.589,296.715c-4.655,1.883-9.099,1.784-13.212-1.409c0.01-0.22,0.02-0.441,0.031-0.662
	c3.856,1.61,7.77,2.768,11.994,1.57C169.947,296.026,170.573,295.648,170.589,296.715z"/>
<path style="fill:#1F0002;" d="M155.678,246.191c-0.361-2.53-2.607-4.286-2.82-6.877c0.678-0.355,0.346-1.468,1.244-1.659
	c-0.74,2.336,0.799,4.005,1.722,5.849c0.469,0.937,0.997,1.844,1.498,2.764c-0.15,0.525-0.175,1.269-0.933,1.148
	C155.863,247.333,155.361,246.921,155.678,246.191z"/>
<path style="fill:#280003;" d="M170.589,296.715c-0.396-0.167-0.792-0.334-1.188-0.501c0.97-0.419,1.824-1.18,2.993-1.012
	c0.003,0.172-0.003,0.344-0.02,0.515C171.977,296.404,171.235,296.473,170.589,296.715z"/>
<path style="fill:#F5DC0F;" d="M218.798,327.627c-1.571,1.891-2.103,4.183-3.193,6.178c-1.15,2.106-0.35,3.447,1.601,4.378
	c1.938,0.925,4.011,1.155,6.132,1.252c1.511,0.069,3.366-0.537,4.042,1.698c0.151,0.499,0.768,0.492,1.256,0.414
	c0.471-0.076,1.147-0.428,1.373-0.236c1.868,1.585,3.806,2.433,6.198,1.156c0.044-0.023,0.549,0.52,0.58,0.825
	c0.124,1.189,0.789,1.79,1.901,1.623c1.083-0.163,1.42-1.12,1.706-2.084c0.446-1.507,0.457-2.992,0.183-4.532
	c-0.183-1.029,0.237-2.19,1.296-2.186c1.329,0.005,0.698,1.287,0.638,2c-0.145,1.711-0.326,3.436-0.705,5.108
	c-0.79,3.479-3.94,4.485-6.658,2.204c-0.217-0.182-0.388-0.527-0.62-0.568c-2.225-0.391-4.331,0.072-6.528-1.882
	c-3.299-2.934-8.519-1.831-12.251-3.914c-2.954-1.649-5.985-3.142-8.959-4.746c-0.679-0.366-1.269-0.885-1.532-1.647
	c-0.185-0.537-0.437-1.194,0.035-1.624c0.592-0.54,1.01,0.114,1.41,0.463c0.431,0.377,0.812,0.811,1.227,1.207
	c1.328,1.27,2.758,2.796,4.72,1.964c1.823-0.773,2.869-2.484,2.887-4.587C215.555,327.885,216.951,327.49,218.798,327.627z"/>
<path style="fill:#F5D910;" d="M281.798,337.996c-0.423-0.785,0.133-1.239,0.631-1.667c1.197-1.029,1.763-2.216,1.19-3.807
	c-0.34-0.944,0.006-1.961,0.884-2.109c1.269-0.214,1.137,1.047,1.12,1.824c-0.037,1.711-0.477,3.438,2.049,3.922
	c1.036,0.198,0.448,1.261,0.211,1.94c-1.47,4.218-7.041,7.391-10.822,7.04c-1.497-0.139-3.374,0.058-3.984-1.61
	c-0.647-1.77,0.411-3.266,1.774-4.534c0.176,0.269,0.354,0.416,0.337,0.534c-0.565,3.841,0.205,4.607,4.031,3.878
	c2.004-0.382,3.81-1.281,5.389-2.554c0.834-0.672,2.071-1.314,1.167-2.771c-0.875-1.409-1.901-0.808-2.939-0.222
	C282.532,338.032,282.207,338.311,281.798,337.996z"/>
<path style="fill:#F4D610;" d="M289.758,338.866c2.311-2.386,4.601-3.69,6.068-5.826c0.756-1.1,1.652-2.126,1.921-3.475
	c0.188-0.942,0.21-1.859-1.24-1.27c-1.678,0.682-2.262-0.266-2.501-1.697c-0.395-2.363,0.758-4.659,2.462-4.846
	c1.714-0.189,2.439,0.908,2.685,2.348C300.144,329.896,297.62,336.593,289.758,338.866z"/>
<path style="fill:#F5D910;" d="M192.856,320.413c1.778-0.75,2.698,0.421,3.58,1.452c3.177,3.712,3.513,3.84,7.605,1.71
	c1.411-0.734,2.843-1.166,3.821,0.288c0.955,1.42-0.201,2.706-1.28,3.362c-1.126,0.685-2.812,4.012-3.849-0.208
	c-0.192-0.78-1.078-0.748-1.715-0.735c-2.756,0.058-4.743-1.008-5.998-3.558C194.599,321.869,193.674,321.261,192.856,320.413z"/>
<path style="fill:#F4D210;" d="M297.92,334.71c3.052-3.102,4.013-6.507,3.899-10.293c-0.035-1.167,0.607-1.921,1.7-2.407
	c1.568-0.697,3.08-1.518,4.363-2.825c0.33,1.883-0.951,2.88-2.286,3.508c-1.826,0.858-2.406,2.125-2.432,4.039
	c-0.031,2.301-0.316,4.622-1.996,6.434C300.486,333.903,299.857,334.817,297.92,334.71z"/>
<path style="fill:#F5D810;" d="M258.116,349.632c-0.028-1.817,0.548-2.684,2.052-2.946c0.963-0.168,2.302-0.008,2.424-1.468
	c0.101-1.207-0.523-2.19-1.437-2.975c-0.576-0.495-1.88-0.541-1.283-1.782c0.272-0.566,0.777-1.265,1.309-1.407
	c0.979-0.261,1.45,0.718,1.958,1.372c2.457,3.159,1.68,6.239-1.94,7.818C260.243,348.662,259.295,349.101,258.116,349.632z"/>
<path style="fill:#F4D210;" d="M238.918,348.61c2.922,0,5.3,0.107,7.664-0.03c2.34-0.136,4.449-0.718,3.953-3.875
	c-0.131-0.838,0.239-1.519,1.049-1.816c0.297-0.109,0.852-0.084,1.015,0.111c0.576,0.683,0.157,1.428-0.067,2.141
	C251.021,349.936,243.609,352.103,238.918,348.61z"/>
<path style="fill:#F1C412;" d="M255.048,347.539c-0.82-3.061,0.088-6.23-0.994-9.269c-0.28-0.786,0.226-1.551,1.124-1.644
	c0.833-0.087,0.722,0.732,0.785,1.226C256.385,341.132,256.394,344.382,255.048,347.539z"/>
<path style="fill:#F4D410;" d="M246.193,346.969c0.355-2.934,0.42-5.846,0.243-8.768c-0.07-1.155,0.67-1.945,1.664-1.832
	c1.132,0.128,0.575,1.169,0.412,1.835C247.794,341.133,248.324,344.401,246.193,346.969z"/>
<path style="fill:#F1C711;" d="M211.417,330.108c0.468-1.537,0.861-3.103,1.431-4.601c0.338-0.888,1.225-1.383,2.077-0.83
	c0.843,0.547-0.049,1.149-0.328,1.658c-0.82,1.493-1.695,2.955-2.548,4.429C211.503,330.867,211.184,330.753,211.417,330.108z"/>
<path style="fill:#EBA015;" d="M283.38,346.288c-0.705-0.117-1.558-0.067-1.568-1.111c-0.004-0.432,0.391-0.644,0.77-0.591
	c1.132,0.16,0.692,1.069,0.767,1.729L283.38,346.288z"/>
<path style="fill:#EDA915;" d="M211.417,330.108c0.21,0.219,0.421,0.437,0.631,0.656c-0.327,0.774-0.778,1.419-1.929,1.691
	C210.309,331.417,210.821,330.743,211.417,330.108z"/>
<path style="fill:#F1C611;" d="M278.873,346.25c0.107-0.459,0.428-0.591,0.844-0.532c0.464,0.066,0.676,0.413,0.553,0.804
	c-0.062,0.197-0.45,0.41-0.687,0.406C279.22,346.921,278.824,346.769,278.873,346.25z"/>
<g>
	<path style="fill:#CF0821;" d="M244.378,267.136c1.941-0.59,3.215,0.209,4.353,1.309c1.127,1.089,1.789,0.768,2.198-0.609
		c0.082-0.275,0.153-0.558,0.276-0.815c0.449-0.939,0.855-2.215,2.049-2.074c1.106,0.13,1.689,1.408,1.796,2.391
		c0.333,3.058,1.391,2.853,3.188,0.975c0.927-0.969,2.071-1.669,3.477-1.409c0.276,0.553,0.017,0.845-0.237,1.112
		c-3.276,3.441-3.335,7.331-1.555,11.442c1.793,4.141,3.519,8.279,3.306,12.942c-0.15,3.292-1.494,5.847-4.451,7.844
		c-0.593-3.332-2.161-5.983-4.068-8.503c-1.106-1.461-1.901-1.719-2.995-0.059c-1.418,2.153-3.253,4.092-3.873,6.661
		c-0.567,2.349-1.472,1.438-2.42,0.399c-3.233-3.543-2.751-7.812-2.047-11.982c0.393-2.329,1.347-4.576,2.164-6.817
		C247.63,274.208,247.485,272.146,244.378,267.136z"/>
	<path style="fill:#CF0821;" d="M269.427,296.214c-2.647,7.726-9.858,12.183-18.127,11.436c-6.928-0.625-13.493-5.915-14.357-11.672
		c3.303,1.707,6.999,2.494,9.7,5.235c0.567,0.576,1.522,1.161,2.354,0.73c1.154-0.597,0.118-1.484,0.011-2.243
		c-0.211-1.489,2.299-6.132,3.66-6.898c0.556-0.313,0.955-0.162,1.235,0.227c1.607,2.228,3.678,4.29,2.928,7.444
		c-0.149,0.628-0.715,1.353-0.037,1.849c0.765,0.559,1.532-0.121,2.055-0.563C261.887,299.194,265.353,297.477,269.427,296.214z"/>
</g>
<g>
	<path style="fill:#F5DD0F;" d="M288.621,317.043c2.046-2.425,4.617-4.417,5.192-7.763c0.142-0.83,0.781-1.798-0.108-2.376
		c-1.035-0.674-2.386-1.045-3.567-0.674c-1.029,0.323-0.42,1.506-0.486,2.301c-0.222,2.68-2.115,5.002-4.707,4.834
		c-2.6-0.168-3.841,0.601-3.934,3.36c-0.844-2.731-1.33-5.377-2.697-7.739c-0.509-0.88-0.402-2.133,0.566-2.538
		c1.473-0.615,0.861,0.995,1.246,1.557c0.428,0.624,0.22,2.19,1.696,0.751c0.998-0.973,0.925,0.342,1.117,0.815
		c0.628,1.555,1.596,2.462,3.313,1.627c1.625-0.791,2.119-2.13,1.428-3.831c-0.179-0.44-0.471-0.832-0.689-1.257
		c-0.466-0.906-1.377-1.916-0.173-2.777c1.146-0.82,1.39,0.896,2.35,1.168c1.137-2.684,2.685-3.999,5.311-1.501
		c0.97,0.923,1.632,0.069,1.961-0.731c1.11-2.705,3.002-4.308,5.916-4.836c1.73-0.314,2.758-1.309,2.095-3.291
		c-0.251-0.752-0.387-1.683,0.702-1.752c0.84-0.053,0.884,0.93,0.976,1.535c0.308,2.015-0.525,3.574-2.239,4.598
		c-1.522,0.909-2.915,1.71-2.671,3.928c0.148,1.345-0.963,2.103-2.269,2.032c-3.328-0.181-3.897,1.786-3.974,4.53
		C294.864,313.043,292.561,315.939,288.621,317.043z"/>
	<path style="fill:#F5DD0F;" d="M231.576,315.809c0.686-0.634,1.342-1.305,2.064-1.895c1.902-1.554,3.231-1.228,3.612,1.179
		c0.337,2.135,1.518,2.031,3.064,1.911c1.024-0.08,2.736-0.994,2.277,1.459c-0.115,0.616,0.486,1.124,1.062,1.156
		c2.777,0.153,5.573,0.433,8.333,0.243c2.074-0.142,4.06,0.224,5.949,0.701c1.867,0.472,3.376,0.13,4.952-0.593
		c0.653-0.299,1.644-0.469,1.467-1.466c-0.159-0.896-1.041-0.934-1.81-1.083c-0.766-0.148-2.284,0.674-2.072-0.89
		c0.152-1.12,1.527-1.306,2.624-1.036c2.099,0.515,4.18,1.103,6.339,1.876c-2.4,0.495-3.814,2.375-5.667,3.595
		c-2.053,1.352-4.3,2.046-6.806,1.191c-1.659-0.566-3.358-0.573-5.098-0.246c-3.563,0.67-6.816-1.488-10.357-1.25
		c-0.348,0.023-0.795-0.458-1.091-0.798c-1.757-2.018-3.668-2.266-5.319-0.281c-3.329,4.002-8.956,4.027-12.932,2.591
		c-0.928-0.335-2.125-0.92-1.756-1.898c0.478-1.267,1.601-0.252,2.413,0.008c2.659,0.851,5.32,1.769,8.085,0.495
		c1.51-0.696,3.615-1.274,1.105-3.392c-0.345-0.291-0.276-1.073-0.398-1.627L231.576,315.809z"/>
</g>
<g>
	<path style="fill:#F5DA0F;" d="M306.871,276.087c2.774,2.159,5.561,4.137,7.474,7.004c1.242,1.863,1.174,3.948-0.751,5.368
		c-1.695,1.251-2.382,4.236-4.48,4.071c-1.928-0.151-2.882-2.816-4.448-4.189c-0.86-0.754-1.732-1.502-2.53-2.319
		c-0.421-0.431-0.556-1.11-0.111-1.561c0.575-0.583,1.056,0.031,1.413,0.407c1.378,1.453,2.686,2.972,4.07,4.419
		c0.544,0.568,0.579,2.184,1.997,1.209c1.176-0.808,1.137-1.881,0.359-2.986c-0.658-0.934-1.331-1.858-1.96-2.811
		c-0.286-0.432-0.302-0.983,0.116-1.301c0.508-0.387,0.849,0.144,1.17,0.445c0.767,0.718,1.464,1.516,2.272,2.182
		c0.525,0.433,1.088,1.301,1.919,0.502c0.699-0.671,0.316-1.44-0.078-2.098c-1.303-2.175-3.097-3.892-5.291-5.121
		C306.774,278.616,305.996,277.916,306.871,276.087z"/>
	<path style="fill:#F5DA0F;" d="M266.432,320.181c0.96,0.498,1.724,1.32,2.737,0.79c1.912-1.001,3.921-0.729,5.907-0.497
		c1.908,0.223,2.643-0.655,2.662-2.427c0.034-3.057-1.005-5.809-2.367-8.474c-0.33-0.646-1.097-1.224-0.485-2.051
		c0.262-0.355,0.671-0.655,1.077-0.817c0.12-0.048,0.588,0.419,0.683,0.718c1.099,3.451,2.625,6.792,2.741,10.5
		c0.031,0.998-0.11,2.062-0.883,2.639c-1.984,1.479-4.4,2.429-5.584,4.839c-0.06,0.121-0.341,0.154-0.526,0.19
		c-0.755,0.145-2.149,0.223-2.092-0.238C270.69,322.214,264.634,324.405,266.432,320.181z"/>
</g>
<g>
	<path style="fill:#F4D610;" d="M208.55,305.048c1.036-0.482,2.069-0.972,3.11-1.443c0.853-0.387,1.845-0.433,2.382,0.292
		c0.726,0.979-0.501,1.409-0.946,2.04c-0.211,0.3-0.497,0.547-0.924,1.007c1.706,0.751,2.999,0.427,4.094-0.795
		c1.144-1.278,2.209-2.628,3.356-3.903c0.841-0.935,1.705-1.453,2.164,0.336c-0.264,1.262-1.211,1.841-2.289,2.289
		c-2.428,3.255-5.513,4.825-9.612,3.682c-1.701-0.474-2.106,1.33-3.338,1.851c-0.931-1.556,0.653-2.883,0.299-4.319
		C206.687,304.545,208.069,305.536,208.55,305.048z"/>
	<path style="fill:#F4D610;" d="M222.398,310.742c0.949,1.986,1.946,0.08,2.852-0.127c0.453,0.804-0.087,1.214-0.352,1.655
		c-0.548,0.91-1.277,1.847-0.465,2.865c0.827,1.038,2.058,1.384,3.356,1.096c1.187-0.264,2.024-0.9,2.211-2.275
		c0.152-1.119-0.146-3.097,1.372-2.886c1.286,0.178,0.148,1.968,0.289,3.03c0.074,0.556-0.05,1.139-0.085,1.709
		c0-0.001,0.039-0.049,0.039-0.05c-0.97,0.592-1.878,1.35-2.923,1.747c-3.408,1.294-5.315-0.044-6.854-4.651
		C221.465,312.003,221.806,311.339,222.398,310.742z"/>
	<path style="fill:#F4D610;" d="M208.55,305.048c-0.568,0.346-1.136,0.691-1.705,1.037c-2.453-1.022-3.65-3.583-5.948-4.848
		c-0.659-0.363-0.502-1.423,0.306-1.918c0.774-0.474,1.126,0.063,1.546,0.683c1.914,2.828,3.536,2.837,5.717,0.228
		c0.878-1.05,1.475-3.59,3.125-2.309c1.104,0.858-1.335,1.926-1.979,3.05c-0.556,0.971-1.544,1.683-2.205,2.607
		C206.263,305.179,207.639,304.966,208.55,305.048z"/>
</g>
<path style="fill:#F4D710;" d="M222.398,310.742c0.081,0.775-0.164,1.464-0.56,2.113c-0.893,0.762-1.866,1.291-3.096,1.265
	c-1.204-0.026-2.342-0.298-2.995-1.343c-0.704-1.127,0.223-1.986,0.831-2.793c1.144-1.519,2.368-2.977,3.559-4.461
	c0.71-1.82,1.569-3.379,3.958-2.265c-1.915,2.237-3.856,4.452-5.729,6.723c-0.559,0.678-1.468,1.491-0.221,2.371
	c1.114,0.787,1.97,0.501,2.46-0.765C220.943,310.714,221.517,310.423,222.398,310.742z"/>
<path style="fill:#F1C711;" d="M301.791,288.438c0.633-0.053,1.409,0.171,0.98,0.835c-0.798,1.234-0.915,2.868-2.346,4.107
	c-0.449-1.316-0.779-2.398-1.669-3.287c-0.942-0.94-0.431-2.198,0.463-3.035c0.965-0.904,1.888-0.739,2.5,0.514
	C301.697,287.864,301.016,288.212,301.791,288.438z"/>
<path style="fill:#F1C411;" d="M314.5,280.467c-2.076-1.623-4.179-3.213-6.21-4.89c-0.597-0.493-1-1.37-0.372-2.027
	c0.667-0.698,1.209,0.172,1.643,0.556C311.56,275.873,313.34,277.843,314.5,280.467z"/>
<path style="fill:#D4241F;" d="M224.095,303.258c-2.362-1.067-2.642,1.503-3.958,2.265c-0.213-0.217-0.427-0.435-0.64-0.652
	c0.514-1.012,1.368-1.684,2.289-2.289C222.596,302.67,223.559,302.234,224.095,303.258z"/>
<path style="fill:#D31F1F;" d="M301.791,288.438c-0.444,0.284-0.889,0.567-1.488,0.949c0.025-1.215,0.94-1.323,1.415-1.815
	C301.742,287.86,301.767,288.149,301.791,288.438z"/>
<path style="fill:#F7DBDE;" d="M347.829,249.906c0.382,0.63-0.602,1.546,0.427,2.04c0.601-0.152,0.827,0.073,0.678,0.675
	c-0.64,0.802-1.28,1.605-2.251,2.821c-1.303-2.513,0.435-4.379,0.549-6.328C347.742,249.144,348.186,249.223,347.829,249.906z"/>
<path style="fill:#F5D0D4;" d="M362.2,235.461c0.162,0.139,0.325,0.277,0.487,0.416c-1.336,2.156-2.671,4.311-4.007,6.467
	C358.303,239.257,360.41,237.44,362.2,235.461z"/>
<path style="fill:#F8DDE0;" d="M351.677,250.288c0.737-1.801,2.602-2.081,4.011-2.978c0.61-0.185,0.778,0.1,0.693,0.653
	C354.917,248.95,353.466,249.963,351.677,250.288z"/>
<path style="fill:#FAE9EA;" d="M347.829,249.906c-0.199-0.264-0.398-0.528-0.597-0.791c0.354-1.442,0.963-2.769,1.814-3.986
	c0.428,0.031,0.864,0.055,0.51,0.676c-0.024,0.3-0.047,0.599-0.071,0.899c0.302,0.248,0.315,0.51,0.039,0.787
	C349.397,248.603,348.548,249.208,347.829,249.906z"/>
<path style="fill:#F4CACF;" d="M348.934,252.621c-0.226-0.225-0.452-0.45-0.678-0.675c0.884-0.901,1.753-1.828,3.182-1.718
	C350.947,251.384,349.913,251.974,348.934,252.621z"/>
<path style="fill:#F6D4D7;" d="M349.556,245.805c-0.17-0.225-0.34-0.451-0.51-0.676c0.382-0.889,0.77-1.773,1.538-2.416
	c0.184,0.207,0.368,0.414,0.551,0.621C350.817,244.29,350.309,245.126,349.556,245.805z"/>
<path style="fill:#F4CCD0;" d="M357.462,245.532c0.131-0.905-0.25-2.093,1.24-2.249c-0.071,1.011,0.058,2.064-0.631,2.943
	C357.547,246.276,357.238,246.138,357.462,245.532z"/>
<g>
	<path style="fill:#130001;" d="M357.462,245.532c0.203,0.231,0.406,0.463,0.609,0.694c-0.292,0.843-0.852,1.426-1.69,1.738
		c-0.231-0.218-0.462-0.436-0.693-0.653C356.279,246.718,356.87,246.125,357.462,245.532z"/>
	<path style="fill:#130001;" d="M155.678,246.191c0.486,1.35,1.065,0.726,1.645,0.077c0.846,1.34,1.256,2.813,1.341,4.386
		c0.252,0.596-0.016,0.783-0.58,0.738c-0.386-1.653-1.187-3.262-2.679-3.891c-2.959-1.248-4.085-3.668-4.916-6.41
		c-0.758-2.501-3.245-3.918-3.983-6.425c0.277,0.012,0.553,0.024,0.828,0.036c2.32,2.523,4.206,5.337,5.139,8.65
		C152.965,245.103,154.446,245.436,155.678,246.191z"/>
</g>
<g>
	<path style="fill:#1A0002;" d="M158.083,251.392c0.193-0.246,0.386-0.491,0.58-0.737c0.613,1.4,1.53,2.777,0.364,4.661
		c-1.899-2.596-4.214-4.297-6.752-5.719c-0.061-0.516,0.032-0.849,0.654-0.548C154.858,249.367,155.927,251.576,158.083,251.392z"/>
	<path style="fill:#1A0002;" d="M145.29,237.628c1.619,2.451,2.801,5.063,2.95,8.053c-1.209-0.096-1.019-1.105-1.3-1.874
		c-0.681-1.861-1.48-3.679-2.232-5.515C144.41,237.64,144.768,237.562,145.29,237.628z"/>
</g>
<g>
	<path style="fill:#260003;" d="M152.93,249.049c-0.218,0.183-0.436,0.365-0.654,0.548c-1.53-1.145-4.434-0.881-4.07-3.968
		C149.781,246.768,151.355,247.908,152.93,249.049z"/>
	<path style="fill:#260003;" d="M145.29,237.628c-0.194,0.221-0.388,0.443-0.582,0.664c-0.743-1.233-2.215-2.031-2.216-3.709
		C144.092,234.985,144.523,236.461,145.29,237.628z"/>
</g>
<path style="fill:#F7DDDF;" d="M349.525,247.491c-0.013-0.262-0.026-0.525-0.039-0.787c3.193-1.138,4.024-4.114,5.27-6.768
	c0.593-0.048,0.799,0.195,0.573,0.762C354.548,243.949,353.31,246.808,349.525,247.491z"/>
<path style="fill:#F5D1D5;" d="M355.329,240.699c-0.191-0.254-0.382-0.508-0.573-0.762c0.733-1.51,1.345-3.108,2.922-4.002
	c0.139,0.166,0.278,0.333,0.417,0.499C357.172,237.855,356.251,239.277,355.329,240.699z"/>
<path style="fill:#D11120;" d="M296.38,323.855c0.754,0.039,0.846,0.573,0.855,1.157c0.011,0.694-0.179,1.441-0.906,1.491
	c-0.537,0.037-0.833-0.637-0.89-1.232C295.37,324.547,295.569,323.998,296.38,323.855z"/>
<path style="fill:#D83A1D;" d="M205.36,324.935c0.346,0.089,0.798,0.147,0.702,0.623c-0.063,0.31-0.304,0.733-0.563,0.822
	c-0.557,0.192-0.806-0.258-0.832-0.742C204.645,325.215,204.985,325.032,205.36,324.935z"/>
<path style="fill:#D7351D;" d="M292.459,303.257c0.496,0.061,0.978,0.353,0.948,1.033c-0.026,0.595-0.52,0.719-1.028,0.672
	c-0.523-0.049-0.931-0.349-0.954-0.867C291.403,303.569,291.751,303.24,292.459,303.257z"/>
<path style="fill:#D7361D;" d="M300.128,302.078c-0.06,0.482-0.216,0.949-0.767,0.985c-0.54,0.036-0.829-0.369-0.851-0.865
	c-0.025-0.538,0.362-0.858,0.837-0.95C299.966,301.127,300.118,301.561,300.128,302.078z"/>
<path style="fill:#D4221F;" d="M235.498,315.78c0.057,0.528-0.349,0.655-0.709,0.656c-0.239,0-0.635-0.207-0.684-0.393
	c-0.101-0.388,0.124-0.736,0.57-0.814C235.104,315.154,235.394,315.338,235.498,315.78z"/>
<path style="fill:#D4231F;" d="M272.141,324.363c-0.742-0.156-1.137-0.677-1.296-1.36c-0.14-0.604,0.284-0.905,0.797-0.911
	c0.792-0.01,1.203,0.502,1.277,1.258C272.973,323.9,272.681,324.238,272.141,324.363z"/>
<g>
	<path style="fill:#840019;" d="M306.871,276.087c-0.874,1.828-0.097,2.528,1.141,3.222c2.194,1.229,3.988,2.946,5.291,5.121
		c0.394,0.658,0.777,1.426,0.078,2.098c-0.832,0.799-1.394-0.069-1.919-0.502c-0.808-0.666-1.505-1.464-2.272-2.182
		c-0.321-0.301-0.662-0.833-1.17-0.445c-0.418,0.318-0.402,0.868-0.116,1.301c0.629,0.953,1.303,1.877,1.96,2.811
		c0.778,1.105,0.817,2.178-0.359,2.986c-1.418,0.974-1.453-0.641-1.997-1.209c-1.384-1.446-2.692-2.966-4.07-4.419
		c-0.357-0.376-0.838-0.99-1.413-0.407c-0.445,0.451-0.31,1.13,0.111,1.561c0.798,0.817,1.669,1.565,2.53,2.319
		c1.566,1.373,2.52,4.038,4.448,4.189c2.099,0.165,2.785-2.821,4.48-4.071c1.925-1.42,1.994-3.505,0.751-5.368
		C312.432,280.224,309.644,278.247,306.871,276.087z"/>
	<path style="fill:#840019;" d="M307.917,273.55c-0.627,0.657-0.224,1.534,0.372,2.027c2.031,1.677,4.135,3.267,6.21,4.89
		c-1.16-2.624-2.94-4.594-4.94-6.361C309.126,273.722,308.584,272.852,307.917,273.55z"/>
</g>
<g>
	<path style="fill:#130001;" d="M362.2,235.461c0.162,0.139,0.325,0.277,0.487,0.416c1.871-2.066,0.144-4.704,1.099-6.916
		c-0.184-0.206-0.367-0.413-0.551-0.619C361.836,230.562,362.787,233.123,362.2,235.461z"/>
	<path style="fill:#130001;" d="M357.677,235.934c-1.577,0.894-2.189,2.492-2.922,4.002c0.191,0.254,0.382,0.508,0.573,0.762
		c0.922-1.422,1.844-2.844,2.766-4.266c0.909-0.309,1.28-0.937,1.311-1.902c0.053-1.674,0.208-3.344,0.321-5.016
		c-0.186-0.414-0.373-0.828-0.559-1.242l0,0C357.884,230.674,358.991,233.539,357.677,235.934L357.677,235.934z"/>
</g>
<path style="fill:#840019;" d="M355.102,230.684c-0.174-0.236-0.348-0.473-0.522-0.709l0,0c-1.187,2.042-0.314,4.385-0.954,6.506
	c0.163,0.211,0.326,0.422,0.49,0.633C355.4,235.118,354.44,232.777,355.102,230.684z"/>
<path style="fill:#130001;" d="M350.584,242.713c0.184,0.207,0.368,0.414,0.551,0.621c0.533-0.897,1.294-1.703,1.135-2.873
	c-0.129,0.007-0.257,0.022-0.384,0.045C350.877,240.901,350.832,241.867,350.584,242.713z"/>
<path style="fill:#840019;" d="M301.718,287.572c-0.475,0.493-1.39,0.6-1.415,1.815c0.599-0.382,1.043-0.666,1.488-0.949
	C301.767,288.149,301.742,287.86,301.718,287.572L301.718,287.572z"/>
<g>
	<path style="fill:#130001;" d="M346.683,255.442c0.971-1.217,1.611-2.019,2.251-2.821c-0.226-0.225-0.452-0.45-0.678-0.675
		c-1.029-0.495-0.045-1.41-0.427-2.041c-0.199-0.264-0.398-0.527-0.597-0.791C347.118,251.063,345.38,252.929,346.683,255.442z"/>
	<path style="fill:#130001;" d="M358.681,242.344c1.336-2.156,2.671-4.311,4.007-6.467c-0.162-0.139-0.325-0.277-0.487-0.416
		C360.41,237.44,358.303,239.257,358.681,242.344z"/>
	<path style="fill:#130001;" d="M351.677,250.288c1.79-0.326,3.24-1.339,4.704-2.324c-0.231-0.218-0.462-0.436-0.693-0.653
		C354.279,248.207,352.414,248.488,351.677,250.288z"/>
	<path style="fill:#130001;" d="M349.556,245.805c-0.17-0.225-0.34-0.451-0.51-0.676c-0.851,1.216-1.46,2.543-1.814,3.986
		c0.199,0.264,0.398,0.528,0.597,0.791c0.718-0.697,1.568-1.302,1.696-2.414c-0.013-0.262-0.026-0.525-0.039-0.787
		C349.509,246.404,349.533,246.105,349.556,245.805z"/>
	<path style="fill:#130001;" d="M351.439,250.229L351.439,250.229c-1.43-0.111-2.299,0.817-3.182,1.717
		c0.226,0.225,0.452,0.45,0.678,0.675C349.913,251.974,350.946,251.385,351.439,250.229z"/>
	<path style="fill:#130001;" d="M351.135,243.333c-0.184-0.207-0.368-0.414-0.551-0.621c-0.768,0.643-1.156,1.528-1.538,2.416
		c0.17,0.225,0.34,0.451,0.51,0.676C350.309,245.126,350.817,244.29,351.135,243.333z"/>
	<path style="fill:#130001;" d="M357.462,245.532c0.203,0.231,0.406,0.463,0.609,0.694c0.689-0.878,0.56-1.932,0.631-2.943l0,0
		C357.212,243.439,357.593,244.627,357.462,245.532z"/>
	<path style="fill:#130001;" d="M355.687,247.311c0.231,0.218,0.462,0.436,0.693,0.653c0.838-0.312,1.398-0.895,1.69-1.738
		c-0.203-0.231-0.406-0.463-0.609-0.694C356.87,246.125,356.279,246.718,355.687,247.311z"/>
	<path style="fill:#130001;" d="M349.486,246.704c0.013,0.262,0.026,0.525,0.039,0.787c3.785-0.683,5.023-3.543,5.804-6.793
		c-0.191-0.254-0.382-0.508-0.573-0.762C353.51,242.59,352.678,245.567,349.486,246.704z"/>
</g>
<g>
	<path style="fill:#840019;" d="M266.638,178.244c-0.552-1.809-1.782,0.77-2.436-0.376l0,0l0,0c1.858-1.379,1.754-2.318-0.579-2.911
		c-1.939-0.493-3.893-0.676-5.884-0.693c-1.012-0.008-1.637,0.294-1.679,1.385c0.859,3.104-1.555,2.013-2.857,2.147
		c-2.468,0.252-2.246-1.32-1.827-2.944l0,0l0,0c-1.263-0.956-2.661-0.572-4.03-0.48c-0.456,0.031-0.909,0.029-1.353-0.065
		c-1.9,0.734-4.613,0.43-4.603,3.604c-1.736,4.401-1.857,9.255-3.99,13.585c1.638-1.01,3.079-3.082,4.385-3.001
		c1.346,0.083,2.561,2.265,4.007,3.701c0.346-0.43,0.677-0.885,1.052-1.3c2.597-2.869,2.673-2.949,5.635-0.314
		c1.156,1.028,1.66,0.569,2.494-0.239c2.647-2.563,2.672-2.538,5.134,0.278c0.189,0.216,0.389,0.426,0.552,0.661
		c0.605,0.875,1.303,1.232,1.938,0.113c1.946-3.428,4.033-2.294,6.22-0.292c0.461,0.422,1.046,0.708,2.09,1.397
		C268.842,187.537,266.059,183.357,266.638,178.244z M254.536,180.556c-1.305,0.009-2.61,0.018-3.915,0.027
		c-0.868,0.15-1.711,0.142-2.474-0.385l0,0l0,0c-1.158-0.263-2.614,0.27-3.308-1.237c1.514,0.224,3.028,0.448,4.542,0.673
		c2.655,0.273,5.382-0.606,7.986,0.498l0,0l0,0C256.544,181.083,255.498,180.542,254.536,180.556z M258.462,179.509
		c1.333-0.372,2.615-1.303,4.069-0.382l0,0l0,0C261.193,179.445,259.963,180.921,258.462,179.509z"/>
	<path style="fill:#840019;" d="M351.135,243.333c-0.319,0.957-0.827,1.793-1.579,2.472c-0.024,0.3-0.047,0.599-0.071,0.899
		c3.193-1.138,4.024-4.114,5.27-6.768c0.733-1.51,1.345-3.108,2.922-4.002l0,0c1.314-2.395,0.207-5.261,1.489-7.662l0,0
		c-0.002-1.866-0.696-2.301-2.131-0.981c-0.995,0.915-1.404,2.196-1.933,3.393c-0.662,2.092,0.298,4.434-0.986,6.43
		c-0.324,1.276-1.116,2.293-1.845,3.345C352.429,241.63,351.668,242.436,351.135,243.333z"/>
	<path style="fill:#840019;" d="M354.58,229.975c-0.13-0.904,1.163-2.185-0.408-2.659c-1.375-0.415-1.57,1.018-1.987,1.901
		c-0.86,1.82-1.212,3.809-1.296,5.767c-0.081,1.869,1.033,2.439,2.738,1.498C354.266,234.36,353.393,232.017,354.58,229.975
		L354.58,229.975z"/>
	<path style="fill:#840019;" d="M351.2,305.139c-6.665,3.351-13.399,3.13-20.242,0.621c-1.09-0.4-2.658-1.139-3.178,0.527
		c-0.425,1.365,0.89,2.159,2.077,2.682c3.363,1.482,6.894,2.163,10.771,2.213c4.125-0.078,8.352-0.652,12.207-2.805
		c0.976-0.545,2.261-1.207,1.613-2.599C353.777,304.333,352.35,304.561,351.2,305.139z"/>
	<path style="fill:#840019;" d="M304.895,223.395c0.589,1.411,0.918,2.166,1.223,2.932c5.465,13.764,5.837,27.704,1.436,41.808
		c-0.047,0.378-0.034,0.776-0.149,1.133c-2.444,7.573-6.49,14.095-11.513,19.535l1.643,1.4l2.551,2.199
		c-0.321-0.886-0.672-1.652-1.331-2.309c-0.942-0.94-0.431-2.198,0.463-3.035c0.965-0.904,1.888-0.739,2.5,0.513l0,0l0,0
		c0.024,0.289,0.048,0.578,0.073,0.866c0.633-0.054,1.409,0.171,0.98,0.835c-0.722,1.116-0.896,2.556-1.979,3.738l3.648,3.144
		c0.258-0.51,0.298-1.168,0.014-2.016c-0.251-0.752-0.387-1.683,0.702-1.752c0.839-0.053,0.884,0.93,0.976,1.535
		c0.187,1.22-0.051,2.269-0.643,3.137l3.783,3.262c0.477-0.75,0.957-1.496,1.417-2.271c5.001-8.436,7.563-17.683,9.019-27.294
		c0.035-1.335,0.03-2.673,0.107-4.007c0.818-14.227-2.426-27.34-10.717-39.062C308.077,226.248,307.014,224.814,304.895,223.395z
		 M313.593,288.46c-1.695,1.251-2.382,4.236-4.48,4.071c-1.928-0.151-2.882-2.816-4.448-4.189c-0.86-0.754-1.732-1.502-2.53-2.319
		c-0.421-0.431-0.556-1.11-0.111-1.561c0.575-0.583,1.056,0.031,1.413,0.407c1.378,1.453,2.686,2.972,4.07,4.419
		c0.544,0.568,0.579,2.184,1.997,1.209c1.176-0.808,1.137-1.881,0.359-2.986c-0.658-0.934-1.331-1.858-1.96-2.811
		c-0.286-0.432-0.302-0.983,0.116-1.301c0.508-0.387,0.849,0.144,1.17,0.445c0.767,0.718,1.464,1.516,2.272,2.182
		c0.525,0.433,1.088,1.301,1.919,0.502c0.699-0.671,0.316-1.44-0.078-2.098c-1.303-2.175-3.097-3.892-5.291-5.121
		c-1.238-0.694-2.015-1.393-1.141-3.222c2.774,2.159,5.561,4.137,7.474,7.004C315.587,284.955,315.518,287.039,313.593,288.46z
		 M314.5,280.467c-2.076-1.623-4.179-3.213-6.21-4.89c-0.597-0.493-1-1.37-0.372-2.027c0.667-0.698,1.209,0.172,1.643,0.556
		C311.56,275.873,313.34,277.843,314.5,280.467z"/>
	<path style="fill:#840019;" d="M366.901,225.012c-1.575-0.452-2.328,2.345-3.114,3.949c-0.956,2.212,0.772,4.85-1.099,6.916
		c-1.336,2.156-2.671,4.311-4.007,6.467c-0.378-3.087,1.73-4.904,3.519-6.883c0.586-2.338-0.365-4.899,1.036-7.119
		c-0.029-1.023,0.927-2.493-0.72-2.851c-1.358-0.295-1.799,1.08-2.2,2.143c-0.231,0.614-0.396,1.253-0.59,1.88
		c-0.112,1.672-0.267,3.343-0.321,5.016c-0.031,0.966-0.402,1.593-1.311,1.902c-0.922,1.422-1.844,2.844-2.766,4.266
		c-0.781,3.25-2.018,6.11-5.804,6.793c-0.128,1.112-0.977,1.717-1.696,2.414c0.382,0.63-0.602,1.546,0.427,2.041
		c0.884-0.901,1.753-1.828,3.182-1.718l0,0c-0.492,1.156-1.525,1.745-2.504,2.392c-0.64,0.802-1.28,1.605-2.251,2.821
		c-1.303-2.513,0.435-4.379,0.549-6.328c0.354-1.442,0.963-2.769,1.814-3.986c0.382-0.889,0.77-1.773,1.538-2.416
		c0.248-0.846,0.293-1.812,1.303-2.208c-0.252-0.933,0.747-2.256-0.621-2.792c-1.258-0.492-2.416,0.107-3.38,0.993
		c-0.21,0.192-0.404,0.407-0.576,0.634c-3.353,4.438-7.29,8.263-11.746,11.602c-2.316,1.735-3.429,4.094-3.352,7.167
		c0.128,5.041-0.093,10.091-0.166,15.138c0.31,6.094-0.122,12.179-0.272,18.266c-0.038,1.523,0.14,2.849,1.578,3.691l0,0l0,0
		c0.794,0.268,1.588,0.537,2.382,0.805c0.191,0.038,0.407,0.136,0.612,0.207c4.239,1.164,8.161,0.15,11.956-1.737l0,0
		c1.282-0.562,1.199-1.673,1.204-2.811c0.019-4.914,0.083-9.828,0.133-14.742c-0.919-7.923,0.094-15.106,7.549-19.853
		c0.476-0.303,0.834-0.786,1.263-1.167c3.311-2.945,5.452-6.56,6.547-10.87c1.25-4.923,2.163-9.902,2.634-14.947
		C367.797,228.334,369.01,225.618,366.901,225.012z M358.071,246.226c-0.292,0.843-0.852,1.426-1.69,1.738
		c-1.464,0.986-2.914,1.998-4.704,2.324c0.737-1.8,2.602-2.081,4.011-2.978c0.592-0.593,1.183-1.186,1.775-1.779
		c0.131-0.905-0.25-2.093,1.24-2.248l0,0C358.631,244.294,358.76,245.348,358.071,246.226z"/>
	<path style="fill:#840019;" d="M331.389,303.933c2.935,1.491,6.033,2.367,9.15,2.134c4.121,0.124,7.819-0.563,11.11-2.802
		c1.028-0.7,1.837-1.592,0.98-2.843c-0.758-1.107-1.81-0.74-2.796-0.176c-5.574,3.189-11.271,3.001-17.068,0.656
		c-0.987-0.399-2.276-1.37-2.992,0.131C329.106,302.43,330.251,303.355,331.389,303.933z"/>
</g>
<path style="fill:#D00D24;" d="M251.376,174.851L251.376,174.851L251.376,174.851z"/>
<g>
	<path style="fill:#840019;" d="M332.229,298.881c3.975,3.573,14.132,3.253,17.882-0.564c0.679-0.691,1.383-1.394,0.778-2.48
		c-0.626-1.125-1.589-0.77-2.517-0.535c-4.112,3.193-8.555,3.299-13.211,1.413l0,0c-0.646-0.243-1.391-0.311-1.788-1l0,0
		c-0.791,0.054-1.825-0.49-2.192,0.69C330.855,297.459,331.495,298.221,332.229,298.881z"/>
	<path style="fill:#840019;" d="M261.446,237.592c-0.444-0.853-1.346-0.614-2.051-0.483c-0.632,0.117-1.361,0.366-1.789,0.807
		c-1.791,1.845-3.149,2.731-3.318-0.967c-0.029-0.632-0.428-1.429-1.178-1.411c-0.699,0.017-1.05,0.735-1.282,1.39
		c-0.325,0.917,0.079,2.106-1.061,2.819c-1.727-1.517-3.315-3.427-6.294-2.499c0.426,0.566,0.665,0.967,0.981,1.294
		c2.934,3.035,3.943,6.382,3.218,10.032l12.141,10.344c0.021-0.173,0.039-0.347,0.067-0.518c-0.624-2.484-1.014-5.015-2.013-7.417
		c-1.76-4.228-1.348-8.196,1.846-11.693C261.141,238.821,261.837,238.343,261.446,237.592z"/>
</g>
<g>
</g>
<g>
</g>
<g>
</g>
<g>
</g>
<g>
</g>
<g>
</g>
<g>
</g>
<g>
</g>
<g>
</g>
<g>
</g>
<g>
</g>
<g>
</g>
<g>
</g>
<g>
</g>
<g>
</g>
</svg>
