<?xml version="1.0" encoding="iso-8859-1"?>
<!-- Generator: Adobe Illustrator 19.0.0, SVG Export Plug-In . SVG Version: 6.00 Build 0)  -->
<svg version="1.1" id="Capa_1" xmlns="http://www.w3.org/2000/svg" xmlns:xlink="http://www.w3.org/1999/xlink" x="0px" y="0px"
	 viewBox="0 0 496 496" style="enable-background:new 0 0 496 496;" xml:space="preserve">
<path style="fill:#009E49;" d="M0,248v121.6c0,27.2,21.6,48.8,48,48.8h400c26.4,0,48-21.6,48-48.8V248H0z"/>
<path style="fill:#04823A;" d="M248,248l200,170.4c26.4,0,48-21.6,48-48.8V248H248z"/>
<path style="fill:#EF2B2D;" d="M448,77.6H48c-26.4,0-48,21.6-48,48.8V248h496V126.4C496,99.2,474.4,77.6,448,77.6z"/>
<path style="fill:#E51F28;" d="M448,77.6H48L248,248h248V126.4C496,99.2,474.4,77.6,448,77.6z"/>
<path style="fill:#057030;" d="M496,369.6c0,27.2-21.6,48.8-48,48.8H48c-26.4,0-48-21.6-48-48.8"/>
<path style="fill:#D81220;" d="M48,77.6h400c26.4,0,48,21.6,48,48.8v88.8"/>
<polygon style="fill:#FCD116;" points="266.4,259.2 296,236.8 259.2,236.8 248,201.6 236.8,236.8 200,236.8 229.6,259.2 
	218.4,294.4 248,272 277.6,294.4 "/>
<polygon style="fill:#E29610;" points="259.2,236.8 248,201.6 236.8,236.8 235.2,236.8 248,248 268.8,265.6 266.4,259.2 296,236.8 
	"/>
<g>
</g>
<g>
</g>
<g>
</g>
<g>
</g>
<g>
</g>
<g>
</g>
<g>
</g>
<g>
</g>
<g>
</g>
<g>
</g>
<g>
</g>
<g>
</g>
<g>
</g>
<g>
</g>
<g>
</g>
</svg>
