<?xml version="1.0" encoding="iso-8859-1"?>
<!-- Generator: Adobe Illustrator 19.0.0, SVG Export Plug-In . SVG Version: 6.00 Build 0)  -->
<svg version="1.1" id="Capa_1" xmlns="http://www.w3.org/2000/svg" xmlns:xlink="http://www.w3.org/1999/xlink" x="0px" y="0px"
	 viewBox="0 0 496 496" style="enable-background:new 0 0 496 496;" xml:space="preserve">
<path style="fill:#4AA657;" d="M0,304.8v64.8c0,27.2,21.6,48.8,48,48.8h400c26.4,0,48-21.6,48-48.8v-64.8H0z"/>
<path style="fill:#C8313E;" d="M448,77.6H48c-26.4,0-48,21.6-48,48.8v64v0.8v115.2h496V191.2v-0.8v-64C496,99.2,474.4,77.6,448,77.6
	z"/>
<path style="fill:#00914F;" d="M448,418.4c26.4,0,48-21.6,48-48.8v-64.8H315.2L448,418.4z"/>
<path style="fill:#B21F31;" d="M448,77.6H48l132,112l0,0l136.8,116H496V191.2v-0.8v-64C496,99.2,474.4,77.6,448,77.6z"/>
<path style="fill:#991128;" d="M448,77.6H48l367.2,112l0,0l80.8,24.8v-24v-0.8v-64C496,99.2,474.4,77.6,448,77.6z"/>
<path style="fill:#007C41;" d="M496,369.6c0,27.2-21.6,48.8-48,48.8H48c-26.4,0-48-21.6-48-48.8"/>
<g style="opacity:0.8;">
	<polygon style="fill:#FFFFFF;" points="120.8,195.2 117.6,195.2 117.6,200.8 113.6,200.8 113.6,206.4 110.4,206.4 110.4,200.8 
		107.2,200.8 107.2,195.2 104,195.2 104,189.6 110.4,189.6 110.4,184 100.8,184 100.8,189.6 97.6,189.6 97.6,195.2 94.4,195.2 
		94.4,200.8 97.6,200.8 97.6,206.4 100.8,206.4 100.8,212 104,212 104,217.6 107.2,217.6 107.2,223.2 110.4,223.2 110.4,228.8 
		113.6,228.8 113.6,223.2 117.6,223.2 117.6,217.6 120.8,217.6 120.8,212 124,212 124,206.4 120.8,206.4 120.8,200.8 124,200.8 
		124,189.6 120.8,189.6 	"/>
	<polygon style="fill:#FFFFFF;" points="51.2,217.6 54.4,217.6 54.4,223.2 57.6,223.2 57.6,228.8 61.6,228.8 61.6,223.2 64.8,223.2 
		64.8,217.6 68,217.6 68,212 71.2,212 71.2,206.4 74.4,206.4 74.4,200.8 77.6,200.8 77.6,195.2 74.4,195.2 74.4,189.6 71.2,189.6 
		71.2,184 61.6,184 61.6,189.6 68,189.6 68,195.2 64.8,195.2 64.8,200.8 61.6,200.8 61.6,206.4 57.6,206.4 57.6,200.8 54.4,200.8 
		54.4,195.2 51.2,195.2 51.2,189.6 48,189.6 48,200.8 51.2,200.8 51.2,206.4 48,206.4 48,212 51.2,212 	"/>
	<polygon style="fill:#FFFFFF;" points="51.2,94.4 54.4,94.4 54.4,88.8 57.6,88.8 57.6,83.2 61.6,83.2 61.6,77.6 48,77.6 48,83.2 
		51.2,83.2 51.2,88.8 48,88.8 48,100 51.2,100 	"/>
	<path style="fill:#FFFFFF;" d="M120.8,111.2h-3.2v5.6h-3.2v5.6h-3.2v5.6H108v5.6h-4V128h-3.2v-5.6h-3.2v-5.6h-3.2v-5.6h-3.2v-5.6
		H88V100h3.2v-5.6h3.2v-5.6h3.2v-5.6h3.2v-5.6H88v11.2h-1.6h-0.8H84V77.6H71.2v5.6h3.2v5.6h3.2v5.6h3.2v5.6H84v5.6h-3.2v5.6h-3.2
		v5.6h-3.2v5.6h-3.2v5.6H68v5.6h-3.2V128h-3.2v-5.6h-4v-5.6h-3.2v-5.6h-3.2v-5.6H48v11.2h3.2v5.6H48v16.8h3.2v-5.6h3.2V128h3.2v5.6
		h3.2v5.6H64v5.6h-2.4v5.6h-4v5.6h-3.2v-5.6h-3.2v-5.6H48v16.8h3.2v5.6H48v11.2h3.2v-5.6h3.2v-5.6h3.2v-5.6h3.2V156H64v-5.6h3.2v5.6
		h3.2v5.6h3.2v5.6h3.2v5.6H80v5.6h3.2v5.6h1.6h0.8H88v-5.6h3.2v-5.6h3.2v-5.6h3.2v-5.6h3.2V156h3.2v-5.6h3.2v5.6h3.2v5.6h3.2v5.6
		h3.2v5.6h3.2v5.6h3.2v-11.2H120v-5.6h3.2v-16.8H120v5.6h-3.2v5.6h-3.2v-5.6h-3.2v-5.6h-3.2v-5.6h3.2v-5.6h3.2V128h3.2v5.6h3.2v5.6
		h3.2v-16.8H120v-5.6h3.2v-11.2H120v5.6H120.8z M84,116.8h1.6h0.8H88V128h-1.6h-0.8H84V116.8z M80.8,144.8v5.6h-3.2v5.6h-3.2v-5.6
		h-3.2v-5.6H68v-5.6h3.2v-5.6h3.2V128h3.2v5.6h3.2v5.6H84v5.6L80.8,144.8L80.8,144.8z M88,167.2h-1.6h-0.8H84V156h1.6h0.8H88V167.2z
		 M104,144.8h-3.2v5.6h-3.2v5.6h-3.2v-5.6h-3.2v-5.6H88v-5.6h3.2v-5.6h3.2V128h3.2v5.6h3.2v5.6h3.2V144.8z"/>
	<polygon style="fill:#FFFFFF;" points="124,83.2 124,77.6 110.4,77.6 110.4,83.2 113.6,83.2 113.6,88.8 117.6,88.8 117.6,94.4 
		120.8,94.4 120.8,100 124,100 124,88.8 120.8,88.8 120.8,83.2 	"/>
	<polygon style="fill:#FFFFFF;" points="57.6,407.2 54.4,407.2 54.4,401.6 51.2,401.6 51.2,396 48,396 48,407.2 51.2,407.2 
		51.2,412.8 48,412.8 48,418.4 61.6,418.4 61.6,412.8 57.6,412.8 	"/>
	<polygon style="fill:#FFFFFF;" points="51.2,300.8 54.4,300.8 54.4,295.2 57.6,295.2 57.6,289.6 61.6,289.6 61.6,295.2 64.8,295.2 
		64.8,300.8 68,300.8 68,306.4 61.6,306.4 61.6,312 71.2,312 71.2,306.4 74.4,306.4 74.4,300.8 77.6,300.8 77.6,295.2 74.4,295.2 
		74.4,289.6 71.2,289.6 71.2,284 68,284 68,278.4 64.8,278.4 64.8,272.8 61.6,272.8 61.6,267.2 57.6,267.2 57.6,272.8 54.4,272.8 
		54.4,278.4 51.2,278.4 51.2,284 48,284 48,289.6 51.2,289.6 51.2,295.2 48,295.2 48,306.4 51.2,306.4 	"/>
	<polygon style="fill:#FFFFFF;" points="120.8,401.6 117.6,401.6 117.6,407.2 113.6,407.2 113.6,412.8 110.4,412.8 110.4,418.4 
		124,418.4 124,412.8 120.8,412.8 120.8,407.2 124,407.2 124,396 120.8,396 	"/>
	<path style="fill:#FFFFFF;" d="M86.4,206.4L86.4,206.4h-1.6v5.6h-3.2v5.6h-3.2v5.6h-3.2v5.6h-4v5.6H68V248v0.8v13.6h3.2v5.6h3.2
		v5.6h3.2v5.6h3.2v5.6H84v5.6h1.6h0.8H88v-5.6h3.2v-5.6h3.2v-5.6h3.2V268h3.2v-5.6h3.2v-13.6V248v-13.6h-3.2v-5.6h-3.2v-5.6h-3.2
		v-5.6h-3.2V212H88v-5.6H86.4z M74.4,247.2v0.8v2.4h-3.2V248v-0.8v-2.4h3.2C74.4,244.8,74.4,247.2,74.4,247.2z M97.6,248.8V248v-2.4
		h3.2v2.4v0.8v2.4h-3.2V248.8z M84,217.6h1.6h0.8H88v5.6h-1.6h-0.8H84V217.6z M88,278.4h-1.6h-0.8H84v-5.6h1.6h0.8H88V278.4z
		 M91.2,234.4v-5.6h3.2V240h-3.2v5.6H88v2.4v0.8v2.4h3.2v4.8h3.2v11.2h-3.2v-5.6H88V256h-1.6h-0.8H84v5.6h-3.2v5.6h-3.2V256h3.2
		v-5.6H84V248v-0.8v-2.4h-3.2V240h-3.2v-11.2h3.2v5.6H84v5.6h1.6h0.8H88v-5.6H91.2z"/>
	<polygon style="fill:#FFFFFF;" points="51.2,261.6 54.4,261.6 54.4,256 57.6,256 57.6,250.4 61.6,250.4 61.6,248.8 61.6,247.2 
		61.6,245.6 57.6,245.6 57.6,240 54.4,240 54.4,234.4 51.2,234.4 51.2,228.8 48,228.8 48,267.2 51.2,267.2 	"/>
	<polygon style="fill:#FFFFFF;" points="120.8,234.4 117.6,234.4 117.6,240 113.6,240 113.6,245.6 110.4,245.6 110.4,247.2 
		110.4,248.8 110.4,250.4 113.6,250.4 113.6,256 117.6,256 117.6,261.6 120.8,261.6 120.8,267.2 124,267.2 124,228.8 120.8,228.8 	
		"/>
	<path style="fill:#FFFFFF;" d="M120.8,323.2h-3.2v5.6h-3.2v5.6h-3.2v5.6H108v5.6h-4V340h-3.2v-5.6h-3.2v-5.6h-3.2v-5.6h-3.2v-5.6
		H88V312h-1.6h-0.8H84v5.6h-3.2v5.6h-3.2v5.6h-3.2v5.6h-3.2v5.6H68v5.6h-3.2V340h-3.2v-5.6h-4v-5.6h-3.2v-5.6h-3.2v-5.6H48v11.2h3.2
		v5.6H48v16.8h3.2v-5.6h3.2V340h3.2v5.6h3.2v5.6H64v5.6h-2.4v5.6h-4v5.6h-3.2v-5.6h-3.2v-5.6H48v16.8h3.2v5.6H48v11.2h3.2v-5.6h3.2
		v-5.6h3.2v-5.6h3.2V368H64v-5.6h3.2v5.6h3.2v5.6h3.2v5.6h3.2v5.6H80v5.6h3.2v5.6H80v5.6h-3.2v5.6h-3.2v5.6h-2.4v5.6H84v-11.2h1.6
		h0.8H88v11.2h12.8v-5.6h-3.2v-5.6h-3.2v-5.6h-3.2V396H88v-5.6h3.2v-5.6h3.2v-5.6h3.2v-5.6h3.2V368h3.2v-5.6h3.2v5.6h3.2v5.6h3.2
		v5.6h3.2v5.6h3.2v5.6h3.2v-11.2H120v-5.6h3.2v-16.8H120v5.6h-3.2v5.6h-3.2v-5.6h-3.2v-5.6h-3.2v-5.6h3.2v-5.6h3.2V340h3.2v5.6h3.2
		v5.6h3.2v-16.8H120v-5.6h3.2v-11.2H120v5.6H120.8z M84,328.8h1.6h0.8H88V340h-1.6h-0.8H84V328.8z M80.8,356.8v5.6h-3.2v5.6h-3.2
		v-5.6h-3.2v-5.6H68v-5.6h3.2v-5.6h3.2V340h3.2v5.6h3.2v5.6H84v5.6H80.8z M88,379.2h-1.6h-0.8H84V368h1.6h0.8H88V379.2z M104,356.8
		h-3.2v5.6h-3.2v5.6h-3.2v-5.6h-3.2v-5.6H88v-5.6h3.2v-5.6h3.2V340h3.2v5.6h3.2v5.6h3.2V356.8z"/>
	<polygon style="fill:#FFFFFF;" points="120.8,278.4 117.6,278.4 117.6,272.8 113.6,272.8 113.6,267.2 110.4,267.2 110.4,272.8 
		107.2,272.8 107.2,278.4 104,278.4 104,284 100.8,284 100.8,289.6 97.6,289.6 97.6,295.2 94.4,295.2 94.4,300.8 97.6,300.8 
		97.6,306.4 100.8,306.4 100.8,312 110.4,312 110.4,306.4 104,306.4 104,300.8 107.2,300.8 107.2,295.2 110.4,295.2 110.4,289.6 
		113.6,289.6 113.6,295.2 117.6,295.2 117.6,300.8 120.8,300.8 120.8,306.4 124,306.4 124,295.2 120.8,295.2 120.8,289.6 124,289.6 
		124,284 120.8,284 	"/>
</g>
<g>
</g>
<g>
</g>
<g>
</g>
<g>
</g>
<g>
</g>
<g>
</g>
<g>
</g>
<g>
</g>
<g>
</g>
<g>
</g>
<g>
</g>
<g>
</g>
<g>
</g>
<g>
</g>
<g>
</g>
</svg>
