<?xml version="1.0" encoding="iso-8859-1"?>
<!-- Generator: Adobe Illustrator 19.0.0, SVG Export Plug-In . SVG Version: 6.00 Build 0)  -->
<svg version="1.1" id="Capa_1" xmlns="http://www.w3.org/2000/svg" xmlns:xlink="http://www.w3.org/1999/xlink" x="0px" y="0px"
	 viewBox="0 0 496 496" style="enable-background:new 0 0 496 496;" xml:space="preserve">
<rect x="162.4" y="77.6" style="fill:#FFC726;" width="170.4" height="340.8"/>
<g>
	<path style="fill:#00267F;" d="M162.4,77.6H48c-26.4,0-48,21.6-48,48.8v243.2c0,27.2,21.6,48.8,48,48.8h115.2V77.6H162.4z"/>
	<path style="fill:#00267F;" d="M448,77.6H333.6v340.8H448c26.4,0,48-21.6,48-48.8V126.4C496,99.2,474.4,77.6,448,77.6z"/>
</g>
<path style="fill:#03215E;" d="M448,77.6H333.6v243.2L448,418.4c26.4,0,48-21.6,48-48.8V126.4C496,99.2,474.4,77.6,448,77.6z"/>
<polygon style="fill:#EDA900;" points="333.6,320.8 333.6,77.6 162.4,77.6 162.4,175.2 "/>
<polygon style="fill:#03215E;" points="162.4,77.6 48,77.6 162.4,175.2 "/>
<path style="fill:#000714;" d="M333.6,418.4H448c26.4,0,48-21.6,48-48.8H333.6V418.4z"/>
<rect x="162.4" y="369.6" style="fill:#EAA200;" width="170.4" height="48.8"/>
<g>
	<path style="fill:#000714;" d="M0,369.6c0,27.2,21.6,48.8,48,48.8h115.2v-48.8H0z"/>
	<path style="fill:#000714;" d="M448,77.6H333.6v87.2L496,214.4v-88C496,99.2,474.4,77.6,448,77.6z"/>
</g>
<polygon style="fill:#EAA200;" points="333.6,164.8 333.6,77.6 162.4,77.6 162.4,112.8 "/>
<polygon style="fill:#000714;" points="162.4,77.6 48,77.6 162.4,112.8 "/>
<path style="fill:#00267F;" d="M316.8,191.2c-12.8,2.4-26.4,8.8-35.2,18.4c-1.6,1.6,5.6-1.6,5.6-1.6c4.8-1.6-1.6,7.2-1.6,9.6
	c-4.8,16.8-9.6,32.8-11.2,51.2c0,1.6,0,2.4-0.8,2.4l-17.6-2.4V208c4,0,10.4,0.8,13.6,2.4c-11.2-11.2-16.8-26.4-22.4-40.8
	c-5.6,14.4-10.4,29.6-22.4,40.8c4-0.8,9.6-2.4,13.6-2.4v60.8l-17.6,2.4c-0.8,0-0.8-0.8-0.8-2.4c-1.6-19.2-6.4-35.2-11.2-51.2
	c0-2.4-7.2-11.2-1.6-9.6c0.8,0,7.2,3.2,6.4,1.6c-8.8-9.6-22.4-16-36-18.4c-0.8,0-1.6,0-0.8,1.6c17.6,26.4,32,57.6,32,95.2
	c6.4,0,23.2-4,29.6-4v43.2h8l0,0h8V284c6.4,0,23.2,4,29.6,4c0-37.6,14.4-68.8,32-95.2C318.4,192,318.4,191.2,316.8,191.2z"/>
<g>
	<path style="fill:#000714;" d="M182.4,192l26.4,22.4c-1.6-3.2-4-8-0.8-6.4c0.8,0,7.2,3.2,6.4,1.6
		C206.4,200.8,194.4,194.4,182.4,192z"/>
	<path style="fill:#000714;" d="M316.8,191.2c-12.8,2.4-26.4,8.8-35.2,18.4c-1.6,1.6,5.6-1.6,5.6-1.6c4.8-1.6-1.6,7.2-1.6,9.6
		c-4.8,16.8-9.6,32.8-11.2,51.2c0,0.8,0,0.8,0,1.6l12,10.4c1.6-33.6,15.2-63.2,31.2-88C318.4,192,318.4,191.2,316.8,191.2z"/>
	<path style="fill:#000714;" d="M256,255.2V208c4,0,10.4,0.8,13.6,2.4c-11.2-11.2-16.8-26.4-22.4-40.8
		c-5.6,14.4-10.4,29.6-22.4,40.8c4-0.8,9.6-2.4,13.6-2.4v32.8L256,255.2z"/>
</g>
<g>
</g>
<g>
</g>
<g>
</g>
<g>
</g>
<g>
</g>
<g>
</g>
<g>
</g>
<g>
</g>
<g>
</g>
<g>
</g>
<g>
</g>
<g>
</g>
<g>
</g>
<g>
</g>
<g>
</g>
</svg>
