<?xml version="1.0" encoding="iso-8859-1"?>
<!-- Generator: Adobe Illustrator 19.0.0, SVG Export Plug-In . SVG Version: 6.00 Build 0)  -->
<svg version="1.1" id="Capa_1" xmlns="http://www.w3.org/2000/svg" xmlns:xlink="http://www.w3.org/1999/xlink" x="0px" y="0px"
	 viewBox="0 0 496 496" style="enable-background:new 0 0 496 496;" xml:space="preserve">
<path style="fill:#00AE65;" d="M0,304v65.6C0,396.8,21.6,416,48,416h400c26.4,0,48-19.2,48-46.4V304H0z"/>
<path style="fill:#0098C3;" d="M448,80H48C21.6,80,0,99.2,0,126.4V192h496v-65.6C496,99.2,474.4,80,448,80z"/>
<rect y="192" style="fill:#E00034;" width="496" height="112"/>
<path style="fill:#009E56;" d="M446.4,416c26.4,0,49.6-19.2,49.6-46.4V304H315.2L446.4,416z"/>
<path style="fill:#008AAA;" d="M448,80H48l132,112h316v-65.6C496,99.2,474.4,80,448,80z"/>
<polygon style="fill:#C60537;" points="315.2,304 496,304 496,192 180,192 "/>
<path style="fill:#008399;" d="M448,80H48l367.2,112H496v-65.6C496,99.2,474.4,80,448,80z"/>
<polygon style="fill:#B50038;" points="496,214.4 496,192 414.4,192 "/>
<path style="fill:#008746;" d="M496,368.8c0,28.8-21.6,47.2-48,47.2H48c-26.4,0-48-20.8-48-48"/>
<path style="fill:#FFFFFF;" d="M240.8,294.4c-25.6,0-46.4-20.8-46.4-46.4s20.8-46.4,46.4-46.4c13.6,0,26.4,5.6,34.4,15.2
	C264.8,201.6,248,192,228.8,192c-31.2,0-56,24.8-56,56s24.8,56,56,56c19.2,0,36.8-9.6,46.4-24.8
	C267.2,288.8,255.2,294.4,240.8,294.4z"/>
<g>
	<path style="fill:#CADDD3;" d="M229.6,192c-12.8,0-26.4,4.8-35.2,12l13.6,11.2c8.8-8,20.8-13.6,33.6-13.6
		c13.6,0,26.4,5.6,34.4,15.2C265.6,201.6,248.8,192,229.6,192z"/>
	<polygon style="fill:#CADDD3;" points="322.4,248 305.6,242.4 313.6,225.6 297.6,233.6 291.2,216.8 285.6,233.6 269.6,225.6 
		277.6,242.4 260.8,248 277.6,253.6 269.6,270.4 285.6,262.4 292,279.2 297.6,262.4 313.6,270.4 305.6,253.6 	"/>
</g>
<g>
</g>
<g>
</g>
<g>
</g>
<g>
</g>
<g>
</g>
<g>
</g>
<g>
</g>
<g>
</g>
<g>
</g>
<g>
</g>
<g>
</g>
<g>
</g>
<g>
</g>
<g>
</g>
<g>
</g>
</svg>
