<?xml version="1.0" encoding="iso-8859-1"?>
<!-- Generator: Adobe Illustrator 19.0.0, SVG Export Plug-In . SVG Version: 6.00 Build 0)  -->
<svg version="1.1" id="Capa_1" xmlns="http://www.w3.org/2000/svg" xmlns:xlink="http://www.w3.org/1999/xlink" x="0px" y="0px"
	 viewBox="0 0 496 496" style="enable-background:new 0 0 496 496;" xml:space="preserve">
<path style="fill:#273375;" d="M496,369.614c0,27.2-21.6,48.8-48,48.8H48c-26.4,0-48-21.6-48-48.8v-243.2c0-27.2,21.6-48.8,48-48.8
	h400c26.4,0,48,21.6,48,48.8V369.614z"/>
<path id="SVGCleanerId_0" style="fill:#192760;" d="M48,77.614h400c26.4,0,48,21.6,48,48.8v243.2c0,27.2-21.6,48.8-48,48.8
	L48,77.614z"/>
<g>
	<path id="SVGCleanerId_0_1_" style="fill:#192760;" d="M48,77.614h400c26.4,0,48,21.6,48,48.8v243.2c0,27.2-21.6,48.8-48,48.8
		L48,77.614z"/>
</g>
<g>
	<path style="fill:#101F4F;" d="M496,369.614c0,27.2-21.6,48.8-48,48.8H48c-26.4,0-48-21.6-48-48.8H496z"/>
	<path style="fill:#101F4F;" d="M48,77.614h400c26.4,0,48,21.6,48,48.8v88.8L48,77.614z"/>
</g>
<g>
	<path style="fill:#FFFFFF;" d="M131.86,283.284l6.72,21.63l21.42-8.4l-12.39,19.11l19.95,11.55l-23.31,1.68l3.36,22.47
		l-15.75-16.59l-15.75,16.59l3.36-22.47l-22.89-1.89l19.95-11.55l-12.81-18.9l21.63,8.19L131.86,283.284z"/>
	<path style="fill:#FFFFFF;" d="M364.8,332.814l3.2,10.4l9.6-4l-5.6,8.8l8.8,5.6l-10.4,0.8l1.6,10.4l-7.2-8l-7.2,8l1.6-10.4
		l-10.4-0.8l8.8-5.6l-5.6-8.8l9.6,4L364.8,332.814z"/>
	<path style="fill:#FFFFFF;" d="M306.4,240.014l3.2,10.4l9.6-4l-5.6,8.8l8.8,5.6l-10.4,0.8l1.6,10.4l-7.2-8l-7.2,8l1.6-10.4
		l-10.4-0.8l8.8-5.6l-5.6-8.8l9.6,4L306.4,240.014z"/>
	<path style="fill:#FFFFFF;" d="M364.8,176.814l3.2,10.4l9.6-4l-5.6,8.8l8.8,5.6l-10.4,0.8l1.6,10.4l-7.2-8l-7.2,8l1.6-10.4
		l-10.4-0.8l8.8-5.6l-5.6-8.8l9.6,4L364.8,176.814z"/>
	<path style="fill:#FFFFFF;" d="M416.8,224.814l3.2,10.4l9.6-4l-5.6,8.8l8.8,5.6l-10.4,0.8l1.6,10.4l-7.2-8l-7.2,8l1.6-10.4
		l-11.2-1.6l8.8-5.6l-5.6-8.8l9.6,4L416.8,224.814z"/>
	<path style="fill:#FFFFFF;" d="M388,272.014l2.4,6.4l6.4,0.8l-4.8,3.2l1.6,6.4l-5.6-3.2l-5.6,3.2l1.6-6.4l-4.8-4l6.4-0.8
		L388,272.014z"/>
</g>
<polygon style="fill:#101F4F;" points="171.628,115.586 209.6,77.614 148.8,77.614 148.8,108.574 "/>
<polygon style="fill:#192760;" points="114.4,137.614 114.4,77.614 54.4,77.614 "/>
<polygon style="fill:#101F4F;" points="114.4,77.614 54.4,77.614 60.144,83.358 114.4,99.469 "/>
<path style="fill:#FFFFFF;" d="M261.6,158.556v-8.892h-98.45l72.05-72.05h-25.6l-60.8,60.8v-60.8h-34.4v60l-60-60H48
	c-5.6,0-11.3,1-16.9,3.1l69.635,68.95H0.167v1.55v6.3v1.042v17.358v8.892v0.008H102.3l-74.3,73.6h25.6l60.8-60.8v60.8h34.4v-60
	l60,60h27.6l-74.9-73.6h100v-0.008h0.1v-8.892h-0.1v-17.358L261.6,158.556L261.6,158.556z"/>
<polygon style="fill:#D9ECED;" points="261.6,158.556 261.6,149.664 163.15,149.664 235.2,77.614 209.6,77.614 148.8,138.414 
	148.8,77.614 114.4,77.614 114.4,137.614 161.5,184.814 261.5,184.814 261.5,184.806 261.6,184.806 261.6,175.914 261.5,175.914 
	261.5,158.556 "/>
<path style="fill:#FFFFFF;" d="M39.2,78.414c0.5-0.1,1.1-0.7,1.6-0.8C40.3,77.714,39.8,78.314,39.2,78.414z"/>
<g>
	<polygon style="fill:#D9ECED;" points="181.1,230.714 208.8,258.414 222.4,258.414 194.4,230.714 	"/>
	<polygon style="fill:#D9ECED;" points="68.7,230.714 41.5,258.414 53.6,258.414 81.3,230.714 	"/>
	<polygon style="fill:#D9ECED;" points="229.6,258.414 236.4,258.414 208.2,230.714 201.9,230.714 	"/>
	<rect x="140" y="230.714" style="fill:#D9ECED;" width="8.8" height="27.7"/>
	<rect x="114.4" y="230.714" style="fill:#D9ECED;" width="7.2" height="27.7"/>
	<polygon style="fill:#D9ECED;" points="56,230.714 28,258.414 33.5,258.414 60.7,230.714 	"/>
</g>
<g>
	<path style="fill:#E51D35;" d="M40.9,77.614c0.4,0,0.8,0.1,1.3,0C41.8,77.714,41.3,77.514,40.9,77.614z"/>
	<polygon style="fill:#E51D35;" points="140.167,158.556 140.167,158.414 140.167,149.664 140.167,77.614 121.6,77.614 
		121.6,149.664 121.6,158.314 121.6,158.556 0.167,158.556 0.167,175.914 114.4,175.914 121.6,175.914 121.6,176.714 121.6,184.806 
		121.6,258.414 140,258.414 140,184.806 140,176.714 140,175.914 261.5,175.914 261.5,158.556 	"/>
	<path style="fill:#E51D35;" d="M105.75,149.664h8.65l-72.2-72.05c-2.4,0.4-4.4,0.9-6.8,1.7L105.75,149.664z"/>
	<polygon style="fill:#E51D35;" points="148.161,184.806 222.4,258.414 229.6,258.414 155.992,184.806 	"/>
	<polygon style="fill:#E51D35;" points="33.5,258.414 41.5,258.414 113.667,184.806 105.681,184.806 	"/>
</g>
<g>
	<path style="fill:#AF0026;" d="M229.083,77.614c0,0-7.318,0.009-8.476,0l-72.2,72.05h8.65L229.083,77.614z"/>
	<polygon style="fill:#AF0026;" points="140.167,158.556 140.167,156.181 140.167,88.989 140.167,86.614 140.167,79.989 
		140.167,77.614 121.6,77.614 121.6,79.989 121.6,86.614 121.6,88.989 121.6,140.314 121.6,142.689 121.6,144.719 140.167,163.657 
		152.183,175.914 261.5,175.914 261.5,158.556 	"/>
	<polygon style="fill:#AF0026;" points="60.7,230.714 33.5,258.414 41.5,258.414 68.7,230.714 	"/>
	<rect x="121.6" y="230.714" style="fill:#AF0026;" width="18.4" height="27.7"/>
	<polygon style="fill:#AF0026;" points="194.4,230.714 222.4,258.414 229.6,258.414 201.9,230.714 	"/>
</g>
<g>
</g>
<g>
</g>
<g>
</g>
<g>
</g>
<g>
</g>
<g>
</g>
<g>
</g>
<g>
</g>
<g>
</g>
<g>
</g>
<g>
</g>
<g>
</g>
<g>
</g>
<g>
</g>
<g>
</g>
</svg>
