<?xml version="1.0" encoding="iso-8859-1"?>
<!-- Generator: Adobe Illustrator 19.0.0, SVG Export Plug-In . SVG Version: 6.00 Build 0)  -->
<svg version="1.1" id="Capa_1" xmlns="http://www.w3.org/2000/svg" xmlns:xlink="http://www.w3.org/1999/xlink" x="0px" y="0px"
	 viewBox="0 0 496 496" style="enable-background:new 0 0 496 496;" xml:space="preserve">
<path style="fill:#F2A800;" d="M0,304v65.6C0,396.8,21.6,416,48,416h400c26.4,0,48-19.2,48-46.4V304H0z"/>
<path style="fill:#D90012;" d="M448,80H48C21.6,80,0,99.2,0,126.4V192h496v-65.6C496,99.2,474.4,80,448,80z"/>
<rect y="192" style="fill:#0033A0;" width="496" height="112"/>
<path style="fill:#D67F00;" d="M446.4,416c26.4,0,49.6-19.2,49.6-46.4V304H315.2L446.4,416z"/>
<path style="fill:#C61010;" d="M448,80H48l132,112h316v-65.6C496,99.2,474.4,80,448,80z"/>
<polygon style="fill:#002F82;" points="315.2,304 496,304 496,192 180,192 "/>
<path style="fill:#AF0202;" d="M448,80H48l367.2,112H496v-65.6C496,99.2,474.4,80,448,80z"/>
<polygon style="fill:#022659;" points="496,214.4 496,192 414.4,192 "/>
<path style="fill:#C46F00;" d="M496,368.8c0,29.6-21.6,47.2-48,47.2H48c-26.4,0-48-20.8-48-48"/>
<g>
</g>
<g>
</g>
<g>
</g>
<g>
</g>
<g>
</g>
<g>
</g>
<g>
</g>
<g>
</g>
<g>
</g>
<g>
</g>
<g>
</g>
<g>
</g>
<g>
</g>
<g>
</g>
<g>
</g>
</svg>
