<?xml version="1.0" encoding="iso-8859-1"?>
<!-- Generator: Adobe Illustrator 19.0.0, SVG Export Plug-In . SVG Version: 6.00 Build 0)  -->
<svg version="1.1" id="Capa_1" xmlns="http://www.w3.org/2000/svg" xmlns:xlink="http://www.w3.org/1999/xlink" x="0px" y="0px"
	 viewBox="0 0 496 496" style="enable-background:new 0 0 496 496;" xml:space="preserve">
<path style="fill:#3F3F3F;" d="M448,77.6H48c-26.4,0-48,21.6-48,48.8v243.2c0,27.2,21.6,48.8,48,48.8h400c26.4,0,48-21.6,48-48.8
	V126.4C496,99.2,474.4,77.6,448,77.6z"/>
<path style="fill:#2B2C2D;" d="M448,77.6H48l400,340.8c26.4,0,48-21.6,48-48.8V126.4C496,99.2,474.4,77.6,448,77.6z"/>
<path d="M448,77.6H48l448,137.6v-88.8C496,99.2,474.4,77.6,448,77.6z"/>
<path style="fill:#FFFFFF;" d="M0,286.4v83.2c0,27.2,21.6,48.8,48,48.8h400c26.4,0,48-21.6,48-48.8v-83.2L0,286.4L0,286.4z"/>
<path style="fill:#E5E8EA;" d="M448,418.4c26.4,0,48-21.6,48-48.8v-83.2H293.6L448,418.4z"/>
<path style="fill:#D2D6D8;" d="M0,369.6c0,27.2,21.6,48.8,48,48.8h400c26.4,0,48-21.6,48-48.8H0z"/>
<g transform="translate(69 36)">
	<polygon style="fill:#FCD116;" points="233.4,174.4 279.8,143.2 225.4,154.4 256.6,108 210.2,139.2 220.6,84 190.2,130.4 179,76 
		167.8,130.4 137.4,84 147.8,139.2 101.4,108 132.6,154.4 78.2,143.2 124.6,174.4 69.4,185.6 146.2,188.8 168.6,204 177.4,191.2 
		178.2,190.4 178.2,192 179,191.2 179.8,192 179.8,190.4 180.6,191.2 189.4,204 211.8,188.8 288.6,185.6 	"/>
	<polygon style="fill:#E8BB00;" points="279.8,143.2 225.4,154.4 256.6,108 210.2,139.2 220.6,84 190.2,130.4 179,76 167.8,130.4 
		137.4,84 147.8,139.2 101.4,108 132.6,154.4 104.6,148.6 168.6,204 177.4,191.2 178.2,190.4 178.2,192 179,191.2 179.8,192 
		179.8,190.4 180.6,191.2 189.4,204 211.8,188.8 288.6,185.6 233.4,174.4 	"/>
</g>
<rect x="0" y="220.8" style="fill:#0072C6;" width="496" height="72.8"/>
<polygon style="fill:#005D96;" points="302.4,293.6 496,293.6 496,220.8 216.8,220.8 "/>
<path style="fill:#CE1126;" d="M5.9,102.8C2.2,110.1,0,117.6,0,125.6v244c0,27.2,21.6,48.8,48,48.8h195.2L5.9,102.8z"/>
<path style="fill:#87021B;" d="M0,369.6c0,27.2,21.6,48.8,48,48.8h195.2l-36.7-48.8H0z"/>
<path style="fill:#CE1126;" d="M489.7,102.2L253.6,418.4H448l0,0c26.4,0,48-21.6,48-48.8v-244C496,116.8,493,107.8,489.7,102.2z"/>
<path style="fill:#AF0019;" d="M489.7,102.2L489.7,102.2l-160.5,215L448,418.4c26.4,0,48-21.6,48-48.8v-244
	C495.6,112.3,490.5,103.8,489.7,102.2z"/>
<g>
	<path style="fill:#87021B;" d="M489.7,102.2L489.7,102.2L489.7,102.2l-67.4,90.4l73.7,22.6v-90.6
		C495.5,111.7,490.6,103.8,489.7,102.2z"/>
	<path style="fill:#87021B;" d="M253.6,418.4H448c26.4,0,48-21.6,48-48.8H290.2L253.6,418.4z"/>
</g>
<g>
</g>
<g>
</g>
<g>
</g>
<g>
</g>
<g>
</g>
<g>
</g>
<g>
</g>
<g>
</g>
<g>
</g>
<g>
</g>
<g>
</g>
<g>
</g>
<g>
</g>
<g>
</g>
<g>
</g>
</svg>
