<?xml version="1.0" encoding="iso-8859-1"?>
<!-- Generator: Adobe Illustrator 19.0.0, SVG Export Plug-In . SVG Version: 6.00 Build 0)  -->
<svg version="1.1" id="Capa_1" xmlns="http://www.w3.org/2000/svg" xmlns:xlink="http://www.w3.org/1999/xlink" x="0px" y="0px"
	 viewBox="0 0 496 496" style="enable-background:new 0 0 496 496;" xml:space="preserve">
<path style="fill:#DB2727;" d="M496,369.6c0,27.2-21.6,46.4-48,46.4H48c-26.4,0-48-19.2-48-46.4V126.4C0,99.2,21.6,80,48,80h400
	c26.4,0,48,19.2,48,46.4V369.6z"/>
<path style="fill:#CE2420;" d="M48,80h400c26.4,0,48,19.2,48,46.4v243.2c0,27.2-25.6,46.4-52,46.4"/>
<g>
	<path style="fill:#B50808;" d="M48,80h400c26.4,0,48,19.2,48,46.4V216"/>
	<path style="fill:#B50808;" d="M496,368.8c0,27.2-21.6,47.2-48,47.2H48c-26.4,0-48-20.8-48-48"/>
</g>
<path style="fill:#FFFFFF;" d="M496,304L269.6,80H48C21.6,80,0,99.2,0,126.4V192l227.2,224H448c26.4,0,48-19.2,48-46.4V304z"/>
<g>
	<path style="fill:#C7CCD3;" d="M48,80l396,336c26.4,0,52-19.2,52-46.4V304L269.6,80H48z"/>
	<path style="fill:#C7CCD3;" d="M227.2,416H448c26.4,0,48-16,48-48H178.4L227.2,416z"/>
</g>
<path style="fill:#353638;" d="M218.4,80H48C21.6,80,0,99.2,0,126.4V140l278.4,276H448c26.4,0,48-19.2,48-46.4v-14.4L218.4,80z"/>
<path style="fill:#2D2E30;" d="M48,80l396,336c26.4,0,52-19.2,52-46.4v-14.4L218.4,80H48z"/>
<polygon points="218.4,80 48,80 294.4,156 "/>
<path d="M278.4,416H448c26.4,0,48-16,48-48H230.4L278.4,416z"/>
<g>
</g>
<g>
</g>
<g>
</g>
<g>
</g>
<g>
</g>
<g>
</g>
<g>
</g>
<g>
</g>
<g>
</g>
<g>
</g>
<g>
</g>
<g>
</g>
<g>
</g>
<g>
</g>
<g>
</g>
</svg>
