<?xml version="1.0" encoding="iso-8859-1"?>
<!-- Generator: Adobe Illustrator 19.0.0, SVG Export Plug-In . SVG Version: 6.00 Build 0)  -->
<svg version="1.1" id="Capa_1" xmlns="http://www.w3.org/2000/svg" xmlns:xlink="http://www.w3.org/1999/xlink" x="0px" y="0px"
	 viewBox="0 0 512 512" style="enable-background:new 0 0 512 512;" xml:space="preserve">
<path style="fill:#E41E20;" d="M512,381.542c0,28.058-22.323,47.923-49.562,47.923H49.562C22.323,429.466,0,409.6,0,381.542V130.458
	C0,102.4,22.323,82.534,49.562,82.534h412.877c27.238,0,49.562,19.866,49.562,47.923V381.542z"/>
<path style="fill:#D30B0B;" d="M462.438,82.534H49.562l408.781,346.829c27.238,0,53.658-19.866,53.658-47.923V130.458
	C512,102.4,489.677,82.534,462.438,82.534z"/>
<g>
	<path style="fill:#C10000;" d="M462.438,82.534H49.562L512,222.925v-92.467C512,102.4,489.677,82.534,462.438,82.534z"/>
	<path style="fill:#C10000;" d="M0,379.904c0,28.058,22.323,49.562,49.562,49.562h412.877c27.238,0,49.562-17.306,49.562-48.742
		L0,379.904z"/>
</g>
<path style="fill:#3F3F3F;" d="M212.275,120.525c-4.096,0-11.571,1.638-11.571,4.915c-12.39-1.638-13.21,3.277-12.39,7.475
	c0.819-1.638,2.458-2.458,3.277-2.458c1.638,0,3.277,0,4.915,1.638c1.638,0.819,3.277,2.458,4.096,4.096
	c-4.096,0.819-7.475,0-10.752,0c-1.638,0-4.096-0.819-4.915-2.458c-1.638-0.819-1.638-1.638-4.096-4.096
	c-2.458-2.458-4.915-1.638-4.096,2.458c1.638,4.096,4.915,5.734,9.114,5.734c1.638,0,4.915,0.819,8.294,0.819
	c3.379,0,7.475-0.819,9.114,0c-0.819,0.819-2.458,2.458-4.915,2.458c-2.458,0.819-6.656-1.638-9.933-2.458
	c0,2.458,3.277,4.096,8.294,4.915c9.114,1.638,16.486,3.277,20.685,5.734c4.915,2.458,8.294,5.734,9.933,8.294
	c4.096,4.915,4.915,9.114,4.915,9.933c0.819,8.294-1.638,12.39-7.475,14.029c-2.458,0.819-7.475-0.819-9.114-2.458
	c-1.638-1.638-3.277-5.734-3.277-10.752c0.819-2.458,3.277-7.475,0.819-9.114c-9.933-4.915-21.504-10.752-29.696-14.029
	c-2.458-0.819-4.096,2.458-4.915,3.277c-14.029-1.638-27.238-11.571-33.075-21.504c-4.096-7.475-10.752,0-9.114,6.656
	c1.638,7.475,7.475,12.39,14.029,16.486c6.656,4.096,15.667,7.475,24.781,7.475c4.915,0.819,4.915,7.475-0.819,8.294
	c-10.752,0-19.866,0-28.058-8.294c-6.656-5.734-9.933,0.819-8.294,4.915c3.277,12.39,20.685,15.667,37.99,11.571
	c6.656-0.819,2.458,5.734,0.819,5.734c-7.475,4.915-20.685,10.752-32.256,0c-4.915-4.096-9.114-0.819-6.656,4.915
	c4.915,14.848,24.781,11.571,37.99,4.096c3.277-1.638,6.656,2.458,2.458,5.734c-16.486,11.571-24.781,11.571-32.256,7.475
	c-9.114-3.277-9.933,6.656-4.915,9.933c6.656,4.096,22.323,0.819,33.894-6.656c4.915-3.277,4.915,2.458,1.638,4.096
	c-14.029,11.571-18.944,14.848-33.894,13.21c-7.475-0.819-6.656,8.294-1.638,11.571c7.475,4.915,22.323-3.277,33.894-12.39
	c4.915-2.458,5.734,1.638,3.277,6.656c-7.475,9.114-14.029,14.029-19.866,16.486c-5.734,2.458-12.39,1.638-16.486,0.819
	c-4.915-1.638-5.734,3.277-3.277,9.114c1.638,3.277,9.114,4.096,17.306,0.819c8.294-2.458,16.486-9.114,22.323-17.306
	c4.915-4.096,4.096,1.638,2.458,5.734c-11.571,18.125-22.323,25.6-36.352,23.962c-6.656-0.819-7.475,4.096-3.277,8.294
	c6.656,5.734,15.667,5.734,23.142,0c6.656-6.656,19.866-20.685,26.419-28.058c4.915-4.096,6.656,0,4.915,7.475
	c-1.638,4.096-4.096,9.114-13.21,12.39c-5.734,3.277-1.638,8.294,3.277,8.294c2.458,0,7.475-2.458,11.571-7.475
	c4.915-5.734,4.915-9.114,8.294-18.125c2.458-4.096,7.475-2.458,7.475,2.458c-2.458,9.114-4.096,10.752-9.114,14.029
	c-4.096,4.096,3.277,5.734,5.734,4.096c7.475-4.915,9.933-10.752,12.39-16.486c1.638-4.096,6.656-2.458,4.096,4.915
	c-5.734,15.667-14.848,22.323-30.515,25.6c-1.638,0-2.458,1.638-1.638,3.277c2.458,2.458,4.096,4.096,6.656,6.656
	c-9.933,2.458-18.125,4.096-28.058,7.475c-4.915-3.277-9.114-5.734-13.21-9.114c-1.638-3.277-1.638-7.475-9.114-4.096
	c-4.915-2.458-7.475-1.638-9.933,0.819c4.096,0,5.734,0.819,7.475,3.277c1.638,4.915,6.656,5.734,11.571,4.096
	c3.277,2.458,4.915,4.915,7.475,7.475c-5.734,0-9.933,0-15.667-0.819c-5.734-5.734-9.933-5.734-14.029-0.819
	c-3.277,0.819-4.096,0.819-6.656,4.096c3.277-1.638,4.915-1.638,6.656,0c5.734,3.277,9.933,2.458,12.39,0
	c5.734,0,10.752,0.819,16.486,0.819c-1.638,1.638-4.915,2.458-6.656,4.096c-8.294-2.458-12.39,0.819-14.029,7.475
	c-0.819,2.458-1.638,5.734-0.819,8.294c0.819-2.458,2.458-4.915,4.096-6.656c7.475,1.638,9.933-0.819,10.752-5.734
	c3.277-3.277,9.114-3.277,12.39-6.656c4.096,1.638,6.656,2.458,10.752,3.277c1.638,4.915,4.915,6.656,10.752,4.915
	c6.656,0,5.734,3.277,5.734,4.915c1.638-3.277,1.638-5.734-2.458-9.114c-1.638-4.096-4.915-5.734-9.114-3.277
	c-4.096-0.819-4.915-2.458-9.114-4.096c9.933-3.277,17.306-4.096,27.238-7.475c2.458,2.458,4.915,4.096,7.475,6.656
	c1.638,0.819,2.458,0.819,3.277,0c6.656-9.114,9.114-17.306,14.848-23.142c2.458-2.458,4.915-5.734,8.294-6.656
	c1.638-0.819,3.277,0,4.915,0.819c0.819,1.638,2.458,4.096,1.638,7.475c-0.819,4.915-1.638,6.656-3.277,9.933
	c-1.638,3.277-3.277,4.915-4.915,7.475c-4.096,4.915-9.114,7.475-11.571,9.933c-5.734,4.096-8.294,2.458-13.21,1.638
	c-5.734,0.819-7.475,3.277-2.458,7.475c4.096,2.458,8.294,2.458,11.571,1.638c2.458-0.819,5.734-4.096,8.294-5.734
	c2.458-3.277,6.656,0.819,4.096,4.096c-5.734,6.656-10.752,10.752-17.306,10.752c-7.475,0.819-5.734,4.915-0.819,6.656
	c8.294,3.277,15.667-3.277,19.866-7.475c3.277-3.277,4.915-3.277,4.915,1.638c-3.277,9.114-6.656,12.39-13.21,13.21
	c-4.915-0.819-5.734,3.277-1.638,6.656c9.114,5.734,15.667-4.096,18.125-10.752c2.458-5.734,5.734-3.277,5.734,1.638
	c0,6.656-2.458,11.571-10.752,18.125c5.734,9.114,12.39,18.944,18.125,28.058c5.734-9.114,12.39-18.944,18.125-28.058
	c-7.475-6.656-10.752-11.571-10.752-18.125c0-4.915,3.277-7.475,5.734-1.638c3.277,6.656,9.114,16.486,18.125,10.752
	c4.096-2.458,4.096-6.656-1.638-6.656c-6.656-0.819-10.752-4.096-13.21-13.21c-0.819-4.915,1.638-4.915,4.096-1.638
	c4.096,4.096,11.571,10.752,19.866,7.475c4.915-1.638,5.734-5.734-0.819-6.656c-6.656,0-12.39-4.096-17.306-10.752
	c-3.277-3.277,1.638-7.475,4.096-4.096c2.458,1.638,5.734,5.734,8.294,5.734c3.277,0.819,7.475,0,11.571-1.638
	c4.915-4.096,3.277-6.656-2.458-7.475c-4.096,0-6.656,1.638-13.21-1.638c-3.277-1.638-8.294-4.915-11.571-9.933
	c-1.638-2.458-3.277-4.096-4.915-7.475c-1.638-3.277-2.458-4.915-3.277-9.933c0-4.096,0.819-6.656,1.638-7.475
	c0.819-1.638,3.277-1.638,4.915-0.819c3.277,0.819,5.734,4.096,8.294,6.656c5.734,5.734,9.114,14.029,14.848,23.142
	c0.819,0.819,2.458,0.819,3.277,0c2.458-2.458,4.096-4.096,7.475-6.656c9.933,3.277,17.306,4.096,27.238,7.475
	c-4.096,0.819-4.915,2.458-9.114,4.096c-4.096-2.458-7.475-0.819-9.114,3.277c-4.096,2.458-4.096,5.734-2.458,9.114
	c0.819-2.458-0.819-4.915,5.734-4.915c5.734,0.819,9.114-0.819,10.752-4.915c4.096-1.638,6.656-2.458,10.752-3.277
	c3.277,3.277,9.114,3.277,12.39,6.656c0,4.096,3.277,7.475,10.752,5.734c2.458,1.638,3.277,4.096,4.096,6.656
	c0.819-3.277,0-5.734-0.819-8.294c-1.638-6.656-5.734-9.933-14.029-7.475c-1.638-1.638-4.915-2.458-6.656-4.096
	c5.734,0,10.752-0.819,16.486-0.819c2.458,2.458,6.656,3.277,12.39,0c1.638-1.638,3.277-0.819,6.656,0
	c-1.638-3.277-3.277-3.277-6.656-4.096c-4.096-4.915-8.294-4.915-14.029,0.819c-5.734,0-9.933,0-15.667,0.819
	c3.277-2.458,4.915-4.915,7.475-7.475c4.915,1.638,9.114,0.819,11.571-4.096c1.638-1.638,3.277-2.458,7.475-3.277
	c-2.458-2.458-4.915-3.277-9.933-0.819c-7.475-3.277-7.475,1.638-9.114,4.096c-4.915,3.277-9.114,5.734-14.029,9.114
	c-9.933-3.277-18.125-4.096-28.058-7.475c2.458-2.458,4.096-4.096,6.656-6.656c0.819-1.638-0.819-2.458-1.638-3.277
	c-15.667-3.277-24.781-9.933-30.515-25.6c-2.458-6.656,2.458-9.114,4.096-4.915c2.458,5.734,4.915,11.571,12.39,16.486
	c2.458,1.638,9.933,0,5.734-4.096c-4.096-3.277-6.656-4.915-9.114-14.029c0-4.096,4.915-6.656,7.475-2.458
	c2.458,9.114,3.277,12.39,8.294,18.125c4.096,4.096,9.114,7.475,11.571,7.475c4.096,0,9.114-4.915,3.277-8.294
	c-9.114-3.277-11.571-8.294-13.21-12.39c-1.638-7.475,0-11.571,4.915-7.475c6.656,7.475,19.866,21.504,26.419,28.058
	c7.475,5.734,16.486,5.734,23.142,0c4.096-4.096,2.458-9.114-3.277-8.294c-14.029,0.819-24.781-5.734-36.352-23.962
	c-2.458-4.096-3.277-9.933,2.458-5.734c5.734,7.475,14.029,14.029,22.323,17.306c8.294,2.458,14.848,1.638,17.306-0.819
	c3.277-4.915,2.458-10.752-3.277-9.114c-4.096,1.638-10.752,1.638-16.486-0.819c-5.734-2.458-13.21-7.475-19.866-16.486
	c-2.458-4.915-1.638-9.114,3.277-6.656c11.571,9.933,26.419,17.306,33.894,12.39c5.734-3.277,5.734-12.39-1.638-11.571
	c-14.029,1.638-19.866-0.819-33.894-13.21c-3.277-2.458-3.277-8.294,1.638-4.096c11.571,7.475,27.238,9.933,33.894,6.656
	c5.734-3.277,4.915-14.029-4.915-9.933c-7.475,4.096-15.667,4.096-32.256-7.475c-4.096-3.277-0.819-8.294,2.458-5.734
	c13.21,7.475,33.075,10.752,37.99-4.096c1.638-5.734-1.638-9.114-6.656-4.915c-11.571,10.752-24.781,4.915-32.256,0
	c-1.638,0-5.734-7.475,0.819-5.734c17.306,4.096,34.714,0.819,37.99-11.571c1.638-4.096-1.638-10.752-8.294-4.915
	c-8.294,8.294-17.306,8.294-28.058,8.294c-5.734-0.819-5.734-7.475-0.819-8.294c9.114,0,17.306-3.277,24.781-7.475
	c6.656-4.096,12.39-9.114,14.029-16.486c0.819-6.656-5.734-14.029-9.114-6.656c-5.734,9.933-18.944,19.866-33.075,21.504
	c-0.819-0.819-2.458-4.096-4.915-3.277c-8.294,3.277-19.866,8.294-29.696,14.029c-2.458,0.819,0,6.656,0.819,9.114
	c0.819,5.734-0.819,9.114-3.277,10.752c-4.096,2.458-9.114,3.277-11.571,2.458c-4.915-1.638-8.294-5.734-7.475-14.029
	c0-0.819,0.819-4.915,4.915-9.933c2.458-2.458,4.915-5.734,9.933-8.294c4.915-2.458,12.39-4.096,20.685-5.734
	c4.915-0.819,8.294-3.277,8.294-4.915c-2.458,0.819-6.656,2.458-9.933,2.458c-2.458-0.819-4.096-1.638-4.915-2.458
	c1.638,0,5.734,0,9.114,0c3.277,0,6.656-0.819,8.294-0.819c4.096-0.819,7.475-2.458,9.114-5.734
	c0.819-4.096-1.638-4.915-4.096-2.458c-2.458,2.458-2.458,3.277-4.096,4.096s-3.277,1.638-4.915,2.458
	c-3.277,0.819-6.656,0.819-10.752,0c0.819-0.819,2.458-2.458,4.096-4.096c1.638-1.638,3.277-1.638,4.915-1.638
	c0.819,0,2.458,0.819,3.277,2.458c0.819-4.096-0.819-9.114-12.39-7.475c0-3.277-6.656-4.915-11.571-4.915
	c-2.458,0-7.475,1.638-10.752,3.277c-5.734,1.638-11.571,3.277-18.125,3.277c4.096,3.277,4.915,3.277,8.294,5.734
	c-5.734,2.458-10.752,6.656-12.39,9.114c4.915,0,6.656,0,8.294,0.819c-7.475,1.638-9.933,3.277-14.029,7.475
	c1.638,0,3.277,0.819,4.096,0.819s0.819,0.819,0,1.638c-1.638,0.819-8.294,8.294-9.933,9.933c-1.638-1.638-8.294-9.114-9.933-9.933
	c-0.819-0.819-0.819-0.819,0-1.638c0.819,0,2.458-0.819,4.096-0.819c-4.096-4.096-6.656-4.915-14.029-7.475
	c1.638-0.819,3.277,0,8.294-0.819c-1.638-2.458-6.656-7.475-12.39-9.114c4.096-2.458,4.915-3.277,8.294-5.734
	c-6.656-0.819-12.39-1.638-18.125-3.277C219.648,122.266,213.914,120.525,212.275,120.525z M212.275,128.819
	c3.277,0,5.734,0.819,5.734,2.458s-2.458,2.458-5.734,2.458c-3.277,0-5.734-1.638-5.734-2.458
	C206.438,129.638,208.896,128.819,212.275,128.819z M299.725,128.819c3.277,0,5.734,0.819,5.734,2.458s-2.458,2.458-5.734,2.458
	c-3.277,0-5.734-0.819-5.734-2.458C293.99,129.638,295.629,128.819,299.725,128.819z"/>
<path style="fill:#2B2A2A;" d="M377.344,303.923c-4.096-4.915-8.294-4.915-14.029,0.819c-5.734,0-9.933,0-15.667,0.819
	c3.277-2.458,4.915-4.915,7.475-7.475c4.915,1.638,9.114,0.819,11.571-4.096c1.638-1.638,3.277-2.458,7.475-3.277
	c-2.458-2.458-4.915-3.277-9.933-0.819c-7.475-3.277-7.475,1.638-9.114,4.096c-4.915,3.277-9.114,5.734-14.029,9.114
	c-9.933-3.277-18.125-4.096-28.058-7.475c2.458-2.458,4.096-4.096,6.656-6.656c0.819-1.638-0.819-2.458-1.638-3.277
	c-15.667-3.277-24.781-9.933-30.515-25.6c-2.458-6.656,2.458-9.114,4.096-4.915c2.458,5.734,4.915,11.571,12.39,16.486
	c2.458,1.638,9.933,0,5.734-4.096c-4.096-3.277-6.656-4.915-9.114-14.029c0-4.096,4.915-6.656,7.475-2.458
	c2.458,9.114,3.277,12.39,8.294,18.125c4.096,4.096,9.114,7.475,11.571,7.475c4.096,0,9.114-4.915,3.277-8.294
	c-9.114-3.277-11.571-8.294-13.21-12.39c-1.638-7.475,0-11.571,4.915-7.475c6.656,7.475,19.866,21.504,26.419,28.058
	c7.475,5.734,16.486,5.734,23.142,0c4.096-4.096,2.458-9.114-3.277-8.294c-14.029,0.819-24.781-5.734-36.352-23.962
	c-2.458-4.096-3.277-9.933,2.458-5.734c5.734,7.475,14.029,14.029,22.323,17.306c8.294,2.458,14.848,1.638,17.306-0.819
	c3.277-4.915,2.458-10.752-3.277-9.114c-4.096,1.638-10.752,1.638-16.486-0.819s-13.21-7.475-19.866-16.486
	c-2.458-4.915-1.638-9.114,3.277-6.656c11.571,9.933,26.419,17.306,33.894,12.39c5.734-3.277,5.734-12.39-1.638-11.571
	c-14.029,1.638-19.866-0.819-33.894-13.21c-3.277-2.458-3.277-8.294,1.638-4.096c11.571,7.475,27.238,9.933,33.894,6.656
	c5.734-3.277,4.915-14.029-4.915-9.933c-7.475,4.096-15.667,4.096-32.256-7.475c-4.096-3.277-0.819-8.294,2.458-5.734
	c13.21,7.475,33.075,10.752,37.99-4.096c1.638-5.734-1.638-9.114-6.656-4.915c-11.571,10.752-24.781,4.915-32.256,0
	c-1.638,0-5.734-7.475,0.819-5.734c17.306,4.096,34.714,0.819,37.99-11.571c1.638-4.096-1.638-10.752-8.294-4.915
	c-8.294,8.294-17.306,8.294-28.058,8.294c-5.734-0.819-5.734-7.475-0.819-8.294c9.114,0,17.306-3.277,24.781-7.475
	c6.656-4.096,12.39-9.114,14.029-16.486c0.819-6.656-5.734-14.029-9.114-6.656c-5.734,9.933-18.944,19.866-33.075,21.504
	c-0.819-0.819-2.458-4.096-4.915-3.277c-8.294,3.277-19.866,8.294-29.696,14.029c-2.458,0.819,0,6.656,0.819,9.114
	c0.819,5.734-0.819,9.114-3.277,10.752c-4.096,2.458-9.114,3.277-11.571,2.458c-4.915-1.638-8.294-5.734-7.475-14.029
	c0-0.819,0.819-4.915,4.915-9.933c2.458-2.458,4.915-5.734,9.933-8.294c4.915-2.458,12.39-4.096,20.685-5.734
	c4.915-0.819,8.294-3.277,8.294-4.915c-2.458,0.819-6.656,2.458-9.933,2.458c-2.458-0.819-4.096-1.638-4.915-2.458
	c1.638,0,5.734,0,9.114,0c3.277,0,6.656-0.819,8.294-0.819c4.096-0.819,7.475-2.458,9.114-5.734
	c0.819-4.096-1.638-4.915-4.096-2.458c-2.458,2.458-2.458,3.277-4.096,4.096c-1.638,0.819-3.277,1.638-4.915,2.458
	c-3.277,0.819-6.656,0.819-10.752,0c0.819-0.819,2.458-2.458,4.096-4.096c1.638-1.638,3.277-1.638,4.915-1.638
	c0.819,0,2.458,0.819,3.277,2.458c0.819-4.096-0.819-9.114-12.39-7.475c0-3.277-6.656-4.915-11.571-4.915
	c-2.458,0-7.475,1.638-10.752,3.277c-5.734,1.638-11.571,3.277-18.125,3.277c4.096,3.277,4.915,3.277,8.294,5.734
	c-5.734,2.458-10.752,6.656-12.39,9.114c4.915,0,6.656,0,8.294,0.819c-7.475,1.638-9.933,3.277-14.029,7.475
	c1.638,0,3.277,0.819,4.096,0.819s0.819,0.819,0,1.638c-1.638,0.819-8.294,8.294-9.933,9.933c-1.638-1.638-8.294-9.114-9.933-9.933
	c-0.819-0.819-0.819-0.819,0-1.638c0.819,0,2.458-0.819,4.096-0.819c-4.096-4.096-6.656-4.915-14.029-7.475
	c1.638-0.819,3.277,0,8.294-0.819c-1.638-2.458-6.656-7.475-12.39-9.114c4.096-2.458,4.915-3.277,8.294-5.734
	c-6.656-0.819-12.39-1.638-18.125-3.277c-0.819-1.638-6.656-3.277-8.294-3.277c-4.096,0-11.571,1.638-11.571,4.915
	c-12.39-1.638-13.21,3.277-12.39,7.475c0.819-1.638,2.458-2.458,3.277-2.458c1.638,0,3.277,0,4.915,1.638
	c1.638,0.819,3.277,2.458,4.096,4.096c-4.096,0.819-7.475,0-10.752,0c-1.638,0-4.096-0.819-4.915-2.458
	c-1.638-0.819-1.638-1.638-4.096-4.096c-2.458-2.458-4.915-1.638-4.096,2.458c1.638,4.096,4.915,5.734,9.114,5.734
	c1.638,0,4.915,0.819,8.294,0.819c3.277,0,7.475-0.819,9.114,0c-0.819,0.819-2.458,2.458-4.915,2.458
	c-2.458,0.819-6.656-1.638-9.933-2.458c0,2.458,3.277,4.096,8.294,4.915c9.114,1.638,16.486,3.277,20.685,5.734
	c4.915,2.458,8.294,5.734,9.933,8.294c4.096,4.915,4.915,9.114,4.915,9.933c0.819,8.294-1.638,12.39-7.475,14.029
	c-2.458,0.819-7.475-0.819-9.114-2.458s-3.277-5.734-3.277-10.752c0.819-2.458,3.277-7.475,0.819-9.114
	c-9.933-4.915-21.504-10.752-29.696-14.029c-2.458-0.819-4.096,2.458-4.915,3.277c-14.029-1.638-27.238-11.571-33.075-21.504
	c-4.096-7.475-10.752,0-9.114,6.656c1.638,7.475,7.475,12.39,14.029,16.486c6.656,4.096,15.667,7.475,24.781,7.475
	c4.915,0.819,4.915,7.475-0.819,8.294c-10.752,0-19.866,0-28.058-8.294c-4.096-3.584-6.861-2.458-8.09,0l21.402,18.125
	c5.12,0.307,10.752-0.307,16.384-1.638c6.656-0.819,2.458,5.734,0.819,5.734c-2.15,1.434-4.71,2.867-7.578,3.994l6.246,5.325
	c0.205-0.102,0.307-0.205,0.512-0.307c2.765-1.331,5.427,1.229,3.994,3.994l126.771,107.52c0.717-0.512,1.434-1.126,2.253-1.741
	c9.933,3.277,17.306,4.096,27.238,7.475c-4.096,0.819-4.915,2.458-9.114,4.096c-3.174-1.946-5.939-1.331-7.782,0.922l7.475,6.349
	c2.458-0.614,4.198-2.253,5.222-4.813c4.096-1.638,6.656-2.458,10.752-3.277c3.277,3.277,9.114,3.277,12.39,6.656
	c0,4.096,3.277,7.475,10.752,5.734c2.458,1.638,3.277,4.096,4.096,6.656c0.819-3.277,0-5.734-0.819-8.294
	c-1.638-6.656-5.734-9.933-14.029-7.475c-1.638-1.638-4.915-2.458-6.656-4.096c5.734,0,10.752-0.819,16.486-0.819
	c2.458,2.458,6.656,3.277,12.39,0c1.638-1.638,3.277-0.819,6.656,0C382.362,304.742,380.723,304.742,377.344,303.923z
	 M299.725,128.819c3.277,0,5.734,0.819,5.734,2.458s-2.458,2.458-5.734,2.458c-3.277,0-5.734-0.819-5.734-2.458
	C293.99,129.638,295.629,128.819,299.725,128.819z M212.275,133.734c-3.277,0-5.734-1.638-5.734-2.458
	c0-1.638,2.458-2.458,5.734-2.458c3.277,0,5.734,0.819,5.734,2.458C218.01,132.915,215.552,133.734,212.275,133.734z"/>
<path d="M338.534,157.696c9.114,0,17.306-3.277,24.781-7.475c6.656-4.096,12.39-9.114,14.029-16.486
	c0.819-6.656-5.734-14.029-9.114-6.656c-5.734,9.933-18.944,19.866-33.075,21.504c-0.819-0.819-2.458-4.096-4.915-3.277
	c-8.09,3.277-19.251,8.09-29.082,13.619l54.989,16.691c9.728-1.024,17.408-5.222,19.456-13.005
	c1.638-4.096-1.638-10.752-8.294-4.915c-8.294,8.294-17.306,8.294-28.058,8.294C333.619,165.171,333.619,158.515,338.534,157.696z"
	/>
<path d="M293.99,149.504c4.915-2.458,12.39-4.096,20.685-5.734c4.915-0.819,8.294-3.277,8.294-4.915
	c-2.458,0.819-6.656,2.458-9.933,2.458c-2.458-0.819-4.096-1.638-4.915-2.458c1.638,0,5.734,0,9.114,0
	c3.277,0,6.656-0.819,8.294-0.819c4.096-0.819,7.475-2.458,9.114-5.734c0.819-4.096-1.638-4.915-4.096-2.458
	c-2.458,2.458-2.458,3.277-4.096,4.096c-1.638,0.819-3.277,1.638-4.915,2.458c-3.277,0.819-6.656,0.819-10.752,0
	c0.819-0.819,2.458-2.458,4.096-4.096c1.638-1.638,3.277-1.638,4.915-1.638c0.819,0,2.458,0.819,3.277,2.458
	c0.819-4.096-0.819-9.114-12.39-7.475c0-3.277-6.656-4.915-11.571-4.915c-2.458,0-7.475,1.638-10.752,3.277
	c-5.734,1.638-11.571,3.277-18.125,3.277c4.096,3.277,4.915,3.277,8.294,5.734c-5.734,2.458-10.752,6.656-12.39,9.114
	c4.915,0,6.656,0,8.294,0.819c-5.427,1.229-8.192,2.458-10.957,4.608l23.757,7.168C288.768,152.883,290.918,151.04,293.99,149.504z
	 M299.725,128.819c3.277,0,5.734,0.819,5.734,2.458s-2.458,2.458-5.734,2.458c-3.277,0-5.734-0.819-5.734-2.458
	C293.99,129.638,295.629,128.819,299.725,128.819z"/>
<path d="M206.848,130.355c0.819-1.024,2.867-1.536,5.427-1.536c3.277,0,5.734,0.819,5.734,2.458c0,0.819-0.614,1.434-1.741,1.843
	l25.805,7.782c-2.15-2.662-6.554-6.656-11.571-8.09c4.096-2.458,4.915-3.277,8.294-5.734c-6.656-0.819-12.39-1.638-18.125-3.277
	c-0.819-1.638-6.656-3.277-8.294-3.277c-4.096,0-11.571,1.638-11.571,4.915c-4.096-0.512-6.861-0.41-8.806,0.205L206.848,130.355z"
	/>
<path d="M369.562,179.712l6.656,2.048C375.91,178.278,373.248,176.845,369.562,179.712z"/>
<g>
</g>
<g>
</g>
<g>
</g>
<g>
</g>
<g>
</g>
<g>
</g>
<g>
</g>
<g>
</g>
<g>
</g>
<g>
</g>
<g>
</g>
<g>
</g>
<g>
</g>
<g>
</g>
<g>
</g>
</svg>
