<svg height="511pt" viewBox="1 -79 511.999 511" width="511pt" xmlns="http://www.w3.org/2000/svg"><path d="m397.242188 353.601562h97.101562c9.75 0 17.65625-7.902343 17.65625-17.652343v-317.792969c0-9.753906-7.90625-17.65625-17.65625-17.65625h-476.6875c-9.753906 0-17.65625 7.90625-17.65625 17.65625v317.792969c0 9.75 7.902344 17.652343 17.65625 17.652343zm0 0" fill="#c03a2b"/><path d="m320.617188 282.984375h94.28125c4.867187-.015625 8.8125-3.960937 8.828124-8.828125v-194.207031c-.015624-4.871094-3.960937-8.8125-8.828124-8.828125h-317.796876c-4.867187.011718-8.8125 3.957031-8.828124 8.828125v194.207031c.015624 4.867188 3.960937 8.8125 8.828124 8.828125zm0 0" fill="#4fba6f"/><path d="m291.308594 244.140625c-29.121094 9.574219-61.089844-.734375-79.136719-25.515625-18.046875-24.777344-18.046875-58.367188 0-83.148438 18.046875-24.777343 50.015625-35.085937 79.136719-25.515624-28.96875 9.535156-48.550782 36.589843-48.550782 67.089843 0 30.503907 19.582032 57.558594 48.550782 67.089844zm0 0" fill="#fff"/></svg>