<svg height="512pt" viewBox="0 -79 512 511" width="512pt" xmlns="http://www.w3.org/2000/svg"><path d="m494.34375.5h-476.6875c-4.554688-.019531-8.933594 1.757812-12.183594 4.945312-3.484375 3.3125-5.4609372 7.902344-5.472656 12.710938v317.792969c.0117188 4.804687 1.988281 9.398437 5.472656 12.710937 3.25 3.1875 7.628906 4.964844 12.183594 4.941406h476.6875c9.742188-.027343 17.628906-7.914062 17.65625-17.652343v-317.792969c-.027344-9.738281-7.914062-17.628906-17.65625-17.65625zm0 0" fill="#4c8056"/><path d="m512 247.671875v88.277344c-.027344 9.738281-7.914062 17.625-17.65625 17.65625h-476.6875c-4.554688.019531-8.933594-1.757813-12.183594-4.945313l111.050782-100.988281zm0 0" fill="#4c8056"/><path d="m194.207031 177.050781-48.550781 44.140625-29.132812 26.480469-111.050782 100.988281c-3.484375-3.3125-5.4609372-7.902344-5.472656-12.710937v-317.792969c.0117188-4.808594 1.988281-9.402344 5.472656-12.710938l111.050782 100.984376 29.132812 26.484374zm0 0" fill="#c03a2b"/><path d="m512 106.429688v141.242187h-395.476562l29.132812-26.480469 48.550781-44.140625-48.550781-44.136719-29.132812-26.484374zm0 0" fill="#f0c419"/><g fill="#2c2f38"><path d="m282.484375 132.914062 13.636719 29.058594 30.5 4.664063-22.070313 22.617187 5.210938 31.9375-27.277344-15.078125-27.277344 15.078125 5.207031-31.9375-22.070312-22.617187 30.5-4.664063zm0 0"/><path d="m414.898438 132.914062 13.636718 29.058594 30.5 4.664063-22.070312 22.617187 5.210937 31.9375-27.277343-15.078125-27.28125 15.078125 5.210937-31.9375-22.070313-22.617187 30.5-4.664063zm0 0"/></g></svg>