<svg height="512" viewBox="0 0 128 128" width="512" xmlns="http://www.w3.org/2000/svg"><g><g><ellipse cx="24.709" cy="74.014" fill="#ffca28" rx="18.403" ry="29.03"/><path d="m103.291 44.984h-20.073l-12.412-17.528a1.721 1.721 0 0 1 .359 1.011c0 1.939-3.768 3.511-8.416 3.511-4.171 0-7.623-1.267-8.29-2.928h-.008l5.319 15.934h-35.061c10.164 0 18.4 13 18.4 29.03s-8.238 29.028-18.4 29.03h78.58c10.163 0 18.4-13 18.4-29.03s-8.235-29.03-18.398-29.03z" fill="#9b6e42"/><path d="m25.1 86.422c-3.544 0-5.224-5.13-5.615-9.932a1.75 1.75 0 0 1 3.489-.284c.374 4.594 1.752 6.563 2.185 6.724a1.721 1.721 0 0 1 1.72 1.746 1.772 1.772 0 0 1 -1.779 1.746z" fill="#e5af29"/><path d="m29.06 75.838a1.751 1.751 0 0 1 -1.75-1.75c0-5.45-1.529-8.421-2.209-8.814-.417.25-1.365 1.667-1.887 4.751a1.75 1.75 0 1 1 -3.451-.584c.826-4.885 2.772-7.687 5.337-7.687 3.923 0 5.71 6.393 5.71 12.334a1.751 1.751 0 0 1 -1.75 1.75z" fill="#e5af29"/><path d="m33.675 65.254a1.752 1.752 0 0 1 -1.647-1.154 16.742 16.742 0 0 0 -2.851-5.166 1.75 1.75 0 1 1 2.66-2.275 19.941 19.941 0 0 1 3.484 6.255 1.751 1.751 0 0 1 -1.646 2.343z" fill="#e5af29"/><path d="m15.089 84.185a1.751 1.751 0 0 1 -1.689-1.3 34.216 34.216 0 0 1 -1.127-8.874c0-11.808 5.462-21.057 12.436-21.057a1.75 1.75 0 0 1 0 3.5c-4.844 0-8.936 8.04-8.936 17.557a30.738 30.738 0 0 0 1.007 7.969 1.754 1.754 0 0 1 -1.691 2.2z" fill="#e5af29"/><path d="m24.709 95.07c-3.619 0-6.908-2.442-9.261-6.877a1.75 1.75 0 0 1 3.092-1.641c1.692 3.189 3.94 5.018 6.169 5.018 4.844 0 8.937-8.04 8.937-17.556a1.75 1.75 0 0 1 3.5 0c0 11.807-5.463 21.056-12.437 21.056z" fill="#e5af29"/><g fill="#825a3a"><path d="m118.44 57.53h-26.2a1.75 1.75 0 1 1 0-3.5h24.39a29.517 29.517 0 0 1 1.81 3.5z"/><path d="m64 57.53h-15.016a1.75 1.75 0 0 1 0-3.5h15.016a1.75 1.75 0 0 1 0 3.5z"/><path d="m81.646 57.53h-6.078a1.75 1.75 0 0 1 0-3.5h6.078a1.75 1.75 0 0 1 0 3.5z"/><path d="m94.79 68.57a1.752 1.752 0 0 1 -1.75 1.75h-50.08c-.09-1.19-.24-2.36-.42-3.5h50.5a1.752 1.752 0 0 1 1.75 1.75z"/><path d="m111.952 82.26h-40.789a1.75 1.75 0 0 1 0-3.5h40.789a1.75 1.75 0 0 1 0 3.5z"/><path d="m56.2 80.51a1.746 1.746 0 0 1 -1.75 1.75h-12.1c.22-1.14.39-2.31.51-3.5h11.59a1.746 1.746 0 0 1 1.75 1.75z"/><path d="m65.75 93.32a1.746 1.746 0 0 1 -1.75 1.75h-26.63a27.454 27.454 0 0 0 1.99-3.5h24.64a1.746 1.746 0 0 1 1.75 1.75z"/><path d="m117.94 91.57a27.454 27.454 0 0 1 -1.99 3.5h-13.04a1.75 1.75 0 0 1 0-3.5z"/><path d="m93.039 95.07h-6.51a1.75 1.75 0 0 1 0-3.5h6.51a1.75 1.75 0 0 1 0 3.5z"/></g><ellipse cx="62.747" cy="28.467" fill="#ffca28" rx="8.415" ry="3.511"/><path d="m74.09 48.587-8.2-16.864a19.054 19.054 0 0 1 -3.141.255c-.213 0-.423-.007-.633-.013l8.829 18.153a1.75 1.75 0 1 0 3.147-1.531z" fill="#825a3a"/></g><path d="m121.54 70.32h-12.04a1.75 1.75 0 0 1 0-3.5h11.62c.18 1.14.33 2.31.42 3.5z" fill="#825a3a"/></g></svg>